<svg width="1598" height="1598" viewBox="0 0 1598 1598" fill="none" xmlns="http://www.w3.org/2000/svg">
<path d="M1307.06 2.51109e-05H291.304C253.055 -0.015859 215.178 7.50409 179.836 22.1303C144.494 36.7565 112.38 58.2024 85.3283 85.2428C58.2766 112.283 36.8174 144.388 22.1766 179.724C7.53567 215.06 -3.29819e-06 252.934 0 291.183L0 1306.94C-3.29956e-06 1345.17 7.53255 1383.03 22.1673 1418.35C36.8022 1453.67 58.2524 1485.76 85.2929 1512.79C112.333 1539.82 144.434 1561.26 179.761 1575.88C215.089 1590.5 252.95 1598.02 291.183 1598H1306.94C1345.17 1598.02 1383.02 1590.5 1418.34 1575.88C1453.66 1561.25 1485.75 1539.82 1512.79 1512.79C1539.82 1485.75 1561.25 1453.66 1575.88 1418.34C1590.5 1383.02 1598.02 1345.17 1598 1306.94V291.183C1598.02 252.96 1590.5 215.109 1575.89 179.789C1561.28 144.47 1539.85 112.374 1512.84 85.3356C1485.82 58.2968 1453.74 36.844 1418.43 22.2021C1383.13 7.56017 1345.28 0.0159017 1307.06 2.51109e-05ZM1544.67 1307.06C1544.58 1370.05 1519.51 1430.43 1474.97 1474.97C1430.43 1519.51 1370.05 1544.58 1307.06 1544.67H291.304C228.283 1544.64 167.852 1519.6 123.278 1475.05C78.7045 1430.5 53.633 1370.08 53.569 1307.06V291.304C53.601 228.284 78.6417 167.852 123.193 123.278C167.743 78.7045 228.163 53.6331 291.183 53.569H1306.94C1369.94 53.633 1430.34 78.6879 1474.89 123.235C1519.43 167.783 1544.49 228.184 1544.55 291.183L1544.67 1307.06Z" fill="black"/>
<path d="M1276.24 416.452H932.694C924.572 416.933 916.655 419.198 909.508 423.085C902.36 426.973 896.156 432.387 891.338 438.944L507.891 1033.4C504.002 1040.28 501.958 1048.05 501.958 1055.95C501.958 1063.86 504.002 1071.63 507.891 1078.51L676.095 1344.54C677.362 1347.29 679.39 1349.62 681.941 1351.25C684.491 1352.89 687.456 1353.76 690.485 1353.76C693.514 1353.76 696.479 1352.89 699.03 1351.25C701.58 1349.62 703.609 1347.29 704.875 1344.54L1288.57 438.944C1296.55 426.61 1290.99 416.452 1276.24 416.452Z" fill="black"/>
<path d="M560.596 759.753L767.375 438.944C775.356 426.852 769.914 416.452 755.282 416.452H342.088C327.456 416.452 321.773 426.731 329.996 439.186L532.058 759.632C533.341 762.322 535.357 764.596 537.875 766.192C540.392 767.788 543.309 768.641 546.289 768.654C549.27 768.667 552.193 767.838 554.724 766.263C557.255 764.689 559.29 762.432 560.596 759.753Z" fill="black"/>
</svg>
