<svg xmlns="http://www.w3.org/2000/svg" version="1.1" xmlns:xlink="http://www.w3.org/1999/xlink" xmlns:svgjs="http://svgjs.dev/svgjs" width="1000" height="232" viewBox="0 0 1000 232"><g transform="matrix(1,0,0,1,-0.6056348047761162,0.13866244068670142)"><svg viewBox="0 0 396 92" data-background-color="#ffffff" preserveAspectRatio="xMidYMid meet" height="232" width="1000" xmlns="http://www.w3.org/2000/svg" xmlns:xlink="http://www.w3.org/1999/xlink"><defs></defs><g id="tight-bounds" transform="matrix(1,0,0,1,0.24008861730862918,-0.05498682992748627)"><svg viewBox="0 0 395.52 92.109969982548" height="92.109969982548" width="395.52"><g><svg viewBox="0 0 395.52 92.109969982548" height="92.109969982548" width="395.52"><g><svg viewBox="0 0 395.52 92.109969982548" height="92.109969982548" width="395.52"><g><svg viewBox="0 0 395.52 92.109969982548" height="92.109969982548" width="395.52"><g><svg viewBox="0 0 395.52 92.109969982548" height="92.109969982548" width="395.52"><path d="M394.594 19.756C392.735 10.195 387.435 7.537 387.435 7.537 371.165-2.311 350.86-0.188 332.619 1.227 300.414 1.284 268.339 3.387 236.208 4.516 168.767 4.688 100.749 1.858 33.643 8.837 27.339 10.979-6.54 9.258 1.121 20.98 3.129 25.856 10.456 31.267 10.232 35.742 11.236 36.526 12.631 34.728 13.226 35.857 15.309 38.897 18.711 37.463 21.501 39.26 17.614 44.06 20.403 48.056 23.062 52.244 18.377 53.334 12.371 52.818 9.675 56.432 9.396 59.051 7.89 58.554 6.235 58.44 5.026 58.363 2.59 58.65 2.999 59.472 4.394 62.283-1.594 63.908 2.162 66.662-0.422 69.645 3.948 72.226 3.353 75.458 3.278 76.108 3.687 76.663 4.338 76.816 7.22 77.638 3.018 79.244 3.464 80.984 33.029 92.878 65.104 84.656 95.394 90.125 103.259 86.3 97.346 91.482 100.489 90.679 102.943 89.742 104.728 93.624 107.499 91.425 107.927 90.794 107.276 89.302 108.8 89.589 109.6 89.742 110.307 89.704 110.418 88.824 110.586 87.505 109.117 88.327 108.726 87.639 112.947 84.159 111.906 92.438 115.866 92.094 115.68 91.081 114.528 89.627 116.889 89.819 119.232 88.365 119.306 87.161 121.389 90.431 121.463 91.138 121.835 91.635 122.43 91.979 128.938 88.423 135.409 93.242 142.233 91.635 146.417 89.876 150.433 92.591 154.672 91.922 156.16 91.387 157.666 90.431 159.098 92.037 176.632 92.381 195.319 90.947 211.943 92.094 256.364 89.953 303.835 92.974 350.674 90.144 361.719 89.054 373.192 87.505 383.958 86.262 383.958 86.262 392.679 82.858 392.679 67.561S394.538 54.175 394.817 41.995C395.096 29.814 396.398 29.317 394.538 19.756Z" opacity="1" fill="#fce44d" data-fill-palette-color="tertiary"></path><g transform="matrix(1,0,0,1,55.76832,26.230666666666668)"><svg width="283.98335999999995" viewBox="1 -35.5 257.8299865722656 36" height="39.64863664921465" data-palette-color="#ffffff"><path d="M4.55 0L2 0Q1.6 0 1.3-0.3 1-0.6 1-1L1-1Q1-1.25 1.05-1.55L1.05-1.55 13.45-33.9Q13.65-34.4 14-34.7 14.35-35 15.05-35L15.05-35 18.45-35Q19.15-35 19.5-34.7 19.85-34.4 20.05-33.9L20.05-33.9 32.4-1.55Q32.5-1.25 32.5-1L32.5-1Q32.5-0.6 32.2-0.3 31.9 0 31.5 0L31.5 0 28.95 0Q28.35 0 28.08-0.3 27.8-0.6 27.7-0.85L27.7-0.85 24.95-7.95 8.55-7.95 5.8-0.85Q5.75-0.6 5.45-0.3 5.15 0 4.55 0L4.55 0ZM16.75-30L10-12.25 23.5-12.25 16.75-30ZM50.45 0.5L50.45 0.5Q45.85 0.5 42.82-1.2 39.8-2.9 38.25-5.95 36.7-9 36.55-13.05L36.55-13.05Q36.5-15.1 36.5-17.45 36.5-19.8 36.55-21.95L36.55-21.95Q36.7-26 38.25-29.05 39.8-32.1 42.82-33.8 45.85-35.5 50.45-35.5L50.45-35.5Q53.9-35.5 56.5-34.55 59.1-33.6 60.82-32 62.55-30.4 63.45-28.43 64.35-26.45 64.45-24.35L64.45-24.35Q64.5-23.9 64.17-23.6 63.85-23.3 63.4-23.3L63.4-23.3 60.65-23.3Q60.2-23.3 59.87-23.55 59.55-23.8 59.4-24.45L59.4-24.45Q58.55-28.35 56.22-29.8 53.9-31.25 50.45-31.25L50.45-31.25Q46.4-31.25 44.05-28.98 41.7-26.7 41.55-21.7L41.55-21.7Q41.4-17.6 41.55-13.3L41.55-13.3Q41.7-8.3 44.05-6.03 46.4-3.75 50.45-3.75L50.45-3.75Q53.9-3.75 56.22-5.2 58.55-6.65 59.4-10.55L59.4-10.55Q59.55-11.2 59.87-11.45 60.2-11.7 60.65-11.7L60.65-11.7 63.4-11.7Q63.85-11.7 64.17-11.43 64.5-11.15 64.45-10.7L64.45-10.7Q64.35-8.6 63.45-6.6 62.55-4.6 60.82-3 59.1-1.4 56.5-0.45 53.9 0.5 50.45 0.5ZM83.75 0.5L83.75 0.5Q79.15 0.5 76.12-1.2 73.1-2.9 71.55-5.95 70-9 69.85-13.05L69.85-13.05Q69.8-15.1 69.8-17.45 69.8-19.8 69.85-21.95L69.85-21.95Q70-26 71.55-29.05 73.1-32.1 76.12-33.8 79.15-35.5 83.75-35.5L83.75-35.5Q87.2-35.5 89.8-34.55 92.4-33.6 94.12-32 95.85-30.4 96.75-28.43 97.65-26.45 97.75-24.35L97.75-24.35Q97.8-23.9 97.47-23.6 97.15-23.3 96.7-23.3L96.7-23.3 93.95-23.3Q93.5-23.3 93.17-23.55 92.85-23.8 92.7-24.45L92.7-24.45Q91.85-28.35 89.52-29.8 87.2-31.25 83.75-31.25L83.75-31.25Q79.7-31.25 77.35-28.98 75-26.7 74.85-21.7L74.85-21.7Q74.7-17.6 74.85-13.3L74.85-13.3Q75-8.3 77.35-6.03 79.7-3.75 83.75-3.75L83.75-3.75Q87.2-3.75 89.52-5.2 91.85-6.65 92.7-10.55L92.7-10.55Q92.85-11.2 93.17-11.45 93.5-11.7 93.95-11.7L93.95-11.7 96.7-11.7Q97.15-11.7 97.47-11.43 97.8-11.15 97.75-10.7L97.75-10.7Q97.65-8.6 96.75-6.6 95.85-4.6 94.12-3 92.4-1.4 89.8-0.45 87.2 0.5 83.75 0.5ZM126.64 0L105.59 0Q105.04 0 104.74-0.33 104.44-0.65 104.44-1.15L104.44-1.15 104.44-33.8Q104.44-34.35 104.74-34.68 105.04-35 105.59-35L105.59-35 126.24-35Q126.79-35 127.09-34.68 127.39-34.35 127.39-33.8L127.39-33.8 127.39-31.9Q127.39-31.35 127.09-31.05 126.79-30.75 126.24-30.75L126.24-30.75 109.24-30.75 109.24-19.8 125.14-19.8Q125.69-19.8 125.99-19.48 126.29-19.15 126.29-18.6L126.29-18.6 126.29-16.75Q126.29-16.25 125.99-15.93 125.69-15.6 125.14-15.6L125.14-15.6 109.24-15.6 109.24-4.25 126.64-4.25Q127.19-4.25 127.49-3.95 127.79-3.65 127.79-3.1L127.79-3.1 127.79-1.15Q127.79-0.65 127.49-0.33 127.19 0 126.64 0L126.64 0ZM138.54 0L135.89 0Q135.34 0 135.04-0.33 134.74-0.65 134.74-1.15L134.74-1.15 134.74-33.8Q134.74-34.35 135.04-34.68 135.34-35 135.89-35L135.89-35 148.59-35Q152.29-35 155.02-33.8 157.74-32.6 159.24-30.23 160.74-27.85 160.74-24.3L160.74-24.3Q160.74-20.75 159.24-18.4 157.74-16.05 155.02-14.85 152.29-13.65 148.59-13.65L148.59-13.65 139.74-13.65 139.74-1.15Q139.74-0.65 139.42-0.33 139.09 0 138.54 0L138.54 0ZM139.69-30.8L139.69-17.85 148.34-17.85Q152.04-17.85 153.89-19.5 155.74-21.15 155.74-24.3L155.74-24.3Q155.74-27.4 153.94-29.1 152.14-30.8 148.34-30.8L148.34-30.8 139.69-30.8ZM178.24 0L175.64 0Q175.14 0 174.81-0.33 174.49-0.65 174.49-1.15L174.49-1.15 174.49-30.55 164.89-30.55Q164.39-30.55 164.06-30.88 163.74-31.2 163.74-31.7L163.74-31.7 163.74-33.8Q163.74-34.35 164.06-34.68 164.39-35 164.89-35L164.89-35 188.99-35Q189.54-35 189.86-34.68 190.19-34.35 190.19-33.8L190.19-33.8 190.19-31.7Q190.19-31.2 189.86-30.88 189.54-30.55 188.99-30.55L188.99-30.55 179.44-30.55 179.44-1.15Q179.44-0.65 179.11-0.33 178.79 0 178.24 0L178.24 0ZM199.39 0L196.94 0Q196.44 0 196.11-0.33 195.79-0.65 195.79-1.15L195.79-1.15 195.79-33.8Q195.79-34.35 196.11-34.68 196.44-35 196.94-35L196.94-35 199.44-35Q200.04-35 200.34-34.7 200.64-34.4 200.74-34.2L200.74-34.2 211.29-14 221.94-34.2Q222.04-34.4 222.31-34.7 222.59-35 223.19-35L223.19-35 225.64-35Q226.19-35 226.51-34.68 226.84-34.35 226.84-33.8L226.84-33.8 226.84-1.15Q226.84-0.65 226.51-0.33 226.19 0 225.64 0L225.64 0 223.19 0Q222.69 0 222.36-0.33 222.04-0.65 222.04-1.15L222.04-1.15 222.04-25.75 213.69-9.45Q213.49-8.95 213.09-8.68 212.69-8.4 212.09-8.4L212.09-8.4 210.54-8.4Q209.89-8.4 209.54-8.68 209.19-8.95 208.94-9.45L208.94-9.45 200.54-25.75 200.54-1.15Q200.54-0.65 200.21-0.33 199.89 0 199.39 0L199.39 0ZM257.68 0L236.63 0Q236.08 0 235.78-0.33 235.48-0.65 235.48-1.15L235.48-1.15 235.48-33.8Q235.48-34.35 235.78-34.68 236.08-35 236.63-35L236.63-35 257.28-35Q257.83-35 258.13-34.68 258.43-34.35 258.43-33.8L258.43-33.8 258.43-31.9Q258.43-31.35 258.13-31.05 257.83-30.75 257.28-30.75L257.28-30.75 240.28-30.75 240.28-19.8 256.18-19.8Q256.73-19.8 257.03-19.48 257.33-19.15 257.33-18.6L257.33-18.6 257.33-16.75Q257.33-16.25 257.03-15.93 256.73-15.6 256.18-15.6L256.18-15.6 240.28-15.6 240.28-4.25 257.68-4.25Q258.23-4.25 258.53-3.95 258.83-3.65 258.83-3.1L258.83-3.1 258.83-1.15Q258.83-0.65 258.53-0.33 258.23 0 257.68 0L257.68 0Z" opacity="1" transform="matrix(1,0,0,1,0,0)" fill="#ffffff" class="undefined-text-0" data-fill-palette-color="quaternary" id="text-0"></path></svg></g></svg></g></svg></g></svg></g><g></g></svg></g></svg><rect width="395.52" height="92.109969982548" fill="none" stroke="none" visibility="hidden"></rect></g></svg></g></svg>