<svg width="1563" height="359" viewBox="0 0 1563 359" fill="none" xmlns="http://www.w3.org/2000/svg">
<g clip-path="url(#clip0)">
<path d="M293 12C307.121 12.0159 320.658 17.6323 330.643 27.617C340.628 37.6018 346.244 51.1394 346.26 65.26V293C346.244 307.121 340.628 320.658 330.643 330.643C320.658 340.628 307.121 346.244 293 346.26H65.26C51.1394 346.244 37.6018 340.628 27.617 330.643C17.6323 320.658 12.0159 307.121 12 293V65.26C12.0159 51.1394 17.6323 37.6018 27.617 27.617C37.6018 17.6323 51.1394 12.0159 65.26 12H293ZM293 0H65.26C47.952 0 31.3528 6.87559 19.1142 19.1142C6.87559 31.3528 0 47.952 0 65.26L0 293C0 310.308 6.87559 326.907 19.1142 339.146C31.3528 351.384 47.952 358.26 65.26 358.26H293C310.308 358.26 326.907 351.384 339.146 339.146C351.384 326.907 358.26 310.308 358.26 293V65.26C358.26 47.952 351.384 31.3528 339.146 19.1142C326.907 6.87559 310.308 0 293 0V0Z" fill="#020202"/>
<path d="M288.839 98.41C290.629 95.64 289.399 93.41 286.099 93.41H209.099C207.284 93.5094 205.513 94.0092 203.914 94.8736C202.315 95.7381 200.927 96.9458 199.849 98.41L113.729 231.67C112.847 233.207 112.378 234.945 112.367 236.717C112.357 238.489 112.805 240.233 113.669 241.78L151.389 301.51C153.149 304.3 156.059 304.31 157.849 301.51L288.839 98.41Z" fill="black"/>
<path d="M169.279 93.37C172.579 93.37 173.819 95.64 172.029 98.37L125.669 170.28C123.889 173.05 120.979 173.04 119.219 170.28L73.8892 98.44C72.1292 95.65 73.3892 93.37 76.6892 93.37H169.279Z" fill="black"/>
<path d="M898.93 93.08H862.9V256.86H898.93V93.08Z" fill="black"/>
<path d="M563.51 93.08L517.11 186.43L473.43 93.08H431.83L496.09 230.16L449.19 322.37H491.12L605.76 93.08H563.51Z" fill="black"/>
<path d="M827.85 4.64001H792.15V256.86H827.85V4.64001Z" fill="black"/>
<path d="M686.351 123.87C695.998 123.938 705.435 126.702 713.595 131.849C721.755 136.996 728.314 144.322 732.531 153H769.531C764.606 134.745 753.768 118.638 738.714 107.199C723.659 95.7596 705.237 89.6339 686.331 89.78C639.161 89.78 601.811 128.11 601.811 174.95C601.811 222.12 639.161 260.12 686.331 260.12C726.621 260.12 759.701 232.6 769.531 194.93H732.531C728.532 203.852 722.053 211.436 713.865 216.78C705.678 222.123 696.127 225.001 686.351 225.07C659.161 225.07 635.901 202.14 635.901 174.95C635.901 146.47 659.161 123.87 686.351 123.87Z" fill="black"/>
<path d="M880.92 27.89C867.82 27.89 858.32 37.72 858.32 50.17C858.32 62.94 867.82 73.75 880.92 73.75C893.69 73.75 903.52 62.94 903.52 50.17C903.536 47.2129 902.959 44.2825 901.825 41.5515C900.69 38.8205 899.021 36.344 896.915 34.2679C894.809 32.1918 892.309 30.558 889.562 29.4627C886.815 28.3674 883.877 27.8326 880.92 27.89Z" fill="black"/>
<path d="M1332.63 40.67H1297.25V221.16C1297.25 242.78 1313.96 256.86 1333.94 256.86H1385.37V221.48H1342.37C1339.79 221.48 1337.33 220.457 1335.5 218.636C1333.68 216.815 1332.66 214.345 1332.66 211.77V128.46H1385.4V93.08H1332.66L1332.63 40.67Z" fill="black"/>
<path d="M1011 89.8C986.76 89.8 965.8 97.66 949.09 114.37C934.414 130.754 926.346 152.004 926.45 174C926.45 197.58 934.97 219.86 950.03 235.25C966.08 250.32 987.38 260.15 1010.96 260.15C1034.54 260.15 1056.16 250.32 1072.54 234.27C1079.75 227.39 1084.34 219.53 1088.92 210.03L1047 211C1037.83 220.5 1025.71 225.41 1011 225.41C996.59 225.41 984.14 220.83 975.3 211.33C969.086 205.256 964.549 197.677 962.13 189.33H1094.86L1094.97 186.49C1095.32 182.93 1095.84 178.04 1095.84 173.94C1095.8 125.51 1059.11 89.8 1011 89.8ZM962.95 156.3C969.95 137.01 988.28 123.87 1011 123.87C1033.44 123.87 1051.43 136.99 1058.62 156.3H962.95Z" fill="black"/>
<path d="M1199.31 89.8C1184.18 89.8 1169.86 94.1 1159.02 104.4V93.08H1123.64V256.86H1159V162.52C1159 141.52 1174.72 123.21 1195.36 123.21C1216.98 123.21 1232.7 141.21 1232.7 162.52V256.86H1268.08V159.86C1268.1 119.28 1239.93 89.8 1199.31 89.8Z" fill="black"/>
<path d="M1512.79 157H1461.64C1457.95 156.902 1454.44 155.365 1451.86 152.718C1449.28 150.07 1447.84 146.521 1447.84 142.825C1447.84 139.129 1449.28 135.58 1451.86 132.932C1454.44 130.285 1457.95 128.748 1461.64 128.65H1553.31V93H1461.64C1448.38 93 1435.66 98.2678 1426.29 107.645C1416.91 117.021 1411.64 129.739 1411.64 143C1411.64 156.261 1416.91 168.979 1426.29 178.355C1435.66 187.732 1448.38 193 1461.64 193H1512.79C1514.64 192.962 1516.48 193.298 1518.19 193.988C1519.91 194.678 1521.47 195.708 1522.78 197.016C1524.08 198.323 1525.11 199.882 1525.8 201.598C1526.49 203.313 1526.83 205.151 1526.79 207C1526.78 210.743 1525.32 214.335 1522.7 217.013C1520.09 219.691 1516.53 221.244 1512.79 221.34H1418.14V257H1512.79C1526.05 257 1538.77 251.732 1548.15 242.355C1557.52 232.979 1562.79 220.261 1562.79 207C1562.79 193.739 1557.52 181.021 1548.15 171.645C1538.77 162.268 1526.05 157 1512.79 157V157Z" fill="black"/>
</g>
<defs>
<clipPath id="clip0">
<rect width="1562.78" height="358.26" fill="white"/>
</clipPath>
</defs>
</svg>
