<svg width="375" height="366" viewBox="0 0 375 366" fill="none" xmlns="http://www.w3.org/2000/svg">
<path d="M9.49805 19.5846C9.49805 8.76835 18.2664 0 29.0827 0H74.8869C85.7032 0 94.4716 8.76834 94.4716 19.5846V20C94.4716 30.8163 85.7032 39.5846 74.8869 39.5846H29.0827C18.2664 39.5846 9.49805 30.8163 9.49805 20V19.5846Z" fill="#7EACBD" fill-opacity="0.82"/>
<path d="M45.4768 15.1323H41.0614V23.7923H39.1528V13.6083H47.3854V23.7923H45.4768V15.1323ZM52.8311 22.5959C53.4768 22.5959 53.98 22.3775 54.3409 21.9407C54.7017 21.4944 54.8821 20.8866 54.8821 20.1175V20.0178C54.8821 19.2487 54.7017 18.6457 54.3409 18.2089C53.98 17.7626 53.4768 17.5395 52.8311 17.5395C52.1854 17.5395 51.6774 17.7579 51.307 18.1947C50.9462 18.6314 50.7658 19.2344 50.7658 20.0036V20.1175C50.7658 20.8866 50.9462 21.4944 51.307 21.9407C51.6679 22.3775 52.1759 22.5959 52.8311 22.5959ZM55.5658 22.8807C54.8441 23.5834 53.9278 23.9347 52.8168 23.9347C51.7058 23.9347 50.7895 23.5881 50.0679 22.895C49.3557 22.1923 48.9996 21.276 48.9996 20.146V20.032C48.9996 18.8926 49.3604 17.9668 50.0821 17.2546C50.8038 16.5424 51.7201 16.1863 52.8311 16.1863C53.9326 16.1863 54.8441 16.5377 55.5658 17.2403C56.2875 17.943 56.6483 18.8593 56.6483 19.9893V20.1033C56.6483 21.2522 56.2875 22.178 55.5658 22.8807ZM60.1585 20.8012C60.0636 21.8647 59.8547 22.6481 59.5318 23.1513C59.2184 23.6546 58.7247 23.9062 58.0505 23.9062C57.8226 23.9062 57.6612 23.892 57.5662 23.8635C57.5472 23.854 57.5187 23.8398 57.4808 23.8208C57.4523 23.8113 57.4333 23.8065 57.4238 23.8065V22.368L57.5092 22.3964C57.6042 22.4154 57.6897 22.4249 57.7656 22.4249C58.0315 22.4249 58.2262 22.2683 58.3496 21.9549C58.4825 21.6321 58.5822 21.1525 58.6487 20.5163C58.6677 20.3359 58.6819 20.1033 58.6914 19.8184C58.7009 19.5335 58.7104 19.2107 58.7199 18.8498C58.7389 18.4795 58.7532 18.1852 58.7627 17.9668L58.8054 16.343H64.2321V23.7923H62.5229V17.6249H60.3152C60.2392 19.3436 60.187 20.4024 60.1585 20.8012Z" fill="white"/>
<path d="M110.495 19.5846C110.495 8.76835 119.264 0 130.08 0H220.884C231.701 0 240.469 8.76834 240.469 19.5846V20C240.469 30.8163 231.701 39.5846 220.884 39.5846H130.08C119.264 39.5846 110.495 30.8163 110.495 20V19.5846Z" fill="#7EACBD" fill-opacity="0.82"/>
<path d="M140.15 13.6083H142.044V18.2231L145.947 13.594H147.984L143.768 18.4653L148.198 23.7923H145.961L142.044 19.035V23.7923H140.15V13.6083ZM151.278 23.9347C150.547 23.9347 149.949 23.7543 149.484 23.3935C149.018 23.0232 148.786 22.4677 148.786 21.727C148.786 20.9104 149.132 20.3122 149.826 19.9323C150.528 19.5525 151.454 19.3626 152.603 19.3626H153.529V18.978C153.529 18.4558 153.429 18.076 153.23 17.8386C153.03 17.6012 152.679 17.4825 152.176 17.4825C151.331 17.4825 150.856 17.8718 150.751 18.6504H149.085C149.161 17.8243 149.488 17.2071 150.068 16.7988C150.647 16.3905 151.383 16.1863 152.275 16.1863C154.26 16.1863 155.252 17.0932 155.252 18.9068V23.7923H153.557V22.8807C153.007 23.5834 152.247 23.9347 151.278 23.9347ZM151.691 22.6956C152.242 22.6956 152.684 22.5626 153.016 22.2967C153.358 22.0309 153.529 21.6605 153.529 21.1858V20.4451H152.646C151.212 20.4451 150.495 20.8487 150.495 21.6558C150.495 22.349 150.894 22.6956 151.691 22.6956ZM162.727 17.6249H160.448V23.7923H158.725V17.6249H156.446V16.343H162.727V17.6249ZM167.138 23.9347C166.018 23.9347 165.106 23.5929 164.404 22.9092C163.711 22.2255 163.364 21.3045 163.364 20.146V20.032C163.364 18.8926 163.711 17.9668 164.404 17.2546C165.106 16.5424 165.994 16.1863 167.067 16.1863C168.074 16.1863 168.909 16.4997 169.574 17.1264C170.248 17.7531 170.585 18.6932 170.585 19.9466V20.4451H165.13C165.159 21.1573 165.344 21.7033 165.686 22.0831C166.037 22.4629 166.536 22.6528 167.181 22.6528C168.188 22.6528 168.757 22.273 168.89 21.5134H170.557C170.433 22.3015 170.073 22.9045 169.474 23.3223C168.886 23.7306 168.107 23.9347 167.138 23.9347ZM168.876 19.2914C168.781 18.057 168.178 17.4398 167.067 17.4398C166.555 17.4398 166.127 17.6059 165.785 17.9383C165.453 18.2611 165.244 18.7122 165.159 19.2914H168.876ZM173.848 17.6249V23.7923H172.125V16.343H177.096V17.6249H173.848ZM181.592 22.5959C182.238 22.5959 182.741 22.3775 183.102 21.9407C183.462 21.4944 183.643 20.8866 183.643 20.1175V20.0178C183.643 19.2487 183.462 18.6457 183.102 18.2089C182.741 17.7626 182.238 17.5395 181.592 17.5395C180.946 17.5395 180.438 17.7579 180.068 18.1947C179.707 18.6314 179.527 19.2344 179.527 20.0036V20.1175C179.527 20.8866 179.707 21.4944 180.068 21.9407C180.429 22.3775 180.937 22.5959 181.592 22.5959ZM184.327 22.8807C183.605 23.5834 182.689 23.9347 181.578 23.9347C180.467 23.9347 179.55 23.5881 178.829 22.895C178.116 22.1923 177.76 21.276 177.76 20.146V20.032C177.76 18.8926 178.121 17.9668 178.843 17.2546C179.565 16.5424 180.481 16.1863 181.592 16.1863C182.693 16.1863 183.605 16.5377 184.327 17.2403C185.048 17.943 185.409 18.8593 185.409 19.9893V20.1033C185.409 21.2522 185.048 22.178 184.327 22.8807ZM186.966 16.343H188.69V17.5395C188.908 17.1596 189.236 16.8415 189.673 16.5851C190.119 16.3193 190.603 16.1863 191.125 16.1863C192.084 16.1863 192.873 16.5282 193.49 17.2119C194.116 17.886 194.43 18.8071 194.43 19.9751V20.089C194.43 21.2665 194.121 22.2018 193.504 22.895C192.896 23.5881 192.103 23.9347 191.125 23.9347C190.556 23.9347 190.057 23.816 189.63 23.5786C189.212 23.3318 188.899 23.0137 188.69 22.6243V26.3419H186.966V16.343ZM190.698 22.5674C191.334 22.5674 191.819 22.3585 192.151 21.9407C192.493 21.5229 192.664 20.9151 192.664 20.1175V20.0036C192.664 19.2059 192.478 18.5982 192.108 18.1804C191.747 17.7531 191.273 17.5395 190.684 17.5395C190.057 17.5395 189.559 17.7484 189.188 18.1662C188.818 18.584 188.633 19.1964 188.633 20.0036V20.1175C188.633 20.9246 188.813 21.5371 189.174 21.9549C189.544 22.3632 190.052 22.5674 190.698 22.5674ZM195.98 23.7923V16.343H197.703V21.6131L200.922 16.343H202.631V23.7923H200.922V18.5222L197.703 23.7923H195.98ZM207.48 17.5964C206.559 17.5964 206.099 17.9715 206.099 18.7217V18.7644C206.099 19.1442 206.208 19.4243 206.426 19.6047C206.645 19.7852 206.996 19.8754 207.48 19.8754H208.534V17.5964H207.48ZM205.743 23.7923H203.848L205.885 20.73C204.869 20.4166 204.361 19.7567 204.361 18.7501V18.7074C204.361 17.9478 204.617 17.3638 205.13 16.9555C205.643 16.5472 206.35 16.343 207.253 16.343H210.244V23.7923H208.534V21.0576H207.509L205.743 23.7923Z" fill="white"/>
<path d="M256.493 19.5846C256.493 8.76835 265.261 0 276.077 0H344.882C355.698 0 364.466 8.76834 364.466 19.5846V20C364.466 30.8163 355.698 39.5846 344.882 39.5846H276.077C265.261 39.5846 256.493 30.8163 256.493 20V19.5846Z" fill="#7EACBD" fill-opacity="0.82"/>
<path d="M290.606 23.9347C289.029 23.9347 287.804 23.4694 286.931 22.5389C286.067 21.6083 285.635 20.3501 285.635 18.7644V18.6504C285.635 17.1311 286.1 15.8872 287.03 14.9187C287.961 13.9406 289.143 13.4516 290.577 13.4516C291.793 13.4516 292.794 13.7555 293.582 14.3632C294.38 14.9709 294.836 15.854 294.95 17.0124H293.027C292.922 16.3193 292.671 15.8065 292.272 15.4742C291.883 15.1323 291.322 14.9614 290.591 14.9614C289.699 14.9614 288.982 15.2937 288.441 15.9584C287.899 16.6136 287.629 17.5062 287.629 18.6362V18.7501C287.629 19.8991 287.89 20.7964 288.412 21.4421C288.934 22.0783 289.666 22.3964 290.606 22.3964C291.327 22.3964 291.916 22.216 292.372 21.8552C292.828 21.4849 293.108 20.9484 293.212 20.2457H295.064C294.921 21.4516 294.451 22.368 293.654 22.9947C292.866 23.6214 291.849 23.9347 290.606 23.9347ZM298.286 20.146V23.7923H296.562V16.343H298.286V19.6475L300.949 16.343H302.829L299.938 19.7899L303.072 23.7923H301.077L298.286 20.146ZM304.254 23.7923V16.343H305.978V21.6131L309.197 16.343H310.906V23.7923H309.197V18.5222L305.978 23.7923H304.254ZM314.886 20.6303C314.782 21.5039 314.635 22.1306 314.445 22.5104H317.336V17.6107H315.071C314.995 19.1585 314.934 20.165 314.886 20.6303ZM313.519 25.6012H312.052V22.5104H312.522C312.769 22.4249 312.949 22.2255 313.063 21.9122C313.177 21.5893 313.272 21.124 313.348 20.5163C313.5 19.2914 313.576 17.9003 313.576 16.343H319.045V22.5104H320.128V25.6012H318.661L318.604 23.7923H313.576L313.519 25.6012ZM323.1 20.146V23.7923H321.377V16.343H323.1V19.6475L325.764 16.343H327.644L324.753 19.7899L327.886 23.7923H325.892L323.1 20.146ZM330.881 23.9347C330.15 23.9347 329.552 23.7543 329.086 23.3935C328.621 23.0232 328.389 22.4677 328.389 21.727C328.389 20.9104 328.735 20.3122 329.428 19.9323C330.131 19.5525 331.057 19.3626 332.206 19.3626H333.132V18.978C333.132 18.4558 333.032 18.076 332.833 17.8386C332.633 17.6012 332.282 17.4825 331.778 17.4825C330.933 17.4825 330.459 17.8718 330.354 18.6504H328.688C328.764 17.8243 329.091 17.2071 329.67 16.7988C330.25 16.3905 330.986 16.1863 331.878 16.1863C333.863 16.1863 334.855 17.0932 334.855 18.9068V23.7923H333.16V22.8807C332.609 23.5834 331.85 23.9347 330.881 23.9347ZM331.294 22.6956C331.845 22.6956 332.287 22.5626 332.619 22.2967C332.961 22.0309 333.132 21.6605 333.132 21.1858V20.4451H332.249C330.815 20.4451 330.098 20.8487 330.098 21.6558C330.098 22.349 330.497 22.6956 331.294 22.6956Z" fill="white"/>
<path d="M23.4967 72.5224C23.4967 61.7061 32.265 52.9377 43.0813 52.9377H173.886C184.702 52.9377 193.47 61.7061 193.47 72.5224V72.9377C193.47 83.754 184.702 92.5224 173.886 92.5224H43.0813C32.265 92.5224 23.4967 83.754 23.4967 72.9377V72.5224Z" fill="#7EACBD" fill-opacity="0.82"/>
<path d="M53.1514 66.5461H55.0458V71.1609L58.9485 66.5318H60.9853L56.7692 71.4031L61.1989 76.7301H58.9627L55.0458 71.9728V76.7301H53.1514V66.5461ZM64.49 73.739C64.3951 74.8025 64.1862 75.5859 63.8633 76.0892C63.55 76.5924 63.0562 76.844 62.382 76.844C62.1541 76.844 61.9927 76.8298 61.8977 76.8013C61.8787 76.7918 61.8503 76.7776 61.8123 76.7586C61.7838 76.7491 61.7648 76.7443 61.7553 76.7443V75.3058L61.8408 75.3343C61.9357 75.3532 62.0212 75.3627 62.0971 75.3627C62.363 75.3627 62.5577 75.2061 62.6811 74.8927C62.8141 74.5699 62.9138 74.0903 62.9802 73.4541C62.9992 73.2737 63.0135 73.0411 63.023 72.7562C63.0325 72.4713 63.042 72.1485 63.0515 71.7877C63.0704 71.4173 63.0847 71.123 63.0942 70.9046L63.1369 69.2808H68.5636V76.7301H66.8544V70.5627H64.6467C64.5707 72.2814 64.5185 73.3402 64.49 73.739ZM72.5698 76.8725C71.8387 76.8725 71.2404 76.6921 70.7751 76.3313C70.3099 75.961 70.0772 75.4055 70.0772 74.6648C70.0772 73.8482 70.4238 73.25 71.117 72.8701C71.8197 72.4903 72.7455 72.3004 73.8944 72.3004H74.8203V71.9158C74.8203 71.3936 74.7206 71.0138 74.5212 70.7764C74.3217 70.539 73.9704 70.4203 73.4671 70.4203C72.622 70.4203 72.1473 70.8096 72.0428 71.5882H70.3763C70.4523 70.7621 70.7799 70.1449 71.3591 69.7366C71.9384 69.3283 72.6743 69.1241 73.5668 69.1241C75.5514 69.1241 76.5437 70.031 76.5437 71.8446V76.7301H74.8488V75.8185C74.298 76.5212 73.5384 76.8725 72.5698 76.8725ZM72.9829 75.6334C73.5336 75.6334 73.9752 75.5004 74.3075 75.2345C74.6493 74.9687 74.8203 74.5983 74.8203 74.1236V73.3829H73.9372C72.5033 73.3829 71.7864 73.7865 71.7864 74.5936C71.7864 75.2868 72.1852 75.6334 72.9829 75.6334ZM81.7808 76.8725C80.6888 76.8725 79.7868 76.5354 79.0746 75.8613C78.3719 75.1776 78.0206 74.2565 78.0206 73.098V72.9841C78.0206 71.8351 78.3767 70.9046 79.0888 70.1924C79.8105 69.4802 80.7078 69.1241 81.7808 69.1241C82.6924 69.1241 83.4663 69.352 84.1025 69.8078C84.7387 70.2541 85.0995 70.9568 85.185 71.9158H83.5185C83.3761 70.9758 82.8064 70.5057 81.8093 70.5057C81.2111 70.5057 80.7221 70.7241 80.3422 71.1609C79.9719 71.5977 79.7868 72.196 79.7868 72.9556V73.0696C79.7868 73.8767 79.9672 74.4939 80.328 74.9212C80.6983 75.339 81.2063 75.5479 81.852 75.5479C82.3268 75.5479 82.7304 75.4102 83.0627 75.1348C83.3951 74.8595 83.5897 74.4654 83.6467 73.9526H85.2277C85.1708 74.8167 84.8289 75.5194 84.2022 76.0607C83.5755 76.6019 82.7684 76.8725 81.7808 76.8725ZM89.9736 76.8725C88.8816 76.8725 87.9795 76.5354 87.2673 75.8613C86.5646 75.1776 86.2133 74.2565 86.2133 73.098V72.9841C86.2133 71.8351 86.5694 70.9046 87.2816 70.1924C88.0032 69.4802 88.9006 69.1241 89.9736 69.1241C90.8851 69.1241 91.659 69.352 92.2952 69.8078C92.9314 70.2541 93.2923 70.9568 93.3777 71.9158H91.7112C91.5688 70.9758 90.9991 70.5057 90.002 70.5057C89.4038 70.5057 88.9148 70.7241 88.535 71.1609C88.1646 71.5977 87.9795 72.196 87.9795 72.9556V73.0696C87.9795 73.8767 88.1599 74.4939 88.5207 74.9212C88.8911 75.339 89.3991 75.5479 90.0448 75.5479C90.5195 75.5479 90.9231 75.4102 91.2555 75.1348C91.5878 74.8595 91.7825 74.4654 91.8394 73.9526H93.4204C93.3635 74.8167 93.0216 75.5194 92.3949 76.0607C91.7682 76.6019 90.9611 76.8725 89.9736 76.8725ZM98.3541 69.2808H101.359C103.173 69.2808 104.08 69.9028 104.08 71.1467V71.1752C104.08 72.0583 103.638 72.6043 102.755 72.8132C103.857 73.0411 104.408 73.6013 104.408 74.4939V74.5366C104.408 75.2488 104.165 75.7948 103.681 76.1746C103.206 76.5449 102.523 76.7301 101.63 76.7301H98.3541V69.2808ZM100.078 70.4345V72.3289H101.117C101.535 72.3289 101.839 72.2529 102.029 72.101C102.219 71.9396 102.314 71.6879 102.314 71.3461V71.3176C102.314 70.9853 102.209 70.7574 102 70.6339C101.801 70.501 101.488 70.4345 101.06 70.4345H100.078ZM100.078 73.4826V75.5764H101.302C102.195 75.5764 102.641 75.2345 102.641 74.5509V74.5224C102.641 73.8292 102.214 73.4826 101.359 73.4826H100.078ZM108.011 76.8725C107.28 76.8725 106.682 76.6921 106.217 76.3313C105.751 75.961 105.519 75.4055 105.519 74.6648C105.519 73.8482 105.865 73.25 106.559 72.8701C107.261 72.4903 108.187 72.3004 109.336 72.3004H110.262V71.9158C110.262 71.3936 110.162 71.0138 109.963 70.7764C109.763 70.539 109.412 70.4203 108.909 70.4203C108.064 70.4203 107.589 70.8096 107.484 71.5882H105.818C105.894 70.7621 106.221 70.1449 106.801 69.7366C107.38 69.3283 108.116 69.1241 109.008 69.1241C110.993 69.1241 111.985 70.031 111.985 71.8446V76.7301H110.29V75.8185C109.74 76.5212 108.98 76.8725 108.011 76.8725ZM108.424 75.6334C108.975 75.6334 109.417 75.5004 109.749 75.2345C110.091 74.9687 110.262 74.5983 110.262 74.1236V73.3829H109.379C107.945 73.3829 107.228 73.7865 107.228 74.5936C107.228 75.2868 107.627 75.6334 108.424 75.6334ZM117.408 73.0411L114.986 76.7301H113.12L115.841 72.742L113.334 69.2808H115.129L117.408 72.6565V69.2808H119.088V72.6565L121.367 69.2808H123.162L120.655 72.7135L123.39 76.7301H121.495L119.088 73.0411V76.7301H117.408V73.0411ZM129.416 73.5681H126.325V76.7301H124.601V69.2808H126.325V72.2862H129.416V69.2808H131.139V76.7301H129.416V73.5681ZM136.517 75.5337C137.162 75.5337 137.666 75.3153 138.026 74.8785C138.387 74.4322 138.568 73.8245 138.568 73.0553V72.9556C138.568 72.1865 138.387 71.5835 138.026 71.1467C137.666 70.7004 137.162 70.4773 136.517 70.4773C135.871 70.4773 135.363 70.6957 134.993 71.1325C134.632 71.5693 134.451 72.1722 134.451 72.9414V73.0553C134.451 73.8245 134.632 74.4322 134.993 74.8785C135.353 75.3153 135.861 75.5337 136.517 75.5337ZM139.251 75.8185C138.53 76.5212 137.613 76.8725 136.502 76.8725C135.391 76.8725 134.475 76.5259 133.753 75.8328C133.041 75.1301 132.685 74.2138 132.685 73.0838V72.9699C132.685 71.8304 133.046 70.9046 133.768 70.1924C134.489 69.4802 135.406 69.1241 136.517 69.1241C137.618 69.1241 138.53 69.4755 139.251 70.1781C139.973 70.8808 140.334 71.7971 140.334 72.9271V73.0411C140.334 74.19 139.973 75.1159 139.251 75.8185ZM145.153 76.8725C144.061 76.8725 143.159 76.5354 142.446 75.8613C141.744 75.1776 141.392 74.2565 141.392 73.098V72.9841C141.392 71.8351 141.749 70.9046 142.461 70.1924C143.182 69.4802 144.08 69.1241 145.153 69.1241C146.064 69.1241 146.838 69.352 147.474 69.8078C148.111 70.2541 148.471 70.9568 148.557 71.9158H146.89C146.748 70.9758 146.178 70.5057 145.181 70.5057C144.583 70.5057 144.094 70.7241 143.714 71.1609C143.344 71.5977 143.159 72.196 143.159 72.9556V73.0696C143.159 73.8767 143.339 74.4939 143.7 74.9212C144.07 75.339 144.578 75.5479 145.224 75.5479C145.699 75.5479 146.102 75.4102 146.435 75.1348C146.767 74.8595 146.962 74.4654 147.019 73.9526H148.6C148.543 74.8167 148.201 75.5194 147.574 76.0607C146.947 76.6019 146.14 76.8725 145.153 76.8725ZM155.653 70.5627H153.374V76.7301H151.65V70.5627H149.372V69.2808H155.653V70.5627ZM156.997 76.7301V69.2808H158.72V74.5509L161.939 69.2808H163.648V76.7301H161.939V71.4601L158.72 76.7301H156.997Z" fill="white"/>
<path d="M209.494 72.5224C209.494 61.7061 218.262 52.9377 229.079 52.9377H330.883C341.699 52.9377 350.468 61.7061 350.468 72.5224V72.9377C350.468 83.754 341.699 92.5224 330.883 92.5224H229.079C218.262 92.5224 209.494 83.754 209.494 72.9377V72.5224Z" fill="#7EACBD" fill-opacity="0.82"/>
<path d="M239.149 66.5461H241.043V70.8761H245.615V66.5461H247.524V76.7301H245.615V72.4001H241.043V76.7301H239.149V66.5461ZM251.585 76.8725C250.853 76.8725 250.255 76.6921 249.79 76.3313C249.325 75.961 249.092 75.4055 249.092 74.6648C249.092 73.8482 249.439 73.25 250.132 72.8701C250.834 72.4903 251.76 72.3004 252.909 72.3004H253.835V71.9158C253.835 71.3936 253.735 71.0138 253.536 70.7764C253.336 70.539 252.985 70.4203 252.482 70.4203C251.637 70.4203 251.162 70.8096 251.058 71.5882H249.391C249.467 70.7621 249.795 70.1449 250.374 69.7366C250.953 69.3283 251.689 69.1241 252.582 69.1241C254.566 69.1241 255.558 70.031 255.558 71.8446V76.7301H253.863V75.8185C253.313 76.5212 252.553 76.8725 251.585 76.8725ZM251.998 75.6334C252.548 75.6334 252.99 75.5004 253.322 75.2345C253.664 74.9687 253.835 74.5983 253.835 74.1236V73.3829H252.952C251.518 73.3829 250.801 73.7865 250.801 74.5936C250.801 75.2868 251.2 75.6334 251.998 75.6334ZM262.961 71.1752C262.961 71.593 262.847 71.9491 262.619 72.2434C262.391 72.5378 262.054 72.7277 261.607 72.8132C262.709 72.9936 263.26 73.5491 263.26 74.4796V74.5224C263.26 75.2061 262.98 75.771 262.419 76.2173C261.869 76.6541 261.128 76.8725 260.197 76.8725C259.21 76.8725 258.445 76.6494 257.904 76.2031C257.363 75.7568 257.054 75.1159 256.978 74.2802H258.559C258.721 75.1348 259.262 75.5621 260.183 75.5621C261.047 75.5621 261.479 75.2108 261.479 74.5081V74.4654C261.479 73.8102 261.057 73.4826 260.212 73.4826H259.186V72.3289H260.069C260.81 72.3289 261.18 72.0203 261.18 71.4031V71.3603C261.18 70.7716 260.815 70.4773 260.083 70.4773C259.362 70.4773 258.915 70.8238 258.745 71.517H257.178C257.263 70.7099 257.581 70.1117 258.132 69.7224C258.683 69.3235 259.357 69.1241 260.155 69.1241C260.971 69.1241 261.641 69.3046 262.163 69.6654C262.695 70.0262 262.961 70.5152 262.961 71.1325V71.1752ZM269.651 73.5681H266.56V76.7301H264.836V69.2808H266.56V72.2862H269.651V69.2808H271.374V76.7301H269.651V73.5681ZM275.37 76.8725C274.639 76.8725 274.04 76.6921 273.575 76.3313C273.11 75.961 272.877 75.4055 272.877 74.6648C272.877 73.8482 273.224 73.25 273.917 72.8701C274.62 72.4903 275.546 72.3004 276.694 72.3004H277.62V71.9158C277.62 71.3936 277.521 71.0138 277.321 70.7764C277.122 70.539 276.77 70.4203 276.267 70.4203C275.422 70.4203 274.947 70.8096 274.843 71.5882H273.176C273.252 70.7621 273.58 70.1449 274.159 69.7366C274.738 69.3283 275.474 69.1241 276.367 69.1241C278.351 69.1241 279.344 70.031 279.344 71.8446V76.7301H277.649V75.8185C277.098 76.5212 276.338 76.8725 275.37 76.8725ZM275.783 75.6334C276.334 75.6334 276.775 75.5004 277.108 75.2345C277.449 74.9687 277.62 74.5983 277.62 74.1236V73.3829H276.737C275.303 73.3829 274.586 73.7865 274.586 74.5936C274.586 75.2868 274.985 75.6334 275.783 75.6334ZM285.469 76.7301V73.4256C284.966 73.9859 284.244 74.266 283.304 74.266C282.573 74.266 281.984 74.0334 281.538 73.5681C281.092 73.0933 280.868 72.3811 280.868 71.4316V69.2808H282.578V71.2464C282.578 71.8161 282.687 72.2339 282.905 72.4998C283.124 72.7562 283.465 72.8844 283.931 72.8844C284.624 72.8844 285.137 72.647 285.469 72.1722V69.2808H287.192V76.7301H285.469ZM292.524 76.8725C291.403 76.8725 290.492 76.5307 289.789 75.847C289.096 75.1633 288.749 74.2423 288.749 73.0838V72.9699C288.749 71.8304 289.096 70.9046 289.789 70.1924C290.492 69.4802 291.379 69.1241 292.452 69.1241C293.459 69.1241 294.294 69.4375 294.959 70.0642C295.633 70.6909 295.97 71.631 295.97 72.8844V73.3829H290.515C290.544 74.0951 290.729 74.6411 291.071 75.0209C291.422 75.4007 291.921 75.5906 292.566 75.5906C293.573 75.5906 294.143 75.2108 294.275 74.4512H295.942C295.819 75.2393 295.458 75.8423 294.859 76.2601C294.271 76.6684 293.492 76.8725 292.524 76.8725ZM294.261 72.2292C294.166 70.9948 293.563 70.3776 292.452 70.3776C291.94 70.3776 291.512 70.5437 291.17 70.8761C290.838 71.1989 290.629 71.65 290.544 72.2292H294.261ZM302.324 73.5681H299.233V76.7301H297.51V69.2808H299.233V72.2862H302.324V69.2808H304.048V76.7301H302.324V73.5681ZM306.092 76.7301V69.2808H307.815V74.5509L311.034 69.2808H312.744V76.7301H311.034V71.4601L307.815 76.7301H306.092ZM318.006 76.8725C316.885 76.8725 315.974 76.5307 315.271 75.847C314.578 75.1633 314.231 74.2423 314.231 73.0838V72.9699C314.231 71.8304 314.578 70.9046 315.271 70.1924C315.974 69.4802 316.862 69.1241 317.935 69.1241C318.941 69.1241 319.777 69.4375 320.441 70.0642C321.116 70.6909 321.453 71.631 321.453 72.8844V73.3829H315.998C316.026 74.0951 316.211 74.6411 316.553 75.0209C316.904 75.4007 317.403 75.5906 318.049 75.5906C319.055 75.5906 319.625 75.2108 319.758 74.4512H321.424C321.301 75.2393 320.94 75.8423 320.342 76.2601C319.753 76.6684 318.974 76.8725 318.006 76.8725ZM319.744 72.2292C319.649 70.9948 319.046 70.3776 317.935 70.3776C317.422 70.3776 316.995 70.5437 316.653 70.8761C316.32 71.1989 316.111 71.65 316.026 72.2292H319.744Z" fill="white"/>
<path d="M-5.97293 125.46C-5.97293 114.644 2.79541 105.876 13.6117 105.876H138.416C149.232 105.876 158.001 114.644 158.001 125.46V125.876C158.001 136.692 149.232 145.46 138.416 145.46H13.6117C2.7954 145.46 -5.97293 136.692 -5.97293 125.876V125.46Z" fill="#7EACBD" fill-opacity="0.82"/>
<path d="M25.9892 125.594C25.8753 126.781 25.6616 127.631 25.3483 128.144H29.5643V120.994H26.2171C26.1506 122.912 26.0747 124.445 25.9892 125.594ZM24.1803 131.52H22.5566V128.144H23.1975C23.5204 128.011 23.7625 127.736 23.9239 127.318C24.0853 126.891 24.2088 126.273 24.2942 125.466C24.4462 123.52 24.5221 121.526 24.5221 119.484H31.4444V128.144H32.6551V131.52H31.0171L30.9459 129.668H24.2515L24.1803 131.52ZM36.0063 129.81C35.2751 129.81 34.6769 129.63 34.2116 129.269C33.7464 128.899 33.5137 128.343 33.5137 127.603C33.5137 126.786 33.8603 126.188 34.5535 125.808C35.2562 125.428 36.182 125.238 37.3309 125.238H38.2568V124.854C38.2568 124.331 38.1571 123.952 37.9577 123.714C37.7582 123.477 37.4069 123.358 36.9036 123.358C36.0585 123.358 35.5838 123.747 35.4793 124.526H33.8128C33.8888 123.7 34.2164 123.083 34.7956 122.674C35.3749 122.266 36.1108 122.062 37.0033 122.062C38.9879 122.062 39.9802 122.969 39.9802 124.782V129.668H38.2852V128.756C37.7345 129.459 36.9749 129.81 36.0063 129.81ZM36.4194 128.571C36.9701 128.571 37.4117 128.438 37.744 128.172C38.0858 127.907 38.2568 127.536 38.2568 127.061V126.321H37.3737C35.9398 126.321 35.2229 126.724 35.2229 127.531C35.2229 128.225 35.6217 128.571 36.4194 128.571ZM47.4552 123.501H45.1763V129.668H43.4528V123.501H41.1739V122.219H47.4552V123.501ZM50.6809 129.81C49.9497 129.81 49.3515 129.63 48.8862 129.269C48.4209 128.899 48.1883 128.343 48.1883 127.603C48.1883 126.786 48.5349 126.188 49.2281 125.808C49.9307 125.428 50.8565 125.238 52.0055 125.238H52.9313V124.854C52.9313 124.331 52.8316 123.952 52.6322 123.714C52.4328 123.477 52.0815 123.358 51.5782 123.358C50.7331 123.358 50.2583 123.747 50.1539 124.526H48.4874C48.5634 123.7 48.891 123.083 49.4702 122.674C50.0494 122.266 50.7853 122.062 51.6779 122.062C53.6625 122.062 54.6548 122.969 54.6548 124.782V129.668H52.9598V128.756C52.4091 129.459 51.6494 129.81 50.6809 129.81ZM51.0939 128.571C51.6447 128.571 52.0862 128.438 52.4186 128.172C52.7604 127.907 52.9313 127.536 52.9313 127.061V126.321H52.0482C50.6144 126.321 49.8975 126.724 49.8975 127.531C49.8975 128.225 50.2963 128.571 51.0939 128.571ZM60.0797 122.219H61.8032V123.415C62.0216 123.035 62.3492 122.717 62.786 122.461C63.2323 122.195 63.7165 122.062 64.2388 122.062C65.1979 122.062 65.986 122.404 66.6032 123.088C67.2299 123.762 67.5433 124.683 67.5433 125.851V125.965C67.5433 127.142 67.2347 128.077 66.6174 128.771C66.0097 129.464 65.2168 129.81 64.2388 129.81C63.6691 129.81 63.1705 129.692 62.7432 129.454C62.3254 129.207 62.0121 128.889 61.8032 128.5V132.218H60.0797V122.219ZM63.8115 128.443C64.4477 128.443 64.932 128.234 65.2643 127.816C65.6062 127.399 65.7771 126.791 65.7771 125.993V125.879C65.7771 125.082 65.5919 124.474 65.2216 124.056C64.8608 123.629 64.386 123.415 63.7973 123.415C63.1705 123.415 62.672 123.624 62.3017 124.042C61.9314 124.46 61.7462 125.072 61.7462 125.879V125.993C61.7462 126.8 61.9266 127.413 62.2875 127.831C62.6578 128.239 63.1658 128.443 63.8115 128.443ZM72.4261 128.472C73.0718 128.472 73.575 128.253 73.9359 127.816C74.2967 127.37 74.4771 126.762 74.4771 125.993V125.893C74.4771 125.124 74.2967 124.521 73.9359 124.085C73.575 123.638 73.0718 123.415 72.4261 123.415C71.7804 123.415 71.2724 123.634 70.902 124.07C70.5412 124.507 70.3608 125.11 70.3608 125.879V125.993C70.3608 126.762 70.5412 127.37 70.902 127.816C71.2629 128.253 71.7709 128.472 72.4261 128.472ZM75.1608 128.756C74.4391 129.459 73.5228 129.81 72.4118 129.81C71.3008 129.81 70.3845 129.464 69.6629 128.771C68.9507 128.068 68.5946 127.152 68.5946 126.022V125.908C68.5946 124.768 68.9554 123.842 69.6771 123.13C70.3988 122.418 71.3151 122.062 72.4261 122.062C73.5276 122.062 74.4391 122.413 75.1608 123.116C75.8825 123.819 76.2433 124.735 76.2433 125.865V125.979C76.2433 127.128 75.8825 128.054 75.1608 128.756ZM80.8857 125.979L78.4644 129.668H76.5985L79.319 125.68L76.8121 122.219H78.6068L80.8857 125.594V122.219H82.5665V125.594L84.8454 122.219H86.6401L84.1332 125.651L86.868 129.668H84.9736L82.5665 125.979V129.668H80.8857V125.979ZM90.1433 126.506C90.0388 127.38 89.8916 128.006 89.7017 128.386H92.5931V123.486H90.3284C90.2525 125.034 90.1907 126.041 90.1433 126.506ZM88.7759 131.477H87.3088V128.386H87.7789C88.0258 128.301 88.2062 128.101 88.3201 127.788C88.4341 127.465 88.529 127 88.605 126.392C88.7569 125.167 88.8329 123.776 88.8329 122.219H94.3023V128.386H95.3848V131.477H93.9178L93.8608 129.668H88.8329L88.7759 131.477ZM99.8404 129.81C98.72 129.81 97.8084 129.469 97.1057 128.785C96.4125 128.101 96.066 127.18 96.066 126.022V125.908C96.066 124.768 96.4125 123.842 97.1057 123.13C97.8084 122.418 98.6962 122.062 99.7692 122.062C100.776 122.062 101.611 122.375 102.276 123.002C102.95 123.629 103.287 124.569 103.287 125.822V126.321H97.8321C97.8606 127.033 98.0458 127.579 98.3876 127.959C98.739 128.339 99.2375 128.528 99.8832 128.528C100.89 128.528 101.459 128.149 101.592 127.389H103.259C103.135 128.177 102.775 128.78 102.176 129.198C101.588 129.606 100.809 129.81 99.8404 129.81ZM101.578 125.167C101.483 123.933 100.88 123.315 99.7692 123.315C99.2565 123.315 98.8292 123.482 98.4873 123.814C98.155 124.137 97.9461 124.588 97.8606 125.167H101.578ZM109.641 126.506H106.55V129.668H104.827V122.219H106.55V125.224H109.641V122.219H111.364V129.668H109.641V126.506ZM113.409 129.668V122.219H115.132V127.489L118.351 122.219H120.061V129.668H118.351V124.398L115.132 129.668H113.409ZM124.91 123.472C123.989 123.472 123.528 123.847 123.528 124.597V124.64C123.528 125.02 123.637 125.3 123.856 125.48C124.074 125.661 124.425 125.751 124.91 125.751H125.964V123.472H124.91ZM123.172 129.668H121.278L123.314 126.606C122.298 126.292 121.79 125.632 121.79 124.626V124.583C121.79 123.823 122.047 123.239 122.56 122.831C123.072 122.423 123.78 122.219 124.682 122.219H127.673V129.668H125.964V126.933H124.938L123.172 129.668Z" fill="white"/>
<path d="M160.495 125.46C160.495 114.644 169.264 105.876 180.08 105.876H274.884C285.701 105.876 294.469 114.644 294.469 125.46V125.876C294.469 136.692 285.701 145.46 274.884 145.46H180.08C169.264 145.46 160.495 136.692 160.495 125.876V125.46Z" fill="#7EACBD" fill-opacity="0.82"/>
<path d="M192.457 125.594C192.344 126.781 192.13 127.631 191.817 128.144H196.033V120.994H192.685C192.619 122.912 192.543 124.445 192.457 125.594ZM190.649 131.52H189.025V128.144H189.666C189.989 128.011 190.231 127.736 190.392 127.318C190.554 126.891 190.677 126.273 190.763 125.466C190.914 123.52 190.99 121.526 190.99 119.484H197.913V128.144H199.123V131.52H197.485L197.414 129.668H190.72L190.649 131.52ZM203.717 128.472C204.363 128.472 204.866 128.253 205.227 127.816C205.588 127.37 205.768 126.762 205.768 125.993V125.893C205.768 125.124 205.588 124.521 205.227 124.085C204.866 123.638 204.363 123.415 203.717 123.415C203.071 123.415 202.563 123.634 202.193 124.07C201.832 124.507 201.652 125.11 201.652 125.879V125.993C201.652 126.762 201.832 127.37 202.193 127.816C202.554 128.253 203.062 128.472 203.717 128.472ZM206.452 128.756C205.73 129.459 204.814 129.81 203.703 129.81C202.592 129.81 201.676 129.464 200.954 128.771C200.242 128.068 199.886 127.152 199.886 126.022V125.908C199.886 124.768 200.246 123.842 200.968 123.13C201.69 122.418 202.606 122.062 203.717 122.062C204.819 122.062 205.73 122.413 206.452 123.116C207.174 123.819 207.534 124.735 207.534 125.865V125.979C207.534 127.128 207.174 128.054 206.452 128.756ZM213.906 126.506H210.815V129.668H209.092V122.219H210.815V125.224H213.906V122.219H215.629V129.668H213.906V126.506ZM221.007 128.472C221.652 128.472 222.156 128.253 222.516 127.816C222.877 127.37 223.058 126.762 223.058 125.993V125.893C223.058 125.124 222.877 124.521 222.516 124.085C222.156 123.638 221.652 123.415 221.007 123.415C220.361 123.415 219.853 123.634 219.483 124.07C219.122 124.507 218.941 125.11 218.941 125.879V125.993C218.941 126.762 219.122 127.37 219.483 127.816C219.843 128.253 220.351 128.472 221.007 128.472ZM223.741 128.756C223.02 129.459 222.103 129.81 220.992 129.81C219.881 129.81 218.965 129.464 218.243 128.771C217.531 128.068 217.175 127.152 217.175 126.022V125.908C217.175 124.768 217.536 123.842 218.258 123.13C218.979 122.418 219.896 122.062 221.007 122.062C222.108 122.062 223.02 122.413 223.741 123.116C224.463 123.819 224.824 124.735 224.824 125.865V125.979C224.824 127.128 224.463 128.054 223.741 128.756ZM226.381 122.219H228.105V123.415C228.323 123.035 228.651 122.717 229.087 122.461C229.534 122.195 230.018 122.062 230.54 122.062C231.499 122.062 232.287 122.404 232.905 123.088C233.531 123.762 233.845 124.683 233.845 125.851V125.965C233.845 127.142 233.536 128.077 232.919 128.771C232.311 129.464 231.518 129.81 230.54 129.81C229.97 129.81 229.472 129.692 229.045 129.454C228.627 129.207 228.313 128.889 228.105 128.5V132.218H226.381V122.219ZM230.113 128.443C230.749 128.443 231.233 128.234 231.566 127.816C231.908 127.399 232.078 126.791 232.078 125.993V125.879C232.078 125.082 231.893 124.474 231.523 124.056C231.162 123.629 230.687 123.415 230.099 123.415C229.472 123.415 228.973 123.624 228.603 124.042C228.233 124.46 228.048 125.072 228.048 125.879V125.993C228.048 126.8 228.228 127.413 228.589 127.831C228.959 128.239 229.467 128.443 230.113 128.443ZM238.656 129.81C237.564 129.81 236.662 129.473 235.95 128.799C235.247 128.115 234.896 127.194 234.896 126.036V125.922C234.896 124.773 235.252 123.842 235.964 123.13C236.686 122.418 237.583 122.062 238.656 122.062C239.568 122.062 240.342 122.29 240.978 122.746C241.614 123.192 241.975 123.895 242.06 124.854H240.394C240.251 123.914 239.682 123.444 238.685 123.444C238.086 123.444 237.597 123.662 237.218 124.099C236.847 124.536 236.662 125.134 236.662 125.893V126.007C236.662 126.815 236.843 127.432 237.203 127.859C237.574 128.277 238.082 128.486 238.727 128.486C239.202 128.486 239.606 128.348 239.938 128.073C240.27 127.797 240.465 127.403 240.522 126.891H242.103C242.046 127.755 241.704 128.457 241.078 128.999C240.451 129.54 239.644 129.81 238.656 129.81ZM249.156 123.501H246.877V129.668H245.154V123.501H242.875V122.219H249.156V123.501ZM250.5 122.219H253.506C255.319 122.219 256.226 122.841 256.226 124.085V124.113C256.226 124.996 255.785 125.542 254.901 125.751C256.003 125.979 256.554 126.539 256.554 127.432V127.474C256.554 128.187 256.312 128.733 255.827 129.112C255.353 129.483 254.669 129.668 253.776 129.668H250.5V122.219ZM252.224 123.372V125.267H253.263C253.681 125.267 253.985 125.191 254.175 125.039C254.365 124.877 254.46 124.626 254.46 124.284V124.255C254.46 123.923 254.355 123.695 254.147 123.572C253.947 123.439 253.634 123.372 253.207 123.372H252.224ZM252.224 126.42V128.514H253.449C254.341 128.514 254.788 128.172 254.788 127.489V127.46C254.788 126.767 254.36 126.42 253.506 126.42H252.224ZM261.47 128.472C262.115 128.472 262.619 128.253 262.979 127.816C263.34 127.37 263.521 126.762 263.521 125.993V125.893C263.521 125.124 263.34 124.521 262.979 124.085C262.619 123.638 262.115 123.415 261.47 123.415C260.824 123.415 260.316 123.634 259.946 124.07C259.585 124.507 259.404 125.11 259.404 125.879V125.993C259.404 126.762 259.585 127.37 259.946 127.816C260.306 128.253 260.814 128.472 261.47 128.472ZM264.204 128.756C263.483 129.459 262.566 129.81 261.455 129.81C260.344 129.81 259.428 129.464 258.706 128.771C257.994 128.068 257.638 127.152 257.638 126.022V125.908C257.638 124.768 257.999 123.842 258.721 123.13C259.442 122.418 260.359 122.062 261.47 122.062C262.571 122.062 263.483 122.413 264.204 123.116C264.926 123.819 265.287 124.735 265.287 125.865V125.979C265.287 127.128 264.926 128.054 264.204 128.756Z" fill="white"/>
<path d="M296.964 125.46C296.964 114.644 305.732 105.876 316.548 105.876H360.353C371.169 105.876 379.937 114.644 379.937 125.46V125.876C379.937 136.692 371.169 145.46 360.353 145.46H316.548C305.732 145.46 296.964 136.692 296.964 125.876V125.46Z" fill="#7EACBD" fill-opacity="0.82"/>
<path d="M326.618 119.484H330.265C332.487 119.484 333.598 120.367 333.598 122.133V122.19C333.598 123.301 333.061 124.023 331.988 124.355C332.681 124.507 333.194 124.778 333.526 125.167C333.859 125.547 334.025 126.079 334.025 126.762V126.819C334.025 127.759 333.726 128.472 333.128 128.956C332.529 129.431 331.665 129.668 330.535 129.668H326.618V119.484ZM330.307 128.315C331.542 128.315 332.159 127.774 332.159 126.691V126.634C332.159 126.093 332.002 125.694 331.689 125.438C331.376 125.181 330.872 125.053 330.179 125.053H328.47V128.315H330.307ZM330.037 123.771C330.654 123.771 331.096 123.653 331.361 123.415C331.637 123.178 331.774 122.798 331.774 122.276V122.219C331.774 121.734 331.632 121.383 331.347 121.165C331.062 120.946 330.616 120.837 330.008 120.837H328.47V123.771H330.037ZM338.918 129.81C337.798 129.81 336.886 129.469 336.184 128.785C335.49 128.101 335.144 127.18 335.144 126.022V125.908C335.144 124.768 335.49 123.842 336.184 123.13C336.886 122.418 337.774 122.062 338.847 122.062C339.854 122.062 340.689 122.375 341.354 123.002C342.028 123.629 342.365 124.569 342.365 125.822V126.321H336.91C336.938 127.033 337.124 127.579 337.465 127.959C337.817 128.339 338.315 128.528 338.961 128.528C339.968 128.528 340.537 128.149 340.67 127.389H342.337C342.213 128.177 341.852 128.78 341.254 129.198C340.665 129.606 339.887 129.81 338.918 129.81ZM340.656 125.167C340.561 123.933 339.958 123.315 338.847 123.315C338.334 123.315 337.907 123.482 337.565 123.814C337.233 124.137 337.024 124.588 336.938 125.167H340.656ZM347.166 129.81C346.074 129.81 345.172 129.473 344.46 128.799C343.757 128.115 343.406 127.194 343.406 126.036V125.922C343.406 124.773 343.762 123.842 344.474 123.13C345.196 122.418 346.093 122.062 347.166 122.062C348.078 122.062 348.852 122.29 349.488 122.746C350.124 123.192 350.485 123.895 350.57 124.854H348.904C348.762 123.914 348.192 123.444 347.195 123.444C346.597 123.444 346.108 123.662 345.728 124.099C345.357 124.536 345.172 125.134 345.172 125.893V126.007C345.172 126.815 345.353 127.432 345.714 127.859C346.084 128.277 346.592 128.486 347.238 128.486C347.712 128.486 348.116 128.348 348.448 128.073C348.781 127.797 348.975 127.403 349.032 126.891H350.613C350.556 127.755 350.214 128.457 349.588 128.999C348.961 129.54 348.154 129.81 347.166 129.81Z" fill="white"/>
<path d="M-11.002 178.392C-11.002 167.576 -2.23361 158.807 8.58269 158.807H59.3869C70.2032 158.807 78.9716 167.576 78.9716 178.392V178.807C78.9716 189.624 70.2032 198.392 59.3869 198.392H8.58266C-2.23364 198.392 -11.002 189.624 -11.002 178.807V178.392Z" fill="#7EACBD" fill-opacity="0.82"/>
<path d="M18.6528 172.416H21.9287C23.1062 172.416 24.0273 172.682 24.692 173.213C25.3661 173.745 25.7032 174.528 25.7032 175.564V175.62C25.7032 176.655 25.3661 177.434 24.692 177.956C24.0178 178.469 23.1109 178.726 21.9715 178.726H20.5471V182.6H18.6528V172.416ZM21.9287 177.358C23.2106 177.358 23.8516 176.779 23.8516 175.62V175.564C23.8516 174.443 23.2106 173.883 21.9287 173.883H20.5471V177.358H21.9287ZM30.3142 181.403C30.9599 181.403 31.4632 181.185 31.824 180.748C32.1848 180.302 32.3652 179.694 32.3652 178.925V178.825C32.3652 178.056 32.1848 177.453 31.824 177.016C31.4632 176.57 30.9599 176.347 30.3142 176.347C29.6685 176.347 29.1605 176.565 28.7901 177.002C28.4293 177.439 28.2489 178.042 28.2489 178.811V178.925C28.2489 179.694 28.4293 180.302 28.7901 180.748C29.151 181.185 29.659 181.403 30.3142 181.403ZM33.0489 181.688C32.3273 182.391 31.4109 182.742 30.2999 182.742C29.189 182.742 28.2726 182.396 27.551 181.702C26.8388 181 26.4827 180.083 26.4827 178.953V178.839C26.4827 177.7 26.8436 176.774 27.5652 176.062C28.2869 175.35 29.2032 174.994 30.3142 174.994C31.4157 174.994 32.3273 175.345 33.0489 176.048C33.7706 176.75 34.1314 177.667 34.1314 178.797V178.911C34.1314 180.06 33.7706 180.985 33.0489 181.688ZM38.9504 182.742C37.8584 182.742 36.9563 182.405 36.2441 181.731C35.5414 181.047 35.1901 180.126 35.1901 178.968V178.854C35.1901 177.705 35.5462 176.774 36.2584 176.062C36.98 175.35 37.8773 174.994 38.9504 174.994C39.8619 174.994 40.6358 175.222 41.272 175.677C41.9082 176.124 42.2691 176.826 42.3545 177.785H40.688C40.5456 176.845 39.9759 176.375 38.9788 176.375C38.3806 176.375 37.8916 176.594 37.5118 177.031C37.1414 177.467 36.9563 178.066 36.9563 178.825V178.939C36.9563 179.746 37.1367 180.364 37.4975 180.791C37.8679 181.209 38.3759 181.418 39.0216 181.418C39.4963 181.418 39.8999 181.28 40.2323 181.004C40.5646 180.729 40.7593 180.335 40.8162 179.822H42.3972C42.3403 180.686 41.9984 181.389 41.3717 181.93C40.745 182.472 39.9379 182.742 38.9504 182.742ZM49.4505 176.432H47.1716V182.6H45.4481V176.432H43.1692V175.15H49.4505V176.432Z" fill="white"/>
<path d="M94.9954 178.392C94.9954 167.576 103.764 158.807 114.58 158.807H234.384C245.201 158.807 253.969 167.576 253.969 178.392V178.807C253.969 189.624 245.201 198.392 234.384 198.392H114.58C103.764 198.392 94.9954 189.624 94.9954 178.807V178.392Z" fill="#7EACBD" fill-opacity="0.82"/>
<path d="M126.687 173.911H123.852V172.416H131.43V173.911H128.595V182.6H126.687V173.911ZM135.017 182.742C133.896 182.742 132.985 182.4 132.282 181.717C131.589 181.033 131.242 180.112 131.242 178.953V178.839C131.242 177.7 131.589 176.774 132.282 176.062C132.985 175.35 133.872 174.994 134.945 174.994C135.952 174.994 136.788 175.307 137.452 175.934C138.126 176.561 138.463 177.501 138.463 178.754V179.253H133.008C133.037 179.965 133.222 180.511 133.564 180.891C133.915 181.27 134.414 181.46 135.059 181.46C136.066 181.46 136.636 181.08 136.769 180.321H138.435C138.312 181.109 137.951 181.712 137.352 182.13C136.764 182.538 135.985 182.742 135.017 182.742ZM136.754 178.099C136.659 176.864 136.056 176.247 134.945 176.247C134.433 176.247 134.005 176.413 133.663 176.746C133.331 177.069 133.122 177.52 133.037 178.099H136.754ZM142.095 179.609C142 180.672 141.791 181.456 141.468 181.959C141.155 182.462 140.661 182.714 139.987 182.714C139.759 182.714 139.598 182.699 139.503 182.671C139.484 182.661 139.455 182.647 139.417 182.628C139.389 182.619 139.37 182.614 139.36 182.614V181.175L139.446 181.204C139.541 181.223 139.626 181.232 139.702 181.232C139.968 181.232 140.163 181.076 140.286 180.762C140.419 180.439 140.519 179.96 140.585 179.324C140.604 179.143 140.618 178.911 140.628 178.626C140.637 178.341 140.647 178.018 140.656 177.657C140.675 177.287 140.69 176.993 140.699 176.774L140.742 175.15H146.169V182.6H144.459V176.432H142.252C142.176 178.151 142.123 179.21 142.095 179.609ZM151.556 181.403C152.202 181.403 152.705 181.185 153.066 180.748C153.427 180.302 153.607 179.694 153.607 178.925V178.825C153.607 178.056 153.427 177.453 153.066 177.016C152.705 176.57 152.202 176.347 151.556 176.347C150.911 176.347 150.403 176.565 150.032 177.002C149.671 177.439 149.491 178.042 149.491 178.811V178.925C149.491 179.694 149.671 180.302 150.032 180.748C150.393 181.185 150.901 181.403 151.556 181.403ZM154.291 181.688C153.569 182.391 152.653 182.742 151.542 182.742C150.431 182.742 149.515 182.396 148.793 181.702C148.081 181 147.725 180.083 147.725 178.953V178.839C147.725 177.7 148.086 176.774 148.807 176.062C149.529 175.35 150.445 174.994 151.556 174.994C152.658 174.994 153.569 175.345 154.291 176.048C155.013 176.75 155.374 177.667 155.374 178.797V178.911C155.374 180.06 155.013 180.985 154.291 181.688ZM160.193 182.742C159.101 182.742 158.198 182.405 157.486 181.731C156.784 181.047 156.432 180.126 156.432 178.968V178.854C156.432 177.705 156.788 176.774 157.501 176.062C158.222 175.35 159.12 174.994 160.193 174.994C161.104 174.994 161.878 175.222 162.514 175.677C163.15 176.124 163.511 176.826 163.597 177.785H161.93C161.788 176.845 161.218 176.375 160.221 176.375C159.623 176.375 159.134 176.594 158.754 177.031C158.384 177.467 158.198 178.066 158.198 178.825V178.939C158.198 179.746 158.379 180.364 158.74 180.791C159.11 181.209 159.618 181.418 160.264 181.418C160.739 181.418 161.142 181.28 161.474 181.004C161.807 180.729 162.001 180.335 162.058 179.822H163.639C163.582 180.686 163.241 181.389 162.614 181.93C161.987 182.472 161.18 182.742 160.193 182.742ZM167.146 179.609C167.051 180.672 166.842 181.456 166.519 181.959C166.206 182.462 165.712 182.714 165.038 182.714C164.81 182.714 164.649 182.699 164.554 182.671C164.535 182.661 164.506 182.647 164.468 182.628C164.44 182.619 164.421 182.614 164.411 182.614V181.175L164.497 181.204C164.592 181.223 164.677 181.232 164.753 181.232C165.019 181.232 165.214 181.076 165.337 180.762C165.47 180.439 165.57 179.96 165.636 179.324C165.655 179.143 165.67 178.911 165.679 178.626C165.689 178.341 165.698 178.018 165.707 177.657C165.726 177.287 165.741 176.993 165.75 176.774L165.793 175.15H171.22V182.6H169.51V176.432H167.303C167.227 178.151 167.175 179.21 167.146 179.609ZM176.607 181.403C177.253 181.403 177.756 181.185 178.117 180.748C178.478 180.302 178.659 179.694 178.659 178.925V178.825C178.659 178.056 178.478 177.453 178.117 177.016C177.756 176.57 177.253 176.347 176.607 176.347C175.962 176.347 175.454 176.565 175.083 177.002C174.723 177.439 174.542 178.042 174.542 178.811V178.925C174.542 179.694 174.723 180.302 175.083 180.748C175.444 181.185 175.952 181.403 176.607 181.403ZM179.342 181.688C178.621 182.391 177.704 182.742 176.593 182.742C175.482 182.742 174.566 182.396 173.844 181.702C173.132 181 172.776 180.083 172.776 178.953V178.839C172.776 177.7 173.137 176.774 173.858 176.062C174.58 175.35 175.496 174.994 176.607 174.994C177.709 174.994 178.621 175.345 179.342 176.048C180.064 176.75 180.425 177.667 180.425 178.797V178.911C180.425 180.06 180.064 180.985 179.342 181.688ZM185.067 178.911L182.646 182.6H180.78L183.5 178.612L180.994 175.15H182.788L185.067 178.526V175.15H186.748V178.526L189.027 175.15H190.821L188.315 178.583L191.049 182.6H189.155L186.748 178.911V182.6H185.067V178.911ZM195.175 182.742C194.055 182.742 193.143 182.4 192.441 181.717C191.747 181.033 191.401 180.112 191.401 178.953V178.839C191.401 177.7 191.747 176.774 192.441 176.062C193.143 175.35 194.031 174.994 195.104 174.994C196.111 174.994 196.946 175.307 197.611 175.934C198.285 176.561 198.622 177.501 198.622 178.754V179.253H193.167C193.196 179.965 193.381 180.511 193.723 180.891C194.074 181.27 194.572 181.46 195.218 181.46C196.225 181.46 196.794 181.08 196.927 180.321H198.594C198.47 181.109 198.11 181.712 197.511 182.13C196.923 182.538 196.144 182.742 195.175 182.742ZM196.913 178.099C196.818 176.864 196.215 176.247 195.104 176.247C194.591 176.247 194.164 176.413 193.822 176.746C193.49 177.069 193.281 177.52 193.196 178.099H196.913ZM204.976 179.438H201.885V182.6H200.162V175.15H201.885V178.156H204.976V175.15H206.699V182.6H204.976V179.438ZM208.744 182.6V175.15H210.467V180.42L213.686 175.15H215.396V182.6H213.686V177.33L210.467 182.6H208.744ZM220.658 182.742C219.537 182.742 218.626 182.4 217.923 181.717C217.23 181.033 216.883 180.112 216.883 178.953V178.839C216.883 177.7 217.23 176.774 217.923 176.062C218.626 175.35 219.513 174.994 220.586 174.994C221.593 174.994 222.429 175.307 223.093 175.934C223.767 176.561 224.105 177.501 224.105 178.754V179.253H218.649C218.678 179.965 218.863 180.511 219.205 180.891C219.556 181.27 220.055 181.46 220.7 181.46C221.707 181.46 222.277 181.08 222.41 180.321H224.076C223.953 181.109 223.592 181.712 222.994 182.13C222.405 182.538 221.626 182.742 220.658 182.742ZM222.395 178.099C222.3 176.864 221.697 176.247 220.586 176.247C220.074 176.247 219.646 176.413 219.305 176.746C218.972 177.069 218.763 177.52 218.678 178.099H222.395Z" fill="white"/>
<path d="M269.993 178.392C269.993 167.576 278.761 158.807 289.577 158.807H365.382C376.198 158.807 384.966 167.576 384.966 178.392V178.807C384.966 189.624 376.198 198.392 365.382 198.392H289.577C278.761 198.392 269.993 189.624 269.993 178.807V178.392Z" fill="#7EACBD" fill-opacity="0.82"/>
<path d="M304.205 177.8L300.758 182.6H298.693L302.582 177.344L298.836 172.416H300.844L304.205 177.059V172.416H306.071V177.059L309.447 172.416H311.412L307.695 177.258L311.626 182.6H309.49L306.071 177.814V182.6H304.205V177.8ZM314.726 182.742C313.995 182.742 313.397 182.562 312.931 182.201C312.466 181.831 312.233 181.275 312.233 180.534C312.233 179.718 312.58 179.12 313.273 178.74C313.976 178.36 314.902 178.17 316.051 178.17H316.976V177.785C316.976 177.263 316.877 176.883 316.677 176.646C316.478 176.409 316.127 176.29 315.623 176.29C314.778 176.29 314.303 176.679 314.199 177.458H312.533C312.608 176.632 312.936 176.015 313.515 175.606C314.095 175.198 314.83 174.994 315.723 174.994C317.708 174.994 318.7 175.901 318.7 177.714V182.6H317.005V181.688C316.454 182.391 315.695 182.742 314.726 182.742ZM315.139 181.503C315.69 181.503 316.131 181.37 316.464 181.104C316.806 180.838 316.976 180.468 316.976 179.993V179.253H316.093C314.66 179.253 313.943 179.656 313.943 180.463C313.943 181.156 314.341 181.503 315.139 181.503ZM322.698 179.609C322.603 180.672 322.394 181.456 322.071 181.959C321.758 182.462 321.264 182.714 320.59 182.714C320.362 182.714 320.201 182.699 320.106 182.671C320.087 182.661 320.058 182.647 320.02 182.628C319.992 182.619 319.973 182.614 319.963 182.614V181.175L320.049 181.204C320.144 181.223 320.229 181.232 320.305 181.232C320.571 181.232 320.765 181.076 320.889 180.762C321.022 180.439 321.122 179.96 321.188 179.324C321.207 179.143 321.221 178.911 321.231 178.626C321.24 178.341 321.25 178.018 321.259 177.657C321.278 177.287 321.292 176.993 321.302 176.774L321.345 175.15H326.771V182.6H325.062V176.432H322.855C322.779 178.151 322.726 179.21 322.698 179.609ZM332.159 181.403C332.805 181.403 333.308 181.185 333.669 180.748C334.03 180.302 334.21 179.694 334.21 178.925V178.825C334.21 178.056 334.03 177.453 333.669 177.016C333.308 176.57 332.805 176.347 332.159 176.347C331.514 176.347 331.006 176.565 330.635 177.002C330.274 177.439 330.094 178.042 330.094 178.811V178.925C330.094 179.694 330.274 180.302 330.635 180.748C330.996 181.185 331.504 181.403 332.159 181.403ZM334.894 181.688C334.172 182.391 333.256 182.742 332.145 182.742C331.034 182.742 330.118 182.396 329.396 181.702C328.684 181 328.328 180.083 328.328 178.953V178.839C328.328 177.7 328.689 176.774 329.41 176.062C330.132 175.35 331.048 174.994 332.159 174.994C333.261 174.994 334.172 175.345 334.894 176.048C335.616 176.75 335.976 177.667 335.976 178.797V178.911C335.976 180.06 335.616 180.985 334.894 181.688ZM340.924 182.742C339.737 182.742 338.801 182.367 338.118 181.617C337.443 180.857 337.106 179.718 337.106 178.199V177.672C337.106 173.873 338.545 171.903 341.422 171.761L341.878 171.746C343.008 171.689 343.744 171.599 344.086 171.476V172.829C343.639 173.019 342.894 173.142 341.849 173.199L341.479 173.228C340.482 173.285 339.746 173.607 339.271 174.196C338.806 174.785 338.526 175.635 338.431 176.746H338.502C339.062 175.654 339.998 175.108 341.308 175.108C342.334 175.108 343.165 175.459 343.801 176.162C344.437 176.855 344.755 177.743 344.755 178.825V178.911C344.755 180.079 344.394 181.009 343.673 181.702C342.951 182.396 342.035 182.742 340.924 182.742ZM339.414 180.762C339.784 181.19 340.292 181.403 340.938 181.403C341.584 181.403 342.087 181.19 342.448 180.762C342.808 180.326 342.989 179.713 342.989 178.925V178.868C342.989 178.099 342.818 177.505 342.476 177.088C342.144 176.67 341.655 176.461 341.009 176.461C340.344 176.461 339.822 176.679 339.442 177.116C339.062 177.543 338.873 178.142 338.873 178.911V178.982C338.873 179.732 339.053 180.326 339.414 180.762ZM352.991 175.15H354.714V182.6H352.991V175.15ZM346.311 175.15H348.034V177.6H349.302C350.166 177.6 350.859 177.809 351.381 178.227C351.903 178.645 352.165 179.262 352.165 180.079V180.121C352.165 180.929 351.903 181.546 351.381 181.973C350.868 182.391 350.161 182.6 349.259 182.6H346.311V175.15ZM349.06 181.346C349.534 181.346 349.881 181.251 350.099 181.061C350.327 180.862 350.441 180.544 350.441 180.107V180.064C350.441 179.257 349.981 178.854 349.06 178.854H348.034V181.346H349.06Z" fill="white"/>
<path d="M10.4967 231.33C10.4967 220.513 19.265 211.745 30.0813 211.745H216.886C227.702 211.745 236.47 220.513 236.47 231.33V231.745C236.47 242.561 227.702 251.33 216.886 251.33H30.0813C19.265 251.33 10.4967 242.561 10.4967 231.745V231.33Z" fill="#7EACBD" fill-opacity="0.82"/>
<path d="M43.3704 235.68C42.2215 235.68 41.3099 235.371 40.6357 234.754C39.9615 234.137 39.5674 233.297 39.4535 232.233H41.2624C41.4523 233.515 42.1597 234.156 43.3847 234.156C44.0209 234.156 44.5051 234.009 44.8375 233.714C45.1698 233.41 45.336 232.988 45.336 232.447C45.336 231.915 45.1888 231.535 44.8945 231.307C44.6001 231.07 44.1016 230.951 43.3989 230.951H42.2452V229.641H43.3704C44.4529 229.641 44.9942 229.137 44.9942 228.131C44.9942 227.675 44.8565 227.329 44.5811 227.091C44.3057 226.844 43.9117 226.721 43.3989 226.721C42.8482 226.721 42.4256 226.859 42.1312 227.134C41.8464 227.4 41.647 227.813 41.533 228.373H39.7526C39.876 227.348 40.2559 226.564 40.8921 226.023C41.5378 225.482 42.3971 225.211 43.4701 225.211C44.4862 225.211 45.3075 225.467 45.9342 225.98C46.5704 226.493 46.8885 227.162 46.8885 227.988C46.8885 228.539 46.7461 229.014 46.4612 229.413C46.1764 229.812 45.7538 230.092 45.1936 230.253C45.8773 230.358 46.3948 230.609 46.7461 231.008C47.1069 231.397 47.2873 231.91 47.2873 232.546C47.2873 233.477 46.9218 234.232 46.1906 234.811C45.4689 235.39 44.5289 235.68 43.3704 235.68ZM50.8763 235.68C50.1452 235.68 49.547 235.499 49.0817 235.139C48.6164 234.768 48.3838 234.213 48.3838 233.472C48.3838 232.656 48.7303 232.057 49.4235 231.678C50.1262 231.298 51.052 231.108 52.201 231.108H53.1268V230.723C53.1268 230.201 53.0271 229.821 52.8277 229.584C52.6283 229.346 52.2769 229.228 51.7737 229.228C50.9286 229.228 50.4538 229.617 50.3493 230.396H48.6829C48.7588 229.57 49.0864 228.952 49.6657 228.544C50.2449 228.136 50.9808 227.932 51.8734 227.932C53.858 227.932 54.8502 228.838 54.8502 230.652V235.537H53.1553V234.626C52.6045 235.329 51.8449 235.68 50.8763 235.68ZM51.2894 234.441C51.8401 234.441 52.2817 234.308 52.614 234.042C52.9559 233.776 53.1268 233.406 53.1268 232.931V232.19H52.2437C50.8099 232.19 50.093 232.594 50.093 233.401C50.093 234.094 50.4918 234.441 51.2894 234.441ZM60.2155 235.68C59.0286 235.68 58.0933 235.305 57.4096 234.555C56.7354 233.795 56.3983 232.656 56.3983 231.136V230.609C56.3983 226.811 57.8369 224.841 60.7141 224.698L61.1699 224.684C62.2998 224.627 63.0357 224.537 63.3776 224.413V225.767C62.9313 225.956 62.1859 226.08 61.1414 226.137L60.771 226.165C59.774 226.222 59.0381 226.545 58.5633 227.134C58.098 227.723 57.8179 228.572 57.723 229.683H57.7942C58.3544 228.591 59.2897 228.045 60.6001 228.045C61.6256 228.045 62.4565 228.397 63.0927 229.099C63.7289 229.793 64.047 230.68 64.047 231.763V231.848C64.047 233.016 63.6862 233.947 62.9645 234.64C62.2429 235.333 61.3265 235.68 60.2155 235.68ZM58.7058 233.7C59.0761 234.127 59.5841 234.341 60.2298 234.341C60.8755 234.341 61.3788 234.127 61.7396 233.7C62.1004 233.263 62.2808 232.651 62.2808 231.863V231.806C62.2808 231.037 62.1099 230.443 61.7681 230.025C61.4357 229.607 60.9467 229.399 60.301 229.399C59.6363 229.399 59.1141 229.617 58.7342 230.054C58.3544 230.481 58.1645 231.079 58.1645 231.848V231.92C58.1645 232.67 58.3449 233.263 58.7058 233.7ZM68.9355 234.341C69.5812 234.341 70.0845 234.123 70.4453 233.686C70.8061 233.24 70.9865 232.632 70.9865 231.863V231.763C70.9865 230.994 70.8061 230.391 70.4453 229.954C70.0845 229.508 69.5812 229.285 68.9355 229.285C68.2898 229.285 67.7818 229.503 67.4115 229.94C67.0506 230.377 66.8702 230.98 66.8702 231.749V231.863C66.8702 232.632 67.0506 233.24 67.4115 233.686C67.7723 234.123 68.2803 234.341 68.9355 234.341ZM71.6702 234.626C70.9486 235.329 70.0322 235.68 68.9213 235.68C67.8103 235.68 66.8939 235.333 66.1723 234.64C65.4601 233.937 65.104 233.021 65.104 231.891V231.777C65.104 230.638 65.4649 229.712 66.1865 229C66.9082 228.288 67.8245 227.932 68.9355 227.932C70.037 227.932 70.9486 228.283 71.6702 228.986C72.3919 229.688 72.7527 230.605 72.7527 231.734V231.848C72.7527 232.997 72.3919 233.923 71.6702 234.626ZM76.2629 232.546C76.168 233.61 75.9591 234.393 75.6362 234.897C75.3229 235.4 74.8291 235.651 74.1549 235.651C73.927 235.651 73.7656 235.637 73.6706 235.609C73.6517 235.599 73.6232 235.585 73.5852 235.566C73.5567 235.556 73.5377 235.552 73.5282 235.552V234.113L73.6137 234.142C73.7086 234.161 73.7941 234.17 73.8701 234.17C74.1359 234.17 74.3306 234.013 74.454 233.7C74.587 233.377 74.6867 232.898 74.7531 232.261C74.7721 232.081 74.7864 231.848 74.7959 231.564C74.8054 231.279 74.8149 230.956 74.8244 230.595C74.8433 230.225 74.8576 229.93 74.8671 229.712L74.9098 228.088H80.3365V235.537H78.6273V229.37H76.4196C76.3437 231.089 76.2914 232.148 76.2629 232.546ZM85.6674 235.68C84.5469 235.68 83.6353 235.338 82.9326 234.654C82.2394 233.971 81.8929 233.05 81.8929 231.891V231.777C81.8929 230.638 82.2394 229.712 82.9326 229C83.6353 228.288 84.5231 227.932 85.5961 227.932C86.6027 227.932 87.4383 228.245 88.103 228.872C88.7772 229.498 89.1142 230.438 89.1142 231.692V232.19H83.659C83.6875 232.902 83.8727 233.448 84.2145 233.828C84.5659 234.208 85.0644 234.398 85.7101 234.398C86.7166 234.398 87.2863 234.018 87.4193 233.259H89.0858C88.9623 234.047 88.6015 234.65 88.0033 235.067C87.4145 235.476 86.6359 235.68 85.6674 235.68ZM87.405 231.037C87.3101 229.802 86.7071 229.185 85.5961 229.185C85.0834 229.185 84.6561 229.351 84.3142 229.683C83.9819 230.006 83.773 230.457 83.6875 231.037H87.405ZM90.6536 228.088H93.659C95.4727 228.088 96.3795 228.71 96.3795 229.954V229.983C96.3795 230.866 95.9379 231.412 95.0548 231.621C96.1563 231.848 96.7071 232.409 96.7071 233.301V233.344C96.7071 234.056 96.4649 234.602 95.9807 234.982C95.5059 235.352 94.8222 235.537 93.9296 235.537H90.6536V228.088ZM92.3771 229.242V231.136H93.4169C93.8347 231.136 94.1385 231.06 94.3284 230.908C94.5183 230.747 94.6133 230.495 94.6133 230.153V230.125C94.6133 229.793 94.5089 229.565 94.2999 229.441C94.1005 229.308 93.7872 229.242 93.3599 229.242H92.3771ZM92.3771 232.29V234.384H93.602C94.4946 234.384 94.9409 234.042 94.9409 233.358V233.33C94.9409 232.637 94.5136 232.29 93.659 232.29H92.3771ZM100.311 235.68C99.5797 235.68 98.9815 235.499 98.5162 235.139C98.0509 234.768 97.8183 234.213 97.8183 233.472C97.8183 232.656 98.1649 232.057 98.8581 231.678C99.5607 231.298 100.487 231.108 101.636 231.108H102.561V230.723C102.561 230.201 102.462 229.821 102.262 229.584C102.063 229.346 101.711 229.228 101.208 229.228C100.363 229.228 99.8883 229.617 99.7839 230.396H98.1174C98.1934 229.57 98.521 228.952 99.1002 228.544C99.6794 228.136 100.415 227.932 101.308 227.932C103.292 227.932 104.285 228.838 104.285 230.652V235.537H102.59V234.626C102.039 235.329 101.279 235.68 100.311 235.68ZM100.724 234.441C101.275 234.441 101.716 234.308 102.049 234.042C102.39 233.776 102.561 233.406 102.561 232.931V232.19H101.678C100.244 232.19 99.5275 232.594 99.5275 233.401C99.5275 234.094 99.9263 234.441 100.724 234.441ZM111.074 232.375H107.984V235.537H106.26V228.088H107.984V231.094H111.074V228.088H112.798V235.537H111.074V232.375ZM114.842 235.537V228.088H116.566V233.358L119.785 228.088H121.494V235.537H119.785V230.267L116.566 235.537H114.842ZM126.343 229.342C125.422 229.342 124.961 229.717 124.961 230.467V230.51C124.961 230.889 125.071 231.17 125.289 231.35C125.507 231.53 125.859 231.621 126.343 231.621H127.397V229.342H126.343ZM124.605 235.537H122.711L124.748 232.475C123.732 232.162 123.224 231.502 123.224 230.495V230.453C123.224 229.693 123.48 229.109 123.993 228.701C124.506 228.292 125.213 228.088 126.115 228.088H129.106V235.537H127.397V232.803H126.372L124.605 235.537ZM139.21 229.37H136.262V235.537H134.538V228.088H140.934V235.537H139.21V229.37ZM144.933 235.68C144.202 235.68 143.603 235.499 143.138 235.139C142.673 234.768 142.44 234.213 142.44 233.472C142.44 232.656 142.787 232.057 143.48 231.678C144.183 231.298 145.108 231.108 146.257 231.108H147.183V230.723C147.183 230.201 147.083 229.821 146.884 229.584C146.685 229.346 146.333 229.228 145.83 229.228C144.985 229.228 144.51 229.617 144.406 230.396H142.739C142.815 229.57 143.143 228.952 143.722 228.544C144.301 228.136 145.037 227.932 145.93 227.932C147.914 227.932 148.907 228.838 148.907 230.652V235.537H147.212V234.626C146.661 235.329 145.901 235.68 144.933 235.68ZM145.346 234.441C145.897 234.441 146.338 234.308 146.67 234.042C147.012 233.776 147.183 233.406 147.183 232.931V232.19H146.3C144.866 232.19 144.149 232.594 144.149 233.401C144.149 234.094 144.548 234.441 145.346 234.441ZM150.882 228.088H152.605V229.285C152.824 228.905 153.151 228.587 153.588 228.33C154.035 228.064 154.519 227.932 155.041 227.932C156 227.932 156.788 228.273 157.405 228.957C158.032 229.631 158.346 230.552 158.346 231.72V231.834C158.346 233.012 158.037 233.947 157.42 234.64C156.812 235.333 156.019 235.68 155.041 235.68C154.471 235.68 153.973 235.561 153.545 235.324C153.128 235.077 152.814 234.759 152.605 234.37V238.087H150.882V228.088ZM154.614 234.313C155.25 234.313 155.734 234.104 156.067 233.686C156.408 233.268 156.579 232.66 156.579 231.863V231.749C156.579 230.951 156.394 230.343 156.024 229.926C155.663 229.498 155.188 229.285 154.6 229.285C153.973 229.285 153.474 229.494 153.104 229.911C152.734 230.329 152.548 230.942 152.548 231.749V231.863C152.548 232.67 152.729 233.282 153.09 233.7C153.46 234.108 153.968 234.313 154.614 234.313ZM163.228 234.341C163.874 234.341 164.377 234.123 164.738 233.686C165.099 233.24 165.279 232.632 165.279 231.863V231.763C165.279 230.994 165.099 230.391 164.738 229.954C164.377 229.508 163.874 229.285 163.228 229.285C162.583 229.285 162.075 229.503 161.704 229.94C161.343 230.377 161.163 230.98 161.163 231.749V231.863C161.163 232.632 161.343 233.24 161.704 233.686C162.065 234.123 162.573 234.341 163.228 234.341ZM165.963 234.626C165.241 235.329 164.325 235.68 163.214 235.68C162.103 235.68 161.187 235.333 160.465 234.64C159.753 233.937 159.397 233.021 159.397 231.891V231.777C159.397 230.638 159.758 229.712 160.479 229C161.201 228.288 162.117 227.932 163.228 227.932C164.33 227.932 165.241 228.283 165.963 228.986C166.685 229.688 167.046 230.605 167.046 231.734V231.848C167.046 232.997 166.685 233.923 165.963 234.626ZM170.388 232.375C170.284 233.249 170.137 233.876 169.947 234.256H172.838V229.356H170.573C170.497 230.904 170.436 231.91 170.388 232.375ZM169.021 237.346H167.554V234.256H168.024C168.271 234.17 168.451 233.971 168.565 233.657C168.679 233.334 168.774 232.869 168.85 232.261C169.002 231.037 169.078 229.645 169.078 228.088H174.547V234.256H175.63V237.346H174.163L174.106 235.537H169.078L169.021 237.346ZM180.142 234.341C180.788 234.341 181.291 234.123 181.652 233.686C182.013 233.24 182.193 232.632 182.193 231.863V231.763C182.193 230.994 182.013 230.391 181.652 229.954C181.291 229.508 180.788 229.285 180.142 229.285C179.497 229.285 178.989 229.503 178.618 229.94C178.257 230.377 178.077 230.98 178.077 231.749V231.863C178.077 232.632 178.257 233.24 178.618 233.686C178.979 234.123 179.487 234.341 180.142 234.341ZM182.877 234.626C182.155 235.329 181.239 235.68 180.128 235.68C179.017 235.68 178.101 235.333 177.379 234.64C176.667 233.937 176.311 233.021 176.311 231.891V231.777C176.311 230.638 176.672 229.712 177.393 229C178.115 228.288 179.031 227.932 180.142 227.932C181.244 227.932 182.155 228.283 182.877 228.986C183.599 229.688 183.96 230.605 183.96 231.734V231.848C183.96 232.997 183.599 233.923 182.877 234.626ZM190.331 232.375H187.24V235.537H185.517V228.088H187.24V231.094H190.331V228.088H192.054V235.537H190.331V232.375ZM199.668 229.37H197.389V235.537H195.666V229.37H193.387V228.088H199.668V229.37ZM202.894 235.68C202.163 235.68 201.564 235.499 201.099 235.139C200.634 234.768 200.401 234.213 200.401 233.472C200.401 232.656 200.748 232.057 201.441 231.678C202.144 231.298 203.069 231.108 204.218 231.108H205.144V230.723C205.144 230.201 205.045 229.821 204.845 229.584C204.646 229.346 204.294 229.228 203.791 229.228C202.946 229.228 202.471 229.617 202.367 230.396H200.7C200.776 229.57 201.104 228.952 201.683 228.544C202.262 228.136 202.998 227.932 203.891 227.932C205.875 227.932 206.868 228.838 206.868 230.652V235.537H205.173V234.626C204.622 235.329 203.862 235.68 202.894 235.68ZM203.307 234.441C203.858 234.441 204.299 234.308 204.631 234.042C204.973 233.776 205.144 233.406 205.144 232.931V232.19H204.261C202.827 232.19 202.11 232.594 202.11 233.401C202.11 234.094 202.509 234.441 203.307 234.441Z" fill="white"/>
<path d="M252.494 231.33C252.494 220.513 261.262 211.745 272.079 211.745H343.883C354.699 211.745 363.468 220.513 363.468 231.33V231.745C363.468 242.561 354.699 251.33 343.883 251.33H272.079C261.262 251.33 252.494 242.561 252.494 231.745V231.33Z" fill="#7EACBD" fill-opacity="0.82"/>
<path d="M284.186 226.849H281.351V225.353H288.929V226.849H286.094V235.537H284.186V226.849ZM289.81 228.088H291.533V229.285C291.751 228.905 292.079 228.587 292.516 228.33C292.962 228.064 293.446 227.932 293.969 227.932C294.928 227.932 295.716 228.273 296.333 228.957C296.96 229.631 297.273 230.552 297.273 231.72V231.834C297.273 233.012 296.964 233.947 296.347 234.64C295.74 235.333 294.947 235.68 293.969 235.68C293.399 235.68 292.9 235.561 292.473 235.324C292.055 235.077 291.742 234.759 291.533 234.37V238.087H289.81V228.088ZM293.541 234.313C294.178 234.313 294.662 234.104 294.994 233.686C295.336 233.268 295.507 232.66 295.507 231.863V231.749C295.507 230.951 295.322 230.343 294.951 229.926C294.591 229.498 294.116 229.285 293.527 229.285C292.9 229.285 292.402 229.494 292.032 229.911C291.661 230.329 291.476 230.942 291.476 231.749V231.863C291.476 232.67 291.656 233.282 292.017 233.7C292.388 234.108 292.896 234.313 293.541 234.313ZM300.774 235.68C300.043 235.68 299.445 235.499 298.98 235.139C298.514 234.768 298.282 234.213 298.282 233.472C298.282 232.656 298.628 232.057 299.321 231.678C300.024 231.298 300.95 231.108 302.099 231.108H303.025V230.723C303.025 230.201 302.925 229.821 302.726 229.584C302.526 229.346 302.175 229.228 301.672 229.228C300.827 229.228 300.352 229.617 300.247 230.396H298.581C298.657 229.57 298.984 228.952 299.564 228.544C300.143 228.136 300.879 227.932 301.771 227.932C303.756 227.932 304.748 228.838 304.748 230.652V235.537H303.053V234.626C302.502 235.329 301.743 235.68 300.774 235.68ZM301.187 234.441C301.738 234.441 302.18 234.308 302.512 234.042C302.854 233.776 303.025 233.406 303.025 232.931V232.19H302.142C300.708 232.19 299.991 232.594 299.991 233.401C299.991 234.094 300.39 234.441 301.187 234.441ZM306.724 228.088H309.729C311.543 228.088 312.449 228.71 312.449 229.954V229.983C312.449 230.866 312.008 231.412 311.125 231.621C312.226 231.848 312.777 232.409 312.777 233.301V233.344C312.777 234.056 312.535 234.602 312.051 234.982C311.576 235.352 310.892 235.537 310 235.537H306.724V228.088ZM308.447 229.242V231.136H309.487C309.905 231.136 310.208 231.06 310.398 230.908C310.588 230.747 310.683 230.495 310.683 230.153V230.125C310.683 229.793 310.579 229.565 310.37 229.441C310.17 229.308 309.857 229.242 309.43 229.242H308.447ZM308.447 232.29V234.384H309.672C310.565 234.384 311.011 234.042 311.011 233.358V233.33C311.011 232.637 310.584 232.29 309.729 232.29H308.447ZM315.841 229.911V235.537H314.36V228.088H316.739L318.604 232.732L320.485 228.088H322.721V235.537H321.026V229.911L318.676 235.537H318.106L315.841 229.911ZM331.458 228.088H333.182V235.537H331.458V228.088ZM324.778 228.088H326.502V230.538H327.769C328.633 230.538 329.327 230.747 329.849 231.165C330.371 231.583 330.632 232.2 330.632 233.016V233.059C330.632 233.866 330.371 234.483 329.849 234.911C329.336 235.329 328.629 235.537 327.727 235.537H324.778V228.088ZM327.527 234.284C328.002 234.284 328.348 234.189 328.567 233.999C328.795 233.8 328.909 233.482 328.909 233.045V233.002C328.909 232.195 328.448 231.791 327.527 231.791H326.502V234.284H327.527Z" fill="white"/>
<path d="M6.52707 284.268C6.52707 273.451 15.2954 264.683 26.1117 264.683H95.916C106.732 264.683 115.501 273.451 115.501 284.268V284.683C115.501 295.499 106.732 304.268 95.9159 304.268H26.1117C15.2954 304.268 6.52707 295.499 6.52707 284.683V284.268Z" fill="#7EACBD" fill-opacity="0.82"/>
<path d="M42.5058 279.815H38.0904V288.475H36.1818V278.291H44.4145V288.475H42.5058V279.815ZM46.5967 281.026H48.3201V282.222C48.5385 281.843 48.8661 281.525 49.3029 281.268C49.7492 281.002 50.2335 280.869 50.7558 280.869C51.7148 280.869 52.5029 281.211 53.1202 281.895C53.7469 282.569 54.0602 283.49 54.0602 284.658V284.772C54.0602 285.95 53.7516 286.885 53.1344 287.578C52.5267 288.271 51.7338 288.618 50.7558 288.618C50.186 288.618 49.6875 288.499 49.2602 288.262C48.8424 288.015 48.529 287.697 48.3201 287.307V291.025H46.5967V281.026ZM50.3285 287.25C50.9647 287.25 51.4489 287.042 51.7813 286.624C52.1231 286.206 52.294 285.598 52.294 284.801V284.687C52.294 283.889 52.1089 283.281 51.7386 282.863C51.3777 282.436 50.9029 282.222 50.3142 282.222C49.6875 282.222 49.189 282.431 48.8187 282.849C48.4483 283.267 48.2632 283.879 48.2632 284.687V284.801C48.2632 285.608 48.4436 286.22 48.8044 286.638C49.1747 287.046 49.6828 287.25 50.3285 287.25ZM55.6101 288.475V281.026H57.3335V286.296L60.5525 281.026H62.2617V288.475H60.5525V283.205L57.3335 288.475H55.6101ZM65.9714 284.829V288.475H64.2479V281.026H65.9714V284.331L68.6349 281.026H70.515L67.6236 284.473L70.7571 288.475H68.7631L65.9714 284.829ZM74.1191 287.72L71.1707 281.026H73.0366L75.0165 285.826L76.8396 281.026H78.5203L74.461 291.025H72.766L74.1191 287.72ZM82.7962 288.618C81.7042 288.618 80.8022 288.281 80.09 287.606C79.3873 286.923 79.036 286.002 79.036 284.843V284.729C79.036 283.58 79.3921 282.65 80.1042 281.938C80.8259 281.225 81.7232 280.869 82.7962 280.869C83.7078 280.869 84.4817 281.097 85.1179 281.553C85.7541 281.999 86.1149 282.702 86.2004 283.661H84.5339C84.3915 282.721 83.8218 282.251 82.8247 282.251C82.2265 282.251 81.7375 282.469 81.3577 282.906C80.9873 283.343 80.8022 283.941 80.8022 284.701V284.815C80.8022 285.622 80.9826 286.239 81.3434 286.666C81.7137 287.084 82.2218 287.293 82.8675 287.293C83.3422 287.293 83.7458 287.155 84.0781 286.88C84.4105 286.605 84.6051 286.211 84.6621 285.698H86.2431C86.1862 286.562 85.8443 287.265 85.2176 287.806C84.5909 288.347 83.7838 288.618 82.7962 288.618Z" fill="white"/>
<path d="M117.995 284.268C117.995 273.451 126.764 264.683 137.58 264.683H239.384C250.201 264.683 258.969 273.451 258.969 284.268V284.683C258.969 295.499 250.201 304.268 239.384 304.268H137.58C126.764 304.268 117.995 295.499 117.995 284.683V284.268Z" fill="#7EACBD" fill-opacity="0.82"/>
<path d="M147.65 278.291H149.544V282.621H154.117V278.291H156.025V288.475H154.117V284.145H149.544V288.475H147.65V278.291ZM160.086 288.618C159.355 288.618 158.757 288.437 158.291 288.077C157.826 287.706 157.593 287.151 157.593 286.41C157.593 285.593 157.94 284.995 158.633 284.615C159.336 284.236 160.262 284.046 161.411 284.046H162.336V283.661C162.336 283.139 162.237 282.759 162.037 282.522C161.838 282.284 161.486 282.166 160.983 282.166C160.138 282.166 159.663 282.555 159.559 283.333H157.892C157.968 282.507 158.296 281.89 158.875 281.482C159.454 281.074 160.19 280.869 161.083 280.869C163.067 280.869 164.06 281.776 164.06 283.59V288.475H162.365V287.564C161.814 288.266 161.054 288.618 160.086 288.618ZM160.499 287.379C161.05 287.379 161.491 287.246 161.824 286.98C162.165 286.714 162.336 286.344 162.336 285.869V285.128H161.453C160.019 285.128 159.302 285.532 159.302 286.339C159.302 287.032 159.701 287.379 160.499 287.379ZM171.462 282.92C171.462 283.338 171.348 283.694 171.12 283.989C170.892 284.283 170.555 284.473 170.109 284.558C171.21 284.739 171.761 285.294 171.761 286.225V286.268C171.761 286.951 171.481 287.516 170.921 287.963C170.37 288.399 169.629 288.618 168.699 288.618C167.711 288.618 166.947 288.395 166.405 287.948C165.864 287.502 165.556 286.861 165.48 286.025H167.061C167.222 286.88 167.763 287.307 168.684 287.307C169.549 287.307 169.981 286.956 169.981 286.253V286.211C169.981 285.555 169.558 285.228 168.713 285.228H167.687V284.074H168.57C169.311 284.074 169.681 283.766 169.681 283.148V283.106C169.681 282.517 169.316 282.222 168.585 282.222C167.863 282.222 167.417 282.569 167.246 283.262H165.679C165.765 282.455 166.083 281.857 166.633 281.468C167.184 281.069 167.858 280.869 168.656 280.869C169.473 280.869 170.142 281.05 170.664 281.411C171.196 281.771 171.462 282.26 171.462 282.878V282.92ZM178.152 285.313H175.061V288.475H173.338V281.026H175.061V284.031H178.152V281.026H179.875V288.475H178.152V285.313ZM183.871 288.618C183.14 288.618 182.542 288.437 182.077 288.077C181.611 287.706 181.379 287.151 181.379 286.41C181.379 285.593 181.725 284.995 182.418 284.615C183.121 284.236 184.047 284.046 185.196 284.046H186.122V283.661C186.122 283.139 186.022 282.759 185.823 282.522C185.623 282.284 185.272 282.166 184.769 282.166C183.923 282.166 183.449 282.555 183.344 283.333H181.678C181.754 282.507 182.081 281.89 182.661 281.482C183.24 281.074 183.976 280.869 184.868 280.869C186.853 280.869 187.845 281.776 187.845 283.59V288.475H186.15V287.564C185.599 288.266 184.84 288.618 183.871 288.618ZM184.284 287.379C184.835 287.379 185.277 287.246 185.609 286.98C185.951 286.714 186.122 286.344 186.122 285.869V285.128H185.239C183.805 285.128 183.088 285.532 183.088 286.339C183.088 287.032 183.487 287.379 184.284 287.379ZM193.97 288.475V285.171C193.467 285.731 192.745 286.011 191.805 286.011C191.074 286.011 190.485 285.779 190.039 285.313C189.593 284.839 189.37 284.126 189.37 283.177V281.026H191.079V282.992C191.079 283.561 191.188 283.979 191.407 284.245C191.625 284.501 191.967 284.63 192.432 284.63C193.125 284.63 193.638 284.392 193.97 283.917V281.026H195.694V288.475H193.97ZM201.025 288.618C199.904 288.618 198.993 288.276 198.29 287.592C197.597 286.909 197.25 285.987 197.25 284.829V284.715C197.25 283.576 197.597 282.65 198.29 281.938C198.993 281.225 199.881 280.869 200.954 280.869C201.96 280.869 202.796 281.183 203.461 281.809C204.135 282.436 204.472 283.376 204.472 284.63V285.128H199.017C199.045 285.84 199.23 286.386 199.572 286.766C199.923 287.146 200.422 287.336 201.068 287.336C202.074 287.336 202.644 286.956 202.777 286.196H204.443C204.32 286.985 203.959 287.588 203.361 288.005C202.772 288.414 201.993 288.618 201.025 288.618ZM202.763 283.974C202.668 282.74 202.065 282.123 200.954 282.123C200.441 282.123 200.014 282.289 199.672 282.621C199.339 282.944 199.131 283.395 199.045 283.974H202.763ZM210.825 285.313H207.735V288.475H206.011V281.026H207.735V284.031H210.825V281.026H212.549V288.475H210.825V285.313ZM214.593 288.475V281.026H216.317V286.296L219.536 281.026H221.245V288.475H219.536V283.205L216.317 288.475H214.593ZM226.094 282.279C225.173 282.279 224.713 282.655 224.713 283.405V283.447C224.713 283.827 224.822 284.107 225.04 284.288C225.259 284.468 225.61 284.558 226.094 284.558H227.148V282.279H226.094ZM224.356 288.475H222.462L224.499 285.413C223.483 285.1 222.975 284.44 222.975 283.433V283.39C222.975 282.631 223.231 282.047 223.744 281.639C224.257 281.23 224.964 281.026 225.866 281.026H228.857V288.475H227.148V285.741H226.123L224.356 288.475Z" fill="white"/>
<path d="M261.464 284.268C261.464 273.451 270.232 264.683 281.048 264.683H347.853C358.669 264.683 367.437 273.451 367.437 284.268V284.683C367.437 295.499 358.669 304.268 347.853 304.268H281.048C270.232 304.268 261.464 295.499 261.464 284.683V284.268Z" fill="#7EACBD" fill-opacity="0.82"/>
<path d="M295.577 288.618C294 288.618 292.775 288.152 291.902 287.222C291.038 286.291 290.606 285.033 290.606 283.447V283.333C290.606 281.814 291.071 280.57 292.001 279.602C292.932 278.624 294.114 278.135 295.548 278.135C296.763 278.135 297.765 278.439 298.553 279.046C299.351 279.654 299.807 280.537 299.921 281.695H297.998C297.893 281.002 297.642 280.49 297.243 280.157C296.854 279.815 296.293 279.644 295.562 279.644C294.67 279.644 293.953 279.977 293.412 280.641C292.87 281.297 292.6 282.189 292.6 283.319V283.433C292.6 284.582 292.861 285.479 293.383 286.125C293.905 286.761 294.636 287.079 295.577 287.079C296.298 287.079 296.887 286.899 297.343 286.538C297.799 286.168 298.079 285.631 298.183 284.929H300.035C299.892 286.135 299.422 287.051 298.625 287.678C297.836 288.304 296.82 288.618 295.577 288.618ZM307.102 282.308H304.823V288.475H303.1V282.308H300.821V281.026H307.102V282.308ZM310.328 288.618C309.597 288.618 308.999 288.437 308.533 288.077C308.068 287.706 307.836 287.151 307.836 286.41C307.836 285.593 308.182 284.995 308.875 284.615C309.578 284.236 310.504 284.046 311.653 284.046H312.579V283.661C312.579 283.139 312.479 282.759 312.279 282.522C312.08 282.284 311.729 282.166 311.225 282.166C310.38 282.166 309.906 282.555 309.801 283.333H308.135C308.211 282.507 308.538 281.89 309.117 281.482C309.697 281.074 310.433 280.869 311.325 280.869C313.31 280.869 314.302 281.776 314.302 283.59V288.475H312.607V287.564C312.056 288.266 311.297 288.618 310.328 288.618ZM310.741 287.379C311.292 287.379 311.733 287.246 312.066 286.98C312.408 286.714 312.579 286.344 312.579 285.869V285.128H311.695C310.262 285.128 309.545 285.532 309.545 286.339C309.545 287.032 309.944 287.379 310.741 287.379ZM321.777 282.308H319.498V288.475H317.775V282.308H315.496V281.026H321.777V282.308ZM325.439 287.72L322.491 281.026H324.357L326.337 285.826L328.16 281.026H329.84L325.781 291.025H324.086L325.439 287.72ZM334.116 288.618C333.024 288.618 332.122 288.281 331.41 287.606C330.707 286.923 330.356 286.002 330.356 284.843V284.729C330.356 283.58 330.712 282.65 331.424 281.938C332.146 281.225 333.043 280.869 334.116 280.869C335.028 280.869 335.802 281.097 336.438 281.553C337.074 281.999 337.435 282.702 337.521 283.661H335.854C335.712 282.721 335.142 282.251 334.145 282.251C333.547 282.251 333.058 282.469 332.678 282.906C332.307 283.343 332.122 283.941 332.122 284.701V284.815C332.122 285.622 332.303 286.239 332.664 286.666C333.034 287.084 333.542 287.293 334.188 287.293C334.662 287.293 335.066 287.155 335.398 286.88C335.731 286.605 335.925 286.211 335.982 285.698H337.563C337.506 286.562 337.164 287.265 336.538 287.806C335.911 288.347 335.104 288.618 334.116 288.618Z" fill="white"/>
<path d="M-4.97293 337.205C-4.97293 326.389 3.79541 317.621 14.6117 317.621H111.416C122.232 317.621 131.001 326.389 131.001 337.205V337.621C131.001 348.437 122.232 357.205 111.416 357.205H14.6117C3.7954 357.205 -4.97293 348.437 -4.97293 337.621V337.205Z" fill="#7EACBD" fill-opacity="0.82"/>
<path d="M31.0058 332.753H26.5904V341.413H24.6818V331.229H32.9145V341.413H31.0058V332.753ZM35.0967 333.964H36.8201V335.16C37.0385 334.781 37.3661 334.462 37.8029 334.206C38.2492 333.94 38.7335 333.807 39.2558 333.807C40.2148 333.807 41.0029 334.149 41.6202 334.833C42.2469 335.507 42.5602 336.428 42.5602 337.596V337.71C42.5602 338.887 42.2516 339.823 41.6344 340.516C41.0267 341.209 40.2338 341.556 39.2558 341.556C38.686 341.556 38.1875 341.437 37.7602 341.2C37.3424 340.953 37.029 340.635 36.8201 340.245V343.963H35.0967V333.964ZM38.8285 340.188C39.4647 340.188 39.9489 339.979 40.2813 339.562C40.6231 339.144 40.794 338.536 40.794 337.738V337.624C40.794 336.827 40.6089 336.219 40.2386 335.801C39.8777 335.374 39.4029 335.16 38.8142 335.16C38.1875 335.16 37.689 335.369 37.3187 335.787C36.9483 336.205 36.7632 336.817 36.7632 337.624V337.738C36.7632 338.546 36.9436 339.158 37.3044 339.576C37.6747 339.984 38.1828 340.188 38.8285 340.188ZM47.3861 341.556C46.2656 341.556 45.354 341.214 44.6513 340.53C43.9582 339.846 43.6116 338.925 43.6116 337.767V337.653C43.6116 336.513 43.9582 335.588 44.6513 334.875C45.354 334.163 46.2418 333.807 47.3148 333.807C48.3214 333.807 49.157 334.121 49.8217 334.747C50.4959 335.374 50.833 336.314 50.833 337.567V338.066H45.3777C45.4062 338.778 45.5914 339.324 45.9332 339.704C46.2846 340.084 46.7831 340.274 47.4288 340.274C48.4353 340.274 49.0051 339.894 49.138 339.134H50.8045C50.681 339.922 50.3202 340.525 49.722 340.943C49.1332 341.351 48.3546 341.556 47.3861 341.556ZM49.1237 336.912C49.0288 335.678 48.4258 335.061 47.3148 335.061C46.8021 335.061 46.3748 335.227 46.0329 335.559C45.7006 335.882 45.4917 336.333 45.4062 336.912H49.1237ZM57.0442 335.246H54.0958V341.413H52.3724V333.964H58.7676V341.413H57.0442V335.246ZM62.7668 341.556C62.0356 341.556 61.4374 341.375 60.9721 341.014C60.5068 340.644 60.2742 340.089 60.2742 339.348C60.2742 338.531 60.6208 337.933 61.314 337.553C62.0166 337.173 62.9425 336.984 64.0914 336.984H65.0172V336.599C65.0172 336.077 64.9175 335.697 64.7181 335.459C64.5187 335.222 64.1674 335.103 63.6641 335.103C62.819 335.103 62.3442 335.493 62.2398 336.271H60.5733C60.6493 335.445 60.9769 334.828 61.5561 334.42C62.1353 334.011 62.8712 333.807 63.7638 333.807C65.7484 333.807 66.7407 334.714 66.7407 336.528V341.413H65.0457V340.502C64.495 341.204 63.7353 341.556 62.7668 341.556ZM63.1798 340.316C63.7306 340.316 64.1721 340.184 64.5045 339.918C64.8463 339.652 65.0172 339.281 65.0172 338.807V338.066H64.1342C62.7003 338.066 61.9834 338.47 61.9834 339.277C61.9834 339.97 62.3822 340.316 63.1798 340.316ZM68.7161 333.964H70.4395V335.16C70.6579 334.781 70.9855 334.462 71.4223 334.206C71.8686 333.94 72.3529 333.807 72.8751 333.807C73.8342 333.807 74.6223 334.149 75.2395 334.833C75.8662 335.507 76.1796 336.428 76.1796 337.596V337.71C76.1796 338.887 75.871 339.823 75.2538 340.516C74.6461 341.209 73.8532 341.556 72.8751 341.556C72.3054 341.556 71.8069 341.437 71.3796 341.2C70.9618 340.953 70.6484 340.635 70.4395 340.245V343.963H68.7161V333.964ZM72.4478 340.188C73.084 340.188 73.5683 339.979 73.9007 339.562C74.2425 339.144 74.4134 338.536 74.4134 337.738V337.624C74.4134 336.827 74.2283 336.219 73.8579 335.801C73.4971 335.374 73.0223 335.16 72.4336 335.16C71.8069 335.16 71.3084 335.369 70.938 335.787C70.5677 336.205 70.3825 336.817 70.3825 337.624V337.738C70.3825 338.546 70.563 339.158 70.9238 339.576C71.2941 339.984 71.8021 340.188 72.4478 340.188ZM79.6808 341.556C78.9496 341.556 78.3514 341.375 77.8861 341.014C77.4209 340.644 77.1882 340.089 77.1882 339.348C77.1882 338.531 77.5348 337.933 78.228 337.553C78.9306 337.173 79.8565 336.984 81.0054 336.984H81.9313V336.599C81.9313 336.077 81.8315 335.697 81.6321 335.459C81.4327 335.222 81.0814 335.103 80.5781 335.103C79.733 335.103 79.2582 335.493 79.1538 336.271H77.4873C77.5633 335.445 77.8909 334.828 78.4701 334.42C79.0493 334.011 79.7853 333.807 80.6778 333.807C82.6624 333.807 83.6547 334.714 83.6547 336.528V341.413H81.9597V340.502C81.409 341.204 80.6493 341.556 79.6808 341.556ZM80.0939 340.316C80.6446 340.316 81.0861 340.184 81.4185 339.918C81.7603 339.652 81.9313 339.281 81.9313 338.807V338.066H81.0482C79.6143 338.066 78.8974 338.47 78.8974 339.277C78.8974 339.97 79.2962 340.316 80.0939 340.316ZM91.1297 335.246H88.8508V341.413H87.1273V335.246H84.8484V333.964H91.1297V335.246ZM99.1537 333.964H100.877V341.413H99.1537V333.964ZM92.4736 333.964H94.197V336.414H95.4647C96.3288 336.414 97.022 336.623 97.5442 337.04C98.0665 337.458 98.3276 338.076 98.3276 338.892V338.935C98.3276 339.742 98.0665 340.359 97.5442 340.786C97.0315 341.204 96.324 341.413 95.422 341.413H92.4736V333.964ZM95.2225 340.16C95.6973 340.16 96.0439 340.065 96.2623 339.875C96.4902 339.676 96.6042 339.357 96.6042 338.921V338.878C96.6042 338.071 96.1436 337.667 95.2225 337.667H94.197V340.16H95.2225Z" fill="white"/>
<path d="M133.495 337.205C133.495 326.389 142.264 317.621 153.08 317.621H232.884C243.701 317.621 252.469 326.389 252.469 337.205V337.621C252.469 348.437 243.701 357.205 232.884 357.205H153.08C142.264 357.205 133.495 348.437 133.495 337.621V337.205Z" fill="#7EACBD" fill-opacity="0.82"/>
<path d="M165.771 331.229H168.249L171.611 341.413H169.645L168.833 338.892H164.945L164.147 341.413H162.367L165.771 331.229ZM165.386 337.511H168.392L166.896 332.782L165.386 337.511ZM177.837 338.251H174.746V341.413H173.023V333.964H174.746V336.969H177.837V333.964H179.56V341.413H177.837V338.251ZM183.556 341.556C182.825 341.556 182.227 341.375 181.761 341.014C181.296 340.644 181.063 340.089 181.063 339.348C181.063 338.531 181.41 337.933 182.103 337.553C182.806 337.173 183.732 336.984 184.881 336.984H185.806V336.599C185.806 336.077 185.707 335.697 185.507 335.459C185.308 335.222 184.957 335.103 184.453 335.103C183.608 335.103 183.133 335.493 183.029 336.271H181.363C181.439 335.445 181.766 334.828 182.345 334.42C182.925 334.011 183.66 333.807 184.553 333.807C186.538 333.807 187.53 334.714 187.53 336.528V341.413H185.835V340.502C185.284 341.204 184.525 341.556 183.556 341.556ZM183.969 340.316C184.52 340.316 184.961 340.184 185.294 339.918C185.636 339.652 185.806 339.281 185.806 338.807V338.066H184.923C183.49 338.066 182.773 338.47 182.773 339.277C182.773 339.97 183.171 340.316 183.969 340.316ZM190.987 335.787V341.413H189.505V333.964H191.884L193.75 338.607L195.63 333.964H197.866V341.413H196.171V335.787L193.821 341.413H193.251L190.987 335.787ZM204.738 338.251H201.647V341.413H199.924V333.964H201.647V336.969H204.738V333.964H206.461V341.413H204.738V338.251ZM211.782 341.556C210.661 341.556 209.75 341.214 209.047 340.53C208.354 339.846 208.007 338.925 208.007 337.767V337.653C208.007 336.513 208.354 335.588 209.047 334.875C209.75 334.163 210.638 333.807 211.711 333.807C212.717 333.807 213.553 334.121 214.217 334.747C214.892 335.374 215.229 336.314 215.229 337.567V338.066H209.773C209.802 338.778 209.987 339.324 210.329 339.704C210.68 340.084 211.179 340.274 211.824 340.274C212.831 340.274 213.401 339.894 213.534 339.134H215.2C215.077 339.922 214.716 340.525 214.118 340.943C213.529 341.351 212.75 341.556 211.782 341.556ZM213.519 336.912C213.424 335.678 212.822 335.061 211.711 335.061C211.198 335.061 210.77 335.227 210.429 335.559C210.096 335.882 209.887 336.333 209.802 336.912H213.519ZM222.195 335.858C222.195 336.276 222.081 336.632 221.853 336.927C221.625 337.221 221.288 337.411 220.842 337.496C221.943 337.677 222.494 338.232 222.494 339.163V339.205C222.494 339.889 222.214 340.454 221.654 340.9C221.103 341.337 220.362 341.556 219.432 341.556C218.444 341.556 217.68 341.332 217.138 340.886C216.597 340.44 216.289 339.799 216.213 338.963H217.794C217.955 339.818 218.496 340.245 219.417 340.245C220.281 340.245 220.713 339.894 220.713 339.191V339.149C220.713 338.493 220.291 338.166 219.446 338.166H218.42V337.012H219.303C220.044 337.012 220.414 336.703 220.414 336.086V336.043C220.414 335.455 220.049 335.16 219.318 335.16C218.596 335.16 218.15 335.507 217.979 336.2H216.412C216.497 335.393 216.816 334.795 217.366 334.405C217.917 334.007 218.591 333.807 219.389 333.807C220.205 333.807 220.875 333.988 221.397 334.348C221.929 334.709 222.195 335.198 222.195 335.816V335.858Z" fill="white"/>
<path d="M254.964 337.205C254.964 326.389 263.732 317.621 274.548 317.621H359.353C370.169 317.621 378.937 326.389 378.937 337.205V337.621C378.937 348.437 370.169 357.205 359.353 357.205H274.548C263.732 357.205 254.964 348.437 254.964 337.621V337.205Z" fill="#7EACBD" fill-opacity="0.82"/>
<path d="M287.239 331.229H289.717L293.079 341.413H291.113L290.301 338.892H286.413L285.615 341.413H283.835L287.239 331.229ZM286.855 337.511H289.86L288.364 332.782L286.855 337.511ZM296.513 338.422C296.418 339.486 296.21 340.269 295.887 340.772C295.573 341.276 295.08 341.527 294.405 341.527C294.177 341.527 294.016 341.513 293.921 341.484C293.902 341.475 293.874 341.461 293.836 341.442C293.807 341.432 293.788 341.427 293.779 341.427V339.989L293.864 340.017C293.959 340.036 294.045 340.046 294.12 340.046C294.386 340.046 294.581 339.889 294.704 339.576C294.837 339.253 294.937 338.773 295.004 338.137C295.023 337.957 295.037 337.724 295.046 337.439C295.056 337.154 295.065 336.832 295.075 336.471C295.094 336.1 295.108 335.806 295.118 335.588L295.16 333.964H300.587V341.413H298.878V335.246H296.67C296.594 336.965 296.542 338.023 296.513 338.422ZM304.664 338.422C304.569 339.486 304.361 340.269 304.038 340.772C303.724 341.276 303.231 341.527 302.556 341.527C302.328 341.527 302.167 341.513 302.072 341.484C302.053 341.475 302.025 341.461 301.987 341.442C301.958 341.432 301.939 341.427 301.93 341.427V339.989L302.015 340.017C302.11 340.036 302.196 340.046 302.271 340.046C302.537 340.046 302.732 339.889 302.855 339.576C302.988 339.253 303.088 338.773 303.155 338.137C303.174 337.957 303.188 337.724 303.197 337.439C303.207 337.154 303.216 336.832 303.226 336.471C303.245 336.1 303.259 335.806 303.269 335.588L303.311 333.964H308.738V341.413H307.029V335.246H304.821C304.745 336.965 304.693 338.023 304.664 338.422ZM314.069 341.556C312.948 341.556 312.037 341.214 311.334 340.53C310.641 339.846 310.294 338.925 310.294 337.767V337.653C310.294 336.513 310.641 335.588 311.334 334.875C312.037 334.163 312.925 333.807 313.998 333.807C315.004 333.807 315.84 334.121 316.504 334.747C317.179 335.374 317.516 336.314 317.516 337.567V338.066H312.06C312.089 338.778 312.274 339.324 312.616 339.704C312.967 340.084 313.466 340.274 314.112 340.274C315.118 340.274 315.688 339.894 315.821 339.134H317.487C317.364 339.922 317.003 340.525 316.405 340.943C315.816 341.351 315.037 341.556 314.069 341.556ZM315.806 336.912C315.712 335.678 315.109 335.061 313.998 335.061C313.485 335.061 313.057 335.227 312.716 335.559C312.383 335.882 312.174 336.333 312.089 336.912H315.806ZM319.055 333.964H320.779V335.16C320.997 334.781 321.325 334.462 321.761 334.206C322.208 333.94 322.692 333.807 323.214 333.807C324.173 333.807 324.961 334.149 325.579 334.833C326.205 335.507 326.519 336.428 326.519 337.596V337.71C326.519 338.887 326.21 339.823 325.593 340.516C324.985 341.209 324.192 341.556 323.214 341.556C322.644 341.556 322.146 341.437 321.719 341.2C321.301 340.953 320.987 340.635 320.779 340.245V343.963H319.055V333.964ZM322.787 340.188C323.423 340.188 323.907 339.979 324.24 339.562C324.581 339.144 324.752 338.536 324.752 337.738V337.624C324.752 336.827 324.567 336.219 324.197 335.801C323.836 335.374 323.361 335.16 322.773 335.16C322.146 335.16 321.647 335.369 321.277 335.787C320.907 336.205 320.722 336.817 320.722 337.624V337.738C320.722 338.546 320.902 339.158 321.263 339.576C321.633 339.984 322.141 340.188 322.787 340.188ZM329.792 335.246V341.413H328.068V333.964H333.039V335.246H329.792ZM334.411 341.413V333.964H336.135V339.234L339.354 333.964H341.063V341.413H339.354V336.143L336.135 341.413H334.411ZM345.912 335.217C344.991 335.217 344.53 335.592 344.53 336.343V336.385C344.53 336.765 344.64 337.045 344.858 337.226C345.076 337.406 345.428 337.496 345.912 337.496H346.966V335.217H345.912ZM344.174 341.413H342.28L344.317 338.351C343.301 338.038 342.793 337.378 342.793 336.371V336.328C342.793 335.569 343.049 334.985 343.562 334.576C344.075 334.168 344.782 333.964 345.684 333.964H348.675V341.413H346.966V338.678H345.94L344.174 341.413Z" fill="white"/>
<rect x="-112" y="182.169" width="599" height="183" fill="url(#paint0_linear)" fill-opacity="0.73"/>
<defs>
<linearGradient id="paint0_linear" x1="187" y1="176.169" x2="187.5" y2="365.169" gradientUnits="userSpaceOnUse">
<stop stop-color="white"/>
<stop offset="0.0001" stop-color="white" stop-opacity="0"/>
<stop offset="1" stop-color="white"/>
</linearGradient>
</defs>
</svg>
