<svg width="473" height="333" viewBox="0 0 473 333" fill="none" xmlns="http://www.w3.org/2000/svg">
<path d="M74.7095 17.9481C74.7095 8.0643 82.7219 0 92.6056 0H133.875C143.759 0 151.771 8.0643 151.771 17.9481V17.9481C151.771 27.8319 143.759 35.8962 133.875 35.8962H92.6056C82.7219 35.8962 74.7095 27.8319 74.7095 17.9481V17.9481Z" fill="#7EACBD" fill-opacity="0.82"/>
<path d="M107.586 14.0346H103.552V21.948H101.807V12.642H109.33V21.948H107.586V14.0346ZM114.307 20.8547C114.897 20.8547 115.356 20.6551 115.686 20.256C116.016 19.8482 116.181 19.2929 116.181 18.59V18.4989C116.181 17.7961 116.016 17.2451 115.686 16.846C115.356 16.4381 114.897 16.2342 114.307 16.2342C113.717 16.2342 113.252 16.4338 112.914 16.8329C112.584 17.2321 112.419 17.7831 112.419 18.4859V18.59C112.419 19.2929 112.584 19.8482 112.914 20.256C113.244 20.6551 113.708 20.8547 114.307 20.8547ZM116.805 21.115C116.146 21.7571 115.309 22.0782 114.294 22.0782C113.278 22.0782 112.441 21.7614 111.782 21.128C111.131 20.4859 110.805 19.6486 110.805 18.6161V18.5119C110.805 17.4707 111.135 16.6247 111.795 15.9739C112.454 15.3232 113.291 14.9978 114.307 14.9978C115.313 14.9978 116.146 15.3188 116.805 15.9609C117.465 16.603 117.795 17.4403 117.795 18.4729V18.577C117.795 19.6269 117.465 20.4729 116.805 21.115ZM121.002 19.2148C120.915 20.1866 120.725 20.9024 120.43 21.3623C120.143 21.8222 119.692 22.0521 119.076 22.0521C118.868 22.0521 118.72 22.0391 118.633 22.0131C118.616 22.0044 118.59 21.9914 118.555 21.974C118.529 21.9654 118.512 21.961 118.503 21.961V20.6465L118.581 20.6725C118.668 20.6898 118.746 20.6985 118.816 20.6985C119.059 20.6985 119.236 20.5554 119.349 20.269C119.471 19.974 119.562 19.5358 119.623 18.9545C119.64 18.7896 119.653 18.577 119.662 18.3167C119.67 18.0564 119.679 17.7614 119.688 17.4317C119.705 17.0933 119.718 16.8243 119.727 16.6247L119.766 15.1409H124.725V21.948H123.163V16.3123H121.145C121.076 17.8829 121.028 18.8503 121.002 19.2148Z" fill="white"/>
<path d="M166.414 17.9481C166.414 8.0643 174.426 0 184.31 0H266.579C276.463 0 284.475 8.0643 284.475 17.9481V17.9481C284.475 27.8319 276.463 35.8962 266.579 35.8962H184.31C174.426 35.8962 166.414 27.8319 166.414 17.9481V17.9481Z" fill="#7EACBD" fill-opacity="0.82"/>
<path d="M193.512 12.642H195.243V16.859L198.809 12.629H200.67L196.818 17.0802L200.865 21.948H198.822L195.243 17.6009V21.948H193.512V12.642ZM203.68 22.0782C203.012 22.0782 202.466 21.9133 202.041 21.5836C201.615 21.2452 201.403 20.7376 201.403 20.0608C201.403 19.3146 201.719 18.7679 202.353 18.4208C202.995 18.0738 203.841 17.9002 204.891 17.9002H205.737V17.5488C205.737 17.0716 205.646 16.7245 205.464 16.5076C205.281 16.2906 204.96 16.1822 204.5 16.1822C203.728 16.1822 203.294 16.5379 203.199 17.2494H201.676C201.746 16.4945 202.045 15.9305 202.574 15.5574C203.103 15.1843 203.776 14.9978 204.592 14.9978C206.405 14.9978 207.312 15.8264 207.312 17.4837V21.948H205.763V21.115C205.26 21.7571 204.566 22.0782 203.68 22.0782ZM204.058 20.9458C204.561 20.9458 204.965 20.8243 205.268 20.5814C205.581 20.3384 205.737 20 205.737 19.5662V18.8894H204.93C203.62 18.8894 202.965 19.2582 202.965 19.9957C202.965 20.6291 203.329 20.9458 204.058 20.9458ZM214.142 16.3123H212.06V21.948H210.485V16.3123H208.403V15.1409H214.142V16.3123ZM218.173 22.0782C217.149 22.0782 216.316 21.7658 215.674 21.141C215.041 20.5163 214.724 19.6746 214.724 18.6161V18.5119C214.724 17.4707 215.041 16.6247 215.674 15.9739C216.316 15.3232 217.128 14.9978 218.108 14.9978C219.028 14.9978 219.791 15.2841 220.399 15.8568C221.015 16.4295 221.323 17.2885 221.323 18.4338V18.8894H216.338C216.364 19.5402 216.533 20.0391 216.846 20.3862C217.167 20.7332 217.622 20.9068 218.212 20.9068C219.132 20.9068 219.653 20.5597 219.774 19.8655H221.297C221.184 20.5857 220.854 21.1367 220.308 21.5185C219.77 21.8916 219.058 22.0782 218.173 22.0782ZM219.761 17.8351C219.674 16.7071 219.123 16.1431 218.108 16.1431C217.64 16.1431 217.249 16.295 216.937 16.5987C216.633 16.8937 216.442 17.3058 216.364 17.8351H219.761ZM224.304 16.3123V21.948H222.73V15.1409H227.272V16.3123H224.304ZM231.38 20.8547C231.971 20.8547 232.43 20.6551 232.76 20.256C233.09 19.8482 233.255 19.2929 233.255 18.59V18.4989C233.255 17.7961 233.09 17.2451 232.76 16.846C232.43 16.4381 231.971 16.2342 231.38 16.2342C230.79 16.2342 230.326 16.4338 229.988 16.8329C229.658 17.2321 229.493 17.7831 229.493 18.4859V18.59C229.493 19.2929 229.658 19.8482 229.988 20.256C230.318 20.6551 230.782 20.8547 231.38 20.8547ZM233.879 21.115C233.22 21.7571 232.383 22.0782 231.367 22.0782C230.352 22.0782 229.515 21.7614 228.855 21.128C228.205 20.4859 227.879 19.6486 227.879 18.6161V18.5119C227.879 17.4707 228.209 16.6247 228.869 15.9739C229.528 15.3232 230.365 14.9978 231.38 14.9978C232.387 14.9978 233.22 15.3188 233.879 15.9609C234.539 16.603 234.869 17.4403 234.869 18.4729V18.577C234.869 19.6269 234.539 20.4729 233.879 21.115ZM236.292 15.1409H237.866V16.2342C238.066 15.8872 238.365 15.5965 238.764 15.3622C239.172 15.1193 239.615 14.9978 240.092 14.9978C240.968 14.9978 241.689 15.3101 242.253 15.9349C242.825 16.5509 243.112 17.3926 243.112 18.4599V18.564C243.112 19.6399 242.83 20.4946 242.266 21.128C241.71 21.7614 240.986 22.0782 240.092 22.0782C239.571 22.0782 239.116 21.9697 238.725 21.7528C238.344 21.5272 238.057 21.2365 237.866 20.8807V24.2778H236.292V15.1409ZM239.702 20.8287C240.283 20.8287 240.725 20.6378 241.029 20.256C241.342 19.8742 241.498 19.3189 241.498 18.59V18.4859C241.498 17.757 241.329 17.2017 240.99 16.8199C240.66 16.4295 240.227 16.2342 239.689 16.2342C239.116 16.2342 238.66 16.4251 238.322 16.8069C237.984 17.1887 237.814 17.7484 237.814 18.4859V18.59C237.814 19.3276 237.979 19.8872 238.309 20.269C238.647 20.6421 239.112 20.8287 239.702 20.8287ZM244.528 21.948V15.1409H246.103V19.9566L249.044 15.1409H250.606V21.948H249.044V17.1323L246.103 21.948H244.528ZM255.037 16.2863C254.195 16.2863 253.775 16.629 253.775 17.3145V17.3536C253.775 17.7006 253.874 17.9566 254.074 18.1215C254.274 18.2863 254.595 18.3688 255.037 18.3688H256V16.2863H255.037ZM253.449 21.948H251.718L253.579 19.1497C252.651 18.8634 252.187 18.2603 252.187 17.3406V17.3015C252.187 16.6073 252.421 16.0737 252.89 15.7006C253.358 15.3275 254.005 15.1409 254.829 15.1409H257.562V21.948H256V19.449H255.063L253.449 21.948Z" fill="white"/>
<path d="M299.117 17.9481C299.117 8.0643 307.13 0 317.013 0H380.283C390.166 0 398.179 8.0643 398.179 17.9481V17.9481C398.179 27.8319 390.166 35.8962 380.283 35.8962H317.013C307.13 35.8962 299.117 27.8319 299.117 17.9481V17.9481Z" fill="#7EACBD" fill-opacity="0.82"/>
<path d="M330.289 22.0782C328.849 22.0782 327.729 21.653 326.931 20.8026C326.141 19.9523 325.747 18.8026 325.747 17.3536V17.2494C325.747 15.8611 326.172 14.7245 327.022 13.8394C327.873 12.9457 328.953 12.4988 330.263 12.4988C331.374 12.4988 332.289 12.7765 333.009 13.3318C333.738 13.8871 334.155 14.6941 334.259 15.7527H332.502C332.406 15.1193 332.176 14.6507 331.812 14.347C331.456 14.0346 330.944 13.8785 330.276 13.8785C329.46 13.8785 328.805 14.1821 328.311 14.7895C327.816 15.3882 327.569 16.2039 327.569 17.2364V17.3406C327.569 18.3905 327.807 19.2104 328.285 19.8005C328.762 20.3818 329.43 20.6725 330.289 20.6725C330.948 20.6725 331.486 20.5076 331.903 20.1779C332.319 19.8395 332.575 19.3493 332.671 18.7072H334.363C334.233 19.8091 333.803 20.6465 333.074 21.2191C332.354 21.7918 331.426 22.0782 330.289 22.0782ZM337.307 18.6161V21.948H335.732V15.1409H337.307V18.1605L339.741 15.1409H341.459L338.817 18.2907L341.68 21.948H339.858L337.307 18.6161ZM342.761 21.948V15.1409H344.336V19.9566L347.277 15.1409H348.839V21.948H347.277V17.1323L344.336 21.948H342.761ZM352.476 19.0586C352.381 19.8569 352.246 20.4295 352.073 20.7766H354.715V16.2993H352.646C352.576 17.7137 352.52 18.6334 352.476 19.0586ZM351.227 23.601H349.886V20.7766H350.316C350.541 20.6985 350.706 20.5163 350.81 20.23C350.914 19.935 351.001 19.5098 351.071 18.9545C351.209 17.8351 351.279 16.564 351.279 15.1409H356.277V20.7766H357.266V23.601H355.925L355.873 21.948H351.279L351.227 23.601ZM359.982 18.6161V21.948H358.407V15.1409H359.982V18.1605L362.416 15.1409H364.134L361.492 18.2907L364.355 21.948H362.533L359.982 18.6161ZM367.092 22.0782C366.424 22.0782 365.878 21.9133 365.452 21.5836C365.027 21.2452 364.815 20.7376 364.815 20.0608C364.815 19.3146 365.131 18.7679 365.765 18.4208C366.407 18.0738 367.253 17.9002 368.303 17.9002H369.149V17.5488C369.149 17.0716 369.058 16.7245 368.875 16.5076C368.693 16.2906 368.372 16.1822 367.912 16.1822C367.14 16.1822 366.706 16.5379 366.611 17.2494H365.088C365.157 16.4945 365.457 15.9305 365.986 15.5574C366.515 15.1843 367.188 14.9978 368.003 14.9978C369.817 14.9978 370.724 15.8264 370.724 17.4837V21.948H369.175V21.115C368.671 21.7571 367.977 22.0782 367.092 22.0782ZM367.47 20.9458C367.973 20.9458 368.376 20.8243 368.68 20.5814C368.993 20.3384 369.149 20 369.149 19.5662V18.8894H368.342C367.032 18.8894 366.376 19.2582 366.376 19.9957C366.376 20.6291 366.741 20.9458 367.47 20.9458Z" fill="white"/>
<path d="M87.0615 66.0462C87.0615 56.1624 95.0739 48.0981 104.958 48.0981H224.227C234.111 48.0981 242.123 56.1624 242.123 66.0462V66.0462C242.123 75.93 234.111 83.9943 224.227 83.9943H104.958C95.0739 83.9943 87.0615 75.93 87.0615 66.0462V66.0462Z" fill="#7EACBD" fill-opacity="0.82"/>
<path d="M114.16 60.7401H115.891V64.9571L119.457 60.7271H121.318L117.465 65.1784L121.513 70.0461H119.47L115.891 65.699V70.0461H114.16V60.7401ZM124.521 67.3129C124.434 68.2847 124.243 69.0006 123.948 69.4605C123.662 69.9203 123.21 70.1503 122.594 70.1503C122.386 70.1503 122.239 70.1373 122.152 70.1112C122.134 70.1025 122.108 70.0895 122.074 70.0722C122.048 70.0635 122.03 70.0592 122.022 70.0592V68.7446L122.1 68.7706C122.187 68.788 122.265 68.7967 122.334 68.7967C122.577 68.7967 122.755 68.6535 122.868 68.3672C122.989 68.0721 123.08 67.634 123.141 67.0526C123.158 66.8877 123.171 66.6752 123.18 66.4148C123.189 66.1545 123.197 65.8595 123.206 65.5298C123.223 65.1914 123.236 64.9224 123.245 64.7228L123.284 63.2391H128.243V70.0461H126.681V64.4105H124.664C124.594 65.981 124.547 66.9485 124.521 67.3129ZM131.904 70.1763C131.236 70.1763 130.689 70.0114 130.264 69.6817C129.839 69.3433 129.626 68.8357 129.626 68.1589C129.626 67.4127 129.943 66.866 130.576 66.519C131.218 66.1719 132.064 65.9984 133.114 65.9984H133.96V65.6469C133.96 65.1697 133.869 64.8226 133.687 64.6057C133.505 64.3888 133.184 64.2803 132.724 64.2803C131.952 64.2803 131.518 64.6361 131.422 65.3476H129.899C129.969 64.5927 130.268 64.0287 130.797 63.6556C131.327 63.2825 131.999 63.0959 132.815 63.0959C134.628 63.0959 135.535 63.9246 135.535 65.5819V70.0461H133.986V69.2132C133.483 69.8553 132.789 70.1763 131.904 70.1763ZM132.281 69.044C132.785 69.044 133.188 68.9225 133.492 68.6795C133.804 68.4366 133.96 68.0982 133.96 67.6643V66.9875H133.153C131.843 66.9875 131.188 67.3563 131.188 68.0938C131.188 68.7272 131.552 69.044 132.281 69.044ZM140.321 70.1763C139.323 70.1763 138.499 69.8683 137.848 69.2522C137.206 68.6275 136.885 67.7858 136.885 66.7272V66.6231C136.885 65.5732 137.21 64.7228 137.861 64.0721C138.52 63.4213 139.34 63.0959 140.321 63.0959C141.154 63.0959 141.861 63.3042 142.442 63.7207C143.024 64.1285 143.353 64.7706 143.431 65.6469H141.909C141.778 64.7879 141.258 64.3584 140.347 64.3584C139.8 64.3584 139.353 64.558 139.006 64.9571C138.668 65.3563 138.499 65.9029 138.499 66.5971V66.7012C138.499 67.4387 138.663 68.0027 138.993 68.3932C139.332 68.775 139.796 68.9659 140.386 68.9659C140.82 68.9659 141.188 68.84 141.492 68.5884C141.796 68.3368 141.974 67.9767 142.026 67.5081H143.47C143.418 68.2977 143.106 68.9398 142.533 69.4344C141.961 69.929 141.223 70.1763 140.321 70.1763ZM147.807 70.1763C146.809 70.1763 145.985 69.8683 145.334 69.2522C144.692 68.6275 144.371 67.7858 144.371 66.7272V66.6231C144.371 65.5732 144.696 64.7228 145.347 64.0721C146.007 63.4213 146.827 63.0959 147.807 63.0959C148.64 63.0959 149.347 63.3042 149.929 63.7207C150.51 64.1285 150.84 64.7706 150.918 65.6469H149.395C149.265 64.7879 148.744 64.3584 147.833 64.3584C147.286 64.3584 146.84 64.558 146.493 64.9571C146.154 65.3563 145.985 65.9029 145.985 66.5971V66.7012C145.985 67.4387 146.15 68.0027 146.48 68.3932C146.818 68.775 147.282 68.9659 147.872 68.9659C148.306 68.9659 148.675 68.84 148.978 68.5884C149.282 68.3368 149.46 67.9767 149.512 67.5081H150.957C150.905 68.2977 150.592 68.9398 150.02 69.4344C149.447 69.929 148.709 70.1763 147.807 70.1763ZM155.465 63.2391H158.211C159.869 63.2391 160.697 63.8074 160.697 64.9441V64.9701C160.697 65.7771 160.294 66.276 159.487 66.4669C160.493 66.6752 160.997 67.1871 160.997 68.0027V68.0418C160.997 68.6925 160.775 69.1915 160.333 69.5385C159.899 69.8769 159.274 70.0461 158.459 70.0461H155.465V63.2391ZM157.04 64.2933V66.0244H157.99C158.372 66.0244 158.65 65.955 158.823 65.8161C158.997 65.6686 159.083 65.4387 159.083 65.1263V65.1003C159.083 64.7966 158.988 64.5884 158.797 64.4756C158.615 64.3541 158.328 64.2933 157.938 64.2933H157.04ZM157.04 67.0786V68.9919H158.159C158.975 68.9919 159.383 68.6795 159.383 68.0548V68.0288C159.383 67.3953 158.992 67.0786 158.211 67.0786H157.04ZM164.29 70.1763C163.622 70.1763 163.075 70.0114 162.65 69.6817C162.225 69.3433 162.012 68.8357 162.012 68.1589C162.012 67.4127 162.329 66.866 162.962 66.519C163.604 66.1719 164.45 65.9984 165.5 65.9984H166.346V65.6469C166.346 65.1697 166.255 64.8226 166.073 64.6057C165.891 64.3888 165.57 64.2803 165.11 64.2803C164.337 64.2803 163.904 64.6361 163.808 65.3476H162.285C162.355 64.5927 162.654 64.0287 163.183 63.6556C163.713 63.2825 164.385 63.0959 165.201 63.0959C167.014 63.0959 167.921 63.9246 167.921 65.5819V70.0461H166.372V69.2132C165.869 69.8553 165.175 70.1763 164.29 70.1763ZM164.667 69.044C165.17 69.044 165.574 68.9225 165.878 68.6795C166.19 68.4366 166.346 68.0982 166.346 67.6643V66.9875H165.539C164.229 66.9875 163.574 67.3563 163.574 68.0938C163.574 68.7272 163.938 69.044 164.667 69.044ZM172.876 66.6752L170.663 70.0461H168.958L171.444 66.4018L169.153 63.2391H170.793L172.876 66.3237V63.2391H174.412V66.3237L176.494 63.2391H178.134L175.843 66.3758L178.342 70.0461H176.611L174.412 66.6752V70.0461H172.876V66.6752ZM183.849 67.1567H181.024V70.0461H179.45V63.2391H181.024V65.9853H183.849V63.2391H185.424V70.0461H183.849V67.1567ZM190.337 68.9528C190.927 68.9528 191.387 68.7533 191.717 68.3541C192.047 67.9463 192.212 67.391 192.212 66.6882V66.5971C192.212 65.8942 192.047 65.3432 191.717 64.9441C191.387 64.5363 190.927 64.3324 190.337 64.3324C189.747 64.3324 189.283 64.532 188.945 64.9311C188.615 65.3302 188.45 65.8812 188.45 66.584V66.6882C188.45 67.391 188.615 67.9463 188.945 68.3541C189.274 68.7533 189.739 68.9528 190.337 68.9528ZM192.836 69.2132C192.177 69.8553 191.34 70.1763 190.324 70.1763C189.309 70.1763 188.472 69.8596 187.812 69.2262C187.162 68.5841 186.836 67.7468 186.836 66.7142V66.6101C186.836 65.5688 187.166 64.7228 187.825 64.0721C188.485 63.4213 189.322 63.0959 190.337 63.0959C191.344 63.0959 192.177 63.417 192.836 64.0591C193.496 64.7012 193.826 65.5385 193.826 66.571V66.6752C193.826 67.7251 193.496 68.5711 192.836 69.2132ZM198.229 70.1763C197.231 70.1763 196.407 69.8683 195.756 69.2522C195.114 68.6275 194.793 67.7858 194.793 66.7272V66.6231C194.793 65.5732 195.118 64.7228 195.769 64.0721C196.429 63.4213 197.249 63.0959 198.229 63.0959C199.062 63.0959 199.769 63.3042 200.351 63.7207C200.932 64.1285 201.262 64.7706 201.34 65.6469H199.817C199.687 64.7879 199.166 64.3584 198.255 64.3584C197.708 64.3584 197.262 64.558 196.914 64.9571C196.576 65.3563 196.407 65.9029 196.407 66.5971V66.7012C196.407 67.4387 196.572 68.0027 196.901 68.3932C197.24 68.775 197.704 68.9659 198.294 68.9659C198.728 68.9659 199.097 68.84 199.4 68.5884C199.704 68.3368 199.882 67.9767 199.934 67.5081H201.379C201.327 68.2977 201.014 68.9398 200.442 69.4344C199.869 69.929 199.131 70.1763 198.229 70.1763ZM207.824 64.4105H205.741V70.0461H204.167V64.4105H202.084V63.2391H207.824V64.4105ZM209.052 70.0461V63.2391H210.627V68.0548L213.568 63.2391H215.13V70.0461H213.568V65.2304L210.627 70.0461H209.052Z" fill="white"/>
<path d="M256.766 66.0462C256.766 56.1624 264.778 48.0981 274.662 48.0981H367.931C377.815 48.0981 385.827 56.1624 385.827 66.0462V66.0462C385.827 75.93 377.815 83.9943 367.931 83.9943H274.662C264.778 83.9943 256.766 75.93 256.766 66.0462V66.0462Z" fill="#7EACBD" fill-opacity="0.82"/>
<path d="M283.864 60.7401H285.595V64.6968H289.773V60.7401H291.517V70.0461H289.773V66.0895H285.595V70.0461H283.864V60.7401ZM295.227 70.1763C294.559 70.1763 294.013 70.0114 293.587 69.6817C293.162 69.3433 292.95 68.8357 292.95 68.1589C292.95 67.4127 293.266 66.866 293.9 66.519C294.542 66.1719 295.388 65.9984 296.438 65.9984H297.284V65.6469C297.284 65.1697 297.193 64.8226 297.01 64.6057C296.828 64.3888 296.507 64.2803 296.047 64.2803C295.275 64.2803 294.841 64.6361 294.746 65.3476H293.223C293.292 64.5927 293.592 64.0287 294.121 63.6556C294.65 63.2825 295.323 63.0959 296.138 63.0959C297.952 63.0959 298.859 63.9246 298.859 65.5819V70.0461H297.31V69.2132C296.807 69.8553 296.112 70.1763 295.227 70.1763ZM295.605 69.044C296.108 69.044 296.511 68.9225 296.815 68.6795C297.128 68.4366 297.284 68.0982 297.284 67.6643V66.9875H296.477C295.167 66.9875 294.511 67.3563 294.511 68.0938C294.511 68.7272 294.876 69.044 295.605 69.044ZM305.623 64.9701C305.623 65.3519 305.518 65.6773 305.31 65.9463C305.102 66.2153 304.794 66.3888 304.386 66.4669C305.393 66.6318 305.896 67.1394 305.896 67.9897V68.0288C305.896 68.6535 305.64 69.1698 305.128 69.5776C304.625 69.9767 303.948 70.1763 303.098 70.1763C302.195 70.1763 301.497 69.9724 301.002 69.5646C300.507 69.1568 300.225 68.5711 300.156 67.8075H301.601C301.748 68.5884 302.243 68.9789 303.085 68.9789C303.874 68.9789 304.269 68.6578 304.269 68.0157V67.9767C304.269 67.378 303.883 67.0786 303.111 67.0786H302.173V66.0244H302.98C303.657 66.0244 303.996 65.7424 303.996 65.1784V65.1393C303.996 64.6014 303.662 64.3324 302.993 64.3324C302.334 64.3324 301.926 64.6491 301.77 65.2825H300.338C300.416 64.545 300.707 63.9983 301.21 63.6426C301.714 63.2781 302.33 63.0959 303.059 63.0959C303.805 63.0959 304.416 63.2608 304.894 63.5905C305.38 63.9202 305.623 64.3671 305.623 64.9311V64.9701ZM311.736 67.1567H308.911V70.0461H307.337V63.2391H308.911V65.9853H311.736V63.2391H313.311V70.0461H311.736V67.1567ZM316.962 70.1763C316.294 70.1763 315.747 70.0114 315.322 69.6817C314.897 69.3433 314.684 68.8357 314.684 68.1589C314.684 67.4127 315.001 66.866 315.634 66.519C316.277 66.1719 317.123 65.9984 318.172 65.9984H319.018V65.6469C319.018 65.1697 318.927 64.8226 318.745 64.6057C318.563 64.3888 318.242 64.2803 317.782 64.2803C317.01 64.2803 316.576 64.6361 316.48 65.3476H314.958C315.027 64.5927 315.326 64.0287 315.856 63.6556C316.385 63.2825 317.057 63.0959 317.873 63.0959C319.687 63.0959 320.593 63.9246 320.593 65.5819V70.0461H319.044V69.2132C318.541 69.8553 317.847 70.1763 316.962 70.1763ZM317.339 69.044C317.843 69.044 318.246 68.9225 318.55 68.6795C318.862 68.4366 319.018 68.0982 319.018 67.6643V66.9875H318.211C316.901 66.9875 316.246 67.3563 316.246 68.0938C316.246 68.7272 316.611 69.044 317.339 69.044ZM326.19 70.0461V67.0266C325.731 67.5385 325.071 67.7945 324.212 67.7945C323.544 67.7945 323.006 67.5819 322.598 67.1567C322.19 66.7229 321.986 66.0721 321.986 65.2044V63.2391H323.548V65.0352C323.548 65.5558 323.648 65.9376 323.848 66.1806C324.047 66.4148 324.36 66.532 324.785 66.532C325.418 66.532 325.887 66.3151 326.19 65.8812V63.2391H327.765V70.0461H326.19ZM332.637 70.1763C331.613 70.1763 330.78 69.8639 330.138 69.2392C329.504 68.6144 329.188 67.7728 329.188 66.7142V66.6101C329.188 65.5688 329.504 64.7228 330.138 64.0721C330.78 63.4213 331.591 63.0959 332.572 63.0959C333.491 63.0959 334.255 63.3823 334.862 63.9549C335.478 64.5276 335.787 65.3866 335.787 66.532V66.9875H330.802C330.828 67.6383 330.997 68.1372 331.309 68.4843C331.63 68.8314 332.086 69.0049 332.676 69.0049C333.596 69.0049 334.116 68.6578 334.238 67.9637H335.76C335.648 68.6839 335.318 69.2348 334.771 69.6166C334.233 69.9897 333.522 70.1763 332.637 70.1763ZM334.225 65.9333C334.138 64.8053 333.587 64.2413 332.572 64.2413C332.103 64.2413 331.713 64.3931 331.4 64.6968C331.097 64.9918 330.906 65.404 330.828 65.9333H334.225ZM341.592 67.1567H338.768V70.0461H337.193V63.2391H338.768V65.9853H341.592V63.2391H343.167V70.0461H341.592V67.1567ZM345.035 70.0461V63.2391H346.61V68.0548L349.552 63.2391H351.114V70.0461H349.552V65.2304L346.61 70.0461H345.035ZM355.545 64.3844C354.703 64.3844 354.282 64.7272 354.282 65.4127V65.4517C354.282 65.7988 354.382 66.0548 354.582 66.2196C354.781 66.3845 355.102 66.4669 355.545 66.4669H356.508V64.3844H355.545ZM353.957 70.0461H352.226L354.087 67.2478C353.159 66.9615 352.694 66.3584 352.694 65.4387V65.3996C352.694 64.7055 352.929 64.1719 353.397 63.7988C353.866 63.4256 354.512 63.2391 355.336 63.2391H358.07V70.0461H356.508V67.5472H355.571L353.957 70.0461Z" fill="white"/>
<path d="M45.5723 114.144C45.5723 104.261 53.5846 96.1963 63.4684 96.1963H176.738C186.621 96.1963 194.634 104.261 194.634 114.144V114.144C194.634 124.028 186.621 132.092 176.738 132.092H63.4684C53.5847 132.092 45.5723 124.028 45.5723 114.144V114.144Z" fill="#7EACBD" fill-opacity="0.82"/>
<path d="M74.7788 114.422C74.6747 115.507 74.4794 116.283 74.1931 116.752H78.0456V110.218H74.987C74.9263 111.971 74.8569 113.372 74.7788 114.422ZM73.1258 119.836H71.6421V116.752H72.2278C72.5228 116.63 72.744 116.379 72.8916 115.997C73.0391 115.606 73.1519 115.042 73.23 114.305C73.3688 112.526 73.4382 110.704 73.4382 108.838H79.7637V116.752H80.87V119.836H79.3732L79.3081 118.144H73.1909L73.1258 119.836ZM83.9323 118.274C83.2641 118.274 82.7175 118.11 82.2923 117.78C81.8672 117.441 81.6546 116.934 81.6546 116.257C81.6546 115.511 81.9713 114.964 82.6047 114.617C83.2468 114.27 84.0928 114.097 85.1427 114.097H85.9887V113.745C85.9887 113.268 85.8976 112.921 85.7154 112.704C85.5332 112.487 85.2121 112.378 84.7522 112.378C83.98 112.378 83.5461 112.734 83.4507 113.446H81.9279C81.9973 112.691 82.2967 112.127 82.826 111.754C83.3552 111.381 84.0277 111.194 84.8433 111.194C86.6568 111.194 87.5636 112.023 87.5636 113.68V118.144H86.0147V117.311C85.5115 117.953 84.8173 118.274 83.9323 118.274ZM84.3097 117.142C84.813 117.142 85.2164 117.021 85.5201 116.778C85.8325 116.535 85.9887 116.196 85.9887 115.762V115.086H85.1817C83.8715 115.086 83.2164 115.454 83.2164 116.192C83.2164 116.825 83.5808 117.142 84.3097 117.142ZM94.3941 112.509H92.3116V118.144H90.7368V112.509H88.6543V111.337H94.3941V112.509ZM97.3417 118.274C96.6735 118.274 96.1269 118.11 95.7017 117.78C95.2766 117.441 95.064 116.934 95.064 116.257C95.064 115.511 95.3807 114.964 96.0141 114.617C96.6562 114.27 97.5022 114.097 98.5521 114.097H99.3981V113.745C99.3981 113.268 99.307 112.921 99.1248 112.704C98.9426 112.487 98.6215 112.378 98.1616 112.378C97.3894 112.378 96.9555 112.734 96.8601 113.446H95.3373C95.4067 112.691 95.7061 112.127 96.2354 111.754C96.7647 111.381 97.4371 111.194 98.2527 111.194C100.066 111.194 100.973 112.023 100.973 113.68V118.144H99.4241V117.311C98.9209 117.953 98.2267 118.274 97.3417 118.274ZM97.7191 117.142C98.2224 117.142 98.6259 117.021 98.9296 116.778C99.2419 116.535 99.3981 116.196 99.3981 115.762V115.086H98.5912C97.2809 115.086 96.6258 115.454 96.6258 116.192C96.6258 116.825 96.9903 117.142 97.7191 117.142ZM105.93 111.337H107.505V112.431C107.705 112.083 108.004 111.793 108.403 111.558C108.811 111.316 109.253 111.194 109.731 111.194C110.607 111.194 111.327 111.506 111.891 112.131C112.464 112.747 112.75 113.589 112.75 114.656V114.76C112.75 115.836 112.468 116.691 111.904 117.324C111.349 117.958 110.624 118.274 109.731 118.274C109.21 118.274 108.755 118.166 108.364 117.949C107.982 117.723 107.696 117.433 107.505 117.077V120.474H105.93V111.337ZM109.34 117.025C109.922 117.025 110.364 116.834 110.668 116.452C110.98 116.071 111.136 115.515 111.136 114.786V114.682C111.136 113.953 110.967 113.398 110.629 113.016C110.299 112.626 109.865 112.431 109.327 112.431C108.755 112.431 108.299 112.621 107.961 113.003C107.622 113.385 107.453 113.945 107.453 114.682V114.786C107.453 115.524 107.618 116.084 107.948 116.465C108.286 116.838 108.75 117.025 109.34 117.025ZM117.212 117.051C117.802 117.051 118.262 116.851 118.592 116.452C118.921 116.044 119.086 115.489 119.086 114.786V114.695C119.086 113.992 118.921 113.441 118.592 113.042C118.262 112.634 117.802 112.431 117.212 112.431C116.622 112.431 116.158 112.63 115.819 113.029C115.49 113.428 115.325 113.979 115.325 114.682V114.786C115.325 115.489 115.49 116.044 115.819 116.452C116.149 116.851 116.613 117.051 117.212 117.051ZM119.711 117.311C119.052 117.953 118.214 118.274 117.199 118.274C116.184 118.274 115.347 117.958 114.687 117.324C114.036 116.682 113.711 115.845 113.711 114.812V114.708C113.711 113.667 114.041 112.821 114.7 112.17C115.36 111.519 116.197 111.194 117.212 111.194C118.219 111.194 119.052 111.515 119.711 112.157C120.371 112.799 120.7 113.637 120.7 114.669V114.773C120.7 115.823 120.371 116.669 119.711 117.311ZM124.942 114.773L122.73 118.144H121.025L123.511 114.5L121.22 111.337H122.86L124.942 114.422V111.337H126.478V114.422L128.561 111.337H130.201L127.91 114.474L130.409 118.144H128.678L126.478 114.773V118.144H124.942V114.773ZM133.402 115.255C133.306 116.053 133.172 116.626 132.998 116.973H135.64V112.496H133.571C133.502 113.91 133.445 114.83 133.402 115.255ZM132.152 119.797H130.812V116.973H131.241C131.467 116.895 131.632 116.713 131.736 116.426C131.84 116.131 131.927 115.706 131.996 115.151C132.135 114.031 132.204 112.76 132.204 111.337H137.202V116.973H138.191V119.797H136.851L136.799 118.144H132.204L132.152 119.797ZM142.263 118.274C141.239 118.274 140.406 117.962 139.764 117.337C139.131 116.713 138.814 115.871 138.814 114.812V114.708C138.814 113.667 139.131 112.821 139.764 112.17C140.406 111.519 141.217 111.194 142.198 111.194C143.118 111.194 143.881 111.48 144.489 112.053C145.105 112.626 145.413 113.485 145.413 114.63V115.086H140.428C140.454 115.736 140.623 116.235 140.935 116.582C141.256 116.93 141.712 117.103 142.302 117.103C143.222 117.103 143.742 116.756 143.864 116.062H145.387C145.274 116.782 144.944 117.333 144.397 117.715C143.86 118.088 143.148 118.274 142.263 118.274ZM143.851 114.031C143.764 112.903 143.213 112.339 142.198 112.339C141.729 112.339 141.339 112.491 141.027 112.795C140.723 113.09 140.532 113.502 140.454 114.031H143.851ZM151.219 115.255H148.394V118.144H146.819V111.337H148.394V114.083H151.219V111.337H152.793V118.144H151.219V115.255ZM154.662 118.144V111.337H156.237V116.153L159.178 111.337H160.74V118.144H159.178V113.329L156.237 118.144H154.662ZM165.171 112.483C164.329 112.483 163.908 112.825 163.908 113.511V113.55C163.908 113.897 164.008 114.153 164.208 114.318C164.407 114.483 164.728 114.565 165.171 114.565H166.134V112.483H165.171ZM163.583 118.144H161.852L163.713 115.346C162.785 115.06 162.32 114.457 162.32 113.537V113.498C162.32 112.804 162.555 112.27 163.023 111.897C163.492 111.524 164.138 111.337 164.963 111.337H167.696V118.144H166.134V115.645H165.197L163.583 118.144Z" fill="white"/>
<path d="M196.914 114.144C196.914 104.261 204.926 96.1963 214.81 96.1963H302.079C311.963 96.1963 319.975 104.261 319.975 114.144V114.144C319.975 124.028 311.963 132.092 302.079 132.092H214.81C204.926 132.092 196.914 124.028 196.914 114.144V114.144Z" fill="#7EACBD" fill-opacity="0.82"/>
<path d="M226.12 114.422C226.016 115.507 225.821 116.283 225.534 116.752H229.387V110.218H226.328C226.268 111.971 226.198 113.372 226.12 114.422ZM224.467 119.836H222.983V116.752H223.569C223.864 116.63 224.085 116.379 224.233 115.997C224.38 115.606 224.493 115.042 224.571 114.305C224.71 112.526 224.78 110.704 224.78 108.838H231.105V116.752H232.211V119.836H230.715L230.649 118.144H224.532L224.467 119.836ZM236.409 117.051C236.999 117.051 237.459 116.851 237.789 116.452C238.118 116.044 238.283 115.489 238.283 114.786V114.695C238.283 113.992 238.118 113.441 237.789 113.042C237.459 112.634 236.999 112.431 236.409 112.431C235.819 112.431 235.355 112.63 235.016 113.029C234.687 113.428 234.522 113.979 234.522 114.682V114.786C234.522 115.489 234.687 116.044 235.016 116.452C235.346 116.851 235.81 117.051 236.409 117.051ZM238.908 117.311C238.248 117.953 237.411 118.274 236.396 118.274C235.381 118.274 234.543 117.958 233.884 117.324C233.233 116.682 232.908 115.845 232.908 114.812V114.708C232.908 113.667 233.238 112.821 233.897 112.17C234.556 111.519 235.394 111.194 236.409 111.194C237.415 111.194 238.248 111.515 238.908 112.157C239.567 112.799 239.897 113.637 239.897 114.669V114.773C239.897 115.823 239.567 116.669 238.908 117.311ZM245.719 115.255H242.895V118.144H241.32V111.337H242.895V114.083H245.719V111.337H247.294V118.144H245.719V115.255ZM252.208 117.051C252.798 117.051 253.258 116.851 253.588 116.452C253.917 116.044 254.082 115.489 254.082 114.786V114.695C254.082 113.992 253.917 113.441 253.588 113.042C253.258 112.634 252.798 112.431 252.208 112.431C251.618 112.431 251.154 112.63 250.815 113.029C250.486 113.428 250.321 113.979 250.321 114.682V114.786C250.321 115.489 250.486 116.044 250.815 116.452C251.145 116.851 251.609 117.051 252.208 117.051ZM254.707 117.311C254.047 117.953 253.21 118.274 252.195 118.274C251.18 118.274 250.342 117.958 249.683 117.324C249.032 116.682 248.707 115.845 248.707 114.812V114.708C248.707 113.667 249.036 112.821 249.696 112.17C250.355 111.519 251.193 111.194 252.208 111.194C253.214 111.194 254.047 111.515 254.707 112.157C255.366 112.799 255.696 113.637 255.696 114.669V114.773C255.696 115.823 255.366 116.669 254.707 117.311ZM257.119 111.337H258.694V112.431C258.893 112.083 259.193 111.793 259.592 111.558C260 111.316 260.442 111.194 260.919 111.194C261.796 111.194 262.516 111.506 263.08 112.131C263.653 112.747 263.939 113.589 263.939 114.656V114.76C263.939 115.836 263.657 116.691 263.093 117.324C262.538 117.958 261.813 118.274 260.919 118.274C260.399 118.274 259.943 118.166 259.553 117.949C259.171 117.723 258.885 117.433 258.694 117.077V120.474H257.119V111.337ZM260.529 117.025C261.11 117.025 261.553 116.834 261.857 116.452C262.169 116.071 262.325 115.515 262.325 114.786V114.682C262.325 113.953 262.156 113.398 261.818 113.016C261.488 112.626 261.054 112.431 260.516 112.431C259.943 112.431 259.488 112.621 259.149 113.003C258.811 113.385 258.642 113.945 258.642 114.682V114.786C258.642 115.524 258.807 116.084 259.136 116.465C259.475 116.838 259.939 117.025 260.529 117.025ZM268.336 118.274C267.338 118.274 266.514 117.966 265.863 117.35C265.221 116.726 264.9 115.884 264.9 114.825V114.721C264.9 113.671 265.225 112.821 265.876 112.17C266.535 111.519 267.355 111.194 268.336 111.194C269.169 111.194 269.876 111.402 270.457 111.819C271.039 112.227 271.368 112.869 271.446 113.745H269.924C269.794 112.886 269.273 112.457 268.362 112.457C267.815 112.457 267.368 112.656 267.021 113.055C266.683 113.454 266.514 114.001 266.514 114.695V114.799C266.514 115.537 266.679 116.101 267.008 116.491C267.347 116.873 267.811 117.064 268.401 117.064C268.835 117.064 269.204 116.938 269.507 116.687C269.811 116.435 269.989 116.075 270.041 115.606H271.486C271.433 116.396 271.121 117.038 270.548 117.533C269.976 118.027 269.238 118.274 268.336 118.274ZM277.931 112.509H275.848V118.144H274.273V112.509H272.191V111.337H277.931V112.509ZM279.159 111.337H281.905C283.562 111.337 284.391 111.906 284.391 113.042V113.068C284.391 113.875 283.987 114.374 283.18 114.565C284.187 114.773 284.69 115.285 284.69 116.101V116.14C284.69 116.791 284.469 117.29 284.026 117.637C283.593 117.975 282.968 118.144 282.152 118.144H279.159V111.337ZM280.734 112.391V114.123H281.684C282.065 114.123 282.343 114.053 282.517 113.914C282.69 113.767 282.777 113.537 282.777 113.224V113.198C282.777 112.895 282.682 112.687 282.491 112.574C282.308 112.452 282.022 112.391 281.632 112.391H280.734ZM280.734 115.177V117.09H281.853C282.669 117.09 283.076 116.778 283.076 116.153V116.127C283.076 115.493 282.686 115.177 281.905 115.177H280.734ZM289.182 117.051C289.772 117.051 290.232 116.851 290.562 116.452C290.892 116.044 291.057 115.489 291.057 114.786V114.695C291.057 113.992 290.892 113.441 290.562 113.042C290.232 112.634 289.772 112.431 289.182 112.431C288.592 112.431 288.128 112.63 287.79 113.029C287.46 113.428 287.295 113.979 287.295 114.682V114.786C287.295 115.489 287.46 116.044 287.79 116.452C288.119 116.851 288.584 117.051 289.182 117.051ZM291.681 117.311C291.022 117.953 290.184 118.274 289.169 118.274C288.154 118.274 287.317 117.958 286.657 117.324C286.007 116.682 285.681 115.845 285.681 114.812V114.708C285.681 113.667 286.011 112.821 286.67 112.17C287.33 111.519 288.167 111.194 289.182 111.194C290.189 111.194 291.022 111.515 291.681 112.157C292.341 112.799 292.67 113.637 292.67 114.669V114.773C292.67 115.823 292.341 116.669 291.681 117.311Z" fill="white"/>
<path d="M322.255 114.144C322.255 104.261 330.267 96.1963 340.151 96.1963H409.42C419.304 96.1963 427.316 104.261 427.316 114.144V114.144C427.316 124.028 419.304 132.092 409.42 132.092H340.151C330.267 132.092 322.255 124.028 322.255 114.144V114.144Z" fill="#7EACBD" fill-opacity="0.82"/>
<path d="M351.461 114.422C351.357 115.507 351.162 116.283 350.876 116.752H354.728V110.218H351.67C351.609 111.971 351.539 113.372 351.461 114.422ZM349.808 119.836H348.325V116.752H348.91C349.205 116.63 349.427 116.379 349.574 115.997C349.722 115.606 349.834 115.042 349.913 114.305C350.051 112.526 350.121 110.704 350.121 108.838H356.446V116.752H357.553V119.836H356.056L355.991 118.144H349.874L349.808 119.836ZM358.641 118.144V111.337H360.216V116.153L363.157 111.337H364.719V118.144H363.157V113.329L360.216 118.144H358.641ZM368.317 118.274C367.649 118.274 367.103 118.11 366.677 117.78C366.252 117.441 366.04 116.934 366.04 116.257C366.04 115.511 366.356 114.964 366.99 114.617C367.632 114.27 368.478 114.097 369.528 114.097H370.374V113.745C370.374 113.268 370.283 112.921 370.1 112.704C369.918 112.487 369.597 112.378 369.137 112.378C368.365 112.378 367.931 112.734 367.836 113.446H366.313C366.382 112.691 366.682 112.127 367.211 111.754C367.74 111.381 368.413 111.194 369.228 111.194C371.042 111.194 371.949 112.023 371.949 113.68V118.144H370.4V117.311C369.897 117.953 369.202 118.274 368.317 118.274ZM368.695 117.142C369.198 117.142 369.602 117.021 369.905 116.778C370.218 116.535 370.374 116.196 370.374 115.762V115.086H369.567C368.257 115.086 367.601 115.454 367.601 116.192C367.601 116.825 367.966 117.142 368.695 117.142ZM375.329 112.509V118.144H373.754V111.337H378.296V112.509H375.329ZM383.949 115.255H381.124V118.144H379.55V111.337H381.124V114.083H383.949V111.337H385.524V118.144H383.949V115.255ZM390.438 117.051C391.028 117.051 391.487 116.851 391.817 116.452C392.147 116.044 392.312 115.489 392.312 114.786V114.695C392.312 113.992 392.147 113.441 391.817 113.042C391.487 112.634 391.028 112.431 390.438 112.431C389.847 112.431 389.383 112.63 389.045 113.029C388.715 113.428 388.55 113.979 388.55 114.682V114.786C388.55 115.489 388.715 116.044 389.045 116.452C389.375 116.851 389.839 117.051 390.438 117.051ZM392.936 117.311C392.277 117.953 391.44 118.274 390.424 118.274C389.409 118.274 388.572 117.958 387.913 117.324C387.262 116.682 386.936 115.845 386.936 114.812V114.708C386.936 113.667 387.266 112.821 387.926 112.17C388.585 111.519 389.422 111.194 390.438 111.194C391.444 111.194 392.277 111.515 392.936 112.157C393.596 112.799 393.926 113.637 393.926 114.669V114.773C393.926 115.823 393.596 116.669 392.936 117.311ZM400.307 113.068C400.307 113.45 400.203 113.775 399.995 114.044C399.787 114.313 399.479 114.487 399.071 114.565C400.078 114.73 400.581 115.238 400.581 116.088V116.127C400.581 116.752 400.325 117.268 399.813 117.676C399.31 118.075 398.633 118.274 397.782 118.274C396.88 118.274 396.182 118.071 395.687 117.663C395.192 117.255 394.91 116.669 394.841 115.906H396.286C396.433 116.687 396.928 117.077 397.769 117.077C398.559 117.077 398.954 116.756 398.954 116.114V116.075C398.954 115.476 398.568 115.177 397.795 115.177H396.858V114.123H397.665C398.342 114.123 398.681 113.841 398.681 113.277V113.237C398.681 112.7 398.346 112.431 397.678 112.431C397.019 112.431 396.611 112.747 396.455 113.381H395.023C395.101 112.643 395.392 112.096 395.895 111.741C396.398 111.376 397.015 111.194 397.743 111.194C398.49 111.194 399.101 111.359 399.579 111.689C400.064 112.018 400.307 112.465 400.307 113.029V113.068Z" fill="white"/>
<path d="M38.7095 162.237C38.7095 152.353 46.7219 144.289 56.6056 144.289H116.875C126.759 144.289 134.771 152.353 134.771 162.237V162.237C134.771 172.12 126.759 180.185 116.875 180.185H56.6056C46.7219 180.185 38.7095 172.12 38.7095 162.237V162.237Z" fill="#7EACBD" fill-opacity="0.82"/>
<path d="M69.8813 166.367C68.4409 166.367 67.3216 165.942 66.5233 165.091C65.7337 164.241 65.3389 163.091 65.3389 161.642V161.538C65.3389 160.15 65.7641 159.013 66.6145 158.128C67.4648 157.235 68.5451 156.788 69.8553 156.788C70.9659 156.788 71.8813 157.065 72.6015 157.621C73.3304 158.176 73.7469 158.983 73.851 160.041H72.0939C71.9985 159.408 71.7685 158.94 71.4041 158.636C71.0484 158.323 70.5364 158.167 69.8683 158.167C69.0527 158.167 68.3976 158.471 67.903 159.078C67.4084 159.677 67.1611 160.493 67.1611 161.525V161.629C67.1611 162.679 67.3997 163.499 67.8769 164.089C68.3542 164.671 69.0223 164.961 69.8813 164.961C70.5408 164.961 71.0787 164.796 71.4952 164.467C71.9117 164.128 72.1677 163.638 72.2631 162.996H73.9551C73.825 164.098 73.3955 164.935 72.6666 165.508C71.9464 166.081 71.018 166.367 69.8813 166.367ZM80.4135 160.601H78.331V166.237H76.7562V160.601H74.6737V159.43H80.4135V160.601ZM83.3611 166.367C82.693 166.367 82.1463 166.202 81.7211 165.872C81.296 165.534 81.0834 165.026 81.0834 164.35C81.0834 163.603 81.4001 163.057 82.0335 162.71C82.6756 162.363 83.5216 162.189 84.5715 162.189H85.4175V161.838C85.4175 161.36 85.3264 161.013 85.1442 160.796C84.962 160.579 84.6409 160.471 84.1811 160.471C83.4088 160.471 82.975 160.827 82.8795 161.538H81.3567C81.4261 160.783 81.7255 160.219 82.2548 159.846C82.7841 159.473 83.4565 159.287 84.2722 159.287C86.0856 159.287 86.9924 160.115 86.9924 161.773V166.237H85.4435V165.404C84.9403 166.046 84.2461 166.367 83.3611 166.367ZM83.7385 165.235C84.2418 165.235 84.6453 165.113 84.949 164.87C85.2613 164.627 85.4175 164.289 85.4175 163.855V163.178H84.6106C83.3003 163.178 82.6452 163.547 82.6452 164.285C82.6452 164.918 83.0097 165.235 83.7385 165.235ZM93.8229 160.601H91.7405V166.237H90.1656V160.601H88.0831V159.43H93.8229V160.601ZM97.1694 165.547L94.4752 159.43H96.1802L97.9894 163.816L99.6553 159.43H101.191L97.4818 168.567H95.9329L97.1694 165.547ZM105.098 166.367C104.101 166.367 103.276 166.059 102.625 165.443C101.983 164.818 101.662 163.976 101.662 162.918V162.814C101.662 161.764 101.988 160.914 102.639 160.263C103.298 159.612 104.118 159.287 105.098 159.287C105.931 159.287 106.639 159.495 107.22 159.911C107.801 160.319 108.131 160.961 108.209 161.838H106.686C106.556 160.979 106.036 160.549 105.124 160.549C104.578 160.549 104.131 160.749 103.784 161.148C103.445 161.547 103.276 162.094 103.276 162.788V162.892C103.276 163.629 103.441 164.193 103.771 164.584C104.109 164.966 104.573 165.157 105.163 165.157C105.597 165.157 105.966 165.031 106.27 164.779C106.573 164.527 106.751 164.167 106.803 163.699H108.248C108.196 164.488 107.884 165.131 107.311 165.625C106.738 166.12 106.001 166.367 105.098 166.367Z" fill="white"/>
<path d="M149.414 162.237C149.414 152.353 157.426 144.289 167.31 144.289H301.579C311.463 144.289 319.475 152.353 319.475 162.237V162.237C319.475 172.12 311.463 180.185 301.579 180.185H167.31C157.426 180.185 149.414 172.12 149.414 162.237V162.237Z" fill="#7EACBD" fill-opacity="0.82"/>
<path d="M176.512 156.931H178.243V161.148L181.809 156.918H183.67L179.818 161.369L183.865 166.237H181.822L178.243 161.89V166.237H176.512V156.931ZM186.368 165.547L183.673 159.43H185.378L187.188 163.816L188.854 159.43H190.389L186.68 168.567H185.131L186.368 165.547ZM191.57 159.43H193.145V160.523C193.345 160.176 193.644 159.885 194.043 159.651C194.451 159.408 194.894 159.287 195.371 159.287C196.247 159.287 196.967 159.599 197.531 160.224C198.104 160.84 198.39 161.681 198.39 162.749V162.853C198.39 163.929 198.108 164.783 197.544 165.417C196.989 166.05 196.265 166.367 195.371 166.367C194.85 166.367 194.395 166.259 194.004 166.042C193.622 165.816 193.336 165.525 193.145 165.17V168.567H191.57V159.43ZM194.98 165.117C195.562 165.117 196.004 164.927 196.308 164.545C196.62 164.163 196.776 163.608 196.776 162.879V162.775C196.776 162.046 196.607 161.491 196.269 161.109C195.939 160.718 195.505 160.523 194.967 160.523C194.395 160.523 193.939 160.714 193.601 161.096C193.262 161.478 193.093 162.037 193.093 162.775V162.879C193.093 163.616 193.258 164.176 193.588 164.558C193.926 164.931 194.39 165.117 194.98 165.117ZM202.787 166.367C201.789 166.367 200.965 166.059 200.314 165.443C199.672 164.818 199.351 163.976 199.351 162.918V162.814C199.351 161.764 199.676 160.914 200.327 160.263C200.987 159.612 201.807 159.287 202.787 159.287C203.62 159.287 204.327 159.495 204.909 159.911C205.49 160.319 205.82 160.961 205.898 161.838H204.375C204.245 160.979 203.724 160.549 202.813 160.549C202.267 160.549 201.82 160.749 201.473 161.148C201.134 161.547 200.965 162.094 200.965 162.788V162.892C200.965 163.629 201.13 164.193 201.46 164.584C201.798 164.966 202.262 165.157 202.852 165.157C203.286 165.157 203.655 165.031 203.959 164.779C204.262 164.527 204.44 164.167 204.492 163.699H205.937C205.885 164.488 205.572 165.131 205 165.625C204.427 166.12 203.69 166.367 202.787 166.367ZM210.339 165.144C210.929 165.144 211.389 164.944 211.718 164.545C212.048 164.137 212.213 163.582 212.213 162.879V162.788C212.213 162.085 212.048 161.534 211.718 161.135C211.389 160.727 210.929 160.523 210.339 160.523C209.749 160.523 209.284 160.723 208.946 161.122C208.616 161.521 208.451 162.072 208.451 162.775V162.879C208.451 163.582 208.616 164.137 208.946 164.545C209.276 164.944 209.74 165.144 210.339 165.144ZM212.838 165.404C212.178 166.046 211.341 166.367 210.326 166.367C209.31 166.367 208.473 166.05 207.814 165.417C207.163 164.775 206.837 163.937 206.837 162.905V162.801C206.837 161.76 207.167 160.914 207.827 160.263C208.486 159.612 209.323 159.287 210.339 159.287C211.345 159.287 212.178 159.608 212.838 160.25C213.497 160.892 213.827 161.729 213.827 162.762V162.866C213.827 163.916 213.497 164.762 212.838 165.404ZM215.25 159.43H217.996C219.653 159.43 220.482 159.998 220.482 161.135V161.161C220.482 161.968 220.078 162.467 219.271 162.658C220.278 162.866 220.781 163.378 220.781 164.193V164.232C220.781 164.883 220.56 165.382 220.117 165.729C219.684 166.068 219.059 166.237 218.243 166.237H215.25V159.43ZM216.825 160.484V162.215H217.775C218.156 162.215 218.434 162.146 218.608 162.007C218.781 161.859 218.868 161.629 218.868 161.317V161.291C218.868 160.987 218.773 160.779 218.582 160.666C218.399 160.545 218.113 160.484 217.723 160.484H216.825ZM216.825 163.269V165.183H217.944C218.759 165.183 219.167 164.87 219.167 164.245V164.219C219.167 163.586 218.777 163.269 217.996 163.269H216.825ZM225.273 165.144C225.863 165.144 226.323 164.944 226.653 164.545C226.983 164.137 227.147 163.582 227.147 162.879V162.788C227.147 162.085 226.983 161.534 226.653 161.135C226.323 160.727 225.863 160.523 225.273 160.523C224.683 160.523 224.219 160.723 223.881 161.122C223.551 161.521 223.386 162.072 223.386 162.775V162.879C223.386 163.582 223.551 164.137 223.881 164.545C224.21 164.944 224.675 165.144 225.273 165.144ZM227.772 165.404C227.113 166.046 226.275 166.367 225.26 166.367C224.245 166.367 223.408 166.05 222.748 165.417C222.097 164.775 221.772 163.937 221.772 162.905V162.801C221.772 161.76 222.102 160.914 222.761 160.263C223.421 159.612 224.258 159.287 225.273 159.287C226.28 159.287 227.113 159.608 227.772 160.25C228.432 160.892 228.761 161.729 228.761 162.762V162.866C228.761 163.916 228.432 164.762 227.772 165.404ZM233.178 166.367C232.154 166.367 231.321 166.055 230.679 165.43C230.045 164.805 229.729 163.963 229.729 162.905V162.801C229.729 161.76 230.045 160.914 230.679 160.263C231.321 159.612 232.132 159.287 233.113 159.287C234.033 159.287 234.796 159.573 235.403 160.146C236.02 160.718 236.328 161.577 236.328 162.723V163.178H231.343C231.369 163.829 231.538 164.328 231.85 164.675C232.171 165.022 232.627 165.196 233.217 165.196C234.137 165.196 234.657 164.849 234.779 164.154H236.302C236.189 164.875 235.859 165.426 235.312 165.807C234.774 166.18 234.063 166.367 233.178 166.367ZM234.766 162.124C234.679 160.996 234.128 160.432 233.113 160.432C232.644 160.432 232.254 160.584 231.941 160.887C231.638 161.183 231.447 161.595 231.369 162.124H234.766ZM242.735 163.504C242.648 164.475 242.457 165.191 242.162 165.651C241.876 166.111 241.424 166.341 240.808 166.341C240.6 166.341 240.453 166.328 240.366 166.302C240.348 166.293 240.322 166.28 240.288 166.263C240.262 166.254 240.244 166.25 240.236 166.25V164.935L240.314 164.961C240.401 164.979 240.479 164.987 240.548 164.987C240.791 164.987 240.969 164.844 241.082 164.558C241.203 164.263 241.294 163.825 241.355 163.243C241.372 163.078 241.385 162.866 241.394 162.606C241.403 162.345 241.411 162.05 241.42 161.72C241.437 161.382 241.45 161.113 241.459 160.914L241.498 159.43H246.457V166.237H244.895V160.601H242.878C242.808 162.172 242.761 163.139 242.735 163.504ZM251.328 166.367C250.304 166.367 249.471 166.055 248.829 165.43C248.196 164.805 247.879 163.963 247.879 162.905V162.801C247.879 161.76 248.196 160.914 248.829 160.263C249.471 159.612 250.283 159.287 251.263 159.287C252.183 159.287 252.946 159.573 253.554 160.146C254.17 160.718 254.478 161.577 254.478 162.723V163.178H249.493C249.519 163.829 249.688 164.328 250.001 164.675C250.322 165.022 250.777 165.196 251.367 165.196C252.287 165.196 252.808 164.849 252.929 164.154H254.452C254.339 164.875 254.009 165.426 253.463 165.807C252.925 166.18 252.213 166.367 251.328 166.367ZM252.916 162.124C252.829 160.996 252.278 160.432 251.263 160.432C250.795 160.432 250.404 160.584 250.092 160.887C249.788 161.183 249.597 161.595 249.519 162.124H252.916ZM259.804 166.237V163.217C259.344 163.729 258.684 163.985 257.825 163.985C257.157 163.985 256.619 163.773 256.212 163.347C255.804 162.914 255.6 162.263 255.6 161.395V159.43H257.162V161.226C257.162 161.747 257.261 162.128 257.461 162.371C257.661 162.606 257.973 162.723 258.398 162.723C259.032 162.723 259.5 162.506 259.804 162.072V159.43H261.379V166.237H259.804ZM266.25 166.367C265.226 166.367 264.393 166.055 263.751 165.43C263.118 164.805 262.801 163.963 262.801 162.905V162.801C262.801 161.76 263.118 160.914 263.751 160.263C264.393 159.612 265.205 159.287 266.185 159.287C267.105 159.287 267.868 159.573 268.476 160.146C269.092 160.718 269.4 161.577 269.4 162.723V163.178H264.415C264.441 163.829 264.61 164.328 264.923 164.675C265.244 165.022 265.699 165.196 266.289 165.196C267.209 165.196 267.73 164.849 267.851 164.154H269.374C269.261 164.875 268.931 165.426 268.385 165.807C267.847 166.18 267.135 166.367 266.25 166.367ZM267.838 162.124C267.751 160.996 267.2 160.432 266.185 160.432C265.717 160.432 265.326 160.584 265.014 160.887C264.71 161.183 264.519 161.595 264.441 162.124H267.838ZM275.206 163.347H272.381V166.237H270.807V159.43H272.381V162.176H275.206V159.43H276.781V166.237H275.206V163.347ZM278.649 166.237V159.43H280.224V164.245L283.165 159.43H284.727V166.237H283.165V161.421L280.224 166.237H278.649ZM289.536 166.367C288.512 166.367 287.679 166.055 287.037 165.43C286.403 164.805 286.086 163.963 286.086 162.905V162.801C286.086 161.76 286.403 160.914 287.037 160.263C287.679 159.612 288.49 159.287 289.47 159.287C290.39 159.287 291.154 159.573 291.761 160.146C292.377 160.718 292.685 161.577 292.685 162.723V163.178H287.7C287.726 163.829 287.896 164.328 288.208 164.675C288.529 165.022 288.985 165.196 289.575 165.196C290.494 165.196 291.015 164.849 291.136 164.154H292.659C292.546 164.875 292.217 165.426 291.67 165.807C291.132 166.18 290.421 166.367 289.536 166.367ZM291.123 162.124C291.037 160.996 290.486 160.432 289.47 160.432C289.002 160.432 288.611 160.584 288.299 160.887C287.995 161.183 287.804 161.595 287.726 162.124H291.123Z" fill="white"/>
<path d="M334.117 162.237C334.117 152.353 342.13 144.289 352.013 144.289H416.283C426.166 144.289 434.179 152.353 434.179 162.237V162.237C434.179 172.12 426.166 180.185 416.283 180.185H352.013C342.13 180.185 334.117 172.12 334.117 162.237V162.237Z" fill="#7EACBD" fill-opacity="0.82"/>
<path d="M366.994 158.323H362.959V166.237H361.215V156.931H368.738V166.237H366.994V158.323ZM370.732 159.43H372.307V160.523C372.507 160.176 372.806 159.885 373.205 159.651C373.613 159.408 374.055 159.287 374.533 159.287C375.409 159.287 376.129 159.599 376.693 160.224C377.266 160.84 377.552 161.681 377.552 162.749V162.853C377.552 163.929 377.27 164.783 376.706 165.417C376.151 166.05 375.426 166.367 374.533 166.367C374.012 166.367 373.557 166.259 373.166 166.042C372.784 165.816 372.498 165.525 372.307 165.17V168.567H370.732V159.43ZM374.142 165.117C374.724 165.117 375.166 164.927 375.47 164.545C375.782 164.163 375.938 163.608 375.938 162.879V162.775C375.938 162.046 375.769 161.491 375.431 161.109C375.101 160.718 374.667 160.523 374.129 160.523C373.557 160.523 373.101 160.714 372.763 161.096C372.424 161.478 372.255 162.037 372.255 162.775V162.879C372.255 163.616 372.42 164.176 372.75 164.558C373.088 164.931 373.552 165.117 374.142 165.117ZM378.969 166.237V159.43H380.543V164.245L383.485 159.43H385.047V166.237H383.485V161.421L380.543 166.237H378.969ZM388.436 162.905V166.237H386.862V159.43H388.436V162.449L390.87 159.43H392.588L389.946 162.579L392.81 166.237H390.988L388.436 162.905ZM395.882 165.547L393.188 159.43H394.893L396.702 163.816L398.368 159.43H399.904L396.194 168.567H394.645L395.882 165.547ZM403.811 166.367C402.813 166.367 401.989 166.059 401.338 165.443C400.696 164.818 400.375 163.976 400.375 162.918V162.814C400.375 161.764 400.7 160.914 401.351 160.263C402.01 159.612 402.83 159.287 403.811 159.287C404.644 159.287 405.351 159.495 405.932 159.911C406.514 160.319 406.843 160.961 406.921 161.838H405.399C405.269 160.979 404.748 160.549 403.837 160.549C403.29 160.549 402.843 160.749 402.496 161.148C402.158 161.547 401.989 162.094 401.989 162.788V162.892C401.989 163.629 402.154 164.193 402.483 164.584C402.822 164.966 403.286 165.157 403.876 165.157C404.31 165.157 404.679 165.031 404.982 164.779C405.286 164.527 405.464 164.167 405.516 163.699H406.961C406.908 164.488 406.596 165.131 406.023 165.625C405.451 166.12 404.713 166.367 403.811 166.367Z" fill="white"/>
<path d="M75.0615 210.335C75.0615 200.451 83.0739 192.387 92.9577 192.387H264.227C274.111 192.387 282.123 200.451 282.123 210.335V210.335C282.123 220.219 274.111 228.283 264.227 228.283H92.9577C83.0739 228.283 75.0615 220.219 75.0615 210.335V210.335Z" fill="#7EACBD" fill-opacity="0.82"/>
<path d="M105.101 214.465C104.051 214.465 103.218 214.183 102.602 213.619C101.986 213.055 101.626 212.287 101.522 211.315H103.175C103.348 212.487 103.995 213.072 105.114 213.072C105.695 213.072 106.138 212.938 106.442 212.669C106.745 212.391 106.897 212.005 106.897 211.511C106.897 211.025 106.763 210.678 106.494 210.469C106.225 210.252 105.769 210.144 105.127 210.144H104.073V208.947H105.101C106.09 208.947 106.585 208.487 106.585 207.567C106.585 207.15 106.459 206.834 106.207 206.617C105.956 206.391 105.596 206.278 105.127 206.278C104.624 206.278 104.238 206.404 103.969 206.656C103.708 206.899 103.526 207.276 103.422 207.788H101.795C101.908 206.851 102.255 206.135 102.836 205.641C103.426 205.146 104.212 204.899 105.192 204.899C106.121 204.899 106.871 205.133 107.444 205.602C108.025 206.07 108.316 206.682 108.316 207.437C108.316 207.94 108.186 208.374 107.925 208.738C107.665 209.103 107.279 209.359 106.767 209.506C107.392 209.602 107.865 209.832 108.186 210.196C108.515 210.552 108.68 211.02 108.68 211.602C108.68 212.452 108.346 213.142 107.678 213.671C107.019 214.2 106.16 214.465 105.101 214.465ZM111.96 214.465C111.292 214.465 110.745 214.3 110.32 213.971C109.895 213.632 109.682 213.125 109.682 212.448C109.682 211.702 109.999 211.155 110.632 210.808C111.274 210.461 112.12 210.287 113.17 210.287H114.016V209.936C114.016 209.459 113.925 209.111 113.743 208.895C113.561 208.678 113.24 208.569 112.78 208.569C112.008 208.569 111.574 208.925 111.478 209.636H109.955C110.025 208.882 110.324 208.318 110.854 207.944C111.383 207.571 112.055 207.385 112.871 207.385C114.684 207.385 115.591 208.213 115.591 209.871V214.335H114.042V213.502C113.539 214.144 112.845 214.465 111.96 214.465ZM112.337 213.333C112.841 213.333 113.244 213.211 113.548 212.968C113.86 212.725 114.016 212.387 114.016 211.953V211.276H113.209C111.899 211.276 111.244 211.645 111.244 212.383C111.244 213.016 111.608 213.333 112.337 213.333ZM120.494 214.465C119.409 214.465 118.555 214.122 117.93 213.437C117.314 212.743 117.006 211.702 117.006 210.313V209.832C117.006 206.361 118.32 204.56 120.949 204.43L121.366 204.417C122.398 204.365 123.071 204.283 123.383 204.17V205.406C122.975 205.58 122.294 205.693 121.34 205.745L121.001 205.771C120.09 205.823 119.418 206.118 118.984 206.656C118.559 207.194 118.303 207.97 118.216 208.986H118.281C118.793 207.988 119.648 207.489 120.845 207.489C121.782 207.489 122.542 207.81 123.123 208.452C123.704 209.085 123.995 209.897 123.995 210.886V210.964C123.995 212.031 123.665 212.882 123.006 213.515C122.346 214.148 121.509 214.465 120.494 214.465ZM119.114 212.656C119.453 213.046 119.917 213.242 120.507 213.242C121.097 213.242 121.557 213.046 121.887 212.656C122.216 212.257 122.381 211.697 122.381 210.977V210.925C122.381 210.222 122.225 209.68 121.913 209.298C121.609 208.916 121.162 208.725 120.572 208.725C119.965 208.725 119.487 208.925 119.14 209.324C118.793 209.714 118.62 210.261 118.62 210.964V211.029C118.62 211.715 118.785 212.257 119.114 212.656ZM128.462 213.242C129.052 213.242 129.512 213.042 129.842 212.643C130.171 212.235 130.336 211.68 130.336 210.977V210.886C130.336 210.183 130.171 209.632 129.842 209.233C129.512 208.825 129.052 208.621 128.462 208.621C127.872 208.621 127.408 208.821 127.069 209.22C126.74 209.619 126.575 210.17 126.575 210.873V210.977C126.575 211.68 126.74 212.235 127.069 212.643C127.399 213.042 127.863 213.242 128.462 213.242ZM130.961 213.502C130.302 214.144 129.464 214.465 128.449 214.465C127.434 214.465 126.596 214.148 125.937 213.515C125.286 212.873 124.961 212.036 124.961 211.003V210.899C124.961 209.858 125.291 209.012 125.95 208.361C126.609 207.71 127.447 207.385 128.462 207.385C129.469 207.385 130.302 207.706 130.961 208.348C131.62 208.99 131.95 209.827 131.95 210.86V210.964C131.95 212.014 131.62 212.86 130.961 213.502ZM135.158 211.602C135.071 212.574 134.88 213.289 134.585 213.749C134.299 214.209 133.848 214.439 133.231 214.439C133.023 214.439 132.876 214.426 132.789 214.4C132.772 214.391 132.746 214.378 132.711 214.361C132.685 214.352 132.667 214.348 132.659 214.348V213.033L132.737 213.059C132.824 213.077 132.902 213.085 132.971 213.085C133.214 213.085 133.392 212.942 133.505 212.656C133.626 212.361 133.717 211.923 133.778 211.341C133.795 211.177 133.808 210.964 133.817 210.704C133.826 210.443 133.834 210.148 133.843 209.819C133.861 209.48 133.874 209.211 133.882 209.012L133.921 207.528H138.88V214.335H137.318V208.699H135.301C135.231 210.27 135.184 211.237 135.158 211.602ZM143.751 214.465C142.727 214.465 141.894 214.153 141.252 213.528C140.619 212.903 140.302 212.062 140.302 211.003V210.899C140.302 209.858 140.619 209.012 141.252 208.361C141.894 207.71 142.706 207.385 143.686 207.385C144.606 207.385 145.37 207.671 145.977 208.244C146.593 208.816 146.901 209.675 146.901 210.821V211.276H141.916C141.942 211.927 142.111 212.426 142.424 212.773C142.745 213.12 143.2 213.294 143.79 213.294C144.71 213.294 145.231 212.947 145.352 212.252H146.875C146.762 212.973 146.433 213.524 145.886 213.905C145.348 214.279 144.636 214.465 143.751 214.465ZM145.339 210.222C145.252 209.094 144.701 208.53 143.686 208.53C143.218 208.53 142.827 208.682 142.515 208.986C142.211 209.281 142.02 209.693 141.942 210.222H145.339ZM148.308 207.528H151.054C152.711 207.528 153.54 208.096 153.54 209.233V209.259C153.54 210.066 153.136 210.565 152.329 210.756C153.336 210.964 153.839 211.476 153.839 212.292V212.331C153.839 212.981 153.618 213.48 153.175 213.827C152.742 214.166 152.117 214.335 151.301 214.335H148.308V207.528ZM149.883 208.582V210.313H150.833C151.215 210.313 151.492 210.244 151.666 210.105C151.839 209.957 151.926 209.728 151.926 209.415V209.389C151.926 209.085 151.831 208.877 151.64 208.764C151.457 208.643 151.171 208.582 150.781 208.582H149.883ZM149.883 211.367V213.281H151.002C151.818 213.281 152.225 212.968 152.225 212.344V212.318C152.225 211.684 151.835 211.367 151.054 211.367H149.883ZM157.132 214.465C156.464 214.465 155.918 214.3 155.492 213.971C155.067 213.632 154.855 213.125 154.855 212.448C154.855 211.702 155.171 211.155 155.805 210.808C156.447 210.461 157.293 210.287 158.343 210.287H159.189V209.936C159.189 209.459 159.098 209.111 158.915 208.895C158.733 208.678 158.412 208.569 157.952 208.569C157.18 208.569 156.746 208.925 156.651 209.636H155.128C155.197 208.882 155.497 208.318 156.026 207.944C156.555 207.571 157.228 207.385 158.043 207.385C159.857 207.385 160.764 208.213 160.764 209.871V214.335H159.215V213.502C158.712 214.144 158.017 214.465 157.132 214.465ZM157.51 213.333C158.013 213.333 158.417 213.211 158.72 212.968C159.033 212.725 159.189 212.387 159.189 211.953V211.276H158.382C157.072 211.276 156.417 211.645 156.417 212.383C156.417 213.016 156.781 213.333 157.51 213.333ZM166.968 211.446H164.144V214.335H162.569V207.528H164.144V210.274H166.968V207.528H168.543V214.335H166.968V211.446ZM170.411 214.335V207.528H171.986V212.344L174.927 207.528H176.489V214.335H174.927V209.519L171.986 214.335H170.411ZM180.92 208.673C180.079 208.673 179.658 209.016 179.658 209.701V209.741C179.658 210.088 179.758 210.344 179.957 210.508C180.157 210.673 180.478 210.756 180.92 210.756H181.883V208.673H180.92ZM179.332 214.335H177.601L179.463 211.537C178.534 211.25 178.07 210.647 178.07 209.728V209.688C178.07 208.994 178.304 208.461 178.773 208.088C179.241 207.714 179.888 207.528 180.712 207.528H183.445V214.335H181.883V211.836H180.946L179.332 214.335ZM192.678 208.699H189.984V214.335H188.409V207.528H194.253V214.335H192.678V208.699ZM197.907 214.465C197.239 214.465 196.692 214.3 196.267 213.971C195.842 213.632 195.629 213.125 195.629 212.448C195.629 211.702 195.946 211.155 196.58 210.808C197.222 210.461 198.068 210.287 199.118 210.287H199.964V209.936C199.964 209.459 199.872 209.111 199.69 208.895C199.508 208.678 199.187 208.569 198.727 208.569C197.955 208.569 197.521 208.925 197.426 209.636H195.903C195.972 208.882 196.272 208.318 196.801 207.944C197.33 207.571 198.003 207.385 198.818 207.385C200.632 207.385 201.538 208.213 201.538 209.871V214.335H199.99V213.502C199.486 214.144 198.792 214.465 197.907 214.465ZM198.285 213.333C198.788 213.333 199.191 213.211 199.495 212.968C199.807 212.725 199.964 212.387 199.964 211.953V211.276H199.157C197.846 211.276 197.191 211.645 197.191 212.383C197.191 213.016 197.556 213.333 198.285 213.333ZM203.344 207.528H204.918V208.621C205.118 208.274 205.417 207.983 205.816 207.749C206.224 207.506 206.667 207.385 207.144 207.385C208.02 207.385 208.741 207.697 209.305 208.322C209.877 208.938 210.164 209.78 210.164 210.847V210.951C210.164 212.027 209.882 212.882 209.318 213.515C208.762 214.148 208.038 214.465 207.144 214.465C206.623 214.465 206.168 214.357 205.777 214.14C205.396 213.914 205.109 213.623 204.918 213.268V216.665H203.344V207.528ZM206.754 213.216C207.335 213.216 207.777 213.025 208.081 212.643C208.393 212.261 208.55 211.706 208.55 210.977V210.873C208.55 210.144 208.38 209.589 208.042 209.207C207.712 208.816 207.279 208.621 206.741 208.621C206.168 208.621 205.712 208.812 205.374 209.194C205.036 209.576 204.866 210.135 204.866 210.873V210.977C204.866 211.715 205.031 212.274 205.361 212.656C205.699 213.029 206.164 213.216 206.754 213.216ZM214.625 213.242C215.215 213.242 215.675 213.042 216.005 212.643C216.335 212.235 216.5 211.68 216.5 210.977V210.886C216.5 210.183 216.335 209.632 216.005 209.233C215.675 208.825 215.215 208.621 214.625 208.621C214.035 208.621 213.571 208.821 213.233 209.22C212.903 209.619 212.738 210.17 212.738 210.873V210.977C212.738 211.68 212.903 212.235 213.233 212.643C213.563 213.042 214.027 213.242 214.625 213.242ZM217.124 213.502C216.465 214.144 215.628 214.465 214.612 214.465C213.597 214.465 212.76 214.148 212.1 213.515C211.45 212.873 211.124 212.036 211.124 211.003V210.899C211.124 209.858 211.454 209.012 212.113 208.361C212.773 207.71 213.61 207.385 214.625 207.385C215.632 207.385 216.465 207.706 217.124 208.348C217.784 208.99 218.114 209.827 218.114 210.86V210.964C218.114 212.014 217.784 212.86 217.124 213.502ZM221.168 211.446C221.073 212.244 220.938 212.816 220.765 213.164H223.407V208.686H221.337C221.268 210.101 221.211 211.02 221.168 211.446ZM219.919 215.988H218.578V213.164H219.007C219.233 213.085 219.398 212.903 219.502 212.617C219.606 212.322 219.693 211.897 219.762 211.341C219.901 210.222 219.971 208.951 219.971 207.528H224.968V213.164H225.958V215.988H224.617L224.565 214.335H219.971L219.919 215.988ZM230.081 213.242C230.671 213.242 231.131 213.042 231.461 212.643C231.791 212.235 231.955 211.68 231.955 210.977V210.886C231.955 210.183 231.791 209.632 231.461 209.233C231.131 208.825 230.671 208.621 230.081 208.621C229.491 208.621 229.027 208.821 228.689 209.22C228.359 209.619 228.194 210.17 228.194 210.873V210.977C228.194 211.68 228.359 212.235 228.689 212.643C229.018 213.042 229.482 213.242 230.081 213.242ZM232.58 213.502C231.921 214.144 231.083 214.465 230.068 214.465C229.053 214.465 228.216 214.148 227.556 213.515C226.905 212.873 226.58 212.036 226.58 211.003V210.899C226.58 209.858 226.91 209.012 227.569 208.361C228.229 207.71 229.066 207.385 230.081 207.385C231.088 207.385 231.921 207.706 232.58 208.348C233.24 208.99 233.569 209.827 233.569 210.86V210.964C233.569 212.014 233.24 212.86 232.58 213.502ZM239.391 211.446H236.567V214.335H234.992V207.528H236.567V210.274H239.391V207.528H240.966V214.335H239.391V211.446ZM247.924 208.699H245.841V214.335H244.266V208.699H242.184V207.528H247.924V208.699ZM250.871 214.465C250.203 214.465 249.656 214.3 249.231 213.971C248.806 213.632 248.593 213.125 248.593 212.448C248.593 211.702 248.91 211.155 249.544 210.808C250.186 210.461 251.032 210.287 252.082 210.287H252.928V209.936C252.928 209.459 252.836 209.111 252.654 208.895C252.472 208.678 252.151 208.569 251.691 208.569C250.919 208.569 250.485 208.925 250.39 209.636H248.867C248.936 208.882 249.236 208.318 249.765 207.944C250.294 207.571 250.967 207.385 251.782 207.385C253.596 207.385 254.502 208.213 254.502 209.871V214.335H252.954V213.502C252.45 214.144 251.756 214.465 250.871 214.465ZM251.249 213.333C251.752 213.333 252.155 213.211 252.459 212.968C252.771 212.725 252.928 212.387 252.928 211.953V211.276H252.121C250.81 211.276 250.155 211.645 250.155 212.383C250.155 213.016 250.52 213.333 251.249 213.333Z" fill="white"/>
<path d="M296.766 210.335C296.766 200.451 304.778 192.387 314.662 192.387H379.931C389.815 192.387 397.827 200.451 397.827 210.335V210.335C397.827 220.219 389.815 228.283 379.931 228.283H314.662C304.778 228.283 296.766 220.219 296.766 210.335V210.335Z" fill="#7EACBD" fill-opacity="0.82"/>
<path d="M325.725 206.396H323.135V205.029H330.059V206.396H327.469V214.335H325.725V206.396ZM330.864 207.528H332.439V208.621C332.638 208.274 332.938 207.983 333.337 207.749C333.745 207.506 334.187 207.385 334.664 207.385C335.541 207.385 336.261 207.697 336.825 208.322C337.398 208.938 337.684 209.78 337.684 210.847V210.951C337.684 212.027 337.402 212.882 336.838 213.515C336.283 214.148 335.558 214.465 334.664 214.465C334.144 214.465 333.688 214.357 333.298 214.14C332.916 213.914 332.63 213.623 332.439 213.268V216.665H330.864V207.528ZM334.274 213.216C334.855 213.216 335.298 213.025 335.602 212.643C335.914 212.261 336.07 211.706 336.07 210.977V210.873C336.07 210.144 335.901 209.589 335.563 209.207C335.233 208.816 334.799 208.621 334.261 208.621C333.688 208.621 333.233 208.812 332.894 209.194C332.556 209.576 332.387 210.135 332.387 210.873V210.977C332.387 211.715 332.552 212.274 332.881 212.656C333.22 213.029 333.684 213.216 334.274 213.216ZM340.883 214.465C340.215 214.465 339.669 214.3 339.243 213.971C338.818 213.632 338.606 213.125 338.606 212.448C338.606 211.702 338.922 211.155 339.556 210.808C340.198 210.461 341.044 210.287 342.094 210.287H342.94V209.936C342.94 209.459 342.849 209.111 342.667 208.895C342.484 208.678 342.163 208.569 341.703 208.569C340.931 208.569 340.497 208.925 340.402 209.636H338.879C338.948 208.882 339.248 208.318 339.777 207.944C340.306 207.571 340.979 207.385 341.794 207.385C343.608 207.385 344.515 208.213 344.515 209.871V214.335H342.966V213.502C342.463 214.144 341.768 214.465 340.883 214.465ZM341.261 213.333C341.764 213.333 342.168 213.211 342.471 212.968C342.784 212.725 342.94 212.387 342.94 211.953V211.276H342.133C340.823 211.276 340.168 211.645 340.168 212.383C340.168 213.016 340.532 213.333 341.261 213.333ZM346.32 207.528H349.066C350.723 207.528 351.552 208.096 351.552 209.233V209.259C351.552 210.066 351.148 210.565 350.342 210.756C351.348 210.964 351.851 211.476 351.851 212.292V212.331C351.851 212.981 351.63 213.48 351.188 213.827C350.754 214.166 350.129 214.335 349.313 214.335H346.32V207.528ZM347.895 208.582V210.313H348.845C349.227 210.313 349.504 210.244 349.678 210.105C349.851 209.957 349.938 209.728 349.938 209.415V209.389C349.938 209.085 349.843 208.877 349.652 208.764C349.469 208.643 349.183 208.582 348.793 208.582H347.895ZM347.895 211.367V213.281H349.014C349.83 213.281 350.237 212.968 350.237 212.344V212.318C350.237 211.684 349.847 211.367 349.066 211.367H347.895ZM354.651 209.194V214.335H353.298V207.528H355.471L357.176 211.771L358.894 207.528H360.938V214.335H359.389V209.194L357.241 214.335H356.721L354.651 209.194ZM368.922 207.528H370.497V214.335H368.922V207.528ZM362.818 207.528H364.393V209.767H365.551C366.341 209.767 366.974 209.957 367.451 210.339C367.929 210.721 368.167 211.285 368.167 212.031V212.07C368.167 212.808 367.929 213.372 367.451 213.762C366.983 214.144 366.336 214.335 365.512 214.335H362.818V207.528ZM365.33 213.19C365.764 213.19 366.08 213.103 366.28 212.929C366.488 212.747 366.592 212.456 366.592 212.057V212.018C366.592 211.281 366.171 210.912 365.33 210.912H364.393V213.19H365.33Z" fill="white"/>
<path d="M68.5723 258.433C68.5723 248.549 76.5847 240.485 86.4684 240.485H168.738C178.621 240.485 186.634 248.549 186.634 258.433V258.433C186.634 268.317 178.621 276.381 168.738 276.381H86.4684C76.5847 276.381 68.5723 268.317 68.5723 258.433V258.433Z" fill="#7EACBD" fill-opacity="0.82"/>
<path d="M99.9393 261.171C100.816 261.171 101.51 260.867 102.022 260.26C102.542 259.643 102.803 258.828 102.803 257.813V257.709C102.803 256.728 102.542 255.93 102.022 255.314C101.51 254.689 100.807 254.377 99.9133 254.377C99.0109 254.377 98.2994 254.68 97.7788 255.288C97.2668 255.895 97.0109 256.706 97.0109 257.722V257.826C97.0109 258.832 97.2842 259.643 97.8308 260.26C98.3775 260.867 99.0803 261.171 99.9393 261.171ZM99.9133 262.563C98.5076 262.563 97.371 262.116 96.5033 261.223C95.6356 260.329 95.2017 259.201 95.2017 257.839V257.735C95.2017 256.364 95.6399 255.231 96.5163 254.338C97.4013 253.444 98.5337 252.997 99.9133 252.997C101.293 252.997 102.417 253.439 103.284 254.325C104.161 255.201 104.599 256.325 104.599 257.696V257.8C104.599 259.171 104.165 260.307 103.297 261.21C102.438 262.112 101.31 262.563 99.9133 262.563ZM110.41 256.797H107.715V262.433H106.141V255.626H111.984V262.433H110.41V256.797ZM116.849 262.563C115.825 262.563 114.992 262.251 114.35 261.626C113.717 261.001 113.4 260.16 113.4 259.101V258.997C113.4 257.956 113.717 257.11 114.35 256.459C114.992 255.808 115.804 255.483 116.784 255.483C117.704 255.483 118.468 255.769 119.075 256.342C119.691 256.915 119.999 257.774 119.999 258.919V259.374H115.014C115.04 260.025 115.209 260.524 115.522 260.871C115.843 261.218 116.298 261.392 116.888 261.392C117.808 261.392 118.329 261.045 118.45 260.351H119.973C119.86 261.071 119.53 261.622 118.984 262.004C118.446 262.377 117.734 262.563 116.849 262.563ZM118.437 258.32C118.35 257.192 117.799 256.628 116.784 256.628C116.316 256.628 115.925 256.78 115.613 257.084C115.309 257.379 115.118 257.791 115.04 258.32H118.437ZM121.406 255.626H122.981V256.719C123.18 256.372 123.479 256.082 123.879 255.847C124.286 255.604 124.729 255.483 125.206 255.483C126.083 255.483 126.803 255.795 127.367 256.42C127.939 257.036 128.226 257.878 128.226 258.945V259.049C128.226 260.125 127.944 260.98 127.38 261.613C126.824 262.247 126.1 262.563 125.206 262.563C124.686 262.563 124.23 262.455 123.84 262.238C123.458 262.012 123.171 261.722 122.981 261.366V264.763H121.406V255.626ZM124.816 261.314C125.397 261.314 125.84 261.123 126.143 260.741C126.456 260.359 126.612 259.804 126.612 259.075V258.971C126.612 258.242 126.443 257.687 126.104 257.305C125.775 256.915 125.341 256.719 124.803 256.719C124.23 256.719 123.774 256.91 123.436 257.292C123.098 257.674 122.928 258.233 122.928 258.971V259.075C122.928 259.813 123.093 260.372 123.423 260.754C123.761 261.127 124.226 261.314 124.816 261.314ZM131.425 262.563C130.757 262.563 130.21 262.398 129.785 262.069C129.36 261.73 129.147 261.223 129.147 260.546C129.147 259.8 129.464 259.253 130.098 258.906C130.74 258.559 131.586 258.385 132.636 258.385H133.482V258.034C133.482 257.557 133.39 257.21 133.208 256.993C133.026 256.776 132.705 256.667 132.245 256.667C131.473 256.667 131.039 257.023 130.944 257.735H129.421C129.49 256.98 129.789 256.416 130.319 256.043C130.848 255.669 131.521 255.483 132.336 255.483C134.15 255.483 135.056 256.312 135.056 257.969V262.433H133.508V261.6C133.004 262.242 132.31 262.563 131.425 262.563ZM131.803 261.431C132.306 261.431 132.709 261.309 133.013 261.066C133.325 260.824 133.482 260.485 133.482 260.051V259.374H132.675C131.364 259.374 130.709 259.743 130.709 260.481C130.709 261.114 131.074 261.431 131.803 261.431ZM142.38 264.086L142.302 262.433H136.861V255.626H138.436V261.262H141.131V255.626H142.705V261.262H143.695V264.086H142.38ZM144.844 262.433V255.626H146.418V260.442L149.36 255.626H150.922V262.433H149.36V257.617L146.418 262.433H144.844ZM152.737 262.433V255.626H154.312V260.442L157.253 255.626H158.815V262.433H157.253V257.617L154.312 262.433H152.737Z" fill="white"/>
<path d="M188.914 258.433C188.914 248.549 196.926 240.485 206.81 240.485H279.079C288.963 240.485 296.975 248.549 296.975 258.433V258.433C296.975 268.317 288.963 276.381 279.079 276.381H206.81C196.926 276.381 188.914 268.317 188.914 258.433V258.433Z" fill="#7EACBD" fill-opacity="0.82"/>
<path d="M218.406 253.127H220.671L223.743 262.433H221.947L221.205 260.129H217.652L216.923 262.433H215.296L218.406 253.127ZM218.055 258.867H220.801L219.435 254.546L218.055 258.867ZM229.432 259.544H226.608V262.433H225.033V255.626H226.608V258.372H229.432V255.626H231.007V262.433H229.432V259.544ZM234.658 262.563C233.99 262.563 233.444 262.398 233.018 262.069C232.593 261.73 232.381 261.223 232.381 260.546C232.381 259.8 232.697 259.253 233.331 258.906C233.973 258.559 234.819 258.385 235.869 258.385H236.715V258.034C236.715 257.557 236.624 257.21 236.441 256.993C236.259 256.776 235.938 256.667 235.478 256.667C234.706 256.667 234.272 257.023 234.177 257.735H232.654C232.723 256.98 233.023 256.416 233.552 256.043C234.081 255.669 234.754 255.483 235.569 255.483C237.383 255.483 238.29 256.312 238.29 257.969V262.433H236.741V261.6C236.237 262.242 235.543 262.563 234.658 262.563ZM235.036 261.431C235.539 261.431 235.942 261.309 236.246 261.066C236.559 260.824 236.715 260.485 236.715 260.051V259.374H235.908C234.598 259.374 233.942 259.743 233.942 260.481C233.942 261.114 234.307 261.431 235.036 261.431ZM241.448 257.292V262.433H240.095V255.626H242.268L243.973 259.869L245.691 255.626H247.735V262.433H246.186V257.292L244.038 262.433H243.518L241.448 257.292ZM254.014 259.544H251.19V262.433H249.615V255.626H251.19V258.372H254.014V255.626H255.589V262.433H254.014V259.544ZM260.451 262.563C259.427 262.563 258.594 262.251 257.952 261.626C257.318 261.001 257.001 260.16 257.001 259.101V258.997C257.001 257.956 257.318 257.11 257.952 256.459C258.594 255.808 259.405 255.483 260.385 255.483C261.305 255.483 262.069 255.769 262.676 256.342C263.292 256.915 263.6 257.774 263.6 258.919V259.374H258.615C258.641 260.025 258.811 260.524 259.123 260.871C259.444 261.218 259.9 261.392 260.49 261.392C261.409 261.392 261.93 261.045 262.051 260.351H263.574C263.461 261.071 263.132 261.622 262.585 262.004C262.047 262.377 261.336 262.563 260.451 262.563ZM262.038 258.32C261.952 257.192 261.401 256.628 260.385 256.628C259.917 256.628 259.526 256.78 259.214 257.084C258.91 257.379 258.719 257.791 258.641 258.32H262.038ZM269.966 257.357C269.966 257.739 269.862 258.064 269.653 258.333C269.445 258.602 269.137 258.776 268.729 258.854C269.736 259.019 270.239 259.526 270.239 260.377V260.416C270.239 261.04 269.983 261.557 269.471 261.965C268.968 262.364 268.291 262.563 267.441 262.563C266.538 262.563 265.84 262.359 265.345 261.952C264.851 261.544 264.569 260.958 264.499 260.194H265.944C266.092 260.975 266.586 261.366 267.428 261.366C268.217 261.366 268.612 261.045 268.612 260.403V260.364C268.612 259.765 268.226 259.466 267.454 259.466H266.517V258.411H267.324C268 258.411 268.339 258.129 268.339 257.565V257.526C268.339 256.988 268.005 256.719 267.337 256.719C266.677 256.719 266.269 257.036 266.113 257.669H264.682C264.76 256.932 265.05 256.385 265.554 256.03C266.057 255.665 266.673 255.483 267.402 255.483C268.148 255.483 268.76 255.648 269.237 255.977C269.723 256.307 269.966 256.754 269.966 257.318V257.357Z" fill="white"/>
<path d="M299.255 258.433C299.255 248.549 307.267 240.485 317.151 240.485H386.42C396.304 240.485 404.316 248.549 404.316 258.433V258.433C404.316 268.317 396.304 276.381 386.42 276.381H317.151C307.267 276.381 299.255 268.317 299.255 258.433V258.433Z" fill="#7EACBD" fill-opacity="0.82"/>
<path d="M330.518 258.047L327.368 262.433H325.481L329.034 257.63L325.611 253.127H327.446L330.518 257.37V253.127H332.223V257.37L335.307 253.127H337.104L333.707 257.552L337.299 262.433H335.347L332.223 258.06V262.433H330.518V258.047ZM340.132 262.563C339.463 262.563 338.917 262.398 338.492 262.069C338.066 261.73 337.854 261.223 337.854 260.546C337.854 259.8 338.171 259.253 338.804 258.906C339.446 258.559 340.292 258.385 341.342 258.385H342.188V258.034C342.188 257.557 342.097 257.21 341.915 256.993C341.732 256.776 341.411 256.667 340.951 256.667C340.179 256.667 339.745 257.023 339.65 257.735H338.127C338.197 256.98 338.496 256.416 339.025 256.043C339.555 255.669 340.227 255.483 341.043 255.483C342.856 255.483 343.763 256.312 343.763 257.969V262.433H342.214V261.6C341.711 262.242 341.017 262.563 340.132 262.563ZM340.509 261.431C341.012 261.431 341.416 261.309 341.719 261.066C342.032 260.824 342.188 260.485 342.188 260.051V259.374H341.381C340.071 259.374 339.416 259.743 339.416 260.481C339.416 261.114 339.78 261.431 340.509 261.431ZM347.416 259.7C347.329 260.672 347.138 261.388 346.843 261.847C346.557 262.307 346.106 262.537 345.49 262.537C345.282 262.537 345.134 262.524 345.047 262.498C345.03 262.49 345.004 262.476 344.969 262.459C344.943 262.45 344.926 262.446 344.917 262.446V261.132L344.995 261.158C345.082 261.175 345.16 261.184 345.229 261.184C345.472 261.184 345.65 261.04 345.763 260.754C345.885 260.459 345.976 260.021 346.036 259.44C346.054 259.275 346.067 259.062 346.075 258.802C346.084 258.542 346.093 258.246 346.102 257.917C346.119 257.578 346.132 257.309 346.141 257.11L346.18 255.626H351.138V262.433H349.577V256.797H347.559C347.49 258.368 347.442 259.335 347.416 259.7ZM356.062 261.34C356.652 261.34 357.112 261.14 357.441 260.741C357.771 260.333 357.936 259.778 357.936 259.075V258.984C357.936 258.281 357.771 257.73 357.441 257.331C357.112 256.923 356.652 256.719 356.062 256.719C355.472 256.719 355.008 256.919 354.669 257.318C354.339 257.717 354.175 258.268 354.175 258.971V259.075C354.175 259.778 354.339 260.333 354.669 260.741C354.999 261.14 355.463 261.34 356.062 261.34ZM358.561 261.6C357.901 262.242 357.064 262.563 356.049 262.563C355.034 262.563 354.196 262.247 353.537 261.613C352.886 260.971 352.561 260.134 352.561 259.101V258.997C352.561 257.956 352.89 257.11 353.55 256.459C354.209 255.808 355.047 255.483 356.062 255.483C357.068 255.483 357.901 255.804 358.561 256.446C359.22 257.088 359.55 257.925 359.55 258.958V259.062C359.55 260.112 359.22 260.958 358.561 261.6ZM364.07 262.563C362.986 262.563 362.131 262.221 361.506 261.535C360.89 260.841 360.582 259.8 360.582 258.411V257.93C360.582 254.459 361.897 252.659 364.526 252.528L364.943 252.515C365.975 252.463 366.648 252.381 366.96 252.268V253.505C366.552 253.678 365.871 253.791 364.916 253.843L364.578 253.869C363.667 253.921 362.995 254.216 362.561 254.754C362.136 255.292 361.88 256.069 361.793 257.084H361.858C362.37 256.086 363.224 255.587 364.422 255.587C365.359 255.587 366.118 255.908 366.7 256.55C367.281 257.184 367.572 257.995 367.572 258.984V259.062C367.572 260.129 367.242 260.98 366.582 261.613C365.923 262.247 365.086 262.563 364.07 262.563ZM362.691 260.754C363.029 261.145 363.493 261.34 364.084 261.34C364.674 261.34 365.133 261.145 365.463 260.754C365.793 260.355 365.958 259.795 365.958 259.075V259.023C365.958 258.32 365.802 257.778 365.489 257.396C365.185 257.014 364.739 256.823 364.149 256.823C363.541 256.823 363.064 257.023 362.717 257.422C362.37 257.813 362.196 258.359 362.196 259.062V259.127C362.196 259.813 362.361 260.355 362.691 260.754ZM375.097 255.626H376.672V262.433H375.097V255.626ZM368.993 255.626H370.568V257.865H371.726C372.516 257.865 373.149 258.056 373.627 258.437C374.104 258.819 374.342 259.383 374.342 260.129V260.168C374.342 260.906 374.104 261.47 373.627 261.86C373.158 262.242 372.512 262.433 371.687 262.433H368.993V255.626ZM371.505 261.288C371.939 261.288 372.256 261.201 372.455 261.027C372.663 260.845 372.768 260.555 372.768 260.155V260.116C372.768 259.379 372.347 259.01 371.505 259.01H370.568V261.288H371.505Z" fill="white"/>
<path d="M35.5723 306.531C35.5723 296.647 43.5847 288.583 53.4684 288.583H141.738C151.621 288.583 159.634 296.647 159.634 306.531V306.531C159.634 316.415 151.621 324.479 141.738 324.479H53.4684C43.5846 324.479 35.5723 316.415 35.5723 306.531V306.531Z" fill="#7EACBD" fill-opacity="0.82"/>
<path d="M68.4491 302.618H64.4144V310.531H62.6703V301.225H70.1932V310.531H68.4491V302.618ZM72.1873 303.724H73.7621V304.817C73.9617 304.47 74.2611 304.18 74.6602 303.945C75.068 303.703 75.5105 303.581 75.9878 303.581C76.8641 303.581 77.5843 303.893 78.1483 304.518C78.721 305.134 79.0073 305.976 79.0073 307.043V307.147C79.0073 308.223 78.7253 309.078 78.1613 309.711C77.606 310.345 76.8815 310.661 75.9878 310.661C75.4672 310.661 75.0116 310.553 74.6212 310.336C74.2394 310.11 73.953 309.82 73.7621 309.464V312.861H72.1873V303.724ZM75.5973 309.412C76.1787 309.412 76.6212 309.221 76.9249 308.839C77.2373 308.457 77.3934 307.902 77.3934 307.173V307.069C77.3934 306.34 77.2242 305.785 76.8858 305.403C76.5561 305.013 76.1223 304.817 75.5843 304.817C75.0116 304.817 74.5561 305.008 74.2177 305.39C73.8793 305.772 73.7101 306.332 73.7101 307.069V307.173C73.7101 307.911 73.8749 308.47 74.2047 308.852C74.5431 309.225 75.0073 309.412 75.5973 309.412ZM83.4171 310.661C82.3932 310.661 81.5603 310.349 80.9182 309.724C80.2848 309.1 79.968 308.258 79.968 307.199V307.095C79.968 306.054 80.2848 305.208 80.9182 304.557C81.5603 303.906 82.3716 303.581 83.352 303.581C84.2718 303.581 85.0354 303.867 85.6428 304.44C86.2588 305.013 86.5668 305.872 86.5668 307.017V307.473H81.582C81.608 308.123 81.7772 308.622 82.0896 308.969C82.4106 309.316 82.8661 309.49 83.4562 309.49C84.3759 309.49 84.8965 309.143 85.018 308.449H86.5408C86.428 309.169 86.0983 309.72 85.5516 310.102C85.0137 310.475 84.3022 310.661 83.4171 310.661ZM85.005 306.418C84.9182 305.29 84.3672 304.726 83.352 304.726C82.8835 304.726 82.493 304.878 82.1807 305.182C81.877 305.477 81.6861 305.889 81.608 306.418H85.005ZM92.2426 304.896H89.5484V310.531H87.9735V303.724H93.8174V310.531H92.2426V304.896ZM97.4718 310.661C96.8037 310.661 96.257 310.497 95.8319 310.167C95.4067 309.828 95.1941 309.321 95.1941 308.644C95.1941 307.898 95.5108 307.351 96.1442 307.004C96.7863 306.657 97.6323 306.483 98.6822 306.483H99.5282V306.132C99.5282 305.655 99.4371 305.308 99.2549 305.091C99.0727 304.874 98.7517 304.765 98.2918 304.765C97.5195 304.765 97.0857 305.121 96.9902 305.833H95.4674C95.5369 305.078 95.8362 304.514 96.3655 304.141C96.8948 303.768 97.5673 303.581 98.3829 303.581C100.196 303.581 101.103 304.41 101.103 306.067V310.531H99.5543V309.698C99.051 310.34 98.3569 310.661 97.4718 310.661ZM97.8493 309.529C98.3525 309.529 98.756 309.408 99.0597 309.165C99.3721 308.922 99.5282 308.583 99.5282 308.149V307.473H98.7213C97.4111 307.473 96.756 307.841 96.756 308.579C96.756 309.212 97.1204 309.529 97.8493 309.529ZM102.908 303.724H104.483V304.817C104.683 304.47 104.982 304.18 105.381 303.945C105.789 303.703 106.231 303.581 106.709 303.581C107.585 303.581 108.305 303.893 108.869 304.518C109.442 305.134 109.728 305.976 109.728 307.043V307.147C109.728 308.223 109.446 309.078 108.882 309.711C108.327 310.345 107.602 310.661 106.709 310.661C106.188 310.661 105.733 310.553 105.342 310.336C104.96 310.11 104.674 309.82 104.483 309.464V312.861H102.908V303.724ZM106.318 309.412C106.9 309.412 107.342 309.221 107.646 308.839C107.958 308.457 108.114 307.902 108.114 307.173V307.069C108.114 306.34 107.945 305.785 107.607 305.403C107.277 305.013 106.843 304.817 106.305 304.817C105.733 304.817 105.277 305.008 104.939 305.39C104.6 305.772 104.431 306.332 104.431 307.069V307.173C104.431 307.911 104.596 308.47 104.926 308.852C105.264 309.225 105.728 309.412 106.318 309.412ZM112.928 310.661C112.259 310.661 111.713 310.497 111.288 310.167C110.862 309.828 110.65 309.321 110.65 308.644C110.65 307.898 110.967 307.351 111.6 307.004C112.242 306.657 113.088 306.483 114.138 306.483H114.984V306.132C114.984 305.655 114.893 305.308 114.711 305.091C114.528 304.874 114.207 304.765 113.748 304.765C112.975 304.765 112.541 305.121 112.446 305.833H110.923C110.993 305.078 111.292 304.514 111.821 304.141C112.351 303.768 113.023 303.581 113.839 303.581C115.652 303.581 116.559 304.41 116.559 306.067V310.531H115.01V309.698C114.507 310.34 113.813 310.661 112.928 310.661ZM113.305 309.529C113.808 309.529 114.212 309.408 114.515 309.165C114.828 308.922 114.984 308.583 114.984 308.149V307.473H114.177C112.867 307.473 112.212 307.841 112.212 308.579C112.212 309.212 112.576 309.529 113.305 309.529ZM123.389 304.896H121.307V310.531H119.732V304.896H117.65V303.724H123.389V304.896ZM130.722 303.724H132.297V310.531H130.722V303.724ZM124.617 303.724H126.192V305.963H127.351C128.14 305.963 128.774 306.154 129.251 306.536C129.728 306.917 129.967 307.481 129.967 308.228V308.267C129.967 309.004 129.728 309.568 129.251 309.959C128.782 310.34 128.136 310.531 127.312 310.531H124.617V303.724ZM127.129 309.386C127.563 309.386 127.88 309.299 128.08 309.126C128.288 308.943 128.392 308.653 128.392 308.254V308.215C128.392 307.477 127.971 307.108 127.129 307.108H126.192V309.386H127.129Z" fill="white"/>
<path d="M161.914 306.531C161.914 296.647 169.926 288.583 179.81 288.583H304.079C313.963 288.583 321.975 296.647 321.975 306.531V306.531C321.975 316.415 313.963 324.479 304.079 324.479H179.81C169.926 324.479 161.914 316.415 161.914 306.531V306.531Z" fill="#7EACBD" fill-opacity="0.82"/>
<path d="M193.085 310.661C191.645 310.661 190.526 310.236 189.727 309.386C188.938 308.536 188.543 307.386 188.543 305.937V305.833C188.543 304.444 188.968 303.308 189.819 302.423C190.669 301.529 191.749 301.082 193.059 301.082C194.17 301.082 195.085 301.36 195.806 301.915C196.534 302.47 196.951 303.277 197.055 304.336H195.298C195.203 303.703 194.973 303.234 194.608 302.93C194.252 302.618 193.741 302.462 193.072 302.462C192.257 302.462 191.602 302.765 191.107 303.373C190.612 303.971 190.365 304.787 190.365 305.82V305.924C190.365 306.974 190.604 307.794 191.081 308.384C191.558 308.965 192.226 309.256 193.085 309.256C193.745 309.256 194.283 309.091 194.699 308.761C195.116 308.423 195.372 307.933 195.467 307.29H197.159C197.029 308.392 196.6 309.23 195.871 309.802C195.151 310.375 194.222 310.661 193.085 310.661ZM203.618 304.896H201.535V310.531H199.96V304.896H197.878V303.724H203.618V304.896ZM204.846 303.724H206.42V304.817C206.62 304.47 206.919 304.18 207.319 303.945C207.726 303.703 208.169 303.581 208.646 303.581C209.522 303.581 210.243 303.893 210.807 304.518C211.379 305.134 211.666 305.976 211.666 307.043V307.147C211.666 308.223 211.384 309.078 210.82 309.711C210.264 310.345 209.54 310.661 208.646 310.661C208.126 310.661 207.67 310.553 207.28 310.336C206.898 310.11 206.611 309.82 206.42 309.464V312.861H204.846V303.724ZM208.256 309.412C208.837 309.412 209.28 309.221 209.583 308.839C209.896 308.457 210.052 307.902 210.052 307.173V307.069C210.052 306.34 209.883 305.785 209.544 305.403C209.214 305.013 208.781 304.817 208.243 304.817C207.67 304.817 207.214 305.008 206.876 305.39C206.538 305.772 206.368 306.332 206.368 307.069V307.173C206.368 307.911 206.533 308.47 206.863 308.852C207.201 309.225 207.666 309.412 208.256 309.412ZM214.883 309.841L212.188 303.724H213.893L215.703 308.11L217.369 303.724H218.904L215.195 312.861H213.646L214.883 309.841ZM221.66 307.199V310.531H220.085V303.724H221.66V306.744L224.094 303.724H225.812L223.17 306.874L226.033 310.531H224.211L221.66 307.199ZM232.203 304.896H230.121V310.531H228.546V304.896H226.463V303.724H232.203V304.896ZM235.55 309.841L232.855 303.724H234.56L236.37 308.11L238.036 303.724H239.571L235.862 312.861H234.313L235.55 309.841ZM240.752 303.724H242.327V304.817C242.527 304.47 242.826 304.18 243.225 303.945C243.633 303.703 244.076 303.581 244.553 303.581C245.429 303.581 246.149 303.893 246.713 304.518C247.286 305.134 247.572 305.976 247.572 307.043V307.147C247.572 308.223 247.29 309.078 246.726 309.711C246.171 310.345 245.447 310.661 244.553 310.661C244.032 310.661 243.577 310.553 243.186 310.336C242.804 310.11 242.518 309.82 242.327 309.464V312.861H240.752V303.724ZM244.162 309.412C244.744 309.412 245.186 309.221 245.49 308.839C245.802 308.457 245.959 307.902 245.959 307.173V307.069C245.959 306.34 245.789 305.785 245.451 305.403C245.121 305.013 244.687 304.817 244.149 304.817C243.577 304.817 243.121 305.008 242.783 305.39C242.444 305.772 242.275 306.332 242.275 307.069V307.173C242.275 307.911 242.44 308.47 242.77 308.852C243.108 309.225 243.572 309.412 244.162 309.412ZM250.772 310.661C250.104 310.661 249.557 310.497 249.132 310.167C248.707 309.828 248.494 309.321 248.494 308.644C248.494 307.898 248.811 307.351 249.444 307.004C250.086 306.657 250.932 306.483 251.982 306.483H252.828V306.132C252.828 305.655 252.737 305.308 252.555 305.091C252.373 304.874 252.052 304.765 251.592 304.765C250.819 304.765 250.386 305.121 250.29 305.833H248.767C248.837 305.078 249.136 304.514 249.665 304.141C250.195 303.768 250.867 303.581 251.683 303.581C253.496 303.581 254.403 304.41 254.403 306.067V310.531H252.854V309.698C252.351 310.34 251.657 310.661 250.772 310.661ZM251.149 309.529C251.652 309.529 252.056 309.408 252.36 309.165C252.672 308.922 252.828 308.583 252.828 308.149V307.473H252.021C250.711 307.473 250.056 307.841 250.056 308.579C250.056 309.212 250.42 309.529 251.149 309.529ZM264.319 305.455C264.319 305.837 264.215 306.162 264.007 306.431C263.799 306.7 263.491 306.874 263.083 306.952C264.089 307.117 264.592 307.624 264.592 308.475V308.514C264.592 309.139 264.337 309.655 263.825 310.063C263.321 310.462 262.645 310.661 261.794 310.661C260.892 310.661 260.193 310.457 259.699 310.05C259.204 309.642 258.922 309.056 258.853 308.293H260.297C260.445 309.074 260.939 309.464 261.781 309.464C262.571 309.464 262.966 309.143 262.966 308.501V308.462C262.966 307.863 262.579 307.564 261.807 307.564H260.87V306.509H261.677C262.354 306.509 262.692 306.227 262.692 305.663V305.624C262.692 305.086 262.358 304.817 261.69 304.817C261.031 304.817 260.623 305.134 260.467 305.768H259.035C259.113 305.03 259.404 304.483 259.907 304.128C260.41 303.763 261.026 303.581 261.755 303.581C262.501 303.581 263.113 303.746 263.59 304.076C264.076 304.405 264.319 304.852 264.319 305.416V305.455ZM267.834 309.841L265.14 303.724H266.845L268.654 308.11L270.32 303.724H271.856L268.146 312.861H266.597L267.834 309.841ZM276.134 310.661C275.05 310.661 274.195 310.319 273.57 309.633C272.954 308.939 272.646 307.898 272.646 306.509V306.028C272.646 302.557 273.961 300.757 276.59 300.627L277.006 300.614C278.039 300.561 278.711 300.479 279.024 300.366V301.603C278.616 301.776 277.935 301.889 276.98 301.941L276.642 301.967C275.731 302.019 275.058 302.314 274.624 302.852C274.199 303.39 273.943 304.167 273.857 305.182H273.922C274.434 304.184 275.288 303.685 276.486 303.685C277.423 303.685 278.182 304.006 278.763 304.648C279.345 305.282 279.635 306.093 279.635 307.082V307.16C279.635 308.228 279.306 309.078 278.646 309.711C277.987 310.345 277.149 310.661 276.134 310.661ZM274.755 308.852C275.093 309.243 275.557 309.438 276.147 309.438C276.737 309.438 277.197 309.243 277.527 308.852C277.857 308.453 278.022 307.893 278.022 307.173V307.121C278.022 306.418 277.865 305.876 277.553 305.494C277.249 305.113 276.802 304.922 276.212 304.922C275.605 304.922 275.128 305.121 274.781 305.52C274.434 305.911 274.26 306.457 274.26 307.16V307.225C274.26 307.911 274.425 308.453 274.755 308.852ZM284.102 309.438C284.692 309.438 285.152 309.238 285.482 308.839C285.812 308.431 285.977 307.876 285.977 307.173V307.082C285.977 306.379 285.812 305.828 285.482 305.429C285.152 305.021 284.692 304.817 284.102 304.817C283.512 304.817 283.048 305.017 282.71 305.416C282.38 305.815 282.215 306.366 282.215 307.069V307.173C282.215 307.876 282.38 308.431 282.71 308.839C283.04 309.238 283.504 309.438 284.102 309.438ZM286.601 309.698C285.942 310.34 285.105 310.661 284.089 310.661C283.074 310.661 282.237 310.345 281.577 309.711C280.927 309.069 280.601 308.232 280.601 307.199V307.095C280.601 306.054 280.931 305.208 281.59 304.557C282.25 303.906 283.087 303.581 284.102 303.581C285.109 303.581 285.942 303.902 286.601 304.544C287.261 305.186 287.591 306.024 287.591 307.056V307.16C287.591 308.21 287.261 309.056 286.601 309.698ZM289.014 303.724H291.76C293.417 303.724 294.246 304.293 294.246 305.429V305.455C294.246 306.262 293.842 306.761 293.035 306.952C294.042 307.16 294.545 307.672 294.545 308.488V308.527C294.545 309.178 294.324 309.677 293.881 310.024C293.447 310.362 292.823 310.531 292.007 310.531H289.014V303.724ZM290.588 304.778V306.509H291.538C291.92 306.509 292.198 306.44 292.371 306.301C292.545 306.154 292.632 305.924 292.632 305.611V305.585C292.632 305.282 292.536 305.073 292.345 304.961C292.163 304.839 291.877 304.778 291.486 304.778H290.588ZM290.588 307.564V309.477H291.708C292.523 309.477 292.931 309.165 292.931 308.54V308.514C292.931 307.88 292.541 307.564 291.76 307.564H290.588Z" fill="white"/>
<path d="M324.255 306.531C324.255 296.647 332.267 288.583 342.151 288.583H419.42C429.304 288.583 437.316 296.647 437.316 306.531V306.531C437.316 316.415 429.304 324.479 419.42 324.479H342.151C332.267 324.479 324.255 316.415 324.255 306.531V306.531Z" fill="#7EACBD" fill-opacity="0.82"/>
<path d="M353.748 301.225H356.012L359.084 310.531H357.288L356.546 308.228H352.993L352.264 310.531H350.637L353.748 301.225ZM353.396 306.965H356.143L354.776 302.644L353.396 306.965ZM362.222 307.798C362.136 308.77 361.945 309.486 361.65 309.946C361.363 310.405 360.912 310.635 360.296 310.635C360.088 310.635 359.94 310.622 359.854 310.596C359.836 310.588 359.81 310.575 359.775 310.557C359.749 310.549 359.732 310.544 359.723 310.544V309.23L359.802 309.256C359.888 309.273 359.966 309.282 360.036 309.282C360.279 309.282 360.457 309.139 360.569 308.852C360.691 308.557 360.782 308.119 360.843 307.538C360.86 307.373 360.873 307.16 360.882 306.9C360.89 306.64 360.899 306.345 360.908 306.015C360.925 305.677 360.938 305.408 360.947 305.208L360.986 303.724H365.945V310.531H364.383V304.896H362.366C362.296 306.466 362.248 307.434 362.222 307.798ZM369.671 307.798C369.584 308.77 369.393 309.486 369.098 309.946C368.812 310.405 368.36 310.635 367.744 310.635C367.536 310.635 367.389 310.622 367.302 310.596C367.284 310.588 367.258 310.575 367.224 310.557C367.198 310.549 367.18 310.544 367.172 310.544V309.23L367.25 309.256C367.337 309.273 367.415 309.282 367.484 309.282C367.727 309.282 367.905 309.139 368.018 308.852C368.139 308.557 368.23 308.119 368.291 307.538C368.308 307.373 368.321 307.16 368.33 306.9C368.339 306.64 368.347 306.345 368.356 306.015C368.373 305.677 368.386 305.408 368.395 305.208L368.434 303.724H373.393V310.531H371.831V304.896H369.814C369.744 306.466 369.697 307.434 369.671 307.798ZM378.264 310.661C377.24 310.661 376.407 310.349 375.765 309.724C375.132 309.1 374.815 308.258 374.815 307.199V307.095C374.815 306.054 375.132 305.208 375.765 304.557C376.407 303.906 377.219 303.581 378.199 303.581C379.119 303.581 379.883 303.867 380.49 304.44C381.106 305.013 381.414 305.872 381.414 307.017V307.473H376.429C376.455 308.123 376.624 308.622 376.937 308.969C377.258 309.316 377.713 309.49 378.303 309.49C379.223 309.49 379.744 309.143 379.865 308.449H381.388C381.275 309.169 380.945 309.72 380.399 310.102C379.861 310.475 379.149 310.661 378.264 310.661ZM379.852 306.418C379.765 305.29 379.214 304.726 378.199 304.726C377.731 304.726 377.34 304.878 377.028 305.182C376.724 305.477 376.533 305.889 376.455 306.418H379.852ZM382.821 303.724H384.396V304.817C384.595 304.47 384.894 304.18 385.294 303.945C385.701 303.703 386.144 303.581 386.621 303.581C387.498 303.581 388.218 303.893 388.782 304.518C389.354 305.134 389.641 305.976 389.641 307.043V307.147C389.641 308.223 389.359 309.078 388.795 309.711C388.239 310.345 387.515 310.661 386.621 310.661C386.101 310.661 385.645 310.553 385.255 310.336C384.873 310.11 384.586 309.82 384.396 309.464V312.861H382.821V303.724ZM386.231 309.412C386.812 309.412 387.255 309.221 387.558 308.839C387.871 308.457 388.027 307.902 388.027 307.173V307.069C388.027 306.34 387.858 305.785 387.519 305.403C387.189 305.013 386.756 304.817 386.218 304.817C385.645 304.817 385.189 305.008 384.851 305.39C384.513 305.772 384.343 306.332 384.343 307.069V307.173C384.343 307.911 384.508 308.47 384.838 308.852C385.176 309.225 385.641 309.412 386.231 309.412ZM392.632 304.896V310.531H391.057V303.724H395.599V304.896H392.632ZM396.853 310.531V303.724H398.428V308.54L401.369 303.724H402.931V310.531H401.369V305.716L398.428 310.531H396.853ZM407.362 304.87C406.52 304.87 406.1 305.212 406.1 305.898V305.937C406.1 306.284 406.199 306.54 406.399 306.705C406.599 306.87 406.92 306.952 407.362 306.952H408.325V304.87H407.362ZM405.774 310.531H404.043L405.904 307.733C404.976 307.447 404.512 306.844 404.512 305.924V305.885C404.512 305.191 404.746 304.657 405.215 304.284C405.683 303.911 406.33 303.724 407.154 303.724H409.887V310.531H408.325V308.032H407.388L405.774 310.531Z" fill="white"/>
<rect x="1" y="168" width="471" height="165" fill="url(#paint0_linear)" fill-opacity="0.22"/>
<defs>
<linearGradient id="paint0_linear" x1="236.5" y1="168" x2="236.5" y2="333" gradientUnits="userSpaceOnUse">
<stop stop-color="white"/>
<stop offset="0.0001" stop-color="#F5F8FA" stop-opacity="0"/>
<stop offset="1" stop-color="white"/>
</linearGradient>
</defs>
</svg>
