<svg width="65" height="65" viewBox="0 0 65 65" fill="none" xmlns="http://www.w3.org/2000/svg">
<circle cx="32.5" cy="32.5" r="32.5" fill="white"/>
<path d="M41.1666 24.8333H42.3333C43.6224 24.8333 44.6666 25.8775 44.6666 27.1666V41.1666C44.6666 42.4558 43.6224 43.5 42.3333 43.5H23.6666C22.3774 43.5 21.3333 42.4558 21.3333 41.1666V27.1666C21.3333 25.8775 22.3774 24.8333 23.6666 24.8333H24.8333" stroke="#1E2022" stroke-width="1.5" stroke-linecap="round" stroke-linejoin="round"/>
<path fill-rule="evenodd" clip-rule="evenodd" d="M32.9999 26C32.9999 24.0668 31.4331 22.5 29.4999 22.5H25.9999C25.3559 22.5 24.8333 23.0227 24.8333 23.6667V38.8333C24.8333 39.4773 25.3559 40 25.9999 40H29.4999C31.4331 40 32.9999 41.5668 32.9999 43.5C32.9999 41.5668 34.5668 40 36.4999 40H39.9999C40.6439 40 41.1666 39.4773 41.1666 38.8333V23.6667C41.1666 23.0227 40.6439 22.5 39.9999 22.5H36.4999C34.5668 22.5 32.9999 24.0668 32.9999 26Z" stroke="#1E2022" stroke-width="1.5" stroke-linecap="round" stroke-linejoin="round"/>
<path d="M32.9998 26V43.5" stroke="#1E2022" stroke-width="1.5" stroke-linecap="round" stroke-linejoin="round"/>
</svg>
