<svg width="65" height="65" viewBox="0 0 65 65" fill="none" xmlns="http://www.w3.org/2000/svg">
<circle cx="32.5" cy="32.5" r="32.5" fill="white"/>
<path d="M21.3333 41.1667C21.3333 38.6 23.4333 36.5 25.9999 36.5H30.6666C33.2333 36.5 35.3333 38.6 35.3333 41.1667" stroke="#1E2022" stroke-width="1.5" stroke-linecap="round" stroke-linejoin="round"/>
<path d="M31.2499 26C32.8832 27.6333 32.8832 30.2 31.2499 31.7167C29.6165 33.2333 27.0499 33.35 25.5332 31.7167C24.0165 30.0833 23.8999 27.6333 25.4165 26C26.9332 24.3667 29.6165 24.4833 31.2499 26" stroke="#1E2022" stroke-width="1.5" stroke-linecap="round" stroke-linejoin="round"/>
<path d="M37.6665 35.3334H41.1665C43.1498 35.3334 44.6665 36.85 44.6665 38.8334" stroke="#1E2022" stroke-width="1.5" stroke-linecap="round" stroke-linejoin="round"/>
<path d="M41.5165 26.8167C42.6831 27.9833 42.6831 29.85 41.5165 30.9C40.3498 31.95 38.4831 32.0667 37.4331 30.9C36.3831 29.7333 36.2665 27.8667 37.4331 26.8167C38.4831 25.7667 40.3498 25.7667 41.5165 26.8167" stroke="#1E2022" stroke-width="1.5" stroke-linecap="round" stroke-linejoin="round"/>
</svg>
