<svg width="180" height="36" viewBox="0 0 180 36" fill="none" xmlns="http://www.w3.org/2000/svg">
<path d="M81.0565 11.9865C78.9178 10.9681 76.4832 10.4475 73.7074 10.4475H61.8076V35.5019H73.7074C76.4605 35.5019 78.9178 34.9813 81.0565 33.9628C83.1953 32.9444 84.8563 31.4733 86.0166 29.5947C87.1998 27.7162 87.7686 25.4982 87.7686 22.9634C87.7686 20.4285 87.177 18.2331 86.0166 16.332C84.8335 14.4761 83.1953 13.005 81.0565 11.9865ZM78.622 28.0105C77.3251 29.2326 75.5731 29.8437 73.4116 29.8437H68.9065V16.1057H73.4116C75.5731 16.1057 77.3023 16.7168 78.622 17.9389C79.9189 19.1611 80.5787 20.8359 80.5787 22.986C80.5787 25.1135 79.9416 26.8109 78.622 28.0105Z" fill="#EA502E"/>
<path d="M32.4332 24.4571C33.275 23.0992 33.7073 21.5375 33.7073 19.7043C33.7073 17.8258 33.2523 16.1736 32.3422 14.793C31.4321 13.3898 30.1351 12.326 28.4514 11.5791C26.7677 10.8323 24.7882 10.4475 22.5129 10.4475H11V35.5019H18.1216V28.8479H22.0124L26.5857 35.5019H34.2079L28.77 27.6257C30.3627 26.8562 31.5686 25.8151 32.4332 24.4571ZM25.3798 22.4202C24.629 23.0539 23.5368 23.3708 22.0806 23.3708H18.1216V16.0378H22.0806C23.5368 16.0378 24.6517 16.3546 25.3798 17.011C26.1306 17.6447 26.4947 18.5726 26.4947 19.7269C26.4947 20.8812 26.1306 21.7865 25.3798 22.4202Z" fill="#EA502E"/>
<path d="M44.674 25.453H55.8684V20.1569H44.674V15.9246H57.3701V10.4475H37.6206V35.5019H57.8479V30.0248H44.674V25.453Z" fill="#EA502E"/>
<path d="M138.166 13.3447L129.519 22.013L120.669 13.3447H114.798V35.5021H121.397V23.7331L127.836 29.2781H130.998L137.483 23.371L137.551 29.7308L144.081 32.6051L144.013 13.3447H138.166Z" fill="#EA502E"/>
<path d="M167.744 23.7782C166.812 22.7597 165.719 22.0355 164.468 21.5602C163.217 21.0849 161.624 20.6549 159.69 20.2475C157.983 19.8854 156.755 19.5459 155.981 19.2064C155.208 18.8669 154.821 18.369 154.821 17.7126C154.821 17.0337 155.139 16.4905 155.799 16.0831C156.459 15.6757 157.483 15.4494 158.894 15.4494C161.146 15.4494 163.467 16.0831 165.879 17.3731L168.063 12.1224C166.834 11.3981 165.424 10.8549 163.808 10.4928C162.193 10.1307 160.577 9.927 158.916 9.927C156.505 9.927 154.457 10.2891 152.773 10.9907C151.112 11.715 149.861 12.6882 149.019 13.9104C148.177 15.1325 147.767 16.5131 147.767 18.0521C147.767 19.7948 148.223 21.1754 149.133 22.1939C150.043 23.2124 151.135 23.9592 152.409 24.4345C153.683 24.9098 155.253 25.3398 157.164 25.7472C158.894 26.132 160.145 26.4941 160.919 26.8336C161.692 27.1731 162.079 27.7163 162.079 28.4179C162.079 29.7758 160.714 30.4548 157.983 30.4548C156.55 30.4548 155.071 30.2285 153.592 29.7758C152.113 29.3232 150.794 28.7347 149.679 27.9879L147.358 33.2386C148.564 34.076 150.111 34.7324 152.045 35.2529C153.956 35.7509 155.936 35.9998 157.983 35.9998C160.373 35.9998 162.42 35.6377 164.104 34.9134C165.788 34.1892 167.039 33.216 167.881 31.9938C168.723 30.7717 169.132 29.4137 169.132 27.92C169.132 26.1772 168.677 24.7967 167.744 23.7782Z" fill="#EA502E"/>
<path d="M145.834 0.0365577L118.804 4.29149C117.484 4.51782 117.529 4.81204 118.076 5.60418L120.92 8.20694C121.079 8.388 121.511 8.1843 121.716 8.16167L135.595 4.38202C135.732 4.29149 135.777 4.56308 135.618 4.72151L125.925 9.61016C125.903 9.6328 124.674 10.0854 124.219 10.4928C123.923 10.7644 125.425 12.2808 128.747 15.0873C129.611 15.5399 129.725 15.4268 130.271 14.9288L146.084 0.647638C146.221 0.262883 146.039 -0.121871 145.834 0.0365577Z" fill="#EA502E"/>
<path d="M106.88 21.5605C105.629 21.0852 104.036 20.6552 102.102 20.2478C101.943 20.2025 101.784 20.1799 101.624 20.1346C100.168 19.8178 99.0759 19.5009 98.3933 19.2067C97.6197 18.8672 97.2329 18.3693 97.2329 17.7129C97.2329 17.034 97.5515 16.4908 98.2113 16.0834C98.8484 15.676 99.895 15.4497 101.306 15.4497C101.419 15.4497 101.51 15.4497 101.624 15.4497C103.786 15.5176 105.993 16.1513 108.291 17.3735L110.475 12.1227C109.246 11.3984 107.836 10.8553 106.22 10.4931C104.696 10.1536 103.171 9.97258 101.601 9.94995C101.51 9.94995 101.419 9.94995 101.328 9.94995C98.9167 9.94995 96.8689 10.3121 95.1852 11.0137C93.5242 11.7379 92.2728 12.7111 91.431 13.9333C90.5891 15.1555 90.1796 16.5361 90.1796 18.0751C90.1796 19.8178 90.6346 21.1984 91.5447 22.2169C92.4549 23.2353 93.547 23.9822 94.8211 24.4575C96.0953 24.9328 97.6652 25.3628 99.5765 25.7702C100.35 25.9512 101.033 26.1097 101.624 26.2681C102.33 26.4718 102.921 26.6529 103.331 26.8565C104.104 27.196 104.491 27.7392 104.491 28.4408C104.491 29.5725 103.535 30.2514 101.601 30.4325C101.237 30.4778 100.828 30.4778 100.396 30.4778C98.9622 30.4778 97.4832 30.2514 96.0043 29.7988C94.5254 29.3461 93.2057 28.7577 92.0908 28.0108L89.77 33.239C90.9759 34.0764 92.5231 34.7327 94.4571 35.2533C96.3683 35.7512 98.3478 36.0001 100.396 36.0001C100.828 36.0001 101.237 35.9775 101.647 35.9549C103.513 35.8417 105.128 35.5022 106.516 34.9138C108.2 34.1895 109.451 33.2163 110.293 31.9942C111.135 30.772 111.544 29.414 111.544 27.9203C111.544 26.1776 111.089 24.797 110.157 23.7785C109.224 22.76 108.132 22.0358 106.88 21.5605Z" fill="#EA502E"/>
</svg>
