<svg width="136" height="40" viewBox="0 0 136 40" fill="none" xmlns="http://www.w3.org/2000/svg">
<path d="M124.765 0.00013H10.8012C10.3858 0.00013 9.97541 0.00013 9.5611 0.00213C9.21428 0.00413 8.87022 0.00994 8.52007 0.01483C7.75939 0.0227318 7.00049 0.0818063 6.24998 0.19154C5.50052 0.303663 4.77454 0.515046 4.09659 0.81854C3.41947 1.1246 2.80077 1.5223 2.26292 1.9972C1.72226 2.47077 1.27157 3.01815 0.928191 3.61829C0.583865 4.21724 0.345108 4.85907 0.220167 5.52161C0.0940379 6.18331 0.0261667 6.85265 0.0171625 7.52361C0.00664976 7.83021 0.00553958 8.13783 0 8.44447V31.5587C0.00553958 31.8692 0.00664976 32.17 0.0171625 32.4806C0.0261695 33.1515 0.0940407 33.8209 0.220167 34.4825C0.344763 35.1455 0.583534 35.7876 0.928191 36.3868C1.27141 36.985 1.72216 37.5302 2.26292 38.0011C2.79873 38.4781 3.41783 38.8761 4.09659 39.1798C4.77454 39.4841 5.50044 39.6968 6.24998 39.8106C7.00062 39.9195 7.75944 39.9786 8.52007 39.9874C8.87022 39.9942 9.21428 39.9981 9.5611 39.9981C9.9754 40.0001 10.3859 40.0001 10.8012 40.0001H124.765C125.172 40.0001 125.586 40.0001 125.993 39.9981C126.338 39.9981 126.692 39.9942 127.037 39.9874C127.796 39.979 128.554 39.9199 129.303 39.8106C130.055 39.696 130.783 39.4834 131.465 39.1798C132.143 38.8759 132.761 38.478 133.297 38.0011C133.836 37.5283 134.288 36.9836 134.635 36.3868C134.977 35.7872 135.214 35.1451 135.336 34.4825C135.463 33.8208 135.533 33.1516 135.547 32.4806C135.551 32.17 135.551 31.8692 135.551 31.5587C135.56 31.1954 135.56 30.8341 135.56 30.4649V9.53626C135.56 9.17005 135.56 8.80677 135.551 8.44447C135.551 8.13783 135.551 7.83021 135.547 7.52357C135.533 6.85255 135.463 6.18336 135.336 5.52157C135.213 4.85941 134.977 4.21763 134.635 3.61825C133.936 2.41533 132.827 1.43616 131.465 0.81845C130.783 0.515697 130.055 0.30437 129.303 0.19145C128.554 0.0812328 127.796 0.0221378 127.037 0.01469C126.692 0.00981 126.338 0.00395 125.993 0.002C125.586 0 125.172 0 124.765 0V0.00013Z" fill="#A6A6A6"/>
<path d="M9.56666 39.1251C9.2215 39.1251 8.88469 39.1212 8.54224 39.1144C7.83284 39.1063 7.12509 39.0517 6.42481 38.9513C5.77183 38.852 5.13927 38.6674 4.54799 38.4034C3.96214 38.1416 3.42779 37.7984 2.96542 37.3868C2.49636 36.9801 2.10584 36.5084 1.80935 35.9903C1.50959 35.4689 1.30213 34.91 1.19422 34.3331C1.07767 33.7132 1.01462 33.0864 1.0056 32.4581C0.998416 32.2472 0.989014 31.545 0.989014 31.545V8.44446C0.989014 8.44446 0.999028 7.75305 1.00566 7.54992C1.01429 6.9226 1.07698 6.29677 1.19317 5.67785C1.30129 5.09937 1.5089 4.53887 1.80883 4.01575C2.10423 3.49807 2.49258 3.02598 2.95881 2.6178C3.42453 2.20574 3.96059 1.86073 4.54744 1.59533C5.13736 1.33222 5.76872 1.14885 6.42038 1.05139C7.12297 0.949958 7.83317 0.895118 8.54503 0.887332L9.56721 0.875122H125.987L127.022 0.887822C127.727 0.895221 128.431 0.949572 129.127 1.05041C129.785 1.1491 130.423 1.33374 131.02 1.59826C132.196 2.13311 133.152 2.97928 133.756 4.01819C134.051 4.5377 134.255 5.09363 134.362 5.66711C134.48 6.29111 134.545 6.92186 134.559 7.55432C134.562 7.83752 134.562 8.14172 134.562 8.44446C134.571 8.81946 134.571 9.17639 134.571 9.53625V30.4649C134.571 30.8282 134.571 31.1827 134.562 31.5401C134.562 31.8653 134.562 32.1632 134.558 32.4698C134.544 33.091 134.48 33.7105 134.364 34.3233C134.258 34.9044 134.052 35.4676 133.752 35.9933C133.454 36.5057 133.065 36.9734 132.602 37.379C132.139 37.7928 131.604 38.1381 131.017 38.4015C130.422 38.6675 129.785 38.8529 129.127 38.9513C128.427 39.0523 127.719 39.1068 127.009 39.1144C126.678 39.1212 126.33 39.1251 125.993 39.1251L124.765 39.1271L9.56666 39.1251Z" fill="black"/>
<path d="M27.769 20.3007C27.7797 19.466 28.0014 18.6477 28.4135 17.9217C28.8255 17.1957 29.4145 16.5858 30.1256 16.1486C29.6738 15.5035 29.0779 14.9725 28.385 14.598C27.6922 14.2234 26.9216 14.0156 26.1344 13.991C24.4552 13.8147 22.8272 14.9958 21.9715 14.9958C21.0992 14.9958 19.7817 14.0085 18.363 14.0376C17.4453 14.0673 16.551 14.3341 15.7671 14.8122C14.9832 15.2903 14.3365 15.9632 13.8901 16.7655C11.9561 20.1139 13.3987 25.035 15.2513 27.7416C16.1782 29.0669 17.2615 30.5474 18.6789 30.4949C20.066 30.4374 20.584 29.6104 22.2583 29.6104C23.9171 29.6104 24.4031 30.4949 25.8493 30.4615C27.3377 30.4374 28.2754 29.1303 29.1698 27.7924C29.8358 26.848 30.3483 25.8043 30.6882 24.6999C29.8235 24.3341 29.0856 23.722 28.5665 22.9397C28.0474 22.1574 27.77 21.2396 27.769 20.3007V20.3007Z" fill="white"/>
<path d="M25.0373 12.2109C25.8489 11.2367 26.2487 9.98451 26.1518 8.72028C24.912 8.8505 23.7668 9.44306 22.9443 10.3799C22.5421 10.8376 22.2341 11.37 22.0379 11.9468C21.8416 12.5235 21.761 13.1333 21.8006 13.7413C22.4207 13.7477 23.0342 13.6132 23.5949 13.3482C24.1555 13.0831 24.6487 12.6942 25.0373 12.2109Z" fill="white"/>
<path d="M45.3025 27.1396H40.5691L39.4324 30.4961H37.4275L41.9109 18.0781H43.9939L48.4773 30.4961H46.4382L45.3025 27.1396ZM41.0593 25.5908H44.8113L42.9617 20.1435H42.91L41.0593 25.5908Z" fill="white"/>
<path d="M58.1599 25.9697C58.1599 28.7832 56.6541 30.5908 54.3816 30.5908C53.806 30.6209 53.2335 30.4883 52.7297 30.2082C52.2259 29.928 51.8112 29.5117 51.533 29.0068H51.49V33.4912H49.6316V21.4423H51.4305V22.9482H51.4646C51.7556 22.4457 52.1773 22.0316 52.6849 21.7497C53.1926 21.4679 53.7671 21.3289 54.3474 21.3476C56.6453 21.3476 58.1599 23.164 58.1599 25.9697ZM56.2498 25.9697C56.2498 24.1367 55.3025 22.9316 53.8572 22.9316C52.4373 22.9316 51.4822 24.1621 51.4822 25.9697C51.4822 27.7939 52.4373 29.0156 53.8572 29.0156C55.3025 29.0156 56.2498 27.8193 56.2498 25.9697Z" fill="white"/>
<path d="M68.1248 25.9697C68.1248 28.7832 66.6189 30.5908 64.3465 30.5908C63.7708 30.621 63.1983 30.4883 62.6945 30.2082C62.1907 29.9281 61.776 29.5117 61.4978 29.0068H61.4548V33.4912H59.5964V21.4424H61.3953V22.9483H61.4294C61.7204 22.4458 62.1421 22.0316 62.6498 21.7498C63.1574 21.4679 63.7319 21.329 64.3123 21.3477C66.6101 21.3477 68.1248 23.1641 68.1248 25.9697ZM66.2146 25.9697C66.2146 24.1367 65.2674 22.9317 63.822 22.9317C62.4021 22.9317 61.447 24.1621 61.447 25.9697C61.447 27.794 62.4021 29.0156 63.822 29.0156C65.2674 29.0156 66.2146 27.8194 66.2146 25.9697H66.2146Z" fill="white"/>
<path d="M74.7107 27.0361C74.8484 28.2676 76.0447 29.0761 77.6795 29.0761C79.2459 29.0761 80.3728 28.2675 80.3728 27.1572C80.3728 26.1933 79.6931 25.6162 78.0838 25.2207L76.4744 24.833C74.1941 24.2822 73.1355 23.2158 73.1355 21.4853C73.1355 19.3427 75.0027 17.871 77.6541 17.871C80.2781 17.871 82.0769 19.3427 82.1375 21.4853H80.2615C80.1492 20.246 79.1248 19.498 77.6277 19.498C76.1306 19.498 75.1062 20.2548 75.1062 21.3564C75.1062 22.2343 75.7605 22.7509 77.3611 23.1464L78.7292 23.4823C81.2771 24.0849 82.3357 25.1083 82.3357 26.9247C82.3357 29.248 80.4851 30.703 77.5417 30.703C74.7878 30.703 72.9285 29.2821 72.8083 27.036L74.7107 27.0361Z" fill="white"/>
<path d="M86.3464 19.2998V21.4424H88.0681V22.9141H86.3464V27.9053C86.3464 28.6807 86.6912 29.042 87.448 29.042C87.6524 29.0384 87.8564 29.0241 88.0593 28.999V30.4619C87.719 30.5255 87.3732 30.5543 87.0271 30.5478C85.1941 30.5478 84.4792 29.8593 84.4792 28.1035V22.9141H83.1628V21.4424H84.4792V19.2998H86.3464Z" fill="white"/>
<path d="M89.0652 25.9697C89.0652 23.1211 90.7429 21.3311 93.3591 21.3311C95.9841 21.3311 97.6541 23.1211 97.6541 25.9697C97.6541 28.8262 95.9929 30.6084 93.3591 30.6084C90.7263 30.6084 89.0652 28.8262 89.0652 25.9697ZM95.7605 25.9697C95.7605 24.0156 94.865 22.8623 93.3591 22.8623C91.8533 22.8623 90.9587 24.0244 90.9587 25.9697C90.9587 27.9316 91.8533 29.0762 93.3591 29.0762C94.865 29.0762 95.7605 27.9316 95.7605 25.9697H95.7605Z" fill="white"/>
<path d="M99.1863 21.4424H100.959V22.9834H101.002C101.122 22.5021 101.404 22.0768 101.8 21.7789C102.197 21.481 102.684 21.3287 103.179 21.3476C103.394 21.3469 103.607 21.3702 103.816 21.417V23.1553C103.546 23.0726 103.264 23.0347 102.981 23.043C102.711 23.032 102.442 23.0796 102.192 23.1825C101.942 23.2854 101.718 23.4411 101.534 23.639C101.35 23.8369 101.211 24.0723 101.126 24.3289C101.042 24.5856 101.014 24.8575 101.045 25.126V30.4961H99.1863L99.1863 21.4424Z" fill="white"/>
<path d="M112.385 27.8369C112.135 29.4805 110.534 30.6084 108.486 30.6084C105.852 30.6084 104.218 28.8437 104.218 26.0127C104.218 23.1729 105.861 21.3311 108.408 21.3311C110.913 21.3311 112.488 23.0518 112.488 25.7969V26.4336H106.094V26.5459C106.064 26.8791 106.106 27.2148 106.216 27.5306C106.326 27.8464 106.502 28.1352 106.733 28.3778C106.963 28.6203 107.242 28.8111 107.552 28.9374C107.862 29.0637 108.195 29.1226 108.529 29.1103C108.968 29.1515 109.409 29.0498 109.786 28.8203C110.162 28.5909 110.455 28.246 110.62 27.8369L112.385 27.8369ZM106.102 25.1348H110.629C110.645 24.8352 110.6 24.5354 110.495 24.2541C110.391 23.9729 110.229 23.7164 110.02 23.5006C109.812 23.2849 109.561 23.1145 109.284 23.0003C109.006 22.8861 108.708 22.8305 108.408 22.8369C108.105 22.8351 107.805 22.8933 107.525 23.008C107.245 23.1227 106.991 23.2918 106.776 23.5054C106.562 23.7191 106.392 23.973 106.276 24.2527C106.161 24.5323 106.102 24.8321 106.102 25.1348V25.1348Z" fill="white"/>
<path d="M40.8264 8.73101C41.216 8.70305 41.607 8.76191 41.9711 8.90335C42.3352 9.04478 42.6634 9.26526 42.932 9.54889C43.2006 9.83251 43.4029 10.1722 43.5243 10.5435C43.6457 10.9148 43.6832 11.3083 43.634 11.6959C43.634 13.6021 42.6038 14.6979 40.8264 14.6979H38.6711V8.73101H40.8264ZM39.5979 13.854H40.7229C41.0013 13.8707 41.2799 13.825 41.5384 13.7204C41.797 13.6158 42.0289 13.4548 42.2174 13.2493C42.4059 13.0437 42.5462 12.7987 42.6281 12.5321C42.7099 12.2655 42.7313 11.9839 42.6907 11.708C42.7284 11.4332 42.7048 11.1534 42.6217 10.8887C42.5386 10.6241 42.398 10.3811 42.2099 10.1771C42.0218 9.97322 41.791 9.81341 41.5339 9.70917C41.2768 9.60494 40.9999 9.55885 40.7229 9.57422H39.5979V13.854Z" fill="white"/>
<path d="M44.6809 12.4443C44.6526 12.1484 44.6865 11.8499 44.7803 11.5678C44.8742 11.2857 45.0259 11.0264 45.2259 10.8064C45.4258 10.5864 45.6695 10.4107 45.9414 10.2904C46.2132 10.1701 46.5072 10.108 46.8045 10.108C47.1017 10.108 47.3957 10.1701 47.6676 10.2904C47.9394 10.4107 48.1831 10.5864 48.3831 10.8064C48.583 11.0264 48.7348 11.2857 48.8286 11.5678C48.9225 11.8499 48.9563 12.1484 48.928 12.4443C48.9569 12.7406 48.9234 13.0396 48.8298 13.3221C48.7362 13.6046 48.5846 13.8644 48.3846 14.0848C48.1846 14.3052 47.9407 14.4814 47.6686 14.6019C47.3964 14.7225 47.1021 14.7847 46.8045 14.7847C46.5069 14.7847 46.2125 14.7225 45.9404 14.6019C45.6683 14.4814 45.4244 14.3052 45.2244 14.0848C45.0244 13.8644 44.8727 13.6046 44.7791 13.3221C44.6855 13.0396 44.6521 12.7406 44.6809 12.4443V12.4443ZM48.0139 12.4443C48.0139 11.4683 47.5755 10.8975 46.8059 10.8975C46.0335 10.8975 45.5989 11.4683 45.5989 12.4444C45.5989 13.4282 46.0335 13.9946 46.8059 13.9946C47.5755 13.9946 48.014 13.4243 48.014 12.4443H48.0139Z" fill="white"/>
<path d="M54.5735 14.6978H53.6516L52.721 11.3813H52.6506L51.7239 14.6978H50.8108L49.5696 10.1948H50.471L51.2776 13.6308H51.344L52.2698 10.1948H53.1223L54.0481 13.6308H54.1184L54.9211 10.1948H55.8098L54.5735 14.6978Z" fill="white"/>
<path d="M56.8538 10.1948H57.7092V10.9101H57.7756C57.8883 10.6532 58.0783 10.4378 58.3192 10.294C58.56 10.1502 58.8398 10.0852 59.1194 10.1079C59.3385 10.0914 59.5585 10.1244 59.7631 10.2045C59.9677 10.2846 60.1516 10.4097 60.3013 10.5706C60.451 10.7314 60.5626 10.9239 60.6278 11.1337C60.693 11.3435 60.7101 11.5653 60.678 11.7827V14.6977H59.7893V12.0058C59.7893 11.2822 59.4749 10.9223 58.8176 10.9223C58.6689 10.9154 58.5204 10.9407 58.3823 10.9966C58.2443 11.0524 58.1199 11.1374 58.0178 11.2458C57.9157 11.3542 57.8382 11.4834 57.7906 11.6245C57.7431 11.7656 57.7267 11.9154 57.7424 12.0635V14.6977H56.8538L56.8538 10.1948Z" fill="white"/>
<path d="M62.094 8.43701H62.9827V14.6978H62.094V8.43701Z" fill="white"/>
<path d="M64.218 12.4444C64.1897 12.1484 64.2236 11.8499 64.3175 11.5678C64.4113 11.2857 64.5631 11.0263 64.7631 10.8064C64.963 10.5864 65.2068 10.4106 65.4786 10.2903C65.7505 10.17 66.0445 10.1079 66.3418 10.1079C66.6391 10.1079 66.9331 10.17 67.205 10.2903C67.4768 10.4106 67.7206 10.5864 67.9205 10.8064C68.1205 11.0263 68.2723 11.2857 68.3661 11.5678C68.46 11.8499 68.4939 12.1484 68.4656 12.4444C68.4944 12.7406 68.4609 13.0396 68.3673 13.3221C68.2737 13.6046 68.122 13.8645 67.922 14.0849C67.722 14.3053 67.478 14.4814 67.2059 14.6019C66.9338 14.7225 66.6394 14.7847 66.3418 14.7847C66.0442 14.7847 65.7498 14.7225 65.4777 14.6019C65.2056 14.4814 64.9617 14.3053 64.7616 14.0849C64.5616 13.8645 64.4099 13.6046 64.3163 13.3221C64.2227 13.0396 64.1892 12.7406 64.218 12.4444V12.4444ZM67.551 12.4444C67.551 11.4683 67.1125 10.8975 66.343 10.8975C65.5706 10.8975 65.136 11.4683 65.136 12.4444C65.136 13.4283 65.5706 13.9947 66.343 13.9947C67.1126 13.9947 67.551 13.4244 67.551 12.4444H67.551Z" fill="white"/>
<path d="M69.4011 13.4243C69.4011 12.6138 70.0046 12.1465 71.0759 12.0801L72.2957 12.0098V11.6211C72.2957 11.1455 71.9812 10.877 71.3738 10.877C70.8777 10.877 70.5339 11.0591 70.4353 11.3774H69.575C69.6658 10.604 70.3933 10.1079 71.4148 10.1079C72.5437 10.1079 73.1804 10.6699 73.1804 11.6211V14.6978H72.325V14.0649H72.2546C72.1119 14.2919 71.9115 14.477 71.6739 14.6012C71.4363 14.7254 71.1699 14.7843 70.9021 14.7719C70.7131 14.7916 70.522 14.7714 70.3412 14.7127C70.1605 14.654 69.994 14.5581 69.8526 14.4311C69.7112 14.3042 69.598 14.149 69.5202 13.9756C69.4424 13.8021 69.4019 13.6144 69.4011 13.4243V13.4243ZM72.2957 13.0395V12.6631L71.196 12.7334C70.5759 12.7749 70.2947 12.9858 70.2947 13.3828C70.2947 13.7881 70.6462 14.0239 71.1297 14.0239C71.2713 14.0382 71.4144 14.0239 71.5504 13.9819C71.6864 13.9398 71.8126 13.8707 71.9213 13.7789C72.0301 13.6871 72.1193 13.5743 72.1836 13.4473C72.2479 13.3202 72.286 13.1816 72.2957 13.0395V13.0395Z" fill="white"/>
<path d="M74.3484 12.4444C74.3484 11.0215 75.0798 10.1201 76.2175 10.1201C76.4989 10.1072 76.7782 10.1746 77.0228 10.3145C77.2673 10.4544 77.4669 10.661 77.5984 10.9101H77.6648V8.43701H78.5535V14.6978H77.7019V13.9863H77.6316C77.49 14.2338 77.2834 14.4378 77.0341 14.5763C76.7849 14.7148 76.5025 14.7825 76.2175 14.772C75.072 14.772 74.3484 13.8706 74.3484 12.4444ZM75.2664 12.4444C75.2664 13.3994 75.7166 13.9741 76.4695 13.9741C77.2185 13.9741 77.6814 13.3911 77.6814 12.4483C77.6814 11.5098 77.2137 10.9185 76.4695 10.9185C75.7214 10.9185 75.2664 11.4971 75.2664 12.4444H75.2664Z" fill="white"/>
<path d="M82.2303 12.4443C82.202 12.1484 82.2358 11.8499 82.3296 11.5678C82.4235 11.2857 82.5752 11.0264 82.7752 10.8064C82.9751 10.5864 83.2188 10.4107 83.4907 10.2904C83.7625 10.1701 84.0565 10.108 84.3538 10.108C84.6511 10.108 84.9451 10.1701 85.2169 10.2904C85.4888 10.4107 85.7325 10.5864 85.9324 10.8064C86.1323 11.0264 86.2841 11.2857 86.3779 11.5678C86.4718 11.8499 86.5056 12.1484 86.4773 12.4443C86.5062 12.7406 86.4727 13.0396 86.3791 13.3221C86.2855 13.6046 86.1339 13.8644 85.9339 14.0848C85.7339 14.3052 85.49 14.4814 85.2179 14.6019C84.9457 14.7225 84.6514 14.7847 84.3538 14.7847C84.0562 14.7847 83.7618 14.7225 83.4897 14.6019C83.2176 14.4814 82.9737 14.3052 82.7737 14.0848C82.5737 13.8644 82.422 13.6046 82.3285 13.3221C82.2349 13.0396 82.2014 12.7406 82.2303 12.4443V12.4443ZM85.5633 12.4443C85.5633 11.4683 85.1248 10.8975 84.3553 10.8975C83.5828 10.8975 83.1483 11.4683 83.1483 12.4444C83.1483 13.4282 83.5828 13.9946 84.3553 13.9946C85.1248 13.9946 85.5633 13.4243 85.5633 12.4443Z" fill="white"/>
<path d="M87.6697 10.1948H88.5251V10.9101H88.5916C88.7042 10.6532 88.8942 10.4378 89.1351 10.294C89.376 10.1502 89.6557 10.0852 89.9353 10.1079C90.1544 10.0914 90.3744 10.1244 90.579 10.2045C90.7836 10.2846 90.9676 10.4097 91.1172 10.5706C91.2669 10.7314 91.3785 10.9239 91.4437 11.1337C91.5089 11.3435 91.5261 11.5653 91.4939 11.7827V14.6977H90.6052V12.0058C90.6052 11.2822 90.2908 10.9223 89.6336 10.9223C89.4848 10.9154 89.3363 10.9407 89.1982 10.9966C89.0602 11.0524 88.9358 11.1374 88.8337 11.2458C88.7316 11.3542 88.6541 11.4834 88.6066 11.6245C88.559 11.7656 88.5426 11.9154 88.5583 12.0635V14.6977H87.6697V10.1948Z" fill="white"/>
<path d="M96.5154 9.07373V10.2153H97.491V10.9639H96.5154V13.2793C96.5154 13.751 96.7097 13.9575 97.1521 13.9575C97.2654 13.9572 97.3785 13.9503 97.491 13.937V14.6772C97.3314 14.7058 97.1697 14.721 97.0076 14.7226C96.0193 14.7226 95.6257 14.375 95.6257 13.5068V10.9638H94.9109V10.2153H95.6257V9.07373H96.5154Z" fill="white"/>
<path d="M98.7048 8.43701H99.5857V10.9185H99.656C99.7741 10.6591 99.9694 10.4425 100.215 10.2982C100.461 10.1539 100.745 10.0888 101.029 10.1118C101.247 10.1 101.465 10.1364 101.667 10.2184C101.869 10.3004 102.051 10.4261 102.199 10.5864C102.347 10.7468 102.458 10.9378 102.524 11.146C102.59 11.3541 102.609 11.5742 102.58 11.7905V14.6978H101.69V12.0098C101.69 11.2905 101.355 10.9263 100.727 10.9263C100.575 10.9137 100.421 10.9347 100.277 10.9878C100.133 11.0408 100.003 11.1247 99.895 11.2334C99.787 11.3421 99.704 11.4732 99.652 11.6173C99.5999 11.7614 99.58 11.9152 99.5935 12.0679V14.6977H98.7049L98.7048 8.43701Z" fill="white"/>
<path d="M107.761 13.4819C107.641 13.8935 107.379 14.2495 107.022 14.4876C106.666 14.7258 106.237 14.8309 105.81 14.7847C105.514 14.7925 105.219 14.7357 104.946 14.6182C104.674 14.5006 104.43 14.3252 104.232 14.1041C104.034 13.8829 103.887 13.6214 103.8 13.3376C103.713 13.0537 103.69 12.7544 103.73 12.4605C103.691 12.1656 103.715 11.8656 103.801 11.581C103.888 11.2963 104.035 11.0335 104.231 10.8105C104.428 10.5874 104.671 10.4092 104.943 10.288C105.214 10.1668 105.509 10.1054 105.806 10.1079C107.059 10.1079 107.815 10.9639 107.815 12.3779V12.688H104.635V12.7378C104.621 12.9031 104.642 13.0694 104.696 13.2261C104.751 13.3829 104.837 13.5266 104.95 13.6481C105.063 13.7695 105.2 13.866 105.352 13.9314C105.504 13.9968 105.669 14.0297 105.835 14.0278C106.047 14.0533 106.263 14.0151 106.453 13.9178C106.644 13.8206 106.802 13.6689 106.906 13.4819L107.761 13.4819ZM104.635 12.0308H106.91C106.921 11.8796 106.9 11.7278 106.85 11.5851C106.799 11.4424 106.718 11.3119 106.614 11.2021C106.51 11.0922 106.383 11.0054 106.243 10.9472C106.103 10.8891 105.953 10.8608 105.801 10.8643C105.648 10.8623 105.495 10.8912 105.353 10.9491C105.21 11.0071 105.081 11.0929 104.972 11.2017C104.864 11.3104 104.778 11.4397 104.72 11.5821C104.662 11.7245 104.633 11.8771 104.635 12.0308H104.635Z" fill="white"/>
</svg>
