<?xml version="1.0" encoding="UTF-8"?>
<svg width="116px" height="40px" viewBox="0 0 116 40" version="1.1" xmlns="http://www.w3.org/2000/svg" xmlns:xlink="http://www.w3.org/1999/xlink">
    <!-- Generator: Sketch 48.2 (47327) - http://www.bohemiancoding.com/sketch -->
    <title>Appstore</title>
    <desc>Created with Sketch.</desc>
    <defs></defs>
    <g id="menu_320_full" stroke="none" stroke-width="1" fill="none" fill-rule="evenodd" transform="translate(-15.000000, -924.000000)">
        <g id="Mobile" transform="translate(15.000000, 924.000000)">
            <g id="Appstore">
                <g id="footer">
                    <g>
                        <g id="Footer">
                            <g id="Group">
                                <g id="Group-3">
                                    <g id="Store-Badges">
                                        <g id="Appstore" transform="translate(0.383694, 0.000000)">
                                            <rect id="Border" stroke="#E8EAEC" x="0.852578873" y="0.844827586" width="114.101071" height="38.2845617" rx="5"></rect>
                                            <g id="Content" transform="translate(6.812131, 6.662370)" fill="#000000">
                                                <path d="M11.0599015,1.77663186 C11.9749639,0.888315928 13.3475575,0.148052655 14.5676406,0 C14.720151,1.33247389 14.1101095,2.66494779 13.3475575,3.70131637 C12.4324951,4.5896323 11.2124119,5.32989557 9.83981831,5.32989557 C9.68730792,3.99742168 10.2973495,2.66494779 11.0599015,1.77663186" id="Fill-7"></path>
                                                <path d="M17.7703589,19.9871084 C16.8552966,21.3195823 15.7877239,22.8001088 14.1101095,22.8001088 C12.5850055,22.8001088 11.9749639,21.911793 10.1448391,21.911793 C8.31471435,21.911793 7.70467276,22.8001088 6.17956878,22.8001088 C4.65446481,22.8001088 3.43438164,21.3195823 2.51931925,19.9871084 C0.536684087,17.174108 -1.14093028,11.992265 0.994215279,8.43900132 C2.06178805,6.66236946 3.89191282,5.62600088 5.87454799,5.62600088 C7.39965196,5.62600088 8.92475594,6.66236946 9.83981831,6.66236946 C10.7548807,6.66236946 12.5850055,5.47794822 14.4151302,5.62600088 C15.1776822,5.62600088 17.3128278,5.92210619 18.6854214,7.8467907 C18.532911,7.8467907 16.0927447,9.32731726 16.0927447,12.1403177 C16.0927447,15.5455287 19.295463,16.7299499 19.295463,16.7299499 C19.4479734,16.8780026 18.9904422,18.3585292 17.7703589,19.9871084" id="Fill-9"></path>
                                                <path d="M69.0138524,21.7637403 C68.2513005,22.5040036 67.0312172,22.8001088 65.6586237,22.8001088 C64.2860301,22.8001088 63.2184574,22.5040036 62.4559054,22.0598455 L62.9134366,20.4312663 C63.8284989,20.8754243 64.7435613,21.1715297 65.8111341,21.1715297 C66.5736861,21.1715297 67.1837276,21.023477 67.4887484,20.7273717 C67.9462797,20.4312663 68.0987901,19.9871084 68.0987901,19.3948978 C68.0987901,18.9507399 67.9462797,18.5065818 67.6412589,18.2104766 C67.336238,17.9143712 66.7261965,17.6182659 65.9636445,17.3221606 C63.8284989,16.5818974 62.7609262,15.3974761 62.7609262,13.9169495 C62.7609262,12.880581 63.065947,12.1403177 63.8284989,11.5481071 C64.5910509,10.9558965 65.6586237,10.6597911 66.8787069,10.6597911 C67.9462797,10.6597911 69.0138524,10.8078438 69.623894,11.2520018 L69.1663628,12.7325283 C68.4038109,12.436423 67.6412589,12.1403177 66.7261965,12.1403177 C65.9636445,12.1403177 65.5061134,12.2883703 65.0485822,12.5844757 C64.7435613,12.880581 64.5910509,13.1766863 64.5910509,13.6208442 C64.5910509,14.0650022 64.7435613,14.5091601 65.2010926,14.8052655 C65.5061134,15.1013708 66.1161549,15.3974761 67.0312172,15.6935814 C68.0987901,16.1377393 68.861342,16.5818974 69.3188732,17.174108 C69.7764044,17.7663186 70.0814252,18.3585292 70.0814252,19.2468451 C70.0814252,20.2832137 69.7764044,21.1715297 69.0138524,21.7637403" id="Fill-20"></path>
                                                <path d="M76.6393723,15.5455287 L74.5042267,15.5455287 L74.5042267,19.691003 C74.5042267,20.7273717 74.9617579,21.3195823 75.72431,21.3195823 C76.0293308,21.3195823 76.3343515,21.3195823 76.6393723,21.1715297 L76.6393723,22.6520561 C76.1818411,22.8001088 75.72431,22.8001088 75.1142683,22.8001088 C74.3517163,22.8001088 73.7416748,22.5040036 73.2841436,22.0598455 C72.8266124,21.6156876 72.6741019,20.8754243 72.6741019,19.691003 L72.6741019,15.3974761 L71.3015084,15.3974761 L71.3015084,13.9169495 L72.5215915,13.9169495 L72.5215915,12.2883703 L74.5042267,11.6961597 L74.5042267,13.7688969 L76.6393723,13.7688969 L76.6393723,15.5455287 Z" id="Fill-22"></path>
                                                <path d="M92.9579848,15.6935814 L92.3479432,15.6935814 C91.5853913,15.6935814 91.1278601,15.9896868 90.6703288,16.4338447 C90.365308,16.8780026 90.2127976,17.4702132 90.2127976,18.0624239 L90.2127976,22.5040036 L88.2301624,22.5040036 L88.2301624,16.5818974 L88.2301624,13.9169495 L89.9077769,13.9169495 L89.9077769,15.5455287 C90.0602872,14.9533181 90.5178184,14.5091601 90.8228392,14.2130549 C91.2803705,13.9169495 91.7379017,13.7688969 92.1954328,13.7688969 L92.652964,13.7688969 L92.652964,15.6935814 L92.9579848,15.6935814 Z" id="Fill-24"></path>
                                                <path d="M44.1546576,5.92210619 C43.8496369,5.92210619 43.3921057,5.92210619 43.0870849,5.62600088 L43.0870849,3.55326371 C43.3921057,3.2571584 43.8496369,2.96105309 44.3071682,2.96105309 C45.2222305,2.96105309 45.6797617,3.55326371 45.6797617,4.44157964 C45.6797617,5.32989557 45.0697201,6.07015884 44.1546576,5.92210619 M44.6121889,2.36884248 C44.0021472,2.36884248 43.3921057,2.66494779 43.0870849,2.96105309 L43.0870849,2.51689513 L42.324533,2.51689513 L42.324533,8.43900132 L43.0870849,8.43900132 L43.0870849,6.36626415 C43.3921057,6.51431681 43.8496369,6.66236946 44.3071682,6.66236946 C45.6797617,6.66236946 46.594824,5.77405353 46.594824,4.44157964 C46.594824,3.2571584 45.832272,2.36884248 44.6121889,2.36884248" id="Fill-26"></path>
                                                <path d="M83.9598714,20.4312663 C83.5023402,21.1715297 82.8922985,21.4676349 82.1297466,21.4676349 C81.3671946,21.4676349 80.7571531,21.1715297 80.2996218,20.4312663 C79.994601,19.8390557 79.8420906,19.0987924 79.8420906,18.3585292 C79.8420906,17.4702132 79.994601,16.8780026 80.2996218,16.285792 C80.7571531,15.5455287 81.3671946,15.2494234 82.1297466,15.2494234 C82.8922985,15.2494234 83.5023402,15.6935814 84.1123818,16.285792 C84.4174026,16.8780026 84.569913,17.6182659 84.569913,18.3585292 C84.569913,19.0987924 84.2648922,19.8390557 83.9598714,20.4312663 M85.4849753,15.1013708 C84.569913,14.3611074 83.6548506,13.9169495 82.282257,13.9169495 C80.9096635,13.9169495 79.8420906,14.3611074 79.0795387,15.2494234 C78.3169867,16.1377393 77.8594554,17.174108 77.8594554,18.5065818 C77.8594554,19.691003 78.3169867,20.7273717 79.0795387,21.6156876 C79.8420906,22.3559509 80.7571531,22.8001088 82.1297466,22.8001088 C83.3498298,22.8001088 84.569913,22.3559509 85.3324649,21.4676349 C86.095017,20.7273717 86.5525482,19.5429505 86.5525482,18.2104766 C86.5525482,17.0260553 86.2475274,15.8416341 85.4849753,15.1013708" id="Fill-28"></path>
                                                <g id="Group-5" transform="translate(28.206310, 0.000000)">
                                                    <path d="M25.4039925,4.73768495 L24.6414405,4.73768495 L24.6414405,4.14547433 L25.2514821,4.14547433 C25.7090133,4.14547433 26.014034,3.84936902 26.014034,3.55326371 C26.014034,3.10910575 25.7090133,2.96105309 25.0989717,2.96105309 C24.4889302,2.96105309 24.031399,3.2571584 23.8788886,3.40521106 L23.5738677,2.81300044 C23.8788886,2.51689513 24.6414405,2.22078982 25.2514821,2.22078982 C26.3190548,2.22078982 26.9290965,2.66494779 26.9290965,3.40521106 C26.9290965,3.84936902 26.7765861,4.14547433 26.1665444,4.44157964 C26.7765861,4.44157964 27.0816069,4.88573761 27.0816069,5.47794822 C27.0816069,6.2182115 26.3190548,6.66236946 25.2514821,6.66236946 C24.6414405,6.66236946 23.7263781,6.36626415 23.4213573,6.07015884 L23.8788886,5.47794822 C24.1839094,5.77405353 24.7939509,5.92210619 25.0989717,5.92210619 C25.7090133,5.92210619 26.1665444,5.62600088 26.1665444,5.18184292 C26.3190548,5.03379026 26.014034,4.73768495 25.4039925,4.73768495" id="Fill-1"></path>
                                                    <path d="M8.47533841,5.32989557 C8.32282801,5.62600088 8.01780722,5.92210619 7.40776564,5.92210619 C6.95023444,5.92210619 6.64521365,5.77405353 6.64521365,5.32989557 C6.64521365,4.88573761 7.10274484,4.5896323 7.56027602,4.5896323 C7.86529683,4.5896323 8.17031762,4.73768495 8.47533841,4.88573761 L8.47533841,5.32989557 Z M7.56027602,2.22078982 C7.10274484,2.22078982 6.49270325,2.36884248 6.18768245,2.66494779 L6.34019286,3.2571584 C6.79772404,3.10910575 7.10274484,2.96105309 7.56027602,2.96105309 C8.47533841,2.96105309 8.6278488,3.55326371 8.47533841,4.29352699 C8.17031762,3.99742168 7.71278643,3.99742168 7.40776564,3.99742168 C6.49270325,3.99742168 5.73015126,4.44157964 5.73015126,5.32989557 C5.73015126,6.2182115 6.34019286,6.66236946 7.10274484,6.66236946 C7.86529683,6.66236946 8.17031762,6.36626415 8.47533841,6.07015884 L8.47533841,6.36626415 L9.2378904,6.36626415 L9.2378904,3.84936902 C9.2378904,2.81300044 8.78035921,2.22078982 7.56027602,2.22078982 Z" id="Fill-3"></path>
                                                    <path d="M2.67994332,3.70131637 L1.91739134,3.70131637 L1.91739134,2.96105309 L2.67994332,2.96105309 C3.28998491,2.96105309 3.7475161,2.51689513 3.7475161,1.92468451 C3.7475161,1.18442124 3.28998491,0.888315928 2.52743292,0.888315928 C1.91739134,0.888315928 1.45986014,1.18442124 1.00232895,1.6285792 L0.544797756,1.18442124 C1.00232895,0.592210619 1.76488093,0.296105309 2.67994332,0.296105309 C3.90002649,0.296105309 4.66257848,0.888315928 4.66257848,2.07273717 C4.66257848,2.66494779 4.35755769,3.2571584 3.7475161,3.55326371 C4.51006809,3.70131637 4.96759927,4.29352699 4.96759927,5.03379026 C4.96759927,6.2182115 3.90002649,6.95847477 2.67994332,6.95847477 C1.61237053,6.95847477 0.849818551,6.51431681 0.544797756,5.92210619 L1.00232895,5.32989557 C1.45986014,5.77405353 2.06990173,6.07015884 2.67994332,6.07015884 C3.5950057,6.07015884 4.20504728,5.62600088 4.20504728,4.88573761 C4.0525369,4.14547433 3.5950057,3.70131637 2.67994332,3.70131637" id="Fill-5"></path>
                                                    <polygon id="Fill-12" points="11.373036 6.66236946 10.610484 6.66236946 10.610484 2.51689513 13.3556711 2.51689513 13.3556711 3.2571584 11.373036 3.2571584"></polygon>
                                                    <path d="M19.7611078,8.43900132 C19.456087,8.43900132 19.1510663,8.29094866 18.9985559,8.14289601 L19.3035766,7.55068539 C19.456087,7.55068539 19.6085974,7.69873806 19.7611078,7.69873806 C20.0661286,7.69873806 20.3711494,7.40263274 20.6761701,6.81042212 L20.8286805,6.66236946 L18.8460455,2.51689513 L19.7611078,2.51689513 L20.9811909,5.18184292 C21.1337013,5.32989557 21.1337013,5.62600088 21.2862118,5.77405353 C21.2862118,5.62600088 21.4387222,5.32989557 21.4387222,5.18184292 L22.3537846,2.51689513 L23.2688469,2.51689513 L21.5912326,6.66236946 C20.6761701,8.14289601 20.3711494,8.43900132 19.7611078,8.43900132" id="Fill-14"></path>
                                                    <polygon id="Fill-16" points="32.2669604 6.66236946 31.5044083 6.66236946 31.5044083 3.55326371 29.0642421 6.66236946 28.30169 6.66236946 28.30169 2.51689513 29.0642421 2.51689513 29.0642421 5.62600088 31.5044083 2.51689513 32.2669604 2.51689513"></polygon>
                                                    <polygon id="Fill-18" points="33.0295124 2.51689513 36.9947828 2.51689513 36.9947828 3.2571584 35.4696787 3.2571584 35.4696787 6.66236946 34.7071268 6.66236946 34.7071268 3.2571584 33.1820227 3.2571584 33.1820227 2.51689513"></polygon>
                                                    <path d="M38.2148659,4.14547433 C38.3673763,3.55326371 38.8249074,3.10910575 39.5874595,3.10910575 C40.3500115,3.10910575 40.8075426,3.40521106 40.8075426,4.14547433 L38.2148659,4.14547433 Z M41.5700946,4.29352699 C41.5700946,3.10910575 40.6550322,2.36884248 39.5874595,2.36884248 C38.2148659,2.36884248 37.4523139,3.2571584 37.2998035,4.5896323 C37.2998035,5.92210619 38.2148659,6.81042212 39.5874595,6.81042212 C40.1975011,6.81042212 40.8075426,6.51431681 41.2650738,6.2182115 L41.1125634,5.47794822 C40.8075426,5.77405353 40.3500115,5.92210619 39.7399699,5.92210619 C38.8249074,5.92210619 38.2148659,5.47794822 38.2148659,4.73768495 L41.5700946,4.73768495 L41.5700946,4.29352699 Z" id="Fill-30"></path>
                                                    <path d="M46.4504273,6.07015884 L45.535365,6.07015884 L45.535365,4.73768495 L46.4504273,4.73768495 C47.2129794,4.73768495 47.5180002,4.88573761 47.5180002,5.32989557 C47.5180002,5.77405353 47.0604688,6.07015884 46.4504273,6.07015884 Z M45.535365,2.96105309 L46.4504273,2.96105309 C46.9079585,2.96105309 47.3654898,3.10910575 47.3654898,3.55326371 C47.3654898,3.99742168 47.0604688,4.29352699 46.4504273,4.14547433 L45.535365,4.14547433 L45.535365,2.96105309 Z M47.2129794,4.44157964 C47.8230209,4.44157964 48.1280417,3.99742168 48.1280417,3.55326371 C48.1280417,2.81300044 47.5180002,2.51689513 46.2979169,2.51689513 L44.772813,2.51689513 L44.772813,6.66236946 L46.2979169,6.66236946 C47.6705105,6.66236946 48.2805521,6.2182115 48.2805521,5.47794822 C48.2805521,4.88573761 47.8230209,4.5896323 47.2129794,4.44157964 Z" id="Fill-32"></path>
                                                </g>
                                                <path d="M31.1912739,17.6182659 L32.2588467,14.5091601 C32.5638675,13.4727916 32.7163779,12.7325283 32.8688883,12.2883703 C33.1739091,13.4727916 33.3264195,14.2130549 33.4789298,14.5091601 L34.5465027,17.6182659 L31.1912739,17.6182659 Z M34.2414819,10.8078438 L31.8013156,10.8078438 L27.8360452,22.6520561 L29.8186804,22.6520561 L30.8862531,19.0987924 L34.8515235,19.0987924 L36.0716066,22.6520561 L38.2067522,22.6520561 L34.2414819,10.8078438 Z" id="Fill-34"></path>
                                                <path d="M95.8556823,17.4702132 C96.0081927,16.8780026 96.1607032,16.4338447 96.465724,15.9896868 C96.7707448,15.5455287 97.3807863,15.2494234 97.9908279,15.2494234 C98.6008694,15.2494234 99.2109111,15.3974761 99.5159319,15.9896868 C99.8209527,16.4338447 99.9734631,16.8780026 99.9734631,17.4702132 L95.8556823,17.4702132 Z M101.651078,17.9143712 C101.651078,16.8780026 101.346057,15.9896868 100.888525,15.2494234 C100.278484,14.3611074 99.2109111,13.9169495 97.9908279,13.9169495 C96.7707448,13.9169495 95.7031719,14.3611074 94.94062,15.2494234 C94.178068,16.1377393 93.8730472,17.174108 93.8730472,18.5065818 C93.8730472,19.8390557 94.3305784,20.8754243 95.0931304,21.6156876 C95.8556823,22.3559509 96.9232552,22.8001088 98.2958487,22.8001088 C99.5159319,22.8001088 100.430994,22.5040036 101.346057,22.2078982 L101.041036,20.8754243 C100.278484,21.1715297 99.5159319,21.3195823 98.6008694,21.3195823 C97.8383175,21.3195823 97.0757656,21.1715297 96.6182344,20.7273717 C96.0081927,20.2832137 95.7031719,19.691003 95.7031719,18.8026872 L101.651078,18.8026872 C101.803588,18.5065818 101.803588,18.3585292 101.651078,17.9143712 Z" id="Fill-36"></path>
                                                <path d="M55.8979583,20.4312663 C55.5929375,21.023477 54.9828959,21.3195823 54.2203439,21.3195823 C53.6103023,21.3195823 53.1527711,21.1715297 52.69524,20.7273717 C52.2377088,20.2832137 52.0851984,19.691003 52.0851984,19.0987924 L52.0851984,17.6182659 C52.0851984,17.4702132 52.2377088,17.3221606 52.2377088,17.0260553 C52.3902192,16.5818974 52.5427296,16.1377393 53.0002608,15.8416341 C53.4577919,15.5455287 53.9153231,15.3974761 54.3728543,15.3974761 C54.9828959,15.3974761 55.5929375,15.6935814 55.8979583,16.1377393 C56.3554895,16.7299499 56.5079998,17.3221606 56.5079998,18.2104766 C56.5079998,19.0987924 56.3554895,19.8390557 55.8979583,20.4312663 M57.5755727,15.2494234 C56.965531,14.5091601 56.0504687,14.0650022 54.9828959,14.0650022 C53.6103023,14.0650022 52.5427296,14.5091601 51.9326879,15.5455287 L51.7801775,14.2130549 L50.1025632,14.2130549 L50.1025632,17.0260553 L50.1025632,26.2053199 L52.0851984,26.2053199 L52.0851984,21.7637403 C52.69524,22.5040036 53.4577919,22.9481615 54.6778752,22.9481615 C55.7454479,22.9481615 56.6605102,22.5040036 57.4230623,21.7637403 C58.1856143,20.8754243 58.6431454,19.691003 58.6431454,18.3585292 C58.6431454,17.0260553 58.3381246,15.9896868 57.5755727,15.2494234" id="Fill-38"></path>
                                                <path d="M45.5272513,20.4312663 C45.2222305,21.023477 44.6121889,21.3195823 43.8496369,21.3195823 C43.2395953,21.3195823 42.7820641,21.1715297 42.324533,20.7273717 C41.8670018,20.2832137 41.7144914,19.691003 41.7144914,19.0987924 L41.7144914,17.6182659 C41.7144914,17.4702132 41.8670018,17.3221606 41.8670018,17.0260553 C42.0195122,16.5818974 42.1720226,16.1377393 42.6295537,15.8416341 C43.0870849,15.5455287 43.5446161,15.3974761 44.0021472,15.3974761 C44.7646993,15.3974761 45.3747409,15.6935814 45.5272513,16.1377393 C45.9847824,16.7299499 46.1372928,17.3221606 46.1372928,18.2104766 C46.1372928,19.0987924 45.9847824,19.8390557 45.5272513,20.4312663 M47.3573761,15.2494234 C46.7473344,14.5091601 45.832272,14.0650022 44.7646993,14.0650022 C43.3921057,14.0650022 42.324533,14.5091601 41.7144914,15.5455287 L41.5619809,14.2130549 L39.8843666,14.2130549 L39.8843666,17.0260553 L39.8843666,26.2053199 L41.8670018,26.2053199 L41.8670018,21.7637403 C42.4770434,22.5040036 43.2395953,22.9481615 44.4596785,22.9481615 C45.5272513,22.9481615 46.4423136,22.5040036 47.2048657,21.7637403 C47.9674176,20.8754243 48.4249488,19.691003 48.4249488,18.3585292 C48.4249488,17.0260553 48.119928,15.9896868 47.3573761,15.2494234" id="Fill-40"></path>
                                            </g>
                                        </g>
                                    </g>
                                </g>
                            </g>
                        </g>
                    </g>
                </g>
            </g>
        </g>
    </g>
</svg>