<?xml version="1.0" encoding="UTF-8"?>
<svg width="120px" height="40px" viewBox="0 0 120 40" version="1.1" xmlns="http://www.w3.org/2000/svg" xmlns:xlink="http://www.w3.org/1999/xlink">
    <!-- Generator: Sketch 48.2 (47327) - http://www.bohemiancoding.com/sketch -->
    <title>Google play</title>
    <desc>Created with Sketch.</desc>
    <defs>
        <polygon id="path-1" points="0 26.734684 105.194911 26.734684 105.194911 0.163586895 0 0.163586895"></polygon>
        <polygon id="path-3" points="0 26.734684 105.194911 26.734684 105.194911 0.163586895 0 0.163586895"></polygon>
        <polygon id="path-5" points="0 26.734684 105.194911 26.734684 105.194911 0.163586895 0 0.163586895"></polygon>
        <polygon id="path-7" points="0 26.734684 105.194911 26.734684 105.194911 0.163586895 0 0.163586895"></polygon>
        <polygon id="path-9" points="0 26.734684 105.194911 26.734684 105.194911 0.163586895 0 0.163586895"></polygon>
        <polygon id="path-11" points="0 26.734684 105.194911 26.734684 105.194911 0.163586895 0 0.163586895"></polygon>
        <polygon id="path-13" points="0 26.734684 105.194911 26.734684 105.194911 0.163586895 0 0.163586895"></polygon>
        <polygon id="path-15" points="0 26.734684 105.194911 26.734684 105.194911 0.163586895 0 0.163586895"></polygon>
    </defs>
    <g id="menu_320_full_press" stroke="none" stroke-width="1" fill="none" fill-rule="evenodd" transform="translate(-154.000000, -924.000000)">
        <g id="Mobile" transform="translate(15.000000, 924.000000)">
            <g id="Google-play" transform="translate(139.000000, 0.000000)">
                <g id="Google-Play">
                    <g id="footer">
                        <g>
                            <g id="Footer">
                                <g id="Group">
                                    <g id="Group-3">
                                        <g id="Store-Badges">
                                            <g id="Google-Play">
                                                <rect id="Border" fill="#349FDF" x="0.351793457" y="0.344827586" width="119.375972" height="39.2845617" rx="5"></rect>
                                                <g id="Content" transform="translate(6.796956, 6.498156)">
                                                    <path d="M34.3658223,21.4047884 C33.236429,22.5021199 31.7843521,23.1291663 29.8482493,23.1291663 C26.2987278,23.1291663 23.3945739,20.307457 23.3945739,16.858701 C23.3945739,13.409945 26.2987278,10.5882356 29.8482493,10.5882356 C31.7843521,10.5882356 33.236429,11.3720438 34.2044804,12.3126136 L32.9137453,13.5667066 C32.1070358,12.9396601 31.1389845,12.3126136 29.8482493,12.3126136 C27.2667791,12.3126136 25.3306765,14.3505148 25.3306765,16.858701 C25.3306765,19.3668872 27.2667791,21.4047884 29.8482493,21.4047884 C31.4616683,21.4047884 32.4297196,20.7777418 33.0750872,20.1506953 C33.5591128,19.6804103 33.8817966,18.8966022 34.0431385,17.9560324 L29.8482493,17.9560324 L29.8482493,16.388416 L35.8178992,16.388416 C35.8178992,16.7019393 35.9792411,17.0154626 35.9792411,17.4857474 C35.8178992,18.7398406 35.4952155,20.307457 34.3658223,21.4047884 Z" id="Fill-1" fill="#FFFFFF"></path>
                                                    <path d="M40.6581559,21.5615501 C39.5287627,21.5615501 38.3993695,20.6209801 38.3993695,19.2101255 C38.3993695,17.7992708 39.3674208,16.858701 40.6581559,16.858701 C41.7875491,16.858701 42.9169423,17.7992708 42.9169423,19.2101255 C42.9169423,20.6209801 41.948891,21.5615501 40.6581559,21.5615501 M40.6581559,15.2910847 C38.2380275,15.2910847 36.4632668,16.858701 36.4632668,19.2101255 C36.4632668,21.4047884 38.3993695,23.1291663 40.6581559,23.1291663 C42.9169423,23.1291663 44.6917031,21.5615501 44.853045,19.2101255 C44.853045,17.0154626 42.9169423,15.2910847 40.6581559,15.2910847" id="Fill-3" fill="#FFFFFF"></path>
                                                    <path d="M51.7907462,19.2101255 C51.7907462,20.6209801 50.661353,21.5615501 49.5319598,21.5615501 C48.4025666,21.5615501 47.2731734,20.6209801 47.2731734,19.2101255 C47.2731734,17.7992708 48.2412247,16.858701 49.5319598,16.858701 C50.8226949,16.858701 51.9520881,17.7992708 51.7907462,19.2101255 M49.5319598,15.2910847 C47.1118315,15.2910847 45.3370706,16.858701 45.3370706,19.2101255 C45.3370706,21.4047884 47.2731734,23.1291663 49.5319598,23.1291663 C51.7907462,23.1291663 53.726849,21.5615501 53.726849,19.2101255 C53.726849,17.0154626 51.7907462,15.2910847 49.5319598,15.2910847" id="Fill-5" fill="#FFFFFF"></path>
                                                    <path d="M58.5671055,21.7183116 C57.2763705,21.7183116 56.3083191,20.7777418 56.3083191,19.3668872 C56.3083191,17.9560324 57.2763705,16.858701 58.5671055,16.858701 C59.8578406,16.858701 60.825892,17.7992708 60.825892,19.3668872 C60.825892,20.7777418 59.8578406,21.7183116 58.5671055,21.7183116 Z M60.6645501,15.4478462 L60.6645501,16.0748928 C60.3418663,15.6046079 59.5351569,15.134323 58.5671055,15.134323 C56.6310029,15.134323 54.6949003,17.0154626 54.6949003,19.2101255 C54.6949003,21.4047884 56.469661,23.1291663 58.5671055,23.1291663 C59.5351569,23.1291663 60.1805244,22.6588814 60.6645501,22.1885966 L60.6645501,22.815643 C60.6645501,24.3832594 59.6964988,25.1670676 58.4057637,25.1670676 C57.2763705,25.1670676 56.6310029,24.3832594 56.3083191,23.7562128 L54.6949003,24.3832594 C55.1789258,25.4805909 56.469661,26.734684 58.4057637,26.734684 C60.5032082,26.734684 62.2779689,25.6373526 62.2779689,22.6588814 L62.4393108,22.6588814 L62.4393108,15.4478462 L60.6645501,15.4478462 Z" id="Fill-7" fill="#FFFFFF"></path>
                                                    <g id="Fill-9-Clipped" transform="translate(0.000000, 0.000000)">
                                                        <mask id="mask-2" fill="white">
                                                            <use xlink:href="#path-1"></use>
                                                        </mask>
                                                        <g id="path-1"></g>
                                                        <polygon id="Fill-9" fill="#FFFFFF" mask="url(#mask-2)" points="63.568704 22.9724047 65.3434649 22.9724047 65.3434649 11.2152821 63.568704 11.2152821"></polygon>
                                                    </g>
                                                    <g id="Fill-11-Clipped" transform="translate(0.000000, 0.000000)">
                                                        <mask id="mask-4" fill="white">
                                                            <use xlink:href="#path-3"></use>
                                                        </mask>
                                                        <g id="path-1"></g>
                                                        <path d="M70.1837215,16.7019393 C70.829089,16.7019393 71.4744567,17.1722243 71.7971405,17.6425091 L68.086277,19.0533639 C67.9249351,17.4857474 69.2156702,16.7019393 70.1837215,16.7019393 M70.3450635,21.5615501 C69.3770121,21.5615501 68.7316445,21.2480268 68.5703026,20.4642186 L74.0559269,18.2695557 L73.894585,17.7992708 C73.5719012,17.0154626 72.442508,15.2910847 70.3450635,15.2910847 C68.2476188,15.2910847 66.4728581,16.858701 66.4728581,19.2101255 C66.4728581,21.4047884 68.2476188,23.1291663 70.5064054,23.1291663 C72.2811661,23.1291663 73.4105593,22.0318349 73.894585,21.4047884 L72.442508,20.4642186 C71.9584822,21.0912651 71.3131148,21.5615501 70.3450635,21.5615501" id="Fill-11" fill="#FFFFFF" mask="url(#mask-4)"></path>
                                                    </g>
                                                    <g id="Fill-12-Clipped" transform="translate(0.000000, 0.000000)">
                                                        <mask id="mask-6" fill="white">
                                                            <use xlink:href="#path-5"></use>
                                                        </mask>
                                                        <g id="path-1"></g>
                                                        <polygon id="Fill-12" fill="#FFFFFF" mask="url(#mask-6)" points="87.1246198 22.9724047 88.8993805 22.9724047 88.8993805 11.2152821 87.1246198 11.2152821"></polygon>
                                                    </g>
                                                    <g id="Fill-13-Clipped" transform="translate(0.000000, 0.000000)">
                                                        <mask id="mask-8" fill="white">
                                                            <use xlink:href="#path-7"></use>
                                                        </mask>
                                                        <g id="path-1"></g>
                                                        <path d="M93.0942697,21.5615501 C92.4489021,21.5615501 91.6421927,21.4047884 91.6421927,20.6209801 C91.6421927,19.6804103 92.610244,19.3668872 93.5782953,19.2101255 C94.3850048,19.2101255 94.7076887,19.5236487 95.1917142,19.6804103 C95.0303723,20.7777418 94.062321,21.5615501 93.0942697,21.5615501 M93.4169535,15.134323 C92.1262184,15.134323 90.6741414,15.6046079 90.1901157,16.858701 L91.8035346,17.4857474 C92.1262184,16.858701 92.7715859,16.7019393 93.4169535,16.7019393 C94.3850048,16.7019393 95.3530561,17.3289859 95.3530561,18.2695557 L95.3530561,18.4263174 C95.0303723,18.2695557 94.2236629,17.9560324 93.4169535,17.9560324 C91.6421927,17.9560324 89.867432,18.8966022 89.867432,20.6209801 C89.867432,22.1885966 91.3195089,23.1291663 92.9329278,23.1291663 C94.062321,23.1291663 94.7076887,22.6588814 95.1917142,22.0318349 L95.1917142,22.9724047 L96.9664751,22.9724047 L97.127817,22.9724047 L97.127817,18.4263174 C97.127817,16.2316545 95.514398,15.134323 93.4169535,15.134323" id="Fill-13" fill="#FFFFFF" mask="url(#mask-8)"></path>
                                                    </g>
                                                    <g id="Fill-14-Clipped" transform="translate(0.000000, 0.000000)">
                                                        <mask id="mask-10" fill="white">
                                                            <use xlink:href="#path-9"></use>
                                                        </mask>
                                                        <g id="path-1"></g>
                                                        <polygon id="Fill-14" fill="#FFFFFF" mask="url(#mask-10)" points="100.354655 26.5779223 98.418552 26.5779223 100.193313 22.6588814 96.9664751 15.6046079 98.9025777 15.6046079 101.000022 20.6209801 103.097467 15.6046079 105.194911 15.6046079"></polygon>
                                                    </g>
                                                    <g id="Fill-15-Clipped" transform="translate(0.000000, 0.000000)">
                                                        <mask id="mask-12" fill="white">
                                                            <use xlink:href="#path-11"></use>
                                                        </mask>
                                                        <g id="path-1"></g>
                                                        <path d="M82.1230213,17.0154626 L79.541551,17.0154626 L79.541551,12.9396601 L82.1230213,12.9396601 C83.4137564,12.9396601 84.2204658,13.8802299 84.2204658,14.9775614 C84.2204658,15.9181312 83.4137564,17.0154626 82.1230213,17.0154626 M82.1230213,11.2152821 L77.7667903,11.2152821 L77.7667903,22.9724047 L79.541551,22.9724047 L79.541551,18.5830789 L82.1230213,18.5830789 C84.0591239,18.5830789 85.9952266,17.1722243 86.1565685,14.8207997 C86.1565685,12.6261368 84.0591239,11.2152821 82.1230213,11.2152821" id="Fill-15" fill="#FFFFFF" mask="url(#mask-12)"></path>
                                                    </g>
                                                    <g id="Fill-16-Clipped" transform="translate(0.000000, 0.000000)">
                                                        <mask id="mask-14" fill="white">
                                                            <use xlink:href="#path-13"></use>
                                                        </mask>
                                                        <g id="path-1"></g>
                                                        <path d="M17.5862658,12.1558519 L13.7140605,10.1179507 L2.25878644,4.16100858 C1.77476077,3.84748531 1.29073511,3.84748531 0.968051332,3.84748531 C0.322683777,4.16100858 0,4.63129348 0,5.41510166 L0,21.2480268 C0,22.0318349 0.322683777,22.5021199 0.806709443,22.6588814 L1.29073511,22.6588814 C1.61341889,22.6588814 1.93610266,22.6588814 2.09744456,22.3453582 L13.5527186,16.388416 L17.5862658,14.3505148 C18.0702915,14.1937532 18.3929753,13.7234683 18.3929753,13.2531833 C18.3929753,12.7828985 18.0702915,12.4693752 17.5862658,12.1558519 Z" id="Fill-16" fill="#FFFFFF" mask="url(#mask-14)"></path>
                                                    </g>
                                                    <g id="Fill-16-Copy-Clipped" transform="translate(0.000000, 0.000000)">
                                                        <mask id="mask-16" fill="white">
                                                            <use xlink:href="#path-15"></use>
                                                        </mask>
                                                        <g id="path-1"></g>
                                                        <path d="M19.2275096,13.2340222 C19.2275096,13.2340222 19.2275096,13.4291061 18.825942,13.6241899 L14.4086981,15.9651963 L11.5977247,13.2340222 L14.6094819,10.5028482 L19.0267258,12.8438545 C19.2275096,13.0389383 19.4282935,13.2340222 19.2275096,13.2340222 Z M1.55853406,22.7931314 L10.7945895,14.0143577 L13.404779,16.5504479 L1.55853406,22.7931314 Z M-0.850871698,23.5734669 L-0.850871698,23.1832992 L-0.850871698,3.47982916 L-0.850871698,3.08966143 L9.99145421,13.2340222 L-0.850871698,23.5734669 Z M13.404779,9.91759661 L10.7945895,12.4536868 L1.75931787,3.86999688 L13.404779,9.91759661 Z M17.5862658,12.1558519 L13.7140605,10.1179507 L2.25878644,4.16100858 C1.77476077,3.84748531 1.29073511,3.84748531 0.968051332,3.84748531 C0.322683777,4.16100858 -1.2768675e-12,4.63129348 -1.2768675e-12,5.41510166 L-1.2768675e-12,21.2480268 C-1.2768675e-12,22.0318349 0.322683777,22.5021199 0.806709443,22.6588814 L1.29073511,22.6588814 C1.61341889,22.6588814 1.93610266,22.6588814 2.09744456,22.3453582 L13.5527186,16.388416 L17.5862658,14.3505148 C18.0702915,14.1937532 18.3929753,13.7234683 18.3929753,13.2531833 C18.3929753,12.7828985 18.0702915,12.4693752 17.5862658,12.1558519 Z" id="Fill-16-Copy" fill="#349FDF" mask="url(#mask-16)"></path>
                                                    </g>
                                                    <path d="M39.5334985,6.08631999 C39.2284778,6.08631999 38.7709466,6.08631999 38.4659258,5.79021468 L38.4659258,3.7174775 C38.7709466,3.42137219 39.2284778,3.12526688 39.6860091,3.12526688 C40.6010714,3.12526688 41.0586026,3.7174775 41.0586026,4.60579343 C41.0586026,5.49410937 40.448561,6.23437263 39.5334985,6.08631999 M39.9910298,2.53305628 C39.3809882,2.53305628 38.7709466,2.82916159 38.4659258,3.12526688 L38.4659258,2.68110892 L37.7033739,2.68110892 L37.7033739,8.60321512 L38.4659258,8.60321512 L38.4659258,6.53047794 C38.7709466,6.67853061 39.2284778,6.82658326 39.6860091,6.82658326 C41.0586026,6.82658326 41.9736649,5.93826732 41.9736649,4.60579343 C41.9736649,3.42137219 41.211113,2.53305628 39.9910298,2.53305628" id="Fill-26" fill="#FFFFFF"></path>
                                                    <g id="Group-5" transform="translate(23.585151, 0.164214)" fill="#FFFFFF">
                                                        <path d="M25.4039925,4.73768495 L24.6414405,4.73768495 L24.6414405,4.14547433 L25.2514821,4.14547433 C25.7090133,4.14547433 26.014034,3.84936902 26.014034,3.55326371 C26.014034,3.10910575 25.7090133,2.96105309 25.0989717,2.96105309 C24.4889302,2.96105309 24.031399,3.2571584 23.8788886,3.40521106 L23.5738677,2.81300044 C23.8788886,2.51689513 24.6414405,2.22078982 25.2514821,2.22078982 C26.3190548,2.22078982 26.9290965,2.66494779 26.9290965,3.40521106 C26.9290965,3.84936902 26.7765861,4.14547433 26.1665444,4.44157964 C26.7765861,4.44157964 27.0816069,4.88573761 27.0816069,5.47794822 C27.0816069,6.2182115 26.3190548,6.66236946 25.2514821,6.66236946 C24.6414405,6.66236946 23.7263781,6.36626415 23.4213573,6.07015884 L23.8788886,5.47794822 C24.1839094,5.77405353 24.7939509,5.92210619 25.0989717,5.92210619 C25.7090133,5.92210619 26.1665444,5.62600088 26.1665444,5.18184292 C26.3190548,5.03379026 26.014034,4.73768495 25.4039925,4.73768495" id="Fill-1"></path>
                                                        <path d="M8.47533841,5.32989557 C8.32282801,5.62600088 8.01780722,5.92210619 7.40776564,5.92210619 C6.95023444,5.92210619 6.64521365,5.77405353 6.64521365,5.32989557 C6.64521365,4.88573761 7.10274484,4.5896323 7.56027602,4.5896323 C7.86529683,4.5896323 8.17031762,4.73768495 8.47533841,4.88573761 L8.47533841,5.32989557 Z M7.56027602,2.22078982 C7.10274484,2.22078982 6.49270325,2.36884248 6.18768245,2.66494779 L6.34019286,3.2571584 C6.79772404,3.10910575 7.10274484,2.96105309 7.56027602,2.96105309 C8.47533841,2.96105309 8.6278488,3.55326371 8.47533841,4.29352699 C8.17031762,3.99742168 7.71278643,3.99742168 7.40776564,3.99742168 C6.49270325,3.99742168 5.73015126,4.44157964 5.73015126,5.32989557 C5.73015126,6.2182115 6.34019286,6.66236946 7.10274484,6.66236946 C7.86529683,6.66236946 8.17031762,6.36626415 8.47533841,6.07015884 L8.47533841,6.36626415 L9.2378904,6.36626415 L9.2378904,3.84936902 C9.2378904,2.81300044 8.78035921,2.22078982 7.56027602,2.22078982 Z" id="Fill-3"></path>
                                                        <path d="M2.67994332,3.70131637 L1.91739134,3.70131637 L1.91739134,2.96105309 L2.67994332,2.96105309 C3.28998491,2.96105309 3.7475161,2.51689513 3.7475161,1.92468451 C3.7475161,1.18442124 3.28998491,0.888315928 2.52743292,0.888315928 C1.91739134,0.888315928 1.45986014,1.18442124 1.00232895,1.6285792 L0.544797756,1.18442124 C1.00232895,0.592210619 1.76488093,0.296105309 2.67994332,0.296105309 C3.90002649,0.296105309 4.66257848,0.888315928 4.66257848,2.07273717 C4.66257848,2.66494779 4.35755769,3.2571584 3.7475161,3.55326371 C4.51006809,3.70131637 4.96759927,4.29352699 4.96759927,5.03379026 C4.96759927,6.2182115 3.90002649,6.95847477 2.67994332,6.95847477 C1.61237053,6.95847477 0.849818551,6.51431681 0.544797756,5.92210619 L1.00232895,5.32989557 C1.45986014,5.77405353 2.06990173,6.07015884 2.67994332,6.07015884 C3.5950057,6.07015884 4.20504728,5.62600088 4.20504728,4.88573761 C4.0525369,4.14547433 3.5950057,3.70131637 2.67994332,3.70131637" id="Fill-5"></path>
                                                        <polygon id="Fill-12" points="11.373036 6.66236946 10.610484 6.66236946 10.610484 2.51689513 13.3556711 2.51689513 13.3556711 3.2571584 11.373036 3.2571584"></polygon>
                                                        <path d="M19.7611078,8.43900132 C19.456087,8.43900132 19.1510663,8.29094866 18.9985559,8.14289601 L19.3035766,7.55068539 C19.456087,7.55068539 19.6085974,7.69873806 19.7611078,7.69873806 C20.0661286,7.69873806 20.3711494,7.40263274 20.6761701,6.81042212 L20.8286805,6.66236946 L18.8460455,2.51689513 L19.7611078,2.51689513 L20.9811909,5.18184292 C21.1337013,5.32989557 21.1337013,5.62600088 21.2862118,5.77405353 C21.2862118,5.62600088 21.4387222,5.32989557 21.4387222,5.18184292 L22.3537846,2.51689513 L23.2688469,2.51689513 L21.5912326,6.66236946 C20.6761701,8.14289601 20.3711494,8.43900132 19.7611078,8.43900132" id="Fill-14"></path>
                                                        <polygon id="Fill-16" points="32.2669604 6.66236946 31.5044083 6.66236946 31.5044083 3.55326371 29.0642421 6.66236946 28.30169 6.66236946 28.30169 2.51689513 29.0642421 2.51689513 29.0642421 5.62600088 31.5044083 2.51689513 32.2669604 2.51689513"></polygon>
                                                        <polygon id="Fill-18" points="33.0295124 2.51689513 36.9947828 2.51689513 36.9947828 3.2571584 35.4696787 3.2571584 35.4696787 6.66236946 34.7071268 6.66236946 34.7071268 3.2571584 33.1820227 3.2571584 33.1820227 2.51689513"></polygon>
                                                        <path d="M38.2148659,4.14547433 C38.3673763,3.55326371 38.8249074,3.10910575 39.5874595,3.10910575 C40.3500115,3.10910575 40.8075426,3.40521106 40.8075426,4.14547433 L38.2148659,4.14547433 Z M41.5700946,4.29352699 C41.5700946,3.10910575 40.6550322,2.36884248 39.5874595,2.36884248 C38.2148659,2.36884248 37.4523139,3.2571584 37.2998035,4.5896323 C37.2998035,5.92210619 38.2148659,6.81042212 39.5874595,6.81042212 C40.1975011,6.81042212 40.8075426,6.51431681 41.2650738,6.2182115 L41.1125634,5.47794822 C40.8075426,5.77405353 40.3500115,5.92210619 39.7399699,5.92210619 C38.8249074,5.92210619 38.2148659,5.47794822 38.2148659,4.73768495 L41.5700946,4.73768495 L41.5700946,4.29352699 Z" id="Fill-30"></path>
                                                        <path d="M46.4504273,6.07015884 L45.535365,6.07015884 L45.535365,4.73768495 L46.4504273,4.73768495 C47.2129794,4.73768495 47.5180002,4.88573761 47.5180002,5.32989557 C47.5180002,5.77405353 47.0604688,6.07015884 46.4504273,6.07015884 Z M45.535365,2.96105309 L46.4504273,2.96105309 C46.9079585,2.96105309 47.3654898,3.10910575 47.3654898,3.55326371 C47.3654898,3.99742168 47.0604688,4.29352699 46.4504273,4.14547433 L45.535365,4.14547433 L45.535365,2.96105309 Z M47.2129794,4.44157964 C47.8230209,4.44157964 48.1280417,3.99742168 48.1280417,3.55326371 C48.1280417,2.81300044 47.5180002,2.51689513 46.2979169,2.51689513 L44.772813,2.51689513 L44.772813,6.66236946 L46.2979169,6.66236946 C47.6705105,6.66236946 48.2805521,6.2182115 48.2805521,5.47794822 C48.2805521,4.88573761 47.8230209,4.5896323 47.2129794,4.44157964 Z" id="Fill-32"></path>
                                                    </g>
                                                </g>
                                            </g>
                                        </g>
                                    </g>
                                </g>
                            </g>
                        </g>
                    </g>
                </g>
            </g>
        </g>
    </g>
</svg>