<?xml version="1.0" encoding="utf-8"?>
<!-- Generator: Adobe Illustrator 26.1.0, SVG Export Plug-In . SVG Version: 6.00 Build 0)  -->
<svg version="1.1" id="Layer_1" xmlns="http://www.w3.org/2000/svg" xmlns:xlink="http://www.w3.org/1999/xlink" x="0px" y="0px"
	 width="116px" height="40px" viewBox="0 0 116 40" style="enable-background:new 0 0 116 40;" xml:space="preserve">
<style type="text/css">
	.st0{fill:#349FDF;}
	.st1{fill-rule:evenodd;clip-rule:evenodd;fill:#FFFFFF;}
	.st2{fill-rule:evenodd;clip-rule:evenodd;fill:#349FDF;}
	.st3{fill:#FFFFFF;}
</style>
<g id="Border">
	<path class="st0" d="M110.3,39.6H6.2c-3,0-5.5-2.5-5.5-5.5V5.8c0-3,2.5-5.5,5.5-5.5h104.1c3,0,5.5,2.5,5.5,5.5v28.3
		C115.8,37.2,113.4,39.6,110.3,39.6z"/>
</g>
<g id="ic_ag_00000124859382459586066910000001628824408554018738_">
	<g id="编组_00000147179248095963548580000011990311495702063500_" transform="translate(2.000000, 2.000000)">
		<path id="Fill-1_00000176030722425316878850000001139596908480024471_" class="st1" d="M11.5,6.3C6.8,6.3,5,8,5,12.7v10.1
			c0,4.7,1.7,6.4,6.4,6.4h10c4.7,0,6.4-1.7,6.4-6.4V12.7c0-4.7-1.7-6.4-6.4-6.4H11.5z"/>
		<path id="Fill-1_00000021118589739337782910000016575135488812668861_" class="st2" d="M15,19.6H16l-0.5-1.1L15,19.6z M14.8,20.1
			l-0.3,0.6h-0.6l1.3-3h0.5l1.3,3h-0.6l-0.3-0.6H14.8z M24.8,20.8h0.6v-3h-0.6V20.8z M22.4,19.5h1.1v-0.5h-1.1v-0.6H24v-0.5h-2.2v3
			h2.3v-0.5h-1.7V19.5z M20,19.8l-0.7-2.1h-0.5l-0.7,2.1l-0.7-2.1h-0.6l1,3h0.5l0.7-2l0.7,2h0.5l1-3h-0.6L20,19.8z M13,19.5
			c0,0.5-0.2,0.7-0.7,0.7c-0.4,0-0.7-0.3-0.7-0.8v-1.7H11v1.7c0,0.8,0.5,1.3,1.3,1.3c0.8,0,1.3-0.5,1.3-1.4v-1.7H13V19.5z M9.6,17.8
			h0.6v3H9.6v-1.2H8.2v1.2H7.6v-3h0.6V19h1.4V17.8z"/>
		<path id="Fill-3_00000081615062773047757960000016143869435107069839_" class="st2" d="M16.5,14c-2.1,0-3.8-1.7-3.8-3.8h0.5
			c0,1.8,1.5,3.3,3.3,3.3s3.3-1.5,3.3-3.3h0.5C20.3,12.2,18.6,14,16.5,14"/>
	</g>
</g>
<g>
	<path class="st3" d="M43.2,25.9h-4.6l-1,2.8h-1.5l4.1-10.9h1.3l4.2,10.9h-1.5L43.2,25.9z M39,24.7h3.7l-1.9-5.1L39,24.7z"/>
	<path class="st3" d="M53.4,24.8c0,1.2-0.3,2.2-0.8,3c-0.6,0.8-1.3,1.1-2.3,1.1c-1,0-1.8-0.3-2.3-0.9v3.9h-1.4V20.7h1.3l0.1,0.9
		c0.6-0.7,1.3-1,2.3-1c1,0,1.7,0.4,2.3,1.1c0.6,0.7,0.8,1.7,0.8,3.1V24.8z M52,24.6c0-0.9-0.2-1.6-0.6-2.2c-0.4-0.5-0.9-0.8-1.6-0.8
		c-0.8,0-1.5,0.4-1.9,1.1v3.9c0.4,0.7,1,1.1,1.9,1.1c0.7,0,1.2-0.3,1.6-0.8C51.8,26.5,52,25.7,52,24.6z"/>
	<path class="st3" d="M62,24.8c0,1.2-0.3,2.2-0.8,3c-0.6,0.8-1.3,1.1-2.3,1.1c-1,0-1.8-0.3-2.3-0.9v3.9h-1.4V20.7h1.3l0.1,0.9
		c0.6-0.7,1.3-1,2.3-1c1,0,1.7,0.4,2.3,1.1c0.6,0.7,0.8,1.7,0.8,3.1V24.8z M60.6,24.6c0-0.9-0.2-1.6-0.6-2.2
		c-0.4-0.5-0.9-0.8-1.6-0.8c-0.8,0-1.5,0.4-1.9,1.1v3.9c0.4,0.7,1,1.1,1.9,1.1c0.7,0,1.2-0.3,1.6-0.8C60.4,26.5,60.6,25.7,60.6,24.6
		z"/>
	<path class="st3" d="M72,27.3c-0.4,0.5-0.9,0.9-1.5,1.2c-0.7,0.3-1.4,0.4-2.3,0.4c-0.9,0-1.7-0.2-2.4-0.6c-0.7-0.4-1.2-1-1.6-1.8
		c-0.4-0.8-0.6-1.7-0.6-2.7v-0.9c0-1.6,0.4-2.9,1.1-3.8c0.8-0.9,1.8-1.4,3.2-1.4c1.1,0,2,0.3,2.7,0.9c0.7,0.6,1.1,1.4,1.3,2.5h-1.4
		c-0.3-1.4-1.1-2.2-2.6-2.2c-1,0-1.7,0.3-2.2,1c-0.5,0.7-0.7,1.7-0.7,2.9v0.9c0,1.2,0.3,2.2,0.8,2.9c0.6,0.7,1.3,1.1,2.3,1.1
		c0.5,0,1-0.1,1.4-0.2c0.4-0.1,0.7-0.3,1-0.6v-2.4H68v-1.2H72V27.3z"/>
	<path class="st3" d="M79.1,28.8c-0.1-0.2-0.1-0.4-0.2-0.9c-0.6,0.7-1.4,1-2.3,1c-0.8,0-1.4-0.2-2-0.7c-0.5-0.5-0.8-1-0.8-1.7
		c0-0.8,0.3-1.5,1-2c0.6-0.5,1.5-0.7,2.7-0.7h1.3v-0.6c0-0.5-0.1-0.9-0.4-1.2c-0.3-0.3-0.7-0.4-1.3-0.4c-0.5,0-0.9,0.1-1.2,0.4
		c-0.3,0.2-0.5,0.5-0.5,0.9h-1.4c0-0.4,0.1-0.8,0.4-1.2c0.3-0.4,0.7-0.7,1.2-0.9c0.5-0.2,1-0.3,1.6-0.3c0.9,0,1.7,0.2,2.2,0.7
		c0.5,0.5,0.8,1.1,0.8,1.9v3.7c0,0.7,0.1,1.3,0.3,1.8v0.1H79.1z M76.8,27.7c0.4,0,0.8-0.1,1.2-0.3c0.4-0.2,0.7-0.5,0.8-0.9v-1.7
		h-1.1c-1.7,0-2.5,0.5-2.5,1.5c0,0.4,0.1,0.8,0.4,1S76.4,27.7,76.8,27.7z"/>
	<path class="st3" d="M84,28.8h-1.4V17.3H84V28.8z"/>
	<path class="st3" d="M87.7,28.8h-1.4V17.3h1.4V28.8z"/>
	<path class="st3" d="M93.2,28.9c-1.1,0-2-0.4-2.7-1.1c-0.7-0.7-1-1.7-1-2.9v-0.3c0-0.8,0.2-1.5,0.5-2.1s0.7-1.1,1.3-1.5
		c0.5-0.4,1.1-0.5,1.8-0.5c1,0,1.9,0.3,2.4,1c0.6,0.7,0.9,1.7,0.9,3v0.6h-5.5c0,0.8,0.3,1.4,0.7,1.9c0.4,0.5,1,0.7,1.7,0.7
		c0.5,0,0.9-0.1,1.2-0.3c0.3-0.2,0.6-0.5,0.9-0.8l0.8,0.7C95.6,28.4,94.6,28.9,93.2,28.9z M93,21.7c-0.6,0-1,0.2-1.4,0.6
		c-0.4,0.4-0.6,1-0.7,1.7h4v-0.1c0-0.7-0.2-1.2-0.6-1.6C94.1,21.9,93.6,21.7,93,21.7z"/>
	<path class="st3" d="M101.9,21.9c-0.2,0-0.4-0.1-0.7-0.1c-0.9,0-1.5,0.4-1.8,1.2v5.7H98v-8.1h1.3l0,0.9c0.5-0.7,1.1-1.1,1.9-1.1
		c0.3,0,0.5,0,0.6,0.1V21.9z"/>
	<path class="st3" d="M105.9,26.7l1.9-6.1h1.5L106,30c-0.5,1.3-1.3,2-2.4,2l-0.3,0l-0.5-0.1v-1.1l0.4,0c0.5,0,0.8-0.1,1.1-0.3
		c0.3-0.2,0.5-0.5,0.6-1l0.3-0.8l-2.9-8h1.5L105.9,26.7z"/>
</g>
<g>
	<path class="st3" d="M40.2,10.9c0,0.5-0.1,0.9-0.2,1.3c-0.2,0.4-0.4,0.6-0.7,0.8c-0.3,0.2-0.6,0.3-1,0.3c-0.4,0-0.7-0.1-1-0.3
		c-0.3-0.2-0.5-0.5-0.7-0.8c-0.2-0.3-0.2-0.8-0.3-1.2v-0.4c0-0.5,0.1-0.9,0.2-1.2c0.2-0.4,0.4-0.6,0.7-0.8c0.3-0.2,0.6-0.3,1-0.3
		c0.4,0,0.7,0.1,1,0.3S39.8,9,40,9.3c0.2,0.4,0.2,0.8,0.2,1.3V10.9z M39.6,10.6c0-0.6-0.1-1-0.3-1.3c-0.2-0.3-0.6-0.5-1-0.5
		c-0.4,0-0.7,0.2-1,0.5c-0.2,0.3-0.4,0.7-0.4,1.3v0.4c0,0.6,0.1,1,0.4,1.3c0.2,0.3,0.6,0.5,1,0.5c0.4,0,0.7-0.2,1-0.5
		c0.2-0.3,0.3-0.7,0.4-1.3V10.6z"/>
	<path class="st3" d="M43.8,10h-1.2v3.1h-0.6V10h-1.2V9.5h3V10z"/>
	<path class="st3" d="M45.5,11.6h-0.5v1.5h-0.6V9.5h0.6v1.5h0.4l1.2-1.5h0.8L46,11.3l1.6,1.9h-0.8L45.5,11.6z"/>
	<path class="st3" d="M51.2,11.4c0,0.6-0.1,1-0.4,1.3c-0.3,0.3-0.6,0.5-1,0.5c-0.4,0-0.8-0.1-1-0.4v1.7h-0.6v-5h0.6l0,0.4
		c0.3-0.3,0.6-0.5,1.1-0.5c0.4,0,0.8,0.2,1,0.5C51,10.3,51.2,10.8,51.2,11.4L51.2,11.4z M50.5,11.3c0-0.4-0.1-0.7-0.3-1
		c-0.2-0.2-0.4-0.4-0.7-0.4c-0.4,0-0.7,0.2-0.8,0.5v1.7c0.2,0.3,0.5,0.5,0.9,0.5c0.3,0,0.5-0.1,0.7-0.4
		C50.5,12.1,50.5,11.8,50.5,11.3z"/>
	<path class="st3" d="M51.8,11.3c0-0.4,0.1-0.7,0.2-1c0.1-0.3,0.3-0.5,0.6-0.7c0.2-0.2,0.5-0.2,0.9-0.2c0.5,0,0.9,0.2,1.2,0.5
		c0.3,0.3,0.5,0.8,0.5,1.4v0c0,0.4-0.1,0.7-0.2,1c-0.1,0.3-0.3,0.5-0.6,0.7c-0.3,0.2-0.5,0.2-0.9,0.2c-0.5,0-0.9-0.2-1.2-0.5
		C51.9,12.4,51.8,11.9,51.8,11.3L51.8,11.3z M52.4,11.4c0,0.4,0.1,0.7,0.3,1c0.2,0.2,0.4,0.4,0.7,0.4c0.3,0,0.6-0.1,0.8-0.4
		c0.2-0.2,0.3-0.6,0.3-1c0-0.4-0.1-0.7-0.3-1C54,10.1,53.8,10,53.4,10c-0.3,0-0.6,0.1-0.7,0.4C52.5,10.6,52.4,10.9,52.4,11.4z"/>
	<path class="st3" d="M58.2,9.5h0.6v3.6h-0.6v-2.6l-1.7,2.6h-0.6V9.5h0.6v2.7L58.2,9.5z M58.4,8.2c0,0.3-0.1,0.5-0.3,0.7
		c-0.2,0.2-0.4,0.2-0.7,0.2S56.8,9,56.7,8.9c-0.2-0.2-0.3-0.4-0.3-0.7h0.5c0,0.2,0,0.3,0.1,0.4c0.1,0.1,0.2,0.1,0.4,0.1
		c0.2,0,0.3,0,0.4-0.1c0.1-0.1,0.1-0.2,0.1-0.4H58.4z"/>
	<path class="st3" d="M62.5,10h-1.2v3.1h-0.6V10h-1.2V9.5h3V10z"/>
	<path class="st3" d="M64.4,13.2c-0.5,0-0.9-0.2-1.2-0.5c-0.3-0.3-0.5-0.8-0.5-1.3v-0.1c0-0.4,0.1-0.7,0.2-1
		c0.1-0.3,0.3-0.5,0.6-0.7c0.2-0.2,0.5-0.2,0.8-0.2c0.5,0,0.8,0.2,1.1,0.5c0.3,0.3,0.4,0.8,0.4,1.3v0.3h-2.5c0,0.4,0.1,0.6,0.3,0.9
		c0.2,0.2,0.5,0.3,0.8,0.3c0.2,0,0.4,0,0.6-0.1c0.2-0.1,0.3-0.2,0.4-0.4l0.4,0.3C65.5,13,65,13.2,64.4,13.2z M64.3,10
		c-0.3,0-0.5,0.1-0.6,0.3c-0.2,0.2-0.3,0.4-0.3,0.8h1.8v0c0-0.3-0.1-0.6-0.3-0.7C64.8,10.1,64.6,10,64.3,10z"/>
	<path class="st3" d="M68.3,13.2V9.5h1.4c0.5,0,0.9,0.1,1.1,0.3c0.3,0.2,0.4,0.4,0.4,0.7c0,0.2-0.1,0.3-0.2,0.5
		c-0.1,0.1-0.2,0.2-0.4,0.3c0.2,0.1,0.4,0.2,0.5,0.3c0.1,0.2,0.2,0.3,0.2,0.5c0,0.3-0.1,0.6-0.4,0.8c-0.2,0.2-0.6,0.3-1,0.3H68.3z
		 M68.9,11.1h0.8c0.6,0,0.9-0.2,0.9-0.5c0-0.3-0.3-0.5-0.8-0.5h-0.8V11.1z M68.9,11.6v1.1h1c0.3,0,0.5,0,0.6-0.1
		c0.1-0.1,0.2-0.2,0.2-0.4c0-0.4-0.3-0.5-0.8-0.5H68.9z"/>
</g>
</svg>
