<?xml version="1.0" encoding="utf-8" ?>
<svg xmlns="http://www.w3.org/2000/svg" xmlns:xlink="http://www.w3.org/1999/xlink" width="137" height="20">
	<defs>
		<clipPath id="clip_0">
			<rect x="-652" y="-40" width="1440" height="840" clip-rule="evenodd"/>
		</clipPath>
	</defs>
	<g clip-path="url(#clip_0)">
		<path fill="rgb(255,255,255)" stroke="none" transform="translate(16 7)" d="M0 2.46519C0 3.85117 1.10741 5 2.4928 5C3.88208 5 5 3.85117 5 2.46519C5 1.08006 3.88208 0 2.4928 0C1.10741 0 0 1.08006 0 2.46519Z"/>
	</g>
	<defs>
		<clipPath id="clip_1">
			<rect x="-652" y="-40" width="1440" height="840" clip-rule="evenodd"/>
		</clipPath>
	</defs>
	<g clip-path="url(#clip_1)">
		<path fill="rgb(0,0,0)" stroke="none" d="M136.695 1.44013C135.427 0.725384 133.492 0.193912 130.395 0.0170504C125.781 -0.172644 124.354 1.25686 123.39 2.49578C122.361 3.67094 121.519 7.6705 122.653 9.18594C123.707 10.6794 124.478 11.0441 126.472 11.4474C128.464 11.9148 130.535 12.4736 129.432 14.1065C128.797 15.1131 127.985 15.008 127.305 14.9202C127.199 14.9064 127.095 14.893 126.996 14.8844C126.265 14.821 122.957 14.2776 122.519 14.1723C122.1 14.0506 121.45 14.3076 121.308 14.6858C121.101 15.0008 120.49 16.9266 120.291 17.3575C120.128 17.7233 120.256 18.7991 120.701 18.9608C121.986 19.5148 123.84 19.8015 126.99 19.9667C130.541 20.2188 132.929 19.02 134.308 17.0177C135.687 15.0145 135.801 11.9608 135.111 10.4421C134.26 8.65283 131.677 7.8378 130.554 7.58599C130.463 7.56508 130.365 7.54368 130.263 7.52131C129.037 7.25204 127.171 6.84244 128.026 5.46638C128.67 4.55989 129.89 4.67149 130.533 4.74235C131.64 4.86617 133.973 5.62522 134.259 5.73567C134.748 5.96509 135.489 5.82365 135.709 5.40925C135.994 4.92938 136.72 3.2979 136.843 2.9181C136.934 2.68178 137.213 1.80027 136.695 1.44013ZM64.5486 0.089133L60.9658 0.089133C60.9513 0.089133 60.9363 0.0890732 60.9208 0.0890116C60.6436 0.0879104 60.2198 0.0862263 59.999 0.414938C59.8302 0.694326 59.7159 1.26286 59.7159 1.26286L56.1103 17.8006C56.1103 17.8006 55.7785 18.9159 56.2377 19.3483C56.697 19.8449 57.4814 19.7843 57.4814 19.7843L60.3615 19.7843C60.3952 19.7843 60.4282 19.7844 60.4605 19.7845C60.9086 19.7859 61.2195 19.7869 61.5125 19.4984C61.9192 18.9444 62.6604 14.785 62.6604 14.785C62.6604 14.785 65.466 1.39085 65.5195 1.09303C65.5731 0.730162 65.3914 0.089133 64.5486 0.089133ZM38.5963 0.309749C39.5574 0.431525 40.2482 0.605042 40.4538 1.13133C40.6319 1.47884 40.597 1.81106 40.5642 2.06915C40.5405 2.33612 39.293 7.45718 39.2533 7.62592C39.2122 7.79432 39.1617 8.02647 38.8904 8.32183C38.641 8.55856 38.4084 8.59835 38.1574 8.59835C37.9244 8.59835 34.7061 8.58818 34.7061 8.58818C34.7061 8.58818 34.3121 8.60204 34.1144 8.47426C33.9326 8.3656 33.9586 8.16802 33.9845 7.97121C33.9885 7.94076 33.9925 7.91034 33.9957 7.88026C34.0188 7.72019 34.5721 5.04965 34.5721 5.04965C34.5721 5.04965 34.6719 4.70358 34.6026 4.70358L32.8335 4.70358C32.2187 4.70358 31.6374 4.92317 31.3107 5.39327C30.9727 5.79881 30.1877 7.42626 29.7238 9.79734C29.241 12.1681 29.19 12.641 29.2023 13.2279C29.2139 13.8157 29.4436 14.2034 29.731 14.5246C30.0011 14.779 30.6678 15.0008 31.0506 14.9972C31.4707 14.9936 32.1886 14.9538 32.9377 14.832C33.6867 14.7096 34.6334 14.4329 35.0726 14.2852C35.509 14.1837 36.2631 14.0568 36.6337 14.4886C37.0326 14.8568 37.8466 16.7432 37.6814 17.7595C37.5004 18.8427 33.5947 20.0372 29.9004 19.9506C26.2275 19.865 25.1683 19.2273 24.2243 18.083C23.2809 16.8743 22.8665 15.4523 23.1535 13.4C23.4405 11.3494 24.2243 5.11286 26.8641 2.67578C28.5593 0.979721 30.4238 0.508113 31.1201 0.381764C31.8155 0.255687 33.0503 0.0874947 34.7001 0.105106C36.3599 0.126198 37.6323 0.122717 38.5963 0.309749ZM15.2497 0.192472C15.2497 0.192472 17.6004 0.192472 18.0107 0.269537C18.4218 0.327353 18.6538 0.806197 18.3751 1.34859C18.2266 1.7531 10.1148 12.4291 10.1148 12.4291C10.1148 12.4291 8.65576 17.7743 8.52671 18.3125C8.42923 18.8516 8.34861 19.0849 8.10975 19.3804C7.87513 19.737 7.45858 19.8475 7.19301 19.8475C6.96017 19.8475 5.32555 19.8402 5.32555 19.8402C5.32555 19.8402 3.59736 19.8277 3.26726 19.7942C2.83707 19.7422 2.32367 19.1988 2.45916 18.4714C2.5926 17.7446 3.67778 12.2423 3.67778 12.2423C3.67778 12.2423 1.10176 4.84855 0.293729 2.51939C0.123711 2.06293 0 1.66716 0 1.21105C0 0.75275 0.107271 0.454931 0.439361 0.329606C0.711111 0.193174 1.17273 0.196507 1.96563 0.202232C2.14189 0.203504 2.33451 0.204895 2.54506 0.204895C3.86232 0.204895 4.25722 0.211107 4.57253 0.211107C4.88763 0.211107 5.36234 0.321074 5.61134 0.825856C5.85157 1.32873 7.27027 6.38242 7.31603 6.55915C7.36193 6.80168 7.73546 6.83273 7.88698 6.69976C8.05488 6.51621 12.006 0.855071 12.1099 0.696777C12.3543 0.391518 12.58 0.270766 13.0499 0.21609C13.5847 0.148581 15.2497 0.192472 15.2497 0.192472ZM47.0952 14.8397L53.9996 14.8397C54.2189 14.8397 54.6126 14.961 54.6905 15.2864C54.768 15.5436 54.7396 15.9249 54.6184 16.5129C54.4775 17.2223 54.4775 17.2223 54.1306 18.3078C53.8404 19.3289 53.6571 19.4309 53.5509 19.5993C53.446 19.7159 53.2213 19.8388 52.7189 19.8388L41.9054 19.8388C41.9054 19.8388 41.0788 19.8998 40.6724 19.4042C40.2148 18.9708 40.5328 17.855 40.5328 17.855L44.1507 1.31729C44.1507 1.31729 44.2646 0.748825 44.4369 0.469846C44.633 0.164504 45.018 0.174023 45.2901 0.18075C45.3274 0.181671 45.3625 0.18254 45.3948 0.18254L48.9819 0.18254C49.8258 0.18254 50.0085 0.784866 49.9548 1.14746C49.9012 1.44528 47.0952 14.8397 47.0952 14.8397ZM120.819 4.90574C120.925 4.78793 121.044 4.7013 121.4 3.61399C121.69 2.59146 121.69 2.59146 121.822 1.88421C122.008 1.23178 122.037 0.84987 121.959 0.59369C121.817 0.333142 121.487 0.192458 121.268 0.192458C121.074 0.192458 117.602 0.187816 115.431 0.184881C115.367 0.182151 115.312 0.182833 115.268 0.184676L113.708 0.18256L113.699 0.190683C111.352 0.187816 106.993 0.18256 106.788 0.18256C106.285 0.18256 106.061 0.332118 105.956 0.45014C105.85 0.566318 105.667 0.653281 105.376 1.74066C105.085 2.7632 105.085 2.7632 104.888 3.47003C104.767 4.12389 104.738 4.50396 104.816 4.76199C104.894 5.0211 105.288 5.14288 105.508 5.14288C105.79 5.14288 109.939 5.14493 109.939 5.14493C109.939 5.14493 107.149 18.5395 107.063 18.9034C107.009 19.2 107.257 19.8412 108.099 19.8412L111.682 19.8412C111.694 19.8412 111.708 19.8413 111.723 19.8414C111.954 19.8427 112.426 19.8454 112.584 19.5807C112.817 19.236 112.932 18.7255 112.932 18.7255L115.883 5.14445C117.863 5.14472 119.82 5.14493 119.988 5.14493C120.425 5.14493 120.715 5.02233 120.819 4.90574ZM98.9962 0.206369L102.579 0.206369C103.422 0.206369 103.664 0.793747 103.549 1.15621C103.496 1.45403 100.691 14.8421 100.691 14.8421C100.691 14.8421 99.9496 18.9993 99.5468 19.5548C99.2511 19.8415 98.94 19.8405 98.4924 19.839C98.4595 19.8389 98.4258 19.8388 98.3914 19.8388L96.7091 19.8388L96.6797 19.8389C96.6686 19.8389 96.6628 19.8388 96.6628 19.8388C96.6628 19.8388 96.0072 19.8398 95.4718 19.8405C95.4509 19.8411 95.4226 19.8414 95.3878 19.8406C95.1362 19.8409 94.9223 19.8412 94.8338 19.8412C94.7994 19.8412 94.7657 19.8413 94.7328 19.8414C94.285 19.8429 93.9742 19.844 93.6784 19.5573C93.2758 19.0018 91.0087 14.5953 91.0087 14.5953C91.0087 14.5953 89.726 12.066 88.2841 9.20617C87.6613 12.1816 87.1038 14.8421 87.1038 14.8421C87.1038 14.8421 86.3624 18.9993 85.8947 19.5548C85.6589 19.8418 85.2956 19.8405 84.8922 19.839C84.863 19.8389 84.8336 19.8388 84.804 19.8388L81.9252 19.8388C81.9252 19.8388 81.0755 19.8999 80.681 19.4042C80.2217 18.9718 80.5538 17.855 80.5538 17.855L84.1593 1.32624C84.1593 1.32624 84.2725 0.757501 84.4421 0.478522C84.5871 0.18133 84.9983 0.194443 85.2846 0.203577C85.3299 0.205023 85.3722 0.206369 85.4097 0.206369L88.9916 0.206369C89.2396 0.206369 89.4291 0.258042 89.5735 0.338999C89.6862 0.37777 89.7845 0.438249 89.8417 0.534222C90.0104 0.813406 90.4783 1.83963 90.4783 1.83963L95.3851 12.1501L97.7467 1.32624C97.7467 1.32624 97.8606 0.757501 98.0941 0.478522C98.2404 0.179076 98.6564 0.19466 98.9 0.203784C98.9364 0.205149 98.969 0.206369 98.9962 0.206369ZM78.0818 7.53899C78.0818 7.53899 78.5744 7.52282 79.0626 7.60835C79.5256 7.69531 79.9004 8.10726 79.8233 8.57102C79.7037 8.98399 79.473 10.2043 79.2991 11.053C79.1268 11.9011 78.2952 12.0091 77.9706 12.0091L71.2494 12.0091L70.7437 14.9476L78.2987 14.9476C78.831 14.9476 79.1856 15.4871 79.2014 16.4862C79.2185 17.5522 78.9002 18.4923 78.6552 19.1122C78.4102 19.7283 77.7885 19.8424 77.4568 19.8424L65.7678 19.8424C64.7101 19.8424 64.2499 19.1702 64.3755 18.6949C64.4191 18.3647 67.3655 1.84113 67.4609 1.23942C67.5289 0.793747 67.9618 0.204936 68.6221 0.204936L80.8089 0.204936C81.46 0.204936 81.5556 0.324596 81.7414 0.782347C81.9938 1.30488 81.7078 2.83731 81.5506 3.38701C81.3939 3.93377 81.2227 4.23719 80.9007 4.49897C80.6436 4.69986 80.1545 4.75576 79.7994 4.75576L72.4353 4.75576L71.9349 7.53899L78.0818 7.53899Z" fill-rule="evenodd"/>
	</g>
</svg>
