<?xml version="1.0" encoding="UTF-8"?>
<svg width="86px" height="29px" viewBox="0 0 86 29" version="1.1" xmlns="http://www.w3.org/2000/svg" xmlns:xlink="http://www.w3.org/1999/xlink">
    <!-- Generator: sketchtool 48.2 (47327) - http://www.bohemiancoding.com/sketch -->
    <title>C65349FE-F234-4066-B4A8-238F04F65EF4</title>
    <desc>Created with sketchtool.</desc>
    <defs>
        <polygon id="path-1" points="0 20.1076459 74.7561597 20.1076459 74.7561597 0.843600499 0 0.843600499"></polygon>
        <polygon id="path-3" points="0 20.1076459 74.7561597 20.1076459 74.7561597 0.843600499 0 0.843600499"></polygon>
        <polygon id="path-5" points="0 20.1076459 74.7561597 20.1076459 74.7561597 0.843600499 0 0.843600499"></polygon>
        <polygon id="path-7" points="0 20.1076459 74.7561597 20.1076459 74.7561597 0.843600499 0 0.843600499"></polygon>
        <polygon id="path-9" points="0 20.1076459 74.7561597 20.1076459 74.7561597 0.843600499 0 0.843600499"></polygon>
        <polygon id="path-11" points="0 20.1076459 74.7561597 20.1076459 74.7561597 0.843600499 0 0.843600499"></polygon>
        <polygon id="path-13" points="0 20.1076459 74.7561597 20.1076459 74.7561597 0.843600499 0 0.843600499"></polygon>
        <polygon id="path-15" points="0 20.1076459 74.7561597 20.1076459 74.7561597 0.843600499 0 0.843600499"></polygon>
    </defs>
    <g id="7" stroke="none" stroke-width="1" fill="none" fill-rule="evenodd" transform="translate(-1060.000000, -1679.000000)">
        <g id="Footer" transform="translate(0.000000, 1320.000000)">
            <g id="Group-3" transform="translate(270.000000, 46.000000)">
                <g id="Mobile" transform="translate(690.000000, 260.000000)">
                    <g id="Google-play" transform="translate(100.000000, 53.000000)">
                        <g id="Google-Play">
                            <g id="footer">
                                <g>
                                    <g id="Footer">
                                        <g id="Group">
                                            <g id="Group-3">
                                                <g id="Store-Badges">
                                                    <g id="Google-Play">
                                                        <rect id="Border" stroke="#1F3643" opacity="0.5" x="0.75" y="0.75" width="83.8338489" height="27.4813072" rx="5"></rect>
                                                        <g id="Content" transform="translate(4.830218, 3.986163)">
                                                            <path d="M24.4218743,16.2434716 C23.6192774,17.0390369 22.5873673,17.4936456 21.211487,17.4936456 C18.6890399,17.4936456 16.6252196,15.4479063 16.6252196,12.9475582 C16.6252196,10.4472101 18.6890399,8.4014708 21.211487,8.4014708 C22.5873673,8.4014708 23.6192774,8.96973173 24.3072176,9.65164484 L23.3899641,10.5608623 C22.8166806,10.1062536 22.1287405,9.65164484 21.211487,9.65164484 C19.37698,9.65164484 18.0010998,11.1291232 18.0010998,12.9475582 C18.0010998,14.7659932 19.37698,16.2434716 21.211487,16.2434716 C22.3580539,16.2434716 23.045994,15.7888628 23.5046208,15.3342541 C23.8485908,14.9932975 24.0779042,14.4250366 24.1925609,13.7431235 L21.211487,13.7431235 L21.211487,12.6066016 L25.4537844,12.6066016 C25.4537844,12.833906 25.5684411,13.0612104 25.5684411,13.4021669 C25.4537844,14.3113844 25.2244711,15.4479063 24.4218743,16.2434716 Z" id="Fill-1" fill="#42b6fb"></path>
                                                            <path d="M28.893485,16.3571238 C28.0908882,16.3571238 27.2882914,15.6752106 27.2882914,14.652341 C27.2882914,13.6294713 27.9762315,12.9475582 28.893485,12.9475582 C29.6960818,12.9475582 30.4986786,13.6294713 30.4986786,14.652341 C30.4986786,15.6752106 29.8107385,16.3571238 28.893485,16.3571238 M28.893485,11.8110364 C27.1736347,11.8110364 25.9124112,12.9475582 25.9124112,14.652341 C25.9124112,16.2434716 27.2882914,17.4936456 28.893485,17.4936456 C30.4986786,17.4936456 31.7599022,16.3571238 31.8745589,14.652341 C31.8745589,13.0612104 30.4986786,11.8110364 28.893485,11.8110364" id="Fill-3" fill="#42b6fb"></path>
                                                            <path d="M36.8047964,14.652341 C36.8047964,15.6752106 36.0021996,16.3571238 35.1996028,16.3571238 C34.397006,16.3571238 33.5944092,15.6752106 33.5944092,14.652341 C33.5944092,13.6294713 34.2823493,12.9475582 35.1996028,12.9475582 C36.1168563,12.9475582 36.9194531,13.6294713 36.8047964,14.652341 M35.1996028,11.8110364 C33.4797525,11.8110364 32.2185289,12.9475582 32.2185289,14.652341 C32.2185289,16.2434716 33.5944092,17.4936456 35.1996028,17.4936456 C36.8047964,17.4936456 38.1806767,16.3571238 38.1806767,14.652341 C38.1806767,13.0612104 36.8047964,11.8110364 35.1996028,11.8110364" id="Fill-5" fill="#42b6fb"></path>
                                                            <path d="M41.6203772,16.4707759 C40.7031238,16.4707759 40.0151836,15.7888628 40.0151836,14.7659932 C40.0151836,13.7431235 40.7031238,12.9475582 41.6203772,12.9475582 C42.5376307,12.9475582 43.2255709,13.6294713 43.2255709,14.7659932 C43.2255709,15.7888628 42.5376307,16.4707759 41.6203772,16.4707759 Z M43.1109142,11.9246885 L43.1109142,12.3792973 C42.8816008,12.0383407 42.3083174,11.6973842 41.6203772,11.6973842 C40.244497,11.6973842 38.8686168,13.0612104 38.8686168,14.652341 C38.8686168,16.2434716 40.1298403,17.4936456 41.6203772,17.4936456 C42.3083174,17.4936456 42.7669441,17.152689 43.1109142,16.8117325 L43.1109142,17.2663412 C43.1109142,18.4028631 42.4229741,18.971124 41.5057206,18.971124 C40.7031238,18.971124 40.244497,18.4028631 40.0151836,17.9482543 L38.8686168,18.4028631 C39.2125868,19.1984284 40.1298403,20.1076459 41.5057206,20.1076459 C42.9962575,20.1076459 44.257481,19.3120806 44.257481,17.152689 L44.3721377,17.152689 L44.3721377,11.9246885 L43.1109142,11.9246885 Z" id="Fill-7" fill="#42b6fb"></path>
                                                            <g id="Fill-9-Clipped">
                                                                <mask id="mask-2" fill="white">
                                                                    <use xlink:href="#path-1"></use>
                                                                </mask>
                                                                <g id="path-1"></g>
                                                                <polygon id="Fill-9" fill="#42b6fb" mask="url(#mask-2)" points="45.1747345 17.3799934 46.4359581 17.3799934 46.4359581 8.85607954 45.1747345 8.85607954"></polygon>
                                                            </g>
                                                            <g id="Fill-11-Clipped">
                                                                <mask id="mask-4" fill="white">
                                                                    <use xlink:href="#path-3"></use>
                                                                </mask>
                                                                <g id="path-1"></g>
                                                                <path d="M49.8756587,12.833906 C50.3342854,12.833906 50.7929122,13.1748626 51.0222256,13.5158191 L48.3851218,14.5386888 C48.2704651,13.4021669 49.1877186,12.833906 49.8756587,12.833906 M49.9903154,16.3571238 C49.3023753,16.3571238 48.8437485,16.1298194 48.7290918,15.5615585 L52.6274192,13.9704279 L52.5127625,13.6294713 C52.2834491,13.0612104 51.4808523,11.8110364 49.9903154,11.8110364 C48.4997784,11.8110364 47.2385549,12.9475582 47.2385549,14.652341 C47.2385549,16.2434716 48.4997784,17.4936456 50.1049721,17.4936456 C51.3661956,17.4936456 52.1687924,16.6980803 52.5127625,16.2434716 L51.4808523,15.5615585 C51.1368822,16.0161672 50.6782555,16.3571238 49.9903154,16.3571238" id="Fill-11" fill="#42b6fb" mask="url(#mask-4)"></path>
                                                            </g>
                                                            <g id="Fill-12-Clipped">
                                                                <mask id="mask-6" fill="white">
                                                                    <use xlink:href="#path-5"></use>
                                                                </mask>
                                                                <g id="path-1"></g>
                                                                <polygon id="Fill-12" fill="#42b6fb" mask="url(#mask-6)" points="61.9146108 17.3799934 63.1758343 17.3799934 63.1758343 8.85607954 61.9146108 8.85607954"></polygon>
                                                            </g>
                                                            <g id="Fill-13-Clipped">
                                                                <mask id="mask-8" fill="white">
                                                                    <use xlink:href="#path-7"></use>
                                                                </mask>
                                                                <g id="path-1"></g>
                                                                <path d="M66.1569082,16.3571238 C65.6982814,16.3571238 65.124998,16.2434716 65.124998,15.6752106 C65.124998,14.9932975 65.8129381,14.7659932 66.5008782,14.652341 C67.0741617,14.652341 67.3034751,14.8796453 67.6474451,14.9932975 C67.5327884,15.7888628 66.8448483,16.3571238 66.1569082,16.3571238 M66.3862216,11.6973842 C65.4689681,11.6973842 64.4370579,12.0383407 64.0930878,12.9475582 L65.2396547,13.4021669 C65.4689681,12.9475582 65.9275948,12.833906 66.3862216,12.833906 C67.0741617,12.833906 67.7621018,13.2885148 67.7621018,13.9704279 L67.7621018,14.0840801 C67.5327884,13.9704279 66.959505,13.7431235 66.3862216,13.7431235 C65.124998,13.7431235 63.8637745,14.4250366 63.8637745,15.6752106 C63.8637745,16.8117325 64.8956846,17.4936456 66.0422515,17.4936456 C66.8448483,17.4936456 67.3034751,17.152689 67.6474451,16.6980803 L67.6474451,17.3799934 L68.9086687,17.3799934 L69.0233254,17.3799934 L69.0233254,14.0840801 C69.0233254,12.4929495 67.8767585,11.6973842 66.3862216,11.6973842" id="Fill-13" fill="#42b6fb" mask="url(#mask-8)"></path>
                                                            </g>
                                                            <g id="Fill-14-Clipped">
                                                                <mask id="mask-10" fill="white">
                                                                    <use xlink:href="#path-9"></use>
                                                                </mask>
                                                                <g id="path-1"></g>
                                                                <polygon id="Fill-14" fill="#42b6fb" mask="url(#mask-10)" points="71.3164591 19.9939937 69.9405788 19.9939937 71.2018024 17.152689 68.9086687 12.0383407 70.2845489 12.0383407 71.7750858 15.6752106 73.2656228 12.0383407 74.7561597 12.0383407"></polygon>
                                                            </g>
                                                            <g id="Fill-15-Clipped">
                                                                <mask id="mask-12" fill="white">
                                                                    <use xlink:href="#path-11"></use>
                                                                </mask>
                                                                <g id="path-1"></g>
                                                                <path d="M58.3602535,13.0612104 L56.5257465,13.0612104 L56.5257465,10.1062536 L58.3602535,10.1062536 C59.277507,10.1062536 59.8507904,10.7881667 59.8507904,11.583732 C59.8507904,12.2656451 59.277507,13.0612104 58.3602535,13.0612104 M58.3602535,8.85607954 L55.264523,8.85607954 L55.264523,17.3799934 L56.5257465,17.3799934 L56.5257465,14.1977322 L58.3602535,14.1977322 C59.7361337,14.1977322 61.112014,13.1748626 61.2266707,11.4700798 C61.2266707,9.87894921 59.7361337,8.85607954 58.3602535,8.85607954" id="Fill-15" fill="#42b6fb" mask="url(#mask-12)"></path>
                                                            </g>
                                                            <g id="Fill-16-Clipped">
                                                                <mask id="mask-14" fill="white">
                                                                    <use xlink:href="#path-13"></use>
                                                                </mask>
                                                                <g id="path-1"></g>
                                                                <path d="M12.4975788,9.53799265 L9.74581836,8.06051425 L1.60519361,3.74173122 C1.26122355,3.51442685 0.917253493,3.51442685 0.68794012,3.51442685 C0.229313373,3.74173122 0,4.08268777 0,4.6509487 L0,16.1298194 C0,16.6980803 0.229313373,17.0390369 0.573283433,17.152689 L0.917253493,17.152689 C1.14656687,17.152689 1.37588024,17.152689 1.49053693,16.9253847 L9.63116168,12.6066016 L12.4975788,11.1291232 C12.8415489,11.0154711 13.0708623,10.6745145 13.0708623,10.3335579 C13.0708623,9.99260139 12.8415489,9.76529702 12.4975788,9.53799265 Z" id="Fill-16" fill="#42b6fb" mask="url(#mask-14)"></path>
                                                            </g>
                                                            <g id="Fill-16-Copy-Clipped">
                                                                <mask id="mask-16" fill="white">
                                                                    <use xlink:href="#path-15"></use>
                                                                </mask>
                                                                <g id="path-1"></g>
                                                                <path d="M13.6639193,10.3196661 C13.6639193,10.3196661 13.6639193,10.4611019 13.3785476,10.6025377 L10.2394586,12.2997673 L8.24185647,10.3196661 L10.3821444,8.33956494 L13.5212334,10.0367945 C13.6639193,10.1782303 13.8066052,10.3196661 13.6639193,10.3196661 Z M1.10756328,17.2500203 L7.67111302,10.8854093 L9.52602925,12.7240747 L1.10756328,17.2500203 Z M-0.604667086,17.8157635 L-0.604667086,17.5328919 L-0.604667086,3.24787614 L-0.604667086,2.96500454 L7.10036956,10.3196661 L-0.604667086,17.8157635 Z M9.52602925,7.91525754 L7.67111302,9.75392294 L1.25024914,3.53074774 L9.52602925,7.91525754 Z M12.4975788,9.53799265 L9.74581836,8.06051425 L1.60519361,3.74173122 C1.26122355,3.51442685 0.917253493,3.51442685 0.68794012,3.51442685 C0.229313373,3.74173122 -9.09494702e-13,4.08268777 -9.09494702e-13,4.6509487 L-9.09494702e-13,16.1298194 C-9.09494702e-13,16.6980803 0.229313373,17.0390369 0.573283433,17.152689 L0.917253493,17.152689 C1.14656687,17.152689 1.37588024,17.152689 1.49053693,16.9253847 L9.63116168,12.6066016 L12.4975788,11.1291232 C12.8415489,11.0154711 13.0708623,10.6745145 13.0708623,10.3335579 C13.0708623,9.99260139 12.8415489,9.76529702 12.4975788,9.53799265 Z" id="Fill-16-Copy" fill="#40525C" mask="url(#mask-16)"></path>
                                                            </g>
                                                        </g>
                                                    </g>
                                                </g>
                                            </g>
                                        </g>
                                    </g>
                                </g>
                            </g>
                        </g>
                        <path d="M32.1328577,9.12374499 C31.9165793,9.12374499 31.5921617,9.12374499 31.3758833,8.90906864 L31.3758833,7.40633419 C31.5921617,7.19165784 31.9165793,6.97698149 32.240997,6.97698149 C32.8898322,6.97698149 33.2142498,7.40633419 33.2142498,8.05036324 C33.2142498,8.69439229 32.781693,9.23108316 32.1328577,9.12374499 M32.4572754,6.5476288 C32.0247185,6.5476288 31.5921617,6.76230515 31.3758833,6.97698149 L31.3758833,6.65496697 L30.8351873,6.65496697 L30.8351873,10.948494 L31.3758833,10.948494 L31.3758833,9.44575951 C31.5921617,9.55309769 31.9165793,9.66043586 32.240997,9.66043586 C33.2142498,9.66043586 33.863085,9.01640681 33.863085,8.05036324 C33.863085,7.19165784 33.322389,6.5476288 32.4572754,6.5476288" id="Fill-26" fill="#42b6fb"></path>
                        <g id="Group-5" transform="translate(20.824503, 4.830218)" fill="#42b6fb">
                            <path d="M18.0129855,3.43482159 L17.4722895,3.43482159 L17.4722895,3.00546889 L17.9048463,3.00546889 C18.2292639,3.00546889 18.4455423,2.79079254 18.4455423,2.57611619 C18.4455423,2.25410167 18.2292639,2.14676349 17.7967071,2.14676349 C17.3641503,2.14676349 17.0397327,2.36143984 16.9315935,2.46877802 L16.715315,2.03942532 C16.9315935,1.82474897 17.4722895,1.61007262 17.9048463,1.61007262 C18.6618207,1.61007262 19.0943776,1.93208715 19.0943776,2.46877802 C19.0943776,2.79079254 18.9862384,3.00546889 18.5536815,3.22014524 C18.9862384,3.22014524 19.2025168,3.54215977 19.2025168,3.97151246 C19.2025168,4.50820334 18.6618207,4.83021786 17.9048463,4.83021786 C17.4722895,4.83021786 16.8234542,4.61554151 16.6071758,4.40086516 L16.9315935,3.97151246 C17.1478719,4.18618881 17.5804287,4.29352699 17.7967071,4.29352699 C18.2292639,4.29352699 18.5536815,4.07885064 18.5536815,3.75683612 C18.6618207,3.64949794 18.4455423,3.43482159 18.0129855,3.43482159" id="Fill-1"></path>
                            <path d="M6.00953366,3.86417429 C5.90139445,4.07885064 5.68511604,4.29352699 5.25255922,4.29352699 C4.9281416,4.29352699 4.71186319,4.18618881 4.71186319,3.86417429 C4.71186319,3.54215977 5.03628081,3.32748342 5.36069842,3.32748342 C5.57697684,3.32748342 5.79325525,3.43482159 6.00953366,3.54215977 L6.00953366,3.86417429 Z M5.36069842,1.61007262 C5.03628081,1.61007262 4.60372398,1.7174108 4.38744557,1.93208715 L4.49558478,2.36143984 C4.82000239,2.25410167 5.03628081,2.14676349 5.36069842,2.14676349 C6.00953366,2.14676349 6.11767286,2.57611619 6.00953366,3.11280707 C5.79325525,2.89813072 5.46883763,2.89813072 5.25255922,2.89813072 C4.60372398,2.89813072 4.06302795,3.22014524 4.06302795,3.86417429 C4.06302795,4.50820334 4.49558478,4.83021786 5.03628081,4.83021786 C5.57697684,4.83021786 5.79325525,4.61554151 6.00953366,4.40086516 L6.00953366,4.61554151 L6.55022969,4.61554151 L6.55022969,2.79079254 C6.55022969,2.03942532 6.22581207,1.61007262 5.36069842,1.61007262 Z" id="Fill-3"></path>
                            <path d="M1.90024384,2.68345437 L1.35954781,2.68345437 L1.35954781,2.14676349 L1.90024384,2.14676349 C2.33280066,2.14676349 2.65721828,1.82474897 2.65721828,1.39539627 C2.65721828,0.858705398 2.33280066,0.644029048 1.79210463,0.644029048 C1.35954781,0.644029048 1.03513019,0.858705398 0.710712571,1.18071992 L0.386294953,0.858705398 C0.710712571,0.429352699 1.2514086,0.214676349 1.90024384,0.214676349 C2.76535748,0.214676349 3.30605351,0.644029048 3.30605351,1.50273445 C3.30605351,1.93208715 3.0897751,2.36143984 2.65721828,2.57611619 C3.19791431,2.68345437 3.52233192,3.11280707 3.52233192,3.64949794 C3.52233192,4.50820334 2.76535748,5.04489421 1.90024384,5.04489421 C1.14326939,5.04489421 0.602573365,4.72287969 0.386294953,4.29352699 L0.710712571,3.86417429 C1.03513019,4.18618881 1.46768701,4.40086516 1.90024384,4.40086516 C2.54907907,4.40086516 2.98163589,4.07885064 2.98163589,3.54215977 C2.87349669,3.00546889 2.54907907,2.68345437 1.90024384,2.68345437" id="Fill-5"></path>
                            <polygon id="Fill-12" points="8.06417857 4.83021786 7.52348254 4.83021786 7.52348254 1.82474897 9.46998825 1.82474897 9.46998825 2.36143984 8.06417857 2.36143984"></polygon>
                            <path d="M14.0118349,6.11827596 C13.7955565,6.11827596 13.5792781,6.01093778 13.4711389,5.90359961 L13.6874173,5.47424691 C13.7955565,5.47424691 13.9036957,5.58158509 14.0118349,5.58158509 C14.2281133,5.58158509 14.4443917,5.36690874 14.6606701,4.93755604 L14.7688093,4.83021786 L13.3629997,1.82474897 L14.0118349,1.82474897 L14.8769485,3.75683612 C14.9850877,3.86417429 14.9850877,4.07885064 15.093227,4.18618881 C15.093227,4.07885064 15.2013662,3.86417429 15.2013662,3.75683612 L15.8502014,1.82474897 L16.4990366,1.82474897 L15.3095054,4.83021786 C14.6606701,5.90359961 14.4443917,6.11827596 14.0118349,6.11827596" id="Fill-14"></path>
                            <polygon id="Fill-16" points="22.8792498 4.83021786 22.3385537 4.83021786 22.3385537 2.57611619 20.6083265 4.83021786 20.0676304 4.83021786 20.0676304 1.82474897 20.6083265 1.82474897 20.6083265 4.07885064 22.3385537 1.82474897 22.8792498 1.82474897"></polygon>
                            <polygon id="Fill-18" points="23.4199458 1.82474897 26.2315652 1.82474897 26.2315652 2.36143984 25.1501731 2.36143984 25.1501731 4.83021786 24.6094771 4.83021786 24.6094771 2.36143984 23.528085 2.36143984 23.528085 1.82474897"></polygon>
                            <path d="M27.0966788,3.00546889 C27.204818,2.57611619 27.5292356,2.25410167 28.0699317,2.25410167 C28.6106277,2.25410167 28.9350453,2.46877802 28.9350453,3.00546889 L27.0966788,3.00546889 Z M29.4757413,3.11280707 C29.4757413,2.25410167 28.8269061,1.7174108 28.0699317,1.7174108 C27.0966788,1.7174108 26.5559828,2.36143984 26.4478436,3.32748342 C26.4478436,4.29352699 27.0966788,4.93755604 28.0699317,4.93755604 C28.5024885,4.93755604 28.9350453,4.72287969 29.2594629,4.50820334 L29.1513237,3.97151246 C28.9350453,4.18618881 28.6106277,4.29352699 28.1780709,4.29352699 C27.5292356,4.29352699 27.0966788,3.97151246 27.0966788,3.43482159 L29.4757413,3.43482159 L29.4757413,3.11280707 Z" id="Fill-30"></path>
                            <path d="M32.9361959,4.40086516 L32.2873607,4.40086516 L32.2873607,3.43482159 L32.9361959,3.43482159 C33.476892,3.43482159 33.6931704,3.54215977 33.6931704,3.86417429 C33.6931704,4.18618881 33.3687527,4.40086516 32.9361959,4.40086516 Z M32.2873607,2.14676349 L32.9361959,2.14676349 C33.2606135,2.14676349 33.5850312,2.25410167 33.5850312,2.57611619 C33.5850312,2.89813072 33.3687527,3.11280707 32.9361959,3.00546889 L32.2873607,3.00546889 L32.2873607,2.14676349 Z M33.476892,3.22014524 C33.9094488,3.22014524 34.1257272,2.89813072 34.1257272,2.57611619 C34.1257272,2.03942532 33.6931704,1.82474897 32.8280567,1.82474897 L31.7466647,1.82474897 L31.7466647,4.83021786 L32.8280567,4.83021786 C33.8013096,4.83021786 34.2338664,4.50820334 34.2338664,3.97151246 C34.2338664,3.54215977 33.9094488,3.32748342 33.476892,3.22014524 Z" id="Fill-32"></path>
                        </g>
                    </g>
                </g>
            </g>
        </g>
    </g>
</svg>