<?xml version="1.0" encoding="UTF-8"?>
<svg width="44px" height="16px" viewBox="0 0 44 16" version="1.1" xmlns="http://www.w3.org/2000/svg" xmlns:xlink="http://www.w3.org/1999/xlink">
    <!-- Generator: sketchtool 48.2 (47327) - http://www.bohemiancoding.com/sketch -->
    <title>462D505A-ECD2-4E15-AD89-1864BA939BB1</title>
    <desc>Created with sketchtool.</desc>
    <defs></defs>
    <g id="7_mouse_over" stroke="none" stroke-width="1" fill="none" fill-rule="evenodd" transform="translate(-383.000000, -1538.000000)" opacity="0.370000005">
        <g id="Footer" transform="translate(0.000000, 1320.000000)" fill="#FFFFFF" fill-rule="nonzero">
            <g id="Group-11" transform="translate(270.000000, 213.000000)">
                <g id="Visa_Inc._logo" transform="translate(113.000000, 5.000000)">
                    <polygon id="polygon9" points="18.8727687 15.042735 15.3471713 15.042735 17.5523325 0.716320716 21.0777371 0.716320716"></polygon>
                    <path d="M31.8225478,0.619951755 C31.1160338,0.325315102 29.9954442,0 28.6098384,0 C25.0725675,0 22.5816502,1.98277496 22.5663721,4.81754605 C22.5369911,6.9090339 24.349796,8.07069707 25.7056291,8.76806559 C27.0914307,9.48067038 27.5625054,9.94578862 27.5625054,10.5809766 C27.5484025,11.5565102 26.4426993,12.0061862 25.4114278,12.0061862 C23.9813588,12.0061862 23.2151035,11.7743477 22.0506384,11.2316069 L21.5789762,10.9989448 L21.0777371,14.2677439 C21.9178365,14.6700639 23.4656251,15.027087 25.0725675,15.042735 C28.8309791,15.042735 31.2778249,13.0906385 31.3068141,10.0697378 C31.3211129,8.41207204 30.3638814,7.14190187 28.3001632,6.10398197 C27.0473593,5.4377037 26.2801247,4.98843943 26.2801247,4.30671898 C26.2948151,3.68697312 26.929052,3.05219688 28.3432553,3.05219688 C29.5077204,3.02110664 30.3632938,3.3153315 31.0114376,3.60976226 L31.3354116,3.76438988 L31.8225478,0.619951755 Z" id="path11"></path>
                    <path d="M36.6656461,9.96752635 C36.9615668,9.14448121 38.1002525,5.95905546 38.1002525,5.95905546 C38.0853189,5.98964365 38.3955837,5.12081751 38.5730183,4.58744861 L38.8241383,5.82191503 C38.8241383,5.82191503 39.5045987,9.25123602 39.6523626,9.96752635 C39.0907813,9.96752635 37.3753843,9.96752635 36.6656461,9.96752635 Z M41.1011166,0.716320716 L38.3217018,0.716320716 C37.4645928,0.716320716 36.81341,0.975206192 36.4436073,1.90500614 L31.1062271,15.042735 L34.8765637,15.042735 C34.8765637,15.042735 35.4972898,13.2744946 35.6307096,12.8936615 C36.0443305,12.8936615 39.7120969,12.8936615 40.244204,12.8936615 C40.3473637,13.3966448 40.672955,15.042735 40.672955,15.042735 L44,15.042735 L41.1011166,0.716320716 Z" id="path13"></path>
                    <path d="M8.6162715,10.4959352 L8.22497551,8.51251493 C7.56295147,6.22390629 5.48670333,3.73738146 3.16971917,2.50101367 L6.44964738,15.042735 L10.3162197,15.042735 L16.0634921,0.716320716 L12.1971197,0.716320716 L8.6162715,10.4959352 Z" id="path15"></path>
                    <path d="M5.75489701,0.716320716 L0.0582789086,0.716320716 L0,1.00917216 C4.44371838,2.21193294 7.38670646,5.11114179 8.5958486,8.5958486 L7.35747019,1.93465652 C7.15359082,1.00896723 6.52704415,0.746855962 5.75489701,0.716320716 Z" id="path17"></path>
                </g>
            </g>
        </g>
    </g>
</svg>