<?xml version="1.0" encoding="UTF-8"?>
<svg width="37px" height="22px" viewBox="0 0 37 22" version="1.1" xmlns="http://www.w3.org/2000/svg" xmlns:xlink="http://www.w3.org/1999/xlink">
    <!-- Generator: sketchtool 48.2 (47327) - http://www.bohemiancoding.com/sketch -->
    <title>464C80AE-882A-447F-BF54-EC62F5076159</title>
    <desc>Created with sketchtool.</desc>
    <defs></defs>
    <g id="7" stroke="none" stroke-width="1" fill="none" fill-rule="evenodd" transform="translate(-324.000000, -1535.000000)" opacity="0.370000005">
        <g id="Footer" transform="translate(0.000000, 1320.000000)" fill="#FFFFFF" fill-rule="nonzero">
            <g id="Logos" transform="translate(270.000000, 213.000000)">
                <path d="M90.7384915,12.8998476 C90.7384915,18.9190476 85.8697514,23.7990667 79.8642542,23.7988571 C77.2581582,23.7988571 74.8868136,22.8844952 73.0140282,21.3524571 C74.4426045,19.9702286 75.5331638,18.2391429 76.1182655,16.2826095 L75.2147966,16.2826095 C74.6485085,18.0222857 73.6541073,19.5568381 72.3609887,20.7886286 C71.0594782,19.5462496 70.0853839,17.9999828 69.5257853,16.2880571 L68.6221073,16.2880571 C69.2047006,18.2334857 70.2766554,19.9666667 71.6941525,21.3449143 C69.8259661,22.8614476 67.4657006,23.7990667 64.8744463,23.7990667 C58.8687401,23.7990667 54,18.9190476 54,12.8996381 C54,6.88001905 58.8689492,2 64.8744463,2 C67.4659096,2 69.8259661,2.93761905 71.6941525,4.45415238 C70.2566769,5.84970884 69.1991578,7.59055066 68.6221073,9.51121905 L69.5257853,9.51121905 C70.0853363,7.79927097 71.0594375,6.25299317 72.3609887,5.01064762 C73.6538983,6.24222857 74.6485085,7.77699048 75.2147966,9.51645714 L76.1182655,9.51645714 C75.5331638,7.55992381 74.4426045,5.82904762 73.0140282,4.44660952 C74.8868136,2.9143619 77.2581582,2.00020952 79.8642542,2.00020952 C85.8697514,2.00020952 90.7384915,6.88022857 90.7384915,12.8998476 Z M82.7464915,15.4528952 L83.8518926,15.4528952 L84.192,13.606781 C84.5176836,12.3999238 85.0277401,12.4705333 85.2971921,12.4705333 L85.5944463,11.4199809 C85.0419548,11.4199809 84.7160621,11.6184 84.5459039,11.8174476 L84.4466102,11.4199809 L83.4973616,11.4199809 L82.7464915,15.4528952 Z M68.1962938,10.3949905 L67.4387345,14.219219 C67.2280226,15.3156571 68.0558192,15.4707048 68.3081299,15.4707048 C68.5608587,15.4707048 68.8834068,15.4281714 69.1219209,15.2735429 L69.1921582,14.4582857 C68.5608587,14.5567619 68.5326384,14.2753714 68.58887,13.9659048 L68.8976215,12.335181 L69.4586836,12.335181 L69.6547627,11.4635619 L69.0658983,11.4635619 L69.2904068,10.3949905 L68.1962938,10.3949905 Z M72.9375198,13.6568571 C73.0637797,13.0098476 73.3585254,11.4074095 71.4368249,11.4074095 C69.6691864,11.4074095 69.444887,13.1646857 69.40287,13.417581 C69.3608531,13.6708952 69.3328418,15.4562476 71.226322,15.4562476 C71.6893446,15.4704952 72.362661,15.4141333 72.6293955,15.2733333 L72.7976723,14.4442476 C72.6293955,14.4859429 71.997887,14.5425143 71.5628757,14.5425143 C71.1282825,14.5425143 70.4269548,14.5708 70.5530056,13.6568571 L72.9375198,13.6568571 Z M67.1586215,12.3634667 L67.4109322,11.5477905 C66.891887,11.3510476 66.4853051,11.3933714 66.3308249,11.3933714 C66.1763446,11.3933714 64.8629491,11.3772381 64.6616441,12.3494286 C64.5073729,13.0947048 64.7795424,13.4029143 65.0404237,13.5162667 C65.4614294,13.699181 65.6999435,13.8678476 65.924452,13.9803619 C66.2020565,14.1194857 66.1510508,14.5848381 65.7839774,14.5848381 C65.6154915,14.5848381 64.8863616,14.6690667 64.3393051,14.4861524 L64.1850339,15.3156571 C64.6900734,15.4564571 65.0964463,15.4564571 65.4756441,15.4564571 C65.7419604,15.4564571 67.0465763,15.5268571 67.2286497,14.3174857 C67.3177006,13.7278857 67.0603729,13.4596952 66.84987,13.3337714 C66.6395763,13.1929714 66.2888079,12.9962286 66.0645085,12.8975429 C65.84,12.7992762 65.6717232,12.4198286 66.0785141,12.3073143 C66.3308249,12.2790286 66.849661,12.2790286 67.1586215,12.3634667 Z M60.0608927,15.4562476 L60.9725141,10.5917333 L59.1772825,10.5917333 L57.8444463,13.5443429 L57.6339435,10.5917333 L55.8807288,10.5917333 L54.940887,15.4562476 L56.034791,15.4562476 L56.7081073,11.9414857 L57.0028531,15.4562476 L58.0407345,15.4562476 L59.5698588,12.0259238 L58.9245537,15.4562476 L60.0608927,15.4562476 Z M61.2668418,11.5339619 L61.098565,12.405581 C61.3652994,12.3777143 62.0806328,12.2652 62.4592034,12.2790286 C62.8381921,12.2930667 63.2587797,12.2369143 63.1325198,12.8413905 C62.8519887,12.8696762 60.8882712,12.5602095 60.5799379,14.2470857 C60.453678,15.0770095 61.1688023,15.4985714 61.7298644,15.4707048 C62.2909266,15.442419 62.4451977,15.372019 62.6416949,15.231219 L62.7819604,15.4562476 L63.8056271,15.4562476 L64.2406384,13.2631619 C64.3528926,12.7148381 64.5349661,11.3931619 62.6977175,11.3931619 C62.3611638,11.4074095 61.9825932,11.3931619 61.2668418,11.5339619 Z M78.9971582,11.7164571 L79.7127006,10.9996762 C79.4321695,10.6902095 79.1092034,10.3864 78.2117966,10.3528762 C77.4544463,10.3248 76.1565198,10.8787809 75.7428305,12.3913333 C75.1817684,14.4442476 76.4159378,15.4562476 77.5522768,15.4562476 C78.1553559,15.4562476 78.520339,15.372019 78.8849039,15.2033524 L78.5623559,14.219219 C77.4400226,14.5984571 76.6406554,14.0222667 76.8231469,12.8554286 C76.977,11.8689905 77.790791,11.5197143 78.1553559,11.5197143 C78.520339,11.5197143 78.716209,11.5475809 78.9971582,11.7164571 Z M88.3251299,11.8851238 C88.1144181,11.7307048 87.9887853,11.4074095 87.469322,11.4074095 C86.8662429,11.4074095 85.9264011,11.2948952 85.3935593,13.1225714 C85.0371469,14.3440952 85.7581243,15.4564571 86.5432768,15.4564571 C86.9082599,15.4426286 87.2728249,15.2877905 87.4969152,15.1331619 L87.6378079,15.4564571 L88.8157458,15.4564571 L89.7698023,10.3390476 L88.6192486,10.3390476 L88.3251299,11.8851238 Z M79.7827288,11.5339619 L79.6140339,12.405581 C79.8809774,12.3777143 80.5958926,12.2652 80.9748813,12.2790286 C81.353661,12.2930667 81.7746667,12.2369143 81.6481977,12.8413905 C81.3676667,12.8696762 79.4039491,12.5602095 79.0956158,14.2470857 C78.9691469,15.0770095 79.6842712,15.4985714 80.2453333,15.4707048 C80.8068136,15.442419 80.9606667,15.372019 81.1573729,15.231219 L81.2978475,15.4562476 L82.3213051,15.4562476 L82.7565254,13.2631619 C82.8687797,12.7148381 83.0508531,11.3931619 81.2131864,11.3931619 C80.8768418,11.4074095 80.4980621,11.3931619 79.7827288,11.5339619 Z M70.6230339,12.9258286 C70.7492938,12.419619 71.0578362,12.1945905 71.4928475,12.1945905 C71.9276497,12.1945905 72.0539096,12.5321333 71.9836723,12.9258286 L70.6230339,12.9258286 Z M62.9504463,13.6568571 L62.8662034,14.0922476 C62.795548,14.4584952 62.277339,14.6919048 61.9263616,14.5567619 C61.5615876,14.4155429 61.6596271,13.9941905 62.0103955,13.7551238 C62.3611638,13.5160571 62.7679548,13.6281524 62.9504463,13.6568571 Z M87.9323446,13.5300952 C87.7360565,14.0222667 87.4837458,14.3455619 87.0767458,14.3457714 C86.6981751,14.3457714 86.3614124,13.9099619 86.5156836,13.3337714 C86.7516893,12.4520952 87.5257627,12.0965333 87.8621073,12.546381 C87.9833503,12.7083429 88.0445989,13.1646857 87.9323446,13.5300952 Z M81.4661243,13.6568571 L81.3816723,14.0922476 C81.311435,14.4584952 80.793435,14.6919048 80.4422486,14.5567619 C80.0772655,14.4155429 80.1755141,13.9941905 80.5262825,13.7551238 C80.8770508,13.5160571 81.2836328,13.6281524 81.4661243,13.6568571 Z M72.9688757,15.4562476 L72.9688757,15.4564571 L74.0631977,15.4564571 L74.3995424,13.6283619 C74.7220904,12.4338667 75.2415537,12.5180952 75.507661,12.5180952 L75.7881921,11.4635619 C75.2415537,11.4635619 74.9190056,11.6603048 74.7503107,11.8572571 L74.6522712,11.4635619 L73.7124294,11.4635619 L72.9688757,15.4562476 Z" id="MasterCard"></path>
            </g>
        </g>
    </g>
</svg>