<?xml version="1.0" encoding="UTF-8"?>
<svg width="27px" height="27px" viewBox="0 0 27 27" version="1.1" xmlns="http://www.w3.org/2000/svg" xmlns:xlink="http://www.w3.org/1999/xlink">
    <!-- Generator: sketchtool 48.2 (47327) - http://www.bohemiancoding.com/sketch -->
    <title>F1B0D4FA-24F8-472D-9CF9-5843C96FF789</title>
    <desc>Created with sketchtool.</desc>
    <defs></defs>
    <g id="7_mouse_over" stroke="none" stroke-width="1" fill="none" fill-rule="evenodd" transform="translate(-270.000000, -1533.000000)" opacity="0.370000005">
        <g id="Footer" transform="translate(0.000000, 1320.000000)" fill="#FFFFFF">
            <g id="Group-11" transform="translate(270.000000, 213.000000)">
                <g id="Page-1">
                    <path d="M26.8121193,0 L0,0 L0,11.3647453 L0.915401612,9.27052732 L2.87478978,9.27052732 L3.14464003,9.78822158 L3.14464003,9.27052732 L5.43278176,9.27052732 L5.94941608,10.3883216 L6.45367194,9.27052732 L13.7523393,9.27052732 C14.0925957,9.27052732 14.385965,9.32946194 14.6088074,9.51780502 L14.6088074,9.27052732 L16.6152035,9.27052732 L16.6152035,9.51780502 C16.9439268,9.32946194 17.3781992,9.27052732 17.8708917,9.27052732 L20.7692006,9.27052732 L21.0390508,9.78822158 L21.0390508,9.27052732 L23.1743338,9.27052732 L23.4915844,9.78822158 L23.4915844,9.27052732 L25.5799198,9.27052732 L25.5799198,13.6828 L23.4680654,13.6828 L23.0573121,13.0118033 L23.0573121,13.6828 L20.4284912,13.6828 L20.1355748,12.9648308 L19.4899932,12.9648308 L19.1966843,13.6828 L17.8235215,13.6828 C17.2842437,13.6828 16.8850235,13.5529687 16.6152035,13.4119908 L16.6152035,13.6828 L13.3531191,13.6828 L13.3531191,12.6705202 C13.3531191,12.5295725 13.3296604,12.5060711 13.2361276,12.5060711 L13.1302466,12.5060711 L13.1302466,13.6828 L6.82901075,13.6828 L6.82901075,13.1177406 L6.60610804,13.6828 L5.27995317,13.6828 L5.05705046,13.1412117 L5.05705046,13.6828 L2.51098406,13.6828 L2.241164,12.9648308 L1.59597493,12.9648308 L1.30227352,13.6828 L0,13.6828 L0,27 L26.8121193,27 L26.8121193,18.917771 C26.5303434,19.0472097 26.1195902,19.1176533 25.7207927,19.1176533 L23.7614045,19.1176533 L23.7614045,18.847267 C23.5381093,19.0237083 23.1273862,19.1176533 22.7520474,19.1176533 L16.5920769,19.1176533 L16.5920769,18.1062193 C16.5920769,17.9648487 16.5682559,17.9648487 16.4508116,17.9648487 L16.3457457,17.9648487 L16.3457457,19.1176533 L14.3154984,19.1176533 L14.3154984,17.9178158 C13.9751816,18.0823252 13.5995107,18.0823252 13.2591938,18.0823252 L13.0362911,18.0823252 L13.0362911,19.1176533 L10.5606913,19.1176533 L9.97404327,18.4355402 L9.32849191,19.1176533 L5.35078207,19.1176533 L5.35078207,14.6942945 L9.39889813,14.6942945 L9.97404327,15.3768305 L10.6076992,14.6942945 L13.3296604,14.6942945 C13.6468507,14.6942945 14.1630623,14.741267 14.385965,14.9646808 L14.385965,14.6942945 L16.8149796,14.6942945 C17.0609485,14.6942945 17.5306051,14.741267 17.8474029,14.9646808 L17.8474029,14.6942945 L21.5082847,14.6942945 L21.5082847,14.9646808 C21.7196242,14.7882395 22.094963,14.6942945 22.4352496,14.6942945 L24.4769998,14.6942945 L24.4769998,14.9646808 C24.700295,14.8121335 25.0167003,14.6942945 25.4274837,14.6942945 L26.8121193,14.6942945 L26.8121193,0 Z M1.3846657,11.682527 L1.91283311,10.4352941 L2.42862207,11.682527 L1.3846657,11.682527 Z M13.7988943,11.1767949 C13.6818727,11.2472687 13.5760218,11.2472687 13.4231932,11.2472687 L12.4965906,11.2472687 L12.4965906,10.5531935 L13.4231932,10.5531935 C13.5529254,10.5531935 13.704969,10.5531935 13.7988943,10.600166 C13.8928196,10.6591309 13.9397671,10.7530758 13.9397671,10.8940537 C13.9397671,11.0238851 13.8928196,11.1413616 13.7988943,11.1767949 Z M20.3230027,11.682527 L19.806791,10.4352941 L19.2905794,11.682527 L20.3230027,11.682527 Z M8.13128427,9.8941589 L6.89983965,9.8941589 L5.97248227,12.0353796 L4.98700654,9.8941589 L3.7786583,9.8941589 L3.7786583,12.8704327 L2.48752538,9.8941589 L1.37313261,9.8941589 L0.0234586759,13.0472365 L0.83303962,13.0472365 L1.11481545,12.3531613 L2.698895,12.3531613 L2.98024815,13.0472365 L4.51738015,13.0472365 L4.51738015,10.5766949 L5.62063232,13.0472365 L6.26579119,13.0472365 L7.36910374,10.5766949 L7.36910374,13.0472365 L8.13128427,13.0472365 L8.13128427,9.8941589 Z M11.217806,12.4001338 L9.45743915,12.4001338 L9.45743915,11.7649932 L11.1943171,11.7649932 L11.1943171,11.1178905 L9.45743915,11.1178905 L9.45743915,10.5531935 L11.217806,10.5531935 L11.217806,9.8941589 L8.69486613,9.8941589 L8.69486613,13.0472365 L11.217806,13.0472365 L11.217806,12.4001338 Z M14.385965,10.0355295 C14.139181,9.8941589 13.8697534,9.8941589 13.482489,9.8941589 L11.7575065,9.8941589 L11.7575065,13.0472365 L12.4965906,13.0472365 L12.4965906,11.9059409 L13.3061414,11.9059409 C13.5760218,11.9059409 13.7523393,11.9294422 13.8697534,12.0353796 C13.9987007,12.2002515 13.9751816,12.4706076 13.9751816,12.647049 L13.9751816,13.0472365 L14.7493481,13.0472365 L14.7493481,12.4236352 C14.7493481,12.1532186 14.725829,12.011848 14.6088074,11.8589382 C14.5384012,11.7649932 14.4094539,11.6590559 14.245062,11.5885821 C14.4559788,11.494184 14.7851852,11.2472687 14.7851852,10.7530758 C14.7851852,10.3883216 14.6323566,10.1884393 14.385965,10.0355295 Z M15.219367,13.0472365 L15.9815475,13.0472365 L15.9815475,9.8941589 L15.219367,9.8941589 L15.219367,13.0472365 Z M24.9112721,13.0472365 L23.8318409,13.0472365 L22.4117306,10.6826322 L22.4117306,13.0472365 L20.8866147,13.0472365 L20.5928831,12.3531613 L19.0207292,12.3531613 L18.7274202,13.0472365 L17.8474029,13.0472365 C17.4836273,13.0472365 17.0143934,12.9648308 16.7445432,12.6944142 C16.4977893,12.4236352 16.3568863,12.0588809 16.3568863,11.494184 C16.3688119,11.0238851 16.4277152,10.600166 16.7680321,10.2589131 C16.9909348,10.0120281 17.4012654,9.8941589 17.9178695,9.8941589 L18.6334648,9.8941589 L18.6334648,10.5766949 L17.9178695,10.5766949 C17.6480192,10.5766949 17.4836273,10.6236976 17.3307988,10.7530758 C17.1902882,10.8940537 17.1314151,11.1413616 17.1314151,11.4706826 C17.1314151,11.8119657 17.1902882,12.0588809 17.3307988,12.2237226 C17.4366798,12.3296298 17.6480192,12.3766325 17.8474029,12.3766325 L18.1877197,12.3766325 L19.2675132,9.8941589 L20.3819362,9.8941589 L21.6491877,12.8704327 L21.6491877,9.8941589 L22.8109507,9.8941589 L24.1367433,12.0823521 L24.1367433,9.8941589 L24.9112721,9.8941589 L24.9112721,13.0472365 Z M8.62439953,17.83541 L6.75893664,17.83541 L6.75893664,17.1998465 L8.42501588,17.1998465 L8.42501588,16.5647059 L6.75893664,16.5647059 L6.75893664,15.9884697 L8.64788839,15.9884697 L9.4813205,16.905989 L8.62439953,17.83541 Z M10.4548706,16.905989 L11.6166035,15.670688 L11.6166035,18.2117035 L10.4548706,16.905989 Z M13.3531191,16.7884823 L12.3557178,16.7884823 L12.3557178,15.9884697 L13.3531191,15.9884697 C13.623392,15.9884697 13.7988943,16.094407 13.7988943,16.3648236 C13.7988943,16.6351798 13.623392,16.7884823 13.3531191,16.7884823 Z M17.0143934,16.6351798 C16.8969793,16.6825449 16.7910982,16.6825449 16.6506179,16.6825449 L15.7356088,16.7060765 L15.7356088,15.9884697 L16.6506179,15.9884697 C16.7910982,15.9884697 16.9204682,15.9884697 17.0143934,16.0470419 C17.1082885,16.094407 17.1668296,16.1883822 17.1668296,16.3177907 C17.1668296,16.4591613 17.1082885,16.5647059 17.0143934,16.6351798 Z M13.3531191,15.3294351 L10.9479557,15.3294351 L9.97404327,16.3648236 L9.05864166,15.3294351 L6.01942981,15.3294351 L6.01942981,18.4825127 L9.01163373,18.4825127 L9.97404327,17.4471242 L10.9010082,18.4825127 L12.3557178,18.4825127 L12.3557178,17.4236531 L13.3061414,17.4236531 C13.9517229,17.4236531 14.6088074,17.2472419 14.6088074,16.3648236 C14.6088074,15.5058462 13.9397671,15.3294351 13.3531191,15.3294351 Z M17.6245605,15.4823449 C17.3781992,15.3529062 17.0848299,15.3294351 16.6972032,15.3294351 L14.9726131,15.3294351 L14.9726131,18.4825127 L15.7356088,18.4825127 L15.7356088,17.3297081 L16.5451294,17.3297081 C16.8149796,17.3297081 16.9674157,17.3531792 17.0848299,17.4706558 C17.2137771,17.6235656 17.2137771,17.8939821 17.2137771,18.1062193 L17.2137771,18.4825127 L17.964817,18.4825127 L17.964817,17.8704506 C17.964817,17.5881323 17.9413583,17.4471242 17.8474029,17.2942144 C17.7769665,17.1998465 17.6480192,17.08237 17.4601385,17.0234655 C17.6711156,16.9529615 17.999839,16.6825449 17.999839,16.1883822 C17.999839,15.823628 17.8708917,15.6237155 17.6245605,15.4823449 Z M20.9450954,17.83541 L19.1731955,17.83541 L19.1731955,17.1998465 L20.9101036,17.1998465 L20.9101036,16.5647059 L19.1731955,16.5647059 L19.1731955,15.9884697 L20.9450954,15.9884697 L20.9450954,15.3294351 L18.4340811,15.3294351 L18.4340811,18.4825127 L20.9450954,18.4825127 L20.9450954,17.83541 Z M23.8318409,16.8119836 C23.6439904,16.6590738 23.3741401,16.5647059 22.9518537,16.5647059 L22.5411005,16.5647059 C22.4352496,16.5647059 22.3413243,16.5412348 22.2477916,16.5177334 C22.1653994,16.4826626 22.094963,16.4117961 22.094963,16.2938967 C22.094963,16.1883822 22.1188443,16.1174855 22.2123771,16.0470419 C22.2708577,16.000009 22.364783,16.000009 22.505686,16.000009 L23.8903819,16.000009 L23.8903819,15.3294351 L22.3882719,15.3294351 C21.5787211,15.3294351 21.3089011,15.823628 21.3089011,16.2708182 C21.3089011,17.2707432 22.1888882,17.2237405 22.8814173,17.2472419 C23.0218977,17.2472419 23.10432,17.2707432 23.1512676,17.3177459 C23.1978528,17.3531792 23.2451929,17.4471242 23.2451929,17.5411296 C23.2451929,17.6235656 23.1978528,17.6944623 23.1512676,17.7414348 C23.0804387,17.7884375 22.998439,17.8119389 22.8579285,17.8119389 L21.4028264,17.8119389 L21.4028264,18.4825127 L22.8579285,18.4825127 C23.6205317,18.4825127 24.0547436,18.164731 24.0547436,17.4945498 C24.0547436,17.1767681 23.9603957,16.9764931 23.8318409,16.8119836 Z M27,17.4945498 C27,18.164731 26.5653956,18.4825127 25.8031547,18.4825127 L24.3480525,18.4825127 L24.3480525,17.8119389 L25.8031547,17.8119389 C25.9436954,17.8119389 26.0495462,17.7884375 26.096524,17.7414348 C26.1434715,17.6944623 26.1900568,17.6235656 26.1900568,17.5411296 C26.1900568,17.4471242 26.1434715,17.3531792 26.096524,17.3177459 C26.0495462,17.2707432 25.9671541,17.2472419 25.8266737,17.2472419 C25.1345371,17.2237405 24.2541575,17.2707432 24.2541575,16.2708182 C24.2541575,15.823628 24.5474664,15.3294351 25.3335283,15.3294351 L26.8356081,15.3294351 L26.8356081,16.000009 L25.4509424,16.000009 C25.3100696,16.000009 25.2161141,16.000009 25.1576033,16.0470419 C25.0871669,16.1174855 25.0402193,16.1883822 25.0402193,16.2938967 C25.0402193,16.4117961 25.1106256,16.4826626 25.1926555,16.5177334 C25.286943,16.5412348 25.3808985,16.5647059 25.4863569,16.5647059 L25.8966875,16.5647059 C26.3193663,16.5647059 26.5892165,16.6590738 26.7770973,16.8119836 C26.9060747,16.9764931 27,17.1767681 27,17.4945498 Z" id="Fill-1"></path>
                </g>
            </g>
        </g>
    </g>
</svg>