<svg width="18" height="18" viewBox="0 0 18 18" fill="none" xmlns="http://www.w3.org/2000/svg">
<path fill-rule="evenodd" clip-rule="evenodd" d="M15.2878 13.1618L14.2288 12.1028C13.6998 11.5738 12.8422 11.5738 12.314 12.1028L11.4817 12.9352C11.2957 13.1212 11.014 13.1835 10.7739 13.0778C9.5678 12.5497 8.37613 11.749 7.31356 10.6864C6.2555 9.62833 5.45745 8.44208 4.92842 7.24049C4.81828 6.99222 4.88238 6.70062 5.07467 6.50833L5.82036 5.76264C6.42613 5.15687 6.42613 4.30014 5.8971 3.77111L4.83814 2.71215C4.13307 2.00708 2.99016 2.00708 2.28509 2.71215L1.69648 3.29986C1.02752 3.96882 0.748559 4.93389 0.929114 5.89083C1.37509 8.24979 2.7455 10.8326 4.95641 13.0435C7.16731 15.2544 9.75016 16.6249 12.1091 17.0708C13.0661 17.2514 14.0311 16.9724 14.7001 16.3035L15.2878 15.7158C15.9929 15.0107 15.9929 13.8678 15.2878 13.1618V13.1618Z" stroke="#2B3134" stroke-width="1.5" stroke-linecap="round" stroke-linejoin="round"/>
<path d="M9.90271 4.47812C10.8335 4.46548 11.7688 4.81034 12.4792 5.52083" stroke="#2B3134" stroke-width="1.5" stroke-linecap="round" stroke-linejoin="round"/>
<path d="M15.0323 2.96767C13.6158 1.55121 11.7588 0.842529 9.90271 0.842529" stroke="#2B3134" stroke-width="1.5" stroke-linecap="round" stroke-linejoin="round"/>
<path d="M13.522 8.09728C13.5346 7.16652 13.1897 6.23124 12.4792 5.52075" stroke="#2B3134" stroke-width="1.5" stroke-linecap="round" stroke-linejoin="round"/>
<path d="M15.0323 2.96777C16.4488 4.38423 17.1575 6.24125 17.1575 8.09736" stroke="#2B3134" stroke-width="1.5" stroke-linecap="round" stroke-linejoin="round"/>
</svg>
