<?xml version="1.0" encoding="UTF-8"?>
<svg width="20px" height="20px" viewBox="0 0 20 20" version="1.1" xmlns="http://www.w3.org/2000/svg" xmlns:xlink="http://www.w3.org/1999/xlink">
    <!-- Generator: Sketch 48.2 (47327) - http://www.bohemiancoding.com/sketch -->
    <title>Shape</title>
    <desc>Created with Sketch.</desc>
    <defs></defs>
    <g id="1" stroke="none" stroke-width="1" fill="none" fill-rule="evenodd" transform="translate(-40.000000, -785.000000)">
        <g id="phone" transform="translate(40.000000, 785.000000)" fill="#000000" fill-rule="nonzero">
            <path d="M10.0000412,0 C4.47756641,0 0,4.47754796 0,10 C0,15.5223696 4.47756641,20 10.0000412,20 C15.522516,20 20,15.5223284 20,10 C20.0000412,4.47754796 15.522516,0 10.0000412,0 Z M15.6629502,13.9898223 L14.8801299,14.772958 C14.7403707,14.9125431 14.331128,14.9996477 14.3179903,14.9996477 C11.8414972,15.0212526 9.45700818,14.0483085 7.70502192,12.2958161 C5.94823999,10.5376807 4.97435905,8.14421738 5.00051351,5.65889312 C5.00051351,5.65776451 5.0901399,5.26017067 5.22977813,5.1218351 L6.01255821,4.33878 C6.299008,4.05094367 6.8492592,3.92087115 7.23472519,4.04985537 L7.39938949,4.10479458 C7.7837271,4.23365787 8.18724733,4.65870116 8.29343686,5.05028917 L8.68720458,6.49579913 C8.79339412,6.88851576 8.65016922,7.44721894 8.36380002,7.73372512 L7.84111378,8.25659488 C8.35428931,10.1567742 9.84493245,11.6479929 11.7450602,12.162519 L12.2675449,11.6395283 C12.5553246,11.351692 13.1137163,11.2085598 13.5055094,11.314609 L14.9505333,11.709865 C15.3421249,11.8174863 15.7670039,12.2185465 15.8958015,12.6028389 L15.9507299,12.7699137 C16.0783992,13.1543673 15.9493597,13.7046059 15.6629502,13.9898223 Z" id="Shape"></path>
        </g>
    </g>
</svg>