<svg xmlns="http://www.w3.org/2000/svg" xmlns:xlink="http://www.w3.org/1999/xlink" width="19" height="15" viewBox="0 0 19 15"><defs><path id="1odla" d="M667.143 1155.184a.57.57 0 0 0-.84 0l-8.852 9.279a.569.569 0 0 1-.841 0l-3.88-4.16a.57.57 0 0 0-.84 0l-1.714 1.623a.643.643 0 0 0-.176.438c0 .162.062.331.177.454l3.91 4.322.842.892 1.682 1.785a.574.574 0 0 0 .84 0l11.375-11.956a.66.66 0 0 0 0-.892z"/></defs><g><g transform="translate(-650 -1155)"><use fill="#fff" xlink:href="#1odla"/></g></g></svg>