<?xml version="1.0" encoding="utf-8"?>
<!-- Generator: Adobe Illustrator 19.0.0, SVG Export Plug-In . SVG Version: 6.00 Build 0)  -->
<svg version="1.1" id="Layer_1" xmlns="http://www.w3.org/2000/svg" xmlns:xlink="http://www.w3.org/1999/xlink" x="0px" y="0px"
	 viewBox="-11 51 116 40" style="enable-background:new -11 51 116 40;" xml:space="preserve">
<style type="text/css">
	.st0{fill:none;stroke:#E8EAEC;}
	.st1{display:none;}
	.st2{display:inline;}
</style>
<title>Appstore</title>
<desc>Created with Sketch.</desc>
<g id="menu_320_full" transform="translate(-15.000000, -924.000000)">
	<g id="Mobile" transform="translate(15.000000, 924.000000)">
		<g id="Appstore_1_">
			<g id="footer">
				<g>
					<g id="Footer">
						<g id="Group">
							<g id="Group-3">
								<g id="Store-Badges">
									<g id="Appstore" transform="translate(0.383694, 0.000000)">
										<path id="Border" class="st0" d="M-5.1,51.8H99c2.8,0,5,2.2,5,5v28.3c0,2.8-2.2,5-5,5H-5.1c-2.8,0-5-2.2-5-5V56.8
											C-10.1,54.1-7.9,51.8-5.1,51.8z"/>
										<g id="Content" transform="translate(6.812131, 6.662370)">
											<path id="Fill-7" d="M0.1,52.8C1,51.9,2.3,51.1,3.6,51c0.2,1.3-0.5,2.7-1.2,3.7c-0.9,0.9-2.1,1.6-3.5,1.6
												C-1.3,55-0.7,53.7,0.1,52.8"/>
											<path id="Fill-9" d="M6.8,71c-0.9,1.3-2,2.8-3.7,2.8c-1.5,0-2.1-0.9-4-0.9s-2.4,0.9-4,0.9s-2.7-1.5-3.7-2.8
												c-2-2.8-3.7-8-1.5-11.5c1.1-1.8,2.9-2.8,4.9-2.8c1.5,0,3.1,1,4,1c0.9,0,2.7-1.2,4.6-1c0.8,0,2.9,0.3,4.3,2.2
												c-0.2,0-2.6,1.5-2.6,4.3c0,3.4,3.2,4.6,3.2,4.6C8.4,67.9,8,69.4,6.8,71"/>
											<path id="Fill-20" d="M58,72.8c-0.8,0.7-2,1-3.4,1c-1.4,0-2.4-0.3-3.2-0.7l0.5-1.6c0.9,0.4,1.8,0.7,2.9,0.7
												c0.8,0,1.4-0.1,1.7-0.4c0.5-0.3,0.6-0.7,0.6-1.3c0-0.4-0.2-0.9-0.5-1.2s-0.9-0.6-1.7-0.9c-2.1-0.7-3.2-1.9-3.2-3.4
												c0-1,0.3-1.8,1.1-2.4c0.8-0.6,1.8-0.9,3.1-0.9c1.1,0,2.1,0.1,2.7,0.6l-0.5,1.5c-0.8-0.3-1.5-0.6-2.4-0.6
												c-0.8,0-1.2,0.1-1.7,0.4c-0.3,0.3-0.5,0.6-0.5,1c0,0.4,0.2,0.9,0.6,1.2c0.3,0.3,0.9,0.6,1.8,0.9c1.1,0.4,1.8,0.9,2.3,1.5
												c0.5,0.6,0.8,1.2,0.8,2.1C59.1,71.3,58.8,72.2,58,72.8"/>
											<path id="Fill-22" d="M65.6,66.5h-2.1v4.1c0,1,0.5,1.6,1.2,1.6c0.3,0,0.6,0,0.9-0.1v1.5c-0.5,0.1-0.9,0.1-1.5,0.1
												c-0.8,0-1.4-0.3-1.8-0.7c-0.5-0.4-0.6-1.2-0.6-2.4v-4.3h-1.4v-1.5h1.2v-1.6l2-0.6v2.1h2.1V66.5z"/>
											<path id="Fill-24" d="M82,66.7h-0.6c-0.8,0-1.2,0.3-1.7,0.7c-0.3,0.4-0.5,1-0.5,1.6v4.4h-2v-5.9v-2.7h1.7v1.6
												c0.2-0.6,0.6-1,0.9-1.3c0.5-0.3,0.9-0.4,1.4-0.4h0.5v1.9H82z"/>
											<path id="Fill-26" class="st1" d="M33.2,56.9c-0.3,0-0.8,0-1.1-0.3v-2.1c0.3-0.3,0.8-0.6,1.2-0.6c0.9,0,1.4,0.6,1.4,1.5
												C34.7,56.3,34.1,57.1,33.2,56.9 M33.6,53.4c-0.6,0-1.2,0.3-1.5,0.6v-0.4h-0.8v5.9h0.8v-2.1c0.3,0.1,0.8,0.3,1.2,0.3
												c1.4,0,2.3-0.9,2.3-2.2C35.6,54.3,34.8,53.4,33.6,53.4"/>
											<path id="Fill-28" d="M73,71.4c-0.5,0.7-1.1,1-1.8,1s-1.4-0.3-1.8-1c-0.3-0.6-0.5-1.3-0.5-2.1c0-0.9,0.2-1.5,0.5-2.1
												c0.5-0.7,1.1-1,1.8-1s1.4,0.4,2,1c0.3,0.6,0.5,1.3,0.5,2.1S73.3,70.8,73,71.4 M74.5,66.1c-0.9-0.7-1.8-1.2-3.2-1.2
												s-2.4,0.4-3.2,1.3c-0.8,0.9-1.2,1.9-1.2,3.3c0,1.2,0.5,2.2,1.2,3.1c0.8,0.7,1.7,1.2,3.1,1.2c1.2,0,2.4-0.4,3.2-1.3
												c0.8-0.7,1.2-1.9,1.2-3.3C75.6,68,75.2,66.8,74.5,66.1"/>
											<g id="Group-5" transform="translate(28.206310, 0.000000)" class="st1">
												<path id="Fill-1" class="st2" d="M14.4,55.7h-0.8v-0.6h0.6c0.5,0,0.8-0.3,0.8-0.6c0-0.4-0.3-0.6-0.9-0.6
													c-0.6,0-1.1,0.3-1.2,0.4l-0.3-0.6c0.3-0.3,1.1-0.6,1.7-0.6c1.1,0,1.7,0.4,1.7,1.2c0,0.4-0.2,0.7-0.8,1
													c0.6,0,0.9,0.4,0.9,1c0,0.7-0.8,1.2-1.8,1.2c-0.6,0-1.5-0.3-1.8-0.6l0.5-0.6c0.3,0.3,0.9,0.4,1.2,0.4
													c0.6,0,1.1-0.3,1.1-0.7C15.3,56,15,55.7,14.4,55.7"/>
												<path id="Fill-3" class="st2" d="M-2.5,56.3c-0.2,0.3-0.5,0.6-1.1,0.6c-0.5,0-0.8-0.1-0.8-0.6c0-0.4,0.5-0.7,0.9-0.7
													c0.3,0,0.6,0.1,0.9,0.3V56.3z M-3.4,53.2c-0.5,0-1.1,0.1-1.4,0.4l0.2,0.6c0.5-0.1,0.8-0.3,1.2-0.3
													c0.9,0,1.1,0.6,0.9,1.3C-2.8,55-3.3,55-3.6,55c-0.9,0-1.7,0.4-1.7,1.3c0,0.9,0.6,1.3,1.4,1.3s1.1-0.3,1.4-0.6v0.3h0.8
													v-2.5C-1.8,53.8-2.2,53.2-3.4,53.2z"/>
												<path id="Fill-5" class="st2" d="M-8.3,54.7h-0.8V54h0.8c0.6,0,1.1-0.4,1.1-1c0-0.7-0.5-1-1.2-1c-0.6,0-1.1,0.3-1.5,0.7
													l-0.5-0.4c0.5-0.6,1.2-0.9,2.1-0.9c1.2,0,2,0.6,2,1.8c0,0.6-0.3,1.2-0.9,1.5C-6.5,54.7-6,55.3-6,56
													c0,1.2-1.1,1.9-2.3,1.9c-1.1,0-1.8-0.4-2.1-1l0.5-0.6c0.5,0.4,1.1,0.7,1.7,0.7c0.9,0,1.5-0.4,1.5-1.2
													C-6.9,55.1-7.4,54.7-8.3,54.7"/>
												<polygon id="Fill-12" class="st2" points="0.4,57.7 -0.4,57.7 -0.4,53.5 2.4,53.5 2.4,54.3 0.4,54.3 												"/>
												<path id="Fill-14" class="st2" d="M8.8,59.4c-0.3,0-0.6-0.1-0.8-0.3l0.3-0.6c0.2,0,0.3,0.1,0.5,0.1
													c0.3,0,0.6-0.3,0.9-0.9l0.2-0.1l-2-4.1h0.9l1.2,2.7c0.2,0.1,0.2,0.4,0.3,0.6c0-0.1,0.2-0.4,0.2-0.6l0.9-2.7h0.9
													l-1.7,4.1C9.7,59.1,9.4,59.4,8.8,59.4"/>
												<polygon id="Fill-16" class="st2" points="21.3,57.7 20.5,57.7 20.5,54.6 18.1,57.7 17.3,57.7 17.3,53.5 18.1,53.5 
													18.1,56.6 20.5,53.5 21.3,53.5 												"/>
												<polygon id="Fill-18" class="st2" points="22,53.5 26,53.5 26,54.3 24.5,54.3 24.5,57.7 23.7,57.7 23.7,54.3 22.2,54.3 
													22.2,53.5 												"/>
												<path id="Fill-30" class="st2" d="M27.2,55.1c0.2-0.6,0.6-1,1.4-1s1.2,0.3,1.2,1H27.2z M30.6,55.3c0-1.2-0.9-1.9-2-1.9
													c-1.4,0-2.1,0.9-2.3,2.2c0,1.3,0.9,2.2,2.3,2.2c0.6,0,1.2-0.3,1.7-0.6l-0.2-0.7c-0.3,0.3-0.8,0.4-1.4,0.4
													c-0.9,0-1.5-0.4-1.5-1.2h3.4V55.3z"/>
												<path id="Fill-32" class="st2" d="M35.5,57.1h-0.9v-1.3h0.9c0.8,0,1.1,0.1,1.1,0.6C36.5,56.8,36.1,57.1,35.5,57.1z
													 M34.5,54h0.9c0.5,0,0.9,0.1,0.9,0.6c0,0.4-0.3,0.7-0.9,0.6h-0.9V54z M36.2,55.4c0.6,0,0.9-0.4,0.9-0.9
													c0-0.7-0.6-1-1.8-1h-1.5v4.1h1.5c1.4,0,2-0.4,2-1.2C37.3,55.9,36.8,55.6,36.2,55.4z"/>
											</g>
											<path id="Fill-34" d="M20.2,68.6l1.1-3.1c0.3-1,0.5-1.8,0.6-2.2c0.3,1.2,0.5,1.9,0.6,2.2l1.1,3.1H20.2z M23.2,61.8h-2.4
												l-4,11.8h2l1.1-3.6h4l1.2,3.6h2.1L23.2,61.8z"/>
											<path id="Fill-36" d="M84.9,68.5c0.2-0.6,0.3-1,0.6-1.5c0.3-0.4,0.9-0.7,1.5-0.7c0.6,0,1.2,0.1,1.5,0.7
												c0.3,0.4,0.5,0.9,0.5,1.5H84.9z M90.7,68.9c0-1-0.3-1.9-0.8-2.7c-0.6-0.9-1.7-1.3-2.9-1.3s-2.3,0.4-3.1,1.3
												c-0.8,0.9-1.1,1.9-1.1,3.3s0.5,2.4,1.2,3.1c0.8,0.7,1.8,1.2,3.2,1.2c1.2,0,2.1-0.3,3.1-0.6L90,71.9
												c-0.8,0.3-1.5,0.4-2.4,0.4c-0.8,0-1.5-0.1-2-0.6c-0.6-0.4-0.9-1-0.9-1.9h5.9C90.8,69.5,90.8,69.4,90.7,68.9z"/>
											<path id="Fill-38" d="M44.9,71.4c-0.3,0.6-0.9,0.9-1.7,0.9c-0.6,0-1.1-0.1-1.5-0.6c-0.5-0.4-0.6-1-0.6-1.6v-1.5
												c0-0.1,0.2-0.3,0.2-0.6c0.2-0.4,0.3-0.9,0.8-1.2s0.9-0.4,1.4-0.4c0.6,0,1.2,0.3,1.5,0.7c0.5,0.6,0.6,1.2,0.6,2.1
												C45.5,70.1,45.4,70.8,44.9,71.4 M46.6,66.2c-0.6-0.7-1.5-1.2-2.6-1.2c-1.4,0-2.4,0.4-3.1,1.5l-0.2-1.3h-1.7V68v9.2h2
												v-4.4c0.6,0.7,1.4,1.2,2.6,1.2c1.1,0,2-0.4,2.7-1.2c0.8-0.9,1.2-2.1,1.2-3.4S47.3,67,46.6,66.2"/>
											<path id="Fill-40" d="M34.5,71.4c-0.3,0.6-0.9,0.9-1.7,0.9c-0.6,0-1.1-0.1-1.5-0.6c-0.5-0.4-0.6-1-0.6-1.6v-1.5
												c0-0.1,0.2-0.3,0.2-0.6c0.2-0.4,0.3-0.9,0.8-1.2s0.9-0.4,1.4-0.4c0.8,0,1.4,0.3,1.5,0.7c0.5,0.6,0.6,1.2,0.6,2.1
												C35.1,70.1,35,70.8,34.5,71.4 M36.4,66.2c-0.6-0.7-1.5-1.2-2.6-1.2c-1.4,0-2.4,0.4-3.1,1.5l-0.2-1.3h-1.7V68v9.2h2v-4.4
												c0.6,0.7,1.4,1.2,2.6,1.2c1.1,0,2-0.4,2.7-1.2c0.8-0.9,1.2-2.1,1.2-3.4S37.1,67,36.4,66.2"/>
										</g>
									</g>
								</g>
							</g>
						</g>
					</g>
				</g>
			</g>
		</g>
	</g>
</g>
</svg>
