<?xml version="1.0" encoding="utf-8"?>
<!-- Generator: Adobe Illustrator 19.0.0, SVG Export Plug-In . SVG Version: 6.00 Build 0)  -->
<svg version="1.1" id="Layer_1" xmlns="http://www.w3.org/2000/svg" xmlns:xlink="http://www.w3.org/1999/xlink" x="0px" y="0px"
	 viewBox="-9 51 120 40" style="enable-background:new -9 51 120 40;" xml:space="preserve">
<style type="text/css">
	.st0{fill:#349FDF;}
	.st1{fill:#FFFFFF;}
	.st2{filter:url(#Adobe_OpacityMaskFilter);}
	.st3{mask:url(#mask-2);fill:#FFFFFF;}
	.st4{filter:url(#Adobe_OpacityMaskFilter_1_);}
	.st5{mask:url(#mask-4);fill:#FFFFFF;}
	.st6{filter:url(#Adobe_OpacityMaskFilter_2_);}
	.st7{mask:url(#mask-6);fill:#FFFFFF;}
	.st8{filter:url(#Adobe_OpacityMaskFilter_3_);}
	.st9{mask:url(#mask-8);fill:#FFFFFF;}
	.st10{filter:url(#Adobe_OpacityMaskFilter_4_);}
	.st11{mask:url(#mask-10);fill:#FFFFFF;}
	.st12{filter:url(#Adobe_OpacityMaskFilter_5_);}
	.st13{mask:url(#mask-12);fill:#FFFFFF;}
	.st14{filter:url(#Adobe_OpacityMaskFilter_6_);}
	.st15{mask:url(#mask-14);fill:#FFFFFF;}
	.st16{filter:url(#Adobe_OpacityMaskFilter_7_);}
	.st17{mask:url(#mask-16);fill:#349FDF;}
</style>
<title>Google play</title>
<desc>Created with Sketch.</desc>
<g id="menu_320_full_press" transform="translate(-154.000000, -924.000000)">
	<g id="Mobile" transform="translate(15.000000, 924.000000)">
		<g id="Google-play" transform="translate(139.000000, 0.000000)">
			<g id="Google-Play_1_">
				<g id="footer">
					<g>
						<g id="Footer">
							<g id="Group">
								<g id="Group-3">
									<g id="Store-Badges">
										<g id="Google-Play">
											<path id="Border" class="st0" d="M-3.6,51.3h109.4c2.8,0,5,2.2,5,5v29.3c0,2.8-2.2,5-5,5H-3.6c-2.8,0-5-2.2-5-5V56.3
												C-8.6,53.6-6.4,51.3-3.6,51.3z"/>
											<g id="Content" transform="translate(6.796956, 6.498156)">
												<path id="Fill-1" class="st1" d="M25.4,72.4c-1.1,1.1-2.6,1.7-4.5,1.7c-3.5,0-6.5-2.8-6.5-6.3c0-3.4,2.9-6.3,6.5-6.3
													c1.9,0,3.4,0.8,4.4,1.7l-1.3,1.3c-0.8-0.6-1.8-1.3-3.1-1.3c-2.6,0-4.5,2-4.5,4.5s1.9,4.5,4.5,4.5c1.6,0,2.6-0.6,3.2-1.3
													c0.5-0.5,0.8-1.3,1-2.2h-4.2v-1.6h6c0,0.3,0.2,0.6,0.2,1.1C26.8,69.7,26.5,71.3,25.4,72.4z"/>
												<path id="Fill-3" class="st1" d="M31.7,72.6c-1.1,0-2.3-0.9-2.3-2.4c0-1.4,1-2.4,2.3-2.4c1.1,0,2.3,0.9,2.3,2.4
													C33.9,71.6,32.9,72.6,31.7,72.6 M31.7,66.3c-2.4,0-4.2,1.6-4.2,3.9c0,2.2,1.9,3.9,4.2,3.9c2.3,0,4-1.6,4.2-3.9
													C35.9,68,33.9,66.3,31.7,66.3"/>
												<path id="Fill-5" class="st1" d="M42.8,70.2c0,1.4-1.1,2.4-2.3,2.4s-2.3-0.9-2.3-2.4c0-1.4,1-2.4,2.3-2.4
													C41.8,67.9,43,68.8,42.8,70.2 M40.5,66.3c-2.4,0-4.2,1.6-4.2,3.9c0,2.2,1.9,3.9,4.2,3.9s4.2-1.6,4.2-3.9
													C44.7,68,42.8,66.3,40.5,66.3"/>
												<path id="Fill-7" class="st1" d="M49.6,72.7c-1.3,0-2.3-0.9-2.3-2.4c0-1.4,1-2.5,2.3-2.5c1.3,0,2.3,0.9,2.3,2.5
													C51.8,71.8,50.9,72.7,49.6,72.7z M51.7,66.4v0.6c-0.3-0.5-1.1-0.9-2.1-0.9c-1.9,0-3.9,1.9-3.9,4.1s1.8,3.9,3.9,3.9
													c1,0,1.6-0.5,2.1-0.9v0.6c0,1.6-1,2.4-2.3,2.4c-1.1,0-1.8-0.8-2.1-1.4l-1.6,0.6c0.5,1.1,1.8,2.4,3.7,2.4
													c2.1,0,3.9-1.1,3.9-4.1h0.2v-7.2H51.7z"/>
												<g id="Fill-9-Clipped" transform="translate(0.000000, 0.000000)">
													<g id="path-1_1_">
													</g>
													<defs>
														<filter id="Adobe_OpacityMaskFilter" filterUnits="userSpaceOnUse" x="54.6" y="62.2" width="1.8" height="11.8">
															<feColorMatrix  type="matrix" values="1 0 0 0 0  0 1 0 0 0  0 0 1 0 0  0 0 0 1 0"/>
														</filter>
													</defs>
													<mask maskUnits="userSpaceOnUse" x="54.6" y="62.2" width="1.8" height="11.8" id="mask-2">
														<g class="st2">
															<polygon id="path-1" class="st1" points="-9,77.7 96.2,77.7 96.2,51.2 -9,51.2 															"/>
														</g>
													</mask>
													<polygon id="Fill-9" class="st3" points="54.6,74 56.3,74 56.3,62.2 54.6,62.2 													"/>
												</g>
												<g id="Fill-11-Clipped" transform="translate(0.000000, 0.000000)">
													<g id="path-1_2_">
													</g>
													<defs>
														<filter id="Adobe_OpacityMaskFilter_1_" filterUnits="userSpaceOnUse" x="57.5" y="66.3" width="7.6" height="7.8">
															<feColorMatrix  type="matrix" values="1 0 0 0 0  0 1 0 0 0  0 0 1 0 0  0 0 0 1 0"/>
														</filter>
													</defs>
													<mask maskUnits="userSpaceOnUse" x="57.5" y="66.3" width="7.6" height="7.8" id="mask-4">
														<g class="st4">
															<polygon id="path-3" class="st1" points="-9,77.7 96.2,77.7 96.2,51.2 -9,51.2 															"/>
														</g>
													</mask>
													<path id="Fill-11" class="st5" d="M61.2,67.7c0.6,0,1.3,0.5,1.6,0.9l-3.7,1.4C58.9,68.5,60.2,67.7,61.2,67.7
														 M61.3,72.6c-1,0-1.6-0.3-1.8-1.1l5.5-2.2l-0.2-0.5c-0.3-0.8-1.5-2.5-3.5-2.5s-3.9,1.6-3.9,3.9c0,2.2,1.8,3.9,4,3.9
														c1.8,0,2.9-1.1,3.4-1.7l-1.5-0.9C63,72.1,62.3,72.6,61.3,72.6"/>
												</g>
												<g id="Fill-12-Clipped" transform="translate(0.000000, 0.000000)">
													<g id="path-1_3_">
													</g>
													<defs>
														<filter id="Adobe_OpacityMaskFilter_2_" filterUnits="userSpaceOnUse" x="78.1" y="62.2" width="1.8" height="11.8">
															<feColorMatrix  type="matrix" values="1 0 0 0 0  0 1 0 0 0  0 0 1 0 0  0 0 0 1 0"/>
														</filter>
													</defs>
													<mask maskUnits="userSpaceOnUse" x="78.1" y="62.2" width="1.8" height="11.8" id="mask-6">
														<g class="st6">
															<polygon id="path-5" class="st1" points="-9,77.7 96.2,77.7 96.2,51.2 -9,51.2 															"/>
														</g>
													</mask>
													<polygon id="Fill-12" class="st7" points="78.1,74 79.9,74 79.9,62.2 78.1,62.2 													"/>
												</g>
												<g id="Fill-13-Clipped" transform="translate(0.000000, 0.000000)">
													<g id="path-1_4_">
													</g>
													<defs>
														<filter id="Adobe_OpacityMaskFilter_3_" filterUnits="userSpaceOnUse" x="80.9" y="66.1" width="7.3" height="8">
															<feColorMatrix  type="matrix" values="1 0 0 0 0  0 1 0 0 0  0 0 1 0 0  0 0 0 1 0"/>
														</filter>
													</defs>
													<mask maskUnits="userSpaceOnUse" x="80.9" y="66.1" width="7.3" height="8" id="mask-8">
														<g class="st8">
															<polygon id="path-7" class="st1" points="-9,77.7 96.2,77.7 96.2,51.2 -9,51.2 															"/>
														</g>
													</mask>
													<path id="Fill-13" class="st9" d="M84.1,72.6c-0.6,0-1.5-0.2-1.5-0.9c0-0.9,1-1.3,1.9-1.4c0.8,0,1.1,0.3,1.6,0.5
														C86,71.8,85.1,72.6,84.1,72.6 M84.4,66.1c-1.3,0-2.7,0.5-3.2,1.7l1.6,0.6c0.3-0.6,1-0.8,1.6-0.8c1,0,1.9,0.6,1.9,1.6
														v0.2C86,69.3,85.2,69,84.4,69c-1.8,0-3.5,0.9-3.5,2.7c0,1.6,1.5,2.5,3.1,2.5c1.1,0,1.8-0.5,2.3-1.1V74H88h0.2v-4.5
														C88.1,67.2,86.5,66.1,84.4,66.1"/>
												</g>
												<g id="Fill-14-Clipped" transform="translate(0.000000, 0.000000)">
													<g id="path-1_5_">
													</g>
													<defs>
														<filter id="Adobe_OpacityMaskFilter_4_" filterUnits="userSpaceOnUse" x="88" y="66.6" width="8.2" height="11">
															<feColorMatrix  type="matrix" values="1 0 0 0 0  0 1 0 0 0  0 0 1 0 0  0 0 0 1 0"/>
														</filter>
													</defs>
													<mask maskUnits="userSpaceOnUse" x="88" y="66.6" width="8.2" height="11" id="mask-10">
														<g class="st10">
															<polygon id="path-9" class="st1" points="-9,77.7 96.2,77.7 96.2,51.2 -9,51.2 															"/>
														</g>
													</mask>
													<polygon id="Fill-14" class="st11" points="91.4,77.6 89.4,77.6 91.2,73.7 88,66.6 89.9,66.6 92,71.6 94.1,66.6 
														96.2,66.6 													"/>
												</g>
												<g id="Fill-15-Clipped" transform="translate(0.000000, 0.000000)">
													<g id="path-1_6_">
													</g>
													<defs>
														<filter id="Adobe_OpacityMaskFilter_5_" filterUnits="userSpaceOnUse" x="68.8" y="62.2" width="8.4" height="11.8">
															<feColorMatrix  type="matrix" values="1 0 0 0 0  0 1 0 0 0  0 0 1 0 0  0 0 0 1 0"/>
														</filter>
													</defs>
													<mask maskUnits="userSpaceOnUse" x="68.8" y="62.2" width="8.4" height="11.8" id="mask-12">
														<g class="st12">
															<polygon id="path-11" class="st1" points="-9,77.7 96.2,77.7 96.2,51.2 -9,51.2 															"/>
														</g>
													</mask>
													<path id="Fill-15" class="st13" d="M73.1,68h-2.6v-4.1h2.6c1.3,0,2.1,0.9,2.1,2C75.2,66.9,74.4,68,73.1,68 M73.1,62.2
														h-4.4V74h1.8v-4.4h2.6c1.9,0,3.9-1.4,4-3.8C77.2,63.6,75.1,62.2,73.1,62.2"/>
												</g>
												<g id="Fill-16-Clipped" transform="translate(0.000000, 0.000000)">
													<g id="path-1_7_">
													</g>
													<defs>
														<filter id="Adobe_OpacityMaskFilter_6_" filterUnits="userSpaceOnUse" x="-9" y="54.8" width="18.4" height="18.8">
															<feColorMatrix  type="matrix" values="1 0 0 0 0  0 1 0 0 0  0 0 1 0 0  0 0 0 1 0"/>
														</filter>
													</defs>
													<mask maskUnits="userSpaceOnUse" x="-9" y="54.8" width="18.4" height="18.8" id="mask-14">
														<g class="st14">
															<polygon id="path-13" class="st1" points="-9,77.7 96.2,77.7 96.2,51.2 -9,51.2 															"/>
														</g>
													</mask>
													<path id="Fill-16" class="st15" d="M8.6,63.2l-3.9-2l-11.5-6c-0.5-0.3-1-0.3-1.3-0.3c-0.6,0.3-1,0.8-1,1.6v15.8
														c0,0.8,0.3,1.3,0.8,1.4h0.5c0.3,0,0.6,0,0.8-0.3l11.5-6l4-2c0.5-0.2,0.8-0.6,0.8-1.1S9.1,63.5,8.6,63.2z"/>
												</g>
												<g id="Fill-16-Copy-Clipped" transform="translate(0.000000, 0.000000)">
													<g id="path-1_8_">
													</g>
													<defs>
														<filter id="Adobe_OpacityMaskFilter_7_" filterUnits="userSpaceOnUse" x="-9.9" y="54.1" width="20.2" height="20.5">
															<feColorMatrix  type="matrix" values="1 0 0 0 0  0 1 0 0 0  0 0 1 0 0  0 0 0 1 0"/>
														</filter>
													</defs>
													<mask maskUnits="userSpaceOnUse" x="-9.9" y="54.1" width="20.2" height="20.5" id="mask-16">
														<g class="st16">
															<polygon id="path-15" class="st1" points="-9,77.7 96.2,77.7 96.2,51.2 -9,51.2 															"/>
														</g>
													</mask>
													<path id="Fill-16-Copy" class="st17" d="M10.2,64.2c0,0,0,0.2-0.4,0.4L5.4,67l-2.8-2.7l3-2.7l4.4,2.3
														C10.2,64,10.4,64.2,10.2,64.2z M-7.4,73.8L1.8,65l2.6,2.5L-7.4,73.8z M-9.9,74.6v-0.4V54.5v-0.4L1,64.2L-9.9,74.6z
														 M4.4,60.9l-2.6,2.5l-9-8.6L4.4,60.9z M8.6,63.2l-3.9-2l-11.5-6c-0.5-0.3-1-0.3-1.3-0.3c-0.6,0.3-1,0.8-1,1.6v15.8
														c0,0.8,0.3,1.3,0.8,1.4h0.5c0.3,0,0.6,0,0.8-0.3l11.5-6l4-2c0.5-0.2,0.8-0.6,0.8-1.1S9.1,63.5,8.6,63.2z"/>
												</g>
											</g>
										</g>
									</g>
								</g>
							</g>
						</g>
					</g>
				</g>
			</g>
		</g>
	</g>
</g>
</svg>
