<?xml version="1.0" encoding="UTF-8"?> <svg xmlns="http://www.w3.org/2000/svg" width="1541" height="567" viewBox="0 0 1541 567" fill="none"> <path d="M238.438 33.2992L246.322 24.9772C248.444 22.7385 249.505 20.7627 249.505 19.0496C249.505 18.0568 249.232 17.2781 248.687 16.7136C248.142 16.1491 247.373 15.8668 246.38 15.8668C244.22 15.8668 242.974 17.2489 242.643 20.0132H239.08C239.217 17.7161 239.927 15.9447 241.212 14.6988C242.516 13.4529 244.278 12.83 246.497 12.83C248.639 12.83 250.322 13.3945 251.549 14.5236C252.775 15.6527 253.388 17.1419 253.388 18.9912C253.388 20.276 253.038 21.5219 252.337 22.7288C251.656 23.9163 250.644 25.1621 249.3 26.4664L244.658 30.9924H253.534V34H238.438V33.2992ZM265.496 29.766H255.159V28.3936L264.386 13.122H269.263V26.8752H272.066V29.766H269.263V34H265.496V29.766ZM265.554 26.8752V16.0712L259.306 26.8752H265.554ZM273.607 36.628L276.264 29.7076L279.622 31.0508L275.797 37.5916L273.607 36.628ZM290.089 16.2756H280.366V13.122H294.966V13.5892L287.374 34H283.373L290.089 16.2756Z" fill="black"></path> <path d="M360.344 103.976L355.934 106.984V103.568L360.782 100.122H364.256V121H360.344V103.976ZM367.785 120.299L375.669 111.977C377.791 109.739 378.852 107.763 378.852 106.05C378.852 105.057 378.58 104.278 378.034 103.714C377.489 103.149 376.72 102.867 375.728 102.867C373.567 102.867 372.321 104.249 371.99 107.013H368.428C368.564 104.716 369.274 102.945 370.559 101.699C371.864 100.453 373.625 99.83 375.844 99.83C377.986 99.83 379.67 100.395 380.896 101.524C382.122 102.653 382.736 104.142 382.736 105.991C382.736 107.276 382.385 108.522 381.684 109.729C381.003 110.916 379.991 112.162 378.648 113.466L374.005 117.992H382.882V121H367.785V120.299ZM394.843 116.766H384.506V115.394L393.734 100.122H398.61V113.875H401.413V116.766H398.61V121H394.843V116.766ZM394.902 113.875V103.071L388.653 113.875H394.902ZM402.954 123.628L405.611 116.708L408.969 118.051L405.144 124.592L402.954 123.628ZM410.929 120.299L418.813 111.977C420.935 109.739 421.996 107.763 421.996 106.05C421.996 105.057 421.724 104.278 421.179 103.714C420.634 103.149 419.865 102.867 418.872 102.867C416.711 102.867 415.465 104.249 415.134 107.013H411.572C411.708 104.716 412.419 102.945 413.703 101.699C415.008 100.453 416.769 99.83 418.989 99.83C421.13 99.83 422.814 100.395 424.04 101.524C425.267 102.653 425.88 104.142 425.88 105.991C425.88 107.276 425.529 108.522 424.829 109.729C424.147 110.916 423.135 112.162 421.792 113.466L417.149 117.992H426.026V121H410.929V120.299Z" fill="black"></path> <path d="M547.438 205.299L555.322 196.977C557.444 194.739 558.505 192.763 558.505 191.05C558.505 190.057 558.232 189.278 557.687 188.714C557.142 188.149 556.373 187.867 555.38 187.867C553.22 187.867 551.974 189.249 551.643 192.013H548.08C548.217 189.716 548.927 187.945 550.212 186.699C551.516 185.453 553.278 184.83 555.497 184.83C557.639 184.83 559.322 185.395 560.549 186.524C561.775 187.653 562.388 189.142 562.388 190.991C562.388 192.276 562.038 193.522 561.337 194.729C560.656 195.916 559.644 197.162 558.3 198.466L553.658 202.992H562.534V206H547.438V205.299ZM572.814 206.263C570.692 206.263 569.008 205.776 567.762 204.803C566.516 203.81 565.767 202.399 565.514 200.569H569.164C569.573 202.36 570.77 203.255 572.755 203.255C575.773 203.255 577.32 200.871 577.398 196.101C576.347 197.853 574.634 198.729 572.259 198.729C570.215 198.729 568.551 198.116 567.266 196.89C565.981 195.644 565.339 193.999 565.339 191.955C565.339 189.813 566.039 188.091 567.441 186.786C568.843 185.463 570.721 184.801 573.077 184.801C575.763 184.801 577.787 185.657 579.15 187.37C580.532 189.064 581.223 191.439 581.223 194.495V195.576C581.223 199.021 580.493 201.669 579.033 203.518C577.593 205.348 575.52 206.263 572.814 206.263ZM573.077 196.014C574.264 196.014 575.228 195.663 575.967 194.962C576.727 194.242 577.106 193.298 577.106 192.13C577.106 190.748 576.736 189.667 575.997 188.889C575.257 188.091 574.274 187.692 573.047 187.692C571.879 187.692 570.935 188.071 570.215 188.83C569.514 189.59 569.164 190.592 569.164 191.838C569.164 193.123 569.514 194.145 570.215 194.904C570.916 195.644 571.87 196.014 573.077 196.014ZM591.464 206.292C589.031 206.292 587.133 205.679 585.77 204.452C584.408 203.226 583.687 201.591 583.61 199.547H587.143C587.26 200.715 587.659 201.649 588.34 202.35C589.021 203.031 590.034 203.372 591.377 203.372C594.024 203.372 595.348 202.243 595.348 199.985C595.348 197.707 594.092 196.568 591.581 196.568H589.975V193.794H591.464C593.781 193.794 594.939 192.772 594.939 190.728C594.939 189.833 594.657 189.122 594.092 188.597C593.547 188.052 592.749 187.779 591.698 187.779C590.608 187.779 589.712 188.091 589.012 188.714C588.33 189.317 587.931 190.154 587.814 191.225H584.369C584.486 189.356 585.196 187.828 586.5 186.64C587.824 185.433 589.576 184.83 591.756 184.83C593.878 184.83 595.552 185.365 596.779 186.436C598.025 187.487 598.648 188.821 598.648 190.436C598.648 192.597 597.518 194.116 595.26 194.992C596.526 195.284 597.509 195.858 598.21 196.714C598.93 197.571 599.29 198.681 599.29 200.043C599.29 201.97 598.579 203.499 597.158 204.628C595.757 205.737 593.859 206.292 591.464 206.292ZM601.142 208.628L603.799 201.708L607.157 203.051L603.332 209.592L601.142 208.628ZM617.624 188.276H607.901V185.122H622.501V185.589L614.909 206H610.908L617.624 188.276Z" fill="black"></path> <path d="M635.877 294.292C633.443 294.292 631.545 293.679 630.183 292.452C628.82 291.226 628.1 289.591 628.022 287.547H631.555C631.672 288.715 632.071 289.649 632.752 290.35C633.434 291.031 634.446 291.372 635.789 291.372C638.437 291.372 639.76 290.243 639.76 287.985C639.76 285.707 638.505 284.568 635.994 284.568H634.388V281.794H635.877C638.193 281.794 639.352 280.772 639.352 278.728C639.352 277.833 639.069 277.122 638.505 276.597C637.96 276.052 637.162 275.779 636.11 275.779C635.02 275.779 634.125 276.091 633.424 276.714C632.743 277.317 632.344 278.154 632.227 279.225H628.781C628.898 277.356 629.609 275.828 630.913 274.64C632.237 273.433 633.989 272.83 636.169 272.83C638.291 272.83 639.965 273.365 641.191 274.436C642.437 275.487 643.06 276.821 643.06 278.436C643.06 280.597 641.931 282.116 639.673 282.992C640.938 283.284 641.921 283.858 642.622 284.714C643.342 285.571 643.702 286.681 643.702 288.043C643.702 289.97 642.992 291.499 641.571 292.628C640.169 293.737 638.271 294.292 635.877 294.292ZM654.972 294.292C652.111 294.292 650.028 293.406 648.723 291.635C647.439 289.863 646.796 287.488 646.796 284.51V284.014C646.796 280.471 647.585 277.726 649.161 275.779C650.758 273.813 652.85 272.83 655.439 272.83C657.367 272.83 658.914 273.297 660.082 274.232C661.27 275.166 661.99 276.538 662.243 278.349H658.622C658.428 277.492 658.087 276.86 657.6 276.451C657.114 276.042 656.384 275.838 655.41 275.838C653.989 275.838 652.85 276.461 651.994 277.706C651.157 278.933 650.709 280.724 650.651 283.079C651.702 281.288 653.425 280.393 655.819 280.393C657.824 280.393 659.469 281.025 660.754 282.291C662.039 283.537 662.681 285.172 662.681 287.196C662.681 289.318 661.98 291.031 660.579 292.336C659.196 293.64 657.328 294.292 654.972 294.292ZM654.914 291.43C656.082 291.43 657.026 291.051 657.746 290.292C658.466 289.532 658.827 288.53 658.827 287.284C658.827 285.999 658.476 284.977 657.775 284.218C657.075 283.459 656.121 283.079 654.914 283.079C653.726 283.079 652.753 283.449 651.994 284.189C651.254 284.929 650.884 285.882 650.884 287.05C650.884 288.433 651.254 289.513 651.994 290.292C652.734 291.051 653.707 291.43 654.914 291.43ZM675.227 289.766H664.89V288.394L674.117 273.122H678.994V286.875H681.797V289.766H678.994V294H675.227V289.766ZM675.285 286.875V276.071L669.036 286.875H675.285ZM683.338 296.628L685.995 289.708L689.353 291.051L685.528 297.592L683.338 296.628ZM699.296 294.292C696.862 294.292 694.964 293.679 693.602 292.452C692.239 291.226 691.519 289.591 691.441 287.547H694.974C695.091 288.715 695.49 289.649 696.171 290.35C696.852 291.031 697.865 291.372 699.208 291.372C701.855 291.372 703.179 290.243 703.179 287.985C703.179 285.707 701.924 284.568 699.412 284.568H697.806V281.794H699.296C701.612 281.794 702.77 280.772 702.77 278.728C702.77 277.833 702.488 277.122 701.924 276.597C701.378 276.052 700.58 275.779 699.529 275.779C698.439 275.779 697.544 276.091 696.843 276.714C696.161 277.317 695.762 278.154 695.646 279.225H692.2C692.317 277.356 693.027 275.828 694.332 274.64C695.655 273.433 697.407 272.83 699.588 272.83C701.709 272.83 703.384 273.365 704.61 274.436C705.856 275.487 706.479 276.821 706.479 278.436C706.479 280.597 705.35 282.116 703.092 282.992C704.357 283.284 705.34 283.858 706.041 284.714C706.761 285.571 707.121 286.681 707.121 288.043C707.121 289.97 706.411 291.499 704.99 292.628C703.588 293.737 701.69 294.292 699.296 294.292Z" fill="black"></path> <path d="M715.242 375.766H704.905V374.394L714.132 359.122H719.009V372.875H721.812V375.766H719.009V380H715.242V375.766ZM715.3 372.875V362.071L709.052 372.875H715.3ZM723.258 379.299L731.142 370.977C733.264 368.739 734.325 366.763 734.325 365.05C734.325 364.057 734.053 363.278 733.508 362.714C732.962 362.149 732.194 361.867 731.201 361.867C729.04 361.867 727.794 363.249 727.463 366.013H723.901C724.037 363.716 724.748 361.945 726.032 360.699C727.337 359.453 729.098 358.83 731.318 358.83C733.459 358.83 735.143 359.395 736.369 360.524C737.596 361.653 738.209 363.142 738.209 364.991C738.209 366.276 737.858 367.522 737.158 368.729C736.476 369.916 735.464 371.162 734.121 372.466L729.478 376.992H738.355V380H723.258V379.299ZM748.634 380.263C746.512 380.263 744.828 379.776 743.582 378.803C742.337 377.81 741.587 376.399 741.334 374.569H744.984C745.393 376.36 746.59 377.255 748.576 377.255C751.593 377.255 753.141 374.871 753.218 370.101C752.167 371.853 750.454 372.729 748.079 372.729C746.035 372.729 744.371 372.116 743.086 370.89C741.801 369.644 741.159 367.999 741.159 365.955C741.159 363.813 741.86 362.091 743.261 360.786C744.663 359.463 746.541 358.801 748.897 358.801C751.583 358.801 753.608 359.657 754.97 361.37C756.353 363.064 757.044 365.439 757.044 368.495V369.576C757.044 373.021 756.314 375.669 754.854 377.518C753.413 379.348 751.34 380.263 748.634 380.263ZM748.897 370.014C750.084 370.014 751.048 369.663 751.788 368.962C752.547 368.242 752.926 367.298 752.926 366.13C752.926 364.748 752.557 363.667 751.817 362.889C751.077 362.091 750.094 361.692 748.868 361.692C747.7 361.692 746.755 362.071 746.035 362.83C745.334 363.59 744.984 364.592 744.984 365.838C744.984 367.123 745.334 368.145 746.035 368.904C746.736 369.644 747.69 370.014 748.897 370.014ZM757.914 382.628L760.571 375.708L763.929 377.051L760.104 383.592L757.914 382.628ZM774.335 380.292C772.155 380.292 770.305 379.747 768.787 378.657C767.268 377.567 766.509 376.048 766.509 374.102C766.509 372.797 766.86 371.697 767.56 370.802C768.261 369.887 769.215 369.215 770.422 368.787C768.359 367.95 767.327 366.5 767.327 364.436C767.327 362.743 768.018 361.39 769.4 360.378C770.782 359.346 772.427 358.83 774.335 358.83C776.281 358.83 777.926 359.336 779.27 360.348C780.632 361.361 781.314 362.704 781.314 364.378C781.314 366.403 780.282 367.863 778.218 368.758C780.807 369.712 782.102 371.454 782.102 373.985C782.102 375.97 781.362 377.518 779.883 378.628C778.403 379.737 776.554 380.292 774.335 380.292ZM774.335 377.372C775.483 377.372 776.418 377.051 777.138 376.408C777.858 375.766 778.218 374.88 778.218 373.751C778.218 372.622 777.858 371.746 777.138 371.123C776.418 370.5 775.493 370.189 774.364 370.189C773.254 370.189 772.32 370.51 771.561 371.152C770.802 371.775 770.422 372.651 770.422 373.78C770.422 374.909 770.792 375.795 771.532 376.438C772.291 377.061 773.225 377.372 774.335 377.372ZM774.393 367.648C775.367 367.648 776.145 367.376 776.729 366.831C777.333 366.286 777.634 365.546 777.634 364.612C777.634 363.736 777.323 363.025 776.7 362.48C776.077 361.915 775.289 361.633 774.335 361.633C773.381 361.633 772.593 361.906 771.97 362.451C771.347 362.996 771.035 363.726 771.035 364.641C771.035 365.556 771.356 366.286 771.999 366.831C772.661 367.376 773.459 367.648 774.393 367.648Z" fill="black"></path> <path d="M1029.57 448.276H1019.85V445.122H1034.45V445.589L1026.85 466H1022.85L1029.57 448.276ZM1044.79 463.197C1047.97 463.197 1049.55 460.802 1049.55 456.014V454.992C1049.55 452.733 1049.13 450.981 1048.3 449.736C1047.48 448.49 1046.29 447.867 1044.73 447.867C1043.16 447.867 1041.95 448.48 1041.11 449.706C1040.28 450.913 1039.86 452.685 1039.86 455.021V456.072C1039.86 458.427 1040.28 460.209 1041.11 461.416C1041.97 462.603 1043.2 463.197 1044.79 463.197ZM1044.7 466.292C1042.06 466.292 1039.94 465.377 1038.34 463.547C1036.74 461.698 1035.94 459.216 1035.94 456.101V455.05C1035.94 451.916 1036.74 449.434 1038.34 447.604C1039.94 445.755 1042.06 444.83 1044.7 444.83C1047.35 444.83 1049.46 445.745 1051.04 447.575C1052.64 449.385 1053.44 451.848 1053.44 454.962V456.014C1053.44 459.167 1052.66 461.669 1051.1 463.518C1049.54 465.367 1047.41 466.292 1044.7 466.292ZM1065.38 463.197C1068.55 463.197 1070.14 460.802 1070.14 456.014V454.992C1070.14 452.733 1069.72 450.981 1068.88 449.736C1068.07 448.49 1066.88 447.867 1065.32 447.867C1063.75 447.867 1062.54 448.48 1061.7 449.706C1060.86 450.913 1060.45 452.685 1060.45 455.021V456.072C1060.45 458.427 1060.86 460.209 1061.7 461.416C1062.56 462.603 1063.78 463.197 1065.38 463.197ZM1065.29 466.292C1062.65 466.292 1060.52 465.377 1058.93 463.547C1057.33 461.698 1056.53 459.216 1056.53 456.101V455.05C1056.53 451.916 1057.33 449.434 1058.93 447.604C1060.52 445.755 1062.65 444.83 1065.29 444.83C1067.94 444.83 1070.05 445.745 1071.63 447.575C1073.23 449.385 1074.02 451.848 1074.02 454.962V456.014C1074.02 459.167 1073.25 461.669 1071.69 463.518C1070.13 465.367 1068 466.292 1065.29 466.292Z" fill="black"></path> <path d="M1365.75 546.335L1372.58 542.598L1365.75 538.772V535.531L1377.4 542.218V542.948L1365.75 549.635V546.335ZM1391.33 534.976L1386.92 537.984V534.568L1391.77 531.122H1395.24V552H1391.33V534.976ZM1408.67 549.197C1411.84 549.197 1413.43 546.802 1413.43 542.014V540.992C1413.43 538.733 1413.01 536.981 1412.17 535.736C1411.36 534.49 1410.17 533.867 1408.61 533.867C1407.03 533.867 1405.83 534.48 1404.99 535.706C1404.15 536.913 1403.73 538.685 1403.73 541.021V542.072C1403.73 544.427 1404.15 546.209 1404.99 547.416C1405.85 548.603 1407.07 549.197 1408.67 549.197ZM1408.58 552.292C1405.93 552.292 1403.81 551.377 1402.22 549.547C1400.62 547.698 1399.82 545.216 1399.82 542.101V541.05C1399.82 537.916 1400.62 535.434 1402.22 533.604C1403.81 531.755 1405.93 530.83 1408.58 530.83C1411.23 530.83 1413.34 531.745 1414.92 533.575C1416.51 535.385 1417.31 537.848 1417.31 540.962V542.014C1417.31 545.167 1416.53 547.669 1414.98 549.518C1413.42 551.367 1411.29 552.292 1408.58 552.292ZM1429.26 549.197C1432.43 549.197 1434.02 546.802 1434.02 542.014V540.992C1434.02 538.733 1433.6 536.981 1432.76 535.736C1431.94 534.49 1430.76 533.867 1429.2 533.867C1427.62 533.867 1426.42 534.48 1425.58 535.706C1424.74 536.913 1424.32 538.685 1424.32 541.021V542.072C1424.32 544.427 1424.74 546.209 1425.58 547.416C1426.44 548.603 1427.66 549.197 1429.26 549.197ZM1429.17 552.292C1426.52 552.292 1424.4 551.377 1422.8 549.547C1421.21 547.698 1420.41 545.216 1420.41 542.101V541.05C1420.41 537.916 1421.21 535.434 1422.8 533.604C1424.4 531.755 1426.52 530.83 1429.17 530.83C1431.82 530.83 1433.93 531.745 1435.51 533.575C1437.1 535.385 1437.9 537.848 1437.9 540.962V542.014C1437.9 545.167 1437.12 547.669 1435.57 549.518C1434.01 551.367 1431.88 552.292 1429.17 552.292ZM1449.85 549.197C1453.02 549.197 1454.61 546.802 1454.61 542.014V540.992C1454.61 538.733 1454.19 536.981 1453.35 535.736C1452.53 534.49 1451.35 533.867 1449.79 533.867C1448.21 533.867 1447 534.48 1446.17 535.706C1445.33 536.913 1444.91 538.685 1444.91 541.021V542.072C1444.91 544.427 1445.33 546.209 1446.17 547.416C1447.02 548.603 1448.25 549.197 1449.85 549.197ZM1449.76 552.292C1447.11 552.292 1444.99 551.377 1443.39 549.547C1441.8 547.698 1441 545.216 1441 542.101V541.05C1441 537.916 1441.8 535.434 1443.39 533.604C1444.99 531.755 1447.11 530.83 1449.76 530.83C1452.41 530.83 1454.52 531.745 1456.09 533.575C1457.69 535.385 1458.49 537.848 1458.49 540.962V542.014C1458.49 545.167 1457.71 547.669 1456.15 549.518C1454.6 551.367 1452.46 552.292 1449.76 552.292Z" fill="black"></path> <rect x="181" width="27" height="48" fill="#FFCB00"></rect> <rect x="181" y="86" width="143" height="50" fill="#FFCB00"></rect> <rect x="181" y="171" width="339" height="50" fill="#FFCB00"></rect> <rect x="181" y="259" width="419" height="50" fill="#FFCB00"></rect> <rect x="181" y="345" width="493" height="50" fill="#FFCB00"></rect> <rect x="181" y="431" width="807" height="51" fill="#FFCB00"></rect> <rect x="181" y="518" width="1152" height="49" fill="#FFCB00"></rect> <path d="M86.73 35.416L95.0228 26.6852C97.0279 24.5633 98.0304 22.5485 98.0304 20.6408C98.0304 19.4728 97.6995 18.5579 97.0376 17.896C96.3952 17.2341 95.4803 16.9032 94.2928 16.9032C91.7621 16.9032 90.2924 18.4508 89.8836 21.546H87.5184C87.6741 19.4825 88.3457 17.8571 89.5332 16.6696C90.7401 15.4627 92.3267 14.8592 94.2928 14.8592C96.22 14.8592 97.7481 15.3945 98.8772 16.4652C100.026 17.5164 100.6 18.9375 100.6 20.7284C100.6 23.0255 99.1984 25.5561 96.3952 28.3204L90.6428 33.9268H100.717V36H86.73V35.416ZM112.616 34.1604C116.296 34.1604 118.135 31.4643 118.135 26.072V24.904C118.135 22.4707 117.639 20.5337 116.646 19.0932C115.653 17.6332 114.291 16.9032 112.558 16.9032C110.787 16.9032 109.404 17.604 108.412 19.0056C107.419 20.4072 106.922 22.3928 106.922 24.9624V26.1304C106.922 28.7195 107.429 30.7051 108.441 32.0872C109.453 33.4693 110.845 34.1604 112.616 34.1604ZM112.616 36.2628C110.125 36.2628 108.12 35.3381 106.601 33.4888C105.083 31.6395 104.324 29.1964 104.324 26.1596V24.9916C104.324 21.8964 105.054 19.4339 106.514 17.604C107.993 15.7741 110.008 14.8592 112.558 14.8592C115.089 14.8592 117.074 15.7839 118.515 17.6332C119.975 19.4825 120.705 21.9159 120.705 24.9332V26.1012C120.705 29.1769 119.985 31.6395 118.544 33.4888C117.123 35.3381 115.147 36.2628 112.616 36.2628ZM128.453 17.6332L123.781 20.9912V18.626L128.629 15.122H130.994V36H128.453V17.6332ZM144.079 36.2628C139.076 36.2628 136.575 33.0995 136.575 26.7728V26.2764C136.575 22.6167 137.315 19.8037 138.794 17.8376C140.293 15.852 142.279 14.8592 144.751 14.8592C146.425 14.8592 147.788 15.2875 148.839 16.144C149.91 17.0005 150.581 18.2561 150.854 19.9108H148.43C148.196 18.8985 147.778 18.1491 147.174 17.6624C146.571 17.1757 145.705 16.9324 144.576 16.9324C142.96 16.9324 141.656 17.6527 140.663 19.0932C139.67 20.5337 139.144 22.5972 139.086 25.2836C140.215 23.3953 142.006 22.4512 144.459 22.4512C146.503 22.4512 148.148 23.1033 149.394 24.4076C150.659 25.6924 151.292 27.3179 151.292 29.284C151.292 31.3864 150.64 33.08 149.335 34.3648C148.031 35.6301 146.279 36.2628 144.079 36.2628ZM144.079 34.2772C145.442 34.2772 146.552 33.8295 147.408 32.934C148.265 32.0385 148.693 30.8608 148.693 29.4008C148.693 27.8824 148.274 26.6755 147.437 25.78C146.6 24.8845 145.471 24.4368 144.05 24.4368C142.648 24.4368 141.5 24.8651 140.604 25.7216C139.709 26.5781 139.261 27.6877 139.261 29.0504C139.261 30.7051 139.699 31.9899 140.575 32.9048C141.471 33.8197 142.639 34.2772 144.079 34.2772Z" fill="black"></path> <path d="M89.73 119.416L98.0228 110.685C100.028 108.563 101.03 106.549 101.03 104.641C101.03 103.473 100.699 102.558 100.038 101.896C99.3952 101.234 98.4803 100.903 97.2928 100.903C94.7621 100.903 93.2924 102.451 92.8836 105.546H90.5184C90.6741 103.483 91.3457 101.857 92.5332 100.67C93.7401 99.4627 95.3267 98.8592 97.2928 98.8592C99.22 98.8592 100.748 99.3945 101.877 100.465C103.026 101.516 103.6 102.937 103.6 104.728C103.6 107.025 102.198 109.556 99.3952 112.32L93.6428 117.927H103.717V120H89.73V119.416ZM115.616 118.16C119.296 118.16 121.135 115.464 121.135 110.072V108.904C121.135 106.471 120.639 104.534 119.646 103.093C118.653 101.633 117.291 100.903 115.558 100.903C113.787 100.903 112.404 101.604 111.412 103.006C110.419 104.407 109.922 106.393 109.922 108.962V110.13C109.922 112.719 110.429 114.705 111.441 116.087C112.453 117.469 113.845 118.16 115.616 118.16ZM115.616 120.263C113.125 120.263 111.12 119.338 109.601 117.489C108.083 115.639 107.324 113.196 107.324 110.16V108.992C107.324 105.896 108.054 103.434 109.514 101.604C110.993 99.7741 113.008 98.8592 115.558 98.8592C118.089 98.8592 120.074 99.7839 121.515 101.633C122.975 103.483 123.705 105.916 123.705 108.933V110.101C123.705 113.177 122.985 115.639 121.544 117.489C120.123 119.338 118.147 120.263 115.616 120.263ZM131.453 101.633L126.781 104.991V102.626L131.629 99.122H133.994V120H131.453V101.633ZM149.357 101.166H138.757V99.122H152.51V99.4724L144.685 120H142.086L149.357 101.166Z" fill="black"></path> <path d="M87.73 206.416L96.0228 197.685C98.0279 195.563 99.0304 193.549 99.0304 191.641C99.0304 190.473 98.6995 189.558 98.0376 188.896C97.3952 188.234 96.4803 187.903 95.2928 187.903C92.7621 187.903 91.2924 189.451 90.8836 192.546H88.5184C88.6741 190.483 89.3457 188.857 90.5332 187.67C91.7401 186.463 93.3267 185.859 95.2928 185.859C97.22 185.859 98.7481 186.395 99.8772 187.465C101.026 188.516 101.6 189.937 101.6 191.728C101.6 194.025 100.198 196.556 97.3952 199.32L91.6428 204.927H101.717V207H87.73V206.416ZM113.616 205.16C117.296 205.16 119.135 202.464 119.135 197.072V195.904C119.135 193.471 118.639 191.534 117.646 190.093C116.653 188.633 115.291 187.903 113.558 187.903C111.787 187.903 110.404 188.604 109.412 190.006C108.419 191.407 107.922 193.393 107.922 195.962V197.13C107.922 199.719 108.429 201.705 109.441 203.087C110.453 204.469 111.845 205.16 113.616 205.16ZM113.616 207.263C111.125 207.263 109.12 206.338 107.601 204.489C106.083 202.639 105.324 200.196 105.324 197.16V195.992C105.324 192.896 106.054 190.434 107.514 188.604C108.993 186.774 111.008 185.859 113.558 185.859C116.089 185.859 118.074 186.784 119.515 188.633C120.975 190.483 121.705 192.916 121.705 195.933V197.101C121.705 200.177 120.985 202.639 119.544 204.489C118.123 206.338 116.147 207.263 113.616 207.263ZM129.453 188.633L124.781 191.991V189.626L129.629 186.122H131.994V207H129.453V188.633ZM144.7 207.263C143.512 207.263 142.383 207.049 141.312 206.62C140.242 206.173 139.337 205.462 138.597 204.489C137.857 203.515 137.487 202.377 137.487 201.072C137.487 199.729 137.847 198.6 138.568 197.685C139.288 196.77 140.242 196.099 141.429 195.67C139.327 194.833 138.276 193.373 138.276 191.29C138.276 189.694 138.918 188.39 140.203 187.378C141.507 186.365 143.006 185.859 144.7 185.859C146.393 185.859 147.882 186.365 149.167 187.378C150.452 188.37 151.094 189.655 151.094 191.232C151.094 193.237 150.024 194.707 147.882 195.641C150.549 196.634 151.883 198.425 151.883 201.014C151.883 202.98 151.163 204.518 149.722 205.628C148.301 206.718 146.627 207.263 144.7 207.263ZM144.7 205.19C146.043 205.19 147.143 204.82 147.999 204.08C148.856 203.321 149.284 202.27 149.284 200.926C149.284 199.622 148.846 198.61 147.97 197.89C147.114 197.15 146.043 196.78 144.758 196.78C143.434 196.78 142.325 197.15 141.429 197.89C140.534 198.61 140.086 199.642 140.086 200.985C140.086 202.289 140.534 203.321 141.429 204.08C142.325 204.82 143.415 205.19 144.7 205.19ZM144.787 194.765C145.916 194.765 146.822 194.454 147.503 193.831C148.184 193.208 148.525 192.351 148.525 191.261C148.525 190.268 148.165 189.451 147.444 188.808C146.724 188.166 145.809 187.845 144.7 187.845C143.571 187.845 142.646 188.156 141.926 188.779C141.205 189.402 140.845 190.249 140.845 191.32C140.845 192.371 141.225 193.208 141.984 193.831C142.743 194.454 143.678 194.765 144.787 194.765Z" fill="black"></path> <path d="M87.73 290.416L96.0228 281.685C98.0279 279.563 99.0304 277.549 99.0304 275.641C99.0304 274.473 98.6995 273.558 98.0376 272.896C97.3952 272.234 96.4803 271.903 95.2928 271.903C92.7621 271.903 91.2924 273.451 90.8836 276.546H88.5184C88.6741 274.483 89.3457 272.857 90.5332 271.67C91.7401 270.463 93.3267 269.859 95.2928 269.859C97.22 269.859 98.7481 270.395 99.8772 271.465C101.026 272.516 101.6 273.937 101.6 275.728C101.6 278.025 100.198 280.556 97.3952 283.32L91.6428 288.927H101.717V291H87.73V290.416ZM113.616 289.16C117.296 289.16 119.135 286.464 119.135 281.072V279.904C119.135 277.471 118.639 275.534 117.646 274.093C116.653 272.633 115.291 271.903 113.558 271.903C111.787 271.903 110.404 272.604 109.412 274.006C108.419 275.407 107.922 277.393 107.922 279.962V281.13C107.922 283.719 108.429 285.705 109.441 287.087C110.453 288.469 111.845 289.16 113.616 289.16ZM113.616 291.263C111.125 291.263 109.12 290.338 107.601 288.489C106.083 286.639 105.324 284.196 105.324 281.16V279.992C105.324 276.896 106.054 274.434 107.514 272.604C108.993 270.774 111.008 269.859 113.558 269.859C116.089 269.859 118.074 270.784 119.515 272.633C120.975 274.483 121.705 276.916 121.705 279.933V281.101C121.705 284.177 120.985 286.639 119.544 288.489C118.123 290.338 116.147 291.263 113.616 291.263ZM129.453 272.633L124.781 275.991V273.626L129.629 270.122H131.994V291H129.453V272.633ZM144.006 291.234C142.098 291.234 140.57 290.766 139.421 289.832C138.273 288.898 137.562 287.574 137.29 285.861H139.742C139.996 286.951 140.453 287.778 141.115 288.343C141.796 288.888 142.779 289.16 144.064 289.16C145.758 289.16 147.062 288.469 147.977 287.087C148.892 285.705 149.369 283.632 149.408 280.868C148.882 281.744 148.152 282.425 147.218 282.912C146.283 283.398 145.213 283.642 144.006 283.642C141.981 283.642 140.326 282.999 139.042 281.714C137.776 280.43 137.144 278.794 137.144 276.809C137.144 274.706 137.796 273.023 139.1 271.757C140.404 270.472 142.156 269.83 144.356 269.83C146.828 269.83 148.697 270.628 149.962 272.224C151.228 273.821 151.86 276.137 151.86 279.174V280.488C151.86 283.973 151.179 286.639 149.817 288.489C148.473 290.319 146.536 291.234 144.006 291.234ZM144.385 281.656C145.787 281.656 146.935 281.237 147.831 280.4C148.726 279.563 149.174 278.473 149.174 277.13C149.174 275.456 148.726 274.152 147.831 273.217C146.955 272.283 145.797 271.816 144.356 271.816C142.993 271.816 141.884 272.263 141.027 273.159C140.171 274.054 139.742 275.232 139.742 276.692C139.742 278.21 140.161 279.417 140.998 280.313C141.835 281.208 142.964 281.656 144.385 281.656Z" fill="black"></path> <path d="M80.73 378.416L89.0228 369.685C91.0279 367.563 92.0304 365.549 92.0304 363.641C92.0304 362.473 91.6995 361.558 91.0376 360.896C90.3952 360.234 89.4803 359.903 88.2928 359.903C85.7621 359.903 84.2924 361.451 83.8836 364.546H81.5184C81.6741 362.483 82.3457 360.857 83.5332 359.67C84.7401 358.463 86.3267 357.859 88.2928 357.859C90.22 357.859 91.7481 358.395 92.8772 359.465C94.0257 360.516 94.6 361.937 94.6 363.728C94.6 366.025 93.1984 368.556 90.3952 371.32L84.6428 376.927H94.7168V379H80.73V378.416ZM106.616 377.16C110.296 377.16 112.135 374.464 112.135 369.072V367.904C112.135 365.471 111.639 363.534 110.646 362.093C109.653 360.633 108.291 359.903 106.558 359.903C104.787 359.903 103.404 360.604 102.412 362.006C101.419 363.407 100.922 365.393 100.922 367.962V369.13C100.922 371.719 101.429 373.705 102.441 375.087C103.453 376.469 104.845 377.16 106.616 377.16ZM106.616 379.263C104.125 379.263 102.12 378.338 100.601 376.489C99.0829 374.639 98.3237 372.196 98.3237 369.16V367.992C98.3237 364.896 99.0537 362.434 100.514 360.604C101.993 358.774 104.008 357.859 106.558 357.859C109.089 357.859 111.074 358.784 112.515 360.633C113.975 362.483 114.705 364.916 114.705 367.933V369.101C114.705 372.177 113.985 374.639 112.544 376.489C111.123 378.338 109.147 379.263 106.616 379.263ZM117.373 378.416L125.665 369.685C127.67 367.563 128.673 365.549 128.673 363.641C128.673 362.473 128.342 361.558 127.68 360.896C127.038 360.234 126.123 359.903 124.935 359.903C122.405 359.903 120.935 361.451 120.526 364.546H118.161C118.317 362.483 118.988 360.857 120.176 359.67C121.383 358.463 122.969 357.859 124.935 357.859C126.863 357.859 128.391 358.395 129.52 359.465C130.668 360.516 131.243 361.937 131.243 363.728C131.243 366.025 129.841 368.556 127.038 371.32L121.285 376.927H131.359V379H117.373V378.416ZM143.259 377.16C146.938 377.16 148.778 374.464 148.778 369.072V367.904C148.778 365.471 148.281 363.534 147.289 362.093C146.296 360.633 144.933 359.903 143.201 359.903C141.429 359.903 140.047 360.604 139.054 362.006C138.061 363.407 137.565 365.393 137.565 367.962V369.13C137.565 371.719 138.071 373.705 139.083 375.087C140.096 376.469 141.488 377.16 143.259 377.16ZM143.259 379.263C140.767 379.263 138.762 378.338 137.244 376.489C135.725 374.639 134.966 372.196 134.966 369.16V367.992C134.966 364.896 135.696 362.434 137.156 360.604C138.636 358.774 140.651 357.859 143.201 357.859C145.731 357.859 147.717 358.784 149.157 360.633C150.617 362.483 151.347 364.916 151.347 367.933V369.101C151.347 372.177 150.627 374.639 149.187 376.489C147.766 378.338 145.79 379.263 143.259 379.263Z" fill="black"></path> <path d="M88.73 466.416L97.0228 457.685C99.0279 455.563 100.03 453.549 100.03 451.641C100.03 450.473 99.6995 449.558 99.0376 448.896C98.3952 448.234 97.4803 447.903 96.2928 447.903C93.7621 447.903 92.2924 449.451 91.8836 452.546H89.5184C89.6741 450.483 90.3457 448.857 91.5332 447.67C92.7401 446.463 94.3267 445.859 96.2928 445.859C98.22 445.859 99.7481 446.395 100.877 447.465C102.026 448.516 102.6 449.937 102.6 451.728C102.6 454.025 101.198 456.556 98.3952 459.32L92.6428 464.927H102.717V467H88.73V466.416ZM114.616 465.16C118.296 465.16 120.135 462.464 120.135 457.072V455.904C120.135 453.471 119.639 451.534 118.646 450.093C117.653 448.633 116.291 447.903 114.558 447.903C112.787 447.903 111.404 448.604 110.412 450.006C109.419 451.407 108.922 453.393 108.922 455.962V457.13C108.922 459.719 109.429 461.705 110.441 463.087C111.453 464.469 112.845 465.16 114.616 465.16ZM114.616 467.263C112.125 467.263 110.12 466.338 108.601 464.489C107.083 462.639 106.324 460.196 106.324 457.16V455.992C106.324 452.896 107.054 450.434 108.514 448.604C109.993 446.774 112.008 445.859 114.558 445.859C117.089 445.859 119.074 446.784 120.515 448.633C121.975 450.483 122.705 452.916 122.705 455.933V457.101C122.705 460.177 121.985 462.639 120.544 464.489C119.123 466.338 117.147 467.263 114.616 467.263ZM125.373 466.416L133.665 457.685C135.67 455.563 136.673 453.549 136.673 451.641C136.673 450.473 136.342 449.558 135.68 448.896C135.038 448.234 134.123 447.903 132.935 447.903C130.405 447.903 128.935 449.451 128.526 452.546H126.161C126.317 450.483 126.988 448.857 128.176 447.67C129.383 446.463 130.969 445.859 132.935 445.859C134.863 445.859 136.391 446.395 137.52 447.465C138.668 448.516 139.243 449.937 139.243 451.728C139.243 454.025 137.841 456.556 135.038 459.32L129.285 464.927H139.359V467H125.373V466.416ZM146.992 448.633L142.32 451.991V449.626L147.168 446.122H149.533V467H146.992V448.633Z" fill="black"></path> <path d="M84.73 551.416L93.0228 542.685C95.0279 540.563 96.0304 538.549 96.0304 536.641C96.0304 535.473 95.6995 534.558 95.0376 533.896C94.3952 533.234 93.4803 532.903 92.2928 532.903C89.7621 532.903 88.2924 534.451 87.8836 537.546H85.5184C85.6741 535.483 86.3457 533.857 87.5332 532.67C88.7401 531.463 90.3267 530.859 92.2928 530.859C94.22 530.859 95.7481 531.395 96.8772 532.465C98.0257 533.516 98.6 534.937 98.6 536.728C98.6 539.025 97.1984 541.556 94.3952 544.32L88.6428 549.927H98.7168V552H84.73V551.416ZM110.616 550.16C114.296 550.16 116.135 547.464 116.135 542.072V540.904C116.135 538.471 115.639 536.534 114.646 535.093C113.653 533.633 112.291 532.903 110.558 532.903C108.787 532.903 107.404 533.604 106.412 535.006C105.419 536.407 104.922 538.393 104.922 540.962V542.13C104.922 544.719 105.429 546.705 106.441 548.087C107.453 549.469 108.845 550.16 110.616 550.16ZM110.616 552.263C108.125 552.263 106.12 551.338 104.601 549.489C103.083 547.639 102.324 545.196 102.324 542.16V540.992C102.324 537.896 103.054 535.434 104.514 533.604C105.993 531.774 108.008 530.859 110.558 530.859C113.089 530.859 115.074 531.784 116.515 533.633C117.975 535.483 118.705 537.916 118.705 540.933V542.101C118.705 545.177 117.985 547.639 116.544 549.489C115.123 551.338 113.147 552.263 110.616 552.263ZM121.373 551.416L129.665 542.685C131.67 540.563 132.673 538.549 132.673 536.641C132.673 535.473 132.342 534.558 131.68 533.896C131.038 533.234 130.123 532.903 128.935 532.903C126.405 532.903 124.935 534.451 124.526 537.546H122.161C122.317 535.483 122.988 533.857 124.176 532.67C125.383 531.463 126.969 530.859 128.935 530.859C130.863 530.859 132.391 531.395 133.52 532.465C134.668 533.516 135.243 534.937 135.243 536.728C135.243 539.025 133.841 541.556 131.038 544.32L125.285 549.927H135.359V552H121.373V551.416ZM137.912 551.416L146.204 542.685C148.21 540.563 149.212 538.549 149.212 536.641C149.212 535.473 148.881 534.558 148.219 533.896C147.577 533.234 146.662 532.903 145.474 532.903C142.944 532.903 141.474 534.451 141.065 537.546H138.7C138.856 535.483 139.527 533.857 140.715 532.67C141.922 531.463 143.508 530.859 145.474 530.859C147.402 530.859 148.93 531.395 150.059 532.465C151.207 533.516 151.782 534.937 151.782 536.728C151.782 539.025 150.38 541.556 147.577 544.32L141.824 549.927H151.898V552H137.912V551.416Z" fill="black"></path> </svg> 