<svg width="160" height="46" viewBox="0 0 160 46" fill="none" xmlns="http://www.w3.org/2000/svg">
<g clip-path="url(#clip0_413_331)">
<path d="M154.824 0.00976804H5.174C4.49493 0.00937396 3.82244 0.142736 3.19492 0.402239C2.56739 0.661742 1.99712 1.0423 1.51667 1.5222C1.03622 2.00209 0.654998 2.57192 0.394767 3.19914C0.134536 3.82636 0.000393851 4.4987 0 5.17777L0 40.8418C0.0010605 42.2133 0.546846 43.5282 1.51732 44.4974C2.48779 45.4666 3.80347 46.0106 5.175 46.0098H154.825C156.197 46.0106 157.512 45.4666 158.483 44.4974C159.453 43.5282 159.999 42.2133 160 40.8418V5.17777C160 4.49853 159.865 3.82603 159.605 3.19868C159.345 2.57132 158.963 2.00141 158.483 1.52149C158.002 1.04157 157.431 0.66105 156.804 0.401664C156.176 0.142279 155.503 0.00911116 154.824 0.00976804Z" fill="black"/>
<path d="M30.6898 11.182C32.5978 8.84497 32.1998 6.41797 32.1998 6.41797C32.1998 6.41797 29.5298 6.42997 27.6098 9.01197C25.9028 11.306 26.3378 13.269 26.3378 13.269C26.3378 13.269 28.6528 13.677 30.6878 11.181L30.6898 11.182ZM34.3528 22.212C34.3528 18.212 37.5148 16.565 37.5148 16.565C37.5148 16.565 35.8968 13.585 31.7908 13.585C29.4038 13.585 27.5708 14.97 26.5828 14.97C25.4328 14.97 23.7158 13.667 21.5028 13.667C18.0968 13.667 14.4668 16.777 14.4668 22.705C14.4668 28.728 18.7548 36.222 22.1508 36.222C23.3348 36.222 25.1548 35.004 26.9868 35.004C28.7868 35.004 30.1128 36.178 31.8218 36.178C35.5398 36.178 38.2918 28.278 38.2918 28.278C38.2918 28.278 34.3548 26.723 34.3548 22.212H34.3528ZM52.8518 7.78997C53.3818 7.45997 54.1058 7.18497 55.0668 7.18497C56.5808 7.18497 57.5298 7.96097 57.5298 9.11497C57.5298 10.073 56.8748 10.747 55.9828 10.965V10.987C56.9888 11.1 57.8028 11.787 57.8028 12.847C57.8028 14.514 56.2428 15.132 54.8298 15.132C54.0828 15.132 53.2928 14.972 52.6698 14.606L52.9998 13.522C53.3718 13.727 54.1068 13.989 54.7728 13.989C55.7678 13.989 56.3328 13.509 56.3328 12.779C56.3328 11.797 55.3598 11.546 54.5228 11.546H53.9248V10.496H54.5248C55.4048 10.496 56.0848 10.026 56.0848 9.33097C56.0848 8.70297 55.5978 8.32597 54.8298 8.32597C54.2428 8.32597 53.6198 8.56597 53.1918 8.79597L52.8518 7.78897V7.78997ZM62.5438 15.005L62.4538 14.388H62.4198C62.0798 14.821 61.5038 15.13 60.7918 15.13C59.6838 15.13 59.0618 14.32 59.0618 13.474C59.0618 12.07 60.2958 11.362 62.3298 11.374V11.282C62.3298 10.917 62.1828 10.312 61.2098 10.312C60.6678 10.312 60.1028 10.482 59.7298 10.722L59.4598 9.80897C59.8658 9.55597 60.5778 9.31697 61.4478 9.31697C63.2098 9.31697 63.7178 10.447 63.7178 11.657V13.667C63.7178 14.167 63.7418 14.66 63.7978 15.002H62.5438V15.004V15.005ZM62.3638 12.288C61.3808 12.265 60.4438 12.482 60.4438 13.328C60.4438 13.874 60.7938 14.126 61.2338 14.126C61.7878 14.126 62.1938 13.761 62.3188 13.361C62.3518 13.259 62.3628 13.145 62.3628 13.054V12.289L62.3638 12.288ZM69.2638 9.44497V10.552H67.0158V15.004H65.6258V9.44397H69.2638V9.44497ZM70.5598 11.294C70.5598 10.564 70.5378 9.96997 70.5158 9.44597H71.7358L71.8038 10.302H71.8268C72.2338 9.67397 72.8768 9.31997 73.7138 9.31997C74.9798 9.31997 76.0298 10.417 76.0298 12.152C76.0298 14.162 74.7758 15.132 73.5218 15.132C72.8318 15.132 72.2568 14.835 71.9738 14.389H71.9508V17.265H70.5628V11.293L70.5598 11.294ZM71.9498 12.674C71.9498 12.814 71.9618 12.939 71.9958 13.064C72.1308 13.634 72.6288 14.044 73.2158 14.044C74.0978 14.044 74.6178 13.304 74.6178 12.208C74.6178 11.226 74.1428 10.428 73.2508 10.428C72.6758 10.428 72.1438 10.848 72.0088 11.466C71.9748 11.579 71.9518 11.706 71.9518 11.82V12.675L71.9498 12.674ZM78.3198 9.44497L79.3138 12.425C79.4268 12.767 79.5398 13.189 79.6188 13.508H79.6518C79.7418 13.188 79.8438 12.778 79.9458 12.412L80.8038 9.44397H82.2958L80.9158 13.234C80.1598 15.312 79.6508 16.237 78.9958 16.808C78.4538 17.298 77.8888 17.481 77.5388 17.528L77.2218 16.338C77.4598 16.282 77.7538 16.156 78.0358 15.951C78.2958 15.781 78.6018 15.449 78.7938 15.073C78.8498 14.97 78.8838 14.89 78.8838 14.821C78.8803 14.7247 78.8528 14.6309 78.8038 14.548L76.7938 9.44497H78.3178H78.3198ZM84.1248 11.694H84.7908C85.5508 11.694 85.9908 11.386 85.9908 10.987C85.9908 10.587 85.6178 10.313 84.9968 10.313C84.5328 10.313 84.0238 10.473 83.6398 10.713L83.3448 9.87897C83.9428 9.50197 84.6898 9.33097 85.4018 9.33097C86.3288 9.33097 87.4588 9.69597 87.4588 10.803C87.4588 11.523 86.8248 11.923 86.2488 12.06V12.084C86.9828 12.164 87.7068 12.609 87.7068 13.43C87.7068 14.72 86.2708 15.12 85.1408 15.12C84.4168 15.12 83.6948 14.938 83.1508 14.618L83.4688 13.728C83.8528 13.933 84.4408 14.104 84.9938 14.104C85.7618 14.104 86.1798 13.784 86.1798 13.35C86.1798 12.768 85.5818 12.585 84.8028 12.585H84.1248V11.695V11.694ZM90.5968 9.44497V11.443C90.5968 12.321 90.5628 12.916 90.5168 13.691H90.5498C90.8438 13.041 91.0138 12.631 91.2958 12.048L92.6518 9.44597H94.3368V15.006H93.0138V13.019C93.0138 12.129 93.0478 11.719 93.1038 10.669H93.0588C92.7888 11.329 92.6068 11.729 92.3348 12.266C91.9048 13.089 91.4088 14.092 90.9348 15.006H89.2728V9.44597H90.5958L90.5968 9.44497ZM100.3 9.44497V10.53H98.6498V15.005H97.2578V10.53H95.6078V9.44497H100.298H100.3ZM102.41 12.62C102.443 13.623 103.223 14.058 104.103 14.058C104.748 14.058 105.211 13.966 105.63 13.806L105.832 14.776C105.357 14.97 104.702 15.118 103.912 15.118C102.126 15.118 101.075 14.012 101.075 12.31C101.075 10.77 102.002 9.31997 103.765 9.31997C105.55 9.31997 106.137 10.802 106.137 12.024C106.137 12.287 106.115 12.494 106.093 12.618H102.409L102.41 12.62ZM104.827 11.637C104.837 11.123 104.612 10.277 103.685 10.277C102.827 10.277 102.465 11.067 102.409 11.637H104.826H104.827ZM110.483 9.51297C110.89 9.44497 111.725 9.37597 112.483 9.37597C113.41 9.37597 115.083 9.50197 115.083 10.78C115.083 11.488 114.54 11.888 113.953 12.014V12.037C114.766 12.162 115.33 12.617 115.33 13.395C115.33 14.925 113.343 15.073 112.235 15.073C111.545 15.073 110.81 15.028 110.483 14.993V9.51297ZM111.827 14.16C112.053 14.184 112.222 14.194 112.504 14.194C113.137 14.194 113.906 14.024 113.906 13.372C113.906 12.744 113.296 12.539 112.426 12.539H111.826V14.159L111.827 14.16ZM111.839 11.694H112.414C113.126 11.694 113.714 11.489 113.714 10.964C113.714 10.519 113.329 10.278 112.504 10.278C112.234 10.278 112.054 10.301 111.838 10.323V11.693L111.839 11.694ZM61.4298 34.725H58.8348L57.4128 30.168H52.4698L51.1148 34.725H48.5868L53.4838 19.21H56.5098L61.4298 34.725ZM56.9838 28.255L55.6978 24.205C55.5628 23.791 55.3078 22.817 54.9308 21.282H54.8858C54.7358 21.942 54.4958 22.917 54.1638 24.205L52.8998 28.255H56.9838ZM74.0258 28.994C74.0258 30.897 73.5218 32.4 72.5138 33.504C71.6098 34.487 70.4898 34.978 69.1498 34.978C67.7048 34.978 66.6678 34.448 66.0358 33.39H65.9898V39.283H63.5518V27.22C63.5518 26.024 63.5218 24.797 63.4618 23.538H65.6048L65.7408 25.311H65.7878C66.6008 23.976 67.8338 23.309 69.4898 23.309C70.7828 23.309 71.8628 23.829 72.7268 24.873C73.5938 25.919 74.0268 27.293 74.0268 28.995L74.0258 28.994ZM71.5428 29.084C71.5428 27.996 71.3028 27.099 70.8208 26.392C70.2948 25.655 69.5868 25.287 68.7008 25.287C68.0978 25.287 67.5508 25.492 67.0638 25.897C66.5738 26.305 66.2538 26.837 66.1038 27.497C66.0298 27.807 65.9918 28.057 65.9918 28.257V30.121C65.9918 30.936 66.2378 31.623 66.7268 32.183C67.2168 32.743 67.8518 33.023 68.6338 33.023C69.5518 33.023 70.2658 32.663 70.7778 31.943C71.2878 31.22 71.5448 30.268 71.5448 29.086L71.5428 29.084ZM86.6428 28.994C86.6428 30.897 86.1388 32.4 85.1298 33.504C84.2278 34.487 83.1058 34.978 81.7678 34.978C80.3228 34.978 79.2848 34.448 78.6538 33.39H78.6078V39.283H76.1698V27.22C76.1698 26.024 76.1398 24.797 76.0798 23.538H78.2228L78.3588 25.311H78.4038C79.2158 23.976 80.4488 23.309 82.1058 23.309C83.3988 23.309 84.4788 23.829 85.3458 24.873C86.2088 25.919 86.6418 27.293 86.6418 28.995L86.6428 28.994ZM84.1608 29.084C84.1608 27.996 83.9208 27.099 83.4378 26.392C82.9108 25.655 82.2058 25.287 81.3178 25.287C80.7148 25.287 80.1698 25.492 79.6798 25.897C79.1898 26.305 78.8698 26.837 78.7198 27.497C78.6468 27.807 78.6078 28.057 78.6078 28.257V30.121C78.6078 30.936 78.8518 31.623 79.3378 32.183C79.8278 32.743 80.4638 33.023 81.2478 33.023C82.1678 33.023 82.8808 32.663 83.3918 31.943C83.9038 31.22 84.1618 30.268 84.1618 29.086L84.1608 29.084ZM100.75 30.375C100.75 31.695 100.3 32.768 99.3998 33.597C98.4078 34.503 97.0278 34.957 95.2548 34.957C93.6168 34.957 92.3048 34.634 91.3118 33.989L91.8768 31.917C92.9339 32.5735 94.1555 32.9167 95.3998 32.907C96.3178 32.907 97.0318 32.695 97.5458 32.273C98.0558 31.851 98.3118 31.283 98.3118 30.578C98.3118 29.948 98.1018 29.418 97.6798 28.988C97.2598 28.558 96.5598 28.158 95.5798 27.788C92.9168 26.774 91.5868 25.29 91.5868 23.338C91.5868 22.063 92.0528 21.016 92.9868 20.203C93.9168 19.388 95.1588 18.981 96.7108 18.981C98.0968 18.981 99.2468 19.227 100.164 19.718L99.5538 21.744C98.6978 21.269 97.7278 21.03 96.6438 21.03C95.7858 21.03 95.1168 21.246 94.6358 21.675C94.2298 22.059 94.0258 22.525 94.0258 23.08C94.0258 23.693 94.2578 24.2 94.7238 24.6C95.1308 24.967 95.8678 25.366 96.9378 25.796C98.2458 26.333 99.2078 26.962 99.8258 27.682C100.444 28.402 100.751 29.3 100.751 30.372L100.75 30.375ZM108.81 25.403H106.123V30.835C106.123 32.217 106.596 32.907 107.543 32.907C107.908 32.9145 108.272 32.8755 108.627 32.791L108.695 34.679C108.215 34.862 107.583 34.954 106.799 34.954C105.836 34.954 105.083 34.654 104.541 34.057C104.001 33.457 103.728 32.453 103.728 31.041V25.4H102.126V23.536H103.726V21.486L106.121 20.75V23.536H108.808V25.403H108.81ZM120.93 29.04C120.93 30.76 120.448 32.17 119.485 33.275C118.475 34.412 117.135 34.979 115.465 34.979C113.857 34.979 112.575 34.433 111.619 33.344C110.662 32.254 110.184 30.881 110.184 29.224C110.184 27.491 110.676 26.071 111.662 24.967C112.647 23.862 113.976 23.31 115.645 23.31C117.255 23.31 118.55 23.855 119.528 24.945C120.462 26.002 120.928 27.367 120.928 29.04H120.93ZM118.402 29.12C118.402 28.09 118.186 27.204 117.748 26.465C117.238 25.572 116.506 25.127 115.56 25.127C114.58 25.127 113.836 25.574 113.325 26.465C112.887 27.205 112.671 28.103 112.671 29.165C112.671 30.197 112.889 31.082 113.326 31.819C113.853 32.711 114.59 33.156 115.539 33.156C116.469 33.156 117.199 32.702 117.727 31.794C118.177 31.044 118.403 30.149 118.403 29.119L118.402 29.12ZM128.853 25.724C128.599 25.677 128.342 25.6536 128.085 25.654C127.228 25.654 126.565 25.984 126.098 26.646C125.692 27.228 125.488 27.966 125.488 28.856V34.724H123.052L123.075 27.06C123.075 25.77 123.045 24.596 122.983 23.538H125.106L125.196 25.678H125.263C125.521 24.942 125.927 24.351 126.483 23.906C127.023 23.506 127.611 23.306 128.243 23.306C128.469 23.306 128.673 23.323 128.853 23.352V25.724ZM139.753 28.603C139.753 29.048 139.723 29.423 139.663 29.73H132.351C132.381 30.835 132.734 31.68 133.413 32.264C134.03 32.784 134.826 33.046 135.803 33.046C136.887 33.046 137.875 32.869 138.763 32.516L139.143 34.242C138.106 34.704 136.881 34.934 135.467 34.934C133.767 34.934 132.431 34.424 131.459 33.404C130.489 32.384 130.004 31.014 130.004 29.294C130.004 27.608 130.454 26.202 131.359 25.082C132.306 23.886 133.585 23.288 135.195 23.288C136.775 23.288 137.973 23.886 138.785 25.082C139.431 26.032 139.755 27.207 139.755 28.602L139.753 28.603ZM137.429 27.958C137.443 27.221 137.285 26.585 136.955 26.048C136.533 25.355 135.885 25.011 135.012 25.011C134.216 25.011 133.567 25.348 133.072 26.024C132.666 26.562 132.425 27.206 132.35 27.957H137.428V27.959L137.429 27.958Z" fill="white"/>
</g>
<defs>
<clipPath id="clip0_413_331">
<rect width="160" height="46" fill="white"/>
</clipPath>
</defs>
</svg>
