<svg width="310" height="310" viewBox="0 0 310 310" fill="none" xmlns="http://www.w3.org/2000/svg">
<rect width="310" height="310" rx="17.995" fill="white"/>
<g clip-path="url(#clip0_427_2287)">
<path d="M36 64.7602V93.5186H64.6426C89.3517 93.5186 93.2935 93.502 93.401 93.4029C93.5001 93.2954 93.5167 89.3536 93.5167 64.6445V36.0019H64.7583H36V64.7602ZM85.2528 64.7602V85.2547H64.7583H44.2639V64.7602V44.2658H64.7583H85.2528V64.7602Z" fill="#2B3134"/>
<path d="M52.4697 52.4878C52.3871 52.5787 52.3623 55.157 52.3623 64.801V76.9902H64.6755H76.9887V64.677V52.3638H64.7829C54.3374 52.3721 52.5524 52.3886 52.4697 52.4878Z" fill="#2B3134"/>
<path d="M101.615 40.0176C101.615 43.381 101.632 44.0504 101.731 44.1495C101.83 44.2487 103.045 44.2652 109.995 44.2652H118.143V48.3145V52.3638H114.011H109.879V64.677V76.9902H114.011H118.143V64.677V52.3638H122.192H126.242V56.4958V60.6277H134.506H142.769V64.7597V68.8916H150.951H159.132V64.7597V60.6277H155H150.868V52.4465V44.2652H155H159.132V40.1333V36.0013H150.951H142.769V40.0176C142.769 43.381 142.753 44.0504 142.654 44.1495C142.555 44.2487 141.885 44.2652 138.522 44.2652H134.506V48.3145V52.3638H130.374H126.242V48.3145V44.2652H122.192H118.143V40.1333V36.0013H109.879H101.615V40.0176Z" fill="#2B3134"/>
<path d="M183.758 40.1329V44.2648H175.494H167.231V60.6273V76.9898H171.362H175.494V72.9405V68.8912H179.626H183.758V81.2044V93.5176H187.808H191.857V97.5669V101.616H183.676H175.494V105.748V109.88H171.478C168.115 109.88 167.445 109.864 167.346 109.764C167.247 109.665 167.231 108.459 167.231 101.583V93.5176H171.362H175.494V89.3857V85.2537H171.362H167.231V89.3857V93.5176H163.181H159.132V85.2537V76.9898H142.687H126.242V81.1218V85.2537H122.192H118.143V93.435V101.616H114.011H109.879V93.435V85.2537H105.747H101.615V93.435V101.616H105.747H109.879V109.88V118.144H89.3847H68.8903V114.012V109.88H72.9396H76.9889V105.748V101.616H68.8076H60.6264V105.748V109.88H56.4944H52.3625V105.748V101.616H44.1812H36V105.748V109.88H40.1319H44.2639V114.012V118.144H56.5771H68.8903V122.193V126.243H64.7583H60.6264V130.375V134.507H56.4944H52.3625V130.375V126.243H44.1812H36V130.375V134.507H44.1812H52.3625V138.638V142.77H44.1812H36V155.001V167.232H44.1812H52.3625V171.363V175.495H56.4944H60.6264V167.314V159.133H64.7583H68.8903V167.314V175.495H72.9396H76.9889V179.627V183.759H60.6264H44.2639V179.627V175.495H40.1319H36V191.941V208.386H44.1812H52.3625V200.237C52.3625 193.288 52.379 192.073 52.4782 191.974C52.5774 191.874 53.2467 191.858 56.6101 191.858H60.6264V200.122V208.386H68.8076H76.9889V204.254V200.122H81.1208H85.2528V204.254V208.386H93.434H101.615V212.435V216.484H105.747H109.879V220.616V224.748H114.011H118.143V228.88V233.012H122.192H126.242V228.88V224.748H130.374H134.506V216.567V208.386H130.374H126.242V200.237C126.242 193.288 126.258 192.073 126.357 191.974C126.457 191.874 127.126 191.858 130.489 191.858H134.506V195.99V200.122H142.687H150.868V196.106C150.868 192.742 150.885 192.073 150.984 191.974C151.083 191.874 152.289 191.858 159.165 191.858H167.231V195.99V200.122H163.181H159.132V212.435V224.748H155H150.868V216.567V208.386H146.819H142.769V216.567V224.748H146.819H150.868V228.88V233.012H155H159.132V237.061V241.111H150.951H142.769V245.243V249.375H138.637H134.506V253.507V257.638H130.374H126.242V253.507V249.375H122.192H118.143V253.507V257.638H109.879H101.615V265.82V274.001H105.747H109.879V269.869V265.737H114.011H118.143V261.688V257.638H122.192H126.242V265.82V274.001H138.555H150.868V269.869V265.737H142.687H134.506V261.688V257.638H142.687H150.868V253.507V249.375H155H159.132V253.507V257.638H175.494H191.857V253.507V249.375H195.989H200.121V253.507V257.638H204.253H208.385V253.507V249.375H212.434H216.483V245.358C216.483 241.995 216.5 241.326 216.599 241.226C216.706 241.127 219.004 241.111 233.044 241.111H249.374V237.061V233.012H245.357C241.994 233.012 241.325 232.996 241.225 232.896C241.126 232.797 241.11 232.128 241.11 228.764V224.748H245.242H249.374V216.567V208.386H257.555H265.736V204.254V200.122H261.687H257.637V196.106C257.637 192.742 257.621 192.073 257.522 191.974C257.423 191.874 256.753 191.858 253.39 191.858H249.374V187.809V183.759H257.555H265.736V187.809V191.858H269.868H274V187.809V183.759H269.868H265.736V179.627V175.495H257.555H249.374V171.363V167.232H253.506H257.637V159.05V150.869H261.687H265.736V159.05V167.232H269.868H274V146.737V126.243H269.868H265.736V134.507V142.77H249.374H233.011V134.507V126.243H237.06H241.11V130.375V134.507H245.242H249.374V130.375V126.243H253.506H257.637V122.193V118.144H261.687H265.736V114.012V109.88H269.868H274V105.748V101.616H269.984C266.62 101.616 265.951 101.633 265.852 101.732C265.753 101.831 265.736 102.5 265.736 105.864V109.88H257.555H249.374V118.061V126.243H245.242H241.11V118.061V109.88H232.928H224.747V105.748V101.616H220.731C217.368 101.616 216.698 101.633 216.599 101.732C216.5 101.831 216.483 102.5 216.483 105.864V109.88H220.615H224.747V114.012V118.144H228.879H233.011V122.193V126.243H216.566H200.121V130.375V134.507H195.989H191.857V130.375V126.243H179.544H167.231V122.193V118.144H183.676H200.121V114.012V109.88H196.105C192.741 109.88 192.072 109.864 191.973 109.764C191.873 109.665 191.857 108.996 191.857 105.632V101.616H195.989H200.121V97.5669V93.5176H204.137C207.5 93.5176 208.17 93.5011 208.269 93.4019C208.368 93.3028 208.385 92.6334 208.385 89.27V85.2537H204.253H200.121V89.3857V93.5176H195.989H191.857V85.3694C191.857 78.4195 191.873 77.2047 191.973 77.1055C192.072 77.0064 192.741 76.9898 196.105 76.9898H200.121V72.9405V68.8912H204.137C207.5 68.8912 208.17 68.8747 208.269 68.7755C208.368 68.6764 208.385 68.007 208.385 64.6436V60.6273H204.253H200.121V52.4461V44.2648H195.989H191.857V40.1329V36.001H187.808H183.758V40.1329ZM191.857 48.3141V52.3635H187.808H183.758V56.4954V60.6273H187.808H191.857V64.7593V68.8912H187.808H183.758V64.7593V60.6273H179.626H175.494V56.4954V52.3635H179.626H183.758V48.3141V44.2648H187.808H191.857V48.3141ZM134.506 89.3857V93.5176H138.637H142.769V89.3857V85.2537H146.819H150.868V89.3857V93.5176H146.819H142.769V97.5669V101.616H146.819H150.868V109.88V118.144H155H159.132V130.342C159.132 140.795 159.115 142.547 159.016 142.655C158.909 142.754 156.611 142.77 142.571 142.77H126.242V146.82V150.869H130.374H134.506V155.001V159.133H126.324H118.143V163.182V167.232H122.192H126.242V171.363V175.495H130.374H134.506V171.363V167.232H138.637H142.769V163.182V159.133H146.819H150.868V155.001V150.869H155H159.132V159.05V167.232H163.181H167.231V159.166C167.231 152.29 167.247 151.084 167.346 150.985C167.454 150.886 169.206 150.869 179.659 150.869H191.857V146.82V142.77H183.791C176.916 142.77 175.709 142.754 175.61 142.655C175.511 142.556 175.494 141.886 175.494 138.523V134.507H183.676H191.857V138.638V142.77H200.005C206.955 142.77 208.17 142.754 208.269 142.655C208.368 142.556 208.385 141.886 208.385 138.523V134.507H212.434H216.483V142.688V150.869H224.747H233.011V155.001V159.133H237.06H241.11V155.001V150.869H245.242H249.374V159.05V167.232H245.357C241.994 167.232 241.325 167.248 241.225 167.347C241.126 167.446 241.11 168.116 241.11 171.479V175.495H245.242H249.374V179.627V183.759H245.242H241.11V187.809V191.858H237.06H233.011V195.99V200.122H216.566H200.121V208.303V216.484H195.989H191.857V232.929V249.375H183.676H175.494V245.243V241.111H171.362H167.231V245.243V249.375H163.181H159.132V245.243V241.111H163.181H167.231V220.616V200.122H171.362H175.494V195.99V191.858H171.362H167.231V187.809V183.759H171.362H175.494V187.809V191.858H179.626H183.758V187.809V183.759H187.808H191.857V187.809V191.858H195.989H200.121V187.809V183.759H208.302H216.483V179.627V175.495H212.434H208.385V171.479C208.385 168.116 208.368 167.446 208.269 167.347C208.17 167.248 207.5 167.232 204.137 167.232H200.121V159.05V150.869H195.989H191.857V163.182V175.495H175.494H159.132V179.627V183.759H150.951H142.769V187.809V191.858H138.637H134.506V187.809V183.759H126.324H118.143V179.743C118.143 176.38 118.127 175.71 118.027 175.611C117.928 175.512 117.259 175.495 113.895 175.495H109.879V187.809V200.122H105.747H101.615V195.99V191.858H97.566H93.5167V195.99V200.122H89.3847H85.2528V195.99V191.858H81.1208H76.9889V187.809V183.759H81.1208H85.2528V179.627V175.495H81.1208H76.9889V171.479C76.9889 168.116 77.0054 167.446 77.1046 167.347C77.2037 167.248 77.8731 167.232 81.2365 167.232H85.2528V163.182V159.133H77.0715H68.8903V155.001V150.869H64.7583H60.6264V155.001V159.133H52.4451H44.2639V155.001V150.869H48.3132H52.3625V146.82V142.77H56.3787C59.7422 142.77 60.4115 142.754 60.5107 142.655C60.6099 142.556 60.6264 141.886 60.6264 138.523V134.507H68.8076H76.9889V130.375V126.243H89.3021H101.615V130.375V134.507H105.747H109.879V138.523C109.879 141.886 109.863 142.556 109.763 142.655C109.664 142.754 108.995 142.77 105.632 142.77H101.615V146.82V150.869H105.747H109.879V155.001V159.133H114.011H118.143V146.82V134.507H126.324H134.506V122.193V109.88H130.374H126.242V97.5669V85.2537H130.374H134.506V89.3857ZM118.143 122.193V126.243H114.011H109.879V122.193V118.144H114.011H118.143V122.193ZM233.011 220.699V233.012H220.698H208.385V220.699V208.386H220.698H233.011V220.699ZM126.242 220.616V224.748H122.192H118.143V220.616V216.484H122.192H126.242V220.616ZM208.269 241.226C208.368 241.326 208.385 241.995 208.385 245.358V249.375H204.253H200.121V245.243V241.111H204.137C207.5 241.111 208.17 241.127 208.269 241.226Z" fill="#2B3134"/>
<path d="M142.771 122.193V126.242H146.82H150.869V122.193V118.144H146.82H142.771V122.193Z" fill="#2B3134"/>
<path d="M76.9883 138.524C76.9883 141.887 77.0048 142.557 77.104 142.656C77.2858 142.83 93.2186 142.83 93.4004 142.656C93.4995 142.557 93.5161 141.887 93.5161 138.524V134.508H85.2522H76.9883V138.524Z" fill="#2B3134"/>
<path d="M85.2539 155V159.132H89.3859H93.5178V163.182V167.231H89.3859H85.2539V171.363V175.495H89.3859H93.5178V179.627V183.759H89.3859H85.2539V187.808V191.857H89.3859H93.5178V187.808V183.759H97.5671H101.616V179.627V175.495H97.5671H93.5178V171.363V167.231H101.699H109.88V163.182V159.132H101.699H93.5178V155.116C93.5178 151.753 93.5013 151.083 93.4021 150.984C93.3029 150.885 92.6336 150.869 89.2702 150.869H85.2539V155Z" fill="#2B3134"/>
<path d="M224.748 167.314V175.495H228.88H233.012V179.627V183.759H237.061H241.111V179.627V175.495H237.061H233.012V167.314V159.132H228.88H224.748V167.314Z" fill="#2B3134"/>
<path d="M142.771 171.363V175.495H146.82H150.869V171.363V167.231H146.82H142.771V171.363Z" fill="#2B3134"/>
<path d="M216.482 187.808V191.857H220.614H224.746V187.808V183.759H220.614H216.482V187.808Z" fill="#2B3134"/>
<path d="M175.494 208.303V216.484H183.675H191.857V208.303V200.122H183.675H175.494V208.303Z" fill="#2B3134"/>
<path d="M175.494 232.93V241.111H179.626H183.758V232.93V224.749H179.626H175.494V232.93Z" fill="#2B3134"/>
<path d="M216.59 216.607C216.507 216.698 216.482 217.64 216.482 220.739V224.747H220.614H224.746V220.615V216.483H220.722C217.342 216.491 216.672 216.508 216.59 216.607Z" fill="#2B3134"/>
<path d="M216.482 64.6445C216.482 89.3536 216.499 93.2954 216.598 93.4029C216.706 93.502 220.647 93.5186 245.356 93.5186H273.999V64.7602V36.0019H245.241H216.482V64.6445ZM265.735 64.7602V85.2547H245.241H224.746V64.7602V44.2658H245.241H265.735V64.7602Z" fill="#2B3134"/>
<path d="M233.011 64.677V76.9902H245.324H257.637V64.7927C257.637 54.3389 257.621 52.587 257.521 52.4795C257.414 52.3804 255.662 52.3638 245.208 52.3638H233.011V64.677Z" fill="#2B3134"/>
<path d="M85.2539 105.748V109.88H89.3859H93.5178V105.864C93.5178 102.5 93.5013 101.831 93.4021 101.732C93.3029 101.633 92.6336 101.616 89.2702 101.616H85.2539V105.748Z" fill="#2B3134"/>
<path d="M36 245.243V274.001H64.7583H93.5167V245.358C93.5167 220.649 93.5001 216.707 93.401 216.6C93.2935 216.501 89.3517 216.484 64.6426 216.484H36V245.243ZM85.2528 245.243V265.737H64.7583H44.2639V245.243V224.748H64.7583H85.2528V245.243Z" fill="#2B3134"/>
<path d="M52.3623 245.211C52.3623 255.665 52.3788 257.417 52.478 257.524C52.5854 257.623 54.3374 257.64 64.7912 257.64H76.9887V245.326V233.013H64.6755H52.3623V245.211Z" fill="#2B3134"/>
<path d="M265.735 232.929V241.111H261.686H257.637V245.243V249.375H253.505H249.373V253.507V257.638H245.356C241.993 257.638 241.324 257.622 241.225 257.523C241.125 257.424 241.109 256.754 241.109 253.391V249.375H232.928H224.746V253.507V257.638H220.614H216.482V265.82V274.001H224.746H233.01V269.869V265.737H237.06H241.109V269.869V274.001H245.241H249.373V269.869V265.737H253.505H257.637V261.688V257.638H261.686H265.735V261.688V265.737H269.867H273.999V245.243V224.748H269.867H265.735V232.929Z" fill="#2B3134"/>
<path d="M101.615 241.193V249.374H105.747H109.879V241.193V233.012H105.747H101.615V241.193Z" fill="#2B3134"/>
<path d="M159.132 269.869V274.001H167.313H175.494V269.869V265.737H167.313H159.132V269.869Z" fill="#2B3134"/>
<path d="M183.759 269.869V274.001H187.808H191.857V269.869V265.737H187.808H183.759V269.869Z" fill="#2B3134"/>
<path d="M200.121 269.869V274.001H204.253H208.385V269.985C208.385 266.621 208.368 265.952 208.269 265.853C208.17 265.754 207.501 265.737 204.137 265.737H200.121V269.869Z" fill="#2B3134"/>
</g>
<defs>
<clipPath id="clip0_427_2287">
<rect width="238" height="238" fill="white" transform="translate(36 36)"/>
</clipPath>
</defs>
</svg>
