<svg width="160" height="46" viewBox="0 0 160 46" fill="none" xmlns="http://www.w3.org/2000/svg">
<path d="M154.24 46H5.76C2.56 46 0 43.4326 0 40.2233V5.77674C0 2.56744 2.56 0 5.76 0H154.24C157.44 0 160 2.56744 160 5.77674V40.2233C160 43.4326 157.44 46 154.24 46Z" fill="black"/>
<path fill-rule="evenodd" clip-rule="evenodd" d="M34.593 8.11621H21.5764C15.4431 8.11621 13.1999 10.3659 13.1999 16.5171V29.5725C13.1999 35.7226 15.4431 37.9723 21.5754 37.9723H34.5887C40.722 37.9723 42.9695 35.7226 42.9695 29.5725V16.5171C42.9695 10.3659 40.7263 8.11621 34.593 8.11621" fill="#C70F2E"/>
<path fill-rule="evenodd" clip-rule="evenodd" d="M27.3812 25.4315H26.1865L26.7828 24.0343L27.3812 25.4315ZM25.5401 26.9484L25.8932 26.1354L27.6745 26.1343L28.0244 26.9473H28.8521L27.1444 23.047H26.4478L24.7337 26.9484H25.5401V26.9484ZM39.6468 26.9452H38.8681V23.047H39.6468V26.9452V26.9452ZM37.202 25.2699H35.7662L35.7652 26.237H37.9252V26.9473H34.9865V23.0491H37.8516V23.7605H35.7662V24.5596H37.202V25.2699V25.2699ZM31.7865 23.0448L32.6697 25.7299L33.5326 23.048H34.3508L32.9972 26.9495H32.338L31.4537 24.3874L30.5684 26.9495H29.9145L28.5577 23.048H29.3982L30.258 25.731L31.1422 23.0459H31.7865V23.0448ZM22.658 26.2541C23.2297 26.2541 23.5433 25.9161 23.5433 25.2806V23.047H24.3337V25.2485C24.3337 26.3664 23.7193 27.0083 22.6484 27.0083C21.5881 27.0083 20.9801 26.3793 20.9801 25.2817V23.0491H21.7694V25.2528C21.7694 25.9054 22.0852 26.2552 22.658 26.2552V26.2541ZM19.8846 23.047H19.0953V24.6195H17.3118V23.0459H16.5225V26.9495H17.3118V25.3641H19.0953V26.9505H19.8846V23.0459V23.047ZM24.5822 16.6209C25.5114 17.5526 26.7712 18.0766 28.0852 18.0779L28.0841 18.0768C29.3981 18.0757 30.6579 17.5517 31.5871 16.6198C32.5162 15.688 33.0387 14.4245 33.0398 13.1067H32.3401C32.3401 15.4602 30.4318 17.375 28.0852 17.375C25.7385 17.375 23.8292 15.4602 23.8292 13.1067H23.1294C23.1304 14.4248 23.6529 15.6887 24.5822 16.6209V16.6209ZM56.6942 14.4984C56.5342 14.8793 56.2932 15.1767 55.971 15.3938C55.6489 15.6121 55.2553 15.7201 54.7913 15.7201C54.3252 15.7201 53.9326 15.6099 53.6169 15.3874C53.2978 15.1623 53.0525 14.8473 52.9118 14.4824C52.7524 14.0684 52.6742 13.6274 52.6814 13.1837C52.6814 12.7258 52.7636 12.3054 52.9268 11.9257C53.0782 11.5577 53.3321 11.241 53.6585 11.0153C53.9838 10.7885 54.3806 10.6762 54.8468 10.6762C55.3353 10.6762 55.7342 10.7874 56.0446 11.011C56.355 11.2346 56.5801 11.533 56.722 11.9096C56.8628 12.284 56.9332 12.7119 56.9332 13.1933C56.9332 13.6833 56.8542 14.1176 56.6942 14.4984V14.4984ZM51.8665 15.0333C52.115 15.5297 52.5044 15.9405 52.9854 16.2143H52.9844C53.474 16.4957 54.0521 16.6348 54.722 16.6348C55.4153 16.6348 56.0201 16.4914 56.5332 16.2058C57.0426 15.9253 57.457 15.4988 57.7236 14.9809C58.002 14.4514 58.1406 13.8256 58.1406 13.1088C58.1406 12.4456 58.0137 11.8604 57.7577 11.3544C57.5134 10.8595 57.1266 10.4495 56.6473 10.1777C56.163 9.89951 55.5828 9.76044 54.9108 9.76044C54.2078 9.76044 53.5977 9.90486 53.0804 10.1926C52.571 10.4724 52.157 10.8991 51.8921 11.4175C51.618 11.946 51.4793 12.5622 51.4793 13.2671C51.4793 13.939 51.6084 14.5273 51.8665 15.0344V15.0333ZM58.4073 10.8184H60.4756L60.4745 16.5417H61.6265V10.8184H63.5934L63.7001 9.85351H58.5086L58.4073 10.8184V10.8184ZM68.6004 16.5417H69.8985L67.4174 12.8959L68.6366 11.1415C68.7422 10.9907 68.8436 10.8816 68.9396 10.8131C69.042 10.7436 69.1636 10.7081 69.2873 10.7115C69.411 10.7136 69.5326 10.7404 69.6457 10.7896L69.8857 9.88882C69.683 9.80323 69.4526 9.76044 69.1945 9.76044C68.8852 9.76044 68.6281 9.82677 68.4233 9.96156C68.2185 10.0953 68.0158 10.3103 67.8132 10.6098L66.4308 12.6146H65.8281V9.85244H64.6761V16.5428H65.8281V13.5956H66.6153L68.6004 16.5428V16.5417ZM74.0361 11.8957C74.0361 12.3022 73.9124 12.6167 73.667 12.8403C73.4217 13.0628 73.0633 13.1751 72.594 13.1751C72.4404 13.1751 72.2196 13.1516 71.9305 13.1056V10.7307H72.5566C73.042 10.7307 73.41 10.8217 73.6606 11.0035C73.9102 11.1854 74.0361 11.4828 74.0361 11.8957ZM72.5758 9.85244H70.7796L70.7785 16.5428H71.9305V13.9646C72.259 14.0267 72.5513 14.0577 72.8052 14.0577C73.2329 14.0663 73.6574 13.9743 74.0446 13.7903C74.3934 13.6255 74.6846 13.3602 74.8852 13.0297C75.0868 12.698 75.187 12.3118 75.187 11.8679C75.187 11.2153 74.962 10.7157 74.514 10.3702C74.067 10.0268 73.4196 9.85351 72.5758 9.85351V9.85244ZM81.1102 14.4984C80.9642 14.8629 80.7122 15.1749 80.387 15.3938H80.3881C80.0649 15.6121 79.6724 15.7201 79.2073 15.7201C78.7422 15.7201 78.3497 15.6099 78.034 15.3874C77.7149 15.1623 77.4695 14.8473 77.3289 14.4824C77.1695 14.0684 77.0913 13.6274 77.0985 13.1837C77.0929 12.752 77.1761 12.3237 77.3428 11.9257C77.4942 11.5577 77.7492 11.241 78.0756 11.0153C78.4009 10.7885 78.7966 10.6762 79.2638 10.6762C79.7524 10.6762 80.1513 10.7874 80.4617 11.011C80.7721 11.2357 81.0089 11.548 81.139 11.9096C81.2798 12.284 81.3502 12.7119 81.3502 13.1933C81.3502 13.6833 81.2702 14.1176 81.1102 14.4984V14.4984ZM76.2836 15.0333C76.531 15.5308 76.9204 15.9426 77.4025 16.2154C77.891 16.4957 78.4692 16.6348 79.139 16.6348C79.8334 16.6348 80.4372 16.4914 80.9513 16.2058C81.4597 15.9249 81.8737 15.499 82.1406 14.982C82.419 14.4514 82.5577 13.8266 82.5577 13.1099C82.5577 12.4456 82.4297 11.8604 82.1737 11.3555C81.9295 10.8608 81.5431 10.451 81.0644 10.1787C80.5801 9.90058 79.9998 9.76151 79.3278 9.76151C78.6249 9.76151 78.0148 9.90486 77.4974 10.1926C76.9801 10.4815 76.5833 10.888 76.3092 11.4175C76.035 11.946 75.8964 12.5622 75.8964 13.2671C75.8964 13.939 76.0254 14.5273 76.2836 15.0344V15.0333ZM85.2681 8.77198C85.4068 8.98486 85.5977 9.15709 85.8238 9.27156H85.8228C86.0649 9.40207 86.3646 9.46626 86.7209 9.46626C87.0793 9.46626 87.3822 9.401 87.6254 9.27156C87.8697 9.14212 88.0553 8.97523 88.1833 8.77198C88.3092 8.573 88.3913 8.35049 88.4254 8.11728H87.5913C87.4996 8.60937 87.2094 8.85542 86.7209 8.85542C86.2334 8.85542 85.9444 8.6083 85.8548 8.11621H85.026C85.0601 8.34942 85.1433 8.573 85.2681 8.77198ZM88.4201 12.866V16.5428L89.49 16.5417V9.85244H88.1673L84.8692 15.0355C84.8969 14.5434 84.9108 14.0877 84.9108 13.6726V9.85244H83.842V16.5428H85.123L88.4713 11.2763C88.4393 11.8056 88.4222 12.3357 88.4201 12.866V12.866ZM90.466 10.8184H92.5332V16.5417H93.6852V10.8184H95.6521L95.7577 9.85351H90.5673L90.466 10.8184ZM100.664 9.85351H96.7348V16.5428H100.599L100.696 15.5821H97.8857V13.5389H100.401V12.6488H97.8857V10.8045H100.552L100.664 9.85244V9.85351ZM108.346 14.584C108.346 14.9349 108.229 15.2066 107.994 15.3992C107.76 15.5917 107.404 15.688 106.928 15.688H106.062V13.4415H106.836C107.324 13.4415 107.698 13.541 107.957 13.7336C108.216 13.9283 108.346 14.2117 108.346 14.584ZM106.781 12.5878H106.062V10.7083H106.826C107.201 10.7083 107.487 10.7757 107.685 10.9115C107.884 11.0463 107.983 11.2517 107.983 11.5256C107.985 11.7138 107.934 11.8989 107.836 12.0594C107.733 12.2239 107.587 12.3571 107.414 12.4445C107.231 12.5408 107.02 12.5878 106.781 12.5878ZM109.288 13.8149C109.153 13.5774 108.96 13.3786 108.726 13.2372L108.728 13.2361C108.479 13.0858 108.202 12.9876 107.914 12.9473C108.259 12.8525 108.568 12.657 108.802 12.3857C109.027 12.1204 109.14 11.7866 109.14 11.3908C109.14 10.9137 108.963 10.5382 108.611 10.2643C108.257 9.98937 107.727 9.85244 107.022 9.85244H104.938V16.5428H107.111C107.613 16.5428 108.041 16.4636 108.399 16.3042C108.756 16.1459 109.029 15.9244 109.215 15.6388C109.4 15.3543 109.493 15.0258 109.493 14.6536C109.493 14.3326 109.425 14.0534 109.288 13.8149V13.8149ZM60.1417 29.4527H56.1001L57.5369 25.5502C57.7373 24.9671 57.9272 24.3804 58.1065 23.7904C58.2825 24.3895 58.4798 24.9832 58.6942 25.5695L60.1417 29.4527ZM55.4185 31.297H60.8318L62.1844 34.9299H64.6846L59.2628 21.3653H57.0132L51.7118 34.9299H54.0937L55.4185 31.297V31.297ZM72.5257 29.687C72.5257 30.9044 72.291 31.8297 71.8217 32.463C71.3524 33.0942 70.6697 33.4119 69.7737 33.4119C69.474 33.4119 69.1721 33.3798 68.8681 33.3157C68.5907 33.259 68.321 33.1692 68.0649 33.0482V27.6384C68.3815 27.3018 68.7464 27.0144 69.1476 26.7858C69.5271 26.574 69.9549 26.4646 70.3892 26.4681C71.0366 26.4681 71.5529 26.7216 71.9433 27.2308C72.3316 27.74 72.5257 28.5573 72.5257 29.687V29.687ZM65.6852 24.8281C65.7342 25.7267 65.7598 26.5504 65.7598 27.2993V39.1491L68.0649 38.9523V34.778C68.7156 35.0059 69.4004 35.1236 70.0905 35.1246C71.0356 35.1246 71.8697 34.9085 72.5908 34.4785C73.3129 34.0484 73.875 33.4151 74.2761 32.5786C74.6772 31.742 74.8788 30.7343 74.8788 29.5554C74.8788 28.4257 74.7028 27.495 74.3518 26.7612C73.9998 26.0284 73.5369 25.4914 72.9652 25.1512C72.4009 24.8137 71.7554 24.6373 71.0985 24.6409C69.9401 24.6409 68.915 25.1309 68.019 26.1118C67.988 25.681 67.9317 25.2523 67.8505 24.8281H65.6852V24.8281ZM83.1209 29.687C83.1209 30.9044 82.8852 31.8297 82.4148 32.463H82.4158C81.9454 33.0942 81.2638 33.4119 80.3678 33.4119C80.0628 33.4119 79.7598 33.3798 79.4612 33.3157C79.1841 33.2588 78.9148 33.169 78.659 33.0482V27.6384C78.9758 27.3019 79.3406 27.0146 79.7417 26.7858C80.1212 26.574 80.549 26.4646 80.9833 26.4681C81.6297 26.4681 82.147 26.7216 82.5364 27.2308C82.9257 27.74 83.1209 28.5573 83.1209 29.687V29.687ZM76.2793 24.8292C76.3284 25.7278 76.354 26.5515 76.354 27.3003V39.1502L78.659 38.9533V34.778C79.3097 35.0059 79.9945 35.1236 80.6846 35.1246C81.6297 35.1246 82.4638 34.9085 83.1849 34.4785C83.907 34.0484 84.4692 33.4151 84.8702 32.5786C85.2713 31.742 85.4718 30.7343 85.4718 29.5554C85.4718 28.4257 85.2969 27.495 84.9449 26.7612C84.5929 26.0284 84.131 25.4914 83.5582 25.1512C82.9944 24.8137 82.3492 24.6372 81.6926 24.6409C80.5342 24.6409 79.5081 25.1309 78.6121 26.1118C78.5816 25.681 78.5257 25.2523 78.4446 24.8281H76.2793V24.8292ZM87.5252 31.9153C88.0353 32.9195 88.8352 33.7463 89.8206 34.2881C90.8169 34.8411 91.9924 35.1171 93.3481 35.1171C95.0645 35.1055 96.7582 34.7223 98.3134 33.9939V28.2845H92.9481V30.0817H96.0734V32.8225C95.665 32.9708 95.2436 33.0804 94.8148 33.1498C94.3668 33.2247 93.9188 33.2632 93.4708 33.2632C92.4809 33.2632 91.6606 33.045 91.0121 32.6075C90.3649 32.1761 89.8658 31.5553 89.5828 30.8295C89.282 30.0807 89.1305 29.2227 89.1305 28.2557C89.1305 27.1506 89.3268 26.2092 89.7182 25.4283C90.1108 24.6495 90.659 24.0579 91.3662 23.6546C92.0724 23.2523 92.8958 23.0512 93.8345 23.0512C94.9481 23.0512 96.1172 23.3444 97.3438 23.9306L97.9316 22.1516C97.3009 21.8452 96.6388 21.6084 95.9572 21.4455C95.2283 21.2716 94.4813 21.1854 93.7321 21.1888C92.4126 21.1888 91.2222 21.4551 90.162 21.989C89.1006 22.5228 88.2622 23.3208 87.6468 24.3852C87.0302 25.4486 86.723 26.7419 86.723 28.2642C86.723 29.6688 86.9908 30.8851 87.5252 31.9153V31.9153ZM106.415 32.1956C106.084 32.5583 105.684 32.8511 105.239 33.0568C104.76 33.2889 104.29 33.4034 103.83 33.4034C103.377 33.4034 103.017 33.2836 102.752 33.0429C102.488 32.8032 102.355 32.4331 102.355 31.9335C102.355 31.4093 102.537 30.9943 102.902 30.684C103.265 30.3738 103.923 30.2219 104.876 30.2219C105.39 30.2294 105.904 30.2625 106.415 30.3235V32.1956V32.1956ZM106.462 33.5916C106.481 34.041 106.533 34.487 106.62 34.9289H108.786C108.744 34.2964 108.719 33.6628 108.711 33.029V29.0141C108.711 27.9219 108.54 27.0522 108.198 26.4071C107.856 25.761 107.38 25.3052 106.77 25.041C106.16 24.7757 105.42 24.642 104.549 24.642C103.833 24.639 103.119 24.7179 102.421 24.8773C101.749 25.0324 101.207 25.2047 100.797 25.3908L101.16 27.0757C101.635 26.8582 102.129 26.6863 102.636 26.5622C103.15 26.4241 103.68 26.3515 104.213 26.3461C104.922 26.3461 105.466 26.528 105.846 26.8938C106.226 27.2576 106.415 27.8877 106.415 28.7798V28.9767C105.809 28.8882 105.198 28.8442 104.586 28.8451C102.943 28.8451 101.772 29.1361 101.068 29.7212C100.365 30.3043 100.014 31.0852 100.014 32.0662C100.014 32.7262 100.153 33.2857 100.433 33.7457C100.702 34.1929 101.095 34.5512 101.567 34.7748C102.062 35.0059 102.603 35.1225 103.149 35.1161C103.864 35.1161 104.508 34.9663 105.075 34.6721C105.646 34.3758 106.108 34.0153 106.462 33.5916V33.5916ZM110.728 20.5704V32.5048C110.728 34.2453 111.527 35.115 113.126 35.115C113.425 35.115 113.724 35.0872 114.018 35.0369C114.291 34.9941 114.558 34.9246 114.816 34.8262L114.546 33.1702C114.348 33.2279 114.144 33.2624 113.938 33.2729C113.621 33.2729 113.389 33.183 113.244 33.0054C113.096 32.8278 113.024 32.524 113.024 32.0929V20.3832L110.728 20.5704V20.5704ZM116.469 20.5704V32.5048H116.468C116.468 34.2453 117.267 35.115 118.867 35.115C119.166 35.1136 119.463 35.0875 119.758 35.0369C120.031 34.9941 120.297 34.9246 120.556 34.8262L120.286 33.1702C120.088 33.2278 119.884 33.2623 119.679 33.2729C119.361 33.2729 119.128 33.183 118.983 33.0054C118.837 32.8278 118.762 32.524 118.762 32.0929V20.3832L116.469 20.5704V20.5704ZM127.256 26.8928C127.618 27.2961 127.821 27.8983 127.863 28.705H123.589C123.708 27.9058 123.961 27.3036 124.35 26.8992C124.739 26.4927 125.225 26.2894 125.811 26.2894C126.414 26.2894 126.897 26.4916 127.256 26.8938V26.8928ZM123.524 30.1737H130.113V29.5554C130.113 28.6568 129.96 27.8374 129.651 27.095C129.36 26.3755 128.867 25.7561 128.232 25.3117C127.594 24.8666 126.8 24.642 125.847 24.642C124.933 24.642 124.126 24.8538 123.426 25.2785C122.726 25.7032 122.18 26.3162 121.788 27.1228C121.396 27.9272 121.2 28.8879 121.2 30.0058C121.2 31.0798 121.385 31.9977 121.754 32.7572C122.109 33.5016 122.689 34.1142 123.412 34.5074C124.146 34.9139 125.048 35.1171 126.119 35.1171C127.525 35.1171 128.791 34.8422 129.917 34.2934L129.413 32.7102C128.953 32.906 128.477 33.0613 127.99 33.1744C127.514 33.287 127.027 33.3444 126.538 33.3456C124.633 33.3456 123.631 32.2897 123.524 30.1737V30.1737ZM131.896 24.8292C131.945 25.9653 131.971 26.8104 131.971 27.3667V34.9289H134.266V28.4429C134.726 27.8063 135.158 27.3496 135.564 27.0714C135.969 26.7933 136.44 26.6542 136.982 26.6542C137.235 26.6517 137.486 26.6866 137.729 26.758L138.019 24.7543C137.72 24.6739 137.412 24.6361 137.103 24.642C136.692 24.6346 136.286 24.7333 135.924 24.9287C135.58 25.1175 135.272 25.3676 135.017 25.6668C134.725 26.018 134.462 26.3922 134.229 26.7858C134.212 26.4687 134.188 26.152 134.159 25.8358C134.131 25.4995 134.095 25.1639 134.052 24.8292H131.896V24.8292ZM138.57 38.8603C139.189 39.0567 139.834 39.1545 140.483 39.1502C141.261 39.1502 141.925 39.0068 142.477 38.7201C143.027 38.4313 143.504 37.9927 143.909 37.4C144.312 36.8074 144.689 36.0275 145.038 35.0604L148.743 24.8292H146.42L144.525 30.5674C144.291 31.2889 144.085 32.0194 143.909 32.7572C143.822 32.2395 143.625 31.4938 143.32 30.5203L141.454 24.8292H138.981L142.695 35.0134L142.546 35.3878C142.035 36.7036 141.27 37.3626 140.25 37.3626C140.039 37.3626 139.815 37.3412 139.578 37.3027C139.381 37.2689 139.185 37.2261 138.991 37.1743L138.57 38.8603V38.8603Z" fill="white"/>
</svg>
