<svg width="39" height="39" viewBox="0 0 39 39" fill="none" xmlns="http://www.w3.org/2000/svg">
<circle cx="28.5918" cy="15.854" r="4.75198" stroke="#FFCB00" stroke-width="2.375" stroke-linecap="round" stroke-linejoin="round"/>
<circle cx="18.2959" cy="27.7344" r="5.54398" stroke="#FFCB00" stroke-width="2.375" stroke-linecap="round" stroke-linejoin="round"/>
<circle cx="11.168" cy="11.1026" r="6.33597" stroke="#FFCB00" stroke-width="2.375" stroke-linecap="round" stroke-linejoin="round"/>
<path d="M31.7598 27.7354C31.7592 28.1725 31.4046 28.5266 30.9674 28.5264C30.5303 28.5262 30.176 28.1719 30.1758 27.7347C30.1756 27.2976 30.5296 26.9429 30.9668 26.9424C31.1772 26.9421 31.379 27.0256 31.5278 27.1744C31.6766 27.3231 31.76 27.525 31.7598 27.7354" stroke="#FFCB00" stroke-width="2.375" stroke-linecap="round" stroke-linejoin="round"/>
<path d="M23.8399 5.5596C23.8393 5.99674 23.4847 6.35078 23.0475 6.3506C22.6104 6.35041 22.256 5.99608 22.2559 5.55893C22.2557 5.12178 22.6097 4.76715 23.0469 4.7666C23.2573 4.76634 23.4591 4.8498 23.6079 4.99857C23.7567 5.14735 23.8401 5.3492 23.8399 5.5596" stroke="#FFCB00" stroke-width="2.375" stroke-linecap="round" stroke-linejoin="round"/>
<path d="M7.20899 23.7749C7.20844 24.2121 6.85381 24.5661 6.41666 24.5659C5.97952 24.5657 5.62518 24.2114 5.625 23.7743C5.62482 23.3371 5.97885 22.9825 6.416 22.9819C6.6264 22.9817 6.82826 23.0651 6.97703 23.2139C7.12581 23.3627 7.20927 23.5645 7.20901 23.7749" stroke="#FFCB00" stroke-width="2.375" stroke-linecap="round" stroke-linejoin="round"/>
</svg>
