<svg width="160" height="46" viewBox="0 0 160 46" fill="none" xmlns="http://www.w3.org/2000/svg">
<path d="M154.24 46H5.76C2.56 46 0 43.4326 0 40.2233V5.77674C0 2.56744 2.56 0 5.76 0H154.24C157.44 0 160 2.56744 160 5.77674V40.2233C160 43.4326 157.44 46 154.24 46Z" fill="black"/>
<path d="M80.2133 25.0326C77.5467 25.0326 75.3067 27.0651 75.3067 29.9535C75.3067 32.7349 77.5467 34.8744 80.2133 34.8744C82.88 34.8744 85.12 32.8419 85.12 29.9535C85.12 27.0651 82.9867 25.0326 80.2133 25.0326ZM80.2133 32.8419C78.72 32.8419 77.44 31.6651 77.44 29.8465C77.44 28.1349 78.72 26.8512 80.2133 26.8512C81.7067 26.8512 82.9867 28.0279 82.9867 29.8465C82.9867 31.6651 81.7067 32.8419 80.2133 32.8419ZM69.5467 25.0326C66.88 25.0326 64.64 27.0651 64.64 29.9535C64.64 32.7349 66.88 34.8744 69.5467 34.8744C72.2133 34.8744 74.4533 32.8419 74.4533 29.9535C74.4533 27.0651 72.32 25.0326 69.5467 25.0326ZM69.5467 32.8419C68.0533 32.8419 66.7733 31.6651 66.7733 29.8465C66.7733 28.1349 68.0533 26.8512 69.5467 26.8512C71.04 26.8512 72.32 28.0279 72.32 29.8465C72.32 31.6651 71.04 32.8419 69.5467 32.8419ZM56.8533 26.5302V28.5628H61.8667C61.76 29.7395 61.3333 30.5954 60.6933 31.1302C59.9467 31.8791 58.88 32.6279 56.8533 32.6279C53.76 32.6279 51.4133 30.1674 51.4133 27.0651C51.4133 23.9628 53.76 21.5023 56.8533 21.5023C58.4533 21.5023 59.7333 22.1442 60.5867 23L62.08 21.5023C60.8 20.3256 59.2 19.3628 56.8533 19.3628C52.6933 19.3628 49.1733 22.786 49.1733 26.9581C49.1733 31.1302 52.6933 34.5535 56.8533 34.5535C59.0933 34.5535 60.8 33.8047 62.1867 32.414C63.5733 31.0233 64 29.0977 64 27.6C64 27.0651 64 26.6372 63.8933 26.3163H56.8533V26.5302ZM108.8 28.1349C108.373 27.0651 107.2 25.0326 104.64 25.0326C102.08 25.0326 100.053 27.0651 100.053 29.9535C100.053 32.7349 102.08 34.8744 104.853 34.8744C107.093 34.8744 108.373 33.4837 108.907 32.7349L107.2 31.6651C106.667 32.5209 105.92 33.0558 104.747 33.0558C103.68 33.0558 102.933 32.5209 102.4 31.5581L108.907 28.8837L108.8 28.1349V28.1349ZM102.187 29.7395C102.08 27.814 103.68 26.8512 104.747 26.8512C105.6 26.8512 106.347 27.2791 106.56 27.9209L102.187 29.7395V29.7395ZM96.8533 34.5535H98.9867V20.1116H96.8533V34.5535ZM93.3333 26.1023C92.8 25.5674 91.84 25.0326 90.6667 25.0326C88.2133 25.0326 85.9733 27.1721 85.9733 29.9535C85.9733 32.7349 88.2133 34.8744 90.6667 34.8744C91.84 34.8744 92.8 34.3395 93.2267 33.8047H93.3333V34.5535C93.3333 36.3721 92.3733 37.4419 90.7733 37.4419C89.4933 37.4419 88.64 36.4791 88.32 35.7302L86.4 36.2651C86.9333 37.5488 88.32 39.1535 90.7733 39.1535C93.3333 39.1535 95.36 37.6558 95.36 34.0186V25.2465H93.3333V26.1023V26.1023ZM90.88 32.8419C89.3867 32.8419 88.2133 31.5581 88.2133 29.8465C88.2133 28.1349 89.4933 26.8512 90.88 26.8512C92.3733 26.8512 93.44 28.1349 93.44 29.8465C93.5467 31.6651 92.3733 32.8419 90.88 32.8419ZM118.827 20.1116H113.707V34.4465H115.84V28.9907H118.827C121.173 28.9907 123.52 27.2791 123.52 24.4977C123.52 21.7163 121.28 20.1116 118.827 20.1116ZM118.933 27.0651H115.84V22.1442H118.933C120.533 22.1442 121.493 23.4279 121.493 24.6047C121.387 25.6744 120.533 27.0651 118.933 27.0651ZM132.16 25.0326C130.56 25.0326 128.96 25.6744 128.32 27.2791L130.24 28.0279C130.667 27.2791 131.413 26.9581 132.16 26.9581C133.227 26.9581 134.4 27.6 134.4 28.7767V28.8837C133.973 28.6698 133.227 28.3488 132.16 28.3488C130.133 28.3488 128 29.5256 128 31.5581C128 33.4837 129.707 34.7674 131.52 34.7674C132.907 34.7674 133.76 34.1256 134.293 33.3767H134.4V34.4465H136.427V28.8837C136.533 26.4233 134.613 25.0326 132.16 25.0326V25.0326ZM131.84 32.8419C131.093 32.8419 130.133 32.5209 130.133 31.6651C130.133 30.5954 131.307 30.1674 132.373 30.1674C133.333 30.1674 133.76 30.3814 134.293 30.5954C134.293 31.8791 133.12 32.8419 131.84 32.8419ZM144 25.3535L141.547 31.5581H141.44L138.88 25.3535H136.533L140.373 34.0186L138.24 38.8326H140.48L146.347 25.2465H144V25.3535ZM124.8 34.5535H126.933V20.1116H124.8V34.5535Z" fill="white"/>
<path d="M14.08 8.66504C13.76 8.98597 13.5467 9.52085 13.5467 10.2697V35.7302C13.5467 36.479 13.76 37.0139 14.08 37.3348L14.1867 37.4418L28.3733 23.2139V22.786L14.08 8.66504Z" fill="url(#paint0_linear_64_1207)"/>
<path d="M33.1733 27.921L28.48 23.214V22.7861L33.1733 18.0791L33.28 18.1861L38.9333 21.3954C40.5333 22.3582 40.5333 23.8558 38.9333 24.7117L33.28 27.921H33.1733V27.921Z" fill="url(#paint1_linear_64_1207)"/>
<path d="M33.28 27.814L28.48 23L14.08 37.3349C14.6133 37.8698 15.4667 37.9767 16.4267 37.4419L33.28 27.814Z" fill="url(#paint2_linear_64_1207)"/>
<path d="M33.2801 18.186L16.5334 8.55814C15.5734 8.02325 14.7201 8.02325 14.1867 8.66511L28.4801 23L33.2801 18.186V18.186Z" fill="url(#paint3_linear_64_1207)"/>
<path opacity="0.2" d="M33.1733 27.707L16.5333 37.228C15.5733 37.7628 14.72 37.7628 14.1867 37.228L14.08 37.3349L14.1867 37.4419C14.72 37.9768 15.5733 37.9768 16.5333 37.4419L33.28 27.814L33.1733 27.707V27.707Z" fill="black"/>
<path opacity="0.12" d="M14.08 37.121C13.76 36.8 13.5467 36.2652 13.5467 35.5163V35.7303C13.5467 36.4791 13.76 37.014 14.08 37.3349V37.121ZM38.8267 24.4977L33.0667 27.707L33.1733 27.814L38.8267 24.6047C39.68 24.1768 40 23.5349 40 22.8931C40 23.5349 39.5733 24.0698 38.8267 24.4977Z" fill="black"/>
<path opacity="0.25" d="M16.5333 8.77201L38.9333 21.5022C39.68 21.9302 40.1067 22.465 40.1067 22.9999C40.1067 22.3581 39.68 21.8232 38.9333 21.2883L16.5333 8.55806C14.9333 7.59527 13.6533 8.45108 13.6533 10.2697V10.4836C13.5467 8.66504 14.8267 7.80922 16.5333 8.77201Z" fill="white"/>
<path d="M50.4532 16.3672H49.5999V14.0137H50.2399C50.8799 13.4789 51.0932 12.623 51.0932 11.3393V8.02304H55.6799V14.1207H56.5332V16.4742H55.6799V14.9765H50.4532V16.3672ZM52.0532 11.4463C52.0532 12.5161 51.8399 13.3719 51.4132 14.1207H54.9332V8.87885H52.1599V11.4463H52.0532ZM63.3599 14.0137C62.7199 14.7626 61.8666 15.0835 60.7999 15.0835C59.8399 15.0835 58.9866 14.7626 58.2399 14.0137C57.5999 13.2649 57.1732 12.5161 57.1732 11.4463C57.1732 10.4835 57.4932 9.62769 58.2399 8.87885C58.8799 8.13001 59.7332 7.80908 60.7999 7.80908C61.7599 7.80908 62.6133 8.13001 63.3599 8.87885C63.9999 9.62769 64.4266 10.4835 64.4266 11.4463C64.4266 12.5161 64.1066 13.3719 63.3599 14.0137ZM58.9866 13.4789C59.5199 14.0137 60.1599 14.2277 60.9066 14.2277C61.6532 14.2277 62.2933 14.0137 62.8266 13.4789C63.3599 12.944 63.5732 12.3021 63.5732 11.4463C63.5732 10.5905 63.3599 9.94862 62.8266 9.41373C62.2933 8.87885 61.6532 8.6649 60.9066 8.6649C60.1599 8.6649 59.5199 8.87885 58.9866 9.41373C58.4532 9.94862 58.2399 10.5905 58.2399 11.4463C58.2399 12.3021 58.4532 12.944 58.9866 13.4789ZM68.7999 15.0835C67.8399 15.0835 66.9866 14.7626 66.2399 14.0137C65.5999 13.3719 65.1732 12.5161 65.1732 11.4463C65.1732 10.3765 65.4932 9.52071 66.2399 8.87885C66.8799 8.23699 67.7332 7.80908 68.7999 7.80908C69.8666 7.80908 70.7199 8.23699 71.3599 8.98583L70.7199 9.62769C70.2933 9.0928 69.6532 8.77187 68.7999 8.77187C68.0532 8.77187 67.4132 8.98583 66.8799 9.52071C66.4532 10.0556 66.1332 10.6975 66.1332 11.5533C66.1332 12.4091 66.3466 13.0509 66.8799 13.5858C67.4132 14.1207 68.0532 14.3347 68.7999 14.3347C69.6532 14.3347 70.2932 14.0137 70.9332 13.3719L71.5732 14.0137C71.2532 14.4416 70.8266 14.6556 70.3999 14.8695C69.8666 14.9765 69.4399 15.0835 68.7999 15.0835V15.0835ZM75.1999 14.9765H74.3466V8.87885H72.4266V8.02304H77.1199V8.87885H75.1999V14.9765V14.9765ZM83.0933 8.02304L80.5332 13.9068C80.2132 14.7626 79.6799 15.1905 78.9332 15.1905C78.7199 15.1905 78.5066 15.1905 78.2933 15.0835L78.5066 14.2277C78.6132 14.3347 78.8266 14.3347 78.9332 14.3347C79.1466 14.3347 79.2533 14.3347 79.3599 14.2277C79.4666 14.1207 79.5732 14.0137 79.6799 13.7998L79.8933 13.2649L77.5466 8.13001H78.6132L80.3199 12.0882L82.1332 8.02304H83.0933V8.02304ZM84.1599 14.9765V8.02304H89.1732V14.9765H88.3199V8.87885H85.1199V14.9765H84.1599V14.9765ZM90.6666 14.9765V8.02304H91.5199V11.0184H94.9333V8.02304H95.7866V14.9765H94.9333V11.8742H91.5199V14.9765H90.6666V14.9765ZM103.147 14.0137C102.507 14.7626 101.653 15.0835 100.587 15.0835C99.6266 15.0835 98.7733 14.7626 98.0266 14.0137C97.3866 13.2649 96.9599 12.5161 96.9599 11.4463C96.9599 10.4835 97.2799 9.62769 98.0266 8.87885C98.6666 8.13001 99.5199 7.80908 100.587 7.80908C101.547 7.80908 102.4 8.13001 103.147 8.87885C103.787 9.62769 104.213 10.4835 104.213 11.4463C104.107 12.5161 103.787 13.3719 103.147 14.0137ZM98.6666 13.4789C99.1999 14.0137 99.8399 14.2277 100.587 14.2277C101.333 14.2277 101.973 14.0137 102.507 13.4789C103.04 12.944 103.253 12.3021 103.253 11.4463C103.253 10.5905 103.04 9.94862 102.507 9.41373C101.973 8.87885 101.333 8.6649 100.587 8.6649C99.8399 8.6649 99.1999 8.98583 98.6666 9.52071C98.1333 10.0556 97.9199 10.6975 97.9199 11.5533C97.9199 12.3021 98.2399 12.944 98.6666 13.4789V13.4789ZM107.733 14.9765V8.02304H110.187C110.72 8.02304 111.147 8.23699 111.573 8.55792C112 8.87885 112.213 9.41373 112.213 9.94862C112.213 10.2695 112.107 10.5905 112 10.8044C111.787 11.0184 111.573 11.2323 111.36 11.3393C111.68 11.4463 112 11.6602 112.213 11.9812C112.427 12.3021 112.533 12.623 112.533 12.944C112.533 13.4789 112.32 14.0137 111.893 14.3347C111.467 14.6556 111.04 14.8695 110.4 14.8695H107.733V14.9765ZM108.587 11.0184H110.187C110.507 11.0184 110.827 10.9114 111.04 10.6975C111.253 10.4835 111.36 10.2695 111.36 9.94862C111.36 9.62769 111.253 9.41373 111.04 9.19978C110.827 8.98583 110.613 8.87885 110.293 8.87885H108.693V11.0184H108.587ZM108.587 14.1207H110.4C110.72 14.1207 111.04 14.0137 111.253 13.7998C111.467 13.5858 111.573 13.2649 111.573 13.0509C111.573 12.73 111.467 12.5161 111.253 12.3021C111.04 12.0882 110.72 11.9812 110.4 11.9812H108.693V14.1207H108.587Z" fill="white" stroke="white" stroke-width="0.214667" stroke-miterlimit="10"/>
<defs>
<linearGradient id="paint0_linear_64_1207" x1="27.1307" y1="10.0162" x2="7.83107" y2="29.2598" gradientUnits="userSpaceOnUse">
<stop stop-color="#00A0FF"/>
<stop offset="0.007" stop-color="#00A1FF"/>
<stop offset="0.26" stop-color="#00BEFF"/>
<stop offset="0.512" stop-color="#00D2FF"/>
<stop offset="0.76" stop-color="#00DFFF"/>
<stop offset="1" stop-color="#00E3FF"/>
</linearGradient>
<linearGradient id="paint1_linear_64_1207" x1="40.9301" y1="23.0022" x2="13.184" y2="23.0022" gradientUnits="userSpaceOnUse">
<stop stop-color="#FFE000"/>
<stop offset="0.409" stop-color="#FFBD00"/>
<stop offset="0.775" stop-color="#FFA500"/>
<stop offset="1" stop-color="#FF9C00"/>
</linearGradient>
<linearGradient id="paint2_linear_64_1207" x1="30.6016" y1="25.6402" x2="4.42984" y2="51.7371" gradientUnits="userSpaceOnUse">
<stop stop-color="#FF3A44"/>
<stop offset="1" stop-color="#C31162"/>
</linearGradient>
<linearGradient id="paint3_linear_64_1207" x1="10.5014" y1="0.203253" x2="22.1875" y2="11.8555" gradientUnits="userSpaceOnUse">
<stop stop-color="#32A071"/>
<stop offset="0.069" stop-color="#2DA771"/>
<stop offset="0.476" stop-color="#15CF74"/>
<stop offset="0.801" stop-color="#06E775"/>
<stop offset="1" stop-color="#00F076"/>
</linearGradient>
</defs>
</svg>
