<svg width="55" height="55" viewBox="0 0 55 55" fill="none" xmlns="http://www.w3.org/2000/svg">
<path d="M27.5003 32.0832C24.969 32.0832 22.917 30.0311 22.917 27.4998C22.917 24.9685 24.969 22.9165 27.5003 22.9165" stroke="#FFCB00" stroke-width="3.4375" stroke-linecap="round" stroke-linejoin="round"/>
<path fill-rule="evenodd" clip-rule="evenodd" d="M41.725 22.9165H49.2693C49.6859 22.9165 50.0696 23.1425 50.2715 23.5069C50.4734 23.8712 50.4618 24.3164 50.241 24.6696L48.4721 27.4998L50.241 30.33C50.4618 30.6833 50.4734 31.1285 50.2715 31.4928C50.0696 31.8571 49.6859 32.0832 49.2693 32.0832H41.725C41.4211 32.0832 41.1296 31.9624 40.9147 31.7476L36.667 27.4998L40.9147 23.2521C41.1296 23.0372 41.4211 22.9165 41.725 22.9165V22.9165Z" stroke="#FFCB00" stroke-width="3.4375" stroke-linecap="round" stroke-linejoin="round"/>
<path d="M32.083 27.4998H36.6663" stroke="#FFCB00" stroke-width="3.4375" stroke-linecap="round" stroke-linejoin="round"/>
<path d="M36.1329 18.3335C31.1393 13.6208 23.2922 13.7723 18.484 18.6741C13.6759 23.5759 13.6759 31.4244 18.484 36.3263C23.2922 41.2281 31.1393 41.3795 36.1329 36.6668" stroke="#FFCB00" stroke-width="3.4375" stroke-linecap="round" stroke-linejoin="round"/>
<path d="M44.6473 16.0418C39.6002 8.48794 30.2048 5.12607 21.5111 7.76319C12.8174 10.4003 6.87305 18.4153 6.87305 27.5001C6.87305 36.585 12.8174 44.6 21.5111 47.2371C30.2048 49.8742 39.6002 46.5123 44.6473 38.9585" stroke="#FFCB00" stroke-width="3.4375" stroke-linecap="round" stroke-linejoin="round"/>
</svg>
