<svg width="55" height="55" viewBox="0 0 55 55" fill="none" xmlns="http://www.w3.org/2000/svg">
<path d="M12.7376 22.3736L12.0799 19.9284C11.4176 17.4786 12.8728 14.9601 15.3249 14.3069L38.3401 8.17443C40.7692 7.52818 43.2901 8.98339 43.9455 11.4103L47.9651 26.3267C48.6251 28.7765 47.1676 31.2951 44.7201 31.9482L39.8755 33.2384" stroke="#FFCB00" stroke-width="2.75" stroke-linecap="round" stroke-linejoin="round"/>
<path fill-rule="evenodd" clip-rule="evenodd" d="M11.4583 46.9792H35.2917C37.824 46.9792 39.875 44.9281 39.875 42.3958V26.9569C39.875 24.4246 37.824 22.3735 35.2917 22.3735H11.4583C8.92604 22.3735 6.875 24.4246 6.875 26.9569V42.3958C6.875 44.9281 8.92833 46.9792 11.4583 46.9792Z" stroke="#FFCB00" stroke-width="2.75" stroke-linecap="round" stroke-linejoin="round"/>
<path d="M6.875 31.7166H39.875" stroke="#FFCB00" stroke-width="2.75" stroke-linecap="round" stroke-linejoin="round"/>
</svg>
