<?xml version="1.0" encoding="UTF-8"?> <svg xmlns="http://www.w3.org/2000/svg" width="16" height="16" viewBox="0 0 16 16" fill="none"> <path d="M11 16C10.7348 15.9999 10.4805 15.8945 10.293 15.707L8.29297 13.707L9.70697 12.293L11 13.586L14.293 10.293L15.707 11.707L11.707 15.707C11.5195 15.8945 11.2652 15.9999 11 16Z" fill="white"></path> <path d="M7 14H2V5H14V9H16V3C16 2.73478 15.8946 2.48043 15.7071 2.29289C15.5196 2.10536 15.2652 2 15 2H13V0H11V2H9V0H7V2H5V0H3V2H1C0.734784 2 0.48043 2.10536 0.292893 2.29289C0.105357 2.48043 0 2.73478 0 3L0 15C0 15.2652 0.105357 15.5196 0.292893 15.7071C0.48043 15.8946 0.734784 16 1 16H7V14Z" fill="white"></path> </svg> 