<?xml version="1.0" encoding="utf-8"?>
<!-- Generator: Adobe Illustrator 22.0.1, SVG Export Plug-In . SVG Version: 6.00 Build 0)  -->
<svg version="1.1" id="Layer_1" xmlns="http://www.w3.org/2000/svg" xmlns:xlink="http://www.w3.org/1999/xlink" x="0px" y="0px"
	 viewBox="0 0 512 512" style="enable-background:new 0 0 512 512;" xml:space="preserve">
<style type="text/css">
	.st0{fill:#F0C454;}
	.st1{fill:#EFB533;}
	.st2{fill:#E5AA17;}
	.st3{fill:#F2D55A;}
	.st4{fill:#FBBF96;}
	.st5{fill:#FDD6B2;}
	.st6{fill:#EDAC80;}
	.st7{fill:#F1A977;}
	.st8{fill:#F5B78C;}
	.st9{fill:#EBF3F6;}
	.st10{fill:#598DE0;}
	.st11{fill:none;stroke:#E5AA17;stroke-width:7;stroke-miterlimit:10;}
</style>
<g>
	<path class="st0" d="M512,256C512,114.6,397.4,0,256,0S0,114.6,0,256s114.6,256,256,256S512,397.4,512,256z"/>
	<path class="st1" d="M309.3,150.4c29.4-29.4,29.4-77.2,0-106.6s-77.2-29.4-106.6,0s-29.4,77.2,0,106.6
		C232.2,180,279.8,180,309.3,150.4z"/>
	<path class="st2" d="M309.3,150.4c29.4-29.4,29.4-77.2,0-106.6L202.7,150.4C232.2,180,279.8,180,309.3,150.4z"/>
	<path class="st3" d="M302.2,143.4c25.5-25.5,25.5-66.9,0-92.5l-92.5,92.5C235.3,168.9,276.7,168.9,302.2,143.4z"/>
	<g>
		<path class="st3" d="M267.2,111.7c0-5.9-6.6-7.4-14.4-9.3c-0.6-0.1-1.1-0.2-1.8-0.4l-12.3,12.3c4.3,3.2,10.3,5.5,16.5,5.5
			C262.9,119.8,267.2,116.6,267.2,111.7z"/>
		<path class="st3" d="M302.2,51l-21.5,21.5c0.2,0.7,0.3,1.4,0.3,2.2c0,4.8-5.5,8.3-5.8,7.8c-0.7-0.8-1.4-1.5-2.3-2.3l-11.4,11.4
			c9.5,2.3,20.8,6.5,20.8,19.6c0,10.8-7.4,18.3-20,20.2v4.1c0,5-2,7.2-6.2,7.2h-0.5c-4.4,0-6.1-2.3-6.1-7.2v-3.9
			c-9.8-1-16.4-4.7-19.1-9.1l-20.9,20.9c25.5,25.5,66.9,25.5,92.5,0C327.7,117.8,327.7,76.5,302.2,51z"/>
	</g>
	<path class="st4" d="M318.5,228.9l-30.9-21.2c0,0-3.9-4.7-19.2-5.9c-24-1.8-71.8-12.8-71.8-12.8c-29.4,8.8-26.8,34.9-26.8,34.9
		l77,14.8c0,0,35.5-2.8,44.3,2.8c21.5,13.4,32.1-8.7,32.1-8.7L318.5,228.9z"/>
	<path class="st5" d="M302.5,217.8l20.5,13.2c0,0-4.6,4.3-8.6,3.8C310.2,234.2,301,224.1,302.5,217.8z"/>
	<path class="st6" d="M315.4,237.6l-36.9-9.8l-34.8-4.3l24.7-1.3c0,0,10.1-0.7,17.6,3.3C292,228.7,315.4,237.6,315.4,237.6z"/>
	<g>
		<path class="st5" d="M281,213.6c-0.6-0.1-1-0.8-0.9-1.4l1.3-6c0.2-0.6,0.8-1,1.4-0.9l0,0c0.6,0.1,1,0.8,0.9,1.4l-1.3,6
			C282.3,213.4,281.6,213.8,281,213.6L281,213.6z"/>
		<path class="st5" d="M277.2,209.7c-0.6-0.2-1-0.8-0.9-1.4l0.6-3.2c0.1-0.6,0.8-1,1.4-0.9l0,0c0.6,0.2,1,0.8,0.9,1.4l-0.6,3.2
			C278.5,209.4,277.8,209.8,277.2,209.7L277.2,209.7z"/>
	</g>
	<path class="st4" d="M322.6,373.5c9-5.6,33.1-29.9,27.6-38.9l0,0c-5.6-9-17.3-11.7-26.3-6.2l-69.3,42.3c-9,5.6-13.4,14.1-7.8,23.1
		l0,0c5.6,9,12.7,9.1,24.8,3.8L322.6,373.5z"/>
	<path class="st6" d="M294.4,350.7l-50.3,35.8c-0.3-8.9,3.7-11.6,8.9-14.8l55.1-36.1C306.9,337.5,296.4,349.4,294.4,350.7z"/>
	<g>
		<path class="st7" d="M241,254l17.2-14.5l-3.7-29l91.6-31.3l87.2,93c0,0-23.4,36.8-46.9,58.6c-23.5,21.8-65,43.3-65,43.3L241,254z"
			/>
		<path class="st7" d="M342.4,321c9-5.6,11.7-17.3,6.2-26.3l0,0c-5.6-9-17.3-11.7-26.3-6.2l-98.1,60.9c-9,5.6-11.8,17.3-6.2,26.3
			l0,0c5.6,9,17.3,11.7,26.3,6.2L342.4,321z"/>
	</g>
	<path class="st6" d="M259.1,332.5l-44,33.5c-0.1-7.5,2.9-12.8,8-16l39.5-25.5C261.5,326.4,261.1,331.1,259.1,332.5z"/>
	<g>
		<path class="st7" d="M256.2,284.1c7.7-5.5,33.8-20.2,28.4-27.9l5.1-25.2c-5.5-7.6-59.6,29.8-64,32.9L127.4,331
			c-11,7.8-12.8,18.6-7.3,26.3l0,0c5.5,7.6,16.2,9.5,23.8,4L256.2,284.1z"/>
		<path class="st7" d="M320,372.1c8.4-3.7,10.8-15.9,6.6-22.8l0,0c-4.3-7-13.9-8.9-21.5-4.2l-104.4,63.1c-7.5,4.6-10.1,14-5.9,21
			l0,0c4.3,7,13.6,8.2,19.7,5l106-62.3"/>
	</g>
	<path class="st6" d="M297.1,350.3l-48.9,32.6c-5.8,3.4-46.7,25.8-42.4,23.1l106-65.9C310.6,341.6,298.7,349.2,297.1,350.3z"/>
	<path class="st7" d="M275.3,319.5c10.1-5,12.7-20,7-28.5l0,0c-5.6-8.5-17.5-10.3-26.6-4.2l-125.6,82.5c-9.1,6.1-11.9,17.7-6.2,26.2
		l0,0c5.6,8.4,17.1,9.4,24.5,5.2l127.5-81.7"/>
	<path class="st6" d="M246.2,293.6l-58.7,42.5c-6.9,4.5-56.4,33.8-51.2,30.4l127.4-86.2C262.4,282.3,248.2,292.1,246.2,293.6z"/>
	<path class="st7" d="M295,346.1c9.5-4.8,11.8-19.3,6.3-27.2l0,0c-5.5-7.9-16.8-9.6-25.4-3.6l-118.5,80.6c-8.6,5.9-11,17.1-5.6,25.1
		l0,0c5.5,7.9,16.4,8.8,23.4,4.5l120.2-79.7"/>
	<path class="st6" d="M266.8,321.9l-55.3,41.4c-6.5,4.3-53.1,33.1-48.3,29.7l120.1-84C282.1,310.9,268.7,320.5,266.8,321.9z"/>
	<path class="st4" d="M191.9,373.5c-9-5.6-33.1-29.9-27.6-38.9l0,0c5.6-9,17.3-11.7,26.3-6.2l69.2,42.3c9,5.6,13.4,14.1,7.8,23.1
		l0,0c-5.6,9-12.7,9.1-24.8,3.8L191.9,373.5z"/>
	<path class="st6" d="M220.1,350.7l50.3,35.8c0.3-8.9-3.7-11.6-8.9-14.8l-55.1-36.1C207.6,337.5,218,349.4,220.1,350.7z"/>
	<g>
		<path class="st4" d="M273.4,254l-17.2-14.5l3.7-29l-91.6-31.4l-87.2,93c0,0,23.4,36.8,46.9,58.6c23.5,21.8,65,43.3,65,43.3
			L273.4,254z"/>
		<path class="st4" d="M172.1,321c-9-5.6-11.7-17.3-6.2-26.3l0,0c5.6-9,17.3-11.7,26.3-6.2l98.1,60.9c9,5.6,11.8,17.3,6.2,26.3l0,0
			c-5.6,9-17.3,11.7-26.3,6.2L172.1,321z"/>
	</g>
	<path class="st6" d="M255.4,332.5l44,33.5c0.1-7.5-2.9-12.8-8-16l-39.5-25.5C253.1,326.4,253.4,331.1,255.4,332.5z"/>
	<path class="st4" d="M258.3,284.1c-7.6-5.5-33.8-20.2-28.4-27.9l-5.1-25.2c5.5-7.6,59.6,29.8,64,32.9L387,331
		c11,7.8,12.8,18.6,7.3,26.3l0,0c-5.5,7.6-16.2,9.5-23.8,4L258.3,284.1z"/>
	<g>
		<path class="st5" d="M369.3,353.4l6.9,4.8c4.8,3.5,11.9,2.1,15.6-3.2c3.7-5.3,2.8-12.3-2.1-15.7l-6.8-4.8c0,0-3.6,1.4-8,7.8
			C369.4,350.2,369.9,350.9,369.3,353.4z"/>
		<path class="st5" d="M316.9,317.8c-0.5-0.4-0.7-1.1-0.3-1.8l12.5-17.5c0.4-0.5,1.1-0.7,1.8-0.3l0,0c0.5,0.4,0.7,1.1,0.3,1.8
			l-12.5,17.5C318.2,318.1,317.4,318.2,316.9,317.8L316.9,317.8z"/>
		<path class="st5" d="M315.1,309.8c-0.5-0.3-0.6-1-0.2-1.5l6.2-8.7c0.3-0.5,1-0.6,1.5-0.3l0,0c0.5,0.4,0.6,1,0.2,1.5l-6.2,8.7
			C316.4,310,315.6,310.1,315.1,309.8L315.1,309.8z"/>
	</g>
	<path class="st4" d="M194.5,372.1c-8.4-3.7-10.8-15.9-6.6-22.8l0,0c4.3-7,13.9-8.9,21.5-4.2l104.4,63.1c7.5,4.6,10.1,14,5.9,21l0,0
		c-4.3,7-13.6,8.2-19.7,5l-105.9-62.3"/>
	<path class="st6" d="M217.4,350.3l48.9,32.6c5.8,3.4,46.7,25.8,42.4,23.1l-106-65.9C203.9,341.6,215.8,349.2,217.4,350.3z"/>
	<g>
		<path class="st5" d="M297.2,427.6l6.3,3.8c4.4,2.7,10.4,1,13.3-3.7c2.9-4.7,1.8-10.8-2.7-13.5l-6.2-3.8c0,0-3,1.5-6.5,7.2
			C297,424.8,297.5,425.3,297.2,427.6z"/>
		<path class="st5" d="M251.9,402c-0.5-0.3-0.6-0.9-0.3-1.4l10-15.8c0.3-0.5,1-0.6,1.4-0.3l0,0c0.5,0.3,0.6,1,0.3,1.4l-10,15.8
			C253,402.1,252.4,402.3,251.9,402L251.9,402z"/>
		<path class="st5" d="M250,395c-0.4-0.3-0.6-0.8-0.3-1.3l5-7.7c0.3-0.4,0.8-0.6,1.3-0.3l0,0c0.4,0.3,0.6,0.8,0.3,1.3l-5,7.8
			C251,395.2,250.4,395.3,250,395L250,395z"/>
	</g>
	<path class="st4" d="M239.2,319.5c-10.1-5-12.7-20-7-28.5l0,0c5.6-8.5,17.5-10.3,26.6-4.2l125.7,82.7c9.1,6.1,11.9,17.7,6.2,26.2
		l0,0c-5.6,8.4-17.1,9.4-24.5,5.2L238.7,319"/>
	<path class="st6" d="M268.4,293.6l58.7,42.5c6.9,4.5,56.4,33.8,51.2,30.4l-127.4-86.2C252.1,282.3,266.3,292.1,268.4,293.6z"/>
	<g>
		<path class="st5" d="M363,392.5l7.5,5c5.4,3.5,12.8,1.8,16.6-3.9s2.6-13.2-2.7-16.8l-7.5-5c0,0-3.8,1.8-8.4,8.7
			C362.9,389,363.5,389.7,363,392.5z"/>
		<path class="st5" d="M308.4,358.8c-0.6-0.4-0.7-1.2-0.3-1.9l13.1-19c0.4-0.6,1.2-0.7,1.9-0.3l0,0c0.6,0.4,0.7,1.2,0.3,1.9
			l-13.1,19C309.9,359.1,309,359.3,308.4,358.8L308.4,358.8z"/>
		<path class="st5" d="M306.5,350.2c-0.5-0.4-0.6-1.1-0.3-1.7l6.5-9.4c0.4-0.5,1.1-0.6,1.7-0.3l0,0c0.5,0.4,0.6,1.1,0.3,1.7
			l-6.5,9.4C307.7,350.4,307,350.5,306.5,350.2L306.5,350.2z"/>
	</g>
	<path class="st4" d="M219.5,346.1c-9.5-4.8-11.8-19.3-6.3-27.2l0,0c5.5-7.9,16.8-9.6,25.4-3.6L357,395.8c8.6,5.9,11,17.1,5.6,25.1
		l0,0c-5.5,7.9-16.4,8.8-23.4,4.5L219,345.8"/>
	<path class="st6" d="M247.6,321.9l55.2,41.4c6.6,4.3,53.2,33.1,48.3,29.7L231,309C232.4,310.9,245.8,320.5,247.6,321.9z"/>
	<g>
		<path class="st5" d="M336.3,417.6l7.1,4.8c5.1,3.5,12.1,1.9,15.9-3.5c3.7-5.4,2.7-12.6-2.4-16l-7.1-4.8c0,0-3.6,1.5-8,8
			C336.3,414.3,336.8,415,336.3,417.6z"/>
		<path class="st5" d="M284.8,384.7c-0.6-0.4-0.7-1.2-0.3-1.8l12.8-17.9c0.4-0.6,1.2-0.7,1.8-0.3l0,0c0.6,0.4,0.7,1.2,0.3,1.8
			l-12.8,17.9C286.1,385,285.4,385.1,284.8,384.7L284.8,384.7z"/>
		<path class="st5" d="M283,376.4c-0.5-0.3-0.6-1-0.2-1.5l6.3-8.9c0.3-0.5,1-0.6,1.5-0.3l0,0c0.5,0.4,0.6,1,0.3,1.5l-6.3,8.9
			C284.3,376.7,283.6,376.8,283,376.4L283,376.4z"/>
	</g>
	<g>
		<path class="st8" d="M268.6,280.9c-4.2-1.3-6.8-5.4-5.8-9.7c0.6-2.7-3.5-4-4.1-1.2c-1.5,6.7,2,13.1,8.6,15.1
			C269.9,285.8,271.3,281.7,268.6,280.9L268.6,280.9z"/>
		<path class="st8" d="M249,316.9c-7-2.9-10.2-10-7.8-17.2c0.8-2.6-3.3-3.5-4.2-0.8c-3,9,1.4,18.4,10.1,21.9
			C249.6,321.7,251.6,317.9,249,316.9L249,316.9z"/>
		<path class="st8" d="M225.4,341.2c-5.1-2-7.6-7.1-6-12.4c0.8-2.6-3.2-4.2-4-1.5c-2.4,7.4,1.1,15.1,8.5,18
			C226.4,346.2,227.9,342.2,225.4,341.2L225.4,341.2z"/>
		<path class="st8" d="M200.3,368.4c-3.7-1.5-5.8-5.4-4.4-9.3c0.9-2.6-2.9-4.5-3.8-2c-2.1,6,0.3,12.5,6.3,15.1
			C200.9,373.2,202.9,369.4,200.3,368.4L200.3,368.4z"/>
	</g>
	<path class="st9" d="M104.2,300.8l-84.3-65.6c-7.8-6.1-6.6-20.7,2.7-32.7l58.5-75.1c9.3-12,23.2-16.7,31.1-10.6l84.3,65.6
		C204.2,188.5,112.1,306.9,104.2,300.8z"/>
	<path class="st7" d="M195.9,228.9l30.9-21.2c0,0,3.9-4.7,19.2-5.9c24-1.8,71.8-12.8,71.8-12.8c29.4,8.8,26.8,34.9,26.8,34.9
		l-77,14.8c0,0-35.5-2.8-44.3,2.8c-21.5,13.4-32.1-8.7-32.1-8.7L195.9,228.9z"/>
	<path class="st5" d="M211.9,217.8L191.4,231c0,0,4.6,4.3,8.6,3.8C204.3,234.2,213.5,224.1,211.9,217.8z"/>
	<path class="st6" d="M199.1,237.6l36.9-9.8l34.8-4.3l-24.7-1.3c0,0-10.1-0.7-17.6,3.3C222.6,228.7,199.1,237.6,199.1,237.6z"/>
	<g>
		<path class="st5" d="M233.5,213.6c0.6-0.1,1-0.8,0.9-1.4l-1.3-6c-0.2-0.6-0.8-1-1.4-0.9l0,0c-0.6,0.1-1,0.8-0.9,1.4l1.3,6
			C232.2,213.4,232.9,213.8,233.5,213.6L233.5,213.6z"/>
		<path class="st5" d="M237.3,209.7c0.6-0.2,1-0.8,0.9-1.4l-0.6-3.2c-0.1-0.6-0.8-1-1.4-0.9l0,0c-0.6,0.2-1,0.8-0.9,1.4l0.6,3.2
			C236,209.4,236.7,209.8,237.3,209.7L237.3,209.7z"/>
	</g>
	<path class="st9" d="M418.1,300.8l84.3-65.6c7.8-6.1,6.6-20.7-2.7-32.7l-58.5-75.1c-9.3-12-23.2-16.7-31.1-10.6l-84.3,65.6
		C318.1,188.5,410.3,306.9,418.1,300.8z"/>
	<g>
		<path class="st10" d="M188.1,169.5L75.4,74.7c-40.1,39.9-67,93.1-73.7,152.4L87.3,299C95.9,305.6,196.7,176.1,188.1,169.5z"/>
		<path class="st10" d="M429.9,296.3l80.5-68.1c-6.4-59.4-33.1-112.8-73.2-152.9l-108.1,91.4C320.6,173.5,421.4,302.9,429.9,296.3z"
			/>
	</g>
	<line class="st11" x1="221.6" y1="121.3" x2="261.4" y2="121.3"/>
	<g>
		<path class="st2" d="M235.4,56.3c5-0.8,11.6-1.6,20-1.6c10.3,0,17.9,2.4,22.7,6.7c4.4,3.8,7.1,9.7,7.1,16.9
			c0,7.3-2.2,13.1-6.2,17.3c-5.5,5.9-14.5,8.9-24.7,8.9c-3.1,0-6-0.1-8.4-0.7v32.4h-10.4V56.3z M245.8,95.3c2.3,0.6,5.2,0.8,8.6,0.8
			c12.6,0,20.3-6.1,20.3-17.3c0-10.7-7.6-15.8-19.1-15.8c-4.6,0-8,0.4-9.8,0.8V95.3z"/>
	</g>
</g>
</svg>
