<?xml version="1.0"?>
<svg xmlns="http://www.w3.org/2000/svg" xmlns:xlink="http://www.w3.org/1999/xlink" version="1.1" id="Layer_1" x="0px" y="0px" viewBox="0 0 496.2 496.2" style="enable-background:new 0 0 496.2 496.2;" xml:space="preserve" width="512px" height="512px" class=""><g><path style="fill:#F0C454" d="M0,248.1C0,111.1,111.1,0,248.1,0s248.1,111.1,248.1,248.1S385.1,496.2,248.1,496.2S0,385.1,0,248.1z  " data-original="#FFBB00" class="" data-old_color="#FFBB00"/><g style="opacity:0.19;">
	<path d="M162.9,112.5c-8.6,0-15.5,6.9-15.5,15.5v248c0,8.6,6.9,15.5,15.5,15.5h178.2c8.6,0,15.5-6.9,15.5-15.5V184.3l-74.7-71.8   C281.9,112.5,162.9,112.5,162.9,112.5z" data-original="#000000" class=""/>
	<path d="M356.6,184.3h-59.2c-8.6,0-15.5-6.9-15.5-15.5v-56.3L356.6,184.3z" data-original="#000000" class=""/>
</g><path style="fill:#F5F5F5;" d="M159,108.6c-8.6,0-15.5,6.9-15.5,15.5v248c0,8.6,6.9,15.5,15.5,15.5h178.2c8.6,0,15.5-6.9,15.5-15.5  V180.4L278,108.6H159z" data-original="#F5F5F5" class=""/><path style="fill:#E1E1E1;" d="M352.7,180.4h-59.2c-8.6,0-15.5-6.9-15.5-15.5v-56.3L352.7,180.4z" data-original="#E1E1E1"/><rect x="187.4" y="148.6" style="fill:#598DE0" width="31.4" height="78.6" data-original="#007883" class="" data-old_color="#007883"/><rect x="183.4" y="148.6" style="fill:#0E5066;" width="3.9" height="78.6" data-original="#0E5066"/><rect x="222.7" y="172.1" style="fill:#127899;" width="7.9" height="55" data-original="#127899" class=""/><rect x="230.6" y="172.1" style="fill:#8BA9D8" width="23.6" height="55" data-original="#00ADBB" class="" data-old_color="#00ADBB"/><rect x="258.1" y="187.8" style="fill:#1A8BB3;" width="7.9" height="39.3" data-original="#1A8BB3" class=""/><rect x="265.9" y="187.8" style="fill:#BAC6DA" width="19.6" height="39.3" data-original="#0FBCD3" class="" data-old_color="#0FBCD3"/><polygon style="fill:#95C7C3;" points="292,211.4 297.4,211.4 297.4,227.1 289.5,227.1 289.5,211.4 290.6,211.4 " data-original="#95C7C3" class=""/><polygon style="fill:#C9D8D7" points="315.2,211.4 317,211.4 317,227.1 297.4,227.1 297.4,211.4 " data-original="#A2D8D4" class="active-path" data-old_color="#A2D8D4"/><g>
	<rect x="159.9" y="246.8" style="fill:#E6E6E6;" width="62.9" height="7.9" data-original="#E6E6E6" class=""/>
	<rect x="159.9" y="266.4" style="fill:#E6E6E6;" width="82.5" height="11.8" data-original="#E6E6E6" class=""/>
	<rect x="159.9" y="286.1" style="fill:#E6E6E6;" width="82.5" height="11.8" data-original="#E6E6E6" class=""/>
	<rect x="159.9" y="309.6" style="fill:#E6E6E6;" width="62.9" height="11.8" data-original="#E6E6E6" class=""/>
	<rect x="159.9" y="329.3" style="fill:#E6E6E6;" width="82.5" height="11.8" data-original="#E6E6E6" class=""/>
	<rect x="159.9" y="352.9" style="fill:#E6E6E6;" width="82.5" height="7.9" data-original="#E6E6E6" class=""/>
	<rect x="254.1" y="246.8" style="fill:#E6E6E6;" width="62.9" height="7.9" data-original="#E6E6E6" class=""/>
	<rect x="254.1" y="266.4" style="fill:#E6E6E6;" width="82.5" height="11.8" data-original="#E6E6E6" class=""/>
	<rect x="254.1" y="286.1" style="fill:#E6E6E6;" width="82.5" height="11.8" data-original="#E6E6E6" class=""/>
	<rect x="254.1" y="309.6" style="fill:#E6E6E6;" width="62.9" height="11.8" data-original="#E6E6E6" class=""/>
	<rect x="254.1" y="329.3" style="fill:#E6E6E6;" width="82.5" height="11.8" data-original="#E6E6E6" class=""/>
	<rect x="254.1" y="352.9" style="fill:#E6E6E6;" width="82.5" height="7.9" data-original="#E6E6E6" class=""/>
</g></g> </svg>
