<?xml version="1.0"?>
<svg xmlns="http://www.w3.org/2000/svg" xmlns:xlink="http://www.w3.org/1999/xlink" version="1.1" id="Layer_1" x="0px" y="0px" viewBox="0 0 496.159 496.159" style="enable-background:new 0 0 496.159 496.159;" xml:space="preserve" width="512px" height="512px" class=""><g><path style="fill:#EFC454" d="M248.083,0.003C111.071,0.003,0,111.063,0,248.085c0,137.001,111.07,248.07,248.083,248.07  c137.006,0,248.076-111.069,248.076-248.07C496.159,111.062,385.089,0.003,248.083,0.003z" data-original="#4ABC96" class="" data-old_color="#4ABC96"/><g>
	<path style="fill:#338FE4" d="M187.284,259.746c-18.285-7.101-31.055-31.166-31.055-58.525c0-24.79,10.32-46.855,26.291-56.213   c3.537-2.071,4.724-6.617,2.651-10.153c-2.073-3.535-6.619-4.724-10.153-2.651c-20.43,11.97-33.63,39.061-33.63,69.018   c0,33.87,16.285,62.948,40.524,72.36c0.883,0.342,1.791,0.504,2.685,0.504c2.973,0,5.778-1.798,6.919-4.736   C192.998,265.528,191.104,261.228,187.284,259.746z" data-original="#F3F4F5" class="active-path" data-old_color="#F3F4F5"/>
	<path style="fill:#338FE4" d="M151.413,290.691c-28.47-11.054-48.353-48.127-48.353-90.154c0-38.019,16.003-71.963,40.771-86.475   c3.536-2.071,4.724-6.617,2.651-10.152c-2.071-3.537-6.619-4.725-10.152-2.652c-29.226,17.123-48.11,56.093-48.11,99.279   c0,48.009,23.776,90.77,57.822,103.988c0.882,0.342,1.789,0.504,2.684,0.504c2.973,0,5.778-1.798,6.918-4.736   C157.128,296.473,155.233,292.173,151.413,290.691z" data-original="#F3F4F5" class="active-path" data-old_color="#F3F4F5"/>
	<path style="fill:#338FE4" d="M321.142,132.203c-3.534-2.072-8.08-0.884-10.153,2.651c-2.073,3.536-0.885,8.082,2.651,10.153   c15.971,9.358,26.291,31.424,26.291,56.213c0,27.36-12.77,51.425-31.055,58.525c-3.82,1.482-5.714,5.782-4.231,9.603   c1.14,2.938,3.946,4.736,6.918,4.736c0.894,0,1.801-0.162,2.685-0.504c24.239-9.412,40.524-38.49,40.524-72.36   C354.771,171.264,341.572,144.173,321.142,132.203z" data-original="#F3F4F5" class="active-path" data-old_color="#F3F4F5"/>
	<path style="fill:#338FE4" d="M359.83,101.258c-3.534-2.073-8.082-0.884-10.152,2.652c-2.073,3.535-0.885,8.081,2.651,10.152   c24.768,14.512,40.771,48.456,40.771,86.475c0,42.027-19.883,79.1-48.353,90.154c-3.82,1.482-5.715,5.782-4.231,9.603   c1.14,2.938,3.945,4.736,6.918,4.736c0.895,0,1.802-0.163,2.684-0.504c34.046-13.219,57.822-55.979,57.822-103.988   C407.94,157.351,389.056,118.381,359.83,101.258z" data-original="#F3F4F5" class="active-path" data-old_color="#F3F4F5"/>
	<path style="fill:#338FE4" d="M251.088,191.345c-8.271,0-14.999,6.728-14.999,14.998v201.578c0,8.27,6.728,14.998,14.999,14.998   c8.27,0,14.998-6.728,14.998-14.998V206.343C266.085,198.073,259.357,191.345,251.088,191.345z" data-original="#F3F4F5" class="active-path" data-old_color="#F3F4F5"/>
	<circle style="fill:#338FE4" cx="251.09" cy="206.339" r="40.07" data-original="#F3F4F5" class="active-path" data-old_color="#F3F4F5"/>
</g></g> </svg>
