<?xml version="1.0"?>
<svg xmlns="http://www.w3.org/2000/svg" xmlns:xlink="http://www.w3.org/1999/xlink" version="1.1" id="Layer_1" x="0px" y="0px" viewBox="0 0 473.931 473.931" style="enable-background:new 0 0 473.931 473.931;" xml:space="preserve" width="512px" height="512px" class=""><g><circle style="fill:#F0C454" cx="236.966" cy="236.966" r="236.966" data-original="#6EC2CB" class="" data-old_color="#6EC2CB"/><rect x="64.497" y="336.758" style="fill:#494846" width="289.313" height="17.156" data-original="#E79E2D" class="" data-old_color="#E79E2D"/><polygon style="fill:#DCDBD9" points="353.806,337.293 64.497,337.293 115.983,287.184 405.292,287.184 " data-original="#F2BE3E" class="" data-old_color="#F2BE3E"/><polygon style="fill:#494846" points="353.806,337.293 353.649,353.843 405.135,303.734 405.292,287.184 " data-original="#E79E2D" class="" data-old_color="#E79E2D"/><polygon style="fill:#5A8DE0" points="249.347,84.758 249.347,74.704 246.807,74.712 187.294,104.736 203.181,104.732   243.016,84.758 " data-original="#357180" class="" data-old_color="#357180"/><polygon style="fill:#FFFFFF;" points="287.913,84.747 243.237,84.747 203.181,104.807 250.395,104.807 " data-original="#FFFFFF"/><polygon style="fill:#5A8DE0" points="308.34,73.252 250.698,104.732 250.698,321.593 308.34,284.295 " data-original="#357180" class="" data-old_color="#357180"/><g>
	<rect x="186.706" y="104.732" style="fill:#134492" width="63.984" height="216.865" data-original="#5E8492" class="active-path" data-old_color="#5E8492"/>
	<polygon style="fill:#134492" points="308.534,73.252 306.757,73.383 245.553,104.732 250.672,104.676  " data-original="#5E8492" class="active-path" data-old_color="#5E8492"/>
	<polygon style="fill:#134492" points="246.807,74.712 186.706,104.732 191.833,104.736 249.295,74.704  " data-original="#5E8492" class="active-path" data-old_color="#5E8492"/>
</g><polygon style="fill:#577D87;" points="249.347,74.704 190.822,104.736 194.13,104.736 249.343,76.485 " data-original="#577D87"/><g>
	<polygon style="fill:#DDDDDC" points="213.669,104.747 210.496,104.747 245.894,84.863 249.527,84.867  " data-original="#DDDDDC" class="" data-old_color="#DDDDDC"/>
	<polygon style="fill:#DDDDDC" points="226.313,104.747 223.136,104.747 258.533,84.863 262.166,84.867  " data-original="#DDDDDC" class="" data-old_color="#DDDDDC"/>
	<polygon style="fill:#DDDDDC" points="239.417,104.747 236.24,104.747 271.637,84.863 275.27,84.867  " data-original="#DDDDDC" class="" data-old_color="#DDDDDC"/>
</g><rect x="191.84" y="113.039" style="fill:#5A8DE0" width="53.784" height="33.1" data-original="#357180" class="" data-old_color="#357180"/><rect x="196.255" y="117.166" style="fill:#FFFFFF;" width="44.939" height="24.823" data-original="#FFFFFF"/><g>
	<circle style="fill:#5A8DE0" cx="217.583" cy="194.089" r="16.55" data-original="#357180" class="" data-old_color="#357180"/>
	<circle style="fill:#5A8DE0" cx="217.583" cy="263.981" r="16.55" data-original="#357180" class="" data-old_color="#357180"/>
</g></g> </svg>
