<?xml version="1.0"?>
<svg xmlns="http://www.w3.org/2000/svg" xmlns:xlink="http://www.w3.org/1999/xlink" version="1.1" id="Layer_1" x="0px" y="0px" viewBox="0 0 473.931 473.931" style="enable-background:new 0 0 473.931 473.931;" xml:space="preserve" width="512px" height="512px" class=""><g><circle style="fill:#F0C454" cx="236.966" cy="236.966" r="236.966" data-original="#40BCA3" class="" data-old_color="#40BCA3"/><path style="fill:#328FE4" d="M366.618,358.408c0,23.064-4.774,34.802-27.839,34.802H141.584  c-23.064,0-27.839-11.738-27.839-34.802V131.051c0-23.06,4.774-34.798,27.839-34.798h197.194c23.064,0,27.839,11.738,27.839,34.798  V358.408z" data-original="#67B8CB" class="active-path" data-old_color="#67B8CB"/><path style="fill:#FFFFFF;" d="M363.112,355.258c0,22.424-4.643,33.837-27.064,33.837H144.32c-22.424,0-27.068-11.412-27.068-33.837  V134.209c0-22.424,4.644-33.837,27.068-33.837h191.724c22.421,0,27.064,11.412,27.064,33.837v221.048H363.112z" data-original="#FFFFFF" class=""/><rect x="281.006" y="132.518" style="fill:#F9F29A;" width="55.689" height="62.027" data-original="#F9F29A"/><g>
	<rect x="142.075" y="132.376" style="fill:#F4E028;" width="121.802" height="11.843" data-original="#F4E028"/>
	<rect x="142.075" y="150.119" style="fill:#F4E028;" width="121.802" height="5.994" data-original="#F4E028"/>
	<rect x="142.075" y="160.252" style="fill:#F4E028;" width="121.802" height="5.994" data-original="#F4E028"/>
	<rect x="142.075" y="170.404" style="fill:#F4E028;" width="121.802" height="5.994" data-original="#F4E028"/>
	<rect x="142.075" y="180.54" style="fill:#F4E028;" width="121.802" height="5.991" data-original="#F4E028"/>
</g><g>
	<rect x="142.075" y="350.266" style="fill:#328FE4" width="196.757" height="6.877" data-original="#67B8CB" class="active-path" data-old_color="#67B8CB"/>
	<rect x="142.075" y="364.223" style="fill:#328FE4" width="196.757" height="6.881" data-original="#67B8CB" class="active-path" data-old_color="#67B8CB"/>
	<rect x="142.075" y="335.973" style="fill:#328FE4" width="196.757" height="6.877" data-original="#67B8CB" class="active-path" data-old_color="#67B8CB"/>
</g><rect x="142.898" y="215.552" style="fill:#DBF0F5;" width="194.171" height="111.512" data-original="#DBF0F5" class=""/><path style="fill:#6CC077;" d="M334.902,302.955l-26.271-26.275c0,0-7.528-9.702-14.514-9.306c-6.309,0.363-13.642,8.236-15.049,9.8  l-8.808-8.808c0,0-8.812-11.375-17.014-10.911c-8.198,0.468-17.983,11.88-17.983,11.88l-2.694,2.69l-16.576-16.583  c0,0-10.844-13.979-20.916-13.407c-10.065,0.569-22.099,14.597-22.099,14.597l-27.906,27.902l0.022,40.523l189.797-0.004  L334.902,302.955z" data-original="#6CC077" class=""/><g>
	<path style="fill:#328FE4" d="M253.066,239.226c0.03-0.172,0.138-0.322,0.138-0.501c0-2.728-2.949-4.935-6.586-4.935   c-0.479,0-0.898,0.131-1.351,0.206c-1.089-1.452-3.076-2.47-5.459-2.47c-3.076,0-5.527,1.676-6.107,3.861   c-2.993,0.591-5.235,2.544-5.235,4.969c0,2.297,2.002,4.191,4.752,4.898c0.943,2.095,3.495,3.633,6.593,3.633   c2.814,0,5.197-1.261,6.331-3.046c0.715,0.236,1.508,0.382,2.35,0.382c3.229,0,5.845-1.957,5.845-4.385   C254.335,240.835,253.819,239.963,253.066,239.226z" data-original="#67B8CB" class="active-path" data-old_color="#67B8CB"/>
	<path style="fill:#328FE4" d="M283.831,245.426c-0.015-0.123-0.094-0.228-0.094-0.355c0-1.934,2.099-3.51,4.677-3.51   c0.341,0,0.636,0.097,0.962,0.15c0.775-1.033,2.193-1.759,3.873-1.759c2.189,0,3.929,1.19,4.337,2.743   c2.125,0.419,3.723,1.807,3.723,3.528c0,1.639-1.422,2.978-3.375,3.48c-0.662,1.485-2.477,2.582-4.685,2.582   c-1.998,0-3.686-0.898-4.494-2.17c-0.513,0.176-1.078,0.273-1.669,0.273c-2.294,0-4.153-1.392-4.153-3.117   C282.929,246.571,283.3,245.95,283.831,245.426z" data-original="#67B8CB" class="active-path" data-old_color="#67B8CB"/>
</g><path style="fill:#F4E028;" d="M312.804,172.162v-2.907c4.269-1.848,7.121-6.687,7.641-12.625c0.771-0.34,1.343-1.493,1.343-2.926  c0-1.643-0.745-2.963-1.688-3.046c-1.313-5.785-5.474-8.771-11.139-8.771c-5.676,0-9.886,2.986-11.218,8.771  c-0.935,0.079-1.691,1.399-1.691,3.046c0,1.433,0.576,2.586,1.355,2.926c0.513,5.901,3.379,10.724,7.626,12.595v2.941  c-13.13,0.195-19.341,1.699-19.341,11.3v10.926h46.619v-10.926C332.313,173.823,326.023,172.345,312.804,172.162z" data-original="#F4E028"/></g> </svg>
