<?xml version="1.0"?>
<svg xmlns="http://www.w3.org/2000/svg" xmlns:xlink="http://www.w3.org/1999/xlink" version="1.1" id="Layer_1" x="0px" y="0px" viewBox="0 0 473.931 473.931" style="enable-background:new 0 0 473.931 473.931;" xml:space="preserve" width="512px" height="512px" class=""><g><circle style="fill:#EFC454" cx="236.966" cy="236.966" r="236.966" data-original="#E79E2D" class="" data-old_color="#E79E2D"/><path style="fill:#338FE4" d="M388.488,374.928H84.627V120.829c0-11.304,9.164-20.464,20.467-20.464h262.93  c11.304,0,20.467,9.156,20.467,20.464v254.099H388.488z" data-original="#868787" class="" data-old_color="#868787"/><g>
	<path style="fill:#E1E0E0;" d="M329.312,326.682c-1.373,0-2.488-1.115-2.488-2.488v-15.356c0-1.373,1.115-2.492,2.488-2.492h9.048   c1.373,0,2.488,1.119,2.488,2.492v15.356c0,1.373-1.115,2.488-2.488,2.488L329.312,326.682L329.312,326.682z" data-original="#E1E0E0" class=""/>
	<path style="fill:#E1E0E0;" d="M355.752,326.682c-1.373,0-2.492-1.115-2.492-2.488v-15.356c0-1.373,1.119-2.492,2.492-2.492h9.044   c1.373,0,2.488,1.119,2.488,2.492v15.356c0,1.373-1.115,2.488-2.488,2.488L355.752,326.682L355.752,326.682z" data-original="#E1E0E0" class=""/>
	<path style="fill:#E1E0E0;" d="M329.312,273.811c-1.373,0-2.488-1.111-2.488-2.485v-15.352c0-1.373,1.115-2.492,2.488-2.492h9.048   c1.373,0,2.488,1.119,2.488,2.492v15.356c0,1.373-1.115,2.485-2.488,2.485h-9.048V273.811z" data-original="#E1E0E0" class=""/>
	<path style="fill:#E1E0E0;" d="M355.752,273.811c-1.373,0-2.492-1.111-2.492-2.485v-15.352c0-1.373,1.119-2.492,2.492-2.492h9.044   c1.373,0,2.488,1.119,2.488,2.492v15.356c0,1.373-1.115,2.485-2.488,2.485h-9.044V273.811z" data-original="#E1E0E0" class=""/>
	<path style="fill:#E1E0E0;" d="M329.312,220.943c-1.373,0-2.488-1.115-2.488-2.488v-15.352c0-1.377,1.115-2.492,2.488-2.492h9.048   c1.373,0,2.488,1.115,2.488,2.492v15.352c0,1.373-1.115,2.488-2.488,2.488H329.312z" data-original="#E1E0E0" class=""/>
	<path style="fill:#E1E0E0;" d="M355.752,220.943c-1.373,0-2.492-1.115-2.492-2.488v-15.352c0-1.377,1.119-2.492,2.492-2.492h9.044   c1.373,0,2.488,1.115,2.488,2.492v15.352c0,1.373-1.115,2.488-2.488,2.488H355.752z" data-original="#E1E0E0" class=""/>
	<path style="fill:#E1E0E0;" d="M329.312,168.076c-1.373,0-2.488-1.119-2.488-2.492v-15.352c0-1.373,1.115-2.485,2.488-2.485h9.048   c1.373,0,2.488,1.111,2.488,2.485v15.356c0,1.373-1.115,2.492-2.488,2.492h-9.048V168.076z" data-original="#E1E0E0" class=""/>
	<path style="fill:#E1E0E0;" d="M355.752,168.076c-1.373,0-2.492-1.119-2.492-2.492v-15.352c0-1.373,1.119-2.485,2.492-2.485h9.044   c1.373,0,2.488,1.111,2.488,2.485v15.356c0,1.373-1.115,2.492-2.488,2.492h-9.044V168.076z" data-original="#E1E0E0" class=""/>
	<path style="fill:#E1E0E0;" d="M255.255,168.076c-1.373,0-2.488-1.119-2.488-2.492v-15.352c0-1.373,1.115-2.485,2.488-2.485h9.048   c1.373,0,2.488,1.111,2.488,2.485v15.356c0,1.373-1.115,2.492-2.488,2.492h-9.048V168.076z" data-original="#E1E0E0" class=""/>
	<path style="fill:#E1E0E0;" d="M281.695,168.076c-1.373,0-2.492-1.119-2.492-2.492v-15.352c0-1.373,1.119-2.485,2.492-2.485h9.044   c1.373,0,2.488,1.111,2.488,2.485v15.356c0,1.373-1.115,2.492-2.488,2.492h-9.044V168.076z" data-original="#E1E0E0" class=""/>
	<path style="fill:#E1E0E0;" d="M255.255,326.682c-1.373,0-2.488-1.115-2.488-2.488v-15.356c0-1.373,1.115-2.492,2.488-2.492h9.048   c1.373,0,2.488,1.119,2.488,2.492v15.356c0,1.373-1.115,2.488-2.488,2.488L255.255,326.682L255.255,326.682z" data-original="#E1E0E0" class=""/>
	<path style="fill:#E1E0E0;" d="M281.695,326.682c-1.373,0-2.492-1.115-2.492-2.488v-15.356c0-1.373,1.119-2.492,2.492-2.492h9.044   c1.373,0,2.488,1.119,2.488,2.492v15.356c0,1.373-1.115,2.488-2.488,2.488L281.695,326.682L281.695,326.682z" data-original="#E1E0E0" class=""/>
	<path style="fill:#E1E0E0;" d="M255.255,273.811c-1.373,0-2.488-1.111-2.488-2.485v-15.352c0-1.373,1.115-2.492,2.488-2.492h9.048   c1.373,0,2.488,1.119,2.488,2.492v15.356c0,1.373-1.115,2.485-2.488,2.485h-9.048V273.811z" data-original="#E1E0E0" class=""/>
	<path style="fill:#E1E0E0;" d="M281.695,273.811c-1.373,0-2.492-1.111-2.492-2.485v-15.352c0-1.373,1.119-2.492,2.492-2.492h9.044   c1.373,0,2.488,1.119,2.488,2.492v15.356c0,1.373-1.115,2.485-2.488,2.485h-9.044V273.811z" data-original="#E1E0E0" class=""/>
	<path style="fill:#E1E0E0;" d="M255.255,220.943c-1.373,0-2.488-1.115-2.488-2.488v-15.352c0-1.377,1.115-2.492,2.488-2.492h9.048   c1.373,0,2.488,1.115,2.488,2.492v15.352c0,1.373-1.115,2.488-2.488,2.488H255.255z" data-original="#E1E0E0" class=""/>
	<path style="fill:#E1E0E0;" d="M281.695,220.943c-1.373,0-2.492-1.115-2.492-2.488v-15.352c0-1.377,1.119-2.492,2.492-2.492h9.044   c1.373,0,2.488,1.115,2.488,2.492v15.352c0,1.373-1.115,2.488-2.488,2.488H281.695z" data-original="#E1E0E0" class=""/>
	<path style="fill:#E1E0E0;" d="M182.493,326.682c-1.373,0-2.488-1.115-2.488-2.488v-15.356c0-1.373,1.115-2.492,2.488-2.492h9.044   c1.373,0,2.492,1.119,2.492,2.492v15.356c0,1.373-1.119,2.488-2.492,2.488L182.493,326.682L182.493,326.682z" data-original="#E1E0E0" class=""/>
	<path style="fill:#E1E0E0;" d="M208.929,326.682c-1.373,0-2.492-1.115-2.492-2.488v-15.356c0-1.373,1.119-2.492,2.492-2.492h9.04   c1.373,0,2.492,1.119,2.492,2.492v15.356c0,1.373-1.119,2.488-2.492,2.488L208.929,326.682L208.929,326.682z" data-original="#E1E0E0" class=""/>
	<path style="fill:#E1E0E0;" d="M182.493,273.811c-1.373,0-2.488-1.111-2.488-2.485v-15.352c0-1.373,1.115-2.492,2.488-2.492h9.044   c1.373,0,2.492,1.119,2.492,2.492v15.356c0,1.373-1.119,2.485-2.492,2.485h-9.044V273.811z" data-original="#E1E0E0" class=""/>
	<path style="fill:#E1E0E0;" d="M208.929,273.811c-1.373,0-2.492-1.111-2.492-2.485v-15.352c0-1.373,1.119-2.492,2.492-2.492h9.04   c1.373,0,2.492,1.119,2.492,2.492v15.356c0,1.373-1.119,2.485-2.492,2.485h-9.04V273.811z" data-original="#E1E0E0" class=""/>
	<path style="fill:#E1E0E0;" d="M182.493,220.943c-1.373,0-2.488-1.115-2.488-2.488v-15.352c0-1.377,1.115-2.492,2.488-2.492h9.044   c1.373,0,2.492,1.115,2.492,2.492v15.352c0,1.373-1.119,2.488-2.492,2.488H182.493z" data-original="#E1E0E0" class=""/>
	<path style="fill:#E1E0E0;" d="M208.929,220.943c-1.373,0-2.492-1.115-2.492-2.488v-15.352c0-1.377,1.119-2.492,2.492-2.492h9.04   c1.373,0,2.492,1.115,2.492,2.492v15.352c0,1.373-1.119,2.488-2.492,2.488H208.929z" data-original="#E1E0E0" class=""/>
	<path style="fill:#E1E0E0;" d="M182.493,168.076c-1.373,0-2.488-1.119-2.488-2.492v-15.352c0-1.373,1.115-2.485,2.488-2.485h9.044   c1.373,0,2.492,1.111,2.492,2.485v15.356c0,1.373-1.119,2.492-2.492,2.492h-9.044V168.076z" data-original="#E1E0E0" class=""/>
	<path style="fill:#E1E0E0;" d="M208.929,168.076c-1.373,0-2.492-1.119-2.492-2.492v-15.352c0-1.373,1.119-2.485,2.492-2.485h9.04   c1.373,0,2.492,1.111,2.492,2.485v15.356c0,1.373-1.119,2.492-2.492,2.492h-9.04V168.076z" data-original="#E1E0E0" class=""/>
	<path style="fill:#E1E0E0;" d="M109.794,326.682c-1.373,0-2.488-1.115-2.488-2.488v-15.356c0-1.373,1.115-2.492,2.488-2.492h9.044   c1.373,0,2.492,1.119,2.492,2.492v15.356c0,1.373-1.119,2.488-2.492,2.488L109.794,326.682L109.794,326.682z" data-original="#E1E0E0" class=""/>
	<path style="fill:#E1E0E0;" d="M136.234,326.682c-1.373,0-2.492-1.115-2.492-2.488v-15.356c0-1.373,1.119-2.492,2.492-2.492h9.04   c1.373,0,2.492,1.119,2.492,2.492v15.356c0,1.373-1.119,2.488-2.492,2.488L136.234,326.682L136.234,326.682z" data-original="#E1E0E0" class=""/>
	<path style="fill:#E1E0E0;" d="M109.794,273.811c-1.373,0-2.488-1.111-2.488-2.485v-15.352c0-1.373,1.115-2.492,2.488-2.492h9.044   c1.373,0,2.492,1.119,2.492,2.492v15.356c0,1.373-1.119,2.485-2.492,2.485h-9.044V273.811z" data-original="#E1E0E0" class=""/>
	<path style="fill:#E1E0E0;" d="M136.234,273.811c-1.373,0-2.492-1.111-2.492-2.485v-15.352c0-1.373,1.119-2.492,2.492-2.492h9.04   c1.373,0,2.492,1.119,2.492,2.492v15.356c0,1.373-1.119,2.485-2.492,2.485h-9.04V273.811z" data-original="#E1E0E0" class=""/>
	<path style="fill:#E1E0E0;" d="M109.794,220.943c-1.373,0-2.488-1.115-2.488-2.488v-15.352c0-1.377,1.115-2.492,2.488-2.492h9.044   c1.373,0,2.492,1.115,2.492,2.492v15.352c0,1.373-1.119,2.488-2.492,2.488H109.794z" data-original="#E1E0E0" class=""/>
	<path style="fill:#E1E0E0;" d="M136.234,220.943c-1.373,0-2.492-1.115-2.492-2.488v-15.352c0-1.377,1.119-2.492,2.492-2.492h9.04   c1.373,0,2.492,1.115,2.492,2.492v15.352c0,1.373-1.119,2.488-2.492,2.488H136.234z" data-original="#E1E0E0" class=""/>
	<path style="fill:#E1E0E0;" d="M109.794,168.076c-1.373,0-2.488-1.119-2.488-2.492v-15.352c0-1.373,1.115-2.485,2.488-2.485h9.044   c1.373,0,2.492,1.111,2.492,2.485v15.356c0,1.373-1.119,2.492-2.492,2.492h-9.044V168.076z" data-original="#E1E0E0" class=""/>
	<path style="fill:#E1E0E0;" d="M136.234,168.076c-1.373,0-2.492-1.119-2.492-2.492v-15.352c0-1.373,1.119-2.485,2.492-2.485h9.04   c1.373,0,2.492,1.111,2.492,2.485v15.356c0,1.373-1.119,2.492-2.492,2.492h-9.04V168.076z" data-original="#E1E0E0" class=""/>
</g><path style="fill:#E1E0E0" d="M84.627,120.829c0-11.304,9.164-20.464,20.467-20.464h262.93c11.304,0,20.467,9.156,20.467,20.464  H84.627z" data-original="#787878" class="active-path" data-old_color="#787878"/><g>
	<path style="fill:#E1E0E0;" d="M182.531,367.609c-1.373,0-2.488-1.111-2.488-2.485v-15.356c0-1.373,1.115-2.492,2.488-2.492h35.476   c1.373,0,2.492,1.119,2.492,2.492v15.356c0,1.373-1.119,2.485-2.492,2.485L182.531,367.609L182.531,367.609z" data-original="#E1E0E0" class=""/>
	<path style="fill:#E1E0E0;" d="M255.255,367.609c-1.373,0-2.488-1.111-2.488-2.485v-15.356c0-1.373,1.115-2.492,2.488-2.492h35.479   c1.373,0,2.488,1.119,2.488,2.492v15.356c0,1.373-1.115,2.485-2.488,2.485L255.255,367.609L255.255,367.609z" data-original="#E1E0E0" class=""/>
</g><path style="fill:#4D4C4C;" d="M228.577,349.181c0-1.081,0.879-1.964,1.968-1.964h12.131c1.089,0,1.968,0.883,1.968,1.964v25.747  h-16.071v-25.747H228.577z" data-original="#4D4C4C"/><circle style="fill:#CDCCCB;" cx="231.091" cy="361.155" r="0.995" data-original="#CDCCCB" class=""/></g> </svg>
