<?xml version="1.0"?>
<svg xmlns="http://www.w3.org/2000/svg" xmlns:xlink="http://www.w3.org/1999/xlink" version="1.1" id="Layer_1" x="0px" y="0px" viewBox="0 0 473.931 473.931" style="enable-background:new 0 0 473.931 473.931;" xml:space="preserve" width="512px" height="512px" class=""><g><circle style="fill:#F0C454" cx="236.966" cy="236.966" r="236.966" data-original="#357180" class="" data-old_color="#357180"/><path style="fill:#328FE4" d="M364.818,375.613c0,22.297-18.08,40.381-40.381,40.381H156.189c-22.301,0-40.381-18.08-40.381-40.381  v-262.47c0-22.297,18.08-40.381,40.381-40.381h168.248c22.301,0,40.381,18.08,40.381,40.381V375.613z" data-original="#202121" class="" data-old_color="#202121"/><g>
	<path style="fill:#111010" d="M177.071,380.14c0,3.076-2.488,5.568-5.564,5.568h-23.206c-3.076,0-5.571-2.492-5.571-5.568v-23.184   c0-3.079,2.496-5.571,5.571-5.571h23.206c3.076,0,5.564,2.496,5.564,5.571V380.14z" data-original="#4E4E4E" class="" data-old_color="#4E4E4E"/>
	<path style="fill:#111010" d="M217.116,380.14c0,3.076-2.488,5.568-5.56,5.568h-23.21c-3.076,0-5.571-2.492-5.571-5.568v-23.184   c0-3.079,2.496-5.571,5.571-5.571h23.21c3.072,0,5.56,2.496,5.56,5.571V380.14z" data-original="#4E4E4E" class="" data-old_color="#4E4E4E"/>
	<path style="fill:#111010" d="M257.16,380.14c0,3.076-2.488,5.568-5.56,5.568h-23.21c-3.072,0-5.571-2.492-5.571-5.568v-23.184   c0-3.079,2.499-5.571,5.571-5.571h23.21c3.072,0,5.56,2.496,5.56,5.571V380.14z" data-original="#4E4E4E" class="" data-old_color="#4E4E4E"/>
	<path style="fill:#111010" d="M177.071,340.092c0,3.076-2.488,5.568-5.564,5.568h-23.206c-3.076,0-5.571-2.496-5.571-5.568   v-23.184c0-3.076,2.496-5.568,5.571-5.568h23.206c3.076,0,5.564,2.496,5.564,5.568V340.092z" data-original="#4E4E4E" class="" data-old_color="#4E4E4E"/>
	<path style="fill:#111010" d="M217.116,340.092c0,3.076-2.488,5.568-5.56,5.568h-23.21c-3.076,0-5.571-2.496-5.571-5.568v-23.184   c0-3.076,2.496-5.568,5.571-5.568h23.21c3.072,0,5.56,2.496,5.56,5.568V340.092z" data-original="#4E4E4E" class="" data-old_color="#4E4E4E"/>
	<path style="fill:#111010" d="M257.16,340.092c0,3.076-2.488,5.568-5.56,5.568h-23.21c-3.072,0-5.571-2.496-5.571-5.568v-23.184   c0-3.076,2.499-5.568,5.571-5.568h23.21c3.072,0,5.56,2.496,5.56,5.568V340.092z" data-original="#4E4E4E" class="" data-old_color="#4E4E4E"/>
	<path style="fill:#111010" d="M177.071,300.048c0,3.076-2.488,5.568-5.564,5.568h-23.206c-3.076,0-5.571-2.496-5.571-5.568   v-23.184c0-3.076,2.496-5.568,5.571-5.568h23.206c3.076,0,5.564,2.496,5.564,5.568V300.048z" data-original="#4E4E4E" class="" data-old_color="#4E4E4E"/>
	<path style="fill:#111010" d="M217.116,300.048c0,3.076-2.488,5.568-5.56,5.568h-23.21c-3.076,0-5.571-2.496-5.571-5.568v-23.184   c0-3.076,2.496-5.568,5.571-5.568h23.21c3.072,0,5.56,2.496,5.56,5.568V300.048z" data-original="#4E4E4E" class="" data-old_color="#4E4E4E"/>
	<path style="fill:#111010" d="M257.16,300.048c0,3.076-2.488,5.568-5.56,5.568h-23.21c-3.072,0-5.571-2.496-5.571-5.568v-23.184   c0-3.076,2.499-5.568,5.571-5.568h23.21c3.072,0,5.56,2.496,5.56,5.568V300.048z" data-original="#4E4E4E" class="" data-old_color="#4E4E4E"/>
	<path style="fill:#111010" d="M177.071,260.004c0,3.076-2.488,5.568-5.564,5.568h-23.206c-3.076,0-5.571-2.496-5.571-5.568V236.82   c0-3.076,2.496-5.568,5.571-5.568h23.206c3.076,0,5.564,2.496,5.564,5.568V260.004z" data-original="#4E4E4E" class="" data-old_color="#4E4E4E"/>
	<path style="fill:#111010" d="M338.596,199.432c0,3.076-2.492,5.571-5.568,5.571H148.301c-3.076,0-5.571-2.496-5.571-5.571   v-90.483c0-3.076,2.496-5.568,5.571-5.568h184.727c3.076,0,5.568,2.496,5.568,5.568V199.432z" data-original="#4E4E4E" class="" data-old_color="#4E4E4E"/>
</g><path style="fill:#E2E4E3" d="M331.864,191.032c0,2.862-2.32,5.186-5.186,5.186H154.651c-2.87,0-5.194-2.324-5.194-5.186v-73.683  c0-2.862,2.324-5.186,5.194-5.186h172.031c2.866,0,5.186,2.324,5.186,5.186v73.683H331.864z" data-original="#74C59C" class="active-path" data-old_color="#74C59C"/><g>
	<path style="fill:#111010" d="M217.116,260.004c0,3.076-2.488,5.568-5.56,5.568h-23.21c-3.076,0-5.571-2.496-5.571-5.568V236.82   c0-3.076,2.496-5.568,5.571-5.568h23.21c3.072,0,5.56,2.496,5.56,5.568V260.004z" data-original="#4E4E4E" class="" data-old_color="#4E4E4E"/>
	<path style="fill:#111010" d="M257.16,260.004c0,3.076-2.488,5.568-5.56,5.568h-23.21c-3.072,0-5.571-2.496-5.571-5.568V236.82   c0-3.076,2.499-5.568,5.571-5.568h23.21c3.072,0,5.56,2.496,5.56,5.568V260.004z" data-original="#4E4E4E" class="" data-old_color="#4E4E4E"/>
</g><path style="fill:#F0C454" d="M332.358,351.385h-40.044h-3.353h-19.854c-3.076,0-5.575,2.496-5.575,5.571v23.184  c0,3.076,2.499,5.568,5.575,5.568h19.858h3.353h40.044c3.072,0,5.568-2.492,5.568-5.568v-23.184  C337.926,353.877,335.43,351.385,332.358,351.385z" data-original="#E79E2D" class="" data-old_color="#E79E2D"/><g>
	<path style="fill:#F7F7FA" d="M297.878,340.092c0,3.076-2.492,5.568-5.564,5.568h-23.206c-3.076,0-5.575-2.496-5.575-5.568   v-23.184c0-3.076,2.499-5.568,5.575-5.568h23.206c3.072,0,5.564,2.496,5.564,5.568L297.878,340.092L297.878,340.092z" data-original="#63BD6E" class="" data-old_color="#63BD6E"/>
	<path style="fill:#F7F7FA" d="M337.926,340.092c0,3.076-2.496,5.568-5.568,5.568h-23.21c-3.072,0-5.568-2.496-5.568-5.568v-23.184   c0-3.076,2.496-5.568,5.568-5.568h23.21c3.072,0,5.568,2.496,5.568,5.568V340.092z" data-original="#63BD6E" class="" data-old_color="#63BD6E"/>
</g><g>
	<path style="fill:#D6EAEE" d="M297.878,300.048c0,3.076-2.492,5.568-5.564,5.568h-23.206c-3.076,0-5.575-2.496-5.575-5.568   v-23.184c0-3.076,2.499-5.568,5.575-5.568h23.206c3.072,0,5.564,2.496,5.564,5.568L297.878,300.048L297.878,300.048z" data-original="#67B8CB" class="" data-old_color="#67B8CB"/>
	<path style="fill:#D6EAEE" d="M337.926,300.048c0,3.076-2.496,5.568-5.568,5.568h-23.21c-3.072,0-5.568-2.496-5.568-5.568v-23.184   c0-3.076,2.496-5.568,5.568-5.568h23.21c3.072,0,5.568,2.496,5.568,5.568V300.048z" data-original="#67B8CB" class="" data-old_color="#67B8CB"/>
</g><g>
	<path style="fill:#DED1D1" d="M297.878,260.004c0,3.076-2.492,5.568-5.564,5.568h-23.206c-3.076,0-5.575-2.496-5.575-5.568V236.82   c0-3.076,2.499-5.568,5.575-5.568h23.206c3.072,0,5.564,2.496,5.564,5.568L297.878,260.004L297.878,260.004z" data-original="#E84849" class="" data-old_color="#E84849"/>
	<path style="fill:#DED1D1" d="M337.926,260.004c0,3.076-2.496,5.568-5.568,5.568h-23.21c-3.072,0-5.568-2.496-5.568-5.568V236.82   c0-3.076,2.496-5.568,5.568-5.568h23.21c3.072,0,5.568,2.496,5.568,5.568V260.004z" data-original="#E84849" class="" data-old_color="#E84849"/>
</g><path style="opacity:0.15;enable-background:new    ;" d="M149.756,191.032v-73.683c0-2.862,2.327-5.186,5.194-5.186h75.191  l84.059,84.055H154.95C152.084,196.218,149.756,193.894,149.756,191.032z" data-original="#000000" class=""/></g> </svg>
