<?xml version="1.0"?>
<svg xmlns="http://www.w3.org/2000/svg" xmlns:xlink="http://www.w3.org/1999/xlink" version="1.1" id="Layer_1" x="0px" y="0px" viewBox="0 0 473.935 473.935" style="enable-background:new 0 0 473.935 473.935;" xml:space="preserve" width="512px" height="512px" class=""><g><circle style="fill:#EFC454" cx="236.967" cy="236.967" r="236.967" data-original="#4ABC96" class="active-path" data-old_color="#4ABC96"/><g>
	<path style="fill:#BBBCBB;" d="M160.541,321.457c-7.585,7.577-27.88,12.284-35.985,4.187l-26.896-26.907   c-8.105-8.09-0.947-25.938,6.638-33.523l120.194-120.19c7.581-7.585,20.307-7.169,28.408,0.928l26.9,26.9   c8.101,8.097,8.516,20.819,0.932,28.415L160.541,321.457z" data-original="#BBBCBB"/>
	<path style="fill:#BBBCBB;" d="M129.5,330.082c-6.421,6.417-11.577,3.521-16.681-1.587L95.88,311.556   c-5.108-5.1-8.221-10.488-1.8-16.905l105.84-105.612c6.413-6.425,15.757-7.484,20.857-2.384l16.943,16.939   c5.104,5.108,4.037,14.44-2.38,20.857L129.5,330.082z" data-original="#BBBCBB"/>
</g><path style="fill:#D2D2D2;" d="M129.5,330.082c-6.421,6.417-11.577,3.521-16.681-1.587L95.88,311.556  c-5.108-5.1-8.221-10.488-1.8-16.905L129.5,330.082z" data-original="#D2D2D2"/><path style="fill:#787878;" d="M170.27,321.584c-9.523,9.523-19.405,3.963-28.924-5.56l-31.611-31.611  c-9.519-9.523-15.076-19.405-5.553-28.92L264.017,95.992c9.523-9.515,21.538-6.44,31.057,3.083l31.607,31.607  c9.519,9.523,12.943,21.882,3.427,31.405L170.27,321.584z" data-original="#787878"/><g>
	<path style="fill:#3B3A38;" d="M281.027,244.473c3.371,3.368,1.216,10.997-4.827,17.036l0,0   c-6.035,6.035-13.661,8.198-17.036,4.831l-53.156-53.16c-3.371-3.375-1.209-10.997,4.823-17.036l0,0   c6.039-6.043,13.661-8.206,17.036-4.823L281.027,244.473z" data-original="#3B3A38" class=""/>
	<path style="fill:#3B3A38;" d="M301.42,284.918c-4.767,0-8.636-6.922-8.636-15.457l0,0c0-8.542,3.865-15.457,8.636-15.457h75.184   c4.763,0,8.629,6.915,8.636,15.45l0,0c0,8.542-3.869,15.465-8.636,15.465L301.42,284.918L301.42,284.918z" data-original="#3B3A38" class=""/>
	<path style="fill:#3B3A38;" d="M355.043,231.875c0-4.778,6.919-8.64,15.461-8.64l0,0c8.539,0,15.461,3.858,15.461,8.64v75.173   c-0.004,4.771-6.922,8.632-15.454,8.64l0,0c-8.55,0-15.465-3.865-15.465-8.64L355.043,231.875z" data-original="#3B3A38" class=""/>
	<path style="fill:#3B3A38;" d="M307.006,268.44c0,12.629-10.234,22.866-22.859,22.866c-12.621,0-22.855-10.238-22.855-22.866   c0-12.614,10.234-22.851,22.855-22.851C296.772,245.585,307.006,255.822,307.006,268.44z" data-original="#3B3A38" class=""/>
</g></g> </svg>
