<?xml version="1.0"?>
<svg xmlns="http://www.w3.org/2000/svg" xmlns:xlink="http://www.w3.org/1999/xlink" version="1.1" id="Layer_1" x="0px" y="0px" viewBox="0 0 474 474" style="enable-background:new 0 0 474 474;" xml:space="preserve" width="512px" height="512px" class=""><g><circle style="fill:#F0C454" cx="237" cy="237" r="237" data-original="#43B29B" class="" data-old_color="#43B29B"/><path style="fill:#505252;" d="M261.9,374.4c-7.5-21.8-11.7-27.5-26-27.5c-14,0-18.9,7.2-26,27.5c-24,2.3-40.8,7.8-40.8,14.1  c0,8.5,29.9,15.3,66.8,15.3s66.8-6.9,66.8-15.3C302.7,382.2,285.8,376.7,261.9,374.4z" data-original="#505252"/><circle style="fill:#1A1919;" cx="234.8" cy="354.7" r="4.4" data-original="#1A1919"/><path style="fill:#3E4141;" d="M407.5,203c0,2.3-1.8,4.1-4.1,4.1l0,0c-2.3,0-4.1-1.8-4.1-4.1v-43.5c0-2.3,1.8-4.1,4.1-4.1l0,0  c2.3,0,4.1,1.8,4.1,4.1V203z" data-original="#3E4141"/><g>
	<g>
		<path style="fill:#3E4141;" d="M384.7,115.1h-26.8H86.7c-11.2,0-20.2,9-20.2,20.2v199.4c0,11.2,9,20.2,20.2,20.2    c0,0,49.3,6.3,96.7,9.7l0,0c17,1.2,33.8,2,48,2c70.1,0,153.2-11.7,153.2-11.7c11.2,0,20.2-9,20.2-20.2V135.3    C404.8,124.1,395.8,115.1,384.7,115.1z M390.5,339.5H201l0,0H80.2V129.7h267.5h42.8V339.5z" data-original="#3E4141"/>
		<polygon style="fill:#80A5E0" points="80.2,339.5 201,339.5 347.7,129.7 80.2,129.7   " data-original="#676768" class="active-path" data-old_color="#676768"/>
		<g>
			<path style="fill:#575859;" d="M384.7,354.9c11.2,0,20.2-9,20.2-20.2V135.3c0-11.2-9-20.2-20.2-20.2h-26.8l-10.2,14.6h42.8v209.9     H201l-17.5,25.1c17,1.2,33.8,2,48,2C301.6,366.6,384.7,354.9,384.7,354.9z" data-original="#575859" class=""/>
			<polygon style="fill:#598DE0" points="390.5,339.5 390.5,129.7 347.7,129.7 201,339.5    " data-original="#747375" class="" data-old_color="#747375"/>
		</g>
	</g>
</g><g>
	<path style="fill:#DFF1ED;" d="M201.7,232.7c0,5.4-4.3,9.7-9.7,9.7h-73.7c-5.4,0-9.7-4.4-9.7-9.7v-42.9c0-5.4,4.4-9.7,9.7-9.7H192   c5.4,0,9.7,4.4,9.7,9.7V232.7z" data-original="#DFF1ED" class=""/>
	<path style="fill:#DFF1ED;" d="M179.2,255.5c-0.8,0.8-2,0.8-2.8,0l-9.3-13.2c-0.8-0.8-0.8-2,0-2.8h21.4c0.8,0.8,0.8,2,0,2.8   L179.2,255.5z" data-original="#DFF1ED" class=""/>
</g><g>
	<path style="fill:#B7CAC4;" d="M187.5,196.6c0,1.9-1.6,3.5-3.5,3.5h-58c-1.9,0-3.5-1.6-3.5-3.5l0,0c0-1.9,1.6-3.5,3.5-3.5h58   C185.9,193.1,187.5,194.7,187.5,196.6L187.5,196.6z" data-original="#B7CAC4" class=""/>
	<path style="fill:#B7CAC4;" d="M187.5,210.7c0,1.9-1.6,3.5-3.5,3.5h-58c-1.9,0-3.5-1.6-3.5-3.5l0,0c0-2,1.6-3.5,3.5-3.5h58   C185.9,207.2,187.5,208.8,187.5,210.7L187.5,210.7z" data-original="#B7CAC4" class=""/>
	<path style="fill:#B7CAC4;" d="M187.5,224.9c0,1.9-1.6,3.5-3.5,3.5h-58c-1.9,0-3.5-1.6-3.5-3.5l0,0c0-1.9,1.6-3.5,3.5-3.5h58   C185.9,221.3,187.5,222.9,187.5,224.9L187.5,224.9z" data-original="#B7CAC4" class=""/>
</g><g>
	<path style="fill:#DFF1ED;" d="M366,214.3c0,5.4-4.4,9.7-9.7,9.7h-73.7c-5.4,0-9.7-4.4-9.7-9.7v-42.9c0-5.4,4.4-9.7,9.7-9.7h73.7   c5.4,0,9.7,4.4,9.7,9.7V214.3z" data-original="#DFF1ED" class=""/>
	<path style="fill:#DFF1ED;" d="M343.5,237.1c-0.8,0.8-2,0.8-2.8,0l-9.3-13.2c-0.8-0.8-0.8-2,0-2.8h21.4c0.8,0.8,0.8,2,0,2.8   L343.5,237.1z" data-original="#DFF1ED" class=""/>
</g><g>
	<path style="fill:#B7CAC4;" d="M351.8,178.1c0,1.9-1.6,3.5-3.5,3.5h-57.9c-1.9,0-3.5-1.6-3.5-3.5l0,0c0-2,1.6-3.5,3.5-3.5h57.9   C350.3,174.6,351.8,176.2,351.8,178.1L351.8,178.1z" data-original="#B7CAC4" class=""/>
	<path style="fill:#B7CAC4;" d="M351.8,192.3c0,1.9-1.6,3.5-3.5,3.5h-57.9c-1.9,0-3.5-1.6-3.5-3.5l0,0c0-2,1.6-3.5,3.5-3.5h57.9   C350.3,188.7,351.8,190.3,351.8,192.3L351.8,192.3z" data-original="#B7CAC4" class=""/>
	<path style="fill:#B7CAC4;" d="M351.8,206.4c0,1.9-1.6,3.5-3.5,3.5h-57.9c-1.9,0-3.5-1.6-3.5-3.5l0,0c0-1.9,1.6-3.5,3.5-3.5h57.9   C350.3,202.9,351.8,204.4,351.8,206.4L351.8,206.4z" data-original="#B7CAC4" class=""/>
</g><g>
	<path style="fill:#DFF1ED;" d="M308.3,300.7c0,5.4-4.4,9.7-9.7,9.7h-73.7c-5.4,0-9.7-4.4-9.7-9.7v-42.9c0-5.4,4.4-9.7,9.7-9.7h73.7   c5.4,0,9.7,4.4,9.7,9.7V300.7L308.3,300.7z" data-original="#DFF1ED" class=""/>
	<path style="fill:#DFF1ED;" d="M285.8,323.5c-0.8,0.8-2,0.8-2.8,0l-9.3-13.2c-0.8-0.8-0.8-2,0-2.8h21.4c0.8,0.8,0.8,2,0,2.8   L285.8,323.5z" data-original="#DFF1ED" class=""/>
</g><g>
	<path style="fill:#B7CAC4;" d="M294.1,264.5c0,1.9-1.6,3.5-3.5,3.5h-57.9c-1.9,0-3.5-1.6-3.5-3.5l0,0c0-1.9,1.6-3.5,3.5-3.5h57.9   C292.5,261,294.1,262.6,294.1,264.5L294.1,264.5z" data-original="#B7CAC4" class=""/>
	<path style="fill:#B7CAC4;" d="M294.1,278.7c0,1.9-1.6,3.5-3.5,3.5h-57.9c-1.9,0-3.5-1.6-3.5-3.5l0,0c0-2,1.6-3.5,3.5-3.5h57.9   C292.5,275.1,294.1,276.7,294.1,278.7L294.1,278.7z" data-original="#B7CAC4" class=""/>
	<path style="fill:#B7CAC4;" d="M294.1,292.8c0,1.9-1.6,3.5-3.5,3.5h-57.9c-1.9,0-3.5-1.6-3.5-3.5l0,0c0-1.9,1.6-3.5,3.5-3.5h57.9   C292.5,289.3,294.1,290.8,294.1,292.8L294.1,292.8z" data-original="#B7CAC4" class=""/>
</g></g> </svg>
