<?xml version="1.0"?>
<svg xmlns="http://www.w3.org/2000/svg" xmlns:xlink="http://www.w3.org/1999/xlink" version="1.1" id="Layer_1" x="0px" y="0px" viewBox="0 0 473.931 473.931" style="enable-background:new 0 0 473.931 473.931;" xml:space="preserve" width="512px" height="512px" class=""><g><circle style="fill:#EFC454" cx="236.966" cy="236.966" r="236.966" data-original="#49A0AE" class="active-path" data-old_color="#49A0AE"/><g>
	<path style="fill:#338FE4" d="M386.625,291.588c0,17.25-13.987,31.236-31.236,31.236H118.517   c-17.246,0-31.236-13.987-31.236-31.236V153.629c0-17.25,13.987-31.236,31.236-31.236h236.872   c17.246,0,31.236,13.983,31.236,31.236V291.588z" data-original="#DFF1ED" class="" data-old_color="#DFF1ED"/>
	<path style="fill:#338FE4" d="M314.368,364.863c-2.451,2.451-6.421,2.451-8.868,0l-29.934-42.274   c-2.443-2.447-2.443-6.417,0-8.868h68.732c2.447,2.451,2.447,6.421,0,8.868L314.368,364.863z" data-original="#DFF1ED" class="" data-old_color="#DFF1ED"/>
</g><path style="fill:#FFFFFF" d="M269.863,162.759c-12.819,0-24.722,6.245-31.88,16.711l-1.478,1.878l-0.988-1.257  c-7.076-10.851-19.001-17.332-31.951-17.332c-22.091,0-38.121,16.033-38.121,38.121c0,32.613,59.037,80.68,63.348,84.141  c2.028,1.946,4.688,3.012,7.517,3.012c2.825,0,5.478-1.066,7.513-3.016c4.322-3.48,64.16-52.31,64.16-84.137  C307.984,178.793,291.955,162.759,269.863,162.759z" data-original="#B7CAC4" class="" data-old_color="#B7CAC4"/></g> </svg>
