<?xml version="1.0" encoding="UTF-8"?> <svg xmlns="http://www.w3.org/2000/svg" width="40" height="40" viewBox="0 0 40 40" fill="none"> <rect width="40" height="40" rx="2" fill="#38B374"></rect> <path d="M25.7242 13.7239L17.3336 22.1146L14.2762 19.0572C14.0247 18.8143 13.6879 18.68 13.3383 18.683C12.9888 18.686 12.6543 18.8263 12.4071 19.0735C12.1599 19.3207 12.0197 19.6551 12.0167 20.0047C12.0136 20.3543 12.148 20.6911 12.3909 20.9426L16.3909 24.9426C16.6409 25.1925 16.98 25.3329 17.3336 25.3329C17.6871 25.3329 18.0262 25.1925 18.2762 24.9426L27.6096 15.6092C27.8524 15.3578 27.9868 15.021 27.9838 14.6714C27.9807 14.3218 27.8405 13.9873 27.5933 13.7401C27.3461 13.4929 27.0117 13.3527 26.6621 13.3497C26.3125 13.3466 25.9757 13.481 25.7242 13.7239Z" fill="white"></path> </svg> 