<svg width="512" height="512" viewBox="0 0 512 512" fill="none" xmlns="http://www.w3.org/2000/svg">
<g clip-path="url(#clip0)">
<path d="M256.001 512.001C397.386 512.001 512.001 397.386 512.001 256.001C512.001 114.615 397.386 0 256.001 0C114.615 0 0 114.615 0 256.001C0 397.386 114.615 512.001 256.001 512.001Z" fill="#F0C454"/>
<path d="M396.067 387.198C396.067 412.114 390.91 424.795 365.992 424.795H152.957C128.04 424.795 122.882 412.114 122.882 387.198V141.578C122.882 116.665 128.039 103.985 152.957 103.985H365.991C390.907 103.985 396.066 116.665 396.066 141.578V387.198H396.067Z" fill="#328FE4"/>
<path d="M392.279 383.795C392.279 408.02 387.263 420.35 363.041 420.35H155.913C131.687 420.35 126.67 408.021 126.67 383.795V144.99C126.67 120.764 131.687 108.435 155.913 108.435H363.037C387.259 108.435 392.275 120.763 392.275 144.99V383.793H392.279V383.795Z" fill="white"/>
<path d="M363.74 143.163H303.578V210.172H363.74V143.163Z" fill="#F9F29A"/>
<path d="M285.073 143.009H153.487V155.804H285.073V143.009Z" fill="#F4E028"/>
<path d="M285.073 162.177H153.487V168.653H285.073V162.177Z" fill="#F4E028"/>
<path d="M285.073 173.125H153.487V179.6H285.073V173.125Z" fill="#F4E028"/>
<path d="M285.073 184.092H153.487V190.567H285.073V184.092Z" fill="#F4E028"/>
<path d="M285.073 195.042H153.487V201.514H285.073V195.042Z" fill="#F4E028"/>
<path d="M366.049 378.402H153.487V385.831H366.049V378.402Z" fill="#328FE4"/>
<path d="M366.049 393.48H153.487V400.913H366.049V393.48Z" fill="#328FE4"/>
<path d="M366.049 362.96H153.487V370.39H366.049V362.96Z" fill="#328FE4"/>
<path d="M364.144 232.866H154.376V353.336H364.144V232.866Z" fill="#DBF0F5"/>
<path d="M337.93 185.991V182.851C342.542 180.854 345.623 175.626 346.185 169.211C347.018 168.844 347.636 167.599 347.636 166.05C347.636 164.275 346.831 162.849 345.812 162.76C344.394 156.51 339.899 153.284 333.779 153.284C327.647 153.284 323.099 156.51 321.66 162.76C320.649 162.845 319.833 164.271 319.833 166.05C319.833 167.599 320.455 168.844 321.297 169.211C321.851 175.586 324.947 180.797 329.535 182.818V185.995C315.35 186.206 308.641 187.831 308.641 198.203V210.007H359.004V198.203C359.006 187.785 352.211 186.189 337.93 185.991Z" fill="#F4E028"/>
<circle cx="171.5" cy="319.5" r="3.5" fill="#2B84E0"/>
<rect x="187" y="316" width="137" height="7" fill="#2B84E0"/>
<circle cx="171.5" cy="259.5" r="3.5" fill="#2B84E0"/>
<rect x="187" y="256" width="137" height="7" fill="#2B84E0"/>
<circle cx="171.5" cy="274.5" r="3.5" fill="#2B84E0"/>
<rect x="187" y="271" width="137" height="7" fill="#2B84E0"/>
<circle cx="171.5" cy="289.5" r="3.5" fill="#2B84E0"/>
<rect x="187" y="286" width="137" height="7" fill="#2B84E0"/>
<circle cx="171.5" cy="304.5" r="3.5" fill="#2B84E0"/>
<rect x="187" y="301" width="137" height="7" fill="#2B84E0"/>
</g>
<defs>
<clipPath id="clip0">
<rect width="512" height="512" fill="white"/>
</clipPath>
</defs>
</svg>
