<?xml version="1.0"?>
<svg xmlns="http://www.w3.org/2000/svg" xmlns:xlink="http://www.w3.org/1999/xlink" version="1.1" id="Layer_1" x="0px" y="0px" viewBox="0 0 473.96 473.96" style="enable-background:new 0 0 473.96 473.96;" xml:space="preserve" width="512px" height="512px" class=""><g><circle style="fill:#EFC454" cx="236.98" cy="236.98" r="236.98" data-original="#F37C2A" class="" data-old_color="#F37C2A"/><path style="fill:#5A8DE0" d="M311.056,279.079c0,7.914-6.425,14.338-14.342,14.338H78.596c-7.921,0-14.342-6.425-14.342-14.338  V148.204c0-7.914,6.421-14.338,14.342-14.338h218.118c7.918,0,14.342,6.425,14.342,14.338V279.079L311.056,279.079z" data-original="#1B7A9A" class="" data-old_color="#1B7A9A"/><rect x="69.42" y="171.35" style="fill:#FFFFFF" width="236.64" height="28.333" data-original="#AAAAAA" class="active-path" data-old_color="#AAAAAA"/><path style="fill:#2B2623" d="M199.402,223.432c0,2.99-2.421,5.414-5.414,5.414H87.336c-2.993,0-5.414-2.425-5.414-5.414l0,0  c0-2.99,2.421-5.414,5.414-5.414h106.651C196.981,218.017,199.402,220.446,199.402,223.432L199.402,223.432z" data-original="#2992AD" class="" data-old_color="#2992AD"/><path style="fill:#EFC454" d="M407.71,343.217c0,7.929-6.432,14.361-14.365,14.361H174.98c-7.929,0-14.365-6.432-14.365-14.361  V212.188c0-7.925,6.436-14.357,14.365-14.357h218.365c7.933,0,14.365,6.432,14.365,14.357V343.217z" data-original="#F37C2A" class="" data-old_color="#F37C2A"/><g>
	<path style="fill:#5A8DE0" d="M411.335,347.243c0,7.914-6.421,14.338-14.342,14.338H178.875c-7.918,0-14.342-6.425-14.342-14.338   V216.367c0-7.914,6.425-14.338,14.342-14.338h218.118c7.921,0,14.342,6.425,14.342,14.338V347.243z" data-original="#1B7A9A" class="" data-old_color="#1B7A9A"/>
</g><g>
	<path style="fill:#2B2623" d="M313.047,202.684c-0.602,1.482-2.694,3.255-4.49,2.372c-1.8-0.891-7.491-1.186-10.189,0.591   c-2.694,1.777-3.888,6.814-3.588,8.887c0.296,2.077,8.385,1.478,9.28,1.478c0.902,0-0.299-3.551-1.796-4.441   c-1.497-0.887-0.602-2.96,1.497-3.263c2.095-0.292,2.997,2.376,4.198,3.263c1.19,0.891,0.891,7.106,0.891,7.106   c-0.894,2.077-7.192-1.186-9.586-0.292c-2.395,0.894-5.983,8.595-7.304,9.272c-1.325,0.674-0.288,5.448,0.116,7.615   c0.408,2.167-8.385,0.288-10.178,2.073c-1.804,1.774,0,7.701,0.891,9.478c0.902,1.774,6.294,0.599,8.389,0.599   s4.195-4.449,4.786-5.927c0.606-1.486,4.501-4.453,7.195-5.336c2.69-0.887,1.497,3.259,1.792,4.737   c0.303,1.485,5.688,0.891,5.994,2.369c0.299,1.489,3.596-0.887,5.392-2.369c1.789-1.478,2.993-2.073,4.786,0.299   c1.8,2.369,6.294-0.299,9.586-0.299s7.188-3.551,8.984-0.883c1.789,2.657-3.596,7.409-3.596,7.409l1.632,1.499   c-6.062,0.989-18.463,2.531-23.795-0.324c0,0-4.789-6.219-18.267-0.883c0,0-23.655,14.215-23.955,28.437   c0,0-6.593,28.142,18.267,31.996c0,0,26.058-8.587,29.354,1.482c0,0,0.898,12.438,3.293,15.106c0,0,3.891,5.721,3.596,9.179   c0,0-2.698,11.555,0.898,20.441c0,0,1.272,4.093,1.845,7.229h7.147c7.307-3.657,18.416-11.244,23.052-25.002   c0,0,4.191-14.814,4.494-18.664c0,0,5.991-17.175,7.487-22.518c0,0,5.388-15.989-3.596-13.916c0,0-6.29-5.934-10.784-10.368   c-2.269-2.244-5.607-7.664-8.666-12.671l13.156,12.08c6.589,5.336,10.185-2.668,10.788-5.336c0.599-2.672-0.299-6.814-0.595-9.478   c-0.299-2.664-0.602-3.263-5.691-3.854c-5.089-0.591-9.886-5.62-9.28-7.102c0.595-1.489,9.583,4.146,11.379,4.438   c1.796,0.296,4.494-1.478,4.494-1.478c5.089,1.474,12.651,26.391,12.651,26.391c-7.527-44.826-37.492-63.978-59.301-72.074h-12.822   C313.05,202.286,313.118,202.51,313.047,202.684z" data-original="#2992AD" class="" data-old_color="#2992AD"/>
	<path style="fill:#2B2623" d="M283.393,221.344c-1.205,2.069-1.205,3.85-1.205,3.85s1.523,0.883,3.053,0.891   c1.534,0,5.635-1.482,5.635-3.551c0-2.084-3.891-4.741-3.891-4.741S284.587,219.275,283.393,221.344z" data-original="#2992AD" class="" data-old_color="#2992AD"/>
	<path style="fill:#2B2623" d="M257.931,211.275c-2.997,2.369,2.099,4.449,3.6,3.259c1.493-1.194,7.48-4.146,11.079-5.036   c2.473-0.611,6.651-4.872,9.015-7.469h-22.504c-4.045,0.83-6.88,1.549-6.882,1.549c-29.047,14.211-41.784,36.897-41.784,36.897   c-1.848,3.963-5.006,14.739-2.911,10.589c2.103-4.146,7.259-7.21,12.052-11.349c4.793-4.161,19.173-10.08,22.462-11.259   c3.296-1.186,2.993-7.405,4.494-9.781c1.497-2.376,4.195-5.923,7.487-8.288c3.289-2.372,11.382-8,13.175-7.409   C269.01,203.578,260.928,208.899,257.931,211.275z" data-original="#2992AD" class="" data-old_color="#2992AD"/>
	<path style="fill:#2B2623" d="M239.364,357.009c-0.296-2.66,1.497-2.365,3.899-3.843c2.395-1.482,0.292-5.033-0.303-7.109   c-0.599-2.069,1.205-7.405,2.095-10.963c0.898-3.551-3.293-6.81-6.282-9.47c-3.001-2.675-8.09-4.46-10.788-5.635   c-2.698-1.182-4.498-1.474-5.691-3.85c-1.201-2.368,0-7.401,0-9.478s-5.396-5.336-6.892-7.996   c-1.493-2.668-5.485-7.689-8.382-10.672c-2.904-2.975-3.891-2.664-7.192-1.182c-3.297,1.485-0.296,17.482-0.296,17.482   c4.146,30.536,20.06,48.237,31.567,57.29h9.444C239.947,359.713,239.475,357.986,239.364,357.009z" data-original="#2992AD" class="" data-old_color="#2992AD"/>
	<path style="fill:#2B2623" d="M199.125,281.444l4.494-10.077c0.599-2.062,2.099-12.434,0.299-12.434   C200.405,271.899,200.528,271.73,199.125,281.444z" data-original="#2992AD" class="" data-old_color="#2992AD"/>
</g><g>
	<path style="fill:#FFFFFF" d="M230.971,317.593c0,3.656-1.755,6.623-3.921,6.623h-39.816c-2.166,0-3.921-2.967-3.921-6.623l0,0   c0-3.656,1.755-6.623,3.921-6.623h39.82C229.216,310.97,230.971,313.937,230.971,317.593L230.971,317.593z" data-original="#AAAAAA" class="active-path" data-old_color="#AAAAAA"/>
	<path style="fill:#FFFFFF" d="M285.534,317.593c0,3.656-1.759,6.623-3.925,6.623h-39.82c-2.159,0-3.918-2.967-3.918-6.623l0,0   c0-3.656,1.759-6.623,3.918-6.623h39.824C283.775,310.97,285.534,313.937,285.534,317.593L285.534,317.593z" data-original="#AAAAAA" class="active-path" data-old_color="#AAAAAA"/>
	<path style="fill:#FFFFFF" d="M339.684,317.593c0,3.656-1.759,6.623-3.925,6.623h-39.82c-2.159,0-3.921-2.967-3.921-6.623l0,0   c0-3.656,1.762-6.623,3.921-6.623h39.82C337.926,310.97,339.684,313.937,339.684,317.593L339.684,317.593z" data-original="#AAAAAA" class="active-path" data-old_color="#AAAAAA"/>
	<path style="fill:#FFFFFF" d="M393.386,317.593c0,3.663-1.759,6.642-3.933,6.642h-39.925c-2.17,0-3.929-2.982-3.929-6.642l0,0   c0-3.667,1.759-6.634,3.929-6.634h39.928C391.631,310.955,393.386,313.922,393.386,317.593L393.386,317.593z" data-original="#AAAAAA" class="active-path" data-old_color="#AAAAAA"/>
</g><g>
	<rect x="187.2" y="249.8" style="fill:#BBBCBB;" width="42.491" height="4.92" data-original="#BBBCBB"/>
	<rect x="187.2" y="240.99" style="fill:#BBBCBB;" width="42.491" height="4.146" data-original="#BBBCBB"/>
</g><path style="fill:#CDCDCE;" d="M203.035,253.302c0,2.649,2.297,4.793,5.137,4.793c2.836,0,5.137-2.144,5.137-4.793v-16.969h-10.275  L203.035,253.302L203.035,253.302z" data-original="#CDCDCE" class=""/><g>
	<path style="fill:#BBBCBB;" d="M203.63,230.631h-10.585c-3.229,0-5.848,2.44-5.848,5.452v0.247h15.835v-3.495   C203.035,232.034,203.267,231.289,203.63,230.631z" data-original="#BBBCBB"/>
	<path style="fill:#BBBCBB;" d="M229.692,236.083c0-3.012-2.615-5.452-5.845-5.452h-11.139c0.37,0.659,0.599,1.403,0.599,2.204   v3.499h16.381v-0.251L229.692,236.083L229.692,236.083z" data-original="#BBBCBB"/>
</g><path style="fill:#CDCDCE;" d="M212.712,230.631h-9.081c-0.367,0.659-0.595,1.403-0.595,2.204v3.499h10.275v-3.499  C213.31,232.034,213.082,231.289,212.712,230.631z" data-original="#CDCDCE" class=""/><path style="fill:#BBBCBB;" d="M187.2,259.94c0,3.008,2.615,5.452,5.848,5.452h30.802c3.225,0,5.845-2.443,5.845-5.452v-0.55H187.2  V259.94z" data-original="#BBBCBB"/><g>
	<rect x="187.2" y="236.33" style="fill:#CDCDCE;" width="42.491" height="4.659" data-original="#CDCDCE" class=""/>
	<rect x="187.2" y="245.14" style="fill:#CDCDCE;" width="42.491" height="4.666" data-original="#CDCDCE" class=""/>
	<rect x="187.2" y="254.73" style="fill:#CDCDCE;" width="42.491" height="4.662" data-original="#CDCDCE" class=""/>
	<path style="fill:#CDCDCE;" d="M360.38,216.76c-7.753,0-14.825,2.952-20.142,7.775c-5.051-4.273-11.585-6.855-18.72-6.855   c-16.03,0-29.025,12.995-29.025,29.025c0,16.033,12.995,29.017,29.025,29.017c7.136,0,13.669-2.586,18.72-6.847   c5.317,4.831,12.389,7.775,20.142,7.775c16.535,0,29.942-13.407,29.942-29.945C390.322,230.171,376.915,216.76,360.38,216.76z    M380.253,266.574c-5.089,5.085-12.116,8.228-19.872,8.228c-7.218,0-13.781-2.72-18.757-7.192c1.018-0.98,1.983-2.039,2.855-3.166   h-5.89c-0.722-0.887-1.384-1.815-1.987-2.784h9.788c0.625-1.025,1.182-2.118,1.673-3.225H334.84   c-0.408-0.898-0.778-1.833-1.093-2.784h15.379c0.337-1.044,0.625-2.118,0.849-3.218h-17.104c-0.195-0.917-0.337-1.837-0.434-2.78   h17.953c0.101-0.973,0.15-1.957,0.15-2.949c0-0.09-0.004-0.187-0.004-0.273H332.28c0.019-0.943,0.075-1.867,0.165-2.784h17.938   c-0.116-1.089-0.296-2.17-0.528-3.229h-16.857c0.213-0.939,0.468-1.867,0.778-2.769h15.319c-0.367-1.111-0.793-2.189-1.28-3.233   h-12.711c0.468-0.954,0.992-1.882,1.564-2.773h9.665c-0.696-1.13-1.463-2.208-2.29-3.229h-4.984   c0.464-0.543,0.95-1.066,1.452-1.579c5.093-5.081,12.112-8.228,19.876-8.228c7.753,0,14.78,3.147,19.872,8.228   c5.081,5.093,8.224,12.116,8.224,19.876C388.477,254.47,385.334,261.482,380.253,266.574z M390.408,268.569   c-0.58-0.561-1.298-0.849-2.122-0.849c-0.831,0-1.545,0.284-2.129,0.849c-0.58,0.561-0.868,1.28-0.868,2.148   c0,0.834,0.288,1.534,0.868,2.099c0.584,0.576,1.302,0.857,2.129,0.857s1.542-0.277,2.122-0.857   c0.587-0.561,0.883-1.265,0.883-2.099C391.295,269.848,390.999,269.134,390.408,268.569z M390.022,272.479   c-0.479,0.49-1.055,0.73-1.736,0.73s-1.265-0.239-1.762-0.73c-0.49-0.49-0.733-1.074-0.733-1.762c0-0.752,0.243-1.366,0.733-1.833   c0.498-0.475,1.081-0.707,1.762-0.707s1.257,0.236,1.736,0.707c0.464,0.468,0.703,1.081,0.703,1.833   C390.726,271.405,390.486,271.989,390.022,272.479z M389.644,269.878c0-0.606-0.415-0.905-1.246-0.905h-1.242v3.442h0.513v-1.463   h0.535l0.857,1.463h0.587l-0.905-1.587C389.341,270.829,389.644,270.522,389.644,269.878z M388.226,270.432h-0.558v-1.01h0.73   c0.49,0,0.733,0.153,0.733,0.453C389.136,270.252,388.836,270.432,388.226,270.432z" data-original="#CDCDCE" class=""/>
</g></g> </svg>
