<?xml version="1.0"?>
<svg xmlns="http://www.w3.org/2000/svg" xmlns:xlink="http://www.w3.org/1999/xlink" version="1.1" id="Layer_1" x="0px" y="0px" viewBox="0 0 473.935 473.935" style="enable-background:new 0 0 473.935 473.935;" xml:space="preserve" width="512px" height="512px" class=""><g><circle style="fill:#EFC454" cx="236.967" cy="236.967" r="236.967" data-original="#4ABC96" class="" data-old_color="#4ABC96"/><g>
	<path style="fill:#A3D4AA;" d="M350.426,168.762c0,6.039-4.898,10.93-10.934,10.93h-68.318c-6.035,0-10.934-4.894-10.934-10.93   v-39.618c0-6.035,4.898-10.93,10.934-10.93h68.314c6.039,0,10.933,4.894,10.933,10.93v39.618H350.426z" data-original="#A3D4AA"/>
	<path style="fill:#A3D4AA;" d="M381.737,296.017c0,19.641-15.921,35.562-35.562,35.562H123.921   c-19.644,0-35.566-15.921-35.566-35.562V167.112c0-19.641,15.921-35.562,35.566-35.562h222.255   c19.641,0,35.562,15.921,35.562,35.562V296.017z" data-original="#A3D4AA"/>
</g><rect x="287.651" y="123.446" transform="matrix(-0.7072 0.707 -0.707 -0.7072 622.1716 61.5925)" style="opacity:0.15;enable-background:new    ;" width="21.362" height="72.362" data-original="#000000"/><g>
	<path style="fill:#F6A2A3;" d="M283.743,174.322c0,6.036-4.898,10.93-10.933,10.93h-68.314c-6.039,0-10.934-4.894-10.934-10.93   v-39.622c0-6.036,4.898-10.934,10.934-10.934h68.314c6.035,0,10.933,4.898,10.933,10.934V174.322z" data-original="#F6A2A3"/>
	<path style="fill:#F6A2A3;" d="M381.737,303.796c0,19.641-15.921,35.562-35.562,35.562H123.921   c-19.644,0-35.566-15.921-35.566-35.562V174.887c0-19.637,15.921-35.562,35.566-35.562h222.255   c19.641,0,35.562,15.925,35.562,35.562V303.796z" data-original="#F6A2A3"/>
</g><rect x="218.969" y="129.841" transform="matrix(-0.7072 0.707 -0.707 -0.7072 509.4367 121.0663)" style="opacity:0.15;enable-background:new    ;" width="21.362" height="72.358" data-original="#000000"/><g>
	<path style="fill:#328FE4" d="M217.065,182.468c0,6.035-4.898,10.934-10.934,10.934h-68.318c-6.035,0-10.934-4.898-10.934-10.934   V142.85c0-6.035,4.898-10.93,10.934-10.93h68.314c6.039,0,10.934,4.898,10.934,10.93v39.618H217.065z" data-original="#F9F29A" class="" data-old_color="#F9F29A"/>
	<path style="fill:#328FE4" d="M381.737,348.248H88.355V183.782c0-19.637,15.921-35.562,35.566-35.562h222.255   c19.641,0,35.562,15.925,35.562,35.562V348.248z" data-original="#F9F29A" class="" data-old_color="#F9F29A"/>
</g><path style="fill:#A07238;" d="M366.751,369.483c3.746,3.746,3.746,9.83,0,13.575l0,0c-3.753,3.753-9.826,3.753-13.575,0  l-70.263-70.26c-3.738-3.742-3.738-9.818,0.007-13.571l0,0c3.742-3.746,9.815-3.746,13.571,0.004L366.751,369.483z" data-original="#A07238" class=""/><path style="fill:#D4A160;" d="M369.326,360.098c3.274,3.282,0.224,11.656-6.829,18.709l0,0  c-7.053,7.053-15.431,10.107-18.705,6.825l-74.626-74.615c-3.278-3.282-0.221-11.659,6.832-18.709l0,0  c7.038-7.053,15.416-10.114,18.709-6.825L369.326,360.098z" data-original="#D4A160" class=""/><circle style="fill:#2F8076" cx="237.491" cy="253.817" r="69.01" data-original="#60C3B6" class="active-path" data-old_color="#60C3B6"/><circle style="fill:#5FB0FA" cx="244.152" cy="249.746" r="54.215" data-original="#83CECA" class="" data-old_color="#83CECA"/><path style="fill:#A07238;" d="M272.286,314.467l9.811,9.815c0,0,19.802-8.958,22.836-28.236l-7.117-7.121h-9.205L272.286,314.467z" data-original="#A07238" class=""/><path style="fill:#EBEDEF;" d="M184.01,307.313c29.545,29.549,77.451,29.549,106.989,0c29.553-29.553,29.553-77.448,0.007-106.993  c-29.545-29.545-77.455-29.545-107,0C154.457,229.862,154.457,277.76,184.01,307.313z M277.517,213.802  c22.095,22.092,22.103,57.923,0,80.026c-22.091,22.099-57.93,22.099-80.022,0c-22.103-22.103-22.103-57.934-0.004-80.026  C219.591,191.696,255.429,191.707,277.517,213.802z" data-original="#EBEDEF" class=""/><path style="opacity:0.7;fill:#FFFFFF;enable-background:new    ;" d="M230.101,291.261c3.087,1.414,6.765,0.071,8.187-3.02  c1.441-3.098,0.071-6.773-3.008-8.191c0,0-0.142-0.06-0.685-0.359c-3.918-2.14-20.55-12.456-22.582-34.267  c-0.258-2.645-2.137-4.73-4.565-5.373c-0.685-0.176-1.411-0.247-2.17-0.176c-3.39,0.341-5.886,3.345-5.545,6.739  C203.044,278.767,229.48,290.943,230.101,291.261z"/></g> </svg>
