<?xml version="1.0"?>
<svg xmlns="http://www.w3.org/2000/svg" xmlns:xlink="http://www.w3.org/1999/xlink" version="1.1" id="Layer_1" x="0px" y="0px" viewBox="0 0 496.2 496.2" style="enable-background:new 0 0 496.2 496.2;" xml:space="preserve" width="512px" height="512px" class=""><g><path style="fill:#F0C454" d="M0,248.1C0,111.1,111.1,0,248.1,0s248.1,111.1,248.1,248.1S385.1,496.2,248.1,496.2S0,385.1,0,248.1z  " data-original="#E6E6E6" class="" data-old_color="#E6E6E6"/><g style="enable-background:new    ;">
	<g>
		<g>
			<g>
				<path style="fill:#072A35;" d="M329.6,243.8v12.1c0-1.1-0.1-2.3-0.2-3.4v-12.1C329.5,241.5,329.6,242.7,329.6,243.8" data-original="#072A35" class=""/>
			</g>
		</g>
	</g>
	<g>
		<g>
			<g>
				<path style="fill:#082E3B;" d="M382.2,242.4v12.1c0,3.1-0.6,6.4-0.6,9.7v-12.1C381.6,248.8,382.2,245.6,382.2,242.4" data-original="#082E3B"/>
			</g>
		</g>
	</g>
	<path style="fill:#072A35;" d="M371.2,314.7c0.7-1.7,1.4-3.4,2.1-5.1c0.3-0.8,0.6-1.6,0.9-2.4c0.5-1.4,1-2.8,1.5-4.3   c0.3-0.9,0.5-1.8,0.8-2.7c0.4-1.4,0.8-2.8,1.1-4.1c0.2-0.9,0.5-1.9,0.7-2.9c0.3-1.4,0.6-2.8,0.9-4.2c0.2-1,0.4-1.9,0.5-2.9   c0.2-1.4,0.5-2.9,0.7-4.4c0.1-0.9,0.3-1.8,0.4-2.8c0.2-1.6,0.3-3.2,0.4-4.9c0.1-0.8,0.2-1.6,0.2-2.4c0.1-2.4,0.2-4.9,0.2-7.4v-12.1   c0,2.5-0.1,4.9-0.2,7.4c0,0.8-0.1,1.6-0.2,2.4c-0.1,1.6-0.3,3.3-0.4,4.9c-0.1,0.9-0.2,1.9-0.4,2.8c-0.2,1.5-0.4,2.9-0.7,4.4   c-0.2,1-0.4,1.9-0.5,2.9c-0.3,1.4-0.6,2.8-0.9,4.2c-0.2,1-0.4,1.9-0.7,2.9c-0.4,1.4-0.7,2.8-1.1,4.1c-0.3,0.9-0.5,1.8-0.8,2.7   c-0.5,1.4-1,2.9-1.5,4.3c-0.3,0.8-0.6,1.6-0.9,2.4c-0.6,1.7-1.3,3.4-2.1,5.1c-0.2,0.5-0.4,1-0.6,1.4c-1,2.1-2,4.3-3,6.3   c-0.2,0.3-0.3,0.6-0.5,0.9c-1.2,2.2-2.4,4.4-3.7,6.5c-0.4,0.6-0.8,1.3-1.2,1.9c-1.4,2.3-2.9,4.5-4.4,6.7c-0.1,0.1-0.1,0.2-0.2,0.3   c-1.6,2.3-3.3,4.5-5.1,6.7c-0.5,0.6-1,1.2-1.4,1.7c-1.5,1.8-3.1,3.6-4.7,5.3c-0.3,0.4-0.7,0.8-1,1.1c-1.9,2-3.9,4-5.9,5.9   c-0.5,0.5-1,0.9-1.6,1.4c-1.7,1.5-3.4,3-5.1,4.4c-0.5,0.4-1.1,0.9-1.6,1.3c-2.2,1.8-4.4,3.5-6.7,5.1c-0.4,0.3-0.8,0.6-1.3,0.9   c-2,1.4-4,2.7-6,3.9c-0.7,0.4-1.3,0.8-2,1.2c-2.5,1.5-4.9,2.9-7.5,4.3c0,0,0,0-0.1,0c-2.5,1.3-5.1,2.6-7.8,3.8   c-0.7,0.3-1.4,0.6-2.1,0.9c-2.3,1-4.6,1.9-6.9,2.8c-0.5,0.2-0.9,0.4-1.4,0.5c-2.7,1-5.5,1.9-8.3,2.8c-0.7,0.2-1.4,0.4-2.1,0.6   c-2.3,0.7-4.6,1.3-7,1.8c-0.7,0.2-1.4,0.3-2.1,0.5c-2.9,0.6-5.9,1.2-8.8,1.7c-0.5,0.1-1.1,0.1-1.6,0.2c-2.5,0.4-5.1,0.7-7.7,1   c-0.8,0.1-1.6,0.2-2.5,0.2c-3.1,0.3-5.4,0.5-9.3,0.5v12.1c3.9-0.1,6.2-0.3,9.3-0.5c0.8-0.1,1.7-0.2,2.5-0.2c2.6-0.3,5.1-0.6,7.6-1   c0.5-0.1,1.1-0.1,1.6-0.2c3-0.5,5.9-1.1,8.8-1.7c0.7-0.2,1.4-0.3,2.1-0.5c2.3-0.6,4.7-1.2,7-1.8c0.7-0.2,1.4-0.4,2.1-0.6   c2.8-0.9,5.6-1.8,8.3-2.8c0.5-0.2,1-0.4,1.4-0.6c2.3-0.9,4.6-1.8,6.8-2.8c0.7-0.3,1.4-0.6,2.2-1c2.6-1.2,5.2-2.4,7.7-3.8h0.1   c2.6-1.3,5-2.8,7.5-4.3c0.3-0.2,0.6-0.3,0.9-0.5c0.4-0.2,0.7-0.5,1.1-0.7c2-1.3,4-2.6,6-3.9c0.4-0.3,0.9-0.6,1.3-0.9   c2.3-1.6,4.5-3.3,6.7-5.1c0.5-0.4,1.1-0.9,1.6-1.3c1.7-1.4,3.4-2.9,5.1-4.5c0.5-0.5,1-0.9,1.5-1.4c2-1.9,4-3.9,5.9-5.9   c0.1-0.1,0.2-0.2,0.3-0.3c0.3-0.3,0.5-0.6,0.7-0.8c1.6-1.8,3.2-3.5,4.7-5.4c0.5-0.6,1-1.1,1.4-1.7c1.8-2.2,3.5-4.4,5.1-6.7   c0.1-0.1,0.1-0.2,0.2-0.3c1.6-2.2,3-4.5,4.4-6.8c0.4-0.6,0.8-1.3,1.1-1.9c1.3-2.2,2.5-4.3,3.7-6.6c0.1-0.2,0.3-0.5,0.4-0.7   c0-0.1,0.1-0.2,0.1-0.2c1.1-2.1,2.1-4.2,3-6.4C370.8,315.6,371,315.1,371.2,314.7z" data-original="#072A35" class=""/>
	<path style="fill:#8BA9D8" d="M382.1,240.4c0.4,3.7-0.5,7.7-0.5,11.7c0,73.6-62.8,133.3-141.4,135.3v-49.2c51.1-2,89-39.6,89-86.1   c0-4,0.7-8,0.1-11.7L382.1,240.4L382.1,240.4z" data-original="#0D495D" class="" data-old_color="#0D495D"/>
</g><g style="enable-background:new    ;">
	<g>
		<g>
			<path style="fill:#1A6C76;" d="M237.3,165.7c-17.9,0-34.5,5.1-48.4,13.6c-7.1,4.3-13.5,9.6-19,15.5c-5.8,6.1-11.2,13-15,20.4     c-4.1,7.9-4.9,16.4-8.8,25.2v12.1c3.9-8.8,4.8-17.3,8.8-25.2c3.8-7.4,9-14.3,14.7-20.4c5.6-5.9,12.1-11.1,19.2-15.5     c14-8.5,30.6-13.6,48.5-13.6c1.1,0,3-0.1,3-0.1v-12.2C240.2,165.6,238.4,165.7,237.3,165.7z" data-original="#1A6C76" class=""/>
		</g>
	</g>
	<rect x="94.5" y="240.4" style="fill:#175E67;" width="52.7" height="12.1" data-original="#175E67"/>
	<path style="fill:#C9D8D7" d="M240.2,116.4v49.2c-0.5,0-1.8,0.1-2.9,0.1c-46.5,0-83.9,34.1-90.1,74.7H94.5   c6.4-70.1,67.3-123.9,142.8-123.9C238.5,116.6,240,116.4,240.2,116.4z" data-original="#29AABB" class="active-path" data-old_color="#29AABB"/>
	<g>
		<g>
			<g>
				<path style="fill:#008994;" d="M147.2,240.4v12.1c-0.6,3.7-1.4,7.6-1.4,11.7v-12.1C145.8,248.1,146.6,244.1,147.2,240.4" data-original="#008994"/>
			</g>
		</g>
	</g>
	<g>
		<g>
			<g>
				<polyline style="fill:#008994;" points="240.2,387.4 240.2,399.6 240.2,399.6 240.2,387.4 240.2,387.4     " data-original="#008994"/>
				<polyline style="fill:#00858F;" points="240.2,387.4 240.2,399.6 240.2,399.6 240.2,387.4 240.2,387.4     " data-original="#00858F"/>
				<polyline style="fill:#00808A;" points="240.2,387.4 240.2,399.6 240.2,399.6 240.2,387.4 240.2,387.4     " data-original="#00808A"/>
				<path style="fill:#007B85;" d="M240.2,387.4v12.2c-0.1,0-1.7,0.2-2.9,0.2C157.6,399.8,94,339.2,94,264.4v-12.3      c0,74.8,63.6,135.4,143.3,135.4C238.5,387.6,240.1,387.5,240.2,387.4" data-original="#007B85" class=""/>
			</g>
		</g>
	</g>
	<path style="fill:#BAC6DA" d="M147.2,240.4c-0.6,3.7-1.4,7.6-1.4,11.7c0,47.7,40.7,86.2,91.5,86.2c1.3,0,2.9-0.1,2.9-0.1v49.2   c0,0-1.6,0.2-2.9,0.2C157.6,387.6,94,327,94,252.2c0-4,0.2-8,0.6-11.7h52.6V240.4z" data-original="#00D9EA" class="" data-old_color="#00D9EA"/>
	<polygon style="fill:#783412;" points="384.6,218.3 384,230 255.9,230 255.9,218.3  " data-original="#783412" class=""/>
	<path style="fill:#598DE0" d="M255.9,107c125.7,10.8,128.5,107.3,128.7,111.3H255.9V107z" data-original="#D95E20" class="" data-old_color="#D95E20"/>
</g></g> </svg>
