<?xml version="1.0"?>
<svg xmlns="http://www.w3.org/2000/svg" xmlns:xlink="http://www.w3.org/1999/xlink" version="1.1" id="Layer_1" x="0px" y="0px" viewBox="0 0 473.96 473.96" style="enable-background:new 0 0 473.96 473.96;" xml:space="preserve" width="512px" height="512px" class=""><g><circle style="fill:#EFC454" cx="236.98" cy="236.98" r="236.98" data-original="#FFCE00" class="" data-old_color="#FFCE00"/><g>
	<path style="fill:#5A8DE0" d="M295.143,48.916c6.746,0,12.221,5.467,12.221,12.213V246.93c0,6.746-5.474,12.221-12.221,12.221   H183.657c-6.739,0-12.213-5.474-12.213-12.221V61.129c0-6.746,5.474-12.213,12.213-12.213H295.143z" data-original="#1B7A9A" class="" data-old_color="#1B7A9A"/>
</g><g>
	<path style="fill:#2B2623" d="M171.444,132.805c0.218-0.146,0.41-0.209,0.558-0.148c1.265,0.509,2.776,2.294,2.024,3.82   c-0.76,1.534-1.007,6.38,0.505,8.681c1.512,2.294,5.8,3.308,7.57,3.053c1.77-0.247,1.257-7.139,1.257-7.906   s-3.027,0.254-3.787,1.542c-0.752,1.265-2.522,0.505-2.776-1.287c-0.251-1.781,2.024-2.552,2.776-3.573   c0.76-1.014,6.058-0.752,6.058-0.752c1.77,0.752-1.007,6.118-0.247,8.157c0.752,2.039,7.315,5.1,7.891,6.219   c0.569,1.134,4.64,0.251,6.488-0.094c1.841-0.352,0.243,7.139,1.762,8.666c1.512,1.534,6.563,0,8.075-0.76   c1.515-0.767,0.513-5.354,0.513-7.147c0-1.785-3.794-3.573-5.051-4.078c-1.265-0.513-3.794-3.839-4.546-6.125   c-0.752-2.294,2.776-1.28,4.034-1.534c1.265-0.254,0.76-4.838,2.017-5.1c1.272-0.258-0.752-3.065-2.017-4.591   c-1.257-1.527-1.762-2.556,0.254-4.086c2.017-1.53-0.254-5.358-0.254-8.165s-3.023-6.125-0.752-7.652   c2.268-1.53,6.316,3.061,6.316,3.061l1.279-1.393c0.843,5.164,2.156,15.728-0.277,20.274c0,0-5.298,4.078-0.752,15.558   c0,0,12.108,20.149,24.22,20.404c0,0,23.977,5.613,27.259-15.558c0,0-7.315-22.196,1.265-25.01c0,0,10.597-0.76,12.868-2.799   c0,0,4.876-3.319,7.813-3.061c0,0,9.845,2.294,17.414-0.767c0,0,3.49-1.083,6.163-1.571v-6.085   c-3.115-6.225-9.579-15.691-21.306-19.64c0,0-12.613-3.573-15.895-3.828c0,0-14.63-5.1-19.177-6.38c0,0-13.631-4.591-11.861,3.061   c0,0-5.051,5.358-8.827,9.186c-1.914,1.933-6.534,4.779-10.8,7.385l10.295-11.213c4.539-5.613-2.271-8.677-4.546-9.171   c-2.271-0.509-5.803,0.258-8.075,0.505c-2.268,0.254-2.776,0.52-3.282,4.853c-0.505,4.333-4.793,8.419-6.05,7.906   c-1.272-0.513,3.532-8.165,3.779-9.699c0.254-1.527-1.257-3.82-1.257-3.82c1.257-4.34,22.48-10.78,22.48-10.78   c-38.186,6.413-54.501,31.941-61.399,50.519L171.444,132.805L171.444,132.805z" data-original="#2992AD" class="active-path" data-old_color="#2992AD"/>
	<path style="fill:#2B2623" d="M184.877,154.842c0,0,1.257,2.039,3.027,3.061c1.762,1.022,3.274,1.022,3.274,1.022   s0.76-1.302,0.76-2.601c0-1.31-1.265-4.801-3.027-4.801C187.144,151.523,184.877,154.842,184.877,154.842z" data-original="#2992AD" class="active-path" data-old_color="#2992AD"/>
	<path style="fill:#2B2623" d="M204.203,220.023c3.375,1.572,12.554,4.262,9.018,2.477c-3.529-1.789-6.14-6.181-9.669-10.26   c-3.547-4.086-8.587-16.333-9.59-19.139c-1.018-2.806-6.316-2.541-8.333-3.828c-2.024-1.272-5.051-3.566-7.061-6.372   c-2.028-2.806-6.821-9.699-6.316-11.225c0.513-1.527,5.044,5.354,7.068,7.906c2.017,2.552,3.787-1.781,2.776-3.061   c-1.014-1.276-3.529-6.372-4.288-9.44c-0.523-2.102-4.154-5.661-6.365-7.674v19.135c0.71,3.459,1.327,5.884,1.328,5.881   C184.88,209.172,204.203,220.023,204.203,220.023z" data-original="#2992AD" class="active-path" data-old_color="#2992AD"/>
	<path style="fill:#2B2623" d="M307.363,202.448v-8.042c-1.593,0.509-3.066,0.912-3.899,1.008c-2.264,0.247-2.009-1.28-3.274-3.326   c-1.265-2.039-4.288-0.251-6.058,0.262c-1.755,0.501-6.305-1.033-9.339-1.785c-3.023-0.767-5.796,2.799-8.067,5.351   s-3.79,6.892-4.793,9.186c-1.01,2.294-1.257,3.832-3.282,4.846c-2.017,1.022-6.309,0-8.075,0c-1.766,0-4.539,4.595-6.81,5.867   c-2.275,1.28-6.552,4.677-9.085,7.147s-2.279,3.311-1.014,6.125c1.268,2.806,14.892,0.247,14.892,0.247   C284.567,225.801,299.648,212.247,307.363,202.448z" data-original="#2992AD" class="active-path" data-old_color="#2992AD"/>
	<path style="fill:#2B2623" d="M219.918,225.598c11.049,2.99,10.903,2.885,19.177,4.086l-8.58-3.832   C228.753,225.34,219.918,224.06,219.918,225.598z" data-original="#2992AD" class="active-path" data-old_color="#2992AD"/>
</g><g>
	<path style="fill:#AAAAAA;" d="M269.886,202.556c3.113,0,5.643,1.497,5.643,3.341v33.915c0,1.841-2.529,3.341-5.643,3.341l0,0   c-3.113,0-5.635-1.497-5.635-3.341v-33.919C264.251,204.053,266.773,202.556,269.886,202.556L269.886,202.556z" data-original="#AAAAAA" class=""/>
	<path style="fill:#AAAAAA;" d="M269.886,156.076c3.113,0,5.643,1.497,5.643,3.341v33.923c0,1.841-2.529,3.334-5.643,3.334l0,0   c-3.113,0-5.635-1.489-5.635-3.334v-33.923C264.251,157.573,266.773,156.076,269.886,156.076L269.886,156.076z" data-original="#AAAAAA" class=""/>
	<path style="fill:#AAAAAA;" d="M269.886,109.948c3.113,0,5.643,1.497,5.643,3.341v33.923c0,1.833-2.529,3.341-5.643,3.341l0,0   c-3.113,0-5.635-1.504-5.635-3.341v-33.927C264.251,111.445,266.773,109.948,269.886,109.948L269.886,109.948z" data-original="#AAAAAA" class=""/>
	<path style="fill:#AAAAAA;" d="M269.886,64.197c3.121,0,5.665,1.497,5.665,3.353v34.013c0,1.848-2.544,3.341-5.665,3.341l0,0   c-3.121,0-5.65-1.489-5.65-3.341V67.55C264.236,65.698,266.765,64.197,269.886,64.197L269.886,64.197z" data-original="#AAAAAA" class=""/>
</g><g>
	<rect x="212.14" y="203.65" style="fill:#BBBCBB;" width="4.195" height="36.2" data-original="#BBBCBB"/>
	<rect x="204.64" y="203.65" style="fill:#BBBCBB;" width="3.528" height="36.2" data-original="#BBBCBB"/>
</g><path style="fill:#CDCDCE;" d="M215.125,226.35c2.253,0,4.079-1.957,4.079-4.37c0-2.425-1.826-4.385-4.079-4.385h-14.454v8.756  h14.454V226.35z" data-original="#CDCDCE"/><g>
	<path style="fill:#BBBCBB;" d="M195.81,225.838v9.018c0,2.754,2.084,4.984,4.647,4.984h0.213v-13.49h-2.982   C197.007,226.35,196.371,226.152,195.81,225.838z" data-original="#BBBCBB"/>
	<path style="fill:#BBBCBB;" d="M200.457,203.645c-2.567,0-4.647,2.23-4.647,4.977v9.485c0.561-0.314,1.197-0.513,1.878-0.513h2.982   v-13.953h-0.213V203.645z" data-original="#BBBCBB"/>
</g><path style="fill:#CDCDCE;" d="M195.81,218.107v7.73c0.561,0.314,1.197,0.513,1.878,0.513h2.982v-8.756h-2.982  C197.007,217.595,196.371,217.793,195.81,218.107z" data-original="#CDCDCE"/><path style="fill:#BBBCBB;" d="M220.783,239.843c2.559,0,4.64-2.23,4.64-4.984v-26.237c0-2.746-2.084-4.977-4.64-4.977h-0.475  v36.198H220.783z" data-original="#BBBCBB"/><g>
	<rect x="200.67" y="203.65" style="fill:#CDCDCE;" width="3.97" height="36.2" data-original="#CDCDCE"/>
	<rect x="208.17" y="203.65" style="fill:#CDCDCE;" width="3.977" height="36.2" data-original="#CDCDCE"/>
	<rect x="216.34" y="203.65" style="fill:#CDCDCE;" width="3.97" height="36.2" data-original="#CDCDCE"/>
	<path style="fill:#CDCDCE;" d="M183.994,92.32c0,6.6,2.522,12.628,6.627,17.152c-3.641,4.303-5.841,9.867-5.841,15.947   c0,13.657,11.064,24.722,24.722,24.722c13.657,0,24.722-11.064,24.722-24.722c0-6.08-2.208-11.641-5.841-15.947   c4.116-4.524,6.623-10.552,6.623-17.152c0-14.091-11.416-25.504-25.504-25.504C195.425,66.813,183.994,78.229,183.994,92.32z    M226.433,75.385c4.333,4.34,7.008,10.327,7.008,16.931c0,6.148-2.316,11.738-6.125,15.977c-0.834-0.868-1.74-1.688-2.698-2.432   v5.021c-0.752,0.614-1.549,1.182-2.369,1.695v-8.344c-0.876-0.528-1.804-1.01-2.754-1.426v11.27   c-0.76,0.352-1.557,0.666-2.369,0.928v-13.104c-0.891-0.284-1.804-0.528-2.739-0.715v14.567c-0.782,0.168-1.572,0.292-2.369,0.374   V100.84c-0.834-0.086-1.673-0.131-2.514-0.131c-0.079,0-0.161,0-0.236,0v15.551c-0.804-0.015-1.594-0.06-2.376-0.131v-15.281   c-0.928,0.094-1.848,0.247-2.746,0.445v14.361c-0.804-0.183-1.594-0.4-2.361-0.666v-13.051c-0.943,0.314-1.863,0.681-2.754,1.096   v10.825c-0.812-0.393-1.601-0.842-2.361-1.325v-8.243c-0.965,0.591-1.878,1.25-2.754,1.949v4.247   c-0.46-0.393-0.906-0.804-1.343-1.227c-4.325-4.348-7.008-10.327-7.008-16.931s2.683-12.591,7.008-16.931   c4.34-4.325,10.327-7.001,16.931-7.001C216.12,68.384,222.088,71.06,226.433,75.385z M228.135,66.734   c-0.483,0.498-0.73,1.111-0.73,1.811c0,0.707,0.247,1.317,0.73,1.811c0.475,0.498,1.089,0.745,1.826,0.745   c0.707,0,1.302-0.247,1.785-0.745c0.49-0.498,0.73-1.104,0.73-1.811c0-0.703-0.239-1.317-0.73-1.811   c-0.483-0.498-1.074-0.752-1.785-0.752C229.224,65.982,228.61,66.237,228.135,66.734z M231.458,67.071   c0.415,0.408,0.621,0.898,0.621,1.478s-0.206,1.074-0.621,1.497c-0.415,0.415-0.913,0.629-1.497,0.629   c-0.644,0-1.164-0.213-1.564-0.629c-0.408-0.423-0.606-0.92-0.606-1.497s0.198-1.066,0.606-1.478c0.4-0.4,0.92-0.606,1.564-0.606   C230.545,66.465,231.042,66.667,231.458,67.071z M229.246,67.385c-0.52,0-0.775,0.359-0.775,1.066v1.051h2.937v-0.43h-1.25V68.62   l1.25-0.73v-0.505l-1.355,0.775C230.055,67.647,229.793,67.385,229.246,67.385z M229.714,68.598v0.475h-0.857v-0.621   c0-0.415,0.131-0.629,0.389-0.629C229.561,67.823,229.714,68.078,229.714,68.598z" data-original="#CDCDCE"/>
</g><path style="fill:#AAA79B;" d="M324.83,398.969c0,13.586-30.892,30.525-86.083,30.525s-86.023-16.939-86.023-30.525V177.386  c0-13.579,11.005-24.583,24.583-24.583h122.932c13.586,0,24.591,11.005,24.591,24.583V398.969z" data-original="#AAA79B" class=""/><path style="fill:#B2B0A6;" d="M238.747,429.498c-55.191,0-86.023-16.939-86.023-30.525V177.386  c0-13.579,11.005-24.583,24.583-24.583h61.44L238.747,429.498L238.747,429.498z" data-original="#B2B0A6"/><path style="fill:#CDE7D5;" d="M310.484,232.607c0,11.311-9.171,12.292-20.494,12.292H187.552c-11.311,0-20.494-0.98-20.494-12.292  v-44.609c0-11.311,9.179-14.193,20.494-14.193H289.99c11.319,0,20.494,2.881,20.494,14.193L310.484,232.607L310.484,232.607z" data-original="#CDE7D5"/><path style="fill:#C3D5C7;" d="M310.484,232.607c0,11.311-9.171,12.292-20.494,12.292H187.552c-11.311,0-20.494-0.98-20.494-12.292  l143.422-44.609v44.609H310.484z" data-original="#C3D5C7"/><g>
	<path style="fill:#86847D;" d="M208.248,296.729c0,2.668-2.155,4.838-4.831,4.838h-29.406c-2.668,0-4.831-2.17-4.831-4.838V271.09   c0-2.675,2.163-4.838,4.831-4.838h29.406c2.675,0,4.831,2.166,4.831,4.838V296.729z" data-original="#86847D"/>
	<path style="fill:#86847D;" d="M311.213,296.729c0,2.668-2.163,4.838-4.831,4.838h-29.406c-2.668,0-4.831-2.17-4.831-4.838V271.09   c0-2.675,2.163-4.838,4.831-4.838h29.406c2.668,0,4.831,2.166,4.831,4.838V296.729z" data-original="#86847D"/>
	<path style="fill:#86847D;" d="M259.817,296.729c0,2.668-2.163,4.838-4.831,4.838h-29.41c-2.668,0-4.831-2.17-4.831-4.838V271.09   c0-2.675,2.163-4.838,4.831-4.838h29.406c2.668,0,4.831,2.166,4.831,4.838v25.639H259.817z" data-original="#86847D"/>
	<path style="fill:#86847D;" d="M208.248,342.932c0,2.675-2.155,4.831-4.831,4.831h-29.406c-2.668,0-4.831-2.155-4.831-4.831   v-25.646c0-2.668,2.163-4.831,4.831-4.831h29.406c2.675,0,4.831,2.163,4.831,4.831V342.932z" data-original="#86847D"/>
	<path style="fill:#86847D;" d="M311.213,342.932c0,2.675-2.163,4.831-4.831,4.831h-29.406c-2.668,0-4.831-2.155-4.831-4.831   v-25.646c0-2.668,2.163-4.831,4.831-4.831h29.406c2.668,0,4.831,2.163,4.831,4.831V342.932z" data-original="#86847D"/>
	<path style="fill:#86847D;" d="M259.817,342.932c0,2.675-2.163,4.831-4.831,4.831h-29.41c-2.668,0-4.831-2.155-4.831-4.831v-25.646   c0-2.668,2.163-4.831,4.831-4.831h29.406c2.668,0,4.831,2.163,4.831,4.831v25.646H259.817z" data-original="#86847D"/>
	<path style="fill:#86847D;" d="M208.248,388.937c0,2.668-2.155,4.831-4.831,4.831h-29.406c-2.668,0-4.831-2.163-4.831-4.831   v-25.646c0-2.675,2.163-4.838,4.831-4.838h29.406c2.675,0,4.831,2.163,4.831,4.838V388.937z" data-original="#86847D"/>
	<path style="fill:#86847D;" d="M311.213,388.937c0,2.668-2.163,4.831-4.831,4.831h-29.406c-2.668,0-4.831-2.163-4.831-4.831   v-25.646c0-2.675,2.163-4.838,4.831-4.838h29.406c2.668,0,4.831,2.163,4.831,4.838V388.937z" data-original="#86847D"/>
	<path style="fill:#86847D;" d="M259.817,388.937c0,2.668-2.163,4.831-4.831,4.831h-29.41c-2.668,0-4.831-2.163-4.831-4.831v-25.646   c0-2.675,2.163-4.838,4.831-4.838h29.406c2.668,0,4.831,2.163,4.831,4.838v25.646H259.817z" data-original="#86847D"/>
</g><g>
	<path style="fill:#DDDCD6;" d="M206.844,294.858c0,2.668-2.155,4.838-4.831,4.838h-29.406c-2.668,0-4.831-2.17-4.831-4.838V269.22   c0-2.675,2.163-4.838,4.831-4.838h29.406c2.675,0,4.831,2.163,4.831,4.838V294.858z" data-original="#DDDCD6" class=""/>
	<path style="fill:#DDDCD6;" d="M309.81,294.858c0,2.668-2.163,4.838-4.831,4.838h-29.406c-2.668,0-4.831-2.17-4.831-4.838V269.22   c0-2.675,2.163-4.838,4.831-4.838h29.406c2.668,0,4.831,2.163,4.831,4.838V294.858z" data-original="#DDDCD6" class=""/>
	<path style="fill:#DDDCD6;" d="M258.413,294.858c0,2.668-2.163,4.838-4.831,4.838h-29.406c-2.668,0-4.831-2.17-4.831-4.838V269.22   c0-2.675,2.163-4.838,4.831-4.838h29.406c2.668,0,4.831,2.163,4.831,4.838V294.858z" data-original="#DDDCD6" class=""/>
	<path style="fill:#DDDCD6;" d="M206.844,341.061c0,2.675-2.155,4.831-4.831,4.831h-29.406c-2.668,0-4.831-2.155-4.831-4.831   v-25.646c0-2.668,2.163-4.831,4.831-4.831h29.406c2.675,0,4.831,2.163,4.831,4.831V341.061z" data-original="#DDDCD6" class=""/>
	<path style="fill:#DDDCD6;" d="M309.81,341.061c0,2.675-2.163,4.831-4.831,4.831h-29.406c-2.668,0-4.831-2.155-4.831-4.831v-25.646   c0-2.668,2.163-4.831,4.831-4.831h29.406c2.668,0,4.831,2.163,4.831,4.831V341.061z" data-original="#DDDCD6" class=""/>
	<path style="fill:#DDDCD6;" d="M258.413,341.061c0,2.675-2.163,4.831-4.831,4.831h-29.406c-2.668,0-4.831-2.155-4.831-4.831   v-25.646c0-2.668,2.163-4.831,4.831-4.831h29.406c2.668,0,4.831,2.163,4.831,4.831V341.061z" data-original="#DDDCD6" class=""/>
	<path style="fill:#DDDCD6;" d="M206.844,387.066c0,2.668-2.155,4.831-4.831,4.831h-29.406c-2.668,0-4.831-2.163-4.831-4.831V361.42   c0-2.675,2.163-4.838,4.831-4.838h29.406c2.675,0,4.831,2.163,4.831,4.838V387.066z" data-original="#DDDCD6" class=""/>
	<path style="fill:#DDDCD6;" d="M309.81,387.066c0,2.668-2.163,4.831-4.831,4.831h-29.406c-2.668,0-4.831-2.163-4.831-4.831V361.42   c0-2.675,2.163-4.838,4.831-4.838h29.406c2.668,0,4.831,2.163,4.831,4.838V387.066z" data-original="#DDDCD6" class=""/>
	<path style="fill:#DDDCD6;" d="M258.413,387.066c0,2.668-2.163,4.831-4.831,4.831h-29.406c-2.668,0-4.831-2.163-4.831-4.831V361.42   c0-2.675,2.163-4.838,4.831-4.838h29.406c2.668,0,4.831,2.163,4.831,4.838V387.066z" data-original="#DDDCD6" class=""/>
</g></g> </svg>
