<?xml version="1.0" encoding="utf-8"?>
<!-- Generator: Adobe Illustrator 22.0.1, SVG Export Plug-In . SVG Version: 6.00 Build 0)  -->
<svg version="1.1" id="Layer_1" xmlns="http://www.w3.org/2000/svg" xmlns:xlink="http://www.w3.org/1999/xlink" x="0px" y="0px"
	 viewBox="0 0 512 512" style="enable-background:new 0 0 512 512;" xml:space="preserve">
<style type="text/css">
	.st0{fill:#F0C454;}
	.st1{fill:#FFFFFF;}
	.st2{fill:#FFFFFF;stroke:#FFFFFF;stroke-width:10;stroke-miterlimit:10;}
	.st3{fill:none;stroke:#FFFFFF;stroke-width:10;stroke-miterlimit:10;}
</style>
<g>
	<path class="st0" d="M0,256C0,114.6,114.6,0,256,0s256,114.6,256,256S397.4,512,256,512S0,397.4,0,256z"/>
	<g>
		<path class="st1" d="M181.2,390.8c0,7-5.7,12.7-12.7,12.7h-50.1c-7,0-12.7-5.7-12.7-12.7v-86.3c0-7,5.7-12.7,12.7-12.7h50.1
			c7,0,12.7,5.7,12.7,12.7V390.8z"/>
		<path class="st1" d="M286.2,390.8c0,7-5.7,12.7-12.7,12.7h-50.1c-7,0-12.7-5.7-12.7-12.7V241.9c0-7,5.7-12.7,12.7-12.7h50.1
			c7,0,12.7,5.7,12.7,12.7V390.8z"/>
		<path class="st1" d="M394.1,390.8c0,7-5.7,12.7-12.7,12.7h-50.1c-7,0-12.7-5.7-12.7-12.7V179.1c0-7,5.7-12.7,12.7-12.7h50.1
			c7,0,12.7,5.7,12.7,12.7V390.8z"/>
	</g>
</g>
<g>
	<path class="st2" d="M236.3,63.1c5.9-1,13.6-1.8,23.4-1.8c12,0,20.9,2.8,26.5,7.8c5.2,4.5,8.3,11.3,8.3,19.7
		c0,8.5-2.5,15.3-7.3,20.2c-6.4,6.9-16.9,10.4-28.8,10.4c-3.6,0-7-0.1-9.8-0.8v37.8h-12.2V63.1z M248.5,108.6c2.7,0.7,6,1,10.1,1
		c14.7,0,23.7-7.1,23.7-20.2c0-12.5-8.8-18.5-22.3-18.5c-5.3,0-9.4,0.4-11.5,1V108.6z"/>
</g>
<line class="st3" x1="216.1" y1="143" x2="271.4" y2="143"/>
</svg>
