<?xml version="1.0"?>
<svg xmlns="http://www.w3.org/2000/svg" xmlns:xlink="http://www.w3.org/1999/xlink" version="1.1" id="Layer_1" x="0px" y="0px" viewBox="0 0 473.654 473.654" style="enable-background:new 0 0 473.654 473.654;" xml:space="preserve" width="512px" height="512px" class=""><g><circle style="fill:#EFC454" cx="236.827" cy="236.827" r="236.827" data-original="#344E5D" class="" data-old_color="#344E5D"/><g>
	<path style="fill:#328FE4" d="M240.481,87.977c-83.654,0-151.468,67.817-151.468,151.468s67.813,151.468,151.468,151.468   c83.651,0,151.468-67.817,151.468-151.468S324.131,87.977,240.481,87.977z M240.481,368.475c-71.265,0-129.03-57.769-129.03-129.03   s57.765-129.03,129.03-129.03c71.261,0,129.03,57.769,129.03,129.03S311.742,368.475,240.481,368.475z" data-original="#D35959" class="" data-old_color="#D35959"/>
	<path style="fill:#328FE4" d="M240.481,130.982c-59.904,0-108.463,48.562-108.463,108.463s48.558,108.463,108.463,108.463   s108.463-48.562,108.463-108.463S300.385,130.982,240.481,130.982z M240.481,331.839c-51.03,0-92.397-41.367-92.397-92.394   s41.371-92.394,92.397-92.394s92.394,41.367,92.394,92.394S291.511,331.839,240.481,331.839z" data-original="#D35959" class="" data-old_color="#D35959"/>
</g><path style="fill:#FFFFFF" d="M240.481,168.378c-39.251,0-71.067,31.82-71.067,71.067s31.816,71.067,71.067,71.067  c39.247,0,71.067-31.82,71.067-71.067S279.728,168.378,240.481,168.378z M240.481,296.245c-31.371,0-56.8-25.429-56.8-56.797  s25.433-56.797,56.8-56.797s56.797,25.429,56.797,56.797S271.852,296.245,240.481,296.245z" data-original="#CD4F4F" class="" data-old_color="#CD4F4F"/><path style="fill:#313335" d="M240.481,263.24c-13.145,0-23.795-10.654-23.795-23.795c0-13.141,10.654-23.795,23.795-23.795  c13.141,0,23.791,10.654,23.791,23.795C264.272,252.586,253.622,263.24,240.481,263.24z" data-original="#C54342" class="" data-old_color="#C54342"/><polygon style="fill:#313335" points="315.444,168.95 352.773,177.562 414.509,115.826 377.185,107.21 " data-original="#C93435" class="active-path" data-old_color="#C93435"/><polygon style="fill:#D2D2D1" points="387.353,112.55 383.609,98.22 369.283,94.48 231.3,232.456 231.3,250.525 249.373,250.525   " data-original="#E79E2D" class="" data-old_color="#E79E2D"/><polygon style="fill:#FFFFFF" points="383.609,98.22 369.283,94.48 231.3,232.456 231.3,250.525 " data-original="#F2BE3E" class="" data-old_color="#F2BE3E"/><polygon style="fill:#F9CA62;" points="387.338,113.025 372.327,109.412 368.797,94.488 383.804,98.104 " data-original="#F9CA62" class=""/><polygon style="fill:#313335" points="268.703,158.352 306.028,166.964 367.768,105.228 330.44,96.612 " data-original="#C93435" class="active-path" data-old_color="#C93435"/></g> </svg>
