<svg width="120" height="113" viewBox="0 0 120 113" fill="none" xmlns="http://www.w3.org/2000/svg">
<rect x="1.5" y="1.5" width="102" height="44" rx="8.5" fill="white" stroke="#2F86E0" stroke-width="3"/>
<rect x="77.75" y="44.75" width="10.5" height="1.5" rx="0.75" fill="white" stroke="white" stroke-width="1.5"/>
<path d="M67.3195 81.2977C68.3461 85.6498 69.9699 89.8341 72.1461 93.7337C74.3236 97.6359 77.0335 101.217 80.2008 104.377L80.2538 104.431V111.347C80.2538 112.26 80.9952 113 81.9099 113H111.72C112.634 113 113.376 112.26 113.376 111.347V104.24C117.674 97.6326 120 89.8857 120 81.9141V69.0424C120 65.3977 117.028 62.4322 113.376 62.4322C112.013 62.4322 110.745 62.8453 109.69 63.5528C108.784 60.9785 106.325 59.1271 103.439 59.1271C102.076 59.1271 100.808 59.5403 99.7536 60.2477C98.8473 57.6734 96.3884 55.822 93.5025 55.822C92.3206 55.822 91.1866 56.1306 90.1904 56.707V41.6102C90.1904 37.9584 87.2262 35 83.566 35C79.9135 35 76.9416 37.9655 76.9416 41.6102V65.4036L72.4159 68.4143C68.2116 71.2113 66.1628 76.3884 67.3195 81.2977V81.2977ZM74.2537 71.1642L76.9416 69.3755V80.6102C76.9416 81.5229 77.683 82.2627 78.5977 82.2627C79.5125 82.2627 80.2538 81.5229 80.2538 80.6102C80.2538 79.4056 80.2538 42.6069 80.2538 41.6102C80.2538 39.7879 81.7398 38.3051 83.566 38.3051C85.3955 38.3051 86.8782 39.7846 86.8782 41.6102V74C86.8782 74.9128 87.6195 75.6525 88.5343 75.6525C89.449 75.6525 90.1904 74.9128 90.1904 74V62.4322C90.1904 60.6067 91.6731 59.1271 93.5025 59.1271C95.3288 59.1271 96.8147 60.6099 96.8147 62.4322V74C96.8147 74.9128 97.5561 75.6525 98.4708 75.6525C99.3856 75.6525 100.127 74.9128 100.127 74V65.7373C100.127 63.915 101.613 62.4322 103.439 62.4322C105.265 62.4322 106.751 63.915 106.751 65.7373V74C106.751 74.9128 107.493 75.6525 108.407 75.6525C109.322 75.6525 110.063 74.9128 110.063 74V69.0424C110.063 67.2201 111.549 65.7373 113.376 65.7373C115.202 65.7373 116.688 67.2201 116.688 69.0424V81.9141C116.688 89.3144 114.505 96.5972 110.342 102.829C110.16 103.101 110.063 103.42 110.063 103.746V109.695H83.566V103.746C83.566 103.307 83.3913 102.887 83.0808 102.577C82.7302 102.179 78.5913 98.4905 75.0397 92.1257C73.013 88.4927 71.4998 84.595 70.543 80.5411C69.7021 76.9688 71.1932 73.2002 74.2537 71.1642Z" fill="#2F86E0"/>
<path d="M27.026 19.174L23.704 21.44V18.866L27.356 16.27H29.974V32H27.026V19.174ZM32.6327 31.472L38.5727 25.202C39.3207 24.41 39.9074 23.6547 40.3327 22.936C40.7581 22.2173 40.9707 21.484 40.9707 20.736C40.9707 19.988 40.7654 19.4013 40.3547 18.976C39.9587 18.5507 39.3794 18.338 38.6167 18.338C37.8247 18.338 37.1867 18.58 36.7027 19.064C36.2334 19.548 35.9327 20.3473 35.8007 21.462H33.1167C33.2194 19.7313 33.7547 18.3967 34.7227 17.458C35.7054 16.5193 37.0327 16.05 38.7047 16.05C39.5114 16.05 40.2374 16.1673 40.8827 16.402C41.5281 16.622 42.0707 16.9373 42.5107 17.348C42.9654 17.744 43.3101 18.228 43.5447 18.8C43.7794 19.372 43.8967 20.0027 43.8967 20.692C43.8967 21.7187 43.6181 22.6867 43.0607 23.596C42.5034 24.5053 41.7554 25.4147 40.8167 26.324L37.3187 29.734H44.0067V32H32.6327V31.472ZM48.256 32.154C47.772 32.154 47.3613 31.9927 47.024 31.67C46.6867 31.3327 46.518 30.922 46.518 30.438C46.518 29.954 46.6867 29.5433 47.024 29.206C47.3613 28.8687 47.772 28.7 48.256 28.7C48.7547 28.7 49.1727 28.8687 49.51 29.206C49.8473 29.5433 50.016 29.954 50.016 30.438C50.016 30.922 49.8473 31.3327 49.51 31.67C49.1727 31.9927 48.7547 32.154 48.256 32.154ZM48.256 25.73C47.772 25.73 47.3613 25.5613 47.024 25.224C46.6867 24.8867 46.518 24.476 46.518 23.992C46.518 23.508 46.6867 23.1047 47.024 22.782C47.3613 22.4447 47.772 22.276 48.256 22.276C48.7547 22.276 49.1727 22.4447 49.51 22.782C49.8473 23.1047 50.016 23.508 50.016 23.992C50.016 24.476 49.8473 24.8867 49.51 25.224C49.1727 25.5613 48.7547 25.73 48.256 25.73ZM59.4052 29.888C60.6225 29.888 61.5245 29.4333 62.1112 28.524C62.6979 27.6147 62.9912 26.2653 62.9912 24.476V23.706C62.9912 22.0193 62.6832 20.7067 62.0672 19.768C61.4512 18.8147 60.5492 18.338 59.3612 18.338C58.1732 18.338 57.2639 18.8 56.6332 19.724C56.0025 20.6333 55.6872 21.968 55.6872 23.728V24.52C55.6872 26.3093 56.0099 27.6513 56.6552 28.546C57.3005 29.4407 58.2172 29.888 59.4052 29.888ZM59.3392 32.22C58.3419 32.22 57.4325 32.044 56.6112 31.692C55.8045 31.3253 55.1152 30.812 54.5432 30.152C53.9712 29.492 53.5239 28.6927 53.2012 27.754C52.8932 26.8007 52.7392 25.73 52.7392 24.542V23.75C52.7392 22.562 52.8932 21.4913 53.2012 20.538C53.5239 19.5847 53.9712 18.778 54.5432 18.118C55.1299 17.4433 55.8265 16.93 56.6332 16.578C57.4399 16.226 58.3419 16.05 59.3392 16.05C60.3365 16.05 61.2385 16.226 62.0452 16.578C62.8519 16.93 63.5412 17.436 64.1132 18.096C64.6852 18.756 65.1252 19.5553 65.4332 20.494C65.7559 21.4327 65.9172 22.496 65.9172 23.684V24.476C65.9172 25.664 65.7632 26.7347 65.4552 27.688C65.1619 28.6413 64.7292 29.4553 64.1572 30.13C63.5999 30.79 62.9105 31.3033 62.0892 31.67C61.2825 32.0367 60.3659 32.22 59.3392 32.22ZM74.9169 29.888C76.1342 29.888 77.0362 29.4333 77.6229 28.524C78.2096 27.6147 78.5029 26.2653 78.5029 24.476V23.706C78.5029 22.0193 78.1949 20.7067 77.5789 19.768C76.9629 18.8147 76.0609 18.338 74.8729 18.338C73.6849 18.338 72.7756 18.8 72.1449 19.724C71.5142 20.6333 71.1989 21.968 71.1989 23.728V24.52C71.1989 26.3093 71.5216 27.6513 72.1669 28.546C72.8122 29.4407 73.7289 29.888 74.9169 29.888ZM74.8509 32.22C73.8536 32.22 72.9442 32.044 72.1229 31.692C71.3162 31.3253 70.6269 30.812 70.0549 30.152C69.4829 29.492 69.0356 28.6927 68.7129 27.754C68.4049 26.8007 68.2509 25.73 68.2509 24.542V23.75C68.2509 22.562 68.4049 21.4913 68.7129 20.538C69.0356 19.5847 69.4829 18.778 70.0549 18.118C70.6416 17.4433 71.3382 16.93 72.1449 16.578C72.9516 16.226 73.8536 16.05 74.8509 16.05C75.8482 16.05 76.7502 16.226 77.5569 16.578C78.3636 16.93 79.0529 17.436 79.6249 18.096C80.1969 18.756 80.6369 19.5553 80.9449 20.494C81.2676 21.4327 81.4289 22.496 81.4289 23.684V24.476C81.4289 25.664 81.2749 26.7347 80.9669 27.688C80.6736 28.6413 80.2409 29.4553 79.6689 30.13C79.1116 30.79 78.4222 31.3033 77.6009 31.67C76.7942 32.0367 75.8776 32.22 74.8509 32.22Z" fill="#2F86E0"/>
</svg>
