<svg width="120" height="116" viewBox="0 0 120 116" fill="none" xmlns="http://www.w3.org/2000/svg">
<path d="M119.769 63.1378C118.691 52.3006 113.85 42.0838 106.135 34.3693C99.5427 27.7769 91.4735 23.5405 82.9829 21.6568V15.7017C86.4507 14.839 89.0284 11.6999 89.0284 7.96887C89.0284 3.57474 85.4537 0 81.0596 0H64.1843C59.7902 0 56.2155 3.57474 56.2155 7.96887C56.2155 11.6997 58.7931 14.8387 62.2608 15.7017V21.6735C53.7962 23.5651 45.7537 27.7957 39.1799 34.3695C37.7413 35.8081 36.4147 37.3173 35.2004 38.8857C35.1415 38.8813 35.0827 38.8768 35.0227 38.8768H18.3207C17.0264 38.8768 15.9769 39.9262 15.9769 41.2206C15.9769 42.5151 17.0264 43.5644 18.3207 43.5644H32.0112C30.2927 46.4414 28.9071 49.4628 27.8524 52.573H2.34379C1.04955 52.573 0 53.6223 0 54.9168C0 56.2112 1.04955 57.2606 2.34379 57.2606H26.5279C25.8524 60.2257 25.4648 63.2433 25.3647 66.2694H15.0002C13.706 66.2694 12.6564 67.3187 12.6564 68.6131C12.6564 69.9076 13.706 70.9569 15.0002 70.9569H25.4394C25.6373 73.9907 26.125 77.0086 26.9029 79.9657H11.7189C10.4247 79.9657 9.37514 81.0151 9.37514 82.3095C9.37514 83.604 10.4247 84.6533 11.7189 84.6533H28.3987C30.698 90.7357 34.2912 96.4365 39.1799 101.325C46.9017 109.047 57.1291 113.89 67.9775 114.961C69.5258 115.114 71.0753 115.19 72.6227 115.19C81.7686 115.19 90.7982 112.543 98.4601 107.554C99.5448 106.847 99.8516 105.395 99.1452 104.311C98.4387 103.226 96.9868 102.919 95.9021 103.626C79.1306 114.547 56.6694 112.186 42.4945 98.0105C25.8625 81.3786 25.8625 54.3165 42.4945 37.6843C59.1262 21.0526 86.1882 21.0526 102.82 37.6843C116.977 51.8408 119.351 74.2828 108.466 91.046C107.761 92.1316 108.069 93.5834 109.155 94.2881C110.241 94.9931 111.692 94.6845 112.397 93.5988C118.213 84.6421 120.831 73.8243 119.769 63.1378ZM60.903 7.9691C60.903 6.1597 62.3749 4.6878 64.1843 4.6878H81.0596C82.869 4.6878 84.3409 6.1597 84.3409 7.9691C84.3409 9.77851 82.869 11.2504 81.0596 11.2504H80.6391H64.6046H64.1843C62.3749 11.2504 60.903 9.77827 60.903 7.9691ZM66.9483 20.8677V15.938H78.2953V20.8592C74.5274 20.4111 70.7155 20.4139 66.9483 20.8677Z" fill="#FDFDFE"/>
<path d="M104.479 97.3228C103.86 97.3228 103.257 97.5735 102.822 98.0095C102.383 98.4454 102.135 99.0501 102.135 99.6665C102.135 100.283 102.383 100.888 102.822 101.324C103.257 101.762 103.86 102.01 104.479 102.01C105.095 102.01 105.697 101.762 106.136 101.324C106.571 100.888 106.822 100.283 106.822 99.6665C106.822 99.0501 106.572 98.4454 106.136 98.0095C105.697 97.5735 105.095 97.3228 104.479 97.3228Z" fill="#FDFDFE"/>
<path d="M72.6577 31.4878C52.6095 31.4878 36.2988 47.7982 36.2988 67.8467C36.2988 87.8952 52.6095 104.206 72.6577 104.206C92.706 104.206 109.017 87.8952 109.017 67.8467C109.017 47.7982 92.706 31.4878 72.6577 31.4878ZM72.6577 99.518C55.194 99.518 40.9864 85.3102 40.9864 67.8467C40.9864 50.3832 55.194 36.1754 72.6577 36.1754C90.1215 36.1754 104.329 50.3832 104.329 67.8467C104.329 85.3102 90.1215 99.518 72.6577 99.518Z" fill="#FDFDFE"/>
<path d="M87.4838 49.7069L75.875 61.3155C74.9042 60.8355 73.8123 60.5643 72.6579 60.5643C71.5034 60.5643 70.4117 60.8355 69.4409 61.3155L64.2454 56.12C63.3299 55.2048 61.8463 55.2048 60.9306 56.12C60.0153 57.0353 60.0153 58.5193 60.9306 59.4346L66.126 64.6301C65.6458 65.6008 65.3749 66.6928 65.3749 67.8471C65.3749 71.863 68.6419 75.1302 72.6579 75.1302C76.674 75.1302 79.941 71.863 79.941 67.8471C79.941 66.6928 79.6698 65.6008 79.1898 64.6301L90.4578 53.3621L90.7984 53.0215C91.7136 52.1063 91.7136 50.6222 90.7984 49.7069C89.8831 48.7917 88.3995 48.7917 87.4838 49.7069ZM72.6579 70.4429C71.2268 70.4429 70.0624 69.2785 70.0624 67.8474C70.0624 66.4163 71.2268 65.2519 72.6579 65.2519C74.0891 65.2519 75.2535 66.4163 75.2535 67.8474C75.2535 69.2785 74.0891 70.4429 72.6579 70.4429Z" fill="#FDFDFE"/>
<path d="M97.7164 65.5322H95.5449C94.2507 65.5322 93.2012 66.5815 93.2012 67.876C93.2012 69.1704 94.2507 70.2197 95.5449 70.2197H97.7164C99.0106 70.2197 100.06 69.1704 100.06 67.876C100.06 66.5815 99.0106 65.5322 97.7164 65.5322Z" fill="#FDFDFE"/>
<path d="M49.7699 65.4746H47.5986C46.3044 65.4746 45.2549 66.5239 45.2549 67.8184C45.2549 69.1128 46.3044 70.1621 47.5986 70.1621H49.7699C51.0641 70.1621 52.1136 69.1128 52.1136 67.8184C52.1136 66.5239 51.0641 65.4746 49.7699 65.4746Z" fill="#FDFDFE"/>
<path d="M72.6855 47.3026C73.9798 47.3026 75.0293 46.2533 75.0293 44.9588V42.7876C75.0293 41.4931 73.9798 40.4438 72.6855 40.4438C71.3913 40.4438 70.3418 41.4931 70.3418 42.7876V44.9588C70.3418 46.2533 71.3913 47.3026 72.6855 47.3026Z" fill="#FDFDFE"/>
<path d="M72.6289 88.3916C71.3347 88.3916 70.2852 89.4409 70.2852 90.7353V92.9066C70.2852 94.2011 71.3347 95.2503 72.6289 95.2503C73.9231 95.2503 74.9727 94.2011 74.9727 92.9066V90.7353C74.9727 89.4409 73.9231 88.3916 72.6289 88.3916Z" fill="#FDFDFE"/>
<path d="M2.34375 79.9648C1.72734 79.9648 1.12266 80.2156 0.686718 80.6516C0.250781 81.0875 0 81.6922 0 82.3086C0 82.9273 0.250547 83.5297 0.686718 83.9656C1.12289 84.4016 1.72734 84.6523 2.34375 84.6523C2.96015 84.6523 3.56484 84.4016 4.00054 83.9656C4.43648 83.5297 4.6875 82.925 4.6875 82.3086C4.6875 81.6922 4.43672 81.0875 4.00054 80.6516C3.56484 80.2156 2.96015 79.9648 2.34375 79.9648Z" fill="#FDFDFE"/>
</svg>
