<?xml version="1.0" encoding="UTF-8" standalone="no"?>
<svg
   xmlns:dc="http://purl.org/dc/elements/1.1/"
   xmlns:cc="http://creativecommons.org/ns#"
   xmlns:rdf="http://www.w3.org/1999/02/22-rdf-syntax-ns#"
   xmlns:svg="http://www.w3.org/2000/svg"
   xmlns="http://www.w3.org/2000/svg"
   xmlns:sodipodi="http://sodipodi.sourceforge.net/DTD/sodipodi-0.dtd"
   xmlns:inkscape="http://www.inkscape.org/namespaces/inkscape"
   version="1.1"
   id="svg2"
   xml:space="preserve"
   width="112.05333"
   height="163.98666"
   viewBox="0 0 112.05333 163.98666"
   sodipodi:docname="Sk_resident_2[2].eps"><metadata
     id="metadata8"><rdf:RDF><cc:Work
         rdf:about=""><dc:format>image/svg+xml</dc:format><dc:type
           rdf:resource="http://purl.org/dc/dcmitype/StillImage" /></cc:Work></rdf:RDF></metadata><defs
     id="defs6" /><sodipodi:namedview
     pagecolor="#ffffff"
     bordercolor="#666666"
     borderopacity="1"
     objecttolerance="10"
     gridtolerance="10"
     guidetolerance="10"
     inkscape:pageopacity="0"
     inkscape:pageshadow="2"
     inkscape:window-width="640"
     inkscape:window-height="480"
     id="namedview4" /><g
     id="g10"
     inkscape:groupmode="layer"
     inkscape:label="ink_ext_XXXXXX"
     transform="matrix(1.3333333,0,0,-1.3333333,0,163.98667)"><g
       id="g12"
       transform="scale(0.1)"><path
         d="M 840.41,1229.94 H 0 V 629.578 h 840.41 v 600.362"
         style="fill:#bfdf14;fill-opacity:1;fill-rule:nonzero;stroke:none"
         id="path14" /><path
         d="m 245.781,1003.16 -67.09,16.33 c -11.418,2.66 -29.238,7.23 -29.238,28.81 0,24.66 26.172,33.01 48.164,33.01 50.059,0 54.629,-29.22 56.113,-41.72 h 31.934 v -51.328 c -11.711,6.843 -25.547,11.289 -39.883,14.898 M 209.355,838.973 c 14.395,0 49.825,2.519 76.309,21.855 V 846.16 h 53.438 l 0.058,64.504 22.305,23.106 48.574,-87.61 h 64.121 l -73.594,125.168 71.68,78.882 H 406.609 L 339.16,972.813 V 1121.5 h -53.496 v -23.52 c -16.277,17.49 -42.684,30.71 -83.848,30.71 -89.121,0 -105.859,-54.22 -105.859,-84.56 0,-41.7 22.422,-64.872 61.477,-74.345 l 55.359,-13.633 c 29.199,-7.207 50.078,-12.519 50.078,-34.121 0,-28.84 -30.371,-35.656 -57.676,-35.656 -50.058,0 -58.398,29.191 -58.398,44.738 H 91.7969 c 0,-34.133 17.4411,-92.14 117.5581,-92.14"
         style="fill:#5d6163;fill-opacity:1;fill-rule:nonzero;stroke:none"
         id="path16" /><path
         d="m 137.891,718.672 c -5.469,0 -9.7,0.469 -12.696,1.406 v 16.387 c 2.246,-1.027 4.422,-1.535 6.535,-1.535 4,0 6.915,1.75 8.719,5.254 l 0.379,0.781 -38.433,71.086 h 22.918 l 24.738,-51.379 18.699,51.379 h 22.02 l -33.18,-76.582 c -1.543,-3.633 -3.559,-6.711 -6.047,-9.231 -2.5,-2.519 -5,-4.414 -7.512,-5.672 -2.508,-1.269 -4.558,-1.894 -6.14,-1.894"
         style="fill:#5d6163;fill-opacity:1;fill-rule:nonzero;stroke:none"
         id="path18" /><path
         d="m 248.594,720.078 h -17.91 v 28.067 c -1.797,-1.036 -4.629,-2.344 -8.504,-3.918 -3.879,-1.571 -7.785,-2.352 -11.719,-2.352 -7.172,0 -12.824,1.895 -16.965,5.684 -4.148,3.796 -6.223,9.832 -6.223,18.125 v 22.539 h 17.922 v -22.024 c 0,-6.14 3.887,-9.219 11.66,-9.219 2.403,0 4.969,0.528 7.723,1.575 2.758,1.054 4.785,1.933 6.106,2.644 v 27.024 h 17.91 v -68.145"
         style="fill:#5d6163;fill-opacity:1;fill-rule:nonzero;stroke:none"
         id="path20" /><path
         d="m 306.516,753.262 c -1.953,-1.524 -6.028,-2.766 -12.2,-3.723 -2.558,-0.437 -4.707,-0.984 -6.433,-1.648 -1.731,-0.676 -3.117,-1.68 -4.16,-3.039 -1.047,-1.348 -1.567,-3.204 -1.567,-5.555 0,-2.813 0.864,-4.875 2.602,-6.203 1.726,-1.317 3.64,-1.981 5.75,-1.981 2.683,0 5.262,0.555 7.722,1.66 2.461,1.102 4.458,2.676 5.989,4.715 1.535,2.043 2.297,4.395 2.297,7.051 z m 17.547,-19.856 c 0,-3.711 0.339,-6.289 1.015,-7.734 0.676,-1.453 1.66,-2.41 2.957,-2.899 v -2.695 h -19.363 c -0.828,2.567 -1.387,5.274 -1.652,8.094 -2.899,-2.988 -5.957,-5.379 -9.168,-7.176 -3.204,-1.797 -7.5,-2.707 -12.879,-2.707 -3.606,0 -6.993,0.715 -10.149,2.129 -3.164,1.418 -5.715,3.613 -7.668,6.602 -1.941,2.98 -2.918,6.691 -2.918,11.125 0,4.277 0.84,7.957 2.532,11.043 1.687,3.085 4,5.5 6.941,7.238 2.937,1.738 6.406,2.898 10.383,3.484 l 16.14,2.434 c 4.192,0.566 6.282,2.351 6.282,5.371 0,3.308 -1.125,5.457 -3.371,6.453 -2.254,0.988 -5.059,1.477 -8.418,1.477 -3.965,0 -6.7,-0.891 -8.204,-2.688 -1.511,-1.797 -2.46,-4.051 -2.832,-6.785 h -17.265 c 0.644,6.551 2.429,11.57 5.359,15.058 2.934,3.485 6.477,5.821 10.637,7 4.16,1.184 8.984,1.77 14.465,1.77 4.043,0 8.093,-0.527 12.168,-1.594 4.058,-1.062 7.578,-3.066 10.554,-6.004 2.969,-2.941 4.454,-6.972 4.454,-12.101 v -36.895"
         style="fill:#5d6163;fill-opacity:1;fill-rule:nonzero;stroke:none"
         id="path22" /><path
         d="m 398.293,744.941 c -0.207,-2.277 -0.805,-4.843 -1.801,-7.714 -0.984,-2.864 -2.637,-5.754 -4.937,-8.672 -2.309,-2.922 -5.481,-5.364 -9.535,-7.325 -4.059,-1.953 -9,-2.941 -14.84,-2.941 -6.067,0 -11.172,1.035 -15.325,3.098 -4.152,2.07 -7.39,4.765 -9.746,8.105 -2.343,3.328 -4.004,6.961 -4.98,10.879 -0.984,3.926 -1.477,7.871 -1.477,11.856 0,7.546 1.145,14.148 3.43,19.812 2.285,5.656 5.859,10.07 10.742,13.223 4.871,3.164 11.043,4.738 18.516,4.738 4.265,0 8.594,-0.762 12.961,-2.297 4.363,-1.531 8.179,-4.246 11.441,-8.144 3.266,-3.895 5.156,-9.121 5.676,-15.672 h -18.164 c -1.316,7.343 -5.293,11.015 -11.914,11.015 -3.485,0 -6.297,-0.996 -8.438,-2.98 -2.129,-1.973 -3.632,-4.453 -4.504,-7.422 -0.855,-2.969 -1.296,-6.082 -1.296,-9.336 0,-3.691 0.253,-7.078 0.753,-10.176 0.504,-3.093 1.778,-5.867 3.836,-8.308 2.051,-2.434 5.125,-3.653 9.239,-3.653 2.734,0 5.019,0.703 6.867,2.129 1.844,1.414 3.191,3.067 4.043,4.969 0.855,1.895 1.289,3.496 1.289,4.816 h 18.164"
         style="fill:#5d6163;fill-opacity:1;fill-rule:nonzero;stroke:none"
         id="path24" /><path
         d="m 425.48,720.078 v 53.789 h -20.363 v 14.356 h 58.672 V 773.867 H 443.398 V 720.078 H 425.48"
         style="fill:#5d6163;fill-opacity:1;fill-rule:nonzero;stroke:none"
         id="path26" /><path
         d="m 534.797,720.078 h -17.91 v 26.895 h -25.492 v -26.895 h -17.918 v 68.145 h 17.918 v -26.895 h 25.492 v 26.895 h 17.91 v -68.145"
         style="fill:#5d6163;fill-opacity:1;fill-rule:nonzero;stroke:none"
         id="path28" /><path
         d="m 612.188,720.078 h -17.911 v 40.996 l -24.211,-40.996 h -19.199 v 68.145 h 17.922 v -40.996 l 24.199,40.996 h 19.2 v -68.145"
         style="fill:#5d6163;fill-opacity:1;fill-rule:nonzero;stroke:none"
         id="path30" /><path
         d="m 646.184,720.078 h -17.922 v 68.145 h 17.922 v -25.871 l 22.546,25.871 h 22.383 l -24.453,-26.399 25.488,-41.746 h -21.765 l -16.789,29.207 -7.41,-7.695 v -21.512"
         style="fill:#5d6163;fill-opacity:1;fill-rule:nonzero;stroke:none"
         id="path32" /></g></g></svg>
