<?xml version="1.0" encoding="UTF-8" standalone="no"?>
<svg
   xmlns:dc="http://purl.org/dc/elements/1.1/"
   xmlns:cc="http://creativecommons.org/ns#"
   xmlns:rdf="http://www.w3.org/1999/02/22-rdf-syntax-ns#"
   xmlns:svg="http://www.w3.org/2000/svg"
   xmlns="http://www.w3.org/2000/svg"
   xmlns:sodipodi="http://sodipodi.sourceforge.net/DTD/sodipodi-0.dtd"
   xmlns:inkscape="http://www.inkscape.org/namespaces/inkscape"
   version="1.1"
   id="svg2"
   xml:space="preserve"
   width="112.05333"
   height="163.98666"
   viewBox="0 0 112.05333 163.98666"
   sodipodi:docname="Sk_resident_2[2].eps"><metadata
     id="metadata8"><rdf:RDF><cc:Work
         rdf:about=""><dc:format>image/svg+xml</dc:format><dc:type
           rdf:resource="http://purl.org/dc/dcmitype/StillImage" /></cc:Work></rdf:RDF></metadata><defs
     id="defs6" /><sodipodi:namedview
     pagecolor="#ffffff"
     bordercolor="#666666"
     borderopacity="1"
     objecttolerance="10"
     gridtolerance="10"
     guidetolerance="10"
     inkscape:pageopacity="0"
     inkscape:pageshadow="2"
     inkscape:window-width="640"
     inkscape:window-height="480"
     id="namedview4" /><g
     id="g10"
     inkscape:groupmode="layer"
     inkscape:label="ink_ext_XXXXXX"
     transform="matrix(1.3333333,0,0,-1.3333333,0,80)"><g
       id="g12"
       transform="scale(0.1)"><path
         d="M 840.41,600.359 H 0 V 0 h 840.41 v 600.359"
         style="fill:#bfdf14;fill-opacity:1;fill-rule:nonzero;stroke:none"
         id="path34" /><path
         d="m 245.781,373.582 -67.09,16.328 c -11.418,2.656 -29.238,7.227 -29.238,28.809 0,24.66 26.172,33.008 48.164,33.008 50.059,0 54.629,-29.219 56.113,-41.719 h 31.934 V 358.68 c -11.711,6.847 -25.547,11.289 -39.883,14.902 M 209.355,209.391 c 14.395,0 49.825,2.519 76.309,21.859 v -14.668 h 53.438 l 0.058,64.5 22.305,23.106 48.574,-87.606 h 64.121 l -73.594,125.164 71.68,78.887 H 406.609 L 339.16,343.23 v 148.692 h -53.496 v -23.524 c -16.277,17.489 -42.684,30.711 -83.848,30.711 -89.121,0 -105.859,-54.218 -105.859,-84.558 0,-41.699 22.422,-64.875 61.477,-74.348 l 55.359,-13.633 c 29.199,-7.207 50.078,-12.519 50.078,-34.121 0,-28.836 -30.371,-35.652 -57.676,-35.652 -50.058,0 -58.398,29.187 -58.398,44.734 H 91.7969 c 0,-34.129 17.4411,-92.14 117.5581,-92.14"
         style="fill:#5d6163;fill-opacity:1;fill-rule:nonzero;stroke:none"
         id="path36" /><path
         d="m 128.137,142 h 22.547 c 5.078,0 8.828,0.98 11.242,2.93 2.398,1.941 3.609,5.152 3.609,9.609 0,3.191 -0.984,6 -2.937,8.422 -1.961,2.41 -5.469,3.621 -10.508,3.621 H 128.137 Z M 109.309,90.5 v 91.969 h 46.504 c 7.417,0 13.289,-1.489 17.617,-4.449 4.324,-2.981 7.293,-6.461 8.914,-10.43 1.609,-3.988 2.422,-7.699 2.422,-11.141 0,-5.148 -1.258,-9.711 -3.77,-13.679 -2.512,-3.969 -5.996,-6.711 -10.461,-8.211 2.883,-1.25 5.117,-2.59 6.711,-4 1.594,-1.418 2.82,-3.598 3.672,-6.539 0.859,-2.938 1.277,-7.2 1.277,-12.758 0,-5.211 0.071,-8.891 0.2,-11.024 0.117,-2.1364 0.457,-3.7692 1.011,-4.8786 0.547,-1.1094 1.516,-1.918 2.895,-2.418 V 90.5 h -21.274 c -1.343,4.5898 -2.031,10.781 -2.031,18.57 0,4.739 -0.281,8.262 -0.855,10.578 -0.578,2.301 -1.914,4.032 -4.016,5.153 -2.109,1.129 -5.488,1.687 -10.137,1.687 H 128.137 V 90.5 h -18.828"
         style="fill:#5d6163;fill-opacity:1;fill-rule:nonzero;stroke:none"
         id="path38" /><path
         d="m 213.469,131.371 h 27.781 c -0.461,5.027 -2.02,8.668 -4.707,10.93 -2.676,2.258 -5.723,3.39 -9.141,3.39 -8.183,0 -12.832,-4.769 -13.933,-14.32 z m 27,-20.871 h 18.445 c -2.168,-7.578 -6.043,-13.1016 -11.617,-16.5781 -5.567,-3.4727 -11.684,-5.211 -18.332,-5.211 -4.942,0 -9.461,0.6485 -13.574,1.961 -4.121,1.2969 -7.703,3.4101 -10.762,6.3086 -3.047,2.9101 -5.41,6.7895 -7.09,11.6405 -1.68,4.848 -2.519,10.641 -2.519,17.367 0,2.864 0.378,6.133 1.125,9.813 0.75,3.668 2.222,7.398 4.421,11.168 2.2,3.781 5.539,6.961 10.008,9.562 4.465,2.59 10.168,3.891 17.114,3.891 3.765,0 7.5,-0.551 11.167,-1.641 3.684,-1.101 7.09,-3 10.239,-5.722 3.152,-2.719 5.703,-6.59 7.664,-11.59 1.953,-5.008 2.937,-11.199 2.937,-18.571 v -3.187 h -46.734 c 0.254,-2.77 0.73,-5.301 1.441,-7.59 0.703,-2.289 2.219,-4.371 4.543,-6.242 2.325,-1.879 5.664,-2.82 10.02,-2.82 2.605,0 5.012,0.671 7.226,2.011 2.207,1.328 3.633,3.141 4.278,5.43"
         style="fill:#5d6163;fill-opacity:1;fill-rule:nonzero;stroke:none"
         id="path40" /><path
         d="m 327.773,137.91 h -17.519 c -0.481,2.789 -1.516,4.981 -3.113,6.559 -1.594,1.582 -4.575,2.383 -8.938,2.383 -7.351,0 -11.023,-2.223 -11.023,-6.672 0,-2.282 2.422,-4.051 7.273,-5.282 4.844,-1.226 10.02,-2.468 15.527,-3.726 5.5,-1.274 10.188,-3.332 14.051,-6.192 3.867,-2.871 5.805,-7.148 5.805,-12.839 0,-6.071 -1.621,-10.852 -4.887,-14.3597 -3.25,-3.5 -7.129,-5.8907 -11.636,-7.1602 -4.524,-1.2695 -8.965,-1.9102 -13.34,-1.9102 -8.989,0 -16.645,1.8399 -22.961,5.5079 -6.309,3.6718 -9.59,9.6792 -9.817,18.0432 h 18.45 c 0,-6.653 4.96,-9.981 14.875,-9.981 4.109,0 7.039,0.75 8.777,2.231 1.75,1.468 2.617,3.09 2.617,4.808 0,2.469 -2.519,4.328 -7.566,5.621 -5.051,1.278 -10.207,2.528 -15.461,3.75 -5.266,1.219 -9.785,3.239 -13.574,6.059 -3.79,2.832 -5.672,7.121 -5.672,12.879 0,3.711 0.867,7.293 2.605,10.75 1.738,3.461 4.668,6.34 8.789,8.621 4.121,2.281 9.492,3.422 16.121,3.422 19.309,0 29.516,-7.5 30.617,-22.512"
         style="fill:#5d6163;fill-opacity:1;fill-rule:nonzero;stroke:none"
         id="path42" /><path
         d="M 342.559,158.641 H 360.48 V 90.5 h -17.921 z m 17.921,24.738 v -16.641 h -17.921 v 16.641 h 17.921"
         style="fill:#5d6163;fill-opacity:1;fill-rule:nonzero;stroke:none"
         id="path44" /><path
         d="m 391.648,124.031 c 0,-5.121 1.172,-9.832 3.497,-14.133 2.328,-4.308 6.078,-6.449 11.25,-6.449 5.363,0 9.359,1.871 11.972,5.621 2.617,3.75 3.938,8.391 3.938,13.942 0,14.597 -5.125,21.898 -15.371,21.898 -5.301,0 -9.168,-1.98 -11.621,-5.941 -2.442,-3.949 -3.665,-8.93 -3.665,-14.938 z m 47.793,58.438 V 90.5 h -17.515 v 8.5586 h -0.246 c -3.946,-6.8867 -10.528,-10.3477 -19.746,-10.3477 -6.407,0 -11.778,1.6875 -16.106,5.0704 -4.324,3.3789 -7.515,7.8597 -9.558,13.4377 -2.04,5.57 -3.067,11.613 -3.067,18.113 0,5.668 0.762,10.738 2.266,15.207 1.511,4.449 3.586,8.16 6.211,11.109 2.636,2.954 5.644,5.153 9.035,6.602 3.387,1.449 6.988,2.172 10.808,2.172 8.594,0 15.176,-3.551 19.747,-10.66 h 0.253 v 32.707 h 17.918"
         style="fill:#5d6163;fill-opacity:1;fill-rule:nonzero;stroke:none"
         id="path46" /><path
         d="m 469.414,131.371 h 27.781 c -0.457,5.027 -2.019,8.668 -4.707,10.93 -2.675,2.258 -5.718,3.39 -9.136,3.39 -8.184,0 -12.832,-4.769 -13.938,-14.32 z M 496.418,110.5 h 18.445 c -2.168,-7.578 -6.047,-13.1016 -11.621,-16.5781 -5.566,-3.4727 -11.679,-5.211 -18.332,-5.211 -4.937,0 -9.461,0.6485 -13.57,1.961 -4.121,1.2969 -7.707,3.4101 -10.766,6.3086 -3.047,2.9101 -5.406,6.7895 -7.09,11.6405 -1.675,4.848 -2.515,10.641 -2.515,17.367 0,2.864 0.379,6.133 1.121,9.813 0.754,3.668 2.226,7.398 4.426,11.168 2.195,3.781 5.535,6.961 10.007,9.562 4.461,2.59 10.165,3.891 17.11,3.891 3.769,0 7.5,-0.551 11.172,-1.641 3.679,-1.101 7.09,-3 10.234,-5.722 3.152,-2.719 5.703,-6.59 7.664,-11.59 1.953,-5.008 2.942,-11.199 2.942,-18.571 v -3.187 h -46.739 c 0.254,-2.77 0.735,-5.301 1.446,-7.59 0.703,-2.289 2.214,-4.371 4.543,-6.242 2.324,-1.879 5.664,-2.82 10.015,-2.82 2.61,0 5.012,0.671 7.231,2.011 2.207,1.328 3.629,3.141 4.277,5.43"
         style="fill:#5d6163;fill-opacity:1;fill-rule:nonzero;stroke:none"
         id="path48" /><path
         d="M 589.18,137.629 V 90.5 h -17.918 v 41.371 c 0,2.359 -0.215,4.481 -0.637,6.359 -0.43,1.891 -1.516,3.551 -3.242,4.961 -1.731,1.418 -4.324,2.129 -7.781,2.129 -2.668,0 -5.071,-0.601 -7.2,-1.808 -2.121,-1.192 -3.797,-2.981 -5.031,-5.371 -1.226,-2.391 -1.844,-5.25 -1.844,-8.582 V 90.5 h -17.922 v 68.141 h 17.141 V 148.66 H 545 c 4.668,7.84 11.504,11.762 20.508,11.762 4.519,0 8.586,-0.871 12.168,-2.633 3.586,-1.75 6.394,-4.328 8.437,-7.75 2.051,-3.418 3.067,-7.559 3.067,-12.41"
         style="fill:#5d6163;fill-opacity:1;fill-rule:nonzero;stroke:none"
         id="path50" /><path
         d="m 625.012,177.09 v -18.449 h 11.16 V 145.82 h -11.16 v -37.019 c 0,-1.59 0.125,-2.731 0.371,-3.422 0.254,-0.68 0.894,-1.199 1.922,-1.559 1.035,-0.351 2.746,-0.531 5.144,-0.531 0.774,0 2.016,0.082 3.723,0.242 V 90 c -4.231,-0.1914 -7.063,-0.2812 -8.477,-0.2812 h -2.273 c -4.942,0 -8.762,0.582 -11.438,1.7617 -2.675,1.1679 -4.504,2.8281 -5.461,4.9492 -0.957,2.1289 -1.433,4.8003 -1.433,8.0113 v 41.379 h -9.231 v 12.821 h 9.231 v 18.449 h 17.922"
         style="fill:#5d6163;fill-opacity:1;fill-rule:nonzero;stroke:none"
         id="path52" /></g></g></svg>
