<?xml version="1.0"?>
<svg xmlns="http://www.w3.org/2000/svg" xmlns:xlink="http://www.w3.org/1999/xlink" version="1.1" id="Layer_1" x="0px" y="0px" viewBox="0 0 473.935 473.935" style="enable-background:new 0 0 473.935 473.935;" xml:space="preserve" width="512px" height="512px" class=""><g><circle style="fill:#F0C454" cx="236.967" cy="236.967" r="236.967" data-original="#3CB881" class="" data-old_color="#3CB881"/><path style="fill:#202121;" d="M317.322,87.827H157.956c-31.068,0-46.881,15.809-46.881,46.873v303.003  c3.839,2.417,7.738,4.748,11.723,6.937V147.599h228.511v296.93c4.393-2.425,8.681-5.018,12.898-7.708V134.701  C364.207,103.636,348.394,87.827,317.322,87.827z" data-original="#202121"/><path style="fill:#598DE0" d="M351.309,444.528v-296.93H122.798v297.046c33.863,18.653,72.759,29.291,114.154,29.291  C278.426,473.935,317.401,463.248,351.309,444.528z" data-original="#61A5B1" class="" data-old_color="#61A5B1"/><path d="M267.325,122.985c0,3.023-2.447,5.467-5.459,5.467H213.42c-3.023,0-5.47-2.443-5.47-5.467l0,0  c0-3.02,2.447-5.463,5.47-5.463h48.441C264.874,117.522,267.325,119.965,267.325,122.985L267.325,122.985z" data-original="#000000"/><path style="fill:#FFFFFF;" d="M434.478,310.097c0,12.251-9.946,22.193-22.2,22.193H243.98c-12.251,0-22.193-9.938-22.193-22.193  v-98.02c0-12.258,9.938-22.196,22.193-22.196h168.298c12.251,0,22.2,9.934,22.2,22.196V310.097z" data-original="#FFFFFF" class=""/><g>
	<path style="fill:#598DE0" d="M236.818,309.09c0,4.483,3.645,8.12,8.12,8.12h164.998c4.483,0,8.12-3.637,8.12-8.12l-0.157-86.252   l-89.852,49.354l-91.214-49.193L236.818,309.09z" data-original="#B7CAC4" class="active-path" data-old_color="#B7CAC4"/>
	<path style="fill:#598DE0" d="M418.055,218.625c0-4.475-3.637-8.116-8.12-8.116H244.937c-4.475,0-8.12,3.641-8.12,8.116   l91.229,48.744L418.055,218.625z" data-original="#B7CAC4" class="active-path" data-old_color="#B7CAC4"/>
</g></g> </svg>
