<?xml version="1.0"?>
<svg xmlns="http://www.w3.org/2000/svg" xmlns:xlink="http://www.w3.org/1999/xlink" version="1.1" id="Layer_1" x="0px" y="0px" viewBox="0 0 473.931 473.931" style="enable-background:new 0 0 473.931 473.931;" xml:space="preserve" width="512px" height="512px" class=""><g><circle style="fill:#EFC454" cx="236.966" cy="236.966" r="236.966" data-original="#EB9682" class="active-path" data-old_color="#EB9682"/><path style="fill:#CBBD7D;" d="M423.137,236.056c0,7.85-5.553,14.207-12.408,14.207h-64.328c-6.847,0-12.408-6.357-12.408-14.207  l0,0c0-7.85,5.56-14.215,12.408-14.215h64.325C417.58,221.841,423.137,228.21,423.137,236.056L423.137,236.056z" data-original="#CBBD7D" class=""/><path style="fill:#BFCEE6" d="M395.459,233.317c0-10.305-58.888-74.106-80.033-74.106H107.811  c-21.141,0-31.913,12.067-31.913,33.208v82.955c0,21.141,10.773,31.906,31.913,31.906H315.43  C336.571,307.281,395.459,243.615,395.459,233.317z M321.81,236.026c0-8.228,6.664-14.892,14.892-14.892  c8.221,0,14.888,6.664,14.888,14.892c0,8.221-6.664,14.888-14.888,14.888C328.474,250.915,321.81,244.251,321.81,236.026z" data-original="#C84027" class="" data-old_color="#C84027"/><path style="fill:#5A8DE0" d="M393.128,230.459c0-8.221-57.223-71.629-77.862-71.629H111.377  c-20.632,0-31.139,10.511-31.139,31.139v80.975c0,20.64,10.511,31.146,31.139,31.146h203.889  C335.905,302.095,393.128,238.679,393.128,230.459z M321.496,232.543c0-8.03,6.503-14.537,14.529-14.537  c8.03,0,14.544,6.503,14.544,14.537c0,8.019-6.511,14.529-14.544,14.529C327.999,247.072,321.496,240.558,321.496,232.543z" data-original="#DD5231" class="" data-old_color="#DD5231"/><path style="fill:#5A8DE0" d="M349.039,226.171c0.95,1.931,1.527,4.079,1.527,6.372c0,8.019-6.511,14.529-14.544,14.529  c-8.026,0-14.529-6.511-14.529-14.529c0-2.601,0.737-5.014,1.938-7.124c-92.201-2.193-243.192-1.28-243.192-1.28v46.809  c0,20.64,10.511,31.146,31.139,31.146h203.889c20.64,0,77.862-63.412,77.862-71.636C393.128,228.517,375.684,227.14,349.039,226.171  z" data-original="#CC4028" class="" data-old_color="#CC4028"/><g>
	<path style="fill:#FFF5F4;" d="M152.35,240.977c0,3.005-0.775,5.691-2.316,8.09c-1.549,2.391-3.82,4.262-6.788,5.613   c-2.99,1.358-6.511,2.032-10.597,2.032c-4.898,0-8.947-0.92-12.131-2.769c-2.245-1.336-4.079-3.113-5.497-5.328   c-1.403-2.23-2.11-4.385-2.11-6.496c0-1.205,0.423-2.253,1.272-3.121c0.842-0.861,1.931-1.31,3.229-1.31   c1.066,0,1.957,0.344,2.698,1.014c0.73,0.674,1.351,1.688,1.878,3.02c0.629,1.572,1.31,2.892,2.047,3.963   c0.73,1.051,1.77,1.938,3.098,2.615c1.328,0.696,3.076,1.029,5.238,1.029c2.982,0,5.407-0.688,7.263-2.077   c1.863-1.381,2.791-3.113,2.791-5.19c0-1.65-0.498-2.99-1.504-4.011c-1.003-1.036-2.301-1.818-3.888-2.361   c-1.594-0.543-3.719-1.111-6.38-1.732c-3.573-0.827-6.556-1.811-8.962-2.922c-2.398-1.111-4.303-2.638-5.714-4.569   c-1.411-1.931-2.118-4.333-2.118-7.199c0-2.72,0.745-5.16,2.238-7.278c1.489-2.11,3.648-3.749,6.469-4.89   c2.821-1.141,6.133-1.702,9.946-1.702c3.046,0,5.687,0.374,7.899,1.141c2.23,0.745,4.064,1.747,5.538,2.997   c1.471,1.265,2.544,2.574,3.214,3.955c0.681,1.373,1.014,2.713,1.014,4.026c0,1.182-0.423,2.279-1.265,3.229   c-0.857,0.958-1.908,1.441-3.173,1.441c-1.149,0-2.024-0.292-2.615-0.861c-0.599-0.576-1.25-1.519-1.949-2.829   c-0.906-1.878-1.987-3.334-3.252-4.385c-1.257-1.044-3.296-1.572-6.095-1.572c-2.593,0-4.685,0.576-6.271,1.71   c-1.594,1.141-2.398,2.522-2.398,4.108c0,0.995,0.277,1.856,0.819,2.578c0.543,0.715,1.287,1.336,2.23,1.863   c0.95,0.513,1.916,0.913,2.881,1.212c0.973,0.299,2.578,0.722,4.808,1.295c2.799,0.644,5.328,1.366,7.6,2.163   c2.26,0.782,4.195,1.747,5.796,2.881c1.587,1.119,2.829,2.544,3.719,4.277C151.904,236.36,152.35,238.47,152.35,240.977z" data-original="#FFF5F4" class=""/>
	<path style="fill:#FFF5F4;" d="M192.622,250.249l-2.376-6.226h-20.164l-2.376,6.357c-0.92,2.477-1.717,4.157-2.369,5.029   c-0.659,0.868-1.732,1.302-3.214,1.302c-1.265,0-2.383-0.46-3.353-1.388c-0.965-0.92-1.456-1.972-1.456-3.136   c0-0.688,0.116-1.381,0.337-2.11c0.228-0.707,0.599-1.717,1.119-3.005l12.696-32.228c0.359-0.928,0.797-2.039,1.302-3.341   c0.513-1.295,1.051-2.369,1.631-3.222c0.576-0.861,1.328-1.557,2.264-2.092c0.943-0.528,2.099-0.79,3.472-0.79   c1.403,0,2.567,0.262,3.502,0.79c0.943,0.535,1.695,1.212,2.264,2.054c0.576,0.834,1.059,1.725,1.456,2.683   c0.393,0.965,0.898,2.253,1.512,3.85l12.965,32.018c1.014,2.44,1.527,4.202,1.527,5.313c0,1.156-0.483,2.2-1.441,3.166   c-0.958,0.965-2.118,1.441-3.472,1.441c-0.79,0-1.471-0.138-2.032-0.423c-0.561-0.269-1.036-0.659-1.426-1.149   c-0.382-0.49-0.797-1.227-1.235-2.238C193.318,251.895,192.936,251.016,192.622,250.249z M172.716,236.476h14.829l-7.476-20.479   L172.716,236.476z" data-original="#FFF5F4" class=""/>
	<path style="fill:#FFF5F4;" d="M220.584,211.488v36.123h20.381c1.616,0,2.866,0.389,3.734,1.182c0.868,0.79,1.31,1.777,1.31,2.975   c0,1.22-0.438,2.208-1.287,2.96c-0.861,0.76-2.11,1.141-3.757,1.141h-24.269c-2.193,0-3.772-0.49-4.73-1.463   c-0.958-0.965-1.433-2.537-1.433-4.707v-38.211c0-2.032,0.445-3.551,1.366-4.569c0.913-1.01,2.11-1.519,3.603-1.519   c1.512,0,2.739,0.498,3.667,1.504C220.117,207.907,220.584,209.434,220.584,211.488z" data-original="#FFF5F4" class=""/>
	<path style="fill:#FFF5F4;" d="M285.305,214.003h-22.649v12.183h20.849c1.534,0,2.683,0.337,3.435,1.029   c0.76,0.688,1.141,1.594,1.141,2.72c0,1.134-0.374,2.054-1.126,2.761c-0.745,0.707-1.901,1.066-3.45,1.066h-20.849v14.11h23.423   c1.579,0,2.769,0.374,3.573,1.104c0.804,0.737,1.197,1.71,1.197,2.922c0,1.182-0.393,2.125-1.197,2.866   c-0.804,0.73-1.994,1.104-3.573,1.104h-27.319c-2.185,0-3.757-0.49-4.715-1.463c-0.965-0.965-1.448-2.537-1.448-4.707v-37.294   c0-1.448,0.221-2.623,0.651-3.543c0.423-0.913,1.096-1.579,2.009-1.994c0.913-0.415,2.084-0.621,3.502-0.621h26.544   c1.602,0,2.784,0.352,3.566,1.066c0.782,0.707,1.171,1.639,1.171,2.791c0,1.171-0.389,2.11-1.171,2.829   C288.089,213.636,286.907,214.003,285.305,214.003z" data-original="#FFF5F4" class=""/>
</g><path style="fill:#DFD48A;" d="M423.137,238.975c0,6.885-5.575,12.46-12.453,12.46h-64.628c-6.877,0-12.453-5.575-12.453-12.46l0,0  c0-6.877,5.575-12.46,12.453-12.46h64.624C417.562,226.511,423.137,232.098,423.137,238.975L423.137,238.975z" data-original="#DFD48A" class=""/></g> </svg>
