<?xml version="1.0" encoding="UTF-8"?> <svg xmlns="http://www.w3.org/2000/svg" xmlns:xlink="http://www.w3.org/1999/xlink" width="352px" height="512px" viewBox="0 0 352 512"> <!-- Generator: Sketch 52.4 (67378) - http://www.bohemiancoding.com/sketch --> <title>terminal</title> <desc>Created with Sketch.</desc> <g id="Page-1" stroke="none" stroke-width="1" fill="none" fill-rule="evenodd"> <g id="terminal" fill="#FFFFFF"> <path d="M106.777344,309.320312 L78.757812,309.320312 C74.613281,309.320312 71.25,312.679688 71.25,316.828125 L71.25,344.847656 C71.25,348.996094 74.613281,352.355469 78.757812,352.355469 L106.777344,352.355469 C110.925781,352.355469 114.285156,348.996094 114.285156,344.847656 L114.285156,316.828125 C114.285156,312.679688 110.925781,309.320312 106.777344,309.320312 Z M99.273438,337.339844 L86.265625,337.339844 L86.265625,324.332031 L99.273438,324.332031 L99.273438,337.339844 Z" id="Shape" fill-rule="nonzero"></path> <path d="M160.640625,309.320312 L132.621094,309.320312 C128.472656,309.320312 125.113281,312.679688 125.113281,316.828125 L125.113281,344.847656 C125.113281,348.996094 128.472656,352.355469 132.621094,352.355469 L160.640625,352.355469 C164.785156,352.355469 168.148438,348.996094 168.148438,344.847656 L168.148438,316.828125 C168.148438,312.679688 164.785156,309.320312 160.640625,309.320312 Z M153.132812,337.339844 L140.125,337.339844 L140.125,324.332031 L153.132812,324.332031 L153.132812,337.339844 Z" id="Shape" fill-rule="nonzero"></path> <path d="M214.503906,309.320312 L186.480469,309.320312 C182.335938,309.320312 178.976562,312.679688 178.976562,316.828125 L178.976562,344.847656 C178.976562,348.996094 182.335938,352.355469 186.480469,352.355469 L214.503906,352.355469 C218.648438,352.355469 222.007812,348.996094 222.007812,344.847656 L222.007812,316.828125 C222.007812,312.679688 218.648438,309.320312 214.503906,309.320312 Z M206.996094,337.339844 L193.988281,337.339844 L193.988281,324.332031 L206.996094,324.332031 L206.996094,337.339844 Z" id="Shape" fill-rule="nonzero"></path> <path d="M106.777344,363.648438 L78.757812,363.648438 C74.613281,363.648438 71.25,367.007812 71.25,371.15625 L71.25,399.175781 C71.25,403.324219 74.613281,406.683594 78.757812,406.683594 L106.777344,406.683594 C110.925781,406.683594 114.285156,403.324219 114.285156,399.175781 L114.285156,371.15625 C114.285156,367.007812 110.925781,363.648438 106.777344,363.648438 Z M99.273438,391.667969 L86.265625,391.667969 L86.265625,378.664062 L99.273438,378.664062 L99.273438,391.667969 Z" id="Shape" fill-rule="nonzero"></path> <path d="M160.640625,363.648438 L132.621094,363.648438 C128.472656,363.648438 125.113281,367.007812 125.113281,371.15625 L125.113281,399.175781 C125.113281,403.324219 128.472656,406.683594 132.621094,406.683594 L160.640625,406.683594 C164.785156,406.683594 168.148438,403.324219 168.148438,399.175781 L168.148438,371.15625 C168.148438,367.007812 164.785156,363.648438 160.640625,363.648438 Z M153.132812,391.667969 L140.125,391.667969 L140.125,378.664062 L153.132812,378.664062 L153.132812,391.667969 Z" id="Shape" fill-rule="nonzero"></path> <path d="M214.503906,363.648438 L186.480469,363.648438 C182.335938,363.648438 178.976562,367.007812 178.976562,371.15625 L178.976562,399.175781 C178.976562,403.324219 182.335938,406.683594 186.480469,406.683594 L214.503906,406.683594 C218.648438,406.683594 222.007812,403.324219 222.007812,399.175781 L222.007812,371.15625 C222.007812,367.007812 218.648438,363.648438 214.503906,363.648438 Z M206.996094,391.667969 L193.988281,391.667969 L193.988281,378.664062 L206.996094,378.664062 L206.996094,391.667969 Z" id="Shape" fill-rule="nonzero"></path> <path d="M106.777344,417.976562 L78.757812,417.976562 C74.613281,417.976562 71.25,421.335938 71.25,425.484375 L71.25,453.503906 C71.25,457.652344 74.613281,461.011719 78.757812,461.011719 L106.777344,461.011719 C110.925781,461.011719 114.285156,457.652344 114.285156,453.503906 L114.285156,425.484375 C114.285156,421.335938 110.925781,417.976562 106.777344,417.976562 Z M99.273438,446 L86.265625,446 L86.265625,432.992188 L99.273438,432.992188 L99.273438,446 Z" id="Shape" fill-rule="nonzero"></path> <path d="M160.640625,417.976562 L132.621094,417.976562 C128.472656,417.976562 125.113281,421.335938 125.113281,425.484375 L125.113281,453.503906 C125.113281,457.652344 128.472656,461.011719 132.621094,461.011719 L160.640625,461.011719 C164.785156,461.011719 168.148438,457.652344 168.148438,453.503906 L168.148438,425.484375 C168.148438,421.335938 164.785156,417.976562 160.640625,417.976562 Z M153.132812,446 L140.125,446 L140.125,432.992188 L153.132812,432.992188 L153.132812,446 Z" id="Shape" fill-rule="nonzero"></path> <path d="M214.503906,417.976562 L186.480469,417.976562 C182.335938,417.976562 178.976562,421.335938 178.976562,425.484375 L178.976562,453.503906 C178.976562,457.652344 182.335938,461.011719 186.480469,461.011719 L214.503906,461.011719 C218.648438,461.011719 222.007812,457.652344 222.007812,453.503906 L222.007812,425.484375 C222.007812,421.335938 218.648438,417.976562 214.503906,417.976562 Z M206.996094,446 L193.988281,446 L193.988281,432.992188 L206.996094,432.992188 L206.996094,446 Z" id="Shape" fill-rule="nonzero"></path> <path d="M306.523438,182.042969 L306.523438,399.175781 C306.523438,403.324219 309.882812,406.683594 314.027344,406.683594 C318.175781,406.683594 321.535156,403.324219 321.535156,399.175781 L321.535156,182.042969 C321.535156,177.894531 318.175781,174.535156 314.027344,174.535156 C309.882812,174.535156 306.523438,177.894531 306.523438,182.042969 Z" id="Path"></path> <path d="M76.234375,157.519531 L146.628906,157.519531 C150.773438,157.519531 154.136719,154.160156 154.136719,150.011719 C154.136719,145.863281 150.773438,142.503906 146.628906,142.503906 L76.234375,142.503906 C63.265625,142.503906 52.714844,153.054688 52.714844,166.027344 L52.714844,231.417969 C52.714844,244.386719 63.265625,254.9375 76.234375,254.9375 L217.027344,254.9375 C229.996094,254.9375 240.546875,244.386719 240.546875,231.417969 L240.546875,166.027344 C240.546875,153.054688 229.996094,142.503906 217.027344,142.503906 L174.652344,142.503906 C170.507812,142.503906 167.148438,145.863281 167.148438,150.011719 C167.148438,154.160156 170.507812,157.519531 174.652344,157.519531 L217.027344,157.519531 C221.71875,157.519531 225.535156,161.335938 225.535156,166.027344 L225.535156,231.417969 C225.535156,236.109375 221.71875,239.925781 217.027344,239.925781 L76.234375,239.925781 C71.542969,239.925781 67.726562,236.109375 67.726562,231.417969 L67.726562,166.027344 C67.726562,161.335938 71.542969,157.519531 76.234375,157.519531 Z" id="Path"></path> <path d="M343.804688,271.035156 C347.953125,271.035156 351.3125,267.675781 351.3125,263.53125 L351.3125,158.1875 C351.3125,143.285156 339.1875,131.164062 324.289062,131.164062 L292.761719,131.164062 L292.761719,102.886719 C292.761719,84.261719 277.605469,69.105469 258.980469,69.105469 L240.546875,69.105469 L240.546875,62.269531 C240.546875,51.320312 231.640625,42.417969 220.695312,42.417969 L199.550781,42.417969 L199.550781,12.191406 C199.550781,8.179688 197.429688,4.585938 194.019531,2.816406 C187.234375,-0.703125 182.28125,5.132812 180.6875,5.875 L174.886719,1.785156 C171.507812,-0.59375 167.144531,-0.59375 163.765625,1.789062 L157.972656,5.875 L152.179688,1.785156 C148.800781,-0.59375 144.4375,-0.59375 141.058594,1.789062 L135.269531,5.871094 L129.480469,1.789062 C126.101562,-0.59375 121.738281,-0.59375 118.359375,1.789062 L112.566406,5.875 L109.222656,3.515625 C109.222656,3.511719 109.21875,3.511719 109.21875,3.511719 C102.667969,-1.105469 93.707031,3.734375 93.707031,12.195312 L93.707031,42.417969 L72.566406,42.417969 C61.617188,42.417969 52.714844,51.320312 52.714844,62.269531 L52.714844,69.105469 L34.28125,69.105469 C15.65625,69.105469 0.5,84.261719 0.5,102.886719 L0.5,404.238281 C0.5,408.382812 3.863281,411.742188 8.007812,411.742188 C12.152344,411.742188 15.515625,408.382812 15.515625,404.238281 L15.515625,102.886719 C15.515625,92.539062 23.933594,84.121094 34.28125,84.121094 L52.714844,84.121094 L52.714844,109.644531 C52.714844,120.589844 61.617188,129.492188 72.566406,129.492188 L220.695312,129.492188 C231.640625,129.492188 240.546875,120.589844 240.546875,109.644531 L240.546875,84.121094 L258.980469,84.121094 C269.328125,84.121094 277.746094,92.539062 277.746094,102.886719 L277.746094,478.21875 C277.746094,488.566406 269.328125,496.988281 258.980469,496.988281 L251.222656,496.988281 L251.222656,301.480469 C251.222656,287.039062 239.476562,275.289062 225.03125,275.289062 L63.222656,275.289062 C48.78125,275.289062 37.03125,287.039062 37.03125,301.480469 L37.03125,496.988281 L34.28125,496.988281 C23.933594,496.988281 15.511719,488.566406 15.511719,478.21875 L15.511719,432.261719 C15.511719,428.117188 12.152344,424.753906 8.007812,424.753906 C3.859375,424.753906 0.5,428.117188 0.5,432.261719 L0.5,478.21875 C0.5,496.84375 15.652344,512 34.28125,512 L258.980469,512 C277.605469,512 292.757812,496.84375 292.757812,478.21875 L292.757812,454.449219 L324.285156,454.449219 C339.1875,454.449219 351.3125,442.324219 351.3125,427.425781 L351.3125,291.554688 C351.3125,287.40625 347.949219,284.046875 343.804688,284.046875 C339.65625,284.046875 336.296875,287.40625 336.296875,291.554688 L336.296875,427.425781 C336.296875,434.046875 330.910156,439.433594 324.285156,439.433594 L292.757812,439.433594 L292.757812,146.175781 L324.285156,146.175781 C330.910156,146.175781 336.296875,151.5625 336.296875,158.1875 L336.296875,263.53125 C336.296875,267.675781 339.660156,271.035156 343.804688,271.035156 Z M108.722656,21.296875 C115.746094,24.390625 120.25,18.171875 123.917969,16.238281 L129.703125,20.320312 C133.082031,22.707031 137.453125,22.707031 140.828125,20.320312 L146.621094,16.238281 L152.414062,20.324219 C155.792969,22.703125 160.15625,22.703125 163.535156,20.324219 L169.328125,16.234375 C173.015625,18.179688 177.511719,24.394531 184.539062,21.289062 L184.539062,84.621094 L108.722656,84.621094 L108.722656,21.296875 Z M225.535156,109.644531 C225.535156,112.308594 223.363281,114.480469 220.695312,114.480469 L72.566406,114.480469 C69.898438,114.480469 67.726562,112.308594 67.726562,109.644531 L67.726562,62.269531 C67.726562,59.601562 69.898438,57.429688 72.566406,57.429688 L93.707031,57.429688 L93.707031,84.621094 L84.324219,84.621094 C80.179688,84.621094 76.820312,87.980469 76.820312,92.128906 C76.820312,96.273438 80.179688,99.632812 84.324219,99.632812 L208.9375,99.632812 C213.082031,99.632812 216.441406,96.273438 216.441406,92.128906 C216.441406,87.980469 213.082031,84.621094 208.9375,84.621094 L199.550781,84.621094 L199.550781,57.429688 L220.695312,57.429688 C223.363281,57.429688 225.535156,59.601562 225.535156,62.269531 L225.535156,109.644531 Z M52.046875,496.988281 L52.046875,301.480469 C52.046875,295.316406 57.058594,290.304688 63.222656,290.304688 L225.035156,290.304688 C231.195312,290.304688 236.210938,295.316406 236.210938,301.480469 L236.210938,496.988281 L52.046875,496.988281 Z" id="Shape" fill-rule="nonzero"></path> </g> </g> </svg> 