<?xml version="1.0" encoding="UTF-8"?> <svg xmlns="http://www.w3.org/2000/svg" xmlns:xlink="http://www.w3.org/1999/xlink" width="512px" height="512px" viewBox="0 0 512 512"> <!-- Generator: Sketch 52.4 (67378) - http://www.bohemiancoding.com/sketch --> <title>check-mark</title> <desc>Created with Sketch.</desc> <g id="Page-1" stroke="none" stroke-width="1" fill="none" fill-rule="evenodd"> <g id="check-mark" fill="#FFFFFF"> <path d="M428,0 C381.682,0 344,37.683 344,84 C344,130.317 381.682,168 428,168 C474.318,168 512,130.317 512,84 C512,37.683 474.318,0 428,0 Z M428,148 C392.71,148 364,119.29 364,84 C364,48.71 392.71,20 428,20 C463.29,20 492,48.71 492,84 C492,119.29 463.29,148 428,148 Z" id="Shape" fill-rule="nonzero"></path> <path d="M316.07,150.93 C314.21,149.07 311.63,148 309,148 C306.37,148 303.79,149.069 301.93,150.93 C300.07,152.79 299,155.37 299,158 C299,160.63 300.07,163.21 301.93,165.069 C303.79,166.929 306.37,168 309,168 C311.63,168 314.21,166.93 316.07,165.069 C317.93,163.21 319,160.63 319,158 C319,155.37 317.93,152.79 316.07,150.93 Z" id="Path"></path> <path d="M400,197.167 C394.477,197.167 390,201.645 390,207.167 L390,252 L138,252 L138,168 L256,168 C261.523,168 266,163.522 266,158 C266,152.478 261.523,148 256,148 L128,148 C122.477,148 118,152.478 118,158 L118,262 C118,267.522 122.477,272 128,272 L400,272 C405.523,272 410,267.522 410,262 L410,207.167 C410,201.645 405.523,197.167 400,197.167 Z" id="Path"></path> <path d="M400,356 L288.232,356 C282.709,356 278.232,360.478 278.232,366 C278.232,371.522 282.709,376 288.232,376 L400,376 C405.523,376 410,371.522 410,366 C410,360.478 405.523,356 400,356 Z" id="Path"></path> <path d="M400,304 L288.232,304 C282.709,304 278.232,308.478 278.232,314 C278.232,319.522 282.709,324 288.232,324 L400,324 C405.523,324 410,319.522 410,314 C410,308.478 405.523,304 400,304 Z" id="Path"></path> <path d="M400,408 L288.232,408 C282.709,408 278.232,412.478 278.232,418 C278.232,423.522 282.709,428 288.232,428 L400,428 C405.523,428 410,423.522 410,418 C410,412.478 405.523,408 400,408 Z" id="Path"></path> <path d="M239.768,304 L183.884,304 C178.361,304 173.884,308.478 173.884,314 C173.884,319.522 178.361,324 183.884,324 L229.768,324 L229.768,408 L128,408 C122.477,408 118,412.478 118,418 C118,423.522 122.477,428 128,428 L239.768,428 C245.291,428 249.768,423.522 249.768,418 L249.768,314 C249.768,308.478 245.291,304 239.768,304 Z" id="Path"></path> <path d="M448,201.5 C442.477,201.5 438,205.978 438,211.5 L438,297.807 C438,303.329 442.477,307.807 448,307.807 C453.523,307.807 458,303.329 458,297.807 L458,211.5 C458,205.978 453.523,201.5 448,201.5 Z" id="Path"></path> <path d="M455.07,330.93 C453.21,329.07 450.63,328 448,328 C445.37,328 442.79,329.069 440.93,330.93 C439.07,332.79 438,335.37 438,338 C438,340.63 439.07,343.21 440.93,345.069 C442.79,346.929 445.37,348 448,348 C450.63,348 453.21,346.93 455.07,345.069 C456.93,343.21 458,340.63 458,338 C458,335.37 456.93,332.79 455.07,330.93 Z" id="Path"></path> <path d="M448,372.689 C442.477,372.689 438,377.167 438,382.689 L438,482 C438,487.514 433.514,492 428,492 L100,492 C94.486,492 90,487.514 90,482 L90,422.893 L150.504,375.855 C161.379,367.402 166.406,353.77 163.626,340.28 C161.57,330.301 155.341,321.638 146.537,316.511 C137.733,311.387 127.124,310.244 117.433,313.379 L76.922,326.485 C71.667,328.185 68.786,333.823 70.485,339.078 C72.185,344.333 77.824,347.215 83.078,345.515 L123.589,332.409 C127.943,331.001 132.518,331.493 136.473,333.796 C140.428,336.099 143.115,339.835 144.038,344.317 C145.268,350.289 143.043,356.323 138.229,360.066 L73.862,410.106 C71.425,412 70,414.913 70,418 L70,482 L70,485.136 C70,485.943 70.098,486.186 70.279,486.033 C72.256,500.674 84.826,512 100,512 L428,512 C444.542,512 458,498.542 458,482 L458,382.689 C458,377.167 453.523,372.689 448,372.689 Z" id="Path"></path> <path d="M304.333,68 L100,68 C83.458,68 70,81.458 70,98 L70,220.334 L1.649,324.073 C0.574,325.707 0,327.619 0,329.575 L0,502 C0,507.522 4.477,512 10,512 C15.523,512 20,507.522 20,502 L20,332.573 L70,256.686 L70,297.807 C70,303.329 74.477,307.807 80,307.807 C85.523,307.807 90,303.329 90,297.807 L90,98 C90,92.486 94.486,88 100,88 L304.333,88 C309.856,88 314.333,83.522 314.333,78 C314.333,72.478 309.856,68 304.333,68 Z" id="Path"></path> <path d="M465.899,60.773 C461.993,56.87 455.662,56.869 451.756,60.773 L426,86.53 L416.657,77.187 C412.752,73.283 406.42,73.283 402.515,77.187 C398.61,81.093 398.61,87.424 402.515,91.33 L418.929,107.743 C420.882,109.695 423.441,110.672 426,110.672 C428.559,110.672 431.119,109.695 433.071,107.743 L465.899,74.916 C469.804,71.011 469.805,64.679 465.899,60.773 Z" id="Path"></path> </g> </g> </svg> 