<svg width="120" height="120" viewBox="0 0 120 120" fill="none" xmlns="http://www.w3.org/2000/svg">
<path d="M97.5 49.2619V16.875C97.497 14.3895 96.5083 12.0067 94.7508 10.2492C92.9933 8.49165 90.6105 7.50298 88.125 7.5H82.5V3.75H78.75V7.5H67.5V3.75H63.75V7.5H52.5V3.75H48.75V7.5H37.5V3.75H33.75V7.5H22.5V3.75H18.75V7.5H13.125C10.6395 7.50298 8.25667 8.49165 6.49916 10.2492C4.74165 12.0067 3.75298 14.3895 3.75 16.875V91.875C3.75298 94.3605 4.74165 96.7433 6.49916 98.5008C8.25667 100.258 10.6395 101.247 13.125 101.25H51.6319C54.7405 105.622 58.7968 109.235 63.498 111.819C68.1991 114.403 73.4234 115.891 78.7804 116.172C84.1375 116.453 89.4888 115.52 94.4346 113.442C99.3803 111.364 103.793 108.196 107.342 104.173C110.891 100.151 113.485 95.378 114.93 90.212C116.375 85.0459 116.635 79.62 115.688 74.3397C114.742 69.0594 112.614 64.0612 109.465 59.7187C106.315 55.3761 102.225 51.8015 97.5 49.2619V49.2619ZM13.125 11.25H18.75V15H22.5V11.25H33.75V15H37.5V11.25H48.75V15H52.5V11.25H63.75V15H67.5V11.25H78.75V15H82.5V11.25H88.125C89.6168 11.25 91.0476 11.8426 92.1025 12.8975C93.1574 13.9524 93.75 15.3832 93.75 16.875V22.5H7.5V16.875C7.5 15.3832 8.09263 13.9524 9.14752 12.8975C10.2024 11.8426 11.6332 11.25 13.125 11.25V11.25ZM13.125 97.5C11.6332 97.5 10.2024 96.9074 9.14752 95.8525C8.09263 94.7976 7.5 93.3668 7.5 91.875V26.25H93.75V47.5369C86.9617 44.8371 79.5072 44.2914 72.3981 45.9738C65.2891 47.6562 58.8699 51.4853 54.0117 56.9413C49.1536 62.3973 46.0919 69.2159 45.2422 76.4718C44.3924 83.7276 45.7958 91.0692 49.2619 97.5H13.125ZM80.625 112.5C74.3207 112.5 68.158 110.631 62.9162 107.128C57.6744 103.626 53.5889 98.6474 51.1763 92.823C48.7638 86.9986 48.1326 80.5896 49.3625 74.4065C50.5924 68.2234 53.6282 62.5438 58.086 58.086C62.5438 53.6282 68.2234 50.5924 74.4065 49.3625C80.5896 48.1326 86.9986 48.7638 92.823 51.1763C98.6474 53.5889 103.626 57.6744 107.128 62.9162C110.631 68.158 112.5 74.3207 112.5 80.625C112.491 89.0759 109.129 97.1779 103.154 103.154C97.1779 109.129 89.0759 112.491 80.625 112.5V112.5Z" fill="#2B84E0"/>
<path d="M90.4803 67.8325L88.3255 70.1602C92.9244 73.1757 95.5968 78.7006 94.6886 84.4751C94.0901 88.2813 92.0444 91.6268 88.9297 93.8949C86.2109 95.8748 82.9604 96.8274 79.6457 96.6378L80.2149 96.0403C80.2039 96.0398 80.1919 96.0414 80.181 96.0409L82.3373 93.7785L80.346 91.878L76.0698 96.3673L76.0687 96.3657L74.2236 98.3033L76.2139 100.202L76.215 100.202L80.7027 104.478L82.5494 102.541L79.643 99.7718C83.6205 99.9598 87.5113 98.8041 90.7748 96.4279C94.5669 93.6672 97.0565 89.5947 97.7855 84.9613C98.8598 78.1183 95.8078 71.5619 90.4803 67.8325Z" fill="#2B84E0"/>
<path d="M66.3115 80.0033C66.91 76.1971 68.9557 72.8516 72.0704 70.5834C74.7892 68.6036 78.0397 67.651 81.3544 67.8406L80.7852 68.438C80.7961 68.4385 80.8081 68.437 80.8191 68.4375L78.6627 70.6999L80.6541 72.6004L84.9303 68.1111L84.9313 68.1127L86.7764 66.1751L84.7861 64.2762L84.7851 64.2767L80.2974 60L78.4507 61.9376L81.357 64.7065C77.3796 64.5185 73.4888 65.6743 70.2253 68.0505C66.4332 70.8111 63.9436 74.8836 63.2146 79.5171C62.1387 86.3607 65.1913 92.917 70.5182 96.6464L72.673 94.3187C68.0757 91.3022 65.4033 85.7778 66.3115 80.0033Z" fill="#2B84E0"/>
</svg>
