<?xml version="1.0" encoding="iso-8859-1"?>
<!-- Generator: Adobe Illustrator 19.0.0, SVG Export Plug-In . SVG Version: 6.00 Build 0)  -->
<svg version="1.1" id="Layer_1" xmlns="http://www.w3.org/2000/svg" xmlns:xlink="http://www.w3.org/1999/xlink" x="0px" y="0px"
	 viewBox="0 0 496.159 496.159" style="enable-background:new 0 0 496.159 496.159;" xml:space="preserve">
<path style="fill:#EFC454;" d="M248.083,0.003C111.071,0.003,0,111.063,0,248.085c0,137.001,111.07,248.07,248.083,248.07
	c137.006,0,248.076-111.069,248.076-248.07C496.159,111.062,385.089,0.003,248.083,0.003z"/>
<linearGradient id="SVGID_1_" gradientUnits="userSpaceOnUse" x1="113.563" y1="147.6817" x2="147.973" y2="147.6817" gradientTransform="matrix(1 0 0 -1 0 498.159)">
	<stop  offset="0" style="stop-color:#47474A"/>
	<stop  offset="0.62" style="stop-color:#616268"/>
	<stop  offset="1" style="stop-color:#6D6E75"/>
</linearGradient>
<path style="fill:url(#SVGID_1_);" d="M143.485,353.136l0.075-12.265c0-1.061-0.862-1.923-1.922-1.923h-21.74
	c-1.063,0-1.922,0.862-1.922,1.923l0.082,12.227l-4.495,6.756v1.311c0,1.062,0.861,0.816,1.922,0.816h30.563
	c1.062,0,1.925,0.245,1.925-0.816v-1.311L143.485,353.136z"/>
<linearGradient id="SVGID_2_" gradientUnits="userSpaceOnUse" x1="130.768" y1="160.3095" x2="130.768" y2="137.4588" gradientTransform="matrix(1 0 0 -1 0 498.159)">
	<stop  offset="0.115" style="stop-color:#737377"/>
	<stop  offset="0.189" style="stop-color:#707073"/>
	<stop  offset="0.497" style="stop-color:#656766"/>
	<stop  offset="0.624" style="stop-color:#4D4D51"/>
	<stop  offset="1" style="stop-color:#343439"/>
</linearGradient>
<path style="fill:url(#SVGID_2_);" d="M143.485,352.034l0.075-12.263c0-1.065-0.862-1.922-1.922-1.922h-21.74
	c-1.063,0-1.922,0.857-1.922,1.922l0.082,12.226l-4.495,7.858c0,1.063,0.861,0.821,1.922,0.821h30.563
	c1.062,0,1.925,0.242,1.925-0.821L143.485,352.034z"/>
<path style="fill:#08090B;" d="M184.094,257.83H77.44c-3.994,0-7.229,3.238-7.229,7.231v71.404c0,3.993,3.235,7.229,7.229,7.229
	h106.653c3.992,0,7.23-3.235,7.23-7.229v-71.404C191.324,261.068,188.085,257.83,184.094,257.83z"/>
<rect x="75.41" y="262.579" style="fill:#343433;" width="110.49" height="0.379"/>
<g>
	<path style="fill:#08090B;" d="M77.44,257.83c-3.994,0-7.229,3.238-7.229,7.231v62.714h5.199V262.69h86.892l3.397-4.86H77.44z"/>
	<path style="fill:#08090B;" d="M184.094,257.83h-18.395l-3.397,4.86h23.602v65.085h5.42v-62.714
		C191.324,261.068,188.085,257.83,184.094,257.83z"/>
</g>
<g style="opacity:0.3;">
	
		<linearGradient id="SVGID_3_" gradientUnits="userSpaceOnUse" x1="162.302" y1="205.356" x2="196.202" y2="205.356" gradientTransform="matrix(1 0 0 -1 0 498.159)">
		<stop  offset="0" style="stop-color:#959397"/>
		<stop  offset="0.234" style="stop-color:#A6A4AA"/>
		<stop  offset="0.731" style="stop-color:#C4C2CC"/>
		<stop  offset="1" style="stop-color:#D0CED9"/>
	</linearGradient>
	<path style="fill:url(#SVGID_3_);" d="M184.094,257.83h-18.395l-3.397,4.86h23.602v65.085h5.42v-62.714
		C191.324,261.068,188.085,257.83,184.094,257.83z"/>
</g>
<rect x="75.41" y="262.689" style="fill:#676767;" width="110.49" height="75.8"/>
<g style="opacity:0.3;">
	
		<linearGradient id="SVGID_4_" gradientUnits="userSpaceOnUse" x1="109.331" y1="197.5695" x2="205.781" y2="197.5695" gradientTransform="matrix(1 0 0 -1 0 498.159)">
		<stop  offset="0" style="stop-color:#959397"/>
		<stop  offset="0.234" style="stop-color:#A6A4AA"/>
		<stop  offset="0.731" style="stop-color:#C4C2CC"/>
		<stop  offset="1" style="stop-color:#D0CED9"/>
	</linearGradient>
	<polygon style="fill:url(#SVGID_4_);" points="162.302,262.69 116.818,327.775 109.331,338.488 185.903,338.488 185.903,262.69 	
		"/>
</g>
<linearGradient id="SVGID_5_" gradientUnits="userSpaceOnUse" x1="348.189" y1="148.1533" x2="382.598" y2="148.1533" gradientTransform="matrix(1 0 0 -1 0 498.159)">
	<stop  offset="0" style="stop-color:#47474A"/>
	<stop  offset="0.62" style="stop-color:#616268"/>
	<stop  offset="1" style="stop-color:#6D6E75"/>
</linearGradient>
<path style="fill:url(#SVGID_5_);" d="M378.111,352.664l0.074-12.265c0-1.061-0.861-1.923-1.922-1.923h-21.739
	c-1.063,0-1.922,0.862-1.922,1.923l0.082,12.228l-4.495,6.756v1.311c0,1.061,0.861,0.816,1.922,0.816h30.562
	c1.063,0,1.925,0.245,1.925-0.816v-1.311L378.111,352.664z"/>
<linearGradient id="SVGID_6_" gradientUnits="userSpaceOnUse" x1="365.3935" y1="160.7815" x2="365.3935" y2="137.9297" gradientTransform="matrix(1 0 0 -1 0 498.159)">
	<stop  offset="0.115" style="stop-color:#737377"/>
	<stop  offset="0.189" style="stop-color:#707073"/>
	<stop  offset="0.497" style="stop-color:#656766"/>
	<stop  offset="0.624" style="stop-color:#4D4D51"/>
	<stop  offset="1" style="stop-color:#343439"/>
</linearGradient>
<path style="fill:url(#SVGID_6_);" d="M378.111,351.563l0.074-12.264c0-1.065-0.861-1.922-1.922-1.922h-21.739
	c-1.063,0-1.922,0.857-1.922,1.922l0.082,12.226l-4.495,7.859c0,1.063,0.861,0.821,1.922,0.821h30.562
	c1.063,0,1.925,0.242,1.925-0.821L378.111,351.563z"/>
<path style="fill:#08090B;" d="M418.72,257.359H312.066c-3.994,0-7.229,3.238-7.229,7.231v71.404c0,3.993,3.235,7.229,7.229,7.229
	H418.72c3.992,0,7.229-3.236,7.229-7.229V264.59C425.949,260.597,422.711,257.359,418.72,257.359z"/>
<rect x="310.04" y="262.109" style="fill:#343433;" width="110.49" height="0.379"/>
<g>
	<path style="fill:#08090B;" d="M312.066,257.359c-3.994,0-7.229,3.238-7.229,7.231v62.714h5.199v-65.085h86.891l3.398-4.86
		L312.066,257.359L312.066,257.359z"/>
	<path style="fill:#08090B;" d="M418.72,257.359h-18.396l-3.398,4.86h23.603v65.085h5.42V264.59
		C425.949,260.597,422.711,257.359,418.72,257.359z"/>
</g>
<g style="opacity:0.3;">
	
		<linearGradient id="SVGID_7_" gradientUnits="userSpaceOnUse" x1="396.926" y1="205.827" x2="430.816" y2="205.827" gradientTransform="matrix(1 0 0 -1 0 498.159)">
		<stop  offset="0" style="stop-color:#959397"/>
		<stop  offset="0.234" style="stop-color:#A6A4AA"/>
		<stop  offset="0.731" style="stop-color:#C4C2CC"/>
		<stop  offset="1" style="stop-color:#D0CED9"/>
	</linearGradient>
	<path style="fill:url(#SVGID_7_);" d="M418.72,257.359h-18.396l-3.398,4.86h23.603v65.085h5.42V264.59
		C425.949,260.597,422.711,257.359,418.72,257.359z"/>
</g>
<rect x="310.04" y="262.219" style="fill:#676767;" width="110.49" height="75.8"/>
<g style="opacity:0.3;">
	
		<linearGradient id="SVGID_8_" gradientUnits="userSpaceOnUse" x1="343.957" y1="198.0405" x2="440.397" y2="198.0405" gradientTransform="matrix(1 0 0 -1 0 498.159)">
		<stop  offset="0" style="stop-color:#959397"/>
		<stop  offset="0.234" style="stop-color:#A6A4AA"/>
		<stop  offset="0.731" style="stop-color:#C4C2CC"/>
		<stop  offset="1" style="stop-color:#D0CED9"/>
	</linearGradient>
	<polygon style="fill:url(#SVGID_8_);" points="396.926,262.219 351.444,327.304 343.957,338.017 420.529,338.017 420.529,262.219 	
		"/>
</g>
<linearGradient id="SVGID_9_" gradientUnits="userSpaceOnUse" x1="230.874" y1="323.1342" x2="265.283" y2="323.1342" gradientTransform="matrix(1 0 0 -1 0 498.159)">
	<stop  offset="0" style="stop-color:#47474A"/>
	<stop  offset="0.62" style="stop-color:#616268"/>
	<stop  offset="1" style="stop-color:#6D6E75"/>
</linearGradient>
<path style="fill:url(#SVGID_9_);" d="M260.798,177.683l0.074-12.265c0-1.061-0.861-1.923-1.922-1.923h-21.74
	c-1.063,0-1.923,0.862-1.923,1.923l0.082,12.228l-4.495,6.756v1.311c0,1.061,0.861,0.816,1.922,0.816h30.562
	c1.063,0,1.925,0.245,1.925-0.816v-1.311L260.798,177.683z"/>
<linearGradient id="SVGID_10_" gradientUnits="userSpaceOnUse" x1="248.0785" y1="335.7625" x2="248.0785" y2="312.9108" gradientTransform="matrix(1 0 0 -1 0 498.159)">
	<stop  offset="0.115" style="stop-color:#737377"/>
	<stop  offset="0.189" style="stop-color:#707073"/>
	<stop  offset="0.497" style="stop-color:#656766"/>
	<stop  offset="0.624" style="stop-color:#4D4D51"/>
	<stop  offset="1" style="stop-color:#343439"/>
</linearGradient>
<path style="fill:url(#SVGID_10_);" d="M260.798,176.581l0.074-12.263c0-1.065-0.861-1.922-1.922-1.922h-21.74
	c-1.063,0-1.923,0.857-1.923,1.922l0.082,12.226l-4.495,7.859c0,1.063,0.861,0.821,1.922,0.821h30.562
	c1.063,0,1.925,0.242,1.925-0.821L260.798,176.581z"/>
<path style="fill:#08090B;" d="M301.407,82.377H194.753c-3.994,0-7.229,3.238-7.229,7.231v71.404c0,3.993,3.235,7.229,7.229,7.229
	h106.653c3.992,0,7.229-3.235,7.229-7.229V89.609C308.636,85.616,305.398,82.377,301.407,82.377z"/>
<rect x="192.72" y="87.129" style="fill:#343433;" width="110.49" height="0.379"/>
<g>
	<path style="fill:#08090B;" d="M194.753,82.377c-3.994,0-7.229,3.238-7.229,7.231v62.713h5.199V87.238h86.891l3.397-4.86
		L194.753,82.377L194.753,82.377z"/>
	<path style="fill:#08090B;" d="M301.407,82.377h-18.396l-3.397,4.86h23.603v65.084h5.42V89.609
		C308.636,85.616,305.398,82.377,301.407,82.377z"/>
</g>
<g style="opacity:0.3;">
	
		<linearGradient id="SVGID_11_" gradientUnits="userSpaceOnUse" x1="279.614" y1="380.8095" x2="313.514" y2="380.8095" gradientTransform="matrix(1 0 0 -1 0 498.159)">
		<stop  offset="0" style="stop-color:#959397"/>
		<stop  offset="0.234" style="stop-color:#A6A4AA"/>
		<stop  offset="0.731" style="stop-color:#C4C2CC"/>
		<stop  offset="1" style="stop-color:#D0CED9"/>
	</linearGradient>
	<path style="fill:url(#SVGID_11_);" d="M301.407,82.377h-18.396l-3.397,4.86h23.603v65.084h5.42V89.609
		C308.636,85.616,305.398,82.377,301.407,82.377z"/>
</g>
<rect x="192.72" y="87.239" style="fill:#676767;" width="110.49" height="75.8"/>
<g style="opacity:0.3;">
	
		<linearGradient id="SVGID_12_" gradientUnits="userSpaceOnUse" x1="226.644" y1="373.022" x2="323.094" y2="373.022" gradientTransform="matrix(1 0 0 -1 0 498.159)">
		<stop  offset="0" style="stop-color:#959397"/>
		<stop  offset="0.234" style="stop-color:#A6A4AA"/>
		<stop  offset="0.731" style="stop-color:#C4C2CC"/>
		<stop  offset="1" style="stop-color:#D0CED9"/>
	</linearGradient>
	<polygon style="fill:url(#SVGID_12_);" points="279.614,87.238 234.131,152.322 226.644,163.035 303.216,163.035 303.216,87.238 	
		"/>
</g>
<path style="fill:#FFFFFF;" d="M282.335,302.22h-27.167v-97.833c0-3.59-2.91-6.5-6.5-6.5s-6.5,2.91-6.5,6.5v97.833h-27.167
	c-3.59,0-6.5,2.91-6.5,6.5s2.91,6.5,6.5,6.5h67.333c3.59,0,6.5-2.91,6.5-6.5S285.925,302.22,282.335,302.22z"/>
<g>
</g>
<g>
</g>
<g>
</g>
<g>
</g>
<g>
</g>
<g>
</g>
<g>
</g>
<g>
</g>
<g>
</g>
<g>
</g>
<g>
</g>
<g>
</g>
<g>
</g>
<g>
</g>
<g>
</g>
</svg>
