<?xml version="1.0"?>
<svg xmlns="http://www.w3.org/2000/svg" xmlns:xlink="http://www.w3.org/1999/xlink" version="1.1" id="Layer_1" x="0px" y="0px" viewBox="0 0 473.935 473.935" style="enable-background:new 0 0 473.935 473.935;" xml:space="preserve" width="512px" height="512px" class=""><g><circle style="fill:#EFC454" cx="236.967" cy="236.967" r="236.967" data-original="#4ABC96" class="active-path" data-old_color="#4ABC96"/><path style="fill:#787878;" d="M280.297,376.727c-4.135,0-8.18-2.062-10.544-5.815L125.709,142.087l-31.76,17.542  c-6.013,3.33-13.594,1.145-16.913-4.879c-3.326-6.017-1.141-13.586,4.876-16.913l42.05-23.225  c5.774-3.188,13.029-1.325,16.554,4.262l143.67,228.238l80.763-50.84c5.841-3.656,13.512-1.908,17.167,3.906  c3.667,5.815,1.916,13.5-3.903,17.171l-91.292,57.466C284.859,376.11,282.561,376.727,280.297,376.727z" data-original="#787878" class=""/><path style="fill:#338FE4" d="M377.73,273.802c3.764,6.006,1.949,13.931-4.049,17.695l-78.447,49.175  c-6.006,3.772-13.923,1.949-17.695-4.049l-49.175-78.45c-3.764-6.002-1.949-13.923,4.056-17.684l78.432-49.186  c6.006-3.764,13.931-1.949,17.699,4.052L377.73,273.802z" data-original="#9A8671" class="" data-old_color="#9A8671"/><g>
	<polygon style="fill:#C1AA9A;" points="296.522,260.425 295.8,255.927 300.323,257.596 300.323,253.588 304.365,254.584    304.065,251.25 307.624,252.155 277.753,212.062 263.979,220.702 294.621,261.839  " data-original="#C1AA9A" class=""/>
	<polygon style="fill:#C1AA9A;" points="299.059,219.561 303.609,219.317 301.468,223.635 305.453,224.066 304.035,227.972    307.38,228.036 306.108,231.478 338.999,212.017 330.381,198.281 297.85,217.521  " data-original="#C1AA9A" class=""/>
</g><path style="fill:#338FE4" d="M285.427,196.885c2.574,4.116,1.336,9.53-2.769,12.101l-53.672,33.654  c-4.116,2.574-9.53,1.328-12.101-2.776l-33.661-53.672c-2.567-4.101-1.325-9.523,2.784-12.093l53.665-33.654  c4.116-2.578,9.53-1.336,12.108,2.769L285.427,196.885z" data-original="#A78F7E" class="" data-old_color="#A78F7E"/><circle style="fill:#5B5B5B;" cx="280.286" cy="355.994" r="36.539" data-original="#5B5B5B" class=""/><circle style="fill:#6C6C6B;" cx="280.29" cy="355.994" r="13.021" data-original="#6C6C6B" class=""/></g> </svg>
