<?xml version="1.0" encoding="iso-8859-1"?>
<!-- Generator: Adobe Illustrator 19.0.0, SVG Export Plug-In . SVG Version: 6.00 Build 0)  -->
<svg version="1.1" id="Layer_1" xmlns="http://www.w3.org/2000/svg" xmlns:xlink="http://www.w3.org/1999/xlink" x="0px" y="0px"
	 viewBox="0 0 491.52 491.52" style="enable-background:new 0 0 491.52 491.52;" xml:space="preserve">
<circle style="fill:#EFC454;" cx="245.76" cy="245.76" r="245.76"/>
<path style="opacity:0.1;enable-background:new    ;" d="M486.999,292.644L326.144,131.832l-0.307-0.358
	c-2.406-2.97-5.12-5.683-8.038-8.038l-0.102-0.102c-10.189-8.397-23.245-13.466-37.478-13.466c-11.059,0-21.35,3.123-30.208,8.397
	c-8.499-8.244-20.07-13.313-32.819-13.313c-21.658,0-39.885,14.644-45.466,34.509c-24.525,0.923-44.134,20.993-44.134,45.723
	c0,5.477,1.024,10.7,2.816,15.564c-15.053,7.476-25.446,22.886-25.446,40.806c0,12.134,4.762,23.194,12.493,31.283l2.406,2.458
	l0.41,0.359l37.376,37.376c3.277,18.278,12.083,34.612,24.678,47.206l0.102,0.102l123.69,123.69
	C397.787,460.878,468.916,386.224,486.999,292.644z"/>
<path style="fill:#EBF0F3;" d="M386.56,212.18c0-26.102-21.16-47.262-47.262-47.262c-0.069,0-0.135,0.01-0.204,0.01
	c-2.08-30.738-27.607-55.045-58.873-55.045c-11.05,0-21.355,3.09-30.201,8.37c-8.503-8.216-20.058-13.294-32.815-13.294
	c-21.683,0-39.909,14.619-45.475,34.525c-24.511,0.881-44.125,20.975-44.125,45.701c0,5.48,1.013,10.711,2.778,15.581
	c-15.048,7.433-25.424,22.889-25.424,40.809c0,25.15,20.388,45.539,45.538,45.539c13.785,0,26.111-6.15,34.462-15.826
	c11.19,18.623,31.584,31.088,54.892,31.088c17.266,0,32.923-6.85,44.436-17.965c9.435,10.982,23.395,17.965,39.01,17.965
	c28.413,0,51.446-23.033,51.446-51.446c0-2.374-0.217-4.692-0.528-6.98C381.86,235.553,386.56,224.429,386.56,212.18z"/>
<g>
	<path style="fill:#FFFFFF;" d="M376.322,212.18c0-20.313-16.445-36.855-36.72-37.022l-10.075,0.01l-0.645-9.547
		c-1.73-25.513-23.105-45.498-48.66-45.498c-8.735,0-17.365,2.395-24.95,6.923l-6.73,4.015l-5.635-5.443
		c-6.955-6.717-16.08-10.418-25.7-10.418c-12.612,0-24.094,6.512-30.819,16.668c5.964-4.026,13.047-6.428,20.579-6.428
		c9.62,0,18.745,3.7,25.7,10.418l5.635,5.443l6.73-4.015c7.585-4.528,16.215-6.923,24.95-6.923c25.555,0,46.93,19.985,48.66,45.498
		l0.645,9.547l10.075-0.01c20.275,0.167,36.72,16.71,36.72,37.022c0,9.187-3.435,18.022-9.675,24.878l-3.22,3.532l0.645,4.735
		c0.295,2.178,0.43,3.958,0.43,5.605c0,8.749-2.762,16.855-7.43,23.534c10.665-7.455,17.67-19.804,17.67-33.774
		c0-1.648-0.135-3.428-0.43-5.605l-0.645-4.735l3.22-3.532C372.887,230.202,376.322,221.367,376.322,212.18z"/>
	<path style="fill:#FFFFFF;" d="M124.677,220.188l8.21-4.055l-1.493-4.13c-4.258,2.739-7.806,6.274-10.483,10.382
		C122.119,221.594,123.357,220.839,124.677,220.188z"/>
	<path style="fill:#FFFFFF;" d="M161.857,159.957l7.48-0.267l2.015-7.208c0.27-0.963,0.69-1.848,1.033-2.775l-0.288,0.01
		c-12.036,0.433-22.435,6.716-28.524,16.071C148.837,162.33,155.077,160.201,161.857,159.957z"/>
	<path style="fill:#FFFFFF;" d="M176.217,264.13l-5.342,6.186c2.135-1.518,4.115-3.273,5.897-5.263L176.217,264.13z"/>
</g>
<path style="fill:#64798A;" d="M245.76,207.36c-49.485,0-89.6,40.116-89.6,89.6c0,49.485,40.115,89.6,89.6,89.6
	s89.6-40.115,89.6-89.6C335.36,247.476,295.245,207.36,245.76,207.36z M245.76,371.96c-41.356,0-75.001-33.645-75.001-75
	c0-41.355,33.645-75,75.001-75c41.355,0,75,33.645,75,75C320.76,338.315,287.115,371.96,245.76,371.96z"/>
<g>
	<path style="fill:#3A556A;" d="M220.321,367.515c-0.284-0.102-0.567-0.208-0.85-0.314
		C219.753,367.306,220.037,367.412,220.321,367.515z"/>
	<path style="fill:#3A556A;" d="M223.881,368.701c-0.442-0.135-0.881-0.275-1.319-0.418
		C223,368.425,223.439,368.566,223.881,368.701z"/>
	<path style="fill:#3A556A;" d="M216.791,366.137c-0.148-0.062-0.297-0.125-0.445-0.189
		C216.494,366.011,216.643,366.074,216.791,366.137z"/>
	<path style="fill:#3A556A;" d="M213.273,364.552c-0.013-0.007-0.027-0.013-0.04-0.019
		C213.246,364.539,213.26,364.546,213.273,364.552z"/>
	<path style="fill:#3A556A;" d="M260.154,351.444c0,0,5.662-25.574,31.821-28.697c0,0,19.728-0.338,17.831,13.202
		c6.946-11.368,10.954-24.719,10.954-38.989c0-2.097-0.091-4.173-0.261-6.227c-2.798,9.789-10.889,1.274-10.889,1.274
		c-23.928-22.914-63.875-21.292-63.875-21.292s-39.948-1.622-63.876,21.292c0,0-8.02,8.439-10.851-1.151
		c-0.163,2.014-0.249,4.049-0.249,6.104c0,14.269,4.007,27.62,10.954,38.989c-1.897-13.541,17.831-13.202,17.831-13.202
		c26.159,3.123,31.821,28.697,31.821,28.697c4.108,14.433-1.197,17.542-6.537,17.54c6.635,1.931,13.644,2.972,20.893,2.976
		l0.014-0.001l0.026,0.001c7.262,0,14.284-1.042,20.93-2.976C261.352,368.986,256.046,365.878,260.154,351.444z"/>
	<path style="fill:#3A556A;" d="M271.158,367.53c0.308-0.111,0.614-0.225,0.92-0.341
		C271.772,367.304,271.466,367.419,271.158,367.53z"/>
	<path style="fill:#3A556A;" d="M267.602,368.713c0.475-0.145,0.947-0.295,1.418-0.45
		C268.549,368.417,268.077,368.568,267.602,368.713z"/>
	<path style="fill:#3A556A;" d="M278.191,364.579c0.033-0.016,0.067-0.032,0.099-0.048
		C278.257,364.547,278.224,364.563,278.191,364.579z"/>
	<path style="fill:#3A556A;" d="M274.68,366.157c0.17-0.071,0.339-0.143,0.509-0.216C275.02,366.014,274.85,366.086,274.68,366.157z
		"/>
</g>
<ellipse style="fill:#2F4859;" cx="245.76" cy="302.848" rx="25.395" ry="18.463"/>
<g>
</g>
<g>
</g>
<g>
</g>
<g>
</g>
<g>
</g>
<g>
</g>
<g>
</g>
<g>
</g>
<g>
</g>
<g>
</g>
<g>
</g>
<g>
</g>
<g>
</g>
<g>
</g>
<g>
</g>
</svg>
