<svg enable-background="new 0 0 140 140" height="512" viewBox="0 0 140 140" width="512" xmlns="http://www.w3.org/2000/svg"><circle cx="70" cy="70" fill="#EFC454" r="64"/><path d="m124.0495834 79.7633896-50.9499511-50.9499493-.0400391-.0300293c-.8498535-.829834-2.0200195-1.3498535-3.3099365-1.3498535h-23.760006c-2.6500244 0-4.7999878 2.1499023-4.7999878 4.790041v19.5200195h-.6699829c-1.3800049 0-2.4900513 1.119873-2.4900513 2.4897461 0 .7202148.3099976 1.3701172.8000488 1.8200684l2.0799561 2.0900879v49.4499474h-.3899536c-1.3800049 0-2.4900513 1.119873-2.4900513 2.4899902 0 .6999512.2900391 1.3300781.7600098 1.7800293l21.350769 21.3549881c14.6848106 2.2966309 30.2294884-.4648438 43.8171349-8.9699783 14.043457-8.7910156 23.5003662-22.1376953 27.6533279-36.9238281l-7.5012283-7.5012207c-.0200195-.0200197-.040039-.0400392-.0600586-.0600587z" opacity=".1"/><path d="m101.4101868 78.92379c-.8693924-.8500061-2.3531494-2.03228-4.5751877-2.9680557-4.0635834-1.7113342-8.6798859-1.7113342-12.7434769 0-2.2214508.9355316-3.7050018 2.117424-4.574501 2.9673843-.6052704.5916824-.7393723 1.513916-.3165359 2.2471542l7.1041489 12.3194046 4.9713974 4.6221771 3.3458786-4.5998459 7.1054993-12.3421936c.4220732-.7331313.2876586-1.6546478-.3172227-2.246025z" fill="#ededed"/><path d="m92.0395889 93.8372421-1.5745316.1962509-4.1609726-.5233765-7.1050567-12.3389587c-.4230576-.7327194-.2878265-1.6573181.3184433-2.2461777.8679504-.8505936 2.3509064-2.0325699 4.5753098-2.9702682 2.5122757-1.0554733 5.2382736-1.4611816 7.9119339-1.2125397-1.6486969.1570663-3.2799301.5582962-4.8283157 1.2125397-2.2200317.9376984-3.7029877 2.1196747-4.5753021 2.9702682-.6018524.5888596-.7370834 1.5134583-.3140259 2.2461777l7.1050568 12.317131z" fill="#dbd8dd"/><path d="m97.1775589 109.1552048c.3183823 1.2691879-.6411972 2.5034409-1.9496765 2.5034409h-9.530014c-1.3084793 0-2.2680588-1.2342529-1.9496689-2.5034409l1.365181-5.39534c-1.0860367-1.4175186-1.7490082-3.2013397-1.7490082-4.9896393 0-2.363945 1.160202-4.1871719 2.9397125-5.2601089.9988174.1396027 1.9976425.2311783 2.9833679.2747345.9857254.0392914 1.9627151.0305557 2.9353409-.0260925.8068848-.0480194 1.6050339-.130867 2.39888-.248642.1439133.0872116.2878265.178894.4230576.2792053 1.5396576 1.0946579 2.5166473 2.8088379 2.5166473 4.9809036 0 1.7882996-.6629715 3.5721207-1.7490005 4.9896393z" fill="#d59247"/><path d="m97.1775589 109.1552048c.3183823 1.2691879-.6411972 2.5034409-1.9496765 2.5034409h-6.13237c-1.3084793 0-2.2680588-1.2342529-1.9452515-2.5034409l1.365181-5.39534c-1.0904007-1.4175186-1.7490082-3.2013397-1.7490082-4.9896393 0-2.1764297.9769974-3.8905029 2.521019-4.9853745.9857254.0392914 1.9627151.0305557 2.9353409-.0260925.946434.0566483 1.8841858.0653839 2.8219376.0305634 1.5396576 1.0946579 2.5166473 2.8088379 2.5166473 4.9809036 0 1.7882996-.6629715 3.5721207-1.7490005 4.9896393z" fill="#e7a14e"/><path d="m45.9930344 27.4286366h.9421005c-2.4272995 0-4.4002571 2.1504726-4.4002571 4.7993946v20.028595h-1.3411026v-20.028595c0-2.648922 2.1501999-4.7993946 4.7992592-4.7993946z" fill="#dbd8dd" opacity=".5"/><path d="m74.5339508 32.2280312v20.028595h-1.3301392v-20.028595c0-2.648922-1.9729614-4.7993946-4.4113541-4.7993946h.953331c2.6489182 0 4.7881623 2.1504726 4.7881623 4.7993946z" fill="#dbd8dd" opacity=".5"/><g fill="#ededed"><path d="m68.7971191 27.4324322h-21.8577118c-2.4339066 0-4.4069786 2.1448555-4.4069786 4.7905445v20.0387497h30.6717567v-20.0387497c.0000001-2.645689-1.9731597-4.7905445-4.4070663-4.7905445z" opacity=".75"/><path d="m49.5983963 48.1629639v-15.9349327c0-2.648922 1.9729576-4.7993946 4.4113541-4.7993946h-3.1701012c-2.4383926 0-4.4113541 2.1504726-4.4113541 4.7993946v15.9349327z" opacity=".35"/><path d="m65.320961 37.795799h2.623119v11.219673h-2.623119z" opacity=".35"/><path d="m74.2496338 54.5801163-16.3637505-16.3638726-16.3637542 16.3638726z"/></g><path d="m40.909054 54.235325h33.763409v55.949711h-33.763409z" fill="#4da0dc"/><g fill="#4288b9"><path d="m75.2125778 51.7477608h-34.6974296c-1.3738594 0-2.4875641 1.1137047-2.4875641 2.4874687 0 1.3737679 1.1137047 2.4876633 2.4875641 2.4876633h34.6974297c1.3738632 0 2.4875641-1.1138954 2.4875641-2.4876633-.0000001-1.373764-1.113701-2.4874687-2.4875642-2.4874687z"/><path d="m74.6724625 56.7228928s-3.5959702 34.8932114-33.7634087 41.4113922v12.0507507h33.7634087z"/><path d="m75.2125778 107.5962296h-34.6974296c-1.3738594 0-2.4875641 1.1137085-2.4875641 2.4874725s1.1137047 2.4876633 2.4875641 2.4876633h34.6974297c1.3738632 0 2.4875641-1.1138992 2.4875641-2.4876633s-1.113701-2.4874725-2.4875642-2.4874725z"/></g><path d="m61.9865456 37.1593895h-8.2163467c-.35112 0-.6358299.2846107-.6358299.6356277v5.1660767h9.4880066v-5.1660767c-.0000001-.351017-.28471-.6356277-.63583-.6356277z" fill="#e77d49"/><circle cx="57.791" cy="82.758" fill="#ededed" r="8.086"/></svg>