<svg enable-background="new 0 0 140 140" height="512" viewBox="0 0 140 140" width="512" xmlns="http://www.w3.org/2000/svg"><circle cx="70" cy="70" fill="#EFC454" r="64"/><path d="m133.9400024 67.6900024c.0299683.7699585.0599976 1.5399781.0599976 2.3099976 0 35.3499756-28.6500244 64-64 64-1.6599731 0-3.3099976-.0800171-4.9400024-.210022l-50.6300049-50.6300049v-4.6400146c0-.7099609 2.2600098-1.3399658 5.8300171-1.7799683v-.0100098l10.7799682-28.5299682-1.0799561-1.0800171c-.4400024-.4199829-.7100219-1.0200195-.7100219-1.6799927 0-.5400391.1900024-1.0300293.4899902-1.4200439v-.0099487s2.0700073-3.9500122 7.7999878-.2200317c2.2300415 1.4500122 4.1900024 2.1000366 6.2600098 1.9199829l1.7800293-.3599854c2.5-.7600098 5.2699585-2.6699829 8.8899536-5.8399658 5.4300537-4.75 10.5700073-3.9300537 13.0700073-3.0800171v-1.1400147l-.4299927-.4299927h.0100098c-.0899658-.0900269-.1400146-.210022-.1400146-.3400269 0-.2599487.210022-.4799805.4800415-.4899902v-.7600098c0-.6499634.5099487-1.1799927 1.1599731-1.2299805v-1.5l-1.4699707-1.4699707c-.7800293-.75-1.2800293-1.7900391-1.2800293-2.9700317 0-2.2799683 1.8499756-4.1300049 4.1300049-4.1300049 1.0999756 0 2.0900269.4400024 2.8300171 1.1400146l.0100098-.0200195 22.4899902 22.4899902c2.3899536.4700317 4.5899658-.1399536 7.1300049-1.789978 5.7299805-3.7299805 7.7999878.2200317 7.7999878.2200317z" opacity=".1"/><path d="m125.5730057 82.1882324c-10.5560226 6.6991577-24.0314789 6.6991577-34.5876389 0-.0000687-1.181572-.0000687-3.4643173 0-4.6460266h34.5876389z" fill="#fdd96f"/><ellipse cx="108.279" cy="77.542" fill="#d6b24e" rx="17.294" ry="2.373"/><path d="m49.0146828 82.1882324c-10.5560265 6.6991577-24.0314789 6.6991577-34.5876389 0-.0000658-1.181572-.0000658-3.4643173 0-4.6460266h34.5876389z" fill="#fdd96f"/><ellipse cx="31.721" cy="77.542" fill="#d6b24e" rx="17.294" ry="2.373"/><g fill="#e6e7e8"><path d="m121.0148392 79.1574097c-.3300171.0400391-.6700439.0900269-1.0200195.1400146l-1.3800049-3.6599731-9.710022-25.7400551-.5-1.3199463-.4699707-1.25.4699707-.1700439.4700317-.1799927.0299683.0800171 10.8300171 28.700016z"/><path d="m108.8748245 47.3274498-.4700317 1.25-.5 1.3199463-9.7099609 25.7100258-1.4000244 3.7200317c-.3499756-.0500488-.6900024-.1000366-1.0100098-.1400146l1.2999878-3.460022 10.8200073-28.6699867.0300293-.0800171.4699707.1799927z"/><path d="m32.064827 47.3274498-.4600201 1.2299805-.5100098 1.3399658-9.7099609 25.7400551-1.3800049 3.6599731c-.3600464-.0499878-.7000122-.0999756-1.0200195-.1400146l1.2800293-3.3999634 10.8299561-28.6700478.0400391-.1099854.4699707.1799927z"/><path d="m44.2147903 79.187439c-.3200073.039978-.6599731.0899658-1.0099487.1400146l-1.4000244-3.7200317-9.710022-25.739994-.4899883-1.3099976-.4699707-1.2299805.4699707-.1700439.4600201-.1799927.0299683.0800171 10.8200073 28.6699867z"/></g><g fill="#feed32"><path d="m110.2555084 44.0158424c.0006104-.0002022.0054474-.0016823.0054474-.0016823s-2.06884-3.9500008-7.7964859-.2226257c-5.443924 3.5427284-9.3244858 2.3787117-16.936264-4.2816544-7.6118393-6.6603012-14.6527252-2.3786469-14.6527252-2.3786469s.285408 6.8505974.5708847 5.6137161c.285408-1.2369461 8.5632401-3.6156578 14.6527252.9514732 2.3420792 1.7566071 4.3464508 2.8657074 5.9263458 3.5655823 2.6454391 1.1718788 5.6194305 1.2421875 8.3451233.271492 2.9840088-1.0625839 5.7285233-2.6670761 5.7726898-2.6928902-.0509567.1922455-.0867844.3904686-.0867844.5987778 0 1.2956963 1.050354 2.3460464 2.3460464 2.3460464 1.2956314 0 2.3459778-1.0503502 2.3459778-2.3460464.0000001-.5380781-.1884154-1.0277632-.4929809-1.4235419zm-1.8529968 2.6636506c-.6849518 0-1.2401733-.5552216-1.2401733-1.2401085 0-.6848831.5552216-1.2401047 1.2401733-1.2401047.6848831 0 1.2401047.5552216 1.2401047 1.2401047 0 .6848869-.5552216 1.2401085-1.2401047 1.2401085z"/><path d="m29.2515106 45.4393845c0 1.2956963 1.0503502 2.3460464 2.3459778 2.3460464 1.2956963 0 2.3460426-1.0503502 2.3460426-2.3460464 0-.2083092-.0358276-.4065323-.0867767-.5987778.0441628.0258141 2.7886734 1.6303062 5.772686 2.6928902 2.7256927.9706955 5.699688.9003868 8.3451233-.271492 1.5798912-.6998749 3.5842667-1.8089752 5.9263458-3.5655823 6.0894852-4.567131 14.3673172-2.1884193 14.6527252-.9514732.2854767 1.2368813.5708847-5.6137161.5708847-5.6137161s-7.0408897-4.2816544-14.652729 2.3786469c-7.6117706 6.6603661-11.4923363 7.8243828-16.9362602 4.2816544-5.7276497-3.727375-7.7964878.2226257-7.7964878.2226257s.0048409.0014801.0054455.0016823c-.3045655.3957785-.4929772.8854636-.4929772 1.4235419zm1.1058712 0c0-.6848831.5552216-1.2401047 1.2401066-1.2401047.6849518 0 1.2401733.5552216 1.2401733 1.2401047 0 .6848869-.5552216 1.2401085-1.2401733 1.2401085-.684885 0-1.2401066-.5552216-1.2401066-1.2401085z"/><path d="m68.616203 29.636187h2.767594v2.767594h-2.767594z"/></g><path d="m67.539513 34.650517h4.920969v53.042351h-4.920969z" fill="#ffcb08"/><path d="m71.2874222 32.0205269h-2.574852c-.692009 0-1.2530823.5610695-1.2530823 1.2531471v1.2479553h5.0810165v-1.2479553c.0000001-.6920776-.5610046-1.2531471-1.2530822-1.2531471z" fill="#ffcb08"/><path d="m77.6903992 97.7450638v5.9820557h-15.3807946v-5.9820557c3.9556389-2.1570129 5.2293587-10.0522003 5.2293587-10.0522003h4.9220734s1.2737198 7.8951873 5.2293625 10.0522003z" fill="#ffcb08"/><path d="m90.5797806 108.0889435h-41.1595612v-.0000076c0-4.2634277 3.456192-7.7196198 7.7196159-7.7196198h25.7203255c4.2634277 0 7.7196198 3.456192 7.7196198 7.7196198z" fill="#fdd96f"/><path d="m72.5222168 34.0260277h-5.0444412c-.2737122 0-.4956055.2218895-.4956055.4956017s.2218933.4955978.4956055.4955978h5.0444412c.2737122 0 .4955978-.2218857.4955978-.4955978s-.2218856-.4956017-.4955978-.4956017z" fill="#feed32"/><path d="m72.5222168 87.1972656h-5.0444412c-.2737122 0-.4956055.2218857-.4956055.4955978s.2218933.4955978.4956055.4955978h5.0444412c.2737122 0 .4955978-.2218857.4955978-.4955978s-.2218856-.4955978-.4955978-.4955978z" fill="#feed32"/><circle cx="70" cy="26.104" fill="#ffcb08" r="4.133"/><path d="m93.1113739 112.6049423h-46.222744c-1.2746735 0-2.3079987-1.0333252-2.3079987-2.3079987v-.0000076c0-1.2746658 1.0333252-2.307991 2.3079987-2.307991h46.222744c1.2746658 0 2.307991 1.0333252 2.307991 2.307991v.0000076c0 1.2746735-1.0333252 2.3079987-2.307991 2.3079987z" fill="#d6b24e"/></svg>