<?xml version="1.0" encoding="iso-8859-1"?>
<!-- Generator: Adobe Illustrator 19.0.0, SVG Export Plug-In . SVG Version: 6.00 Build 0)  -->
<svg version="1.1" id="Capa_1" xmlns="http://www.w3.org/2000/svg" xmlns:xlink="http://www.w3.org/1999/xlink" x="0px" y="0px"
	 viewBox="0 0 491.52 491.52" style="enable-background:new 0 0 491.52 491.52;" xml:space="preserve">
<circle style="fill:#EFC454;" cx="245.76" cy="245.76" r="245.76"/>
<path style="opacity:0.1;enable-background:new    ;" d="M491.52,245.76c0-0.484-0.034-0.96-0.036-1.444L353.561,106.394
	c-0.079-0.086-0.158-0.162-0.243-0.243l-0.202-0.201l-0.04,0.036c-0.758-0.617-1.679-1.04-2.715-1.04H172.646
	c-18.483,0-34.611,13.978-35.84,32.41c-0.051,0.767-0.051,1.535-0.051,2.303v211.712c0,10.118,4.296,19.235,11.151,25.657
	l113.912,113.912C390.055,482.661,491.52,376.089,491.52,245.76z"/>
<path style="fill:#1C75A1;" d="M172.348,113.805h177.999c2.441,0,4.421-1.98,4.421-4.421v-0.004c0-2.442-1.98-4.421-4.421-4.421
	H172.644c-18.484,0-34.623,13.949-35.817,32.393c-1.308,20.212,14.698,37.013,34.628,37.013h178.893c2.441,0,4.421-1.979,4.421-4.42
	c0-2.442-1.98-4.421-4.421-4.421H171.452c-15.376,0-27.658-13.494-25.637-29.264C147.485,123.228,159.208,113.805,172.348,113.805z"
	/>
<path style="fill:#EBF0F3;" d="M348.76,113.805H172.348c-13.14,0-24.864,9.423-26.533,22.456
	c-2.021,15.77,10.262,29.264,25.637,29.264h177.308C344.246,155.872,344.246,123.466,348.76,113.805z"/>
<path style="fill:#D5D6DB;" d="M147.861,142.74c1.67-13.033,13.393-22.456,26.534-22.456h172.511
	c0.499-2.629,1.108-4.883,1.853-6.478H172.348c-13.14,0-24.864,9.423-26.534,22.456c-0.661,5.162,0.232,10.069,2.243,14.35
	C147.616,148.09,147.513,145.454,147.861,142.74z"/>
<path style="fill:#27A2DB;" d="M350.347,174.366H171.454c-0.969,0-1.921-0.068-2.87-0.145V386.39c1.107,0.105,2.227,0.17,3.362,0.17
	h171.939c6.009,0,10.882-4.872,10.882-10.883V169.946C354.767,172.386,352.788,174.366,350.347,174.366z"/>
<path style="fill:#2D93BA;" d="M136.8,139.665h-0.048v211.701c0,18.301,13.973,33.33,31.833,35.024V174.221
	C150.775,172.757,136.806,157.856,136.8,139.665z"/>
<circle style="fill:#FFFFFF;" cx="261.683" cy="253.594" r="49.551"/>
<polygon style="fill:#E56353;" points="298.793,240.593 274.653,240.593 274.653,216.455 248.698,216.455 248.698,240.593 
	224.559,240.593 224.559,266.55 248.698,266.55 248.698,290.69 274.653,290.69 274.653,266.55 298.793,266.55 "/>
<g>
</g>
<g>
</g>
<g>
</g>
<g>
</g>
<g>
</g>
<g>
</g>
<g>
</g>
<g>
</g>
<g>
</g>
<g>
</g>
<g>
</g>
<g>
</g>
<g>
</g>
<g>
</g>
<g>
</g>
</svg>
