<svg enable-background="new 0 0 140 140" height="512" viewBox="0 0 140 140" width="512" xmlns="http://www.w3.org/2000/svg"><circle cx="70" cy="70" fill="#EFC454" r="64"/><path d="m42.9867325 56.9071999c-.1500244.8999023-.3300171 1.7800293-.5299683 2.6400146-1.0700073 4.4399414-2.8500366 8.4799843-4.9100342 13.5999794-1.4500122 3.5999756-2.289978 7.9399414-2.289978 12.5999756 0 5.3299561 1.0999756 13.6900635 2.9500122 17.5599365.4373169.9123535 1.0571289 1.6987305 1.8025513 2.3256836l-.0006714.0002441 28.3247681 28.3248215c.555481.0142822 1.107666.0421143 1.6665649.0421143 34.6333618 0 62.8223953-27.5141525 63.9462967-61.8741379l-37.2881546-37.2882118c-1.4266357-1.4777832-3.4237671-2.4003906-5.6413574-2.4003906-2.1800537 0-4.1400146.8798828-5.5599976 2.2999268-.7988892.8045654-1.4182739 1.7807617-1.8148193 2.8637695l-8.0400391-8.0400372c-.0325317-.0330811-.0653687-.065918-.0985107-.0985107l-.0232544-.0231934-.0001221.0019531c-1.4151001-1.3803711-3.3449097-2.2338867-5.4732666-2.2338867-.0100098 0-.0100098 0-.0100098 0-4.3400269 0-7.8500366 3.5200195-7.8500366 7.8598614 0 2.2000732.9100342 4.1900635 2.3700562 5.6101074v4.0837402l-9.4871216-9.4870605c-.3081055-.3701172-.6494141-.7114258-1.0195312-1.0195312l-.0064697-.0065918-.000061.0006104c-1.3613892-1.1304932-3.1095581-1.8111572-5.0168457-1.8111572-2.1699829 0-4.1300049.8798828-5.5599976 2.2999268-1.4199829 1.4300537-2.2999878 3.3900146-2.2999878 5.5600586 0 2.1999512.9099731 4.1899414 2.3699951 5.6199951v4.5400391c-.0000001 2.3498533-.1799927 4.4599607-.5100098 6.449951z" opacity=".1"/><path d="m83.732132 80.5100327c0 5.3340378-1.1048737 13.6889343-2.9576721 17.567215-1.1508179 2.4166794-3.590538 3.9530487-6.2718887 3.9530487h-9.0051422c-2.6756592 0-5.1211433-1.5363693-6.2719574-3.9530487-1.8527985-3.8782806-2.9576035-12.2331772-2.9576035-17.567215 0-4.6607895.8459015-8.9936218 2.2958679-12.6014404 2.0541763-5.1153488 3.8379974-9.1547241 4.9024849-13.5968513.2071381-.8631134.3855515-1.7377434.5351601-2.6411362.3279495-1.9851646.5120544-4.0969009.5120544-6.4503326v-4.2867622c-1.4614906-1.4270325-2.3706093-3.6653786-2.3706093-5.8691635 0-4.3385963 3.5156593-7.8600883 7.8600197-7.8600883 4.3385925 0 7.8543243 3.521492 7.8543243 7.8600883 0 2.3419113-1.0242386 4.430645-2.6468582 5.8691635-.0172806.0172462-.0345612.0287666-.0518341.0460091v4.2407532c0 2.3534317.2072067 4.465168.5696487 6.4503326.1611252.9033928.3568192 1.7780228.5869217 2.6411362 1.1623383 4.4421272 3.072731 8.4815025 5.1269073 13.5968513 1.444275 3.6078184 2.2901765 7.9406508 2.2901765 12.6014403z" fill="#dbd8dd"/><path d="m80.0903168 80.5100327c0 5.3340378-.8118591 13.6889343-2.1732864 17.567215-.8456116 2.4166794-2.6383133 3.9530487-4.6085587 3.9530487h-6.6169434c-1.9660645 0-3.7629967-1.5363693-4.6086121-3.9530487-1.3614273-3.8782806-2.173233-12.2331772-2.173233-17.567215 0-4.6607895.621563-8.9936218 1.6869965-12.6014404 1.5093994-5.1153488 2.8201447-9.1547241 3.6023254-13.5968513.1522064-.8631134.2833023-1.7377434.3932343-2.6411362.2409744-1.9851646.3762512-4.0969009.3762512-6.4503326v-4.5399399c-1.0738907-1.4270363-1.7419128-3.4122009-1.7419128-5.6159859 0-4.3385963 2.5832977-7.8600883 5.7755127-7.8600883 3.1879807 0 5.7713318 3.521492 5.7713318 7.8600883 0 2.3419113-.7526093 4.430645-1.9449081 5.8691635-.0126953.0172462-.0253906.0287666-.0380859.0460091v4.2407532c0 2.3534317.1522522 4.465168.4185715 6.4503326.1184006.9033928.2621918 1.7780228.4312744 2.6411362.8540802 4.4421272 2.2578278 8.4815025 3.7672272 13.5968513 1.0612486 3.6078185 1.6828154 7.9406509 1.6828154 12.6014404z" fill="#ededed"/><path d="m64.5134354 40.9335098v2.6411018h10.6450424v-2.5950928c.0172729-.0172424.0345535-.0287628.0518341-.0460091h-10.6968765z" fill="#de594e"/><path d="m75.7281265 51.6706047h-11.7267456c-.1496086.9033928-.328022 1.7780228-.5351601 2.6411362h12.8488274c-.2301025-.8631134-.4257965-1.7377434-.5869217-2.6411362z" fill="#de594e"/><path d="m62.7182236 85.7439957c0 5.3340454-1.1048775 13.6889343-2.9576759 17.567215-1.1508141 2.416687-3.590538 3.9530487-6.2718849 3.9530487h-9.005146c-2.6756592 0-5.1211395-1.5363617-6.2719574-3.9530487-1.8527946-3.8782806-2.9576035-12.2331696-2.9576035-17.567215 0-4.6607895.8459015-8.9936218 2.2958717-12.6014404 2.0541725-5.1153488 3.8379936-9.1547203 4.9024849-13.5968513.2071381-.8631096.3855476-1.7377396.5351601-2.6411362.3279495-1.9851646.5120506-4.0969009.5120506-6.4503326v-4.2867584c-1.4614868-1.4270363-2.3706055-3.6653786-2.3706055-5.8691635 0-4.3385963 3.5156593-7.8600883 7.8600159-7.8600883 4.3385963 0 7.8543282 3.521492 7.8543282 7.8600883 0 2.3419113-1.0242424 4.430645-2.6468582 5.8691635-.0172806.0172424-.0345612.0287628-.0518379.0460091v4.2407494c0 2.3534317.2072067 4.465168.5696487 6.4503326.161129.9033966.3568192 1.7780266.5869255 2.6411362 1.1623344 4.442131 3.0727272 8.4815025 5.1269035 13.5968513 1.4442787 3.6078184 2.2901802 7.9406508 2.2901802 12.6014403z" fill="#dbd8dd"/><path d="m59.0764084 85.7439957c0 5.3340454-.8118591 13.6889343-2.1732864 17.567215-.8456154 2.416687-2.6383133 3.9530487-4.6085587 3.9530487h-6.6169472c-1.9660645 0-3.7629929-1.5363617-4.6086082-3.9530487-1.3614273-3.8782806-2.1732368-12.2331696-2.1732368-17.567215 0-4.6607895.6215668-8.9936218 1.6869965-12.6014404 1.5093994-5.1153488 2.8201447-9.1547203 3.6023293-13.5968513.1522026-.8631096.2832985-1.7377396.3932304-2.6411362.2409782-1.9851646.376255-4.0969009.376255-6.4503326v-4.5399399c-1.0738945-1.4270325-1.7419128-3.4121971-1.7419128-5.6159821 0-4.3385963 2.5832939-7.8600883 5.7755089-7.8600883 3.1879845 0 5.7713318 3.521492 5.7713318 7.8600883 0 2.3419113-.7526093 4.430645-1.9449043 5.8691635-.0126953.0172424-.0253906.0287628-.0380898.0460091v4.2407494c0 2.3534317.152256 4.465168.4185753 6.4503326.1184006.9033966.2621918 1.7780266.4312744 2.6411362.8540764 4.442131 2.2578278 8.4815025 3.7672272 13.5968513 1.0612486 3.6078185 1.6828154 7.9406509 1.6828154 12.6014404z" fill="#ededed"/><path d="m43.4995232 46.1674767v2.6411018h10.6450424v-2.5950928c.0172768-.0172462.0345573-.0287666.0518379-.0460091h-10.6968803z" fill="#e77d49"/><path d="m54.7142143 56.9045677h-11.7267418c-.1496124.9033966-.328022 1.7780266-.5351601 2.6411362h12.8488274c-.2301063-.8631096-.4257965-1.7377396-.5869255-2.6411362z" fill="#e77d49"/><path d="m104.7460403 85.7439957c0 5.3340454-1.1048737 13.6889343-2.9576721 17.567215-1.1508102 2.416687-3.590538 3.9530487-6.2718887 3.9530487h-9.0051422c-2.6756592 0-5.1211395-1.5363617-6.2719574-3.9530487-1.8527985-3.8782806-2.9576035-12.2331696-2.9576035-17.567215 0-4.6607895.8459015-8.9936218 2.2958679-12.6014404 2.0541763-5.1153488 3.8379974-9.1547203 4.9024887-13.5968513.2071381-.8631096.3855515-1.7377396.5351562-2.6411362.3279572-1.9851646.5120544-4.0969009.5120544-6.4503326v-4.2867584c-1.4614868-1.4270325-2.3706055-3.6653786-2.3706055-5.8691635 0-4.3385963 3.5156631-7.8600883 7.8600159-7.8600883 4.3386002 0 7.854332 3.521492 7.854332 7.8600883 0 2.3419113-1.0242462 4.430645-2.6468658 5.8691635-.0172806.0172424-.0345535.0287628-.0518341.0460091v4.2407494c0 2.3534317.2072067 4.465168.5696487 6.4503326.1611328.9033966.3568192 1.7780266.5869217 2.6411362 1.1623383 4.442131 3.072731 8.4815025 5.1269073 13.5968513 1.4442751 3.6078184 2.2901765 7.9406508 2.2901765 12.6014403z" fill="#dbd8dd"/><path d="m101.1042252 85.7439957c0 5.3340454-.8118591 13.6889343-2.1732864 17.567215-.8456116 2.416687-2.6383133 3.9530487-4.6085587 3.9530487h-6.6169434c-1.9660645 0-3.7629929-1.5363617-4.6086121-3.9530487-1.3614273-3.8782806-2.173233-12.2331696-2.173233-17.567215 0-4.6607895.6215668-8.9936218 1.6869965-12.6014404 1.5093994-5.1153488 2.8201447-9.1547203 3.6023254-13.5968513.1522064-.8631096.2833023-1.7377396.3932343-2.6411362.2409821-1.9851646.3762512-4.0969009.3762512-6.4503326v-4.2867584c-1.0738907-1.4270325-1.7419128-3.6653786-1.7419128-5.8691635 0-4.3385963 2.5832977-7.8600883 5.7755127-7.8600883 3.1879883 0 5.7713318 3.521492 5.7713318 7.8600883 0 2.3419113-.7526093 4.430645-1.9449005 5.8691635-.0127029.0172424-.0253983.0287628-.0380936.0460091v4.2407494c0 2.3534317.1522598 4.465168.4185791 6.4503326.1183929.9033966.2621841 1.7780266.4312668 2.6411362.8540802 4.442131 2.2578278 8.4815025 3.7672272 13.5968513 1.0612563 3.6078184 1.6828155 7.9406508 1.6828155 12.6014403z" fill="#ededed"/><g fill="#4da0dc"><path d="m85.5273438 46.1674767v2.6411018h10.6450424v-2.5950928c.0172806-.0172462.0345535-.0287666.0518341-.0460091h-10.6968765z"/><path d="m96.7420349 56.9045677h-11.7267456c-.1496048.9033966-.3280182 1.7780266-.5351562 2.6411362h12.8488235c-.2301025-.8631096-.4257889-1.7377396-.5869217-2.6411362z"/></g></svg>