<svg enable-background="new 0 0 140 140" height="512" viewBox="0 0 140 140" width="512" xmlns="http://www.w3.org/2000/svg"><circle cx="70" cy="70" fill="#EFC454" r="64"/><path d="m95.4283905 41.1615562c-.3327637-.7950439-1.2032471-1.2055054-2.0203247-.9799194l-4.7936401-4.7936401c-.5146484-.5228882-1.3127441-.7124023-2.026062-.4164429l-5.039978 2.0800171c-.7233276.3045654-1.1538086 1.003418-1.1473389 1.7388916l-2.2583008-2.2583008v.0001221c-.5126953-.5119629-1.3001099-.6939087-2.0143433-.4006958l-5.0400391 2.0799561c-.9499512.4000244-1.3999634 1.4800415-1.0099487 2.4300537l3.2299805 7.8199463-22.628479 9.335083-6.9360352-6.9360352c-.0570068-.0653687-.1171875-.1259155-.1819458-.1819458-.5117798-.4425659-1.2427368-.5924683-1.9135742-.3170776l-5.039978 2.0800171c-.9500122.3899536-1.3999634 1.4799805-1.0100098 2.4299927l1.8848877 4.5634155-1.7977905-1.7978516c-.1490479-.2341309-.343811-.4267578-.5698853-.5698853l-.0009155-.0009155v.0004272c-.4902344-.3100586-1.1165771-.3892822-1.6962891-.1452026l-5.0399799 2.0800171c-.9500122.3900146-1.4000244 1.4699707-1.0100098 2.4199829l2.1199951 5.1199913-2.0900269.8599854c-.8699951.3600464-1.289978 1.3600464-.9299927 2.2200317.1807861.4368896.5206299.7572021.9241333.9241333l12.6058979 12.605896.6063232 1.5799561h-.7063599c-1.0199585 0-1.8499756.8300171-1.8499756 1.8499756v5.5500488h-2.2700195c-.9299927 0-1.6900024.7600098-1.6900024 1.6999512 0 .4386597.1731567.8381348.4493408 1.1416016l-.0003662.000061.0025635.0025635c.0331421.0363159.0675049.0703125.1036377.1036377l3.4048462 3.4049072v2.5872803c0 .5101318.2076416.9727783.5428467 1.3078003l31.6153564 31.6153641c32.1690674-.1022339 58.7389526-23.9373856 63.140625-54.9144363z" opacity=".1"/><path d="m106.9865265 92.1290436h-71.2041664c-.9382324 0-1.6987915.7605896-1.6987915 1.6987915 0 .9382324.7605591 1.6987915 1.6987915 1.6987915h71.2041626c.9382019 0 1.698761-.7605591 1.698761-1.6987915.0000038-.9382019-.7605553-1.6987915-1.6987572-1.6987915z" fill="#dbd8dd"/><g fill="#344d5b"><path d="m92.7615128 81.8146515h-5.4526825c-1.0248184 0-1.8555908.8307724-1.8555908 1.8555908v20.3151855c0 1.0248184.8307724 1.8555908 1.8555908 1.8555908h5.4526825c1.024826 0 1.8555908-.8307724 1.8555908-1.8555908v-20.3151855c0-1.0248184-.8307648-1.8555908-1.8555908-1.8555908z"/><path d="m102.868454 84.7309265h-5.4526901c-1.0248184 0-1.8555908.8307724-1.8555908 1.8555908v14.4826355c0 1.0248184.8307724 1.8555908 1.8555908 1.8555908h5.4526901c1.0248184 0 1.8555908-.8307724 1.8555908-1.8555908v-14.4826355c0-1.0248184-.8307724-1.8555908-1.8555908-1.8555908z"/><path d="m50.0073357 81.8146515h5.4526863c1.0248222 0 1.8555908.8307724 1.8555908 1.8555908v20.3151855c0 1.0248184-.8307686 1.8555908-1.8555908 1.8555908h-5.4526863c-1.0248184 0-1.8555908-.8307724-1.8555908-1.8555908v-20.3151855c-.0000001-1.0248184.8307723-1.8555908 1.8555908-1.8555908z"/><path d="m39.9004021 84.7309265h5.4526863c1.0248222 0 1.8555908.8307724 1.8555908 1.8555908v14.4826355c0 1.0248184-.8307686 1.8555908-1.8555908 1.8555908h-5.4526863c-1.0248222 0-1.8555908-.8307724-1.8555908-1.8555908v-14.4826355c-.0000001-1.0248184.8307685-1.8555908 1.8555908-1.8555908z"/></g><path d="m93.2129059 40.2435532-65.8195019 27.1629562c-.867281.3579178-1.2801743 1.3511276-.9222698 2.2183762.3579178.8672791 1.351099 1.2801895 2.21838.9222717l65.8195037-27.1629563c.8672485-.3579025 1.2801514-1.3510857.9222412-2.2183647-.3579101-.8672523-1.3511047-1.2801857-2.2183532-.9222831z" fill="#dbd8dd"/><g fill="#344d5b"><path d="m76.1288986 36.1357193-5.0403366 2.0800934c-.947319.3909454-1.3983459 1.4758148-1.0073929 2.4231339l7.7498322 18.7788925c.3909454.947319 1.4758148 1.3983421 2.4231339 1.0073967l5.0403442-2.0800934c.947319-.3909454 1.3983383-1.4758148 1.0073929-2.4231339l-7.7498322-18.7788925c-.3909531-.947319-1.4758148-1.3983421-2.4231415-1.0073967z"/><path d="m86.5840225 34.9758682-5.0403366 2.0800896c-.9473267.3909492-1.3983459 1.4758148-1.0074005 2.4231377l5.5248337 13.387413c.3909454.947319 1.4758148 1.3983421 2.4231339 1.0073929l5.0403442-2.0800896c.947319-.3909492 1.3983383-1.4758148 1.0073929-2.4231339l-5.5248337-13.387413c-.3909455-.9473228-1.4758148-1.3983459-2.4231339-1.0073967z"/><path d="m36.607914 52.4455795 5.0403404-2.0800896c.947319-.3909492 2.0321884.0600739 2.4231339 1.0073929l7.749836 18.7788963c.3909492.947319-.0600739 2.0321808-1.0073967 2.4231339l-5.0403366 2.0800858c-.9473228.3909531-2.0321884-.0600739-2.4231377-1.0073929l-7.7498322-18.7788925c-.3909493-.9473191.0600738-2.0321846 1.0073929-2.4231339z"/><path d="m28.3777962 58.9969101 5.0403404-2.0800896c.947319-.3909492 2.0321846.0600739 2.4231339 1.0073967l5.5248337 13.387413c.3909454.947319-.0600777 2.0321884-1.0073967 2.4231339l-5.0403404 2.0800934c-.947319.3909454-2.0321846-.0600815-2.4231339-1.0074005l-5.5248318-13.3874092c-.3909474-.9473229.0600738-2.0321885 1.0073948-2.4231377z"/></g></svg>