<svg enable-background="new 0 0 140 140" height="512" viewBox="0 0 140 140" width="512" xmlns="http://www.w3.org/2000/svg"><circle cx="70" cy="70" fill="#EFC454" r="64"/><path d="m27.3497448 87.3968506c-.5499878-.5799561-.8899536-1.3599854-.8899536-2.2301025v-24.9499474c0-1.8199463 1.4699707-3.3000488 3.289978-3.3000488h22.0599995l11.9199829-10.2099609c3.3099976-2.8299561 8.0500488-3.2800293 11.8300171-1.1099854l15.1799927 8.7200928v-1.2000732h22.7999878l20.3600464 20.3599815c-1.7399902 32.4599609-27.6600342 58.4899902-60.0800171 60.4000244l-46.3499776-46.3399659c-.0300293-.0300293-.0599976-.0600586-.0900269-.0900879l-.039978-.039917z" opacity=".1"/><path d="m51.6568298 57.0517006 12.0698357-10.3428917c3.3103828-2.8367386 8.0484352-3.2813225 11.8287468-1.1099281l19.9388962 11.4528198-1.1425095 26.6442528-23.879097 2.9155121 3.1028671-14.8469162z" fill="#feda6f"/><path d="m70.2795868 56.9176216h-40.5258102c-1.8203106 0-3.2959843 1.4756737-3.2959843 3.2959862v24.9500122c0 1.8203125 1.4756737 3.2959366 3.2959843 3.2959366h40.5258102c1.8203049 0 3.2959824-1.4756241 3.2959824-3.2959366v-24.9500122c0-1.8203125-1.4756775-3.2959862-3.2959824-3.2959862z" fill="#4abba4"/><path d="m26.457792 63.387535h47.117775v5.267955h-47.117775z" fill="#293b44"/><g fill="#ededed"><path d="m30.679485 80.474213h7.296572v2.807335h-7.296572z"/><path d="m42.377632 80.474213h7.296572v2.807335h-7.296572z"/><path d="m54.075783 80.474213h7.296572v2.807335h-7.296572z"/></g><path d="m45.2624817 63.4633636c-5.5030556 2.4159546-3.6436615 13.5070038 6.1345482 10.3250122 3.8001671-1.2366409 6.5753174-3.9370499 9.9753227-4.2202835 6.3454895-.5286026 13.1881943 2.6411057 13.1881943 2.6411057l.330452-18.8385582c-.7223816 1.1199188-8.3035889 2.2854996-16.0004311 4.7501221-2.2884674.7327919-4.6654053 2.0827713-6.8133965 3.1829681-1.6661491.8534012-6.1343307 1.8609429-6.8146896 2.1596336z" fill="#feda6f"/><path d="m74.9090881 53.1176796-.0180893.2529602c.0667115-.103405.0801163-.1902847.0180893-.2529602z" fill="#feda6f"/><path d="m90.735939 53.117706h22.806265v33.493763h-22.806265z" fill="#de594e"/><g fill="#ededed"><path d="m50.7233009 71.7229233-3.6819.9713821c-.94561.2494812-1.9144173-.3148499-2.1638947-1.2604523l-.9713821-3.6819c-.2494736-.94561.3148499-1.9144211 1.2604599-2.1638947l3.6819-.9713821c.9456062-.2494736 1.9144135.3148499 2.1638908 1.2604599l.9713821 3.6819c.2494775.9456025-.3148497 1.9144135-1.260456 2.1638871z"/><path d="m102.1391068 77.1647873c-1.6890869 0-3.0584106 1.3693237-3.0584106 3.0584106s1.3693237 3.0583496 3.0584106 3.0583496 3.0583496-1.3692627 3.0583496-3.0583496-1.3692627-3.0584106-3.0583496-3.0584106z"/></g></svg>