<svg enable-background="new 0 0 140 140" height="512" viewBox="0 0 140 140" width="512" xmlns="http://www.w3.org/2000/svg"><circle cx="70" cy="70" fill="#EFC454" r="64"/><path d="m121.210022 71.5498047 11.4599609 11.4702148c-5.3999634 26.1401367-26.75 46.449707-53.4299927 50.3100586l-10.0499878-10.050293c-.0100098-.0097656-.0300293-.0297852-.039978-.0395508l-50.1700439-50.1704101c-.0299683-.0200195-.0499878-.0498047-.0700074-.0698242l-.0599976-.0498047.0200195-.0102539c-.1699829-.199707-.2799683-.449707-.2799683-.7299805 0-.6499023.5299683-1.1801758 1.1799927-1.1801758h5.3599854c.3300171 0 .6300049.1401367.8399658.3603516l12.3900146 12.3798828c.0700073-.3798828.1600342-.75.2900391-1.1201172-1.210022-.7397461-2.2700195-1.699707-3.1199951-2.8198242-.0300292-.0302734-.0500487-.0703125-.080017-.1000976-.25-.3500977-.4899902-.7001953-.710022-1.0800781-.0200195-.0297852-.039978-.0600586-.0499878-.0898438-.2399902-.4101562-.4500122-.8198242-.6300049-1.2602539v-.0097656c-.1599731-.3999023-.2999878-.8100586-.4199829-1.2299805-.0300293-.1201172-.0599976-.2299805-.0900269-.3500977-.0800171-.3300781-.1499634-.6601562-.2000122-1-.0199585-.1201172-.039978-.25-.0599976-.3798828-.0499878-.4501953-.0899658-.8999023-.0899658-1.3701172v-.0698242c0-.2900391.0199585-.590332.039978-.8803711.0100098-.1396484.0300293-.2695312.0499878-.3999023.0200195-.1796875.0400391-.3500977.0700073-.5297852.0300293-.1699219.0700073-.3300781.1000366-.5.0299683-.1298828.0599976-.2602539.0899658-.3901367.049988-.1899414.1000368-.3701172.1600344-.5600586.0299683-.1000977.0599976-.199707.0999756-.2998047.0700073-.2099609.1400146-.3999023.2200317-.6000977.0299683-.0800781.0599976-.1499023.0899658-.2202148.0900269-.2197266.1900024-.4296875.2999878-.6396484.0200195-.050293.0499878-.090332.0700073-.1401367.1199951-.2299805.2399902-.4501953.3800049-.6699219.0100098-.0200195.0200195-.0400391.039978-.0698242.1400146-.2304688.3000488-.4604492.460022-.6801758 0 0-.0100098 0-.0100098-.0102539-.1499634-.3095703-.2799683-.6298828-.3999634-.9599609-.0100098-.0200195-.0100098-.0498047-.0200195-.0698242-.1099854-.3100586-.2000122-.6201172-.2700195-.9399414-.0299683-.1000977-.039978-.2001953-.0599976-.300293-.0499878-.25-.1099854-.5-.1400146-.75-.039978-.3598633-.0599976-.7099609-.0599976-1.0698242 0-.0200195-.0099487-.0400391-.0099487-.0600586 0-.0400391.0099487-.0800781.0099487-.1201172 0-.2700195.0100098-.5395508.0400391-.8100586.0100098-.1196289.0299683-.2397461.0499878-.3598633.0200195-.1796875.039978-.3696289.0800171-.5498047.0199585-.1298828.0599976-.2602539.0899658-.3999023.0400391-.1601563.0800171-.3203125.1199951-.4702149.0400391-.1401367.0900269-.2797852.1400146-.4199219s.1000366-.2797852.1500244-.4199219c.0599976-.1499023.1199951-.2802734.1799927-.4199219l.1799927-.3901367c.0200195-.0302734.039978-.0600586.0499878-.1000977l-9.5800171-9.5800781c-.5599975-.3198241-.7599487-1.0498046-.4299926-1.6098632.3200073-.5600586 1.0500488-.75 1.6100464-.4301758l4.6399536 2.6801758c.1500244.0898438.2700195.2099609.3699951.3500977l5.710022 5.7099609c.0499878-.0400391.0900269-.0800781.1400146-.1201172.0700073-.0600586.1499634-.1201172.2299805-.1801758.1600342-.1196289.3099976-.2299805.4799805-.3398438.0700073-.0498047.1500244-.1000977.2200317-.1499023.1799927-.1098633.3499756-.2099609.5299683-.3100586.0700073-.0400391.1400146-.0698242.2200317-.1098633.1900024-.1000976.3800049-.1899414.5800171-.2802734.0599976-.0200195.1300049-.0498047.1900024-.0795898.2099609-.0800781.4299927-.1601562.6399536-.2304688.0599976-.0195312.1100464-.0297852.1700439-.0498047.2299805-.0698242.4599609-.1298828.6999512-.1899414.0400391-.0102539.0800171-.0102539.1200562-.0200195.2599487-.0498047.5199585-.1000977.7799683-.1298828.039978-.3798828.0900269-.75.1599731-1.1201172 0-.0400391.0100098-.0898438.0200195-.1401367.0599976-.3398438.1400146-.6699219.2299805-.9897461.0200195-.0800781.0400391-.1503906.0600586-.2299805.0899658-.300293.1899414-.6000977.2999878-.8999023.039978-.090332.0700073-.1801758.0999756-.2705078.1099854-.2797852.2399902-.5498047.3699951-.8198242.0499878-.1000977.0900269-.2099609.1400146-.3100586.1300049-.25.2700195-.4897461.4199829-.7397461.0599976-.1098633.1300049-.2202148.2000122-.3203125.1400146-.2299805.289978-.449707.4500122-.6699219.0899658-.1098633.1699829-.2299805.25-.3398438.1599731-.2001953.3300171-.3999023.5-.5898438.0999756-.1201172.2000122-.2299805.2999878-.340332.1699829-.1796875.3499756-.3496094.5200195-.5200195.1199951-.1196289.25-.2299805.3699951-.3398438.1799927-.1499023.3599854-.3100586.539978-.4501953.1400146-.1098633.2800293-.2099609.4199829-.3198242.1900024-.1298828.3700562-.2597656.5599976-.3901367.1600342-.1000977.3200073-.1899414.4800415-.2900391.1900024-.1098633.3800049-.2197266.5700073-.3198242.1799927-.0898438.3599854-.1801758.539978-.2597656.1900024-.090332.3699951-.1801758.5700073-.2602539s.4000244-.1499023.5999756-.2202148c.1900024-.0698242.3699951-.1396484.5700073-.199707.210022-.0600586.4400024-.1098633.6600342-.1699219.1900026-.0400391.3699953-.1000977.549988-.1303711.0700073-.0097656.1400146-.0195312.2099609-.0297852l-6.7199707-6.7397461.0100098-.0200195c-.0800171-.0703125-.1600342-.1401367-.2200317-.2402344l-2.6799927-4.6401367c-.3200073-.5698242-.1300049-1.2900391.4400024-1.6196289.460022-.2602539 1.0200195-.1601562 1.3900146.1899414l13.210022 13.2197266c2.6699829.6503906 5.0199585 2.1201172 6.7699585 4.1298828l.0200195-.0297852 5.75 5.75c.1699829-.7700195.4099731-1.5200195.710022-2.2397461 1.6999512-4.0200195 5.3599854-7.0102539 9.7599487-7.7900391l-12.7199707-12.7202148c-.2299805-.2202148-.3699951-.5097656-.3699951-.8500977v-5.3598633c0-.6499023.5299683-1.1801758 1.1799927-1.1801758.3699951 0 .6799927.1801758.9000244.4404297l50.0699463 50.0698242c.0600586.0498047.1100464.1000977.1600342.159668z" opacity=".1"/><path d="m48.5100098 110.3500977 23.5899658 23.6000977c-.6999512.0195312-1.3999634.0498046-2.0999756.0498046-3.0999756 0-6.1500244-.2299805-9.1400146-.6601562l-35.2999878-35.2998047.0200195-.0102539c-.0300293-.0395508-.0700073-.0698242-.1000366-.1196289-.3299561-.5600586-.1300049-1.2900391.4299927-1.6103516l4.6400146-2.6796875c.5100098-.300293 1.1400146-.1503906 1.4899902.2998047l.0200195-.0097656z" opacity=".1"/><path d="m133.8400269 65.7197266c.0999755 1.4101562.1599731 2.840332.1599731 4.2802734 0 2.1201172-.1099854 4.2099609-.3099976 6.2700195l-42.1699829-42.1699218.0100098-.0102539c-.3000488-.3701172-.3700562-.8896484-.1200562-1.3300781l2.6800537-4.6396484c.3299561-.5703125 1.0499878-.7602539 1.6099854-.4399414.1099854.0600586.1900024.1499023.2699585.2397461l.0300293-.0400392z" opacity=".1"/><path d="m106.8010941 72.9588013c0-2.4549866-.8021393-4.7604218-2.1668625-6.6490097.6203537-1.2930832.963768-2.7124367.963768-4.1550674 0-4.90728-3.6338882-8.945488-8.4122162-9.5378532-.5887909-6.6610947-6.191864-11.9037361-13.0029526-11.9037361-7.2019653 0-13.0615997 5.8591843-13.0615997 13.0616035v38.5248299c0 6.2854385 5.1136856 11.3995743 11.3991241 11.3995743 5.9764938 0 10.8835526-4.6265411 11.3523407-10.4843826 4.3702087-.0205994 7.9194794-3.5801697 7.9194794-7.954628 0-.9008636-.1486511-1.7753067-.439682-2.6108017 3.2613678-2.0023119 5.4486008-5.5909807 5.4486008-9.690529z" fill="#fdfbfb"/><path d="m55.8173218 40.7131348c-6.8110886 0-12.4141617 5.2426414-13.0029449 11.9037361-4.7783318.5923653-8.4122238 4.6305733-8.4122238 9.5378532 0 1.4426308.3434181 2.8619843.963768 4.1550674-1.3647232 1.888588-2.1668587 4.1940231-2.1668587 6.6490097 0 4.0995483 2.187233 7.6882172 5.4486046 9.6905289-.2910347.835495-.4396858 1.709938-.4396858 2.6108017 0 4.3744583 3.5492706 7.9340286 7.9194794 7.954628.4687881 5.8578415 5.375843 10.4843826 11.3523369 10.4843826 6.2854385 0 11.3991318-5.1141357 11.3991318-11.3995743v-38.5248298c-.0000002-7.2024193-5.8596346-13.0616035-13.0616075-13.0616035z" fill="#fbfbfb"/><g fill="#00a0ff"><path d="m82.5200577 103.6986618c-6.2854385 0-11.3986816-5.1132431-11.3986816-11.3986816v-38.5257264c0-7.2024193 5.8596344-13.0616035 13.0615997-13.0616035 7.201973 0 13.0616074 5.8591843 13.0616074 13.0616035 0 2.6166191-.7714691 5.1418991-2.2311172 7.3036079-.2829742.4190903-.852951.5292358-1.272934.2471542-.4195328-.2838707-.5301285-.8534012-.2467041-1.2733841 1.2541275-1.8572464 1.9167938-4.0279083 1.9167938-6.2773781 0-6.1905136-5.0366821-11.2276421-11.2276459-11.2276421s-11.2276382 5.0371284-11.2276382 11.2276421v38.5257263c0 5.2744293 4.2907333 9.5647202 9.5647202 9.5647202 5.2744293 0 9.5651627-4.2902908 9.5651627-9.5647202 0-2.2727509-.8108673-4.4756546-2.283493-6.2030487-.3282013-.3850632-.2820816-.9635468.1029739-1.2921906.3855133-.3304367.9626541-.2829742 1.2930908.1029816 1.7547073 2.0587234 2.7213898 4.683403 2.7213898 7.3922577-.0000002 6.2854387-5.1136934 11.3986818-11.3991243 11.3986818z"/><path d="m93.8354568 93.2169647c-.3165588 0-.6286392-.0179138-.935791-.0546265-.5028152-.0599976-.861908-.5158005-.8023529-1.0190659.0595474-.5023727.5153503-.8623581 1.0190659-.8023605.2355118.0277634.4759521.0420914.7190781.0420914 3.3759918 0 6.1229019-2.7464676 6.1229019-6.1224594 0-.9133987-.1965561-1.7927704-.5843048-2.6139374-.2162628-.4575958-.0205994-1.0038376.4374466-1.2205505.4584885-.2158127 1.0042877-.0205917 1.2210007.4378967.504158 1.0665283.759819 2.2100677.759819 3.3965912 0 4.3870011-3.5694199 7.9564209-7.9568635 7.9564209z"/><path d="m103.572998 67.3212128c-.1517792 0-.305809-.0376129-.4477386-.1173096-.441925-.2480545-.5990829-.806839-.3510361-1.2483139.647438-1.1542816.9899673-2.467968.9899673-3.8013496 0-4.197155-3.2824173-7.6134491-7.4724121-7.7773209-.5059509-.0197029-.9004135-.4459534-.8802643-.9519043.0201492-.5050583.458046-.8999672.9519043-.8802681 5.1781693.2023811 9.2347336 4.4237175 9.2347336 9.6094933 0 1.6468048-.4235687 3.2712212-1.2245865 4.6986275-.1683501.2999953-.4795303.4683456-.8005676.4683456z"/><path d="m78.8073578 66.4561691c-.5064011 0-.9169769-.4101334-.9169769-.9169846 0-1.3611374-1.1068268-2.4679642-2.4675217-2.4679642s-2.4675217 1.1068268-2.4675217 2.4679642c0 .5068512-.4105835.9169846-.9169846.9169846-.5063934 0-.9169769-.4101334-.9169769-.9169846 0-2.3721466 1.9297791-4.3019257 4.3014832-4.3019257s4.3014832 1.9297791 4.3014832 4.3019257c-.0000001.5068513-.4105835.9169846-.9169846.9169846z"/><path d="m82.0243988 96.1040192c-1.1014481 0-2.2028961-.4190903-3.0415268-1.2581635-.3581924-.3581924-.3581924-.9384689 0-1.296669.3582001-.3581924.9384766-.3581924 1.296669 0 .9626541.9617538 2.5270691.9617538 3.4897232 0 .962204-.9617538.962204-2.5279617 0-3.4897232-.3582001-.3581924-.3582001-.9384689 0-1.2966614.3581924-.3582001.9384689-.3582001 1.296669 0 1.6772461 1.6772461 1.6772461 4.4057999 0 6.0830536-.8386306.8390732-1.9400787 1.2581635-3.0415344 1.2581635z"/><path d="m90.2418594 55.0118179c-.5064011 0-.9169846-.4101334-.9169846-.9169807 0-3.0777931-2.5046844-5.5824776-5.583374-5.5824776-3.0782394 0-5.5829239 2.5046844-5.5829239 5.5824776 0 .5068474-.4105835.9169807-.9169846.9169807-.5063934 0-.9169769-.4101334-.9169769-.9169807 0-4.089695 3.3271866-7.4164391 7.4168854-7.4164391 4.0901489 0 7.4173355 3.3267441 7.4173355 7.4164391.0000001.5068474-.4105834.9169807-.9169769.9169807z"/><path d="m95.9805984 77.3703918c-.5064011 0-.9169846-.410141-.9169846-.9169846s.4105835-.9169769.9169846-.9169769c1.4211426 0 2.5772171-1.1560822 2.5772171-2.5772171 0-1.4211426-1.1560745-2.5772247-2.5772171-2.5772247-.5064011 0-.9169846-.4101334-.9169846-.9169769s.4105835-.9169846.9169846-.9169846c2.4321442 0 4.4111786 1.9790344 4.4111786 4.4111862 0 2.4321442-1.9790344 4.4111786-4.4111786 4.4111786z"/><path d="m83.6618042 71.7717896c-.5064011 0-.9169846-.4101334-.9169846-.9169769 0-.5068512.4105835-.9169846.9169846-.9169846 2.7607956 0 5.0071259-2.2458878 5.0071259-5.0066757 0-2.7607956-2.2463303-5.0066795-5.0071259-5.0066795-.5064011 0-.9169846-.4101334-.9169846-.9169807s.4105835-.9169807.9169846-.9169807c3.7722473 0 6.8410873 3.06884 6.8410873 6.840641 0 3.771797-3.06884 6.8406371-6.8410873 6.8406371z"/><path d="m85.5579987 81.0266724c-1.5845642 0-3.1865921-.4343185-4.6202698-1.3450241-4.0234375-2.5548325-5.2175674-7.9071732-2.6627426-11.930603.2713394-.4262543.8372879-.5569916 1.2657776-.2820816.427597.2713394.5538559.8381805.2825241 1.2653275-2.0130539 3.1700287-1.0718994 7.385994 2.0976868 9.3999481 3.1704788 2.0130615 7.3864365 1.0718994 9.399498-2.0981293.2713318-.4262543.8372803-.5560989 1.2657776-.2820816.4275894.2713318.5538559.8381805.2825241 1.2653275-1.645012 2.5897521-4.4487916 4.0073165-7.3107758 4.0073165z"/><path d="m76.7275848 89.3009872c-3.0912247 0-5.6062088-2.514534-5.6062088-5.6057587 0-.5068512.4105835-.9169846.9169769-.9169846.5064011 0 .9169846.4101334.9169846.9169846 0 2.0802155 1.6920242 3.7717972 3.7722473 3.7717972s3.7722473-1.6915817 3.7722473-3.7717972c0-.5068512.4105835-.9169846.9169769-.9169846.5064011 0 .9169846.4101334.9169846.9169846 0 3.0912247-2.5149841 5.6057587-5.6062088 5.6057587z"/><path d="m95.4267349 84.3337097c-.5063934 0-.9169769-.4101334-.9169769-.9169769 0-.5068512.4105835-.9169846.9169769-.9169846 5.2605515 0 9.5405426-4.279541 9.5405426-9.540535 0-4.5123749-3.2031631-8.443573-7.6170273-9.3471184-.4961014-.1011887-.8157959-.5856476-.7141571-1.081749.1011963-.4961014.5811768-.8184776 1.0821991-.7145996 5.2627869 1.0772705 9.0829468 5.7633629 9.0829468 11.1434669 0 6.2720033-5.1024933 11.3744966-11.3745041 11.3744966z"/><path d="m57.4799461 103.6986618c-6.2854385 0-11.399128-5.1132431-11.399128-11.3986816 0-2.7088547.9666786-5.3335342 2.7213898-7.3922577.3286438-.3859558.9071312-.4334183 1.293087-.1029816.3850594.3286438.431179.9071274.1029816 1.2921906-1.4726334 1.7273941-2.2834969 3.9302979-2.2834969 6.2030487 0 5.2744293 4.2907333 9.5647202 9.5651665 9.5647202s9.5651665-4.2902908 9.5651665-9.5647202v-38.5257264c0-6.1905136-5.0366783-11.2276421-11.2276421-11.2276421-6.1914101 0-11.2280884 5.0371284-11.2280884 11.2276421 0 2.2494698.6631088 4.4201317 1.9172401 6.2773781.2834244.4190903.1732788.9895134-.2467079 1.2733841-.4195366.2820816-.9895134.171936-1.2729378-.2471542-1.4600945-2.1608162-2.2315559-4.6869888-2.2315559-7.3036079 0-7.2024193 5.8596306-13.0616035 13.0620499-13.0616035 7.2019691 0 13.0616035 5.8591843 13.0616035 13.0616035v38.5257263c.0000001 6.2854385-5.1136931 11.3986816-11.3991279 11.3986816z"/><path d="m46.1649933 93.2169647c-4.3874474 0-7.9568672-3.5694199-7.9568672-7.9564209 0-1.1874237.255661-2.3300629.7593765-3.3965912.2167053-.4584885.7642975-.6546021 1.2209969-.4378967.4580421.216713.6537094.7629547.4374466 1.2205505-.3872986.8202744-.5838585 1.6996384-.5838585 2.6139374 0 3.3759918 2.7469139 6.1224594 6.1229057 6.1224594.2431259 0 .4835663-.014328.7190781-.0420914.5028191-.0591049.9590683.2999878 1.0190659.8023605.0595512.5032654-.2995415.9590683-.8023567 1.0190659-.3071519.0367127-.6192323.0546265-.9357873.0546265z"/><path d="m36.4269981 67.3212128c-.3210335 0-.6322136-.1683502-.8005676-.4683456-.8010139-1.4274063-1.2245789-3.0518227-1.2245789-4.6986275 0-5.1857758 4.0565643-9.4071121 9.2347298-9.6094933.4996834-.0340271.9322052.3734207.9519043.8802681.0201492.5059509-.3743134.9322014-.8802643.9519043-4.1899948.1638718-7.4724083 3.5801659-7.4724083 7.7773209 0 1.3333817.3425255 2.647068.9899635 3.8013496.2480507.4414749.090889 1.0002594-.3510323 1.2483139-.1419371.0796967-.2959594.1173096-.4477462.1173096z"/><path d="m67.9620895 66.4561691c-.5064011 0-.9169769-.4101334-.9169769-.9169846 0-1.3611374-1.1068268-2.4679642-2.4675217-2.4679642s-2.467968 1.1068268-2.467968 2.4679642c0 .5068512-.4105835.9169846-.9169807.9169846s-.9169807-.4101334-.9169807-.9169846c0-2.3721466 1.9297791-4.3019257 4.3019295-4.3019257 2.3717041 0 4.3014832 1.9297791 4.3014832 4.3019257-.0000001.5068513-.4105836.9169846-.9169847.9169846z"/><path d="m57.9755974 96.1040192c-1.1014519 0-2.2029037-.4190903-3.0415268-1.2581635-1.6772499-1.6772537-1.6772499-4.4058075 0-6.0830536.3581963-.3582001.9384727-.3582001 1.296669 0 .3581924.3581924.3581924.9384689 0 1.2966614-.962204.9617615-.962204 2.5279694 0 3.4897232.9626503.9617538 2.5270691.9617538 3.4897194 0 .3581963-.3581924.9384727-.3581924 1.296669 0 .3581924.3582001.3581924.9384766 0 1.296669-.8386269.8390732-1.9400787 1.2581635-3.0415306 1.2581635z"/><path d="m62.7584038 55.0118179c-.5063972 0-.9169807-.4101334-.9169807-.9169807 0-3.0777931-2.5046806-5.5824776-5.5829239-5.5824776-3.0786934 0-5.583374 2.5046844-5.583374 5.5824776 0 .5068474-.4105835.9169807-.9169807.9169807-.5064011 0-.9169807-.4101334-.9169807-.9169807 0-4.089695 3.3271866-7.4164391 7.4173355-7.4164391 4.089695 0 7.4168854 3.3267441 7.4168854 7.4164391-.0000002.5068474-.4105799.9169807-.9169809.9169807z"/><path d="m44.0198517 77.3703918c-2.432148 0-4.4111786-1.9790344-4.4111786-4.4111786 0-2.4321518 1.9790306-4.4111862 4.4111786-4.4111862.5063972 0 .9169807.410141.9169807.9169846s-.4105835.9169769-.9169807.9169769c-1.4211426 0-2.5772171 1.1560822-2.5772171 2.5772247 0 1.4211349 1.1560745 2.5772171 2.5772171 2.5772171.5063972 0 .9169807.4101334.9169807.9169769s-.4105835.9169846-.9169807.9169846z"/><path d="m56.3381958 71.7717896c-3.7722473 0-6.8410873-3.06884-6.8410873-6.8406372 0-3.771801 3.06884-6.840641 6.8410873-6.840641.5064011 0 .9169807.4101334.9169807.9169807s-.4105797.9169807-.9169807.9169807c-2.7607918 0-5.0071259 2.2458839-5.0071259 5.0066795 0 2.760788 2.2463341 5.0066757 5.0071259 5.0066757.5064011 0 .9169807.4101334.9169807.9169846 0 .5068436-.4105796.916977-.9169807.916977z"/><path d="m54.4424477 81.0266724c-2.8624306 0-5.66576-1.4175644-7.3112221-4.0073166-.2713318-.4271469-.1450691-.9939957.2825279-1.2653275s.9935455-.1441727 1.2657738.2820816c2.0130577 3.1700287 6.2303658 4.1120834 9.399498 2.0981293 3.1700325-2.0139542 4.1107445-6.2299194 2.097683-9.3999481-.2713318-.4271469-.1450691-.993988.2825279-1.2653275.427597-.27491.9948883-.1441727 1.2657738.2820816 2.5552788 4.0234299 1.3606949 9.3757706-2.662735 11.930603-1.4332314.9107056-3.0357094 1.3450242-4.6198273 1.3450242z"/><path d="m63.2728615 89.3009872c-3.0916748 0-5.6066551-2.514534-5.6066551-5.6057587 0-.5068512.4105835-.9169846.9169807-.9169846.5064011 0 .9169807.4101334.9169807.9169846 0 2.0802155 1.6924744 3.7717972 3.7726936 3.7717972s3.7722511-1.6915817 3.7722511-3.7717972c0-.5068512.4105759-.9169846.9169769-.9169846s.9169846.4101334.9169846.9169846c.0000001 3.0912247-2.514984 5.6057587-5.6062125 5.6057587z"/><path d="m44.5732613 84.3337097c-6.2720032 0-11.3745003-5.1024933-11.3745003-11.3744965 0-5.3801041 3.8201561-10.0661964 9.0829468-11.1434669.4974442-.1029816.9810066.2184982 1.0821953.7145996.1016388.4961014-.2180519.9805603-.7141495 1.081749-4.413868.9035454-7.6170311 4.8347435-7.6170311 9.3471184 0 5.260994 4.2799911 9.540535 9.5405388 9.540535.5064011 0 .9169807.4101334.9169807.9169846 0 .5068435-.4105797.9169768-.9169807.9169768z"/></g><g fill="#00a0ff"><path d="m70 20.7970467c-.6490326 0-1.1800308.5309353-1.1800308 1.1799698v5.3592415c0 .6490345.5309982 1.1799698 1.1800308 1.1799698s1.1800308-.5309353 1.1800308-1.1799698v-5.3592415c0-.6490346-.5309982-1.1799698-1.1800308-1.1799698z"/><path d="m70 115.8955688c-.6490326 0-1.1800308.5309372-1.1800308 1.1799698v5.3592377c0 .6490402.5309982 1.1799698 1.1800308 1.1799698s1.1800308-.5309296 1.1800308-1.1799698v-5.3592377c0-.6490326-.5309982-1.1799698-1.1800308-1.1799698z"/><path d="m44.2955742 27.6845264c-.5620804.3245163-.7564697 1.0498199-.4319534 1.6119003l2.6796188 4.6412411c.3245201.5620804 1.0498466.756382 1.611927.4318657s.7564697-1.0498199.4319534-1.6119003l-2.6796227-4.6412392c-.3245162-.5620803-1.0498427-.7563858-1.6119231-.4318676z"/><path d="m91.8448334 110.0422592c-.5620804.3245163-.7564697 1.0498199-.4319534 1.6119003l2.6796188 4.641243c.3245239.5620804 1.0498505.7563858 1.6119232.4318695.5620804-.3245239.7564774-1.0498199.4319611-1.6119003l-2.6796265-4.641243c-.3245163-.5620804-1.0498428-.7563858-1.6119232-.4318695z"/><path d="m25.4786282 46.5014725c-.3245163.5620804-.1302128 1.2874069.4318676 1.6119232l4.6412392 2.6796227c.5620804.3245163 1.287384.1301231 1.6119003-.4319534.3245201-.5620804.1302147-1.2874069-.4318657-1.611927l-4.6412411-2.6796188c-.5620804-.3245203-1.2873821-.1301271-1.6119003.4319533z"/><path d="m107.8363647 94.0507355c-.3245163.5620804-.1302109 1.2874069.4318695 1.6119232l4.6412354 2.6796188c.5620804.3245163 1.287384.130127 1.6119003-.4319534s.1302109-1.2874069-.4318619-1.6119232l-4.641243-2.6796265c-.5620803-.3245163-1.287384-.1301193-1.6119003.4319611z"/><path d="m18.5911484 72.2058945c0 .6490402.5309353 1.1800385 1.1799698 1.1800385h5.3592434c.6490345 0 1.1799698-.5309982 1.1799698-1.1800385 0-.6490326-.5309353-1.1800308-1.1799698-1.1800308h-5.3592434c-.6490345-.0000001-1.1799698.5309982-1.1799698 1.1800308z"/><path d="m113.6896667 72.2058945c0 .6490402.5309372 1.1800385 1.1799698 1.1800385h5.3592453c.6490326 0 1.1799698-.5309982 1.1799698-1.1800385 0-.6490326-.5309372-1.1800308-1.1799698-1.1800308h-5.3592453c-.6490326-.0000001-1.1799698.5309982-1.1799698 1.1800308z"/><path d="m25.4786282 97.9103241c.3245182.5620804 1.0498199.7564697 1.6119003.4319534l4.6412411-2.6796188c.5620804-.3245163.7563858-1.0498428.4318657-1.6119232-.3245163-.5620804-1.0498199-.7564774-1.6119003-.4319611l-4.6412392 2.6796265c-.5620804.3245163-.7563839 1.0498428-.4318676 1.6119232z"/><path d="m107.8363647 50.3610649c.3245163.5620766 1.0498199.7564697 1.6119003.4319534l4.641243-2.6796227c.5620728-.3245163.7563782-1.0498428.4318619-1.6119232s-1.0498199-.7564735-1.6119003-.4319534l-4.6412354 2.6796188c-.5620803.3245202-.7563858 1.0498467-.4318695 1.6119271z"/><path d="m44.2955742 116.727272c.5620804.3245163 1.2874069.1302109 1.6119232-.4318695l2.6796227-4.641243c.3245163-.5620804.130127-1.287384-.4319534-1.6119003s-1.2874069-.1302109-1.611927.4318695l-2.6796188 4.641243c-.3245164.5620804-.1301271 1.2873764.4319533 1.6119003z"/><path d="m91.8448334 34.3695335c.5620804.3245163 1.2874069.1302147 1.6119232-.4318657l2.6796265-4.6412411c.3245163-.5620804.1301193-1.287384-.4319611-1.6119003-.5620728-.3245182-1.2873993-.1302128-1.6119232.4318676l-2.6796188 4.6412392c-.3245164.5620804-.130127 1.287384.4319534 1.6119003z"/></g></svg>